<?xml version="1.0" encoding="UTF-8" standalone="no"?>
<svg width="124px" height="66px" viewBox="0 0 124 66" version="1.1" xmlns="http://www.w3.org/2000/svg" xmlns:xlink="http://www.w3.org/1999/xlink">
    <!-- Generator: Sketch 42 (36781) - http://www.bohemiancoding.com/sketch -->
    <title>condition_monitoring</title>
    <desc>Created with Sketch.</desc>
    <defs>
        <filter x="-50%" y="-50%" width="200%" height="200%" filterUnits="objectBoundingBox" id="filter-1">
            <feGaussianBlur stdDeviation="10 0" in="SourceGraphic"></feGaussianBlur>
        </filter>
    </defs>
    <g id="Page-1" stroke="none" stroke-width="1" fill="none" fill-rule="evenodd">
        <g id="Large-Device-Desktops" transform="translate(-486.000000, -1008.000000)">
            <g id="iot_solutions_manufacturing" transform="translate(80.000000, 635.000000)">
                <g id="Group-15" transform="translate(70.000000, 373.000000)">
                    <g id="Group-13" transform="translate(58.000000, 0.000000)">
                        <g id="condition_monitoring" transform="translate(302.000000, 0.000000)">
                            <g id="Layer_1" transform="translate(6.000000, 0.000000)">
                                <g id="Group">
                                    <path d="M52.9138889,63.9040795 L21.9399123,63.9040795 C21.9399123,61.048431 24.2513158,58.733159 27.102193,58.733159 L47.751462,58.733159 C50.6024854,58.7330126 52.9138889,61.048431 52.9138889,63.9040795" id="Shape" fill="#E8EDEE"></path>
                                    <polygon id="Shape" fill="#B0B6BB" points="46.4609649 58.7330126 28.3928363 58.7330126 30.9739766 48.3911715 43.8798246 48.3911715"></polygon>
                                    <path d="M74.8538012,44.0491841 L0,44.0491841 L0,4.62058577 C0,2.12167364 2.02236842,0.0959205021 4.51710526,0.0959205021 L70.3368421,0.0959205021 C72.8315789,0.0959205021 74.8539474,2.12167364 74.8539474,4.62058577 L74.8539474,44.0491841 L74.8538012,44.0491841 Z" id="Shape" fill="#38454F"></path>
                                    <path d="M70.3366959,54.3911715 L4.51710526,54.3911715 C2.02236842,54.3911715 0,52.3654184 0,49.8665063 L0,44.0491841 L74.8538012,44.0491841 L74.8538012,49.8665063 C74.8538012,52.3654184 72.8314327,54.3911715 70.3366959,54.3911715" id="Shape" fill="#E8EDEE"></path>
                                </g>
                                <g id="pressure" transform="translate(12.000000, 17.000000)">
                                    <g id="Layer_1">
                                        <path d="M50.6460938,26.8131087 C50.6460938,26.3539592 50.7119213,25.8292169 50.7119213,25.3700673 C50.7119213,11.5299883 39.4554238,0.248028103 25.5,0.248028103 C11.6104037,0.248028103 0.288078721,11.4643955 0.288078721,25.3700673 C0.288078721,25.8292169 0.288078721,26.3539592 0.353906192,26.8131087 L50.6460938,26.8131087 Z" id="Shape" fill="#EA6148"></path>
                                        <path d="M18.7109134,7.09615503 C18.5792585,6.89937665 18.3817761,6.83378386 18.1842936,6.96496944 C17.9868112,7.03056224 17.8551563,7.2929334 17.9868112,7.48971178 L24.8986957,24.0846881 C24.9645231,24.1502809 24.9645231,24.2814664 25.0303506,24.3470592 C25.5569704,25.1997655 26.6760374,25.4621367 27.5317945,24.9373944 C28.3875516,24.412652 28.6508615,23.2975746 28.1242417,22.4448683 L18.7109134,7.09615503 Z" id="Shape" fill="#FFFFFF"></path>
                                        <ellipse id="Oval" fill="#FFD05B" cx="26.8076923" cy="22.9040178" rx="4.54209548" ry="4.52590262"></ellipse>
                                        <g id="Group" transform="translate(12.178074, 7.396669)" fill="#FFFFFF">
                                            <path d="M13.3219261,2.26385672 L13.3219261,2.26385672 C13.032768,2.26385672 12.7849182,2.01689054 12.7849182,1.72876332 L12.7849182,0.61741547 C12.7849182,0.329288251 13.032768,0.0823220627 13.3219261,0.0823220627 L13.3219261,0.0823220627 C13.6110842,0.0823220627 13.858934,0.329288251 13.858934,0.61741547 L13.858934,1.72876332 C13.858934,2.01689054 13.6110842,2.26385672 13.3219261,2.26385672 Z" id="Shape"></path>
                                            <path d="M21.9553604,5.80370542 L21.9553604,5.80370542 C21.7488189,5.59790026 21.7488189,5.26861201 21.9553604,5.06280686 L22.740218,4.28074726 C22.9467595,4.0749421 23.2772259,4.0749421 23.4837674,4.28074726 L23.4837674,4.28074726 C23.6903089,4.48655242 23.6903089,4.81584067 23.4837674,5.02164582 L22.6989098,5.80370542 C22.45106,6.00951058 22.1205936,6.00951058 21.9553604,5.80370542 Z" id="Shape"></path>
                                            <path d="M3.2013931,4.32190829 L3.2013931,4.32190829 C3.40793459,4.11610313 3.73840097,4.11610313 3.94494246,4.32190829 L4.72980012,5.10396789 C4.93634161,5.30977304 4.93634161,5.63906129 4.72980012,5.84486645 L4.72980012,5.84486645 C4.52325863,6.05067161 4.19279225,6.05067161 3.98625076,5.84486645 L3.2013931,5.06280686 C2.99485161,4.8570017 2.99485161,4.52771345 3.2013931,4.32190829 Z" id="Shape"></path>
                                            <path d="M8.65408843,3.16939941 L8.65408843,3.16939941 C8.40623864,3.29288251 8.07577226,3.16939941 7.99315566,2.88127219 L7.58007268,1.85224641 C7.45614779,1.60528022 7.58007268,1.27599197 7.86923077,1.19366991 L7.86923077,1.19366991 C8.11708056,1.07018681 8.44754694,1.19366991 8.53016354,1.48179713 L8.94324652,2.51082291 C9.06717141,2.7577891 8.94324652,3.08707735 8.65408843,3.16939941 Z" id="Shape"></path>
                                            <path d="M24.5990915,9.75516443 L24.5990915,9.75516443 C24.4751666,9.50819824 24.5990915,9.17890999 24.8882495,9.09658793 L25.920957,8.68497761 C26.1688068,8.56149452 26.4992732,8.68497761 26.5818898,8.97310483 L26.5818898,8.97310483 C26.7058147,9.22007102 26.5818898,9.54935927 26.2927317,9.63168133 L25.2600242,10.0432916 C25.0121744,10.1667747 24.6817081,10.0432916 24.5990915,9.75516443 Z" id="Shape"></path>
                                            <path d="M17.9897638,3.16939941 L17.9897638,3.16939941 C17.741914,3.04591632 17.6179891,2.7577891 17.7006057,2.51082291 L18.1136887,1.48179713 C18.2376136,1.23483094 18.5267717,1.11134785 18.7746214,1.19366991 L18.7746214,1.19366991 C19.0224712,1.317153 19.1463961,1.60528022 19.0637795,1.85224641 L18.6506965,2.88127219 C18.56808,3.16939941 18.2376136,3.29288251 17.9897638,3.16939941 Z" id="Shape"></path>
                                            <path d="M0.061962447,8.9319438 L0.061962447,8.9319438 C0.185887341,8.68497761 0.475045427,8.56149452 0.722895215,8.64381658 L1.75560267,9.0554269 C2.00345245,9.17890999 2.12737735,9.46703721 2.04476075,9.7140034 L2.04476075,9.7140034 C1.92083586,9.96096958 1.63167777,10.0844527 1.38382798,10.0021306 L0.351120533,9.5905203 C0.103270745,9.50819824 -0.020654149,9.22007102 0.061962447,8.9319438 Z" id="Shape"></path>
                                        </g>
                                        <g id="Group" transform="translate(6.704724, 3.074761)" fill="#2B3B4E">
                                            <ellipse id="Oval" cx="18.7952756" cy="1.07018681" rx="1.03270745" ry="1.02902578"></ellipse>
                                            <ellipse id="Oval" cx="36.5165354" cy="18.7282693" rx="1.03270745" ry="1.02902578"></ellipse>
                                            <ellipse id="Oval" cx="1.07401575" cy="18.7282693" rx="1.03270745" ry="1.02902578"></ellipse>
                                        </g>
                                    </g>
                                </g>
                            </g>
                            <ellipse id="Oval-6" fill="#000000" opacity="0.1" filter="url(#filter-1)" cx="38" cy="65" rx="38" ry="1"></ellipse>
                        </g>
                    </g>
                </g>
            </g>
        </g>
    </g>
</svg>