<?xml version="1.0" encoding="UTF-8" standalone="no"?>
<svg width="139px" height="66px" viewBox="0 0 139 66" version="1.1" xmlns="http://www.w3.org/2000/svg" xmlns:xlink="http://www.w3.org/1999/xlink">
    <!-- Generator: Sketch 42 (36781) - http://www.bohemiancoding.com/sketch -->
    <title>predictive_asset_maintenance</title>
    <desc>Created with Sketch.</desc>
    <defs>
        <filter x="-50%" y="-50%" width="200%" height="200%" filterUnits="objectBoundingBox" id="filter-1">
            <feGaussianBlur stdDeviation="10 0" in="SourceGraphic"></feGaussianBlur>
        </filter>
    </defs>
    <g id="Page-1" stroke="none" stroke-width="1" fill="none" fill-rule="evenodd">
        <g id="Large-Device-Desktops" transform="translate(-483.000000, -1179.000000)">
            <g id="iot_solutions_manufacturing" transform="translate(80.000000, 635.000000)">
                <g id="Group-15" transform="translate(70.000000, 373.000000)">
                    <g id="Group-13" transform="translate(58.000000, 0.000000)">
                        <g id="predictive_asset_maintenance" transform="translate(302.000000, 171.000000)">
                            <g id="Layer_1" transform="translate(11.000000, 0.000000)">
                                <g id="Group" transform="translate(0.492188, 0.000000)">
                                    <path d="M45.1440527,40.1328697 L22.5005977,17.4276373 C22.1163223,17.042188 21.4930898,17.042188 21.1086914,17.4276373 L17.3964902,21.1497398 C17.2117969,21.3348147 17.1081914,21.5858996 17.1081914,21.8475955 C17.1081914,22.1092913 17.2119199,22.3604996 17.3964902,22.5454511 L40.0399453,45.2509303 C40.2245156,45.4361286 40.474916,45.5400173 40.7358984,45.5400173 C40.9968809,45.5400173 41.2474043,45.4360052 41.4318516,45.2509303 L45.1438066,41.5285811 C45.5284512,41.1432552 45.5284512,40.518319 45.1440527,40.1328697 Z" id="Shape" fill="#C4C7C8"></path>
                                    <path d="M25.8413203,8.86656711 L17.3035898,0.305496927 C16.9191914,-0.079952346 16.295959,-0.079952346 15.9115605,0.305496927 L12.1997285,4.02759943 C11.8153301,4.4130487 11.8153301,5.03798486 12.1997285,5.42331075 L18.5565762,11.7975362 L11.7821074,18.5905244 L5.42513672,12.2165457 C5.04073828,11.8310965 4.41750586,11.8310965 4.03323047,12.2165457 L0.321152344,15.9386482 C-0.0632460938,16.3240975 -0.0632460938,16.9490337 0.321152344,17.3343596 L8.85888281,25.8954297 C9.04431445,26.0813683 9.29496094,26.1845167 9.55483594,26.1845167 C9.58449023,26.1845167 9.61426758,26.1831595 9.64404492,26.1804451 L17.810666,25.4359505 C18.0399023,25.4149754 18.2546191,25.3141713 18.4175332,25.1509352 L25.0992246,18.450978 C25.2621387,18.2876185 25.362668,18.0723148 25.3834629,17.8424518 L26.1259277,9.65350548 C26.1521367,9.36195086 26.047916,9.07348082 25.8413203,8.86656711 Z" id="Shape" fill="#A1B2BC"></path>
                                </g>
                                <path d="M20.5699922,9.19661731 C20.3181152,9.19661731 20.0661152,9.10025499 19.8740391,8.90753035 L17.2492031,6.27551886 C16.8648047,5.89006959 16.8648047,5.26513343 17.2492031,4.87980754 C17.6336016,4.49435826 18.256834,4.49435826 18.6411094,4.87980754 L21.2659453,7.51181903 C21.6503438,7.8972683 21.6503438,8.52220446 21.2659453,8.90753035 C21.0737461,9.10025499 20.8218691,9.19661731 20.5699922,9.19661731 Z" id="Shape" fill="#FFFFFF"></path>
                                <path d="M62.7117012,45.3440847 L54.1739707,36.7830145 C53.967375,36.575854 53.6796914,36.4714718 53.3889316,36.4979992 L45.2223105,37.2424937 C44.9930742,37.2634689 44.7783574,37.364273 44.6154434,37.527509 L37.933752,44.2274663 C37.7708379,44.3908257 37.6703086,44.6061295 37.6495137,44.8359925 L36.9070488,53.0249388 C36.8805937,53.3167401 36.9846914,53.6052102 37.1912871,53.8121239 L45.7290176,62.3731941 C45.9210937,62.5657953 46.1730937,62.662281 46.4249707,62.662281 C46.6768477,62.662281 46.9288477,62.5659187 47.1209238,62.3731941 L50.8328789,58.6510916 C51.2172773,58.2656423 51.2172773,57.6407061 50.8328789,57.2553803 L44.4760312,50.8811548 L51.2505,44.0881666 L57.6073477,50.462392 C57.9917461,50.8478413 58.6149785,50.8478413 58.9992539,50.462392 L62.711209,46.7402895 C63.0960996,46.3543467 63.0960996,45.7294106 62.7117012,45.3440847 Z" id="Shape" fill="#A1B3BC"></path>
                                <path d="M19.8080859,19.2250845 L17.8885547,21.1497398 C17.7038613,21.3348147 17.6002559,21.5858996 17.6002559,21.8475955 C17.6002559,22.1092913 17.7039844,22.3604996 17.8885547,22.5454511 L40.5321328,45.2509303 C40.7167031,45.4361286 40.9671035,45.5400173 41.2280859,45.5400173 C41.4890684,45.5400173 41.7395918,45.4360052 41.9240391,45.2509303 L43.8434473,43.3261516 L19.8080859,19.2250845 Z" id="Shape" fill="#687F82"></path>
                                <g id="Group" transform="translate(0.492188, 11.844792)" fill="#425B68">
                                    <path d="M15.2327109,3.28581933 L11.7819844,6.74597919 L5.42513672,0.371753732 C5.04073828,-0.0136955408 4.41750586,-0.0136955408 4.03323047,0.371753732 L0.321152344,4.09385624 C-0.0632460938,4.47930551 -0.0632460938,5.10424167 0.321152344,5.48956756 L8.85888281,14.0506377 C9.04431445,14.2365763 9.29496094,14.3397247 9.55483594,14.3397247 C9.58449023,14.3397247 9.61426758,14.3383675 9.64404492,14.3356531 L17.810666,13.5911585 C18.0399023,13.5701834 18.2546191,13.4693793 18.4175332,13.3061432 L21.821748,9.89262222 L15.2327109,3.28581933 Z" id="Shape"></path>
                                    <path d="M37.4415645,32.3825509 C37.2786504,32.5459103 37.1781211,32.7612141 37.1573262,32.9910771 L36.4148613,41.1800234 C36.3884062,41.4718248 36.4925039,41.7602948 36.6990996,41.9672085 L45.2368301,50.5282787 C45.4289062,50.7208799 45.6809062,50.8173656 45.9327832,50.8173656 C46.1846602,50.8173656 46.4366602,50.7210033 46.6287363,50.5282787 L50.3406914,46.8061762 C50.7250898,46.4207269 50.7250898,45.7957908 50.3406914,45.4104649 L43.9838437,39.036116 L47.4345703,35.5759562 L40.8457793,28.9691533 L37.4415645,32.3825509 Z" id="Shape"></path>
                                </g>
                                <g id="Group" transform="translate(20.302734, 2.097515)" fill="#CDD4D5">
                                    <path d="M24.4373555,15.6029224 L21.4677422,12.6250677 C21.0833438,12.2396184 20.4601113,12.2396184 20.0758359,12.6250677 L0.401871094,32.3526921 C0.0174726563,32.7381414 0.0174726563,33.3630776 0.401871094,33.7485268 L3.37148438,36.7262582 C3.56356055,36.9188595 3.81556055,37.0153452 4.0674375,37.0153452 C4.3194375,37.0153452 4.57131445,36.9189828 4.76339063,36.7262582 L24.4372324,16.9986337 C24.8217539,16.6131845 24.8217539,15.9882483 24.4373555,15.6029224 Z" id="Shape"></path>
                                    <path d="M36.687041,3.31962634 L33.7174277,0.341771603 C33.4272832,0.050833899 32.9877598,-0.0292418303 32.6140664,0.141273821 L24.4474453,3.86362309 C24.3399023,3.91260624 24.2422031,3.98046703 24.1587773,4.06412087 L17.8485645,10.3918308 C17.464166,10.7772801 17.464166,11.4022163 17.8485645,11.7875422 L25.2725977,19.2318706 C25.4646738,19.4247186 25.7166738,19.5209575 25.9685508,19.5209575 C26.2204277,19.5209575 26.4724277,19.4245952 26.6645039,19.2318706 L32.9749629,12.9041606 C33.0583887,12.8205067 33.1261875,12.7224171 33.1749141,12.6147035 L36.8868691,4.42575718 C37.0569199,4.05128901 36.9773086,3.61044066 36.687041,3.31962634 Z" id="Shape"></path>
                                </g>
                                <path d="M24.6950156,44.5001432 L15.0437109,34.8224546 C14.6593125,34.4370054 14.0360801,34.4370054 13.6518047,34.8224546 L2.14446094,46.3612562 C1.7600625,46.7467055 1.7600625,47.3716416 2.14446094,47.7570909 L11.7957656,57.4347795 C11.9878418,57.6273807 12.2398418,57.7238665 12.4917187,57.7238665 C12.7435957,57.7238665 12.9955957,57.6275041 13.1876719,57.4347795 L24.6950156,45.895978 C25.0794141,45.5105287 25.0794141,44.8855925 24.6950156,44.5001432 Z" id="Shape" fill="#EA6148"></path>
                                <path d="M15.0437109,34.8224546 C14.6593125,34.4370054 14.0360801,34.4370054 13.6518047,34.8224546 L2.14446094,46.3612562 C1.7600625,46.7467055 1.7600625,47.3716416 2.14446094,47.7570909 L6.92950781,52.5553421 L19.8288809,39.6207059 L15.0437109,34.8224546 Z" id="Shape" fill="#FCAEA0"></path>
                                <g id="Group" transform="translate(6.152344, 38.865724)" fill="#365558">
                                    <rect id="Rectangle-path" transform="translate(7.266681, 7.262805) rotate(225.000000) translate(-7.266681, -7.262805) " x="6.28237698" y="-1.8831994" width="1.96860807" height="18.2920083"></rect>
                                    <rect id="Rectangle-path" transform="translate(10.051379, 9.682331) rotate(225.000000) translate(-10.051379, -9.682331) " x="9.06707509" y="0.799562335" width="1.96860807" height="17.765537"></rect>
                                </g>
                                <g id="Group" transform="translate(3.937500, 16.163206)" fill="#687F82">
                                    <rect id="Rectangle-path" transform="translate(7.069367, 27.174531) rotate(225.000000) translate(-7.069367, -27.174531) " x="6.08506306" y="18.2917628" width="1.96860807" height="17.765537"></rect>
                                    <rect id="Rectangle-path" transform="translate(9.088956, 29.570490) rotate(135.000000) translate(-9.088956, -29.570490) " x="-0.032113764" y="29.0704899" width="18.2421395" height="0.929066963"></rect>
                                    <path d="M39.2773008,0.0076497615 L18.2114297,21.1309855 L19.7367188,22.6604443 C19.9287949,22.8530456 20.1807949,22.9495313 20.4326719,22.9495313 C20.6846719,22.9495313 20.9365488,22.8531689 21.128625,22.6604443 L40.8025898,2.93281985 C41.1869883,2.54737058 41.1869883,1.92243442 40.8025898,1.53710853 L39.2773008,0.0076497615 Z" id="Shape"></path>
                                </g>
                                <path d="M55.4644863,3.88755944 L41.8227715,17.5666902 L45.575332,21.3295092 C45.7674082,21.5223572 46.0194082,21.6185962 46.2712852,21.6185962 C46.5231621,21.6185962 46.7751621,21.5222338 46.9672383,21.3295092 L53.2776973,15.0017992 C53.361123,14.9181454 53.4289219,14.8200557 53.4776484,14.7123421 L57.1896035,6.52339581 C57.3594082,6.14880426 57.2797969,5.70795591 56.9896523,5.41701821 L55.4644863,3.88755944 Z" id="Shape" fill="#9BAAAB"></path>
                                <path d="M9.15111914,59.5849794 C9.31440234,59.5849794 9.47879297,59.5442629 9.62878711,59.4607325 L12.9695098,57.5996195 L1.97970117,46.5798913 L0.123908203,49.9298699 C-0.0894550781,50.3150724 -0.0223945312,50.7955268 0.288298828,51.1070695 L8.45491992,59.2958924 C8.64428906,59.4859026 8.89628906,59.5849794 9.15111914,59.5849794 Z" id="Shape" fill="#DD691D"></path>
                                <path d="M1.97994727,46.5798913 L0.123908203,49.9298699 C-0.0894550781,50.3150724 -0.0223945312,50.7955268 0.288298828,51.1070695 L4.33100391,55.1608262 L7.43424609,52.0491006 L1.97994727,46.5798913 Z" id="Shape" fill="#FE944E"></path>
                                <path d="M20.2405957,32.5892178 C19.9561113,32.3040791 19.5269238,32.2210422 19.1567988,32.3799598 L13.9599141,34.61332 L24.9037031,45.5870263 L27.1309746,40.3759347 C27.289459,40.0049213 27.2068945,39.5746839 26.9222871,39.2891751 L20.2405957,32.5892178 Z" id="Shape" fill="#FF8C29"></path>
                                <path d="M20.2405957,32.5892178 C19.9561113,32.3040791 19.5269238,32.2210422 19.1567988,32.3799598 L13.9599141,34.61332 L19.3913262,40.0595801 L23.5408359,35.8987267 L20.2405957,32.5892178 Z" id="Shape" fill="#FFD1A9"></path>
                                <path d="M43.5062988,14.2334917 C43.2544219,14.2334917 43.0024219,14.1371294 42.8103457,13.9444048 C42.4259473,13.5589555 42.4259473,12.9340193 42.8103457,12.5486934 L45.9600996,9.39032901 C46.344498,9.00487974 46.9677305,9.00487974 47.3520059,9.39032901 C47.7364043,9.77577828 47.7364043,10.4007144 47.3520059,10.7860403 L44.202252,13.9444048 C44.0100527,14.137006 43.7582988,14.2334917 43.5062988,14.2334917 Z" id="Shape" fill="#FFFFFF"></path>
                            </g>
                            <ellipse id="Oval-8" fill="#000000" opacity="0.1" filter="url(#filter-1)" cx="42.5" cy="64.5" rx="42.5" ry="1.5"></ellipse>
                        </g>
                    </g>
                </g>
            </g>
        </g>
    </g>
</svg>