<?xml version="1.0" encoding="UTF-8" standalone="no"?>
<svg width="126px" height="126px" viewBox="0 0 126 126" version="1.1" xmlns="http://www.w3.org/2000/svg" xmlns:xlink="http://www.w3.org/1999/xlink">
    <!-- Generator: Sketch 42 (36781) - http://www.bohemiancoding.com/sketch -->
    <title>Group 10</title>
    <desc>Created with Sketch.</desc>
    <defs>
        <circle id="path-1" cx="61" cy="61" r="61"></circle>
        <mask id="mask-2" maskContentUnits="userSpaceOnUse" maskUnits="objectBoundingBox" x="-2" y="-2" width="126" height="126">
            <rect x="-2" y="-2" width="126" height="126" fill="white"></rect>
            <use xlink:href="#path-1" fill="black"></use>
        </mask>
        <mask id="mask-4" maskContentUnits="userSpaceOnUse" maskUnits="objectBoundingBox" x="-2" y="-2" width="126" height="126">
            <rect x="-2" y="-2" width="126" height="126" fill="white"></rect>
            <use xlink:href="#path-1" fill="black"></use>
        </mask>
    </defs>
    <g id="Page-1" stroke="none" stroke-width="1" fill="none" fill-rule="evenodd">
        <g id="Large-Device-Desktops" transform="translate(-894.000000, -887.000000)">
            <g id="Group-6" transform="translate(691.000000, 889.000000)">
                <g id="Group-9">
                    <g id="Group-10" transform="translate(205.000000, 0.000000)">
                        <mask id="mask-3" fill="white">
                            <use xlink:href="#path-1"></use>
                        </mask>
                        <g id="Oval" stroke="#E5E2E2" mask="url(#mask-2)" stroke-width="4">
                            <use mask="url(#mask-4)" xlink:href="#path-1"></use>
                        </g>
                        <g id="Layer_1" mask="url(#mask-3)">
                            <g transform="translate(29.000000, -36.000000)"></g>
                        </g>
                        <g id="internet" mask="url(#mask-3)">
                            <g transform="translate(11.000000, 10.000000)" id="Layer_1">
                                <g>
                                    <g id="Group" fill-rule="nonzero">
                                        <circle id="Oval" fill="#0E7886" cx="50.5" cy="50.5" r="50.5"></circle>
                                        <path d="M101,50.5 C101,40.3678457 98.0165547,30.9330254 92.8795605,23.0258301 C92.8795605,23.0258301 89.9986934,27.2342949 90.5399902,29.9393984 C91.0808926,32.6448965 94.2594336,32.8514336 93.932959,34.8359258 C93.6064844,36.820418 91.2617852,34.267998 88.3755918,39.4979043 C85.4895957,44.7282051 86.9331855,51.9445762 91.0808926,52.4846895 C95.2287969,53.0244082 101,50.5 101,50.5 Z" id="Shape" fill="#15BDB1"></path>
                                        <path d="M63.762168,1.75960938 C69.6400918,3.35509375 75.0919219,5.98582813 79.9097402,9.44330273 C79.9097402,9.44330273 74.0541074,8.47749023 71.8358555,10.4607988 C69.6178008,12.4446992 66.3828418,17.1346895 63.7619707,10.4607988 C61.1414941,3.78730273 63.762168,1.75960938 63.762168,1.75960938 Z" id="Shape" fill="#48B19B"></path>
                                        <path d="M12.5301152,17.2053105 C21.7854238,6.65850391 35.3647949,0 50.5,0 C50.5,0 47.0738906,2.07444531 53.5666914,5.59129687 C60.0596895,9.10854297 57.083543,10.7314473 55.7308926,11.8136465 C54.3784395,12.8958457 52.0323594,9.64944531 50.5,7.48544141 C48.9674434,5.3208457 42.3860703,1.98468945 37.3356758,3.78868359 C32.2854785,5.59267773 27.9578652,6.92520703 28.6786738,8.60354297 C29.3992852,10.2814844 38.0564844,7.03626758 41.3028848,7.2157793 C44.5492852,7.39568555 43.4670859,9.37919141 40.4015781,11.7240879 C37.3356758,14.0689844 36.9742852,16.9543887 40.2208828,18.757791 C43.4670859,20.5619824 47.4340977,20.7424805 48.3369824,19.6604785 C49.2392754,18.5782793 46.7136836,11.5443789 52.8460801,14.610084 C58.9784766,17.6757891 64.0286738,19.4807695 58.9784766,23.9890781 C53.928082,28.4969922 48.1570762,33.5487676 47.9763809,36.4333828 C47.7956855,39.3183926 49.7805723,41.6648672 48.698373,41.8443789 C47.6161738,42.0238906 46.6229414,40.6724238 45.9019355,39.6797832 C45.1813242,38.6877344 41.8439844,38.3275273 40.2208828,38.9581855 C38.597584,39.5888437 35.5310898,42.0238906 37.2449336,44.3687871 C38.9589746,46.7140781 41.3017012,45.630498 43.6469922,46.7128945 C45.9918887,47.7950937 48.1785781,51.9138027 47.7296016,52.8446992 C47.280625,53.7752012 45.2817324,52.5969336 43.6469922,49.4183926 C42.0118574,46.239457 38.945166,48.3361934 36.7874746,47.7950937 C34.6295859,47.2541914 33.0062871,46.8935898 30.8418887,43.1058926 C28.6774902,39.3185898 24.1966016,38.2586816 22.365582,36.0721895 C17.1204863,29.8090059 17.4956855,25.0704883 16.4136836,22.9062871 C15.3314844,20.7414941 12.5301152,17.2053105 12.5301152,17.2053105 Z" id="Shape" fill="#15BDB1"></path>
                                        <path d="M55.369502,51.2215977 C55.369502,51.2215977 60.7803008,51.7617109 63.4856016,54.107002 C66.1909023,56.4518984 66.552293,57.3541914 70.7001973,58.2556953 C74.8481016,59.1568047 76.6520957,61.5009121 73.9465977,66.0104043 C71.2412969,70.5193047 66.3708086,77.7339004 64.0267012,79.8982988 C61.682791,82.0628945 58.7967949,83.8662969 57.7145957,87.4732988 C56.6325938,91.0799062 56.2712031,93.2429238 58.6160996,94.6869082 C58.6160996,94.6869082 57.3543887,97.7534023 54.4683926,93.7854043 C51.5821992,89.8170117 53.9270957,85.1284023 54.4683926,82.4229043 C55.0092949,79.7178008 56.4518984,71.6024902 55.5501973,69.6176035 C54.6490879,67.6333086 50.5,66.3704141 49.4178008,62.2229043 C48.3356016,58.0751973 50.2295488,50.0034824 55.369502,51.2215977 Z" id="Shape" fill="#15BDB1"></path>
                                        <path d="M14.7909766,14.7915684 C34.5126074,-4.93045703 66.4868008,-4.9300625 86.2086289,14.7915684 C105.930457,34.5128047 105.930457,66.4873926 86.2088262,86.2090234 C86.2088262,86.2090234 109.120834,55.9109961 76.6822773,23.4724395 C44.2435234,-8.96631445 14.7909766,14.7915684 14.7909766,14.7915684 Z" id="Shape" fill="#253744" opacity="0.6"></path>
                                    </g>
                                </g>
                            </g>
                        </g>
                    </g>
                </g>
            </g>
        </g>
    </g>
</svg>