<?xml version="1.0" encoding="UTF-8" standalone="no"?>
<svg width="126px" height="126px" viewBox="0 0 126 126" version="1.1" xmlns="http://www.w3.org/2000/svg" xmlns:xlink="http://www.w3.org/1999/xlink">
    <!-- Generator: Sketch 42 (36781) - http://www.bohemiancoding.com/sketch -->
    <title>Group 11</title>
    <desc>Created with Sketch.</desc>
    <defs>
        <circle id="path-1" cx="61" cy="61" r="61"></circle>
        <mask id="mask-2" maskContentUnits="userSpaceOnUse" maskUnits="objectBoundingBox" x="-2" y="-2" width="126" height="126">
            <rect x="-2" y="-2" width="126" height="126" fill="white"></rect>
            <use xlink:href="#path-1" fill="black"></use>
        </mask>
        <mask id="mask-4" maskContentUnits="userSpaceOnUse" maskUnits="objectBoundingBox" x="-2" y="-2" width="126" height="126">
            <rect x="-2" y="-2" width="126" height="126" fill="white"></rect>
            <use xlink:href="#path-1" fill="black"></use>
        </mask>
    </defs>
    <g id="Page-1" stroke="none" stroke-width="1" fill="none" fill-rule="evenodd">
        <g id="Large-Device-Desktops" transform="translate(-283.000000, -887.000000)">
            <g id="Group-6" transform="translate(80.000000, 889.000000)">
                <g id="Group-9">
                    <g id="Group-10" transform="translate(205.000000, 0.000000)">
                        <g id="Group-11">
                            <mask id="mask-3" fill="white">
                                <use xlink:href="#path-1"></use>
                            </mask>
                            <g id="Oval" stroke="#E5E2E2" mask="url(#mask-2)" stroke-width="4">
                                <use mask="url(#mask-4)" xlink:href="#path-1"></use>
                            </g>
                            <g id="Group-4" mask="url(#mask-3)">
                                <g transform="translate(21.000000, 35.000000)">
                                    <g id="cloud-(3)" stroke-linecap="round">
                                        <g id="Capa_1" fill-rule="nonzero" stroke-width="2" fill="#15BDB1">
                                            <path d="M68.4352241,22.3157895 C68.2746207,10.1829737 58.3898276,0 46.2035172,0 C38.4400862,0 31.1500862,4.19118421 27.1252241,10.2317895 C25.3571897,9.05602632 23.2330345,8.36842105 20.9482759,8.36842105 C14.7783103,8.36842105 9.77586207,13.3643684 9.77586207,19.5263158 C9.77586207,19.7397105 9.79541379,19.9475263 9.80798276,20.1595263 C9.79401724,20.4133684 9.77586207,20.67 9.77586207,20.9210526 C4.20641379,23.5877895 0,29.9268684 0,36.4793421 C0,45.5660526 7.44362069,53 16.5421552,53 L50.7674483,53 C50.9601724,53 51.1473103,52.9776842 51.3372414,52.9707105 C51.528569,52.9776842 51.7157069,53 51.908431,53 L65.5988276,53 C74.0689138,53 81,46.0779211 81,37.6188421 C81,30.1277105 75.5618276,23.6561316 68.4352241,22.3157895 Z" id="Shape" stroke="#13A99F"></path>
                                            <path d="M68.4352241,22.3157895 C68.4352241,22.3157895 64.8949655,21.7927632 61.4482759,22.3157895" id="Shape" stroke="#13ABA2"></path>
                                            <path d="M9.77586207,19.5263158 C9.77586207,13.3643684 14.7783103,8.36842105 20.9482759,8.36842105 C27.1182414,8.36842105 32.1206897,13.3643684 32.1206897,19.5263158" id="Shape" stroke="#13ABA2"></path>
                                        </g>
                                    </g>
                                    <g id="scale" transform="translate(23.000000, 14.000000)">
                                        <g id="Capa_1" fill-rule="nonzero">
                                            <g id="scale-screen">
                                                <g id="Capa_1">
                                                    <g id="Group">
                                                        <g id="scale-(1)">
                                                            <g id="Capa_1">
                                                                <g id="Group">
                                                                    <path d="M9.0269165,25.0383911 L8.99707031,3.00704956 L16.9874268,2.98913574 L16.9874268,0 L6.00134277,0 L6.00134277,6.03100586 L0,6.03100586 L0,33.999176 L28.0005493,33.999176 L28.0005493,28.0155029 L34.0012512,28.0155029 L34.0012512,18.0110779 L31.0078125,18.0110779 L31.0078125,25.0383911 L9.0269165,25.0383911 Z M24.9978333,31.0164795 L3.0116272,31.0164795 L3.0116272,8.99761963 L6.00134277,8.99761963 L6.00134277,28.0155029 L24.9978333,28.0155029 L24.9978333,31.0164795 Z" id="Shape" fill="#0E7886"></path>
                                                                    <polygon id="Shape" fill="#D0E5E3" points="22.0137329 0 22.0137329 3.012146 29.0037231 3.012146 19.2133657 12.8899982 21.2885531 14.9550498 31.0043945 5.00067139 31.0043945 12.0186768 34.013916 12.0186768 34.013916 0"></polygon>
                                                                </g>
                                                            </g>
                                                        </g>
                                                    </g>
                                                </g>
                                            </g>
                                        </g>
                                    </g>
                                </g>
                            </g>
                        </g>
                    </g>
                </g>
            </g>
        </g>
    </g>
</svg>