<?xml version="1.0" encoding="UTF-8" standalone="no"?>
<svg width="135px" height="131px" viewBox="0 0 135 131" version="1.1" xmlns="http://www.w3.org/2000/svg" xmlns:xlink="http://www.w3.org/1999/xlink">
    <!-- Generator: Sketch 42 (36781) - http://www.bohemiancoding.com/sketch -->
    <title>Group 10</title>
    <desc>Created with Sketch.</desc>
    <defs>
        <circle id="path-1" cx="61" cy="61" r="61"></circle>
        <mask id="mask-2" maskContentUnits="userSpaceOnUse" maskUnits="objectBoundingBox" x="-2" y="-2" width="126" height="126">
            <rect x="-2" y="-2" width="126" height="126" fill="white"></rect>
            <use xlink:href="#path-1" fill="black"></use>
        </mask>
        <mask id="mask-4" maskContentUnits="userSpaceOnUse" maskUnits="objectBoundingBox" x="-2" y="-2" width="126" height="126">
            <rect x="-2" y="-2" width="126" height="126" fill="white"></rect>
            <use xlink:href="#path-1" fill="black"></use>
        </mask>
    </defs>
    <g id="Page-1" stroke="none" stroke-width="1" fill="none" fill-rule="evenodd">
        <g id="Artboard-2" transform="translate(-566.000000, -336.000000)">
            <g id="Group-10" transform="translate(567.000000, 338.000000)">
                <g id="Group" transform="translate(0.000000, 62.000000)" stroke="#E9E9E9" stroke-width="2">
                    <path d="M0.342773438,0.461914062 C0.342773438,0.461914062 2.57324219,62.9824219 67.5532227,65.7207031 C133.371094,60.8017578 132.103516,2.05859375 132.103516,1.26025391" id="Path-5"></path>
                </g>
                <g id="Group-26" transform="translate(6.000000, 0.000000)">
                    <mask id="mask-3" fill="white">
                        <use xlink:href="#path-1"></use>
                    </mask>
                    <g id="Oval" stroke="#E5E2E2" mask="url(#mask-2)" stroke-width="4">
                        <use mask="url(#mask-4)" xlink:href="#path-1"></use>
                    </g>
                </g>
                <g id="Group-7" transform="translate(28.000000, 23.000000)" fill-rule="nonzero">
                    <g id="chip">
                        <g id="Layer_1">
                            <path d="M72.7222891,65.5925703 C72.7222891,63.6236563 74.0523437,61.9655996 75.8628965,61.4675059 C76.5142383,61.2883906 77,60.7498418 77,60.0744375 L77,16.9254121 C77,16.2498574 76.5140879,15.7116094 75.8628965,15.5323438 C74.0523437,15.0345508 72.7222891,13.3763438 72.7222891,11.4074297 C72.7222891,9.43851563 74.0523437,7.78045898 75.8628965,7.28236523 C76.5142383,7.10325 77,6.56470117 77,5.88929688 L77,4.27771094 C77,1.91522461 75.0847754,0 72.7222891,0 L4.27771094,0 C1.91522461,0 0,1.91522461 0,4.27771094 L0,5.88929687 C0,6.56485156 0.485912109,7.10309961 1.13710352,7.28236523 C2.94765625,7.7801582 4.27771094,9.43836523 4.27771094,11.4072793 C4.27771094,13.3761934 2.94765625,15.03425 1.13710352,15.5323438 C0.485912109,15.7116094 0,16.2498574 0,16.9254121 L0,60.0744375 C0,60.7499922 0.485912109,61.2882402 1.13710352,61.4675059 C2.94765625,61.9654492 4.27771094,63.6236562 4.27771094,65.5925703 C4.27771094,67.5614844 2.94765625,69.219541 1.13710352,69.7176348 C0.485912109,69.89675 0,70.434998 0,71.1105527 L0,72.7221387 C0,75.0847754 1.91522461,77 4.27771094,77 L72.7221387,77 C75.0847754,77 76.9998496,75.0847754 76.9998496,72.7222891 L76.9998496,71.1107031 C76.9998496,70.4351484 76.5139375,69.8969004 75.8627461,69.7176348 C74.0521934,69.219541 72.7222891,67.5614844 72.7222891,65.5925703 Z" id="Shape" fill="#15BDB1"></path>
                            <rect id="Rectangle-path" fill="#E4EAF6" x="37.0741465" y="7.12956836" width="2.85185742" height="5.70371484"></rect>
                            <path d="M41.3518574,18.536998 L35.6481426,18.536998 L35.6481426,12.8332832 C35.6481426,12.0458379 36.2865508,11.4074297 37.0739961,11.4074297 L39.9258535,11.4074297 C40.7132988,11.4074297 41.351707,12.0458379 41.351707,12.8332832 L41.351707,18.536998 L41.3518574,18.536998 Z" id="Shape" fill="#E6EAEA"></path>
                            <ellipse id="Oval" fill="#5B5D6E" cx="38.5" cy="6.4167168" rx="2.13885547" ry="2.13885547"></ellipse>
                            <rect id="Rectangle-path" fill="#E4EAF6" x="45.6295684" y="7.12956836" width="2.85185742" height="5.70371484"></rect>
                            <path d="M49.9074297,18.536998 L44.2037148,18.536998 L44.2037148,12.8332832 C44.2037148,12.0458379 44.842123,11.4074297 45.6295684,11.4074297 L48.4814258,11.4074297 C49.2688711,11.4074297 49.9074297,12.0458379 49.9074297,12.8332832 L49.9074297,18.536998 Z" id="Shape" fill="#E6EAEA"></path>
                            <ellipse id="Oval" fill="#5B5D6E" cx="47.0555723" cy="6.4167168" rx="2.13885547" ry="2.13885547"></ellipse>
                            <rect id="Rectangle-path" fill="#E4EAF6" x="54.1851406" y="7.12956836" width="2.85185742" height="5.70371484"></rect>
                            <path d="M58.463002,18.536998 L52.7592871,18.536998 L52.7592871,12.8332832 C52.7592871,12.0458379 53.3976953,11.4074297 54.1851406,11.4074297 L57.036998,11.4074297 C57.8244434,11.4074297 58.4628516,12.0458379 58.4628516,12.8332832 L58.4628516,18.536998 L58.463002,18.536998 Z" id="Shape" fill="#E6EAEA"></path>
                            <ellipse id="Oval" fill="#5B5D6E" cx="55.6111445" cy="6.4167168" rx="2.13885547" ry="2.13885547"></ellipse>
                            <rect id="Rectangle-path" fill="#E4EAF6" x="19.963002" y="7.12956836" width="2.85185742" height="5.70371484"></rect>
                            <path d="M24.2407129,18.536998 L18.536998,18.536998 L18.536998,12.8332832 C18.536998,12.0458379 19.1754062,11.4074297 19.9628516,11.4074297 L22.814709,11.4074297 C23.6021543,11.4074297 24.2405625,12.0458379 24.2405625,12.8332832 L24.2405625,18.536998 L24.2407129,18.536998 Z" id="Shape" fill="#E6EAEA"></path>
                            <ellipse id="Oval" fill="#5B5D6E" cx="21.3888555" cy="6.4167168" rx="2.13885547" ry="2.13885547"></ellipse>
                            <rect id="Rectangle-path" fill="#E4EAF6" x="28.5185742" y="7.12956836" width="2.85185742" height="5.70371484"></rect>
                            <path d="M32.7962852,18.536998 L27.0925703,18.536998 L27.0925703,12.8332832 C27.0925703,12.0458379 27.7309785,11.4074297 28.5184238,11.4074297 L31.3702812,11.4074297 C32.1577266,11.4074297 32.7961348,12.0458379 32.7961348,12.8332832 L32.7961348,18.536998 L32.7962852,18.536998 Z" id="Shape" fill="#E6EAEA"></path>
                            <ellipse id="Oval" fill="#5B5D6E" cx="29.9444277" cy="6.4167168" rx="2.13885547" ry="2.13885547"></ellipse>
                            <rect id="Rectangle-path" fill="#E4EAF6" x="37.0741465" y="64.1667168" width="2.85185742" height="5.70371484"></rect>
                            <path d="M35.6481426,58.463002 L41.3518574,58.463002 L41.3518574,64.1667168 C41.3518574,64.9541621 40.7134492,65.5927207 39.9260039,65.5927207 L37.0741465,65.5927207 C36.2867012,65.5927207 35.648293,64.9543125 35.648293,64.1667168 L35.648293,58.463002 L35.6481426,58.463002 Z" id="Shape" fill="#E6EAEA"></path>
                            <ellipse id="Oval" fill="#5B5D6E" cx="38.5" cy="70.5832832" rx="2.13885547" ry="2.13885547"></ellipse>
                            <rect id="Rectangle-path" fill="#E4EAF6" x="28.5185742" y="64.1667168" width="2.85185742" height="5.70371484"></rect>
                            <path d="M27.0925703,58.463002 L32.7962852,58.463002 L32.7962852,64.1667168 C32.7962852,64.9541621 32.157877,65.5927207 31.3704316,65.5927207 L28.5185742,65.5927207 C27.7311289,65.5927207 27.0927207,64.9543125 27.0927207,64.1667168 L27.0927207,58.463002 L27.0925703,58.463002 Z" id="Shape" fill="#E6EAEA"></path>
                            <ellipse id="Oval" fill="#5B5D6E" cx="29.9444277" cy="70.5832832" rx="2.13885547" ry="2.13885547"></ellipse>
                            <rect id="Rectangle-path" fill="#E4EAF6" x="19.963002" y="64.1667168" width="2.85185742" height="5.70371484"></rect>
                            <path d="M18.536998,58.463002 L24.2407129,58.463002 L24.2407129,64.1667168 C24.2407129,64.9541621 23.6023047,65.5927207 22.8148594,65.5927207 L19.963002,65.5927207 C19.1755566,65.5927207 18.5371484,64.9543125 18.5371484,64.1667168 L18.5371484,58.463002 L18.536998,58.463002 Z" id="Shape" fill="#E6EAEA"></path>
                            <ellipse id="Oval" fill="#5B5D6E" cx="21.3888555" cy="70.5832832" rx="2.13885547" ry="2.13885547"></ellipse>
                            <rect id="Rectangle-path" fill="#E4EAF6" x="54.1851406" y="64.1667168" width="2.85185742" height="5.70371484"></rect>
                            <path d="M52.7592871,58.463002 L58.463002,58.463002 L58.463002,64.1667168 C58.463002,64.9541621 57.8245937,65.5927207 57.0371484,65.5927207 L54.185291,65.5927207 C53.3978457,65.5927207 52.7594375,64.9543125 52.7594375,64.1667168 L52.7594375,58.463002 L52.7592871,58.463002 Z" id="Shape" fill="#E6EAEA"></path>
                            <ellipse id="Oval" fill="#5B5D6E" cx="55.6111445" cy="70.5832832" rx="2.13885547" ry="2.13885547"></ellipse>
                            <rect id="Rectangle-path" fill="#E4EAF6" x="45.6295684" y="64.1667168" width="2.85185742" height="5.70371484"></rect>
                            <path d="M44.2037148,58.463002 L49.9074297,58.463002 L49.9074297,64.1667168 C49.9074297,64.9541621 49.2690215,65.5927207 48.4814258,65.5927207 L45.6295684,65.5927207 C44.842123,65.5927207 44.2037148,64.9543125 44.2037148,64.1667168 L44.2037148,58.463002 Z" id="Shape" fill="#E6EAEA"></path>
                            <ellipse id="Oval" fill="#5B5D6E" cx="47.0555723" cy="70.5832832" rx="2.13885547" ry="2.13885547"></ellipse>
                            <rect id="Rectangle-path" fill="#E4EAF6" x="7.12956836" y="37.0741465" width="5.70371484" height="2.85185742"></rect>
                            <path d="M18.536998,35.6481426 L18.536998,41.3518574 L12.8332832,41.3518574 C12.0458379,41.3518574 11.4074297,40.7134492 11.4074297,39.9260039 L11.4074297,37.0741465 C11.4074297,36.2867012 12.0458379,35.648293 12.8332832,35.648293 L18.536998,35.648293 L18.536998,35.6481426 Z" id="Shape" fill="#E6EAEA"></path>
                            <ellipse id="Oval" fill="#5B5D6E" cx="6.4167168" cy="38.5" rx="2.13885547" ry="2.13885547"></ellipse>
                            <rect id="Rectangle-path" fill="#E4EAF6" x="7.12956836" y="28.5185742" width="5.70371484" height="2.85185742"></rect>
                            <path d="M18.536998,27.0925703 L18.536998,32.7962852 L12.8332832,32.7962852 C12.0458379,32.7962852 11.4074297,32.157877 11.4074297,31.3704316 L11.4074297,28.5185742 C11.4074297,27.7311289 12.0458379,27.0927207 12.8332832,27.0927207 L18.536998,27.0927207 L18.536998,27.0925703 Z" id="Shape" fill="#E6EAEA"></path>
                            <ellipse id="Oval" fill="#5B5D6E" cx="6.4167168" cy="29.9444277" rx="2.13885547" ry="2.13885547"></ellipse>
                            <rect id="Rectangle-path" fill="#E4EAF6" x="7.12956836" y="19.963002" width="5.70371484" height="2.85185742"></rect>
                            <path d="M18.536998,18.536998 L18.536998,24.2407129 L12.8332832,24.2407129 C12.0458379,24.2407129 11.4074297,23.6023047 11.4074297,22.8148594 L11.4074297,19.963002 C11.4074297,19.1755566 12.0458379,18.5371484 12.8332832,18.5371484 L18.536998,18.5371484 L18.536998,18.536998 Z" id="Shape" fill="#E6EAEA"></path>
                            <ellipse id="Oval" fill="#5B5D6E" cx="6.4167168" cy="21.3888555" rx="2.13885547" ry="2.13885547"></ellipse>
                            <rect id="Rectangle-path" fill="#E4EAF6" x="7.12956836" y="54.1851406" width="5.70371484" height="2.85185742"></rect>
                            <path d="M18.536998,52.7592871 L18.536998,58.463002 L12.8332832,58.463002 C12.0458379,58.463002 11.4074297,57.8245938 11.4074297,57.0371484 L11.4074297,54.185291 C11.4074297,53.3978457 12.0458379,52.7594375 12.8332832,52.7594375 L18.536998,52.7594375 L18.536998,52.7592871 Z" id="Shape" fill="#E6EAEA"></path>
                            <ellipse id="Oval" fill="#5B5D6E" cx="6.4167168" cy="55.6111445" rx="2.13885547" ry="2.13885547"></ellipse>
                            <rect id="Rectangle-path" fill="#E4EAF6" x="7.12956836" y="45.6295684" width="5.70371484" height="2.85185742"></rect>
                            <path d="M18.536998,44.2037148 L18.536998,49.9074297 L12.8332832,49.9074297 C12.0458379,49.9074297 11.4074297,49.2690215 11.4074297,48.4814258 L11.4074297,45.6295684 C11.4074297,44.842123 12.0458379,44.2037148 12.8332832,44.2037148 L18.536998,44.2037148 Z" id="Shape" fill="#E6EAEA"></path>
                            <ellipse id="Oval" fill="#5B5D6E" cx="6.4167168" cy="47.0555723" rx="2.13885547" ry="2.13885547"></ellipse>
                            <rect id="Rectangle-path" fill="#E4EAF6" x="64.1667168" y="37.0741465" width="5.70371484" height="2.85185742"></rect>
                            <path d="M58.463002,41.3518574 L58.463002,35.6481426 L64.1667168,35.6481426 C64.9541621,35.6481426 65.5927207,36.2865508 65.5927207,37.0739961 L65.5927207,39.9258535 C65.5927207,40.7132988 64.9543125,41.351707 64.1667168,41.351707 L58.463002,41.351707 L58.463002,41.3518574 Z" id="Shape" fill="#E6EAEA"></path>
                            <ellipse id="Oval" fill="#5B5D6E" cx="70.5832832" cy="38.5" rx="2.13885547" ry="2.13885547"></ellipse>
                            <rect id="Rectangle-path" fill="#E4EAF6" x="64.1667168" y="45.6295684" width="5.70371484" height="2.85185742"></rect>
                            <path d="M58.463002,49.9074297 L58.463002,44.2037148 L64.1667168,44.2037148 C64.9541621,44.2037148 65.5927207,44.842123 65.5927207,45.6295684 L65.5927207,48.4814258 C65.5927207,49.2688711 64.9543125,49.9074297 64.1667168,49.9074297 L58.463002,49.9074297 Z" id="Shape" fill="#E6EAEA"></path>
                            <ellipse id="Oval" fill="#5B5D6E" cx="70.5832832" cy="47.0555723" rx="2.13885547" ry="2.13885547"></ellipse>
                            <rect id="Rectangle-path" fill="#E4EAF6" x="64.1667168" y="54.1851406" width="5.70371484" height="2.85185742"></rect>
                            <path d="M58.463002,58.463002 L58.463002,52.7592871 L64.1667168,52.7592871 C64.9541621,52.7592871 65.5927207,53.3976953 65.5927207,54.1851406 L65.5927207,57.036998 C65.5927207,57.8244434 64.9543125,58.4628516 64.1667168,58.4628516 L58.463002,58.4628516 L58.463002,58.463002 Z" id="Shape" fill="#E6EAEA"></path>
                            <ellipse id="Oval" fill="#5B5D6E" cx="70.5832832" cy="55.6111445" rx="2.13885547" ry="2.13885547"></ellipse>
                            <rect id="Rectangle-path" fill="#E4EAF6" x="64.1667168" y="19.963002" width="5.70371484" height="2.85185742"></rect>
                            <path d="M58.463002,24.2407129 L58.463002,18.536998 L64.1667168,18.536998 C64.9541621,18.536998 65.5927207,19.1754063 65.5927207,19.9628516 L65.5927207,22.814709 C65.5927207,23.6021543 64.9543125,24.2405625 64.1667168,24.2405625 L58.463002,24.2405625 L58.463002,24.2407129 Z" id="Shape" fill="#E6EAEA"></path>
                            <ellipse id="Oval" fill="#5B5D6E" cx="70.5832832" cy="21.3888555" rx="2.13885547" ry="2.13885547"></ellipse>
                            <rect id="Rectangle-path" fill="#E4EAF6" x="64.1667168" y="28.5185742" width="5.70371484" height="2.85185742"></rect>
                            <path d="M58.463002,32.7962852 L58.463002,27.0925703 L64.1667168,27.0925703 C64.9541621,27.0925703 65.5927207,27.7309785 65.5927207,28.5184238 L65.5927207,31.3702812 C65.5927207,32.1577266 64.9543125,32.7961348 64.1667168,32.7961348 L58.463002,32.7961348 L58.463002,32.7962852 Z" id="Shape" fill="#E6EAEA"></path>
                            <g id="Group" transform="translate(15.640625, 15.640625)">
                                <circle id="Oval" fill="#5B5D6E" cx="54.9426582" cy="14.3038027" r="2.13885547"></circle>
                                <path d="M42.822377,45.6742344 L2.89637305,45.6742344 C1.32133203,45.6742344 0.044515625,44.3975684 0.044515625,42.822377 L0.044515625,2.89637305 C0.044515625,1.32133203 1.32118164,0.044515625 2.89637305,0.044515625 L42.822377,0.044515625 C44.397418,0.044515625 45.6742344,1.32118164 45.6742344,2.89637305 L45.6742344,42.822377 C45.6742344,44.397418 44.397418,45.6742344 42.822377,45.6742344 Z" id="Shape" fill="#687F82"></path>
                            </g>
                            <ellipse id="Oval" fill="#464655" cx="20.6758535" cy="20.6758535" rx="2.13885547" ry="2.13885547"></ellipse>
                            <g id="Group" transform="translate(8.421875, 4.210938)" fill="#0E7886">
                                <ellipse id="Oval" cx="2.27255273" cy="2.2057793" rx="2.13885547" ry="2.13885547"></ellipse>
                                <ellipse id="Oval" cx="57.8836973" cy="2.2057793" rx="2.13885547" ry="2.13885547"></ellipse>
                                <ellipse id="Oval" cx="2.27255273" cy="66.3723457" rx="2.13885547" ry="2.13885547"></ellipse>
                                <ellipse id="Oval" cx="57.8836973" cy="66.3723457" rx="2.13885547" ry="2.13885547"></ellipse>
                            </g>
                        </g>
                    </g>
                    <g id="circuit-print-for-electronic-products" transform="translate(42.500000, 39.500000) rotate(-180.000000) translate(-42.500000, -39.500000) translate(26.000000, 19.000000)" fill="#445355">
                        <g id="Capa_1" transform="translate(0.000000, -0.000000)">
                            <g id="Group">
                                <path d="M3.3393,38.2685978 C2.83605,38.4863732 2.4834,38.9828297 2.4834,39.5609891 C2.4834,40.3388007 3.123,40.9717754 3.9084,40.9717754 C4.69425,40.9717754 5.3337,40.3388007 5.3337,39.5609891 C5.3337,38.8856775 4.85235,38.3226703 4.21245,38.1834783 L0.7836,34.2572826 L0.7836,21.7458949 L12.8082,9.83613768 C12.8757,9.7691413 12.9129,9.67911957 12.9129,9.58553261 L12.9129,2.77255072 C13.5252,2.6134529 13.97985,2.06678623 13.97985,1.41123188 C13.97985,0.632677536 13.34025,0 12.55455,0 C11.76915,0 11.12955,0.63342029 11.12955,1.41123188 C11.12955,2.06678623 11.5845,2.6134529 12.19605,2.77255072 L12.19605,9.43861594 L0.17205,21.3480761 C0.10485,21.4146268 0.0666,21.5047971 0.0666,21.5989783 L0.0666,34.3902355 C0.0666,34.4747609 0.0975,34.5573551 0.15405,34.6218261 L3.3393,38.2685978 Z M3.90855,38.8593841 C4.29915,38.8593841 4.617,39.174163 4.617,39.5611377 C4.617,39.9479638 4.29915,40.262 3.90855,40.262 C3.51795,40.262 3.2004,39.9479638 3.2004,39.5611377 C3.2004,39.174163 3.51855,38.8593841 3.90855,38.8593841 Z M11.84655,1.41123188 C11.84655,1.0244058 12.1641,0.709923913 12.5547,0.709923913 C12.9453,0.709923913 13.26315,1.02425725 13.26315,1.41123188 C13.26315,1.79835507 12.9453,2.11283696 12.5547,2.11283696 C12.16395,2.11357971 11.84655,1.79835507 11.84655,1.41123188 Z" id="Shape"></path>
                                <path d="M6.31215,38.272163 L2.8059,34.2572826 L2.8059,21.7458949 L14.83095,9.83613768 C14.89815,9.7691413 14.93565,9.67911957 14.93565,9.58553261 L14.93565,2.57913768 C14.93565,2.38319928 14.775,2.22410145 14.57715,2.22410145 C14.379,2.22410145 14.21865,2.38319928 14.21865,2.57913768 L14.21865,9.43861594 L2.1936,21.3480761 C2.1264,21.4146268 2.0889,21.5047971 2.0889,21.5983841 L2.0889,34.3891957 C2.0889,34.475058 2.1207,34.5569094 2.17635,34.6219746 L5.77005,38.7359384 C5.84115,38.8171957 5.94045,38.8593841 6.04095,38.8593841 C6.12435,38.8593841 6.20715,38.8302681 6.2754,38.772779 C6.42555,38.6445797 6.4413,38.4205652 6.31215,38.272163 Z" id="Shape"></path>
                                <path d="M18.3666,9.33418478 L6.237,21.3480761 C6.09735,21.4868225 6.09735,21.7112826 6.237,21.850029 C6.30735,21.9194022 6.399,21.9532717 6.49005,21.9532717 C6.5817,21.9532717 6.6735,21.9186594 6.74385,21.850029 L18.7677,9.94056884 L27.1845,9.94056884 C27.3447,10.5460616 27.8979,10.9970616 28.55865,10.9970616 C29.3442,10.9970616 29.98335,10.3637899 29.98335,9.58553261 C29.98335,8.80697826 29.3442,8.17430072 28.55865,8.17430072 C27.8979,8.17430072 27.3447,8.62500362 27.1845,9.23049638 L18.61995,9.23049638 C18.52485,9.23064493 18.43365,9.26837681 18.3666,9.33418478 Z M28.5594,8.88437319 C28.95,8.88437319 29.268,9.19870652 29.268,9.58568116 C29.268,9.97250725 28.95015,10.2872862 28.5594,10.2872862 C28.1688,10.2872862 27.85095,9.97250725 27.85095,9.58568116 C27.85095,9.19870652 28.1688,8.88437319 28.5594,8.88437319 Z" id="Shape"></path>
                                <path d="M32.9055,11.365913 C32.9055,11.1701232 32.74455,11.0108768 32.547,11.0108768 L19.1814,11.0108768 C19.08615,11.0108768 18.9951,11.0486087 18.92805,11.1156051 L8.68365,21.261471 C7.97625,21.3425797 7.4235,21.9330688 7.4235,22.6563623 C7.4235,23.4349167 8.06265,24.0671486 8.8485,24.0671486 C9.63435,24.0671486 10.2735,23.4341739 10.2735,22.6563623 C10.2735,22.1239565 9.9711,21.6656775 9.53175,21.4257681 L19.32915,11.721692 L32.5455,11.721692 C32.7444,11.7209493 32.9055,11.5621486 32.9055,11.365913 Z M9.55725,22.6556196 C9.55725,23.0424457 9.2397,23.3573732 8.8491,23.3573732 C8.4585,23.3573732 8.14095,23.0425942 8.14095,22.6556196 C8.14095,22.2687935 8.45835,21.9540145 8.8491,21.9540145 C9.23985,21.9540145 9.55725,22.2687935 9.55725,22.6556196 Z" id="Shape"></path>
                                <path d="M28.56285,13.9076159 C28.72305,14.514 29.27625,14.9642572 29.937,14.9642572 C30.72255,14.9642572 31.36245,14.330837 31.36245,13.5527283 C31.36245,12.7741739 30.72255,12.1414964 29.937,12.1414964 C29.27625,12.1414964 28.72305,12.5921993 28.56285,13.197692 L19.98075,13.197692 C19.887,13.197692 19.7961,13.2354239 19.728,13.3013804 L13.4628,19.4699493 C12.7029,19.499808 12.09285,20.1161449 12.09285,20.8759819 C12.09285,21.6545362 12.7323,22.2869167 13.51815,22.2869167 C14.30355,22.2869167 14.94315,21.6537935 14.94315,20.8759819 C14.94315,20.3695725 14.6709,19.9286739 14.26575,19.6794058 L20.12775,13.9070217 L28.5627,13.9070217 L28.5627,13.9076159 L28.56285,13.9076159 Z M29.93715,12.8514203 C30.32775,12.8514203 30.64575,13.1657536 30.64575,13.5527283 C30.64575,13.9395543 30.3279,14.2543333 29.93715,14.2543333 C29.54655,14.2543333 29.2287,13.9395543 29.2287,13.5527283 C29.2287,13.1657536 29.54655,12.8514203 29.93715,12.8514203 Z M13.5183,21.5783297 C13.1277,21.5783297 12.80985,21.2635507 12.80985,20.8765761 C12.80985,20.4894529 13.1277,20.174971 13.5183,20.174971 C13.9089,20.174971 14.22645,20.4894529 14.22645,20.8765761 C14.2263,21.262808 13.9089,21.5783297 13.5183,21.5783297 Z" id="Shape"></path>
                                <path d="M8.84925,40.9725181 C9.6351,40.9725181 10.27425,40.3388007 10.27425,39.5609891 C10.27425,38.7824348 9.6351,38.1493116 8.84925,38.1493116 C8.6613,38.1493116 8.48205,38.1882319 8.31795,38.2540399 L4.82775,34.2578768 L4.82775,21.7458949 L16.85235,9.83613768 C16.91955,9.7691413 16.95705,9.67911957 16.95705,9.58553261 L16.95705,2.57913768 C16.95705,2.38319928 16.7964,2.22410145 16.59855,2.22410145 C16.4007,2.22410145 16.24005,2.38319928 16.24005,2.57913768 L16.24005,9.43861594 L4.2162,21.3480761 C4.1487,21.4146268 4.1115,21.5047971 4.1115,21.5983841 L4.1115,34.3891957 C4.1115,34.475058 4.1424,34.5569094 4.19895,34.6219746 L7.74435,38.680529 C7.54725,38.9232609 7.42485,39.2261558 7.42485,39.5611377 C7.42425,40.3389493 8.0634,40.9725181 8.84925,40.9725181 Z M8.84925,38.8593841 C9.23985,38.8593841 9.5574,39.174163 9.5574,39.5611377 C9.5574,39.9479638 9.23985,40.262 8.84925,40.262 C8.45865,40.262 8.1411,39.9479638 8.1411,39.5611377 C8.1411,39.174163 8.4585,38.8593841 8.84925,38.8593841 Z" id="Shape"></path>
                            </g>
                        </g>
                    </g>
                    <g id="circuit-print-for-electronic-products" transform="translate(20.000000, 17.000000)" fill="#445355">
                        <g id="Capa_1">
                            <g id="Group">
                                <path d="M3.3393,38.2685978 C2.83605,38.4863732 2.4834,38.9828297 2.4834,39.5609891 C2.4834,40.3388007 3.123,40.9717754 3.9084,40.9717754 C4.69425,40.9717754 5.3337,40.3388007 5.3337,39.5609891 C5.3337,38.8856775 4.85235,38.3226703 4.21245,38.1834783 L0.7836,34.2572826 L0.7836,21.7458949 L12.8082,9.83613768 C12.8757,9.7691413 12.9129,9.67911957 12.9129,9.58553261 L12.9129,2.77255072 C13.5252,2.6134529 13.97985,2.06678623 13.97985,1.41123188 C13.97985,0.632677536 13.34025,0 12.55455,0 C11.76915,0 11.12955,0.63342029 11.12955,1.41123188 C11.12955,2.06678623 11.5845,2.6134529 12.19605,2.77255072 L12.19605,9.43861594 L0.17205,21.3480761 C0.10485,21.4146268 0.0666,21.5047971 0.0666,21.5989783 L0.0666,34.3902355 C0.0666,34.4747609 0.0975,34.5573551 0.15405,34.6218261 L3.3393,38.2685978 Z M3.90855,38.8593841 C4.29915,38.8593841 4.617,39.174163 4.617,39.5611377 C4.617,39.9479638 4.29915,40.262 3.90855,40.262 C3.51795,40.262 3.2004,39.9479638 3.2004,39.5611377 C3.2004,39.174163 3.51855,38.8593841 3.90855,38.8593841 Z M11.84655,1.41123188 C11.84655,1.0244058 12.1641,0.709923913 12.5547,0.709923913 C12.9453,0.709923913 13.26315,1.02425725 13.26315,1.41123188 C13.26315,1.79835507 12.9453,2.11283696 12.5547,2.11283696 C12.16395,2.11357971 11.84655,1.79835507 11.84655,1.41123188 Z" id="Shape"></path>
                                <path d="M6.31215,38.272163 L2.8059,34.2572826 L2.8059,21.7458949 L14.83095,9.83613768 C14.89815,9.7691413 14.93565,9.67911957 14.93565,9.58553261 L14.93565,2.57913768 C14.93565,2.38319928 14.775,2.22410145 14.57715,2.22410145 C14.379,2.22410145 14.21865,2.38319928 14.21865,2.57913768 L14.21865,9.43861594 L2.1936,21.3480761 C2.1264,21.4146268 2.0889,21.5047971 2.0889,21.5983841 L2.0889,34.3891957 C2.0889,34.475058 2.1207,34.5569094 2.17635,34.6219746 L5.77005,38.7359384 C5.84115,38.8171957 5.94045,38.8593841 6.04095,38.8593841 C6.12435,38.8593841 6.20715,38.8302681 6.2754,38.772779 C6.42555,38.6445797 6.4413,38.4205652 6.31215,38.272163 Z" id="Shape"></path>
                                <path d="M18.3666,9.33418478 L6.237,21.3480761 C6.09735,21.4868225 6.09735,21.7112826 6.237,21.850029 C6.30735,21.9194022 6.399,21.9532717 6.49005,21.9532717 C6.5817,21.9532717 6.6735,21.9186594 6.74385,21.850029 L18.7677,9.94056884 L27.1845,9.94056884 C27.3447,10.5460616 27.8979,10.9970616 28.55865,10.9970616 C29.3442,10.9970616 29.98335,10.3637899 29.98335,9.58553261 C29.98335,8.80697826 29.3442,8.17430072 28.55865,8.17430072 C27.8979,8.17430072 27.3447,8.62500362 27.1845,9.23049638 L18.61995,9.23049638 C18.52485,9.23064493 18.43365,9.26837681 18.3666,9.33418478 Z M28.5594,8.88437319 C28.95,8.88437319 29.268,9.19870652 29.268,9.58568116 C29.268,9.97250725 28.95015,10.2872862 28.5594,10.2872862 C28.1688,10.2872862 27.85095,9.97250725 27.85095,9.58568116 C27.85095,9.19870652 28.1688,8.88437319 28.5594,8.88437319 Z" id="Shape"></path>
                                <path d="M32.9055,11.365913 C32.9055,11.1701232 32.74455,11.0108768 32.547,11.0108768 L19.1814,11.0108768 C19.08615,11.0108768 18.9951,11.0486087 18.92805,11.1156051 L8.68365,21.261471 C7.97625,21.3425797 7.4235,21.9330688 7.4235,22.6563623 C7.4235,23.4349167 8.06265,24.0671486 8.8485,24.0671486 C9.63435,24.0671486 10.2735,23.4341739 10.2735,22.6563623 C10.2735,22.1239565 9.9711,21.6656775 9.53175,21.4257681 L19.32915,11.721692 L32.5455,11.721692 C32.7444,11.7209493 32.9055,11.5621486 32.9055,11.365913 Z M9.55725,22.6556196 C9.55725,23.0424457 9.2397,23.3573732 8.8491,23.3573732 C8.4585,23.3573732 8.14095,23.0425942 8.14095,22.6556196 C8.14095,22.2687935 8.45835,21.9540145 8.8491,21.9540145 C9.23985,21.9540145 9.55725,22.2687935 9.55725,22.6556196 Z" id="Shape"></path>
                                <path d="M28.56285,13.9076159 C28.72305,14.514 29.27625,14.9642572 29.937,14.9642572 C30.72255,14.9642572 31.36245,14.330837 31.36245,13.5527283 C31.36245,12.7741739 30.72255,12.1414964 29.937,12.1414964 C29.27625,12.1414964 28.72305,12.5921993 28.56285,13.197692 L19.98075,13.197692 C19.887,13.197692 19.7961,13.2354239 19.728,13.3013804 L13.4628,19.4699493 C12.7029,19.499808 12.09285,20.1161449 12.09285,20.8759819 C12.09285,21.6545362 12.7323,22.2869167 13.51815,22.2869167 C14.30355,22.2869167 14.94315,21.6537935 14.94315,20.8759819 C14.94315,20.3695725 14.6709,19.9286739 14.26575,19.6794058 L20.12775,13.9070217 L28.5627,13.9070217 L28.5627,13.9076159 L28.56285,13.9076159 Z M29.93715,12.8514203 C30.32775,12.8514203 30.64575,13.1657536 30.64575,13.5527283 C30.64575,13.9395543 30.3279,14.2543333 29.93715,14.2543333 C29.54655,14.2543333 29.2287,13.9395543 29.2287,13.5527283 C29.2287,13.1657536 29.54655,12.8514203 29.93715,12.8514203 Z M13.5183,21.5783297 C13.1277,21.5783297 12.80985,21.2635507 12.80985,20.8765761 C12.80985,20.4894529 13.1277,20.174971 13.5183,20.174971 C13.9089,20.174971 14.22645,20.4894529 14.22645,20.8765761 C14.2263,21.262808 13.9089,21.5783297 13.5183,21.5783297 Z" id="Shape"></path>
                                <path d="M8.84925,40.9725181 C9.6351,40.9725181 10.27425,40.3388007 10.27425,39.5609891 C10.27425,38.7824348 9.6351,38.1493116 8.84925,38.1493116 C8.6613,38.1493116 8.48205,38.1882319 8.31795,38.2540399 L4.82775,34.2578768 L4.82775,21.7458949 L16.85235,9.83613768 C16.91955,9.7691413 16.95705,9.67911957 16.95705,9.58553261 L16.95705,2.57913768 C16.95705,2.38319928 16.7964,2.22410145 16.59855,2.22410145 C16.4007,2.22410145 16.24005,2.38319928 16.24005,2.57913768 L16.24005,9.43861594 L4.2162,21.3480761 C4.1487,21.4146268 4.1115,21.5047971 4.1115,21.5983841 L4.1115,34.3891957 C4.1115,34.475058 4.1424,34.5569094 4.19895,34.6219746 L7.74435,38.680529 C7.54725,38.9232609 7.42485,39.2261558 7.42485,39.5611377 C7.42425,40.3389493 8.0634,40.9725181 8.84925,40.9725181 Z M8.84925,38.8593841 C9.23985,38.8593841 9.5574,39.174163 9.5574,39.5611377 C9.5574,39.9479638 9.23985,40.262 8.84925,40.262 C8.45865,40.262 8.1411,39.9479638 8.1411,39.5611377 C8.1411,39.174163 8.4585,38.8593841 8.84925,38.8593841 Z" id="Shape"></path>
                            </g>
                        </g>
                    </g>
                </g>
            </g>
        </g>
    </g>
</svg>