<?xml version="1.0" encoding="UTF-8" standalone="no"?>
<svg width="135px" height="131px" viewBox="0 0 135 131" version="1.1" xmlns="http://www.w3.org/2000/svg" xmlns:xlink="http://www.w3.org/1999/xlink">
    <!-- Generator: Sketch 42 (36781) - http://www.bohemiancoding.com/sketch -->
    <title>Group 8</title>
    <desc>Created with Sketch.</desc>
    <defs>
        <circle id="path-1" cx="61" cy="61" r="61"></circle>
        <mask id="mask-2" maskContentUnits="userSpaceOnUse" maskUnits="objectBoundingBox" x="-2" y="-2" width="126" height="126">
            <rect x="-2" y="-2" width="126" height="126" fill="white"></rect>
            <use xlink:href="#path-1" fill="black"></use>
        </mask>
        <mask id="mask-4" maskContentUnits="userSpaceOnUse" maskUnits="objectBoundingBox" x="-2" y="-2" width="126" height="126">
            <rect x="-2" y="-2" width="126" height="126" fill="white"></rect>
            <use xlink:href="#path-1" fill="black"></use>
        </mask>
    </defs>
    <g id="Page-1" stroke="none" stroke-width="1" fill="none" fill-rule="evenodd">
        <g id="Artboard-2" transform="translate(-389.000000, -336.000000)">
            <g id="Group-8" transform="translate(390.000000, 338.000000)">
                <g id="Group-6">
                    <g id="Group" transform="translate(0.000000, 62.000000)" stroke="#E9E9E9" stroke-width="2">
                        <path d="M0.342773438,0.461914062 C0.342773438,0.461914062 2.57324219,62.9824219 67.5532227,65.7207031 C133.371094,60.8017578 132.103516,2.05859375 132.103516,1.26025391" id="Path-5"></path>
                    </g>
                    <g id="Group-23" transform="translate(6.000000, 0.000000)">
                        <g id="Group-26">
                            <mask id="mask-3" fill="white">
                                <use xlink:href="#path-1"></use>
                            </mask>
                            <g id="Oval" stroke="#E5E2E2" mask="url(#mask-2)" stroke-width="4">
                                <use mask="url(#mask-4)" xlink:href="#path-1"></use>
                            </g>
                        </g>
                    </g>
                    <g id="analysis" transform="translate(29.000000, 23.000000)" fill-rule="nonzero">
                        <g id="Layer_1">
                            <path d="M65.4235312,66.649666 C65.1116211,66.649666 64.8000117,66.530707 64.5619434,66.2929395 L53.5357539,55.2665996 C53.0600684,54.7906133 53.0600684,54.0194102 53.5357539,53.5437246 C54.0118906,53.0678887 54.7830937,53.0683398 55.2586289,53.5437246 L66.2848184,64.5700645 C66.7605039,65.0460508 66.7605039,65.8172539 66.2848184,66.2930898 C66.0470508,66.530707 65.735291,66.649666 65.4235312,66.649666 Z" id="Shape" fill="#365558"></path>
                            <path d="M56.4203965,9.68154688 C50.1772305,3.43838086 41.8764199,0 33.0471367,0 C24.2178535,0 15.917043,3.43838086 9.67372656,9.68154688 C-3.21429883,22.5697227 -3.21429883,43.5401914 9.67372656,56.4283672 C15.917043,62.6713828 24.2177031,66.1097637 33.0471367,66.1097637 C41.8765703,66.1097637 50.1772305,62.6713828 56.4205469,56.4283672 C62.6638633,50.1849004 66.1020938,41.8842402 66.1020938,33.0548066 C66.1020938,24.225373 62.6637129,15.9248633 56.4203965,9.68154688 Z" id="Shape" fill="#0E7886"></path>
                            <path d="M76.6354531,69.4070781 L67.4470371,60.2186621 C66.9710508,59.743127 66.1998477,59.743127 65.7240117,60.2186621 L60.2108418,65.731832 C59.7350059,66.2078184 59.7350059,66.9790215 60.2108418,67.454707 L69.3992578,76.643123 C69.6371758,76.8808906 69.9490859,76.9998496 70.2608457,76.9998496 C70.5726055,76.9998496 70.8843652,76.8808906 71.1224336,76.643123 L76.6356035,71.1299531 C77.1109883,70.6542676 77.1109883,69.8829141 76.6354531,69.4070781 Z" id="Shape" fill="#D0E5E3"></path>
                            <path d="M62.8895996,63.0527734 L60.210541,65.731832 C59.7348555,66.2078184 59.7348555,66.9790215 60.210541,67.454707 L69.398957,76.643123 C69.636875,76.8808906 69.9487852,76.9998496 70.2605449,76.9998496 C70.5723047,76.9998496 70.8840645,76.8808906 71.1221328,76.643123 L73.8011914,73.9640645 L62.8895996,63.0527734 Z" id="Shape" fill="#C1C9C9"></path>
                            <path d="M9.59702734,9.76020117 C-3.21324609,22.6546934 -3.18828125,43.566209 9.67372656,56.4283672 C15.917043,62.6713828 24.2177031,66.1097637 33.0471367,66.1097637 C41.8397246,66.1097637 50.1075996,62.6990547 56.3418926,56.504916 L9.59702734,9.76020117 Z" id="Shape" fill="#0295AA"></path>
                            <path d="M49.8119316,16.2901621 C40.5678711,7.04625195 25.5267031,7.04625195 16.2824922,16.2901621 C11.8044609,20.768043 9.33820508,26.7220078 9.33820508,33.054957 C9.33820508,39.3879063 11.8044609,45.3418711 16.2823418,49.819752 C20.9042969,54.441707 26.9757168,56.7529102 33.0469863,56.7529102 C39.1184062,56.7529102 45.1896758,54.4418574 49.8117812,49.819752 C59.0558418,40.575541 59.0558418,25.534373 49.8119316,16.2901621 Z" id="Shape" fill="#E6EAEA"></path>
                            <path d="M16.2056426,16.3688164 C11.7767891,20.8378242 9.33820508,26.7588535 9.33820508,33.054957 C9.33820508,39.3879063 11.8044609,45.3418711 16.2823418,49.819752 C20.9042969,54.441707 26.9757168,56.7529102 33.0469863,56.7529102 C39.0842676,56.7529102 45.1207969,54.4668223 49.733127,49.8964512 L16.2056426,16.3688164 Z" id="Shape" fill="#CDD4D5"></path>
                            <g id="Group" transform="translate(31.732422, 4.812500)" fill="#15BDB1">
                                <path d="M28.2784004,29.4606211 C27.6054023,29.4606211 27.0602363,28.9153047 27.0602363,28.2423066 C27.0602363,24.7930977 26.3959609,21.4532227 25.0856074,18.3160742 C24.826334,17.6952617 25.1194453,16.9816582 25.7402578,16.7222344 C26.3615215,16.4628105 27.0746738,16.7560723 27.3339473,17.3768848 C28.7689746,20.8131602 29.4967148,24.4688555 29.4967148,28.2423066 C29.4965645,28.9154551 28.9513984,29.4606211 28.2784004,29.4606211 Z" id="Shape"></path>
                                <path d="M23.321375,13.8676699 C22.9404355,13.8676699 22.5655117,13.6896074 22.3277441,13.3558906 C21.4921738,12.1820918 20.5474199,11.0657422 19.5193496,10.0376719 C14.6567695,5.17494141 8.19147656,2.49693555 1.31456445,2.49693555 C0.641716797,2.49693555 0.09625,1.95161914 0.09625,1.27862109 C0.09625,0.605623047 0.641716797,0.0603066406 1.31456445,0.0603066406 C8.84236719,0.0603066406 15.9192988,2.9917207 21.242375,8.31449609 C22.3659434,9.43821484 23.3989766,10.6589355 24.3129004,11.9425195 C24.7028633,12.4906934 24.5748809,13.2513691 24.0268574,13.6416328 C23.8127012,13.7942793 23.5657598,13.8676699 23.321375,13.8676699 Z" id="Shape"></path>
                            </g>
                            <path d="M23.7955566,23.3902539 L17.9480684,23.3902539 C17.2752207,23.3902539 16.7297539,23.9355703 16.7297539,24.6085684 L16.7297539,40.8518086 C16.7297539,41.5248066 17.2752207,42.070123 17.9480684,42.070123 L23.7955566,42.070123 C24.4684043,42.070123 25.0138711,41.5248066 25.0138711,40.8518086 L25.0138711,24.608418 C25.0138711,23.9355703 24.4684043,23.3902539 23.7955566,23.3902539 Z" id="Shape" fill="#46A179"></path>
                            <path d="M35.4906836,25.3394668 L29.6431953,25.3394668 C28.9703477,25.3394668 28.4248809,25.8847832 28.4248809,26.5577813 L28.4248809,40.8518086 C28.4248809,41.5248066 28.9703477,42.070123 29.6431953,42.070123 L35.4906836,42.070123 C36.1635312,42.070123 36.708998,41.5248066 36.708998,40.8518086 L36.708998,26.5577813 C36.708998,25.8846328 36.1635312,25.3394668 35.4906836,25.3394668 Z" id="Shape" fill="#F0353D"></path>
                            <path d="M47.1858105,19.4918281 L41.3383223,19.4918281 C40.6653242,19.4918281 40.1200078,20.0371445 40.1200078,20.7101426 L40.1200078,40.8516582 C40.1200078,41.5246562 40.6653242,42.0699727 41.3383223,42.0699727 L47.1858105,42.0699727 C47.8588086,42.0699727 48.4039746,41.5246562 48.4039746,40.8516582 L48.4039746,20.7101426 C48.404125,20.0371445 47.8588086,19.4918281 47.1858105,19.4918281 Z" id="Shape" fill="#F6A623"></path>
                            <path d="M49.7847109,42.0699727 L15.349168,42.0699727 C14.6763203,42.0699727 14.1308535,41.5246563 14.1308535,40.8516582 C14.1308535,40.1786602 14.6763203,39.6334941 15.349168,39.6334941 L49.7848613,39.6334941 C50.4578594,39.6334941 51.0030254,40.1788105 51.0030254,40.8516582 C51.0030254,41.5245059 50.457709,42.0699727 49.7847109,42.0699727 Z" id="Shape" fill="#365558"></path>
                        </g>
                    </g>
                </g>
            </g>
        </g>
    </g>
</svg>