<?xml version="1.0" encoding="UTF-8" standalone="no"?>
<svg width="145px" height="69px" viewBox="0 0 145 69" version="1.1" xmlns="http://www.w3.org/2000/svg" xmlns:xlink="http://www.w3.org/1999/xlink">
    <!-- Generator: Sketch 42 (36781) - http://www.bohemiancoding.com/sketch -->
    <title>Medical_diagnosis_with_image_recognition</title>
    <desc>Created with Sketch.</desc>
    <defs>
        <filter x="-50%" y="-50%" width="200%" height="200%" filterUnits="objectBoundingBox" id="filter-1">
            <feGaussianBlur stdDeviation="10 0" in="SourceGraphic"></feGaussianBlur>
        </filter>
    </defs>
    <g id="Page-1" stroke="none" stroke-width="1" fill="none" fill-rule="evenodd">
        <g id="Large-Device-Desktops" transform="translate(-723.000000, -1006.000000)">
            <g id="iot_solutions_healthcare" transform="translate(84.000000, 635.000000)">
                <g id="Group-15" transform="translate(37.000000, 363.000000)">
                    <g id="Group-13" transform="translate(344.000000, 0.000000)">
                        <g id="Medical_diagnosis_with_image_recognition" transform="translate(284.000000, 0.000000)">
                            <ellipse id="Oval-4" fill="#000000" opacity="0.1" filter="url(#filter-1)" cx="46.5" cy="75.2692308" rx="46.5" ry="1.26923077"></ellipse>
                            <g id="lungs-(2)" transform="translate(21.000000, 12.000000)">
                                <g id="Layer_1">
                                    <path d="M24.4649767,1.95043945 C18.4241148,1.95043945 7.29227201,-1.45005815 3.13378906,2.30029297 C-1.02469388,6.05064409 1,20.5441919 1,27.4607545 C1,34.0376378 -1.5435388,46.6603352 2.81689453,50.9200905 C7.17732786,55.1798459 18.0810609,50.9200905 24.4604708,50.9200905 C30.8754313,50.9200905 42.4054063,55.0926663 46.640625,50.9200905 C50.8758437,46.7475148 47.9203742,34.0018094 47.9203742,27.4607545 C47.9203742,20.0832855 53.2440365,6.25101228 47.9203742,1.95043945 C42.596712,-2.35013337 30.0447247,1.95043945 24.4649767,1.95043945 Z" id="Shape" fill="#48A1AF"></path>
                                    <g id="Group-4" transform="translate(9.000000, 10.000000)">
                                        <path d="M30.6174004,18.0699577 C28.8067183,9.99125352 23.6530785,7.06618913 23.6530785,7.06618913 C20.4492294,4.6983159 18.2208431,10.5483501 18.2208431,10.5483501 C17.2457586,13.0555211 18.917332,23.0842998 18.917332,23.0842998 C20.0314306,26.9843541 21.981505,27.8200463 21.981505,27.8200463 C23.6530785,28.2379396 26.1600604,28.7950362 26.1600604,28.7950362 C30.4781972,31.5808028 32.5674748,29.4915252 32.5674748,29.4915252 C33.124666,26.427163 30.6174004,18.0699577 30.6174004,18.0699577 Z" id="Shape" fill="#F4F4F4"></path>
                                        <path d="M23.653173,7.06618913 C20.4493239,4.6983159 18.2209376,10.5483501 18.2209376,10.5483501 C17.2458531,13.0555211 18.9174266,23.0842998 18.9174266,23.0842998 C20.0315252,26.9843541 21.9815996,27.8200463 21.9815996,27.8200463 C22.8433924,28.0354708 23.9275131,28.2879658 24.7755936,28.4820181 C25.1618068,28.5704386 27.3845191,26.096839 28.7601911,23.5020986 C30.2204064,20.7482958 30.8264889,17.8609638 30.8264889,17.8609638 C29.0157123,9.78225956 23.653173,7.06618913 23.653173,7.06618913 Z" id="Shape" fill="#EAEFEF"></path>
                                        <g id="Group" transform="translate(18.722334, 9.130785)" fill="#D4D8D8">
                                            <path d="M7.15790141,4.01362978 C7.10967203,3.98374648 5.97268813,3.27855734 5.07562173,3.22881489 C5.06238229,3.22862575 4.80118712,3.22682897 4.46604024,3.1788833 C4.54415292,3.1313159 4.59427364,3.09944668 4.6065674,3.09150302 C4.65574245,3.06010664 4.69347485,3.01433602 4.71513078,2.96024346 C5.40887726,1.22559356 6.69716901,0.608162978 6.71012475,0.602110664 C6.84942254,0.53704829 6.90975654,0.371366197 6.84478873,0.231879276 C6.77963179,0.0924869215 6.6139497,0.0321529175 6.47446278,0.0972152918 C6.41441247,0.125207243 5.01490946,0.795690141 4.23293159,2.66793561 C4.13155533,2.73025553 1.6748833,4.08143461 0.448249497,4.15737223 C0.347535211,4.16361368 0.257412475,4.22262374 0.21315493,4.31350302 C0.199348089,4.34253521 -0.127855131,5.03108048 0.203225352,5.82979678 C0.499694165,6.54586117 1.21311066,7.10248491 2.32333199,7.48463179 C2.35321529,7.49493964 2.3839497,7.50004628 2.41392757,7.50004628 C2.52948893,7.50004628 2.63739034,7.42732394 2.67720322,7.31214085 C2.72713481,7.16660161 2.64996781,7.00810664 2.50442857,6.95798592 C1.55714688,6.63182294 0.957305835,6.18357344 0.721454728,5.62543662 C0.557380282,5.23695372 0.611472837,4.88620322 0.664430584,4.69858149 C1.00525151,4.66217304 1.36375654,4.5766841 1.71999195,4.46547284 C2.84061569,5.62798994 4.55152918,6.03623742 4.62623742,6.05373239 C4.64732596,6.05846076 4.66850905,6.06073038 4.68921932,6.06073038 C4.81593964,6.06073038 4.9303662,5.97372837 4.96015493,5.8451167 C4.99486117,5.6954165 4.90161771,5.5457163 4.75172837,5.51082093 C4.73631388,5.5071328 3.31297988,5.16546076 2.3076338,4.2593159 C2.8414668,4.05117304 3.34248491,3.80463581 3.74089738,3.59167002 C4.37951107,3.78260161 5.02918913,3.78562777 5.06020724,3.78562777 C5.80010262,3.82704829 6.85188129,4.47956338 6.8625674,4.48627767 C6.90852716,4.51493159 6.95949899,4.52864386 7.00999799,4.52864386 C7.10267404,4.52864386 7.19355332,4.48221127 7.2464165,4.39776258 C7.3279336,4.26697586 7.28821529,4.09524145 7.15790141,4.01362978 Z" id="Shape"></path>
                                            <path d="M11.000837,8.16409859 C10.9040946,8.08712072 8.56374044,6.29024547 2.30195976,6.94427364 C2.148666,6.96025553 2.037833,7.09718913 2.05390946,7.25029376 C2.05428773,7.25436016 2.05684105,7.25738632 2.05750302,7.26135815 L1.18596982,11.3214205 C1.18095775,11.3392938 1.17613481,11.3566942 1.17462173,11.3747565 L0.828032193,12.9896841 C0.795690141,13.1401408 0.891392354,13.288328 1.04194366,13.3205755 C1.06170825,13.3247364 1.0812837,13.3268169 1.10067002,13.3268169 C1.22909256,13.3268169 1.34465392,13.2374507 1.37274044,13.106664 L1.63856942,11.8681147 C4.11207445,13.6489135 4.00927968,15.7400825 4.0031328,15.8373924 C3.99187928,15.990497 4.10715694,16.1236479 4.260167,16.1349014 C4.26725956,16.1354688 4.27444668,16.1357525 4.28125553,16.1357525 C4.42575453,16.1357525 4.54765191,16.024163 4.55881087,15.8776781 C4.56684909,15.7705332 4.7127666,13.276507 1.76538431,11.2773521 L2.11017706,9.66989537 C3.35525151,9.4818008 5.5973501,12.6038491 6.73017304,14.6456539 C6.78095573,14.7374789 6.87599598,14.7892072 6.97396781,14.7892072 C7.01973843,14.7892072 7.06579276,14.7779537 7.10901006,14.7543119 C7.24329577,14.6796036 7.29190342,14.5101388 7.2171006,14.3755694 C7.02342656,14.0255755 5.90318109,12.0511026 4.59692153,10.6209598 C7.09595976,9.41229376 8.70965795,10.8426258 8.78152918,10.9083501 C8.83505433,10.9577143 8.90285915,10.9821127 8.97019115,10.9821127 C9.04508853,10.9821127 9.11951308,10.9521348 9.17474044,10.8929356 C9.27895372,10.7800221 9.27261771,10.6038431 9.15960966,10.4992515 C9.13927767,10.4804326 7.13596177,8.67722133 4.19188934,10.2022153 C3.53568612,9.56568209 2.85319316,9.11705433 2.23122334,9.10703018 L2.58083903,7.4776338 C8.40883903,6.91703823 10.6265392,8.57868209 10.655004,8.6007163 C10.7059759,8.64090744 10.7669718,8.66057746 10.8274004,8.66057746 C10.9094849,8.66057746 10.9906237,8.62445272 11.0454728,8.55541851 C11.1409859,8.43512877 11.1212213,8.25989537 11.000837,8.16409859 Z" id="Shape"></path>
                                        </g>
                                        <path d="M14.6995312,10.5483501 C14.6995312,10.5483501 12.4709557,4.6983159 9.26748491,7.06618913 C9.26748491,7.06618913 4.1137505,9.99125352 2.30297384,18.0699577 C2.30297384,18.0699577 -0.204197183,26.427163 0.352993964,29.4915252 C0.352993964,29.4915252 2.44227163,31.5808028 6.76040845,28.7950362 C6.76040845,28.7950362 9.26757948,28.2379396 10.9389638,27.8200463 C10.9389638,27.8200463 12.8890382,26.9843541 14.0031368,23.0842998 C14.0030423,23.0842998 15.6745211,13.0555211 14.6995312,10.5483501 Z" id="Shape" fill="#F4F4F4"></path>
                                        <path d="M14.6995312,10.5483501 C14.6995312,10.5483501 12.4709557,4.6983159 9.26748491,7.06618913 C9.26748491,7.06618913 3.90485111,9.78225956 2.09407445,17.8609638 C2.09407445,17.8609638 2.69987324,20.7482958 4.16037223,23.5020986 C5.53604427,26.096839 7.7585674,28.5704386 8.14496982,28.4820181 C8.9930503,28.2878712 10.077171,28.0353763 10.9389638,27.8200463 C10.9389638,27.8200463 12.8890382,26.9843541 14.0031368,23.0842998 C14.0030423,23.0842998 15.6745211,13.0555211 14.6995312,10.5483501 Z" id="Shape" fill="#EAEFEF"></path>
                                        <g id="Group" transform="translate(3.024145, 9.130785)" fill="#CACCCC">
                                            <path d="M10.9605513,4.31350302 C10.9161992,4.22271831 10.8265493,4.15869618 10.7256459,4.15737223 C9.59915895,4.14243058 7.04234004,2.73016097 6.94096378,2.66793561 C6.15889135,0.795690141 4.7594829,0.125207243 4.6994326,0.0972152918 C4.55994567,0.0321529175 4.39407445,0.0924869215 4.32910664,0.231879276 C4.26404427,0.371366197 4.32447284,0.537142857 4.46377062,0.602110664 C4.47672636,0.60806841 5.76501811,1.22559356 6.45876459,2.96024346 C6.48042052,3.01424145 6.51843662,3.06010664 6.56732797,3.09150302 C6.5794326,3.09935211 6.62993159,3.13122133 6.70776056,3.1788833 C6.37270825,3.22692354 6.11151308,3.22862575 6.09827364,3.22881489 C5.20130181,3.27855734 4.06403421,3.98374648 4.01599396,4.01362978 C3.88568008,4.09524145 3.84596177,4.26707042 3.92747887,4.39766801 C3.98015292,4.4821167 4.07122133,4.5285493 4.16389738,4.5285493 C4.21411268,4.5285493 4.26527364,4.51483702 4.31132797,4.4861831 C4.32191952,4.47956338 5.37369819,3.82695372 6.11368813,3.7855332 C6.14470624,3.7855332 6.79438431,3.78250704 7.43290342,3.59157545 C7.8313159,3.80454125 8.33252314,4.0509839 8.86626157,4.25922133 C7.86072636,5.1653662 6.43758149,5.50703823 6.422167,5.51072636 C6.27227767,5.54562173 6.17884507,5.69522736 6.21374044,5.84502213 C6.24334004,5.9736338 6.35795573,6.06063581 6.48486519,6.06063581 C6.50548089,6.06063581 6.52656942,6.05846076 6.54765795,6.05363783 C6.6223662,6.03614286 8.33327968,5.62798994 9.45390342,4.46537827 C9.8102334,4.5766841 10.1687384,4.66207847 10.5094648,4.69848692 C10.562328,4.88610865 10.6164205,5.23685915 10.4524406,5.62534205 C10.2164004,6.18347887 9.61684306,6.63182294 8.6694668,6.95789135 C8.52392757,7.00801207 8.44676056,7.16650704 8.49669215,7.31204628 C8.5363159,7.42732394 8.64450101,7.49995171 8.76006237,7.49995171 C8.78994567,7.49995171 8.82077465,7.49493964 8.85075252,7.48453722 C9.96078471,7.10239034 10.6741066,6.5457666 10.97067,5.82970221 C11.3019396,5.03117505 10.9746419,4.34253521 10.9605513,4.31350302 Z" id="Shape"></path>
                                            <path d="M10.3458632,12.9895895 L9.99917907,11.374662 C9.997666,11.3565996 9.99293763,11.3391992 9.98792555,11.321326 L9.11648692,7.26126358 C9.11705433,7.25729175 9.11960765,7.25436016 9.11979678,7.2501992 C9.13606237,7.09709457 9.02504024,6.96025553 8.87193561,6.94417907 C2.61015493,6.29015091 0.269800805,8.08702616 0.17305835,8.16400402 C0.0528631791,8.2598008 0.0329094567,8.43493964 0.12861167,8.55532394 C0.183555332,8.62435815 0.264599598,8.6604829 0.346778672,8.6604829 C0.407301811,8.6604829 0.468108652,8.64081288 0.51917505,8.60062173 C0.547639839,8.57849296 2.76534004,6.91694366 8.59334004,7.47753924 L8.9430503,9.10693561 C8.32098592,9.11695976 7.63849296,9.56558753 6.98228974,10.2021207 C4.0382173,8.67712676 2.03509054,10.480338 2.01456942,10.4991569 C1.90156137,10.6037485 1.89503622,10.779833 1.99962777,10.892841 C2.05447686,10.9520402 2.12899598,10.9820181 2.20379879,10.9820181 C2.27131992,10.9820181 2.33912475,10.9577143 2.3926499,10.9082555 C2.46452113,10.8425312 4.07821932,9.4121992 6.57725755,10.6208652 C5.27099799,12.051008 4.15094165,14.0254809 3.95688934,14.3754748 C3.88208652,14.5100443 3.9308833,14.6795091 4.06516901,14.7542173 C4.10819718,14.7778592 4.15434608,14.7891127 4.20021127,14.7891127 C4.29799396,14.7891127 4.39303421,14.7373843 4.44400604,14.6455594 C5.57682897,12.6037545 7.81892757,9.48170624 9.06400201,9.6698008 L9.40879477,11.2772575 C6.46141247,13.2763179 6.60714085,15.7703441 6.61536821,15.8775835 C6.6264326,16.0240684 6.74832998,16.1356579 6.89292354,16.1356579 C6.89963783,16.1356579 6.90673038,16.1353742 6.91401207,16.1348068 C7.06702213,16.1235533 7.1822998,15.9904024 7.17104628,15.8372978 C7.1648994,15.7399879 7.06210463,13.6488189 9.53560966,11.8680201 L9.80143863,13.1065694 C9.82952515,13.2372616 9.94508652,13.3267223 10.0735091,13.3267223 C10.0927062,13.3267223 10.1124708,13.3246419 10.1322354,13.3204809 C10.282503,13.2882334 10.3782052,13.1400463 10.3458632,12.9895895 Z" id="Shape"></path>
                                        </g>
                                        <path d="M14.6868592,0.0423843058 L14.9243179,2.24031992 L14.9243179,14.2860322 C14.9243179,14.2860322 15.7137666,13.6476076 16.5043501,13.6476076 C17.2947445,13.6476076 18.0117545,14.2860322 18.0117545,14.2860322 L18.0117545,2.24022535 L18.2491187,0.0422897384 C18.2491187,0.0422897384 14.6868592,0.0422897384 14.6868592,0.0423843058 Z" id="Shape" fill="#D4D8D8"></path>
                                        <path d="M14.9243179,8.64470825 L14.9243179,14.2858431 C14.9243179,14.2858431 15.7137666,13.6474185 16.5043501,13.6474185 L14.9243179,8.64470825 Z" id="Shape" fill="#CACCCC"></path>
                                        <path d="M19.1262314,13.2993159 C18.447994,13.2701891 18.0117545,11.1403421 18.0117545,11.1403421 L18.0117545,14.2859376 C18.5080443,14.9968954 19.4657284,15.7281851 19.4657284,15.7281851 L19.1262314,13.2993159 Z" id="Shape" fill="#D4D8D8"></path>
                                        <path d="M13.8245936,13.2993159 L13.485002,15.7281851 C13.485002,15.7281851 14.4425915,14.9968954 14.9388813,14.2859376 L14.9388813,11.1403421 C14.9388813,11.1403421 14.502831,13.2701891 13.8245936,13.2993159 Z" id="Shape" fill="#CACCCC"></path>
                                    </g>
                                </g>
                            </g>
                            <g id="computer-tablet" transform="translate(20.000000, 8.000000)" fill="#324D5B">
                                <g id="Capa_1">
                                    <path d="M51.0095678,2.19410627 C49.5646445,0.731096224 47.830317,1.98951966e-13 45.8020657,1.98951966e-13 L7.46075598,1.98951966e-13 C5.43298891,1.98951966e-13 3.69720867,0.731096224 2.25309246,2.19410627 C0.809299061,3.65744336 0.0873216578,5.4154428 0.0873216578,7.46990331 L0.0873216578,58.2644936 C0.0873216578,60.3192812 0.809299061,62.0759725 2.25309246,63.5398001 C3.69720867,65.0031372 5.43298891,65.7334158 7.46075598,65.7334158 L45.8019043,65.7334158 C47.8301556,65.7334158 49.5646445,65.0031372 51.0095678,63.5398001 C52.4535226,62.0759725 53.1759842,60.3183001 53.1759842,58.2644936 L53.1759842,7.47006683 C53.1759842,5.4154428 52.4519085,3.6569528 51.0095678,2.19410627 Z M28.7052599,61.859309 C28.1220932,62.4502689 27.4304605,62.7457489 26.6313301,62.7457489 C25.8320384,62.7457489 24.3340119,62.4502689 23.7501996,61.859309 C23.1663874,61.267368 22.8747234,60.5668499 22.8747234,59.7585724 C22.8747234,58.9494773 23.1663874,58.2478146 23.7501996,57.6578359 C24.3346575,57.0658948 25.832684,56.7692702 26.6313301,56.7692702 C27.4302991,56.7692702 28.1219318,57.0657313 28.7052599,57.6578359 C29.2885879,58.2476511 29.5813818,58.9493138 29.5813818,59.7585724 C29.5813818,60.5668499 29.2885879,61.2668774 28.7052599,61.859309 Z M47.276688,52.2881786 C47.276688,52.6933802 47.1298068,53.0424946 46.8392727,53.3391192 C46.5466402,53.6357437 46.201873,53.7824208 45.8019043,53.7824208 L7.46075598,53.7824208 C7.06143291,53.7824208 6.71585866,53.6345991 6.42403323,53.3391192 C6.1322078,53.0436392 5.98629509,52.6933802 5.98629509,52.2881786 L5.98629509,7.47006683 C5.98629509,7.06535577 6.1320464,6.71509674 6.42403323,6.41961679 C6.71602007,6.12380979 7.06143291,5.97615158 7.46075598,5.97615158 L45.8019043,5.97615158 C46.201873,5.97615158 46.5464788,6.12331924 46.8392727,6.41961679 C47.1309367,6.71509674 47.276688,7.06535577 47.276688,7.47006683 L47.276688,52.2881786 Z" id="Shape"></path>
                                </g>
                            </g>
                        </g>
                    </g>
                </g>
            </g>
        </g>
    </g>
</svg>