<?xml version="1.0" encoding="UTF-8" standalone="no"?>
<svg width="117px" height="71px" viewBox="0 0 117 71" version="1.1" xmlns="http://www.w3.org/2000/svg" xmlns:xlink="http://www.w3.org/1999/xlink">
    <!-- Generator: Sketch 42 (36781) - http://www.bohemiancoding.com/sketch -->
    <title>wearables_for_fitness_tracking</title>
    <desc>Created with Sketch.</desc>
    <defs>
        <filter x="-50%" y="-50%" width="200%" height="200%" filterUnits="objectBoundingBox" id="filter-1">
            <feGaussianBlur stdDeviation="10 0" in="SourceGraphic"></feGaussianBlur>
        </filter>
    </defs>
    <g id="Page-1" stroke="none" stroke-width="1" fill="none" fill-rule="evenodd">
        <g id="Large-Device-Desktops" transform="translate(-1031.000000, -1004.000000)">
            <g id="iot_solutions_healthcare" transform="translate(84.000000, 635.000000)">
                <g id="Group-15" transform="translate(37.000000, 363.000000)">
                    <g id="Group-13" transform="translate(344.000000, 0.000000)">
                        <g id="wearables_for_fitness_tracking" transform="translate(593.000000, 6.000000)">
                            <ellipse id="Oval-4" fill="#000000" opacity="0.1" filter="url(#filter-1)" cx="31.5" cy="69.5" rx="31.5" ry="1.5"></ellipse>
                            <g id="Layer_1">
                                <path d="M14.61,69.1462429 L35.9679229,69.1462429 C38.0029043,69.1462429 40.0323457,69.2278305 42.06,69.3468125 L42.06,3.00585742 C40.0323457,3.1239448 38.0020107,3.20553245 35.9679229,3.20553245 L14.61,3.20553245 L14.61,69.1462429 L14.61,69.1462429 Z" id="Shape" fill="#324D5B"></path>
                                <path d="M14.61,59.0999245 L14.61,61.9475178 C17.9570771,63.5274549 21.672835,64.4155556 25.59,64.4155556 C31.8146807,64.4155556 37.5343242,62.18752 42.06,58.4660964 L42.06,57.9451341 C37.8629736,60.8316467 32.8322607,62.5177778 27.42,62.5177778 C22.7736943,62.5177778 18.4081436,61.275697 14.61,59.0999245 Z" id="Shape" fill="#2B424E"></path>
                                <path d="M53.04,30.2555556 L55.785,30.2555556 C56.2909307,30.2555556 56.7,30.6807023 56.7,31.2044444 L56.7,38.7955556 C56.7,39.3202244 56.2909307,39.7444444 55.785,39.7444444 L53.04,39.7444444 L53.04,30.2555556 Z" id="Shape" fill="#D9D9D9"></path>
                                <path d="M27.42,7.48222222 C42.0755479,7.48222222 53.955,19.8025807 53.955,35 C53.955,50.1983459 42.0755479,62.5177778 27.42,62.5177778 C12.7644521,62.5177778 0.885,50.1983459 0.885,35 C0.885,19.8025807 12.7644521,7.48222222 27.42,7.48222222 Z" id="Shape" fill="#DADFE1"></path>
                                <path d="M27.42,11.2777778 C40.0534336,11.2777778 50.295,21.8986615 50.295,35 C50.295,48.1013385 40.0534336,58.7222222 27.42,58.7222222 C14.7865664,58.7222222 4.545,48.1013385 4.545,35 C4.545,21.8986615 14.7865664,11.2777778 27.42,11.2777778 Z" id="Shape" fill="#324D5B"></path>
                                <path d="M43.129585,17.7652496 C39.0304922,13.7467422 33.50475,11.2777778 27.42,11.2777778 C14.7865664,11.2777778 4.545,21.8986615 4.545,35 C4.545,41.3101111 6.92578711,47.0405104 10.8007764,51.2914214 L43.129585,17.7652496 Z" id="Shape" fill="#425B68"></path>
                                <path d="M23.6236436,18.722849 C24.9814893,17.3981111 26.3284336,17.9770816 27.4071328,18.9220786 C28.485832,17.9768963 29.821875,17.3877326 31.1906221,18.722849 C32.2575264,19.7638468 32.26396,21.4347808 31.1906221,22.4700334 C29.3908242,24.0490438 28.4502686,24.8726497 27.9588135,25.3024297 C27.6505371,25.5718993 27.1846377,25.572826 26.8754678,25.304283 C26.3804385,24.8754297 25.4334492,24.0507118 23.6236436,22.4700334 C22.5503057,21.4347808 22.5558457,19.7627348 23.6236436,18.722849 L23.6236436,18.722849 Z" id="Shape" fill="#B4615E"></path>
                                <path d="M22.845,29.3066667 L31.995,29.3066667 C32.5009307,29.3066667 32.91,29.7318134 32.91,30.2555556 L32.91,32.1533333 C32.91,32.6780022 32.5009307,33.1022222 31.995,33.1022222 L22.845,33.1022222 C22.3390693,33.1022222 21.93,32.6780022 21.93,32.1533333 L21.93,30.2555556 C21.93,29.7318134 22.3390693,29.3066667 22.845,29.3066667 Z" id="Shape" fill="#5B717C"></path>
                                <path d="M31.995,29.3066667 L22.845,29.3066667 C22.3390693,29.3066667 21.93,29.7318134 21.93,30.2555556 L21.93,32.1533333 C21.93,32.6780022 22.3390693,33.1022222 22.845,33.1022222 L28.34054,33.1022222 L31.9996465,29.3075933 L31.995,29.3066667 Z" id="Shape" fill="#687C86"></path>
                                <path d="M47.4904893,46.3866667 C47.8153857,45.7708155 48.1136543,45.1369874 48.3861885,44.4888889 L34.4919492,44.4888889 L32.91,39.1751111 L31.6902979,39.1751111 L29.227125,48.8319089 L26.2002979,37.8466667 L24.9797021,37.8466667 L22.4487979,47.7673741 L21.3197021,44.4888889 L6.45363281,44.4888889 C6.7263457,45.1369874 7.0237207,45.7708155 7.34933203,46.3866667 L20.7156592,46.3866667 L21.9298213,49.8026667 L23.1495234,49.8026667 L25.6126963,40.176263 L28.6111084,51.1311111 L29.8885342,51.1311111 L32.3810156,41.5929245 L33.8248213,46.349786 L33.8248213,46.386852 L47.4904893,46.386852 L47.4904893,46.3866667 Z" id="Shape" fill="#38807D"></path>
                                <path d="M15.53054,46.3866667 L17.36054,44.4888889 L6.45917285,44.4888889 L6.4975957,44.5809978 C6.73545996,45.139026 6.99351855,45.6835252 7.27069922,46.2187578 L7.36041211,46.3875933 L15.5303613,46.3875933 L15.5303613,46.3866667 L15.53054,46.3866667 Z" id="Shape" fill="#488A87"></path>
                                <path d="M14.61,0.84 L14.61,5.38039627 L35.9679229,5.38039627 C38.0029043,5.38039627 40.0323457,5.29588585 42.06,5.17171484 L42.06,0.631318576 C41.1312393,0.688214844 40.2035508,0.735659288 39.2738965,0.766053385 C38.5281357,0.794594184 37.7805879,0.805899306 37.0339336,0.816277778 L35.9679229,0.84 L14.61,0.84 L14.61,0.84 Z" id="Shape" fill="#516873"></path>
                                <path d="M27.42,11.2777778 C20.8704229,11.2777778 14.9686729,14.1368615 10.7980957,18.7113585 C14.8962949,14.6947044 20.4211436,12.2266667 26.505,12.2266667 C39.1384336,12.2266667 49.38,22.8475503 49.38,35.9488889 C49.38,42.2571467 47.0001064,47.9884727 43.1269043,52.2375304 C47.5382051,47.9124874 50.295,41.7921541 50.295,35 C50.295,21.8986615 40.0534336,11.2777778 27.42,11.2777778 Z" id="Shape" fill="#2B424D"></path>
                                <path d="M25.8636064,11.338566 C25.5864258,11.3585816 25.3081729,11.3774852 25.0327793,11.4069527 L24.6330029,11.4601424 C24.3749443,11.4923898 24.1168857,11.5237105 23.8616865,11.5654097 L23.4672715,11.6384297 L22.70775,11.7844696 L22.33621,11.8736133 C22.0799385,11.9334748 21.8238457,11.9940777 21.5713271,12.0633911 L21.2337422,12.1630985 C20.9721094,12.2390838 20.7122637,12.316737 20.4542051,12.4012474 L20.1541494,12.5065148 C19.8869766,12.5995503 19.6215908,12.6944392 19.3590645,12.7969266 L19.0983252,12.9031207 C18.8256123,13.0141332 18.5548652,13.1269991 18.2876924,13.2485755 L18.0635889,13.3529162 C17.7864082,13.4819058 17.5110146,13.6147873 17.2409824,13.7552674 L17.0553018,13.8538628 C16.7734746,14.0028681 16.4954004,14.1565065 16.2198281,14.3170022 L16.0734639,14.4042925 C15.7889561,14.573128 15.5071289,14.7477088 15.2297695,14.929888 L15.1171816,15.0047613 C14.830708,15.1954657 14.5470937,15.3909887 14.2690195,15.5950369 L14.1921738,15.6519332 C13.9048066,15.8645065 13.6211924,16.0817131 13.3449053,16.3067036 L13.2945088,16.3474761 C13.0091074,16.5809918 12.7299609,16.8200673 12.4554609,17.0658147 L12.4299053,17.0895369 C12.1489717,17.3428828 11.8744717,17.6029006 11.6055117,17.8695903 L11.5981846,17.8771888 C11.3254717,18.1485117 11.0591924,18.4265065 10.7993467,18.7111732 C14.8966523,14.6945191 20.421501,12.2264813 26.5053574,12.2264813 C32.5901074,12.2264813 38.1158496,14.6954457 42.2149424,18.7139531 L43.1299424,17.7650642 L43.1252959,17.7613576 C42.8745645,17.5146836 42.6173994,17.2744961 42.3557666,17.0402391 L42.3355723,17.0213355 C42.0775137,16.7917118 41.8158809,16.5678333 41.548708,16.3495148 L41.5076045,16.3163407 C41.2459717,16.1028407 40.9796924,15.8969392 40.707873,15.6958563 L40.6474687,15.6502652 C40.3829766,15.4556688 40.1149102,15.267003 39.8432695,15.0837118 L39.747123,15.0201437 C39.4845967,14.8455629 39.2174238,14.6756155 38.9473916,14.5115985 L38.8147881,14.4328333 C38.5549424,14.2771562 38.2913437,14.1262977 38.0241709,13.9802578 L37.8493916,13.8872222 C37.5931201,13.7506341 37.3352402,13.6177526 37.0716416,13.4906163 L36.853793,13.3890556 C36.6030615,13.2704444 36.3487559,13.1546133 36.0933779,13.046566 L35.8270986,12.9374067 C35.5828008,12.8376992 35.3376094,12.7391037 35.088665,12.6469948 L34.7693086,12.5341289 L34.05929,12.2950534 L33.6813164,12.1831141 L33.0079336,11.9924097 L32.5633008,11.8862157 L31.931915,11.7401758 L31.4213379,11.6452869 L30.8321279,11.5400195 L30.2411309,11.462181 L29.7141123,11.3958329 L28.9994473,11.3389366 L28.5757236,11.3066892 C28.1923887,11.2887122 27.8070879,11.2781484 27.42,11.2781484 C27.0173643,11.2781484 26.6175879,11.2894536 26.2195986,11.3113225 L25.8636064,11.338566 L25.8636064,11.338566 Z" id="Shape" fill="#384D59"></path>
                            </g>
                        </g>
                    </g>
                </g>
            </g>
        </g>
    </g>
</svg>