<?xml version="1.0" encoding="iso-8859-1"?>
<!-- Generator: Adobe Illustrator 18.1.1, SVG Export Plug-In . SVG Version: 6.00 Build 0)  -->
<svg xmlns="http://www.w3.org/2000/svg" xmlns:xlink="http://www.w3.org/1999/xlink" version="1.1" id="Capa_1" x="0px" y="0px" viewBox="0 0 576.504 576.504" style="enable-background:new 0 0 576.504 576.504;" xml:space="preserve" width="512px" height="512px">
<g>
	<g>
		<path d="M209.916,171.36c9.384,0,18.156,1.836,26.316,5.508s15.3,8.568,21.42,14.688    c6.12,6.12,11.016,13.26,14.688,21.42s5.508,16.932,5.508,26.316s-1.836,18.156-5.508,26.316s-8.568,15.3-14.688,21.42    c-6.12,6.122-13.26,11.016-21.42,14.688s-16.932,5.508-26.316,5.508s-18.156-1.836-26.316-5.508    c-8.16-3.672-15.3-8.566-21.42-14.688c-6.12-6.12-11.016-13.26-14.688-21.42s-5.508-16.932-5.508-26.316    s1.836-18.156,5.508-26.316s8.568-15.3,14.688-21.42c6.12-6.12,13.26-11.016,21.42-14.688    C191.759,173.196,200.531,171.36,209.916,171.36z M370.872,171.36c9.384,0,18.156,1.836,26.313,5.508    c8.16,3.672,15.303,8.568,21.423,14.688c6.117,6.12,11.016,13.26,14.688,21.42s5.508,16.932,5.508,26.316    s-1.836,18.156-5.508,26.316s-8.568,15.3-14.688,21.42c-6.12,6.122-13.263,11.016-21.423,14.688    c-8.157,3.672-16.932,5.508-26.313,5.508s-18.156-1.836-26.316-5.508s-15.3-8.566-21.42-14.688    c-6.12-6.12-11.016-13.26-14.688-21.42s-5.511-16.932-5.511-26.316s1.839-18.156,5.511-26.316s8.565-15.3,14.688-21.42    c6.12-6.12,13.26-11.016,21.42-14.688C352.716,173.196,361.488,171.36,370.872,171.36z M390.456,388.008    c-8.16,7.752-17.034,14.382-26.622,19.893c-9.588,5.508-20.91,8.262-33.966,8.262c-12.24,0-22.646-1.227-31.212-3.672    c-2.448-0.408-4.896-1.021-7.347-1.836c-2.04-0.816-4.284-1.53-6.729-2.145c-2.448-0.609-4.692-1.326-6.732-2.142v121.176    c0,8.16-1.938,15.198-5.814,21.114s-8.67,11.016-14.382,15.3c-5.712,4.284-11.934,7.446-18.666,9.486s-12.954,3.06-18.666,3.06    s-12.75-1.02-21.114-3.06s-16.83-5.61-25.398-10.71c-8.568-5.103-16.932-12.141-25.092-21.114    c-8.16-8.979-15.096-20.4-20.808-34.272c-4.08-11.424-6.936-23.867-8.568-37.332c-1.224-11.832-1.428-25.602-0.612-41.31    s4.284-32.946,10.404-51.714c-9.384-4.08-18.564-8.466-27.54-13.158s-16.932-9.078-23.868-13.158    c-8.16-4.487-15.912-9.18-23.256-14.076c-2.856-1.632-5.406-3.264-7.65-4.896c-2.244-1.632-4.386-3.266-6.426-4.896    c-1.632-1.224-3.06-2.346-4.284-3.363c-1.224-1.021-2.448-2.145-3.672-3.366c-10.2-8.568-17.136-16.016-20.808-22.338    c-3.672-6.324-5.712-10.099-6.12-11.322c-0.816-1.632-1.53-3.57-2.142-5.814s0.102-4.182,2.142-5.814    c3.672-2.856,9.588-2.856,17.748,0c2.04,0.816,4.284,2.04,6.732,3.672c2.856,2.04,6.528,4.59,11.016,7.65    s10.812,6.834,18.972,11.322c2.856,1.227,5.814,2.652,8.874,4.284s6.222,3.468,9.486,5.508c2.04,0.816,3.876,1.633,5.508,2.448    c1.632,0.816,3.468,1.632,5.508,2.448c6.528,3.264,13.464,6.12,20.808,8.566c6.12,2.04,13.056,4.184,20.808,6.428    c7.752,2.244,15.504,3.978,23.256,5.201H263.16c2.04,0,4.284,1.021,6.732,3.061s5.202,4.59,8.262,7.65s6.222,6.426,9.486,10.098    s6.936,6.937,11.016,9.792l6.12,3.672c0,0,2.241,1.021,6.729,3.063c16.729,5.712,30.498,6.834,41.313,3.363    c10.812-3.468,18.666-8.67,23.562-15.604c5.712-8.16,10.506-14.178,14.382-18.056c3.876-3.876,8.874-4.591,14.994-2.143    c3.264,1.225,4.998,3.774,5.202,7.65s-0.612,8.361-2.448,13.464c-1.836,5.1-4.386,10.302-7.647,15.604    C397.595,379.236,394.128,383.928,390.456,388.008z M570.996,272.952c2.04,1.632,2.754,3.57,2.142,5.814    c-0.609,2.244-1.325,4.182-2.142,5.814c0,0.816-0.714,2.856-2.145,6.12c-1.428,3.264-3.978,7.242-7.647,11.934    c-3.672,4.692-8.67,9.896-14.994,15.606s-14.382,11.22-24.174,16.521c-7.752,4.896-15.708,9.589-23.868,14.076    c-6.936,4.08-14.79,8.466-23.563,13.158c-8.771,4.69-17.85,9.078-27.231,13.158c5.712,18.768,9.078,36.006,10.098,51.714    c1.021,15.708,0.918,29.478-0.306,41.31c-1.632,13.464-4.488,25.908-8.568,37.332c-5.712,14.28-12.646,25.809-20.808,34.578    c-8.16,8.771-16.524,15.813-25.092,21.114c-8.568,5.304-17.034,8.874-25.398,10.71s-15.402,2.754-21.114,2.754    s-11.934-1.021-18.666-3.061c-6.729-2.039-12.954-5.201-18.666-9.485s-10.506-9.384-14.382-15.3s-5.812-12.954-5.812-21.114    v-113.22c4.485,0.813,9.384,1.632,14.688,2.445c5.307,0.816,10.813,1.227,16.524,1.227c13.056,0,24.378-2.754,33.966-8.263    c9.588-5.51,18.462-12.14,26.622-19.892c3.672-4.08,7.14-8.771,10.404-14.076c3.264-5.304,5.812-10.506,7.647-15.604    c1.836-5.102,2.652-9.588,2.448-13.464s-1.938-6.428-5.202-7.65c-6.12-2.448-11.118-1.733-14.994,2.143    c-3.876,3.878-8.67,9.896-14.382,18.056c-4.896,6.936-12.75,12.138-23.562,15.604c-10.813,3.471-24.582,2.349-41.313-3.363    c-2.448-0.816-4.691-1.838-6.729-3.063l-6.12-3.672v-13.462c0-2.856,0.406-5.916,1.224-9.182c0.408-1.633,0.816-2.854,1.224-3.673    c2.04-2.04,4.284-3.468,6.732-4.281c2.448-0.816,4.284-1.227,5.508-1.227h108.937c8.159-1.632,16.317-3.771,24.479-6.426    s15.708-5.202,22.646-7.65c7.752-2.854,15.3-5.916,22.644-9.18c0.816-0.408,1.734-0.816,2.754-1.224    c1.021-0.408,2.145-0.816,3.366-1.227c3.264-2.04,6.222-3.672,8.874-4.896c2.652-1.227,5.202-2.652,7.65-4.284    c8.159-4.488,14.481-8.16,18.972-11.016s8.364-5.304,11.628-7.344c1.632-1.224,3.061-2.142,4.284-2.754    c1.224-0.612,2.447-1.326,3.672-2.142C561.408,270.096,567.324,270.096,570.996,272.952z M59.976,297.432    c-8.16-4.485-14.484-8.262-18.972-11.322s-8.16-5.61-11.016-7.65V15.3c0-4.488,1.428-8.16,4.284-11.016    C37.128,1.428,40.596,0,44.676,0h485.316c4.485,0,8.16,1.428,11.016,4.284c2.856,2.856,4.284,6.528,4.284,11.016v262.548    c-3.264,2.04-7.14,4.488-11.628,7.344s-10.813,6.528-18.972,11.016V30.6H59.976V297.432z M40.392,326.808    c-3.264-1.224-5.916-3.468-7.956-6.729c1.224,1.224,2.448,2.346,3.672,3.366C37.332,324.462,38.759,325.584,40.392,326.808z     M154.224,332.316c-7.752-1.227-15.504-2.958-23.256-5.202s-14.688-4.389-20.808-6.429c-7.344-2.445-14.28-5.304-20.808-8.565    l402.696-4.284c-7.344,3.264-14.892,6.324-22.644,9.18c-6.938,2.448-14.484,4.998-22.646,7.65s-16.318,4.794-24.479,6.426H313.343    c-1.224,0-3.06,0.408-5.508,1.227c-2.448,0.813-4.692,2.241-6.732,4.281c-0.405,0.816-0.813,2.04-1.224,3.672    c-0.813,3.267-1.224,6.324-1.224,9.183v13.464c-4.08-2.856-7.752-6.12-11.016-9.792s-6.426-7.038-9.486-10.098    c-3.06-3.063-5.814-5.61-8.262-7.65s-4.692-3.06-6.732-3.06L154.224,332.316L154.224,332.316z" fill="#FFFFFF"/>
	</g>
</g>
<g>
</g>
<g>
</g>
<g>
</g>
<g>
</g>
<g>
</g>
<g>
</g>
<g>
</g>
<g>
</g>
<g>
</g>
<g>
</g>
<g>
</g>
<g>
</g>
<g>
</g>
<g>
</g>
<g>
</g>
</svg>
