<?xml version="1.0" encoding="UTF-8" standalone="no"?>
<svg width="81px" height="30px" viewBox="0 0 81 30" version="1.1" xmlns="http://www.w3.org/2000/svg" xmlns:xlink="http://www.w3.org/1999/xlink">
    <!-- Generator: Sketch 44.1 (41455) - http://www.bohemiancoding.com/sketch -->
    <title>Group 2</title>
    <desc>Created with Sketch.</desc>
    <defs></defs>
    <g id="Page-1" stroke="none" stroke-width="1" fill="none" fill-rule="evenodd">
        <g id="z" transform="translate(-35.000000, -202.000000)">
            <g id="Group-2" transform="translate(35.000000, 202.000000)">
                <path d="M15.3809085,22.3118871 C15.3689342,22.3618547 16.8578054,22.3818364 19.8475221,22.3718322 C18.1007063,29.0926798 12.5487559,29.5034102 10.2310342,29.5034102 C6.56241204,29.5034102 3.84740745,28.304835 2.08593902,25.9076486 C0.695306054,23.9872507 0,21.5636125 0,18.6366612 C0,15.1402126 0.913830814,12.4020311 2.74151986,10.4220346 C4.5692089,8.44203818 7.43699255,7.43574346 10.2310342,7.49154538 C18.7925942,7.66253475 20.2249781,15.3706774 20.1455134,19.6485293 L4.62435788,19.7680223 C4.62435788,22.7868151 6.19656107,25.8637414 10.366524,25.8637414 C11.2406361,25.8637414 14.470762,26.1098459 15.3809085,22.3118871 Z M15.3845248,16.7752568 C15.3432147,15.0953112 14.7535852,11.5032106 10.4101027,11.1938142 C6.06662029,10.8844178 4.72306643,15.1917016 4.73683647,16.7752568 L15.3845248,16.7752568 Z M21.7174658,7.88171283 L26.1447707,7.88171283 L26.1447707,10.9476156 C27.9640659,8.73566673 29.7317839,7.51107921 32.2414384,7.42117937 C36.5331229,7.26744435 38.0214759,9.75012727 38.6497217,10.8626459 C39.5659136,9.75012727 41.3938356,7.25171233 45.3327804,7.42117937 C50.0076283,7.6223075 51.2906785,9.65850808 51.8142167,10.8626459 C52.1937819,11.7526608 52.3835616,13.1923692 52.3835616,15.1818143 L52.3835616,29.169873 L47.5243398,29.169873 L47.5243398,16.5953604 C47.5243398,14.5273845 47.3155501,11.2846211 43.9564426,11.1938142 C40.5973352,11.1030073 40.0440246,13.0978438 39.7429902,14.0074914 C39.4419557,14.917139 39.3999844,16.5364528 39.3999844,18.499721 L39.3999844,29.169873 L34.5407626,29.169873 L34.5407626,17.086175 C34.5407626,15.0574645 34.5407626,11.6536815 31.3341182,11.1938142 C28.1274737,10.7339469 27.0546037,13.0610336 26.7601134,13.9248716 C26.4656232,14.7887096 26.3575095,16.3793919 26.3575095,18.3819255 L26.3575095,29.169873 L21.7174658,29.169873 L21.7174658,7.88171283 Z M60.0354595,22.1041831 L64.9863014,22.1041831 C65.0598602,25.6590325 68.3510763,25.8670091 69.6197525,25.8670091 C71.0165779,25.8670091 74.2223887,25.5978881 74.2223887,23.4051084 C74.2223887,21.2123288 72.3966044,21.016222 71.4611159,20.7914526 C67.1040459,19.7998231 64.1830593,19.0805096 63.0169023,18.2607625 C61.4022235,17.123694 60.585285,15.9403711 60.585285,13.9174469 C60.585285,12.0928486 61.2836872,10.5591513 62.6805126,9.31630897 C64.077338,8.07346664 66.2430255,7.45205479 69.1776403,7.45205479 C71.971291,7.45205479 74.0472756,7.92141906 75.4056562,8.86016167 C76.7640368,9.79890428 78.2825342,11.750107 78.650464,14.1208752 L73.337384,13.9967769 C73.1222259,13.187172 72.9351577,11.345284 69.3212859,11.194719 C67.8562531,11.1938142 65.5948559,11.0593607 65.347246,13.1666667 C65.0996361,15.2739726 68.9073703,15.6807148 71.7843179,16.3550228 C74.6612656,17.0293309 76.2070221,17.7147108 77.3475492,18.6931186 C78.4752615,19.6847481 78.9041096,20.6340418 78.9041096,22.4057532 C78.9041096,24.3361253 78.1224117,25.9954271 76.5589925,27.3837085 C74.9955733,28.7719898 72.6825164,29.46612 69.6197525,29.46612 C66.8389167,29.46612 64.6379887,28.8843728 63.0169023,27.7208608 C61.395816,26.5573488 60.4380708,25.8670091 60.0354595,22.1041831 Z" id="emis" fill="#0284C8"></path>
                <path d="M54.0652825,4.27440068 L54.0652825,0 L58.7734375,0 L58.7734375,4.27440068 L54.0652825,4.27440068 Z M54.0652825,29.1842894 L54.0652825,7.90625 L58.7734375,7.90625 L58.7734375,29.1842894 L54.0652825,29.1842894 Z" id="emis" fill="#5CCFEB"></path>
                <g id="Group" transform="translate(75.712329, 4.260274)" fill="#0284C8">
                    <path d="M2,3.43164062 L2,2 L2.63476562,2 C2.76237043,2 2.85937467,2.01285794 2.92578125,2.03857422 C2.99218783,2.06429049 3.0452472,2.1097002 3.08496094,2.17480469 C3.12467468,2.23990918 3.14453125,2.31184856 3.14453125,2.390625 C3.14453125,2.49218801 3.11165397,2.57779913 3.04589844,2.64746094 C2.9801429,2.71712274 2.87858142,2.76139313 2.74121094,2.78027344 C2.7913414,2.8043621 2.82942695,2.82812488 2.85546875,2.8515625 C2.91080757,2.902344 2.9632159,2.96581993 3.01269531,3.04199219 L3.26171875,3.43164062 L3.0234375,3.43164062 L2.83398438,3.13378906 C2.77864556,3.04785113 2.7330731,2.98209658 2.69726562,2.93652344 C2.66145815,2.89095029 2.62939467,2.85904957 2.60107422,2.84082031 C2.57275376,2.82259105 2.54394546,2.80989587 2.51464844,2.80273438 C2.49316396,2.79817706 2.45800806,2.79589844 2.40917969,2.79589844 L2.18945312,2.79589844 L2.18945312,3.43164062 L2,3.43164062 Z M2.18945312,2.63183594 L2.59667969,2.63183594 C2.68326866,2.63183594 2.75097632,2.6228842 2.79980469,2.60498047 C2.84863306,2.58707673 2.88574206,2.55843119 2.91113281,2.51904297 C2.93652356,2.47965475 2.94921875,2.43684919 2.94921875,2.390625 C2.94921875,2.32291633 2.92464217,2.26725282 2.87548828,2.22363281 C2.82633439,2.1800128 2.74869845,2.15820312 2.64257812,2.15820312 L2.18945312,2.15820312 L2.18945312,2.63183594 Z" id="R" stroke="#0284C8" stroke-width="0.1"></path>
                    <path d="M2.64383562,4.43767123 C1.65312756,4.43767123 0.85,3.63454367 0.85,2.64383562 C0.85,1.65312756 1.65312756,0.85 2.64383562,0.85 C3.63454367,0.85 4.43767123,1.65312756 4.43767123,2.64383562 C4.43767123,3.63454367 3.63454367,4.43767123 2.64383562,4.43767123 Z M2.64383562,4.13767123 C3.46885825,4.13767123 4.13767123,3.46885825 4.13767123,2.64383562 C4.13767123,1.81881299 3.46885825,1.15 2.64383562,1.15 C1.81881299,1.15 1.15,1.81881299 1.15,2.64383562 C1.15,3.46885825 1.81881299,4.13767123 2.64383562,4.13767123 Z" id="Oval-2" fill-rule="nonzero"></path>
                </g>
            </g>
        </g>
    </g>
</svg>