<?xml version="1.0" encoding="UTF-8" standalone="no"?>
<svg width="153px" height="76px" viewBox="0 0 153 76" version="1.1" xmlns="http://www.w3.org/2000/svg" xmlns:xlink="http://www.w3.org/1999/xlink">
    <!-- Generator: Sketch 45.2 (43514) - http://www.bohemiancoding.com/sketch -->
    <title>gs-logo-01</title>
    <desc>Created with Sketch.</desc>
    <defs>
        <path d="M110.875135,46.3419444 L110.875135,0.508135356 L120.224825,0.508135356 L120.224825,40.8540826 L126.119195,40.8540826 L132.21682,0.508135356 L144.039435,0.508135356 L151.051703,46.3080687 L141.80364,46.3080687 L140.245358,34.8919611 L136.078648,34.8919611 L134.520366,46.3080687 L110.875135,46.3080687 L110.875135,46.3419444 Z M139.466217,28.997591 L138.145065,13.0421408 L136.857789,28.997591 L139.466217,28.997591 Z M20.7657982,46.3419444 L16.2942071,46.3419444 L15.0746822,44.0045218 C13.0082651,45.8338091 10.8402209,46.7484527 8.53667397,46.7484527 C6.30087841,46.7484527 4.33608837,46.172566 2.67617954,45.0207925 C1.01627071,43.869019 0.169378452,42.0058561 0.169378452,39.4651793 L0.169378452,8.40117121 C0.169378452,2.87943368 3.69245025,0.135502762 10.7385938,0.135502762 C17.4121049,0.135502762 20.7657982,2.64230385 20.7657982,7.65590602 L20.7657982,16.0909529 L12.2968756,16.0909529 L12.2968756,6.94451653 C12.2968756,6.26700272 11.8226159,5.89437013 10.9079723,5.89437013 C9.99332866,5.89437013 9.519069,6.23312703 9.519069,6.94451653 L9.519069,39.7361848 C9.519069,40.4136986 9.99332866,40.7863312 10.9079723,40.7863312 C11.8226159,40.7863312 12.2968756,40.4475743 12.2968756,39.7361848 L12.2968756,29.0653423 L10.3659613,29.0653423 L10.3659613,22.5273341 L20.7657982,22.5273341 L20.7657982,46.3419444 Z M85.4683668,46.3419444 L76.1186763,46.3419444 L76.1186763,0.508135356 L85.4683668,0.508135356 L85.4683668,46.3419444 Z M107.182684,46.3419444 L89.6350767,46.3419444 L89.6350767,0.508135356 L98.9847673,0.508135356 L98.9847673,40.8540826 L107.182684,40.8540826 L107.182684,46.3419444 Z M37.0600053,39.499055 L37.0600053,7.24939774 C37.0600053,6.40250548 36.5518699,5.96212151 35.5355992,5.96212151 C34.4854528,5.96212151 33.9773174,6.40250548 33.9773174,7.24939774 L33.9773174,39.499055 C33.9773174,40.3459472 34.4854528,40.7863312 35.5355992,40.7863312 C36.5518699,40.7863312 37.0600053,40.3459472 37.0600053,39.499055 L37.0600053,39.499055 Z M24.8647567,39.058671 L24.8647567,8.40117121 C24.8647567,2.87943368 28.4555799,0.135502762 35.6033506,0.135502762 C42.6494942,0.135502762 46.2064417,2.87943368 46.2064417,8.36729552 L46.2064417,39.0247953 C46.2064417,41.4977207 45.2240467,43.3947594 43.2253809,44.749787 C41.2605909,46.0709389 38.7199141,46.7484527 35.5355992,46.7484527 C28.4217042,46.714577 24.8647567,44.1739002 24.8647567,39.058671 L24.8647567,39.058671 Z M62.7039029,18.4961269 L62.7039029,8.23179276 C62.7039029,6.74126238 61.7215079,5.9959972 59.7905935,5.9959972 L59.7905935,20.7319225 C61.7215079,20.7657982 62.7039029,20.020533 62.7039029,18.4961269 L62.7039029,18.4961269 Z M73.408621,46.3758201 L64.0589305,46.3758201 C63.0426598,45.1562953 62.5345244,41.7348505 62.5345244,36.1114859 L62.6022758,33.5030578 L62.7039029,28.0829473 C62.7039029,26.6262926 61.7215079,25.9149031 59.7905935,25.9149031 L59.7905935,46.3419444 L50.440903,46.3419444 L50.440903,0.508135356 L61.9925134,0.508135356 C64.6348172,0.508135356 66.9044885,1.11789778 68.8354028,2.30354695 C70.8001929,3.5230718 71.7825879,5.42011046 71.7825879,8.02853862 L71.7825879,16.3958341 C71.7825879,19.6817761 69.8516736,21.9514474 65.9898449,23.1032208 C69.8516736,24.0178645 71.8164636,26.3552871 71.8164636,30.1493644 L71.6809608,34.8242097 C71.6470851,41.6332235 72.2229719,45.4950522 73.408621,46.3758201 L73.408621,46.3758201 Z" id="path-1"></path>
    </defs>
    <g id="Page-1" stroke="none" stroke-width="1" fill="none" fill-rule="evenodd">
        <g id="gs-logo-01">
            <g id="Group-2">
                <g id="SVGID_1_-link" transform="translate(0.677514, 0.686298)">
                    <mask id="mask-2" fill="white">
                        <use xlink:href="#path-1"></use>
                    </mask>
                    <use id="SVGID_1_" fill="#111820" fill-rule="nonzero" xlink:href="#path-1"></use>
                    <g id="Group" mask="url(#mask-2)">
                        <g transform="translate(24.390497, -63.686298)">
                            <path d="M48.6116157,0.101627071 L48.6116157,0.101627071 C46.2741931,0.101627071 43.1237538,0.271005523 39.8378119,1.28727623 C34.9935882,2.77780661 31.0640081,4.16670992 24.9325081,8.60442536 C21.5788148,11.0434751 16.632964,16.9039695 15.1424336,25.5083949 C17.615359,19.7834032 18.9026352,18.6655054 19.9527816,18.4283756 C19.7156518,23.306475 15.4811905,26.0165302 14.8036767,31.3011379 C16.7007154,29.5057263 18.4622513,30.3526186 15.4811905,34.0450688 C11.2467292,37.8052705 3.55694749,48.0018533 5.38623477,58.8420742 C5.38623477,51.3555466 9.04480933,47.8324748 11.0773508,47.2565881 C7.01226791,53.8623477 7.01226791,59.2824582 8.16404138,61.2133725 C8.50279828,57.216041 10.1627071,55.9626405 11.483859,55.5222565 C8.57054967,58.7404471 9.45131761,61.9925134 10.0949557,63.9234277 C6.02987289,63.3814167 1.28727623,69.1064084 0.237129833,78.2528448 C1.89703866,75.712168 4.20058561,74.2555133 5.55561322,74.6281459 C1.59215745,79.8450022 0.813016569,86.0103779 1.89703866,90.6852231 C2.40517402,85.7393723 3.21819059,84.4859718 4.36996406,84.1472149 C5.52173753,86.213632 5.35235908,89.0930657 4.20058561,92.0741264 C3.28594197,94.4115491 0.0677513808,103.28698 1.55828176,110.129869 C2.03254142,105.353397 3.04881213,102.473963 4.40383975,101.627071 C3.01493644,107.724695 3.5230718,115.245099 4.64096958,118.429414 C4.87809941,114.770839 5.75886736,113.483563 6.673511,112.839925 C7.55427895,123.985027 11.9919944,131.640933 18.2589971,136.586784 C16.9378452,133.605723 16.4297098,131.336052 17.1072236,130.048775 C20.020533,130.895668 20.4270413,138.009563 23.848486,141.363256 C23.2387236,137.230422 24.3904971,134.994626 25.6100219,135.638264 C27.2699308,136.485157 28.3878285,140.685742 29.0314667,142.819911 C28.6927097,139.940477 30.7591269,139.093585 32.3512843,139.466217 C35.7388533,140.279234 38.4489086,142.853786 39.5329307,145.462214 C39.7700605,144.412068 39.9733146,143.599052 39.5329307,142.955413 C42.9204997,142.955413 47.2904638,145.49609 48.57774,146.918869 C48.57774,146.918869 48.57774,146.884993 48.6116157,146.884993 C48.6116157,146.884993 48.6454914,146.918869 48.6454914,146.918869 C49.8988919,145.49609 54.268856,142.955413 57.6903007,142.955413 C57.2499167,143.599052 57.4531709,144.378192 57.6903007,145.462214 C58.8081985,142.853786 61.5182537,140.245358 64.8719471,139.466217 C66.4641045,139.093585 68.4966459,139.940477 68.1917647,142.819911 C68.8354028,140.685742 69.9533006,136.519032 71.6132095,135.638264 C72.8327343,134.994626 73.9845078,137.230422 73.3747454,141.363256 C76.7961901,138.009563 77.2026984,130.895668 80.1160077,130.048775 C80.7935215,131.336052 80.2853862,133.605723 78.9642343,136.586784 C85.2651127,131.640933 89.6689524,123.985027 90.5497204,112.839925 C91.4982397,113.483563 92.3790077,114.736963 92.5822618,118.429414 C93.7001596,115.245099 94.1744192,107.758571 92.8193916,101.627071 C94.2082949,102.473963 95.19069,105.353397 95.6988253,110.129869 C97.1893557,103.28698 93.9711651,94.4115491 93.0565215,92.0741264 C91.904748,89.0930657 91.7353695,86.2475077 92.887143,84.1472149 C94.0389165,84.4520961 94.8858087,85.7393723 95.3600684,90.6852231 C96.4779662,86.0103779 95.6988253,79.8450022 91.7014938,74.6281459 C93.0226458,74.2555133 95.3600684,75.6782923 97.0199772,78.2528448 C95.9698308,69.1064084 91.2272342,63.3814167 87.1282756,63.9234277 C87.8057895,62.0263891 88.6865574,58.7404471 85.7393723,55.5222565 C87.0605243,55.9287648 88.7204331,57.216041 89.05919,61.2133725 C90.2109635,59.3163338 90.2109635,53.8962234 86.1797563,47.2565881 C88.2122977,47.8324748 91.8708723,51.3555466 91.8708723,58.8420742 C93.7001596,48.0018533 85.9765022,37.8052705 81.7759166,34.0450688 C78.7609801,30.3526186 80.522516,29.5057263 82.4534304,31.3011379 C81.7759166,25.9826545 77.5414553,23.306475 77.3043254,18.4283756 C78.3544718,18.6993811 79.6078724,19.7834032 82.1146735,25.5083949 C80.6241431,16.9039695 75.712168,11.0773508 72.324599,8.60442536 C66.193099,4.13283423 62.2635189,2.74393092 57.4192952,1.28727623 C54.1333532,0.271005523 50.9490383,0.101627071 48.6116157,0.101627071 L48.6116157,0.101627071 Z" id="Shape" fill="#595959" fill-rule="nonzero"></path>
                            <g id="Group" stroke-width="1" fill="none" fill-rule="evenodd" transform="translate(9.485193, 62.670027)">
                                <g id="Shape" fill-rule="nonzero" fill="#111820">
                                    <path d="M25.8810274,32.0125274 C25.7794004,31.944776 25.711649,31.843149 25.6100219,31.7753976 C25.4745192,31.8092733 25.3390164,31.843149 25.2373893,31.8770246 C23.1709722,32.2835329 21.002928,31.3688893 21.2061822,29.099218 C21.3078092,28.0829473 21.4771877,26.8972982 22.1208258,26.1181573 C23.848486,23.9839888 25.8471518,22.0191987 27.7441904,19.9866573 C28.557207,19.1397651 29.3702236,18.2928728 30.1832401,17.4459805 C30.1154887,17.3443535 30.0138617,17.2766021 29.9461103,17.174975 C29.6751048,17.2766021 29.3702236,17.3782292 29.1669694,17.5137319 C28.2862015,18.15737 27.4731849,18.8687595 26.5924169,19.5123977 C24.6953783,20.8674253 22.8999667,22.3579556 20.8674253,23.4758534 C18.6316297,24.729254 16.0232015,24.7631297 13.4486491,24.6953783 C12.8388867,24.6953783 12.1952485,24.4582485 11.6871132,24.1533672 C9.31581485,22.7305882 7.31714912,21.0368037 5.79274305,18.7671325 C3.48919611,15.2779364 2.71005523,11.6193618 3.48919611,7.68978172 C3.69245025,6.70738669 4.03120715,5.75886736 4.30221268,4.81034803 C4.16670992,4.74259665 4.06508285,4.67484527 3.92958008,4.64096958 C3.55694749,5.04747787 3.04881213,5.42011046 2.84555799,5.89437013 C2.20191987,7.24939774 1.62603314,8.63830105 1.0501464,10.0272044 C0.0677513808,12.3307513 0.0677513808,14.6681739 0.779140879,17.0055966 C1.72766021,20.1560358 3.48919611,22.866091 6.09762427,25.1357623 C8.26566845,26.9989252 10.3998369,28.8282125 13.2115192,29.8444832 C15.1763093,30.5558727 15.1763093,30.521997 14.4310441,32.2496572 C13.6519032,34.0450688 12.2629999,35.1290909 10.1627071,35.5355992 C8.29954414,35.9082318 6.30087841,35.2645937 5.25073201,33.8756904 C4.9119751,33.4353064 4.74259665,32.927171 4.43771544,32.3512843 C3.55694749,33.2659279 3.62469887,34.2821987 4.03120715,35.1968423 C4.64096958,36.5518699 5.82661874,37.4326379 7.24939774,38.076276 C8.13016569,38.4827843 9.01093364,38.8215412 9.92557728,39.2280495 C9.8578259,39.4313036 9.75619883,39.6684334 9.72232314,39.8716876 C9.1464364,43.0560025 8.87543088,46.2064417 11.2128535,49.018124 C12.0597458,50.0343947 12.3307513,51.1522925 12.2291242,52.405693 C12.1613728,53.3542123 12.2291242,54.3366074 12.5340054,55.2173753 C13.0760165,56.8434085 13.787406,58.4355659 14.4649198,60.0277233 C16.1587043,63.9911791 19.3091435,66.2947261 23.9839888,66.73511 C24.2549943,66.7689857 24.5598755,66.633483 25.1696379,66.4979802 C23.848486,65.8543421 22.8999667,65.312331 21.883696,64.8719471 C19.5462733,63.8218007 17.9879916,62.0941405 17.0055966,59.9938477 C15.752196,57.2837924 15.4473148,54.4721101 16.7684667,51.6265521 C17.3782292,50.3054002 18.1234944,49.1536267 19.478522,48.3067345 C22.6289612,46.3419444 26.1859087,45.2579223 29.8783589,44.6142842 C32.6900412,44.1061489 35.5694749,43.869019 38.4489086,43.6318892 C39.3296765,43.5641378 40.2443202,43.869019 41.1589638,43.9706461 C45.7660577,44.4110301 50.3392759,45.1224196 54.6414886,46.8162041 C57.8596792,48.0696046 60.7052372,49.6956378 61.7215079,53.1509582 C62.7377786,56.6401543 62.0602648,59.7905935 59.7905935,62.6022758 C58.2661874,64.4993145 56.6062786,66.4641045 53.6590936,66.9383642 C54.2011046,67.175494 54.810867,67.4464995 55.2173753,67.2771211 C56.7756571,66.5996073 58.537193,66.0237205 59.7567178,64.9735741 C61.2472482,63.7201736 62.365146,62.0602648 63.4491681,60.4681073 C65.0413255,58.1645604 66.2947261,55.691635 65.8543421,52.846077 C65.6172123,51.3216709 66.2608504,50.1698974 67.0738669,48.8826212 C67.8191321,47.6630964 68.4627702,46.3080687 68.6660244,44.9191654 C68.9031542,43.1237538 68.6660244,41.2944666 68.6660244,39.4651793 C69.3435382,39.1602981 70.1904305,38.7876655 71.0373227,38.4150329 C73.0698641,37.5342649 75.2040326,34.9258368 74.6958973,32.4529114 C74.6620216,32.2496572 74.4248918,32.0802788 74.289389,31.8770246 C74.1200105,32.0464031 73.8828807,32.2157815 73.7812536,32.4190357 C73.3747454,33.1981766 73.0021128,33.9773174 72.6294802,34.790334 C71.5454581,37.2293837 65.9220935,36.6196213 64.7364443,34.34995 C64.2621846,33.4691821 63.9234277,32.4867871 63.347541,31.6737705 C62.8732813,31.0301324 63.1781626,30.8607539 63.7540493,30.5897484 C64.9396985,30.0138617 66.193099,29.6412291 67.3787482,28.9298396 C69.2419111,27.8119418 70.9695713,26.5924169 72.4939774,25.1357623 C73.6118752,24.0856159 74.8314,23.0015938 75.5766652,21.7481932 C76.4235575,20.3592899 76.8300658,18.7332568 77.3720768,17.174975 C78.0495906,15.2440607 78.0157149,13.2792706 77.4737039,11.3483563 C76.9316928,9.519069 76.152552,7.72365741 75.4072868,5.92824582 C75.2379083,5.55561322 74.7636487,5.25073201 74.4248918,4.94585079 C74.1877619,5.35235908 74.0861349,5.65724029 74.1877619,5.86049443 C75.1362813,7.55427895 75.1024056,9.38356623 74.9669028,11.2128535 C74.6958973,15.5150662 73.2053669,19.4446463 69.6145437,22.425707 C68.2595161,23.5436048 66.9044885,24.9663838 64.8041957,25.0341352 C64.1605576,25.0680109 63.4830438,25.0341352 62.8394056,24.9663838 C60.9084913,24.7970054 58.8759499,24.7970054 57.2837924,23.7129833 C54.5398615,21.883696 51.8975577,19.9189059 49.1875024,18.0218673 C48.9164969,17.8186131 48.5438643,17.6831104 48.2389831,17.5137319 C48.1712317,17.5814833 48.1034803,17.6492347 48.035729,17.7508618 C48.2728588,18.055743 48.5099886,18.3606242 48.7809941,18.6316297 C50.7457842,20.5625441 52.7444499,22.4934584 54.70924,24.4582485 C56.1997703,25.9487788 57.114414,27.6425633 56.9111598,29.7428561 C56.7756571,31.1656351 55.8271377,32.1819059 54.268856,32.3174086 C53.6252179,32.3512843 53.0154554,32.2835329 52.1685632,32.2496572 C52.405693,32.6222898 52.5411958,33.0626738 52.8122013,33.1643009 C53.7268449,33.5030578 54.810867,34.0789445 55.5900079,33.8756904 C57.3176681,33.4353064 58.0290576,34.1466959 58.6049443,35.3323451 C58.7404471,35.5694749 58.9437013,35.772729 59.1130797,35.9759832 C60.5358587,37.7036434 60.9762427,39.499055 59.5873394,41.4299693 C59.4857123,41.5654721 59.5534637,41.8026019 59.4857123,42.3107373 C60.6036101,41.6670992 61.4505023,41.1589638 62.2973946,40.6847041 C64.8041957,43.7335163 64.2621846,46.3080687 62.4328974,48.7471185 C61.6537565,48.2051074 60.9084913,47.6292207 60.0954747,47.1210853 C59.2824582,46.6468256 58.3678145,46.2741931 57.6225493,45.9015605 C57.7241764,45.0885439 57.8935549,44.4110301 57.8258035,43.7335163 C57.7580521,42.5478671 57.5209223,41.3622179 57.4192952,40.1765688 C57.2499167,38.4150329 56.2675217,37.1616323 54.5398615,36.3824915 C54.268856,36.2469887 53.9300991,36.213113 53.5235908,36.1114859 C54.1672289,38.4827843 53.1848339,40.5830771 52.3040659,42.2091102 C51.5249251,43.5980135 51.1184168,43.6657649 49.4246323,43.1237538 C49.2891295,43.0898782 49.1536267,43.0560025 49.018124,43.0560025 C47.595345,43.1237538 46.8162041,42.44624 46.5451986,41.2267152 C46.4435715,40.7185798 46.3419444,40.2104445 46.0709389,39.7700605 C45.9354361,39.5668064 45.3256737,39.3635522 45.0885439,39.4651793 C44.3432787,39.8378119 43.6657649,40.3120715 42.886624,40.8202069 C42.5817428,40.1765688 42.3107373,39.600682 42.0397318,38.9909196 C40.6847041,38.9231682 40.48145,40.2443202 39.5329307,40.7185798 C39.2958008,40.4475743 39.0247953,40.1765688 38.7537898,39.939439 C37.2632594,38.6521627 36.7551241,38.6860384 35.5694749,40.1765688 C35.3662208,40.4136986 34.9597125,40.7185798 34.6887069,40.6847041 C34.4177014,40.6847041 34.0789445,40.3120715 33.9434418,40.041066 C33.367555,38.9909196 32.825544,38.8892926 31.944776,39.8378119 C31.504392,40.3120715 31.1656351,40.8540826 30.7930026,41.3622179 C30.3187429,42.0397318 30.0816131,42.6494942 28.7943368,42.6156185 C26.6262926,42.5478671 25.6777733,42.1752345 25.3051407,40.2443202 C25.0002595,38.7199141 24.8647567,37.195508 24.6615026,35.7049777 C23.7807346,35.9759832 22.7983396,36.4841185 22.1547015,37.5003892 C20.6980468,39.7361848 20.7319225,42.1074831 21.2061822,44.5126572 C21.2400579,44.749787 21.1723065,45.190171 21.002928,45.291798 C19.2075164,46.3080687 17.4121049,47.2565881 15.5828176,48.2389831 C13.6180275,45.7660577 13.8551574,42.7511213 16.2264557,40.2104445 C16.9717209,40.8879583 17.615359,41.6670992 19.1736408,41.5993478 C17.6831104,40.0749417 17.6492347,38.4827843 18.2928728,36.9583782 C18.8348838,35.7049777 19.7834032,34.5532042 20.5625441,33.4014307 C20.6302954,33.2998036 21.0368037,33.2659279 21.2400579,33.3336793 C22.6628369,33.8418147 23.9162374,33.367555 25.1357623,32.825544 C25.4406435,32.6561655 25.6438976,32.2835329 25.8810274,32.0125274 Z M23.848486,62.6700272 C23.9501131,62.6361515 24.0856159,62.6361515 24.1872429,62.6022758 C24.1194915,62.2635189 24.1194915,61.8908863 23.9501131,61.5860051 C22.8999667,59.6889664 23.1032208,57.7919278 24.2211186,56.0642676 C24.7970054,55.1496239 25.6777733,54.268856 26.6601683,53.7268449 C27.4393092,53.286461 28.5910827,53.388088 29.5734777,53.2187096 C30.7930026,53.0154554 31.843149,53.3542123 32.7916683,54.0656018 C35.9082318,56.3352731 36.213113,59.8922206 35.1629666,62.9410327 C34.6887069,64.3638117 33.9095661,65.6849636 33.2659279,67.0399913 C31.7415219,70.2243061 29.0653423,71.3422039 25.6100219,71.003447 C24.28887,70.8679443 23.0015938,70.5291874 21.7820689,70.2920575 C21.8498203,70.8001929 21.883696,71.1389498 21.9175717,71.4777067 C22.7644639,71.884215 23.6452319,72.2907233 24.4921241,72.7988586 C25.7794004,73.5441238 27.1005523,74.289389 28.3200772,75.1362813 C29.6412291,76.0509249 30.7930026,77.134947 32.1480302,78.0157149 C33.807939,79.099737 35.6033506,80.0482564 37.3310108,81.0306514 C37.5003892,81.1322784 37.7713948,81.0984028 38.1779031,81.1661541 C37.195508,79.8111265 36.3824915,78.6254774 35.5017235,77.4737039 C33.0965495,74.289389 33.5030578,69.5467923 36.4841185,66.7689857 C36.9245025,66.3624774 37.4665136,66.0914719 37.9068975,65.7188393 C38.7199141,65.0074498 39.5329307,64.8719471 40.4136986,65.5155852 C41.0573367,65.9898449 41.7348505,66.4979802 42.1413588,67.1416183 C42.7511213,68.1240133 43.3608837,69.2080354 43.5980135,70.2920575 C43.869019,71.5454581 43.7335163,72.86661 43.767392,74.1538862 C43.767392,74.2555133 43.9367704,74.3571404 43.9706461,74.4926431 C44.0722732,74.8314 44.309403,75.2379083 44.1739002,75.5089138 C43.3608837,77.1010713 42.4801157,78.6593531 41.6332235,80.2176348 C41.463845,80.522516 41.2267152,80.8273972 41.023461,81.1322784 C42.3784887,80.5563917 43.6657649,79.980505 44.7836627,79.2013641 C46.8162041,77.7785851 48.7809941,76.2203033 50.7457842,74.729773 C51.0506654,74.4926431 51.3894223,74.2216376 51.7281792,74.1877619 C53.4897151,73.8828807 54.8447427,72.9682371 56.1997703,72.0197177 C56.4030245,71.884215 56.4707759,71.5793338 56.6401543,71.3422039 C56.3691488,71.3422039 56.0981433,71.3083282 55.8610134,71.3760796 C53.5913422,71.985842 51.3555466,72.0874691 49.2213781,71.0373227 C48.5099886,70.6646901 47.9002262,70.1226791 47.2565881,69.6145437 C45.2579223,68.157889 43.9706461,66.2947261 43.2592566,64.0928062 C42.5817428,61.9586377 42.6833699,59.7567178 43.4625108,57.7241764 C43.9706461,56.3691488 44.9191654,54.9124941 46.172566,54.0994775 C48.4422372,52.6428228 51.2877952,52.9138284 53.2187096,55.1496239 C53.6252179,55.6238836 53.7945963,56.2675217 54.1672289,56.7756571 C55.4206295,58.5033173 55.1834996,60.2648532 54.3704831,62.0263891 C54.2349803,62.365146 54.0656018,62.6700272 53.8962234,62.9749084 C53.9978505,63.0426598 54.0656018,63.1104112 54.1672289,63.1781626 C54.70924,62.6022758 55.5222565,62.0602648 55.7255107,61.382751 C56.0642676,60.2648532 56.1658946,59.0453283 56.132019,57.8596792 C56.0303919,54.5737372 54.1672289,51.8975577 52.1685632,49.3230052 C51.965309,49.0519997 51.5249251,48.8148698 51.1861682,48.7809941 C50.2715245,48.6793671 49.2891295,48.57774 48.3744859,48.7471185 C45.6305549,49.1875024 42.9543754,49.8650162 40.6169528,51.2539195 C39.6345577,51.863682 39.1264224,51.8975577 38.076276,51.2200438 C34.9935882,49.3230052 31.5382677,48.2389831 27.7441904,48.3067345 C26.5246656,48.3067345 25.6100219,48.9503726 25.2035136,49.9666433 C24.830881,50.8812869 24.4582485,51.7959306 23.9501131,52.6428228 C22.7983396,54.5059858 22.2563286,56.4707759 22.4934584,58.5710687 C22.6289612,60.0277233 22.8999667,61.484378 23.848486,62.6700272 Z M33.4353064,5.82661874 C33.2998036,5.96212151 33.1643009,6.09762427 33.0626738,6.23312703 C33.5030578,6.87676515 33.9773174,7.52040326 34.34995,8.23179276 C34.5532042,8.60442536 34.7564583,9.24806347 34.5870799,9.41744192 C34.2144473,9.75619883 33.5369335,10.06108 33.0287981,10.0272044 C32.4190357,9.99332866 31.6737705,9.75619883 31.2672622,9.38356623 C29.979986,8.09629 28.6588341,6.77513808 27.676439,5.31848339 C26.2197844,3.11656351 24.3227457,1.422779 21.6126905,0.609762427 C20.6980468,0.338756904 19.7156518,0.271005523 18.7332568,0.135502762 C18.6993811,0.271005523 18.6655054,0.372632594 18.6316297,0.508135356 C19.8511546,1.0501464 21.2400579,1.45665469 22.2224529,2.23579556 C23.1709722,2.98106075 24.1872429,3.89570439 24.4582485,5.48786184 C20.8674253,3.5230718 17.2766021,3.01493644 13.2453949,3.72632594 C13.7196546,3.11656351 14.0584115,2.67617954 14.5326712,2.06641711 C13.9906601,2.16804418 13.787406,2.16804418 13.5841518,2.23579556 C10.8063452,3.25206628 7.24939774,6.36862979 7.08001929,9.8578259 C7.01226791,11.382232 7.18164636,12.7711353 8.63830105,13.7535303 C8.87543088,13.9229087 9.24806347,13.9567844 9.75619883,14.1261629 C8.02853862,10.0949557 8.46892259,9.18031209 10.7047182,6.97839222 C12.3985027,5.2846077 15.8538231,5.01360218 18.9026352,6.30087841 C17.615359,6.50413255 16.4297098,6.63963531 15.311812,6.94451653 C13.7196546,7.3849005 12.1613728,7.92691155 10.6030911,8.50279828 C10.2982099,8.60442536 10.1627071,9.04480933 9.95945297,9.34969054 C10.2643342,9.48519331 10.5692154,9.58682038 10.8402209,9.75619883 C11.4161077,10.1288314 12.0936215,10.4337126 12.4662541,10.941848 C13.1776436,11.924243 13.6857789,13.0421408 14.329417,14.0584115 C15.7183203,16.2264557 18.9026352,17.7508618 21.5110634,17.2766021 C23.0015938,17.0055966 24.5259998,16.9378452 26.0504059,16.7684667 C22.4934584,19.2413921 18.6655054,19.2413921 14.6004226,17.9541159 C15.311812,18.4283756 16.0232015,19.038138 16.8023424,19.2075164 C20.0882844,19.9189059 23.3742264,20.1899115 26.3214114,18.1912457 C28.2523258,16.8700938 30.1493644,15.5150662 31.2333865,13.4825248 C31.6737705,12.6356325 32.3174086,12.3985027 33.2998036,12.4662541 C35.1629666,12.5678811 36.8228754,11.382232 37.1277567,9.79007452 C37.1616323,9.55294469 36.9922539,9.21418778 36.8228754,9.01093364 C36.1453616,8.19791707 35.4339721,7.3849005 34.6887069,6.63963531 C34.34995,6.19925134 33.8418147,6.06374858 33.4353064,5.82661874 Z M45.291798,6.63963531 C45.190171,6.50413255 45.0885439,6.40250548 44.9869168,6.26700272 C44.6142842,6.43638117 44.1061489,6.53800824 43.8351433,6.80901377 C42.9882511,7.62203033 42.2091102,8.50279828 41.4299693,9.38356623 C41.2605909,9.58682038 41.0912124,9.92557728 41.1928395,10.1627071 C41.7687262,11.6871132 42.6494942,12.8388867 44.8852897,12.7033839 C45.732182,12.6356325 46.3080687,12.805011 46.8500798,13.5841518 C49.1875024,17.0055966 52.1346875,19.6479004 56.9789112,19.8850303 C59.5873394,20.020533 61.8908863,19.6479004 63.9234277,18.0218673 C59.8244692,19.5123977 55.8948891,19.478522 52.2024389,17.1072236 C52.9138284,17.0733479 53.6252179,17.2088507 54.3027317,17.3104778 C56.7756571,17.6831104 59.2147068,17.8524888 61.4505023,16.5313369 C63.1781626,15.4811905 64.1944333,13.9229087 65.0752012,12.2629999 C65.5833366,11.3144806 66.0575962,10.3659613 67.3109968,9.99332866 C67.6836294,9.89170159 68.0223863,9.68844745 68.3950189,9.55294469 C68.1240133,9.21418778 67.9207592,8.84155519 67.615878,8.57054967 C67.2771211,8.33341983 66.8367371,8.19791707 66.4302288,8.09629 C64.1944333,7.55427895 61.9925134,7.01226791 59.8244692,6.50413255 C62.1280161,5.14910494 64.6348172,5.45398615 66.8706128,6.70738669 C70.2581818,8.57054967 70.0888034,11.4161077 68.6321487,14.4310441 C69.1402841,14.2955413 69.479041,14.1600386 69.7500465,13.9567844 C71.3083282,12.7372596 71.4099553,11.0434751 71.1728255,9.38356623 C70.6646901,5.9959972 68.1240133,4.03120715 64.9735741,2.54067678 C64.7364443,2.43904971 64.3976874,2.54067678 63.9234277,2.54067678 C64.3976874,3.11656351 64.6686929,3.48919611 65.1090769,4.03120715 C61.0778697,3.48919611 57.4870466,3.89570439 54.0994775,5.65724029 C54.9802455,3.04881213 57.2499167,1.82928728 59.7228421,0.745265188 C59.4179609,0.609762427 59.2147068,0.542011046 58.9775769,0.575886736 C55.6577593,0.813016569 53.286461,2.37129833 51.4910494,4.74259665 C50.4747787,6.09762427 49.4923836,7.52040326 48.3744859,8.8076795 C47.5275936,9.79007452 46.3758201,10.501464 44.8852897,10.3998369 C43.767392,10.3320856 43.3608837,9.65457176 43.869019,8.8076795 C44.3432787,8.09629 44.8514141,7.3849005 45.291798,6.63963531 Z M28.9637153,27.574812 C29.539602,28.116823 30.0477374,28.8620882 30.7930026,29.3024722 C32.5545385,30.2848672 35.772729,29.9122346 37.2971351,28.6927097 C38.1440274,27.9813203 38.6521627,26.8972982 38.076276,25.6438976 C37.3987622,24.1194915 35.9759832,23.408102 34.6209556,22.6289612 C33.4353064,21.9514474 32.1480302,21.3755606 30.9962567,22.7983396 C30.962381,22.8322153 30.8607539,22.866091 30.7930026,22.8999667 C29.2347208,23.848486 27.6425633,24.7970054 26.0842816,25.7794004 C24.6276269,26.7279197 24.4921241,27.9813203 25.9149031,28.997591 C27.0666766,29.8106075 28.4555799,30.3526186 29.7767318,30.962381 C30.1832401,31.1317595 30.6574998,31.1656351 31.0978838,31.2333865 C30.2848672,30.5558727 29.3702236,30.1832401 28.6588341,29.6073534 C28.116823,29.2008451 27.4054335,28.3878285 27.5409363,27.9813203 C27.9135689,26.8972982 28.7265854,25.9487788 30.3187429,25.4406435 C29.8106075,26.25366 29.4379749,26.8634225 28.9637153,27.574812 Z M46.9855826,31.504392 C47.0872096,31.5382677 47.2565881,31.6060191 47.3582151,31.6060191 C49.4246323,31.2333865 51.2200438,30.42037 52.6089472,28.9637153 C53.5913422,27.9474446 53.4558394,26.9311738 52.2363146,26.1181573 C50.3731516,24.8986324 48.5099886,23.7129833 46.61295,22.5273341 C46.3419444,22.3579556 45.9354361,22.2224529 45.6983063,22.2902043 C43.5302621,22.9677181 41.5315964,23.848486 40.48145,25.8810274 C39.7700605,27.2699308 39.8716876,28.2184501 40.8202069,29.0314667 C42.5817428,30.5558727 46.2741931,30.6236241 48.1034803,29.1669694 C48.9842483,28.4555799 49.119751,27.6425633 48.5438643,26.7279197 C48.3406102,26.4230385 48.1712317,26.152033 47.9341019,25.7455247 C49.2891295,26.1859087 50.0343947,27.0328009 50.54253,28.0151959 C50.7119085,28.3200772 50.5764057,29.0314667 50.3054002,29.2347208 C49.2891295,30.0477374 48.137356,30.7252512 46.9855826,31.504392 Z M46.0031875,16.7684667 C46.0709389,16.6668397 46.1386903,16.5990883 46.2403174,16.4974612 C45.6305549,16.1587043 45.0546682,15.8538231 44.4449058,15.5150662 C44.0383975,15.2779364 43.5980135,15.0746822 43.327008,14.7359253 C42.4801157,13.8212817 41.5654721,13.9229087 40.48145,14.3971684 C40.041066,14.6004226 39.2958008,14.8036767 38.9570439,14.6342982 C36.9583782,13.5164005 35.230718,13.6857789 33.5708092,15.1424336 C33.1304252,15.5489419 32.5206628,15.7860717 32.0125274,16.1248286 C32.0802788,16.2264557 32.1480302,16.3280828 32.2157815,16.4297098 C32.6222898,16.2942071 33.0626738,16.2264557 33.367555,15.9893259 C34.248323,15.3795634 35.0952152,15.7183203 35.9421075,16.0232015 C37.0600053,16.4635855 38.0424003,17.0394723 38.6521627,18.0218673 C39.0247953,18.597754 39.4651793,18.597754 39.939439,18.0896187 C41.7687262,16.0570772 43.2253809,15.7183203 45.8338091,16.7684667 C45.8676848,16.7684667 45.9354361,16.7684667 46.0031875,16.7684667 Z"></path>
                                    <path d="M25.8810274,32.0125274 C25.6100219,32.2835329 25.4067678,32.6561655 25.1018866,32.7916683 C23.8823617,33.367555 22.6289612,33.807939 21.2061822,33.2998036 C21.002928,33.2320523 20.5964197,33.2659279 20.5286684,33.367555 C19.7156518,34.5193285 18.7671325,35.671102 18.2589971,36.9245025 C17.6492347,38.4150329 17.6492347,40.041066 19.1397651,41.5654721 C17.5814833,41.6332235 16.9378452,40.8540826 16.19258,40.1765688 C13.8212817,42.7172456 13.5841518,45.732182 15.5489419,48.2051074 C17.3782292,47.2227124 19.1736408,46.2741931 20.9690523,45.2579223 C21.1384308,45.1562953 21.2400579,44.7159113 21.1723065,44.4787815 C20.6980468,42.0397318 20.6641711,39.7023091 22.1208258,37.4665136 C22.7983396,36.4502428 23.746859,35.9421075 24.6276269,35.671102 C24.830881,37.1616323 24.9663838,38.6860384 25.271265,40.2104445 C25.6438976,42.1413588 26.6262926,42.5139914 28.7604611,42.5817428 C30.0477374,42.6156185 30.2848672,42.0058561 30.7591269,41.3283423 C31.1317595,40.8202069 31.4705164,40.2781959 31.9109003,39.8039362 C32.7577926,38.8554169 33.2998036,38.9570439 33.9095661,40.0071903 C34.0789445,40.2781959 34.3838257,40.6508285 34.6548313,40.6508285 C34.9597125,40.6508285 35.3323451,40.3798229 35.5355992,40.1426931 C36.7212484,38.6521627 37.2293837,38.5844113 38.7199141,39.9055633 C38.9909196,40.1426931 39.2280495,40.4475743 39.499055,40.6847041 C40.4475743,40.2104445 40.6508285,38.8554169 42.0058561,38.9570439 C42.2768616,39.5668064 42.5478671,40.1765688 42.8527483,40.7863312 C43.6318892,40.3120715 44.309403,39.8039362 45.0546682,39.4313036 C45.291798,39.3296765 45.9015605,39.5329307 46.0370632,39.7361848 C46.3080687,40.1765688 46.4096958,40.6847041 46.5113229,41.1928395 C46.8162041,42.4123644 47.5614693,43.0898782 48.9842483,43.0221268 C49.119751,43.0221268 49.2552538,43.0560025 49.3907566,43.0898782 C51.1184168,43.6318892 51.4910494,43.5980135 52.2701902,42.1752345 C53.1509582,40.5830771 54.1333532,38.4489086 53.4897151,36.0776103 C53.8962234,36.1792373 54.2349803,36.213113 54.5059858,36.3486158 C56.233646,37.1277567 57.216041,38.3811572 57.3854195,40.1426931 C57.4870466,41.3283423 57.7241764,42.5139914 57.7919278,43.6996406 C57.8258035,44.3771544 57.656425,45.0546682 57.5886736,45.8676848 C58.3339388,46.2403174 59.2485825,46.61295 60.061599,47.0872096 C60.8746156,47.5614693 61.6198808,48.1712317 62.3990217,48.7132428 C64.2621846,46.2741931 64.8041957,43.6996406 62.2635189,40.6508285 C61.4166267,41.1589638 60.5358587,41.6332235 59.4518366,42.2768616 C59.519588,41.7348505 59.4518366,41.5315964 59.5534637,41.3960936 C60.942367,39.4651793 60.501983,37.6697677 59.079204,35.9421075 C58.9098256,35.7388533 58.7065714,35.5355992 58.5710687,35.2984694 C57.9613062,34.1128202 57.2837924,33.4014307 55.5561322,33.8418147 C54.7769913,34.0450688 53.6929692,33.4691821 52.7783256,33.1304252 C52.5073201,33.0287981 52.3718173,32.5884141 52.1346875,32.2157815 C52.9477041,32.2496572 53.5913422,32.3174086 54.2349803,32.2835329 C55.793262,32.1819059 56.7417814,31.1317595 56.8772841,29.7089805 C57.0805383,27.6086877 56.1997703,25.9149031 54.6753643,24.4243728 C52.7105742,22.4595827 50.7119085,20.5625441 48.7471185,18.597754 C48.4761129,18.3267485 48.2389831,18.0218673 48.0018533,17.7169861 C48.0696046,17.6492347 48.137356,17.5814833 48.2051074,17.4798562 C48.5099886,17.6492347 48.8826212,17.7847374 49.1536267,17.9879916 C51.863682,19.8850303 54.5059858,21.8498203 57.2499167,23.6791076 C58.8759499,24.7631297 60.9084913,24.7631297 62.80553,24.9325081 C63.4491681,25.0002595 64.0928062,25.0341352 64.77032,25.0002595 C66.9044885,24.9325081 68.2256404,23.5097291 69.580668,22.3918313 C73.1714912,19.4107706 74.6281459,15.4811905 74.9330271,11.1789778 C75.0685299,9.34969054 75.1024056,7.55427895 74.1538862,5.82661874 C74.0522592,5.6233646 74.1538862,5.31848339 74.3910161,4.9119751 C74.729773,5.25073201 75.2040326,5.52173753 75.3734111,5.89437013 C76.1186763,7.68978172 76.9316928,9.45131761 77.4398282,11.3144806 C77.9818392,13.2115192 78.0157149,15.210185 77.3382011,17.1410993 C76.7961901,18.6993811 76.3896818,20.2915385 75.5427895,21.7143175 C74.7975243,22.9677181 73.5779995,24.0178645 72.4601017,25.1018866 C70.9356956,26.5585413 69.2080354,27.7780661 67.3448725,28.8959639 C66.1592233,29.6073534 64.9058228,29.979986 63.7201736,30.5558727 C63.1442869,30.8268782 62.8732813,30.9962567 63.3136653,31.6398948 C63.889552,32.4529114 64.228309,33.4353064 64.7025686,34.3160744 C65.8882178,36.5857456 71.5454581,37.195508 72.5956045,34.7564583 C72.9343614,33.9434418 73.3408697,33.1643009 73.7473779,32.38516 C73.849005,32.1819059 74.0861349,32.0125274 74.2555133,31.843149 C74.3910161,32.0464031 74.6281459,32.2157815 74.6620216,32.4190357 C75.1701569,34.8919611 73.0698641,37.5003892 71.003447,38.3811572 C70.1565548,38.7537898 69.3096625,39.1264224 68.6321487,39.4313036 C68.6660244,41.2605909 68.9031542,43.0898782 68.6321487,44.8852897 C68.4288946,46.2403174 67.8191321,47.6292207 67.0399913,48.8487455 C66.2608504,50.1021461 65.5833366,51.2877952 65.8204664,52.8122013 C66.2608504,55.6577593 65.0074498,58.1306847 63.4152924,60.4342316 C62.3312703,62.0263891 61.2133725,63.6524222 59.7228421,64.9396985 C58.5033173,65.9898449 56.7417814,66.5657316 55.1834996,67.2432454 C54.810867,67.4126238 54.2011046,67.1416183 53.6252179,66.9044885 C56.5724029,66.4302288 58.2323118,64.4654388 59.7567178,62.5684001 C61.9925134,59.7567178 62.7039029,56.6062786 61.6876322,53.1170825 C60.6713615,49.6617621 57.8258035,48.035729 54.6076129,46.7823284 C50.3054002,45.1224196 45.732182,44.4110301 41.1250881,43.9367704 C40.2104445,43.8351433 39.2958008,43.5302621 38.4150329,43.5980135 C35.5694749,43.8351433 32.6561655,44.0722732 29.8444832,44.5804085 C26.152033,45.2240467 22.5950855,46.3080687 19.4446463,48.2728588 C18.1234944,49.119751 17.3782292,50.2376488 16.734591,51.5926764 C15.4134391,54.4382344 15.7183203,57.2499167 16.9717209,59.959972 C17.9202402,62.0602648 19.5123977,63.787925 21.8498203,64.8380714 C22.866091,65.2784554 23.8146103,65.8204664 25.1357623,66.4641045 C24.5259998,66.5996073 24.2211186,66.73511 23.9501131,66.7012343 C19.2413921,66.2608504 16.0909529,63.9573034 14.4310441,59.9938477 C13.7535303,58.4016902 13.0421408,56.8095328 12.5001297,55.1834996 C12.1952485,54.3027317 12.1274972,53.286461 12.1952485,52.3718173 C12.2968756,51.0845411 12.0258701,50.000519 11.1789778,48.9842483 C8.87543088,46.2064417 9.11256071,43.0221268 9.68844745,39.8378119 C9.72232314,39.600682 9.82395021,39.3974279 9.89170159,39.1941738 C8.94318226,38.7876655 8.06241431,38.4150329 7.21552205,38.0424003 C5.79274305,37.3987622 4.5732182,36.4841185 3.99733146,35.1629666 C3.59082318,34.248323 3.5230718,33.2659279 4.40383975,32.3174086 C4.70872096,32.8932954 4.87809941,33.4014307 5.21685632,33.8418147 C6.26700272,35.230718 8.23179276,35.8404804 10.1288314,35.5017235 C12.2291242,35.0952152 13.6180275,34.0111931 14.3971684,32.2157815 C15.1424336,30.4881213 15.1424336,30.521997 13.1776436,29.8106075 C10.3659613,28.7943368 8.23179276,26.9650495 6.06374858,25.1018866 C3.42144473,22.8322153 1.69378452,20.1221601 0.745265188,16.9717209 C0.0338756904,14.6342982 0.0338756904,12.2968756 1.01627071,9.99332866 C1.62603314,8.60442536 2.16804418,7.21552205 2.8116823,5.86049443 C3.04881213,5.38623477 3.5230718,5.04747787 3.89570439,4.60709389 C4.03120715,4.67484527 4.13283423,4.74259665 4.26833699,4.77647234 C3.99733146,5.72499167 3.62469887,6.673511 3.45532042,7.65590602 C2.71005523,11.6193618 3.45532042,15.2440607 5.75886736,18.7332568 C7.28327343,21.0368037 9.28193916,22.6967126 11.6532375,24.1194915 C12.1613728,24.4243728 12.805011,24.6276269 13.4147734,24.6615026 C15.9893259,24.729254 18.597754,24.6953783 20.8335496,23.4419777 C22.866091,22.2902043 24.6953783,20.8335496 26.5585413,19.478522 C27.4393092,18.8348838 28.2523258,18.1234944 29.1330937,17.4798562 C29.3363479,17.3104778 29.6412291,17.2427264 29.9122346,17.1410993 C29.979986,17.2427264 30.0816131,17.3104778 30.1493644,17.4121049 C29.3363479,18.2589971 28.4894556,19.1058894 27.7103147,19.9527816 C25.8132761,21.9853231 23.8146103,23.9501131 22.0869501,26.0842816 C21.443312,26.8634225 21.2739336,28.0490716 21.1723065,29.0653423 C20.9690523,31.3350136 23.1370965,32.2835329 25.2035136,31.843149 C25.3390164,31.8092733 25.4745192,31.7753976 25.5761462,31.7415219 C25.711649,31.843149 25.8132761,31.9109003 25.8810274,32.0125274 Z"></path>
                                    <path d="M23.848486,62.6700272 C22.8999667,61.484378 22.6628369,60.0277233 22.4934584,58.6049443 C22.2563286,56.5046515 22.8322153,54.5398615 23.9501131,52.6766985 C24.4582485,51.8298063 24.830881,50.9151626 25.2035136,50.000519 C25.6100219,48.9842483 26.5246656,48.3744859 27.7441904,48.3406102 C31.5382677,48.3067345 34.9935882,49.3568809 38.076276,51.2539195 C39.1264224,51.8975577 39.6345577,51.8975577 40.6169528,51.2877952 C42.9543754,49.8650162 45.6305549,49.2213781 48.3744859,48.7809941 C49.2891295,48.6454914 50.2376488,48.7471185 51.1861682,48.8148698 C51.5249251,48.8487455 51.965309,49.0858754 52.1685632,49.3568809 C54.1672289,51.9314333 56.0303919,54.6076129 56.132019,57.8935549 C56.1658946,59.079204 56.0642676,60.2987289 55.7255107,61.4166267 C55.5222565,62.0941405 54.70924,62.6022758 54.1672289,63.2120382 C54.0656018,63.1442869 53.9978505,63.0765355 53.8962234,63.0087841 C54.0656018,62.7039029 54.2011046,62.365146 54.3704831,62.0602648 C55.1834996,60.2648532 55.4206295,58.5033173 54.1672289,56.8095328 C53.7945963,56.3013974 53.6252179,55.6577593 53.2187096,55.1834996 C51.2877952,52.9477041 48.4422372,52.6766985 46.172566,54.1333532 C44.9191654,54.9463698 43.9706461,56.4030245 43.4625108,57.7580521 C42.7172456,59.7905935 42.6156185,61.9925134 43.2592566,64.1266819 C43.9367704,66.3286018 45.2579223,68.1917647 47.2565881,69.6484194 C47.9002262,70.1226791 48.5099886,70.6985658 49.2213781,71.0711984 C51.3555466,72.1213448 53.5913422,72.0535934 55.8610134,71.4099553 C56.0981433,71.3422039 56.3691488,71.3760796 56.6401543,71.3760796 C56.5046515,71.6132095 56.4369002,71.884215 56.1997703,72.0535934 C54.8447427,73.0021128 53.4897151,73.9167564 51.7281792,74.2216376 C51.3555466,74.289389 51.0506654,74.5603945 50.7457842,74.7636487 C48.7471185,76.254179 46.8162041,77.8124608 44.7836627,79.2352398 C43.6657649,80.0143807 42.3784887,80.5902674 41.023461,81.1661541 C41.2267152,80.8612729 41.463845,80.5563917 41.6332235,80.2515105 C42.5139914,78.6932287 43.3947594,77.134947 44.1739002,75.5427895 C44.309403,75.271784 44.0722732,74.8652757 43.9706461,74.5265188 C43.9367704,74.3910161 43.767392,74.3232647 43.767392,74.1877619 C43.6996406,72.9004857 43.869019,71.5793338 43.5980135,70.3259332 C43.3608837,69.2080354 42.7511213,68.157889 42.1413588,67.175494 C41.7348505,66.5318559 41.0912124,65.9898449 40.4136986,65.5494609 C39.5329307,64.9058228 38.7199141,65.0413255 37.9068975,65.752715 C37.4665136,66.1253476 36.9245025,66.4302288 36.4841185,66.8028614 C33.5030578,69.580668 33.0965495,74.289389 35.5017235,77.5075796 C36.3824915,78.6593531 37.2293837,79.8450022 38.1779031,81.2000298 C37.7713948,81.1322784 37.5003892,81.1661541 37.3310108,81.0645271 C35.6033506,80.082132 33.807939,79.1336127 32.1480302,78.0495906 C30.7930026,77.1688227 29.6412291,76.0848006 28.3200772,75.1701569 C27.1005523,74.3232647 25.7794004,73.5779995 24.4921241,72.8327343 C23.6452319,72.3584746 22.7305882,71.9180907 21.9175717,71.5115824 C21.883696,71.1728255 21.8498203,70.8340686 21.7820689,70.3259332 C23.0015938,70.5630631 24.28887,70.9356956 25.6100219,71.0373227 C29.0653423,71.3422039 31.7415219,70.2581818 33.2659279,67.0738669 C33.9095661,65.7188393 34.6887069,64.3976874 35.1629666,62.9749084 C36.213113,59.9260963 35.8743561,56.3691488 32.7916683,54.0994775 C31.843149,53.388088 30.7930026,53.0493311 29.5734777,53.2525853 C28.5910827,53.4219637 27.4393092,53.3203367 26.6601683,53.7607206 C25.6777733,54.3027317 24.7970054,55.1834996 24.2211186,56.0981433 C23.1370965,57.8258035 22.8999667,59.7228421 23.9501131,61.6198808 C24.1194915,61.924762 24.1194915,62.2973946 24.1872429,62.6361515 C24.0517402,62.6361515 23.9501131,62.6700272 23.848486,62.6700272 Z"></path>
                                    <path d="M33.4353064,5.82661874 C33.8418147,6.02987289 34.34995,6.19925134 34.6548313,6.50413255 C35.4339721,7.24939774 36.1114859,8.06241431 36.7889997,8.87543088 C36.9583782,9.07868502 37.1277567,9.41744192 37.093881,9.65457176 C36.7889997,11.2467292 35.1290909,12.4323784 33.2659279,12.3307513 C32.2835329,12.2968756 31.6737705,12.5001297 31.1995108,13.347022 C30.1154887,15.3795634 28.2184501,16.734591 26.2875357,18.055743 C23.3403507,20.0544087 20.0544087,19.7834032 16.7684667,19.0720137 C15.9554502,18.9026352 15.2779364,18.3267485 14.5665469,17.8186131 C18.597754,19.0720137 22.4595827,19.1058894 26.0165302,16.632964 C24.4921241,16.8023424 22.9677181,16.8700938 21.4771877,17.1410993 C18.8687595,17.615359 15.650569,16.0909529 14.2955413,13.9229087 C13.6519032,12.906638 13.1437679,11.7887403 12.4323784,10.8063452 C12.0597458,10.2982099 11.382232,9.99332866 10.8063452,9.62069607 C10.5353397,9.45131761 10.2304585,9.34969054 9.92557728,9.21418778 C10.1288314,8.90930657 10.2643342,8.46892259 10.5692154,8.36729552 C12.0936215,7.79140879 13.6857789,7.24939774 15.2779364,6.80901377 C16.3958341,6.50413255 17.5814833,6.40250548 18.8687595,6.16537565 C15.8199474,4.9119751 12.364627,5.14910494 10.6708425,6.84288946 C8.4350469,9.07868502 7.99466293,9.95945297 9.72232314,13.9906601 C9.21418778,13.8212817 8.87543088,13.787406 8.60442536,13.6180275 C7.14777067,12.6356325 6.97839222,11.2467292 7.0461436,9.72232314 C7.21552205,6.23312703 10.7724695,3.11656351 13.5502762,2.1002928 C13.7535303,2.03254142 13.9567844,2.03254142 14.4987955,1.93091435 C14.0245358,2.54067678 13.6857789,2.98106075 13.2115192,3.59082318 C17.2088507,2.87943368 20.8335496,3.35369335 24.4243728,5.35235908 C24.1194915,3.76020163 23.1370965,2.84555799 22.1885772,2.1002928 C21.1723065,1.32115192 19.8172789,0.948519331 18.597754,0.372632594 C18.6316297,0.237129833 18.6655054,0.135502762 18.6993811,1.42108547e-14 C19.6479004,0.169378452 20.6641711,0.203254142 21.5788148,0.474259665 C24.28887,1.28727623 26.1859087,2.98106075 27.6425633,5.18298063 C28.6249584,6.673511 29.9461103,7.96078724 31.2333865,9.24806347 C31.6398948,9.65457176 32.38516,9.89170159 32.9949224,9.89170159 C33.5369335,9.92557728 34.1805716,9.62069607 34.5532042,9.28193916 C34.7564583,9.11256071 34.5193285,8.46892259 34.3160744,8.09629 C33.9434418,7.41877619 33.4691821,6.77513808 33.0287981,6.09762427 C33.1643009,6.09762427 33.2998036,5.96212151 33.4353064,5.82661874 Z"></path>
                                    <path d="M45.291798,6.63963531 C44.8175384,7.3849005 44.3432787,8.09629 43.9028947,8.84155519 C43.3608837,9.68844745 43.767392,10.3659613 44.9191654,10.4337126 C46.4096958,10.5353397 47.5614693,9.82395021 48.4083615,8.84155519 C49.5262593,7.55427895 50.4747787,6.13149996 51.5249251,4.77647234 C53.3203367,2.40517402 55.691635,0.813016569 58.9437013,0.542011046 C59.1469554,0.508135356 59.3502095,0.575886736 59.6889664,0.711389498 C57.2499167,1.79541159 54.9463698,3.01493644 54.0656018,5.6233646 C57.4531709,3.8618287 61.0778697,3.45532042 65.0752012,3.99733146 C64.6348172,3.45532042 64.3638117,3.08268782 63.889552,2.50680109 C64.3638117,2.50680109 64.7025686,2.40517402 64.9396985,2.50680109 C68.0901377,3.96345577 70.5969387,5.96212151 71.1389498,9.34969054 C71.4099553,11.0095994 71.3083282,12.6695082 69.7161708,13.9229087 C69.4451653,14.1261629 69.1064084,14.2616656 68.598273,14.3971684 C70.021052,11.382232 70.1904305,8.53667397 66.8367371,6.673511 C64.6348172,5.45398615 62.1280161,5.14910494 59.7905935,6.47025686 C61.9586377,6.97839222 64.1944333,7.52040326 66.3963531,8.06241431 C66.8028614,8.16404138 67.2432454,8.29954414 67.5820023,8.53667397 C67.9207592,8.77380381 68.1240133,9.18031209 68.3611432,9.519069 C67.9885106,9.65457176 67.6497537,9.8578259 67.2771211,9.95945297 C66.0237205,10.2982099 65.5833366,11.2806049 65.0413255,12.2291242 C64.1605576,13.8551574 63.1781626,15.4473148 61.4166267,16.4974612 C59.1808311,17.8524888 56.7417814,17.6492347 54.268856,17.2766021 C53.5574665,17.174975 52.8799527,17.0394723 52.1685632,17.0733479 C55.8610134,19.4446463 59.7905935,19.478522 63.889552,17.9879916 C61.8908863,19.6479004 59.5534637,19.9866573 56.9450355,19.8511546 C52.1008118,19.6140247 49.1536267,16.9717209 46.8162041,13.5502762 C46.2741931,12.7711353 45.6983063,12.6356325 44.8514141,12.6695082 C42.6494942,12.8388867 41.7348505,11.6532375 41.1589638,10.1288314 C41.0912124,9.92557728 41.2267152,9.55294469 41.3960936,9.34969054 C42.1752345,8.46892259 42.9543754,7.58815464 43.8012677,6.77513808 C44.0722732,6.50413255 44.5465328,6.40250548 44.9530411,6.23312703 C45.0885439,6.40250548 45.190171,6.50413255 45.291798,6.63963531 Z"></path>
                                    <path d="M28.9637153,27.574812 C29.4379749,26.8295468 29.8106075,26.25366 30.3187429,25.4406435 C28.7265854,25.9487788 27.9135689,26.8972982 27.5409363,27.9813203 C27.4054335,28.3878285 28.1506987,29.1669694 28.6588341,29.6073534 C29.4040992,30.1832401 30.3187429,30.5558727 31.0978838,31.2333865 C30.6574998,31.1317595 30.1493644,31.1317595 29.7767318,30.962381 C28.4555799,30.3526186 27.1005523,29.7767318 25.9149031,28.997591 C24.4921241,27.9813203 24.6276269,26.7279197 26.0842816,25.7794004 C27.6425633,24.7970054 29.2347208,23.848486 30.7930026,22.8999667 C30.8607539,22.866091 30.9285053,22.8322153 30.9962567,22.7983396 C32.1480302,21.3755606 33.4353064,21.9514474 34.6209556,22.6289612 C35.9759832,23.408102 37.3648865,24.1194915 38.076276,25.6438976 C38.618287,26.8634225 38.1440274,27.9813203 37.2971351,28.6927097 C35.772729,29.9461103 32.5545385,30.3187429 30.7930026,29.3024722 C30.0477374,28.8959639 29.539602,28.1506987 28.9637153,27.574812 Z"></path>
                                    <path d="M46.9855826,31.504392 C48.137356,30.7252512 49.2891295,30.0477374 50.3054002,29.2347208 C50.5764057,28.997591 50.7119085,28.3200772 50.54253,28.0151959 C50.0343947,27.0328009 49.3230052,26.1859087 47.9341019,25.7455247 C48.1712317,26.152033 48.3744859,26.4230385 48.5438643,26.7279197 C49.119751,27.6425633 48.9842483,28.4894556 48.1034803,29.1669694 C46.2741931,30.6236241 42.5817428,30.5558727 40.8202069,29.0314667 C39.8716876,28.1845744 39.7361848,27.2699308 40.48145,25.8810274 C41.5315964,23.8823617 43.5302621,22.9677181 45.6983063,22.2902043 C45.9354361,22.2224529 46.3758201,22.3579556 46.61295,22.5273341 C48.5099886,23.7129833 50.3731516,24.8647567 52.2363146,26.1181573 C53.4558394,26.9311738 53.5913422,27.9474446 52.6089472,28.9637153 C51.2200438,30.3864943 49.4246323,31.2333865 47.3582151,31.6060191 C47.2227124,31.6060191 47.0872096,31.5382677 46.9855826,31.504392 Z"></path>
                                    <path d="M46.0031875,16.7684667 C45.9354361,16.7684667 45.8676848,16.8023424 45.7999334,16.7684667 C43.1915052,15.7183203 41.7009749,16.0570772 39.9055633,18.0896187 C39.4651793,18.597754 38.9909196,18.597754 38.618287,18.0218673 C38.0085246,17.0394723 37.0261296,16.4297098 35.9082318,16.0232015 C35.0613395,15.6844446 34.248323,15.3795634 33.3336793,15.9893259 C32.9949224,16.2264557 32.5545385,16.2942071 32.1819059,16.4297098 C32.1141545,16.3280828 32.0464031,16.2264557 31.9786517,16.1248286 C32.5206628,15.7860717 33.0965495,15.5489419 33.5369335,15.1424336 C35.1968423,13.6857789 36.9583782,13.5164005 38.9231682,14.6342982 C39.2619251,14.8375524 40.0071903,14.6004226 40.4475743,14.3971684 C41.5315964,13.9229087 42.44624,13.8212817 43.2931323,14.7359253 C43.5980135,15.0408065 44.0383975,15.2779364 44.4110301,15.5150662 C44.9869168,15.8538231 45.5966792,16.19258 46.2064417,16.4974612 C46.172566,16.5990883 46.0709389,16.6668397 46.0031875,16.7684667 Z"></path>
                                </g>
                                <path d="M62.8394056,9.48519331 C61.5182537,11.1112264 60.2309775,12.7711353 58.8420742,14.3632927 C58.5033173,14.769801 57.8596792,15.0746822 57.3176681,15.2440607 C54.810867,15.9554502 52.5073201,15.6166933 50.4747787,14.0922872 C48.6454914,12.7033839 48.035729,12.805011 50.5764057,11.4499833 C52.1346875,10.6369668 53.5235908,9.519069 55.1496239,8.90930657 C56.3691488,8.46892259 57.8596792,8.36729552 59.1808311,8.50279828 C60.3326046,8.67217674 61.7553836,8.36729552 62.8394056,9.48519331 Z" id="Shape" fill="#EB8B23" fill-rule="nonzero"></path>
                                <path d="M17.2088507,9.01093364 C18.4961269,8.06241431 20.020533,8.33341983 21.4094363,8.06241431 C24.1533672,7.52040326 25.8810274,9.28193916 27.9135689,10.3998369 C28.6588341,10.8063452 29.4040992,11.2467292 30.1493644,11.6532375 C30.6236241,11.924243 31.0640081,12.2291242 30.521997,12.7372596 C28.3878285,14.7359253 25.8471518,15.752196 22.7305882,15.0408065 C20.7319225,14.5665469 19.7834032,13.0421408 18.7332568,11.6532375 C18.15737,10.8740966 17.7508618,9.95945297 17.2088507,9.01093364 Z" id="Shape" fill="#EB8B23" fill-rule="nonzero"></path>
                            </g>
                            <path d="M31.7415219,70.7324415 C32.1819059,70.0888034 32.7239169,70.2920575 33.2320523,70.0888034 C34.2144473,69.7161708 34.8242097,70.9356956 35.5355992,71.6809608 C35.8066047,71.9519664 36.0776103,72.2568476 36.3147401,72.5278531 C36.4841185,72.6972315 36.6196213,72.9004857 36.4502428,73.2731183 C35.7049777,74.6281459 34.790334,75.3056597 33.7063119,74.8314 C32.9949224,74.5265188 32.6561655,73.4763724 32.2835329,72.5617288 C32.0802788,71.985842 31.944776,71.3760796 31.7415219,70.7324415 Z" id="Shape" fill="#111820" fill-rule="nonzero"></path>
                            <path d="M62.7377786,70.7324415 C63.1781626,70.0888034 63.7201736,70.2920575 64.228309,70.0888034 C65.210704,69.7161708 65.8204664,70.9356956 66.5318559,71.6809608 C66.8028614,71.9519664 67.0738669,72.2568476 67.3109968,72.5278531 C67.4803752,72.6972315 67.615878,72.9004857 67.4464995,73.2731183 C66.7012343,74.6281459 65.7865907,75.3056597 64.7025686,74.8314 C63.9911791,74.5265188 63.6524222,73.4763724 63.2797896,72.5617288 C63.0765355,71.985842 62.9410327,71.3760796 62.7377786,70.7324415 Z" id="Shape" fill="#111820" fill-rule="nonzero"></path>
                        </g>
                    </g>
                </g>
            </g>
            <path d="M28.9637153,60.40914 L32.7577926,60.40914 C32.7577926,61.0527782 32.8932954,61.4592864 33.1304252,61.6286649 C33.3336793,61.7641677 33.5708092,61.831919 33.8418147,61.831919 C34.1466959,61.8657947 35.0952152,61.8657947 36.653497,61.8657947 C38.3134058,61.8657947 39.2958008,61.8657947 39.6345577,61.831919 C39.9733146,61.7980433 40.2443202,61.7641677 40.4136986,61.6964163 C40.7185798,61.5609135 40.8540826,61.2560323 40.8540826,60.7140213 C40.8540826,60.3413887 40.7524555,60.0703831 40.5492014,59.9348804 C40.3459472,59.7993776 39.939439,59.7316262 39.2958008,59.7316262 C38.8215412,59.7316262 37.7713948,59.6977505 36.213113,59.6299992 C34.6209556,59.5622478 33.5708092,59.4944964 33.0965495,59.4944964 C32.1480302,59.4606207 31.4366407,59.3589936 30.9285053,59.2234909 C30.42037,59.0879881 30.0477374,58.8169826 29.7428561,58.5121014 C29.2685965,57.9700903 29.0314667,57.021571 29.0314667,55.7342948 C29.0314667,54.2776401 29.3024722,53.2613694 29.8444832,52.6516069 C30.2509915,52.1773473 30.9285053,51.9063418 31.7753976,51.770839 C32.6561655,51.6353362 34.4177014,51.5675849 37.093881,51.5675849 C38.9909196,51.5675849 40.3120715,51.6353362 41.0912124,51.7369633 C42.2768616,51.9063418 43.0898782,52.2450987 43.5302621,52.7193583 C43.9706461,53.193618 44.1739002,54.0405102 44.1739002,55.1922837 C44.1739002,55.2939108 44.1739002,55.4971649 44.1739002,55.8020461 L40.3798229,55.8020461 C40.3798229,55.4294136 40.3459472,55.1922837 40.2781959,55.056781 C40.2443202,54.9212782 40.1426931,54.8196511 40.0071903,54.7518997 C39.8378119,54.6502727 39.5329307,54.5825213 39.1264224,54.5486456 C38.6860384,54.5147699 37.8052705,54.5147699 36.4163672,54.5147699 C34.7564583,54.5147699 33.7401876,54.5825213 33.367555,54.6841484 C32.9949224,54.7857754 32.825544,55.056781 32.825544,55.5310406 C32.825544,55.9714246 32.9949224,56.2424301 33.367555,56.3440572 C33.6724362,56.4118086 35.0613395,56.5134356 37.5342649,56.581187 C39.600682,56.6489384 40.9895854,56.7166898 41.7009749,56.8183169 C42.4123644,56.8860682 42.9543754,57.0554467 43.3947594,57.2925765 C43.869019,57.563582 44.2077759,57.9700903 44.3771544,58.44435 C44.5804085,58.9186097 44.6820356,59.6299992 44.6820356,60.5785185 C44.6820356,61.7980433 44.5126572,62.6788113 44.2077759,63.2885737 C43.9706461,63.7289577 43.6318892,64.0338389 43.1915052,64.2709687 C42.7511213,64.4742229 42.1413588,64.6436013 41.3622179,64.7113527 C40.5153257,64.7791041 38.9231682,64.8129798 36.6196213,64.8129798 C34.6887069,64.8129798 33.2659279,64.7791041 32.3174086,64.677477 C31.402765,64.57585 30.6913755,64.4064715 30.2509915,64.135466 C29.7767318,63.8644605 29.4379749,63.4918279 29.2347208,63.0514439 C29.0653423,62.6110599 28.9637153,61.8996704 28.9637153,60.9850268 L28.9637153,60.40914 L28.9637153,60.40914 Z" id="Shape" fill="#EB8B23"></path>
            <path d="M60.0277233,64.677477 L58.9098256,62.5094328 L50.4070273,62.5094328 L49.2891295,64.677477 L44.8175384,64.677477 L51.6265521,51.8047147 L57.7241764,51.8047147 L64.4654388,64.677477 L60.0277233,64.677477 Z M57.5547979,59.6638749 L55.0818726,54.7857754 L54.3027317,54.7857754 L51.8298063,59.6638749 L57.5547979,59.6638749 Z" id="Shape" fill="#EB8B23"></path>
            <polygon id="Shape" fill="#EB8B23" points="65.0413255 51.8047147 78.6593531 51.8047147 78.6593531 54.8196511 68.9709056 54.8196511 68.9709056 57.2587008 78.1850934 57.2587008 78.1850934 60.2058859 68.9709056 60.2058859 68.9709056 64.677477 65.0413255 64.677477"></polygon>
            <polygon id="Shape" fill="#EB8B23" points="79.540121 51.8047147 93.8017867 51.8047147 93.8017867 54.8196511 83.4019497 54.8196511 83.4019497 56.6828141 93.2597756 56.6828141 93.2597756 59.5283721 83.4019497 59.5283721 83.4019497 61.5609135 93.869538 61.5609135 93.869538 64.677477 79.540121 64.677477"></polygon>
            <polygon id="Shape" fill="#EB8B23" points="95.0213115 51.8047147 110.570253 51.8047147 110.570253 55.0906566 104.879137 55.0906566 104.879137 64.677477 100.746303 64.677477 100.746303 55.0906566 95.0213115 55.0906566"></polygon>
            <polygon id="Shape" fill="#EB8B23" points="107.724695 51.8047147 112.8738 51.8047147 117.04051 56.9538196 121.071717 51.8047147 126.186947 51.8047147 119.140803 60.1042588 119.140803 64.677477 115.07572 64.677477 115.07572 60.1042588"></polygon>
            <rect id="Rectangle-path" fill="#EB8B23" x="0.0338756904" y="57.2587008" width="26.3552871" height="2.94718506"></rect>
            <rect id="Rectangle-path" fill="#EB8B23" x="126.254698" y="57.2587008" width="26.3552871" height="2.94718506"></rect>
            <g id="Group" transform="translate(5.420110, 68.437679)" fill="#111820">
                <polygon id="Shape" points="0.271005523 0.135502762 7.41877619 0.135502762 7.41877619 1.72766021 2.30354695 1.72766021 2.30354695 3.01493644 7.14777067 3.01493644 7.14777067 4.5732182 2.30354695 4.5732182 2.30354695 6.91064084 0.271005523 6.91064084"></polygon>
                <polygon id="Shape" points="7.85916017 0.135502762 10.0272044 0.135502762 10.0272044 5.18298063 14.8375524 5.18298063 14.8375524 6.91064084 7.85916017 6.91064084"></polygon>
                <polygon id="Shape" points="15.311812 0.135502762 22.7983396 0.135502762 22.7983396 1.72766021 17.3443535 1.72766021 17.3443535 2.71005523 22.5273341 2.71005523 22.5273341 4.20058561 17.3443535 4.20058561 17.3443535 5.2846077 22.8322153 5.2846077 22.8322153 6.91064084 15.311812 6.91064084"></polygon>
                <polygon id="Shape" points="23.4758534 0.135502762 30.962381 0.135502762 30.962381 1.72766021 25.5083949 1.72766021 25.5083949 2.71005523 30.6913755 2.71005523 30.6913755 4.20058561 25.5083949 4.20058561 25.5083949 5.2846077 30.9962567 5.2846077 30.9962567 6.91064084 23.4758534 6.91064084"></polygon>
                <polygon id="Shape" points="31.1656351 0.135502762 39.3635522 0.135502762 39.3635522 1.86316297 36.3486158 1.86316297 36.3486158 6.91064084 34.1805716 6.91064084 34.1805716 1.86316297 31.1656351 1.86316297"></polygon>
                <polygon id="Shape" points="42.3784887 0.135502762 46.1048146 0.135502762 48.1034803 4.53934251 50.1021461 0.135502762 53.828472 0.135502762 53.828472 6.91064084 51.7959306 6.91064084 51.863682 1.82928728 51.5249251 1.82928728 48.9503726 6.91064084 47.2565881 6.91064084 44.7159113 1.82928728 44.3432787 1.82928728 44.3771544 6.91064084 42.3784887 6.91064084"></polygon>
                <path d="M62.1280161,6.91064084 L61.5521294,5.75886736 L57.0805383,5.75886736 L56.5046515,6.91064084 L54.1672289,6.91064084 L57.7580521,0.169378452 L60.942367,0.169378452 L64.4654388,6.91064084 L62.1280161,6.91064084 Z M60.8068642,4.26833699 L59.519588,1.69378452 L59.1130797,1.69378452 L57.8258035,4.26833699 L60.8068642,4.26833699 Z" id="Shape"></path>
                <polygon id="Shape" points="64.77032 0.135502762 68.3611432 0.135502762 71.9180907 5.18298063 72.1213448 5.18298063 72.0535934 0.135502762 74.1538862 0.135502762 74.1538862 6.91064084 70.5969387 6.91064084 67.0399913 1.86316297 66.8028614 1.86316297 66.8367371 6.91064084 64.77032 6.91064084"></polygon>
                <path d="M82.4534304,6.91064084 L81.8775436,5.75886736 L77.4059525,5.75886736 L76.8300658,6.91064084 L74.4926431,6.91064084 L78.0834663,0.169378452 L81.2677812,0.169378452 L84.790853,6.91064084 L82.4534304,6.91064084 Z M81.1322784,4.26833699 L79.8450022,1.69378452 L79.4384939,1.69378452 L78.1512177,4.26833699 L81.1322784,4.26833699 Z" id="Shape"></path>
                <path d="M89.1946928,3.08268782 L93.9034137,3.08268782 C93.9034137,3.1843149 93.9034137,3.25206628 93.9034137,3.25206628 C93.9034137,4.20058561 93.869538,4.9119751 93.8356623,5.42011046 C93.767911,6.19925134 93.327527,6.673511 92.5145104,6.84288946 C92.1757535,6.91064084 91.7692452,6.94451653 91.3288613,6.97839222 C90.8884773,7.01226791 90.2109635,7.01226791 89.2963198,7.01226791 C88.1445464,7.01226791 87.2976541,6.97839222 86.8233944,6.91064084 C86.3491348,6.84288946 85.9765022,6.70738669 85.671621,6.53800824 C85.4683668,6.40250548 85.3328641,6.23312703 85.231237,6.02987289 C85.1296099,5.82661874 85.0618585,5.55561322 85.0279828,5.21685632 C84.9941072,4.9119751 84.9602315,4.30221268 84.9602315,3.38756904 C84.9602315,2.77780661 84.9602315,2.30354695 84.9941072,1.99866573 C85.0279828,1.69378452 85.0957342,1.38890331 85.1973613,1.15177347 C85.4006154,0.643638117 85.8071237,0.304881213 86.4507618,0.203254142 C87.1282756,0.0677513808 88.2122977,0.0338756904 89.6350767,0.0338756904 C90.481969,0.0338756904 91.1594828,0.0677513808 91.6676182,0.101627071 C92.1757535,0.135502762 92.5822618,0.203254142 92.887143,0.304881213 C93.3952784,0.474259665 93.7340353,0.813016569 93.8356623,1.35502762 C93.9034137,1.62603314 93.9034137,1.99866573 93.9034137,2.4729254 L91.8369966,2.4729254 C91.8369966,2.26967126 91.8369966,2.16804418 91.8031209,2.1002928 C91.7692452,2.03254142 91.7353695,1.96479004 91.6676182,1.93091435 C91.5659911,1.86316297 91.2949856,1.79541159 90.9562287,1.7615359 C90.6174718,1.72766021 90.1093364,1.72766021 89.4656983,1.72766021 C88.7543088,1.72766021 88.2461734,1.72766021 87.9412922,1.7615359 C87.636411,1.79541159 87.4331569,1.86316297 87.3315298,1.93091435 C87.2299027,2.03254142 87.1282756,2.16804418 87.0944,2.37129833 C87.0605243,2.57455247 87.0266486,2.94718506 87.0266486,3.45532042 C87.0266486,4.03120715 87.0605243,4.43771544 87.0944,4.64096958 C87.1282756,4.87809941 87.196027,5.01360218 87.3315298,5.11522925 C87.4331569,5.21685632 87.6025353,5.25073201 87.7719138,5.2846077 C87.9412922,5.2846077 88.517179,5.31848339 89.4656983,5.31848339 C90.4142176,5.31848339 90.9562287,5.31848339 91.1594828,5.2846077 C91.3627369,5.2846077 91.5321154,5.25073201 91.6337425,5.18298063 C91.7353695,5.14910494 91.8031209,5.08135356 91.8369966,4.97972649 C91.8708723,4.87809941 91.904748,4.74259665 91.904748,4.53934251 C91.904748,4.50546682 91.904748,4.43771544 91.904748,4.33608837 L89.1946928,4.33608837 L89.1946928,3.08268782 Z" id="Shape"></path>
                <polygon id="Shape" points="94.7164303 0.135502762 102.202958 0.135502762 102.202958 1.72766021 96.7489717 1.72766021 96.7489717 2.71005523 101.931952 2.71005523 101.931952 4.20058561 96.7489717 4.20058561 96.7489717 5.2846077 102.236834 5.2846077 102.236834 6.91064084 94.7164303 6.91064084"></polygon>
                <polygon id="Shape" points="102.880472 0.135502762 106.606798 0.135502762 108.639339 4.53934251 110.638005 0.135502762 114.364331 0.135502762 114.364331 6.91064084 112.331789 6.91064084 112.365665 1.82928728 112.026908 1.82928728 109.486231 6.91064084 107.792447 6.91064084 105.217894 1.82928728 104.879137 1.82928728 104.913013 6.91064084 102.880472 6.91064084"></polygon>
                <polygon id="Shape" points="115.31285 0.135502762 122.799378 0.135502762 122.799378 1.72766021 117.345391 1.72766021 117.345391 2.71005523 122.494496 2.71005523 122.494496 4.20058561 117.345391 4.20058561 117.345391 5.2846077 122.833253 5.2846077 122.833253 6.91064084 115.31285 6.91064084"></polygon>
                <polygon id="Shape" points="123.476891 0.135502762 127.067715 0.135502762 130.624662 5.18298063 130.827916 5.18298063 130.794041 0.135502762 132.860458 0.135502762 132.860458 6.91064084 129.30351 6.91064084 125.746563 1.86316297 125.509433 1.86316297 125.577184 6.91064084 123.476891 6.91064084"></polygon>
                <polygon id="Shape" points="133.334717 0.135502762 141.532634 0.135502762 141.532634 1.86316297 138.517698 1.86316297 138.517698 6.91064084 136.349654 6.91064084 136.349654 1.86316297 133.334717 1.86316297"></polygon>
            </g>
        </g>
    </g>
</svg>