<?xml version="1.0" encoding="UTF-8"?>
<svg width="106px" height="56px" viewBox="0 0 106 56" version="1.1" xmlns="http://www.w3.org/2000/svg" xmlns:xlink="http://www.w3.org/1999/xlink">
    <!-- Generator: Sketch 47.1 (45422) - http://www.bohemiancoding.com/sketch -->
    <title>Jaco Royale Logo svg</title>
    <desc>Created with Sketch.</desc>
    <defs>
        <linearGradient x1="13.0653234%" y1="4.26063559%" x2="96.2701187%" y2="95.7393644%" id="linearGradient-1">
            <stop stop-color="#D44158" offset="0%"></stop>
            <stop stop-color="#AC0112" offset="100%"></stop>
        </linearGradient>
        <linearGradient x1="75.8183429%" y1="18.8188714%" x2="14.1845135%" y2="100%" id="linearGradient-2">
            <stop stop-color="#F54562" offset="0%"></stop>
            <stop stop-color="#AC0112" offset="100%"></stop>
        </linearGradient>
        <linearGradient x1="59.4040502%" y1="18.8329936%" x2="18.4001215%" y2="97.4160057%" id="linearGradient-3">
            <stop stop-color="#FD7D6D" offset="0%"></stop>
            <stop stop-color="#FF0D00" offset="100%"></stop>
        </linearGradient>
        <linearGradient x1="62.2006819%" y1="29.4748238%" x2="9.00276419%" y2="81.2260298%" id="linearGradient-4">
            <stop stop-color="#FD7D6D" offset="0%"></stop>
            <stop stop-color="#FF0D00" offset="100%"></stop>
        </linearGradient>
        <path d="M4.24371028,0.0496756779 C3.07441563,2.4534005 1.67564074,4.21733944 0.0473856668,5.34149248 C2.27581116,7.19764064 3.69086025,8.94636299 4.2925329,10.5876595 C5.55257366,7.97669138 6.98809764,6.22827228 8.59910483,5.34240217 C7.53524475,4.721003 6.71980972,4.07225807 6.15279973,3.3961674 C5.51214124,2.63225981 4.87577809,1.51676257 4.24371028,0.0496756779 Z" id="path-5"></path>
        <linearGradient x1="50%" y1="18.149193%" x2="70.3297201%" y2="87.5891583%" id="linearGradient-7">
            <stop stop-color="#FF0C00" offset="0%"></stop>
            <stop stop-color="#D8D8D8" offset="100%"></stop>
        </linearGradient>
        <linearGradient x1="59.6668651%" y1="26.4704184%" x2="24.823278%" y2="92.3981702%" id="linearGradient-8">
            <stop stop-color="#FD7D6D" offset="0%"></stop>
            <stop stop-color="#FE0D00" offset="100%"></stop>
        </linearGradient>
        <linearGradient x1="62.5416542%" y1="34.5044852%" x2="17.3360767%" y2="77.9215111%" id="linearGradient-9">
            <stop stop-color="#FD7D6D" offset="0%"></stop>
            <stop stop-color="#FE0D00" offset="100%"></stop>
        </linearGradient>
        <path d="M4.24371028,0.129675678 C3.07441563,2.5334005 1.67564074,4.29733944 0.0473856668,5.42149248 C2.27581116,7.27764064 3.69086025,9.02636299 4.2925329,10.6676595 C5.55257366,8.05669138 6.98809764,6.30827228 8.59910483,5.42240217 C7.53524475,4.801003 6.71980972,4.15225807 6.15279973,3.4761674 C5.51214124,2.71225981 4.87577809,1.59676257 4.24371028,0.129675678 Z" id="path-10"></path>
        <linearGradient x1="13.0653234%" y1="10.4495647%" x2="96.2701187%" y2="89.5504353%" id="linearGradient-12">
            <stop stop-color="#D44158" offset="0%"></stop>
            <stop stop-color="#AC0112" offset="100%"></stop>
        </linearGradient>
        <linearGradient x1="78.2605779%" y1="20.3190303%" x2="10.7966185%" y2="97.5944441%" id="linearGradient-13">
            <stop stop-color="#F54562" offset="0%"></stop>
            <stop stop-color="#AC0112" offset="100%"></stop>
        </linearGradient>
        <linearGradient x1="61.0418315%" y1="18.9504141%" x2="44.4264579%" y2="87.2192071%" id="linearGradient-14">
            <stop stop-color="#F7AFA6" offset="0%"></stop>
            <stop stop-color="#FF0D00" offset="100%"></stop>
        </linearGradient>
        <linearGradient x1="64.3255162%" y1="29.5521516%" x2="42.7689653%" y2="74.510881%" id="linearGradient-15">
            <stop stop-color="#F7AFA6" offset="0%"></stop>
            <stop stop-color="#FF0D00" offset="100%"></stop>
        </linearGradient>
        <path d="M4.24371028,0.129675678 C3.07441563,2.5334005 1.67564074,4.29733944 0.0473856668,5.42149248 C2.27581116,7.27764064 3.69086025,9.02636299 4.2925329,10.6676595 C5.55257366,8.05669138 6.98809764,6.30827228 8.59910483,5.42240217 C7.53524475,4.801003 6.71980972,4.15225807 6.15279973,3.4761674 C5.51214124,2.71225981 4.87577809,1.59676257 4.24371028,0.129675678 Z" id="path-16"></path>
        <linearGradient x1="67.1302532%" y1="18.7820113%" x2="29.4854526%" y2="71.9028699%" id="linearGradient-18">
            <stop stop-color="#FF0C00" offset="0%"></stop>
            <stop stop-color="#D8D8D8" offset="100%"></stop>
        </linearGradient>
        <linearGradient x1="25.3115384%" y1="22.9073886%" x2="71.4620263%" y2="85.4501571%" id="linearGradient-19">
            <stop stop-color="#FD7D6D" offset="0%"></stop>
            <stop stop-color="#FF0D00" offset="100%"></stop>
        </linearGradient>
        <linearGradient x1="17.9695388%" y1="32.1580355%" x2="77.8445296%" y2="73.3458649%" id="linearGradient-20">
            <stop stop-color="#FD7D6D" offset="0%"></stop>
            <stop stop-color="#FF0D00" offset="100%"></stop>
        </linearGradient>
        <path d="M4.24371028,0.129675678 C3.07441563,2.5334005 1.67564074,4.29733944 0.0473856668,5.42149248 C2.27581116,7.27764064 3.69086025,9.02636299 4.2925329,10.6676595 C5.55257366,8.05669138 6.98809764,6.30827228 8.59910483,5.42240217 C7.53524475,4.801003 6.71980972,4.15225807 6.15279973,3.4761674 C5.51214124,2.71225981 4.87577809,1.59676257 4.24371028,0.129675678 Z" id="path-21"></path>
        <linearGradient x1="128.123963%" y1="44.7732002%" x2="4.85851605%" y2="56.5580111%" id="linearGradient-23">
            <stop stop-color="#FF0C00" offset="0%"></stop>
            <stop stop-color="#D8D8D8" offset="100%"></stop>
        </linearGradient>
        <linearGradient x1="36.0814094%" y1="29.0311444%" x2="101.886832%" y2="62.3911308%" id="linearGradient-24">
            <stop stop-color="#FD7D6D" offset="0%"></stop>
            <stop stop-color="#FF0D00" offset="100%"></stop>
        </linearGradient>
        <linearGradient x1="31.9422172%" y1="36.1908632%" x2="117.317243%" y2="58.1602365%" id="linearGradient-25">
            <stop stop-color="#FD7D6D" offset="0%"></stop>
            <stop stop-color="#FF0D00" offset="100%"></stop>
        </linearGradient>
        <path d="M4.24371028,0.129675678 C3.07441563,2.5334005 1.67564074,4.29733944 0.0473856668,5.42149248 C2.27581116,7.27764064 3.69086025,9.02636299 4.2925329,10.6676595 C5.55257366,8.05669138 6.98809764,6.30827228 8.59910483,5.42240217 C7.53524475,4.801003 6.71980972,4.15225807 6.15279973,3.4761674 C5.51214124,2.71225981 4.87577809,1.59676257 4.24371028,0.129675678 Z" id="path-26"></path>
    </defs>
    <g id="Page-1" stroke="none" stroke-width="1" fill="none" fill-rule="evenodd">
        <g id="z" transform="translate(-243.000000, -33.000000)">
            <g id="Jaco-Royale-Logo-svg" transform="translate(243.000000, 32.000000)">
                <g id="Group" transform="translate(17.616318, 0.000000)">
                    <g id="A" transform="translate(56.872245, 14.613463)">
                        <g id="Diamond1-Copy-4" transform="translate(8.548452, 12.408673) scale(-1, 1) rotate(-40.000000) translate(-8.548452, -12.408673) translate(2.868452, 5.968673)">
                            <path d="M1.46015314,6.28137232 L0.000902645387,6.29374268 C2.34465101,7.97361918 4.20258114,10.158671 5.57469309,12.8488981 L6.28238072,12.477519 L4.62525601,6.28137232 L1.46015314,6.28137232 Z" id="Path-4" fill="url(#linearGradient-1)" fill-rule="nonzero"></path>
                            <path d="M6.2249037,0.0650445217 L5.07232197,0.368452801 C3.53215362,3.0567357 1.84151684,5.0318705 0.000411653334,6.29385721 C1.50335307,6.30120541 2.25482379,6.30487952 2.25482379,6.30487952 C5.10407574,2.87642585 6.52870171,1.16219903 6.52870171,1.16219903 L6.2249037,0.0650445217 Z" id="Path-3" fill="url(#linearGradient-2)" fill-rule="nonzero"></path>
                            <path d="M6.223559,0.0651502513 C4.85299088,2.89693565 3.21344161,4.97500071 1.30491119,6.29934539 C3.91692078,8.48604049 5.57554556,10.5461791 6.28078556,12.4797614 C7.75772007,9.40382631 9.44034416,7.34404487 11.3286578,6.30041708 C10.081673,5.5683578 9.12587522,4.80408294 8.46126446,4.00759256 C7.71032792,3.10764664 6.96442609,1.7934992 6.223559,0.0651502513 Z" id="Path-Copy" fill="#E12219" fill-rule="nonzero"></path>
                            <g id="Oval-3" transform="translate(1.982247, 0.801610)">
                                <g id="Mask" fill-rule="nonzero" fill="url(#linearGradient-4)">
                                    <path d="M4.24371028,0.129675678 C3.07441563,2.5334005 1.67564074,4.29733944 0.0473856668,5.42149248 C2.27581116,7.27764064 3.69086025,9.02636299 4.2925329,10.6676595 C5.55257366,8.05669138 6.98809764,6.30827228 8.59910483,5.42240217 C7.53524475,4.801003 6.71980972,4.15225807 6.15279973,3.4761674 C5.51214124,2.71225981 4.87577809,1.59676257 4.24371028,0.129675678 Z" id="path-4"></path>
                                </g>
                                <g id="Clipped" transform="translate(0.000000, 0.080000)">
                                    <mask id="mask-6" fill="white">
                                        <use xlink:href="#path-5"></use>
                                    </mask>
                                    <g id="path-4"></g>
                                    <ellipse id="Oval" fill="url(#linearGradient-7)" fill-rule="nonzero" opacity="0.35863904" mask="url(#mask-6)" transform="translate(2.692541, 3.067543) rotate(-4.000000) translate(-2.692541, -3.067543) " cx="2.69254114" cy="3.0675433" rx="3.71991687" ry="3.63336569"></ellipse>
                                </g>
                            </g>
                        </g>
                        <g id="Group" transform="translate(15.322256, 4.372973) rotate(39.000000) translate(-15.322256, -4.372973) translate(12.822256, 0.872973)" font-size="5.28489555" font-family=".SFNSDisplay, .SF NS Display" fill="#FD1E12" font-weight="normal">
                            <text id="A">
                                <tspan x="0.0753787735" y="5.01686335">A</tspan>
                            </text>
                        </g>
                    </g>
                    <g id="K" transform="translate(44.438631, 4.343876)">
                        <g id="Diamond1-Copy" transform="translate(8.674657, 13.375757) scale(-1, 1) rotate(-30.000000) translate(-8.674657, -13.375757) translate(2.712873, 6.496776)">
                            <path d="M1.45974149,6.36057801 L0.000490992054,6.37294837 C2.34423935,8.05282487 4.20216949,10.2378767 5.57428143,12.9281038 L6.28196907,12.5567247 L4.62484436,6.36057801 L1.45974149,6.36057801 Z" id="Path-4" fill="url(#linearGradient-1)" fill-rule="nonzero"></path>
                            <path d="M6.22449204,0.144250214 L5.07191032,0.447658493 C3.53174197,3.13594139 1.84110519,5.11107619 5.68434189e-14,6.3730629 C1.50294142,6.3804111 2.25441214,6.38408521 2.25441214,6.38408521 C5.10366408,2.95563154 6.52829006,1.24140472 6.52829006,1.24140472 L6.22449204,0.144250214 Z" id="Path-3" fill="url(#linearGradient-2)" fill-rule="nonzero"></path>
                            <path d="M6.22314734,0.144355943 C4.85257922,2.97614134 3.21302996,5.0542064 1.30449953,6.37855109 C3.91650912,8.56524618 5.57513391,10.6253848 6.28037391,12.5589671 C7.75730842,9.483032 9.43993251,7.42325056 11.3282461,6.37962277 C10.0812613,5.64756349 9.12546356,4.88328863 8.4608528,4.08679826 C7.70991627,3.18685233 6.96401444,1.87270489 6.22314734,0.144355943 Z" id="Path-Copy" fill="#E12219" fill-rule="nonzero"></path>
                            <g id="Oval-3" transform="translate(1.981836, 0.880816)">
                                <g id="Mask" fill-rule="nonzero" fill="url(#linearGradient-9)">
                                    <path d="M4.24371028,0.129675678 C3.07441563,2.5334005 1.67564074,4.29733944 0.0473856668,5.42149248 C2.27581116,7.27764064 3.69086025,9.02636299 4.2925329,10.6676595 C5.55257366,8.05669138 6.98809764,6.30827228 8.59910483,5.42240217 C7.53524475,4.801003 6.71980972,4.15225807 6.15279973,3.4761674 C5.51214124,2.71225981 4.87577809,1.59676257 4.24371028,0.129675678 Z" id="path-9"></path>
                                </g>
                                <g id="Clipped">
                                    <mask id="mask-11" fill="white">
                                        <use xlink:href="#path-10"></use>
                                    </mask>
                                    <g id="path-9"></g>
                                    <ellipse id="Oval" fill="url(#linearGradient-7)" fill-rule="nonzero" opacity="0.35863904" mask="url(#mask-11)" transform="translate(2.432605, 2.977377) rotate(-4.000000) translate(-2.432605, -2.977377) " cx="2.43260528" cy="2.97737658" rx="3.71991687" ry="3.63336569"></ellipse>
                                </g>
                            </g>
                        </g>
                        <g id="Group" transform="translate(14.626212, 4.301689) rotate(31.000000) translate(-14.626212, -4.301689) translate(12.126212, 0.801689)" font-size="5.28489555" font-family=".SFNSDisplay, .SF NS Display" fill="#FD1E12" font-weight="normal">
                            <text id="K">
                                <tspan x="0.0716522836" y="5.01084075">K</tspan>
                            </text>
                        </g>
                    </g>
                    <g id="Q" transform="translate(33.250801, 0.000000)">
                        <g id="Diamond1-Copy-2" transform="translate(0.000000, 7.707139)">
                            <path d="M1.01933353,6.36057801 L0.000490992054,6.37294837 C2.34423935,8.05282487 4.20216949,10.2378767 5.57428143,12.9281038 L5.84156111,12.5567247 L4.18443639,6.36057801 L1.01933353,6.36057801 Z" id="Path-4" fill="url(#linearGradient-12)" fill-rule="nonzero"></path>
                            <path d="M5.78408408,0.144250214 L5.07191032,0.447658493 C3.53174197,3.13594139 1.84110519,5.11107619 0,6.3730629 C1.20933611,6.3804111 1.81400416,6.38408521 1.81400416,6.38408521 C4.66325612,2.95563154 6.08788209,1.24140472 6.08788209,1.24140472 L5.78408408,0.144250214 Z" id="Path-3" fill="url(#linearGradient-13)" fill-rule="nonzero"></path>
                            <path d="M5.78273938,0.144355943 C4.41217126,2.97614134 2.772622,5.0542064 0.864091571,6.37855109 C3.47610116,8.56524618 5.13472595,10.6253848 5.83996595,12.5589671 C7.31690045,9.483032 8.99952455,7.42325056 10.8878382,6.37962277 C9.64085336,5.64756349 8.6850556,4.88328863 8.02044484,4.08679826 C7.26950831,3.18685233 6.52360647,1.87270489 5.78273938,0.144355943 Z" id="Path-Copy" fill="#E12219" fill-rule="nonzero"></path>
                            <g id="Oval-3" transform="translate(1.541428, 0.880816)">
                                <g id="Mask" fill-rule="nonzero" fill="url(#linearGradient-15)">
                                    <path d="M4.24371028,0.129675678 C3.07441563,2.5334005 1.67564074,4.29733944 0.0473856668,5.42149248 C2.27581116,7.27764064 3.69086025,9.02636299 4.2925329,10.6676595 C5.55257366,8.05669138 6.98809764,6.30827228 8.59910483,5.42240217 C7.53524475,4.801003 6.71980972,4.15225807 6.15279973,3.4761674 C5.51214124,2.71225981 4.87577809,1.59676257 4.24371028,0.129675678 Z" id="path-13"></path>
                                </g>
                                <g id="Clipped">
                                    <mask id="mask-17" fill="white">
                                        <use xlink:href="#path-16"></use>
                                    </mask>
                                    <g id="path-13"></g>
                                    <ellipse id="Oval" fill="url(#linearGradient-18)" fill-rule="nonzero" opacity="0.261379076" mask="url(#mask-17)" cx="6.05560948" cy="2.97275375" rx="3.19295773" ry="3.63336569"></ellipse>
                                </g>
                            </g>
                        </g>
                        <g id="Group" transform="translate(4.183876, 0.000000)" font-size="5.28489555" font-family=".SFNSDisplay, .SF NS Display" fill="#FD1E12" font-weight="normal">
                            <text id="Q">
                                <tspan x="0" y="5">Q</tspan>
                            </text>
                        </g>
                    </g>
                    <g id="J" transform="translate(15.133871, 3.220487)">
                        <g id="Diamond1" transform="translate(9.043804, 14.504553) rotate(-30.000000) translate(-9.043804, -14.504553) translate(3.082020, 7.625573)">
                            <path d="M1.46299522,6.35621214 L0.0037447221,6.3685825 C2.34749308,8.048459 4.20542322,10.2335108 5.57753516,12.9237379 L6.2852228,12.5523588 L4.62809809,6.35621214 L1.46299522,6.35621214 Z" id="Path-4" fill="url(#linearGradient-1)" fill-rule="nonzero"></path>
                            <path d="M6.22774577,0.139884342 L5.07516405,0.443292621 C3.5349957,3.13157552 1.84435892,5.10671032 0.00325373005,6.36869703 C1.50619515,6.37604523 2.25766587,6.37971934 2.25766587,6.37971934 C5.10691781,2.95126567 6.53154379,1.23703885 6.53154379,1.23703885 L6.22774577,0.139884342 Z" id="Path-3" fill="url(#linearGradient-2)" fill-rule="nonzero"></path>
                            <path d="M6.22640107,0.139990071 C4.85583295,2.97177547 3.21628369,5.04984053 1.30775326,6.37418521 C3.91976285,8.56088031 5.57838764,10.621019 6.28362764,12.5546012 C7.76056215,9.47866613 9.44318624,7.41888469 11.3314999,6.3752569 C10.0845151,5.64319762 9.12871729,4.87892276 8.46410653,4.08243238 C7.71317,3.18248646 6.96726817,1.86833902 6.22640107,0.139990071 Z" id="Path-Copy" fill="#E12219" fill-rule="nonzero"></path>
                            <g id="Oval-3" transform="translate(1.985090, 0.876450)">
                                <g id="Mask" fill-rule="nonzero" fill="url(#linearGradient-20)">
                                    <path d="M4.24371028,0.129675678 C3.07441563,2.5334005 1.67564074,4.29733944 0.0473856668,5.42149248 C2.27581116,7.27764064 3.69086025,9.02636299 4.2925329,10.6676595 C5.55257366,8.05669138 6.98809764,6.30827228 8.59910483,5.42240217 C7.53524475,4.801003 6.71980972,4.15225807 6.15279973,3.4761674 C5.51214124,2.71225981 4.87577809,1.59676257 4.24371028,0.129675678 Z" id="path-18"></path>
                                </g>
                                <g id="Clipped">
                                    <mask id="mask-22" fill="white">
                                        <use xlink:href="#path-21"></use>
                                    </mask>
                                    <g id="path-18"></g>
                                    <ellipse id="Oval" fill="url(#linearGradient-23)" fill-rule="nonzero" opacity="0.261379076" mask="url(#mask-22)" transform="translate(5.816697, 3.617237) rotate(-24.000000) translate(-5.816697, -3.617237) " cx="5.81669675" cy="3.61723746" rx="3.19295773" ry="3.63336569"></ellipse>
                                </g>
                            </g>
                        </g>
                        <g id="Group" transform="translate(3.984196, 4.609224) rotate(-30.000000) translate(-3.984196, -4.609224) translate(1.484196, 1.109224)" font-size="5.28489555" font-family=".SFNSDisplay, .SF NS Display" fill="#FD1E12" font-weight="normal">
                            <text id="J">
                                <tspan x="0.0449806691" y="5.06821043">J</tspan>
                            </text>
                        </g>
                    </g>
                    <g id="10" transform="translate(0.000000, 12.549054)">
                        <g id="Diamond1-Copy-3" transform="translate(12.095597, 14.574730) rotate(-40.000000) translate(-12.095597, -14.574730) translate(6.133814, 7.695750)">
                            <path d="M1.46646114,6.3565092 L0.0072106428,6.36887955 C2.350959,8.04875605 4.20888914,10.2338079 5.58100108,12.924035 L6.28868872,12.5526559 L4.63156401,6.3565092 L1.46646114,6.3565092 Z" id="Path-4" fill="url(#linearGradient-1)" fill-rule="nonzero"></path>
                            <path d="M6.23121169,0.140181397 L5.07862997,0.443589677 C3.53846162,3.13187257 1.84782484,5.10700738 0.00671965074,6.36899408 C1.50966107,6.37634229 2.26113179,6.38001639 2.26113179,6.38001639 C5.11038373,2.95156273 6.53500971,1.23733591 6.53500971,1.23733591 L6.23121169,0.140181397 Z" id="Path-3" fill="url(#linearGradient-2)" fill-rule="nonzero"></path>
                            <path d="M6.229867,0.140287127 C4.85929888,2.97207253 3.21974961,5.05013758 1.31121918,6.37448227 C3.92322877,8.56117737 5.58185356,10.621316 6.28709356,12.5548982 C7.76402807,9.47896318 9.44665216,7.41918175 11.3349658,6.37555396 C10.087981,5.64349467 9.13218321,4.87921981 8.46757245,4.08272944 C7.71663592,3.18278351 6.97073409,1.86863607 6.229867,0.140287127 Z" id="Path-Copy" fill="#E12219" fill-rule="nonzero"></path>
                            <g id="Oval-3" transform="translate(1.988555, 0.876747)">
                                <g id="Mask" fill-rule="nonzero" fill="url(#linearGradient-25)">
                                    <path d="M4.24371028,0.129675678 C3.07441563,2.5334005 1.67564074,4.29733944 0.0473856668,5.42149248 C2.27581116,7.27764064 3.69086025,9.02636299 4.2925329,10.6676595 C5.55257366,8.05669138 6.98809764,6.30827228 8.59910483,5.42240217 C7.53524475,4.801003 6.71980972,4.15225807 6.15279973,3.4761674 C5.51214124,2.71225981 4.87577809,1.59676257 4.24371028,0.129675678 Z" id="path-23"></path>
                                </g>
                                <g id="Clipped">
                                    <mask id="mask-27" fill="white">
                                        <use xlink:href="#path-26"></use>
                                    </mask>
                                    <g id="path-23"></g>
                                    <ellipse id="Oval" fill="url(#linearGradient-23)" fill-rule="nonzero" opacity="0.261379076" mask="url(#mask-27)" transform="translate(5.791565, 3.314125) rotate(-24.000000) translate(-5.791565, -3.314125) " cx="5.79156506" cy="3.31412545" rx="3.19295773" ry="3.63336569"></ellipse>
                                </g>
                            </g>
                        </g>
                        <g id="Group" transform="translate(5.382583, 5.618049) rotate(-42.000000) translate(-5.382583, -5.618049) translate(1.382583, 2.118049)" font-size="5.28489555" font-family=".SFNSDisplay, .SF NS Display" fill="#FD1E12" font-weight="normal">
                            <text id="10">
                                <tspan x="0.00363431037" y="5.0337363">10</tspan>
                            </text>
                        </g>
                    </g>
                </g>
                <path d="M31.5625866,40.3972166 C31.5966256,40.2772715 31.6340475,40.156315 31.6748524,40.0343469 C31.9209431,39.29877 32.3319606,38.5684582 32.9079176,37.8433897 C33.1278285,37.5701754 33.3294102,37.375776 33.5126693,37.2601852 C33.6959283,37.1445946 33.8451513,37.0868001 33.9603427,37.0868001 C34.1907253,37.0868001 34.3059151,37.2286592 34.3059151,37.5123817 C34.3059151,37.6384807 34.2640279,37.796102 34.1802524,37.9852502 C34.0964767,38.1743986 34.0074665,38.4160846 33.9132192,38.7103152 C33.8189717,39.004546 33.7299615,39.3539397 33.646186,39.758507 C33.5624103,40.1630744 33.5205233,40.638565 33.5205233,41.1849935 C33.5205233,42.2358177 33.6697461,43.0528211 33.9681967,43.6360285 C34.2666471,44.2192359 34.6619568,44.5108351 35.1541382,44.5108351 C35.4054648,44.5108351 35.6253723,44.4267704 35.8138674,44.2586385 C36.0023624,44.0905069 36.162057,43.8698369 36.2929564,43.5966228 C36.4238558,43.3234084 36.5311915,43.0055389 36.614967,42.6430046 C36.6987426,42.2804704 36.7615734,41.9048064 36.803461,41.5160015 C36.4997746,41.3058366 36.2039466,41.0326264 35.9159683,40.6963628 C35.6279899,40.360099 35.3688131,39.9502838 35.1384304,39.4669048 C35.002295,39.1831823 34.9028131,38.8915829 34.8399816,38.5920982 C34.7771499,38.2926133 34.7457345,38.006268 34.7457345,37.7330536 C34.7457345,37.3862817 34.7928575,37.0605313 34.887105,36.7557921 C34.9813525,36.4510531 35.1201037,36.1883511 35.3033628,35.9676781 C35.4866216,35.7470051 35.714383,35.5709947 35.9866535,35.4396417 C36.2589241,35.3082887 36.5730776,35.2426131 36.9291237,35.2426131 C37.3794173,35.2426131 37.7485479,35.350321 38.0365262,35.56574 C38.3245046,35.7811589 38.552266,36.0543691 38.7198172,36.3853786 C38.8873682,36.7163882 39.0051758,37.07629 39.0732435,37.4650949 C39.1413112,37.8538998 39.1753444,38.2164287 39.1753444,38.5526925 C39.1753444,38.9940385 39.146547,39.4458861 39.0889513,39.9082486 C39.0313556,40.3706113 38.9397274,40.8382209 38.8140641,41.3110918 C39.201526,41.2795671 39.5470949,41.1718592 39.8507813,40.9879651 C40.1544677,40.8040708 40.4110265,40.4914553 40.6204654,40.0501093 C40.7461287,39.7874033 40.8770259,39.6560521 41.0131613,39.6560521 C41.0864648,39.6560521 41.1519136,39.6770683 41.2095092,39.7191013 C41.2671049,39.7611343 41.2959023,39.8294367 41.2959023,39.924011 C41.2959023,39.9975686 41.2801947,40.0711251 41.2487789,40.1446829 C41.03934,40.7436527 40.691153,41.2165164 40.2042076,41.5632883 C39.7172624,41.9100602 39.1753474,42.0834436 38.5784467,42.0834436 C38.4004236,42.5983474 38.1831341,43.0843462 37.9265713,43.5414547 C37.6700088,43.9985633 37.3689448,44.4004975 37.0233708,44.7472694 C36.6777965,45.0940414 36.2851046,45.3672515 35.845283,45.566908 C35.4054614,45.7665646 34.9185233,45.8663914 34.3844542,45.8663914 C34.1017118,45.8663914 33.7823223,45.8243591 33.4262762,45.7402931 C33.0702302,45.6562272 32.735133,45.4802168 32.4209746,45.2122568 C32.1068164,44.9442965 31.8424038,44.5660056 31.6277289,44.0773723 C31.4421282,43.6549165 31.3367609,43.1126847 31.3116246,42.4506643 C31.3096537,42.4543631 31.3076849,42.4580544 31.3057183,42.4617384 C31.1172232,42.8085103 30.9392028,43.1290069 30.7716518,43.4232377 C30.5517409,43.7910261 30.305654,44.1299117 30.0333834,44.439905 C29.7611131,44.749898 29.4679029,45.0178541 29.1537447,45.2437812 C28.8395863,45.4697085 28.5018713,45.6483459 28.1405892,45.7796989 C27.7793072,45.9110519 27.394469,45.9767275 26.9860633,45.9767275 C26.6823769,45.9767275 26.3525155,45.924187 25.9964695,45.8191046 C25.6404234,45.7140221 25.3079443,45.5196225 24.9990218,45.2359001 C24.6900997,44.9521776 24.4309229,44.5607516 24.221484,44.0616101 C24.0872534,43.7417075 23.9960381,43.3624588 23.947837,42.9238587 C23.7144236,43.5036527 23.4810125,43.9984896 23.2475982,44.4083803 C22.9753277,44.8865053 22.6847355,45.2464071 22.3758131,45.4880966 C22.0668909,45.7297861 21.7239398,45.8506292 21.3469499,45.8506292 C21.0851513,45.8506292 20.8678617,45.7665644 20.6950747,45.5984327 C20.5222876,45.4303008 20.3783005,45.2411552 20.2631092,45.0309903 C20.1479178,44.8208257 20.0615255,44.618545 20.0039299,44.4241425 C19.9463342,44.2297401 19.907065,44.1010161 19.8861211,44.0379666 C19.8756491,44.0169501 19.8651774,43.985426 19.8547054,43.943393 C19.8442335,43.90136 19.8285258,43.8803437 19.8075819,43.8803437 C19.786638,43.8803437 19.7683124,43.8961059 19.7526045,43.9276308 C19.7368966,43.9591554 19.7185709,43.9906796 19.6976271,44.0222044 C19.6662112,44.095762 19.5824369,44.2323671 19.4463017,44.4320236 C19.3101664,44.6316804 19.1399999,44.8365879 18.935797,45.0467528 C18.7315941,45.2569174 18.4985968,45.4434359 18.2367982,45.6063138 C17.9749997,45.7691914 17.6922614,45.8506292 17.3885751,45.8506292 C17.1477204,45.8506292 16.9147231,45.7718184 16.6895763,45.6141949 C16.4644296,45.4565713 16.2680836,45.2437825 16.1005325,44.9758224 C15.9329814,44.7078624 15.7994661,44.3899929 15.6999826,44.0222044 C15.6004992,43.654416 15.5507582,43.2603627 15.5507582,42.8400332 C15.5507582,41.9258163 15.6947453,41.0667805 15.9827237,40.2629001 C16.2707022,39.4590197 16.7393146,38.6525242 17.3885751,37.8433897 C17.7027334,37.4545848 18.0352126,37.1078181 18.3860227,36.8030792 C18.7368328,36.4983402 19.0797838,36.243519 19.414886,36.0386085 C19.7499882,35.8336976 20.0719956,35.6787035 20.3809179,35.5736211 C20.6898403,35.4685387 20.9542529,35.4159982 21.1741637,35.4159982 C21.3207709,35.4159982 21.4673759,35.4422685 21.6139831,35.4948097 C21.7605903,35.5473508 21.8914877,35.6366695 22.006679,35.7627684 C22.1218703,35.8888673 22.2134985,36.0543696 22.2815662,36.2592804 C22.3496337,36.464191 22.3836671,36.713758 22.3836671,37.0079887 C22.3836671,37.323236 22.3339261,37.6647486 22.2344426,38.032537 C22.1349592,38.4003254 21.9883542,38.7444653 21.7946232,39.0649667 C21.6008923,39.3854678 21.3626591,39.6507971 21.0799167,39.8609618 C20.7971742,40.0711267 20.4777847,40.1762076 20.1217386,40.1762076 C19.9018278,40.1762076 19.7918741,40.0921427 19.7918741,39.924011 C19.7918741,39.8084202 19.8206715,39.6192749 19.8782672,39.3565687 C19.9358629,39.0938627 19.9646603,38.8416688 19.9646603,38.5999793 C19.9646603,38.505405 19.9594244,38.3924432 19.9489524,38.2610902 C19.9384805,38.1297372 19.912301,38.0010133 19.8704133,37.8749143 C19.8285255,37.7488154 19.7709306,37.6437345 19.6976271,37.5596686 C19.6243234,37.4756026 19.5248415,37.4335703 19.3991781,37.4335703 C19.1164357,37.4335703 18.8703487,37.5649213 18.6609098,37.8276275 C18.451471,38.0903335 18.2760685,38.41083 18.1346973,38.7891266 C17.9933261,39.1674234 17.8859903,39.5614764 17.8126867,39.9712979 C17.7393831,40.3811193 17.7027318,40.73314 17.7027318,41.0273708 C17.7027318,41.4266839 17.7341472,41.7603156 17.7969788,42.0282756 C17.8598105,42.2962357 17.9435848,42.5116516 18.0483042,42.6745292 C18.1530236,42.837407 18.2734492,42.9529958 18.4095844,43.0212994 C18.5457197,43.0896029 18.6870888,43.1237543 18.833696,43.1237543 C19.1792702,43.1237543 19.4881879,43.0055383 19.7604584,42.7691028 C20.0327289,42.5326674 20.2683441,42.2699654 20.467311,41.9809888 C20.666278,41.6920123 20.8312086,41.42931 20.9621079,41.1928746 C21.0930072,40.9564394 21.200343,40.8382233 21.2841185,40.8382233 C21.378366,40.8382233 21.4411967,40.9485583 21.4726126,41.1692313 C21.5354442,41.6421022 21.6035109,42.0309011 21.6768144,42.3356401 C21.7501181,42.6403791 21.8234206,42.879438 21.8967242,43.052824 C21.9700278,43.22621 22.0459482,43.3470529 22.1244879,43.4153566 C22.2030274,43.4836601 22.2841838,43.5178113 22.3679593,43.5178113 C22.5250385,43.5178113 22.6821153,43.4258656 22.8391943,43.2419713 C22.9962735,43.0580772 23.1533502,42.8085101 23.3104295,42.493263 C23.4675087,42.1780157 23.6298212,41.8102328 23.7973725,41.3899032 L24.1421775,40.5249021 C24.1839771,40.3719482 24.2313564,40.2163109 24.2843153,40.0579904 C24.535642,39.3066511 24.9440415,38.5684582 25.5095267,37.8433897 C25.8760445,37.3705188 26.2451751,36.9790928 26.616929,36.6690996 C26.9886831,36.3591065 27.3447238,36.1095397 27.6850619,35.9203913 C28.0254001,35.7312429 28.3421717,35.5998919 28.6353861,35.5263343 C28.9286004,35.4527765 29.1851592,35.4159982 29.4050701,35.4159982 C29.5516773,35.4159982 29.6982823,35.4448954 29.8448895,35.5026908 C29.9914966,35.5604862 30.122394,35.6524319 30.2375854,35.7785308 C30.3527767,35.9046295 30.4470229,36.070132 30.5203264,36.2750426 C30.5936301,36.4799534 30.6302813,36.7242662 30.6302813,37.0079887 C30.6302813,37.323236 30.5857761,37.6463596 30.4967646,37.9773691 C30.4077531,38.3083786 30.2690021,38.6315022 30.0805071,38.9467495 C29.9338999,39.188439 29.7742051,39.3880927 29.6014181,39.5457162 C29.428631,39.7033398 29.2610825,39.8294367 29.0987672,39.924011 C28.936452,40.0185851 28.789847,40.0842607 28.6589479,40.1210394 C28.5280485,40.1578183 28.4259485,40.1762076 28.352645,40.1762076 C28.1327341,40.1762076 28.0227803,40.0868889 28.0227803,39.9082486 C28.0227803,39.792658 28.0541957,39.6140206 28.1170274,39.3723311 C28.1798591,39.1306416 28.2112745,38.8469233 28.2112745,38.5211679 C28.2112745,38.4476101 28.2086565,38.3504105 28.2034205,38.2295656 C28.1981845,38.1087208 28.1772411,37.9905049 28.1405892,37.8749143 C28.1039374,37.7593235 28.0489606,37.6568699 27.9756569,37.5675499 C27.9023532,37.4782296 27.8028714,37.4335703 27.6772081,37.4335703 C27.5306009,37.4335703 27.3709061,37.5045 27.1981191,37.6463611 C27.0253318,37.7882224 26.8604013,38.0062651 26.703322,38.300496 C26.4624676,38.7313339 26.3027728,39.1831814 26.2242331,39.6560521 C26.1456936,40.1289229 26.1064244,40.5545004 26.1064244,40.932797 C26.1064244,41.2585524 26.1404578,41.6158274 26.2085252,42.0046321 C26.2765929,42.393437 26.3865467,42.7585929 26.5383899,43.1001108 C26.6902331,43.4416287 26.8918149,43.725347 27.1431416,43.9512741 C27.3944681,44.1772014 27.7033859,44.2901632 28.069904,44.2901632 C28.5411414,44.2901632 28.9626308,44.1351688 29.3343848,43.8251758 C29.7061387,43.5151828 30.0412359,43.1368917 30.3396863,42.6902916 C30.6381366,42.2436913 30.9025492,41.7787086 31.1329321,41.2953296 C31.2909261,40.9638334 31.4341436,40.6644637 31.5625866,40.3972166 Z M36.5431044,39.8767242 C36.5431044,38.8048835 36.4436224,38.0351665 36.2446555,37.5675499 C36.0456884,37.0999331 35.8257811,36.9134146 35.5849264,37.0079887 C35.4802068,37.0500216 35.419994,37.1445944 35.4042862,37.2917098 C35.3885784,37.4388252 35.3807244,37.5806844 35.3807244,37.7172914 C35.3807244,37.9484728 35.4121398,38.1901586 35.4749715,38.4423564 C35.5378032,38.6945543 35.6189596,38.9467482 35.7184429,39.198946 C35.8179264,39.4511437 35.938352,39.6902026 36.0797232,39.9161299 C36.2210944,40.142057 36.3703173,40.3495916 36.5273965,40.53874 C36.5378686,40.4231494 36.5431044,40.3128144 36.5431044,40.207732 L36.5431044,39.8767242 Z M52.6467776,28.1495861 C52.751497,27.9184048 52.8981019,27.7318863 53.086597,27.5900251 C53.275092,27.4481638 53.4897636,27.3772343 53.7306183,27.3772343 C53.8143938,27.3772343 53.9243476,27.4035044 54.0604828,27.4560458 C54.1966182,27.5085869 54.2646848,27.5926515 54.2646848,27.7082421 C54.2646848,27.792308 54.256831,27.8684918 54.2411229,27.9367953 C54.2254151,28.0050988 54.2070895,28.0970446 54.1861455,28.2126351 C54.0185945,28.990245 53.8719895,29.7757243 53.7463261,30.5690965 C53.6206628,31.3624686 53.5080912,32.1505749 53.4086077,32.9334388 C53.3091241,33.7163027 53.2227319,34.4807657 53.1494282,35.2268509 C53.0761247,35.9729359 53.01853,36.6769776 52.9766421,37.3389966 C53.3431602,37.3389966 53.7437059,37.3705208 54.1782917,37.4335703 C54.6128772,37.4966197 55.0867256,37.6594952 55.5998509,37.9222012 C56.6156294,37.7225446 57.4716979,37.4309452 58.1680822,37.0473944 C58.8644663,36.6638437 59.4273248,36.2014881 59.8566746,35.6603136 C60.2860241,35.1191392 60.5949419,34.5044163 60.783437,33.8161267 C60.9719318,33.1278368 61.066178,32.3791358 61.066178,31.5700014 C61.066178,30.5401937 60.916955,29.6496337 60.6185046,28.8982944 C60.3200542,28.1469553 59.9064187,27.5243513 59.3775856,27.0304641 C58.8487523,26.5365768 58.2230632,26.1714209 57.500499,25.9349854 C56.7779349,25.69855 55.992551,25.5803342 55.1443235,25.5803342 C54.2646804,25.5803342 53.395522,25.6643988 52.5368227,25.8325307 C51.6781234,26.0006624 50.9110649,26.2738725 50.2356246,26.6521693 C49.5601844,27.0304659 49.0156514,27.5243458 48.6020097,28.1338237 C48.188368,28.7433019 47.9815502,29.4946297 47.9815502,30.3878301 C47.9815502,30.8501929 48.039145,31.2915323 48.1543363,31.7118618 C48.2695277,32.1321916 48.4056608,32.5157365 48.5627401,32.8625084 C48.7198193,33.2092804 48.876896,33.5061338 49.0339752,33.7530774 C49.1910542,34.0000212 49.3167158,34.1812856 49.4109631,34.2968762 C49.463323,34.3599257 49.510446,34.422974 49.5523337,34.4860235 C49.5942215,34.549073 49.6151651,34.6331376 49.6151651,34.73822 C49.6151651,34.822286 49.5811317,34.8958425 49.5130642,34.958892 C49.4449965,35.0219414 49.321953,35.0534658 49.1439299,35.0534658 C48.8926034,35.0534658 48.5601242,34.9667739 48.1464823,34.793388 C47.7328406,34.620002 47.3296768,34.3546729 46.9369789,33.9973929 C46.544281,33.6401126 46.206566,33.1830109 45.9238235,32.6260743 C45.6410811,32.0691375 45.4997119,31.4123822 45.4997119,30.6557891 C45.4997119,30.1198687 45.5991939,29.5629403 45.7981608,28.984987 C45.9971278,28.4070339 46.2955736,27.8395973 46.6935075,27.2826607 C47.0914414,26.7257238 47.5862332,26.1950655 48.1778981,25.69067 C48.7695629,25.1862745 49.4580828,24.7449351 50.2434786,24.3666383 C51.0288742,23.9883417 51.9058864,23.6862342 52.8745412,23.4603071 C53.8431958,23.23438 54.9087002,23.121418 56.0710858,23.121418 C57.4429104,23.121418 58.6445479,23.3315796 59.6760344,23.7519094 C60.7075207,24.1722389 61.5688253,24.7317944 62.2599736,25.4305924 C62.9511219,26.1293903 63.4694752,26.9385129 63.8150495,27.8579839 C64.1606235,28.7774548 64.3334079,29.7363174 64.3334079,30.7346003 C64.3334079,31.9640645 64.1213543,33.0385159 63.6972405,33.9579871 C63.2731268,34.8774581 62.72074,35.6681914 62.0400638,36.3302107 C61.3593875,36.9922298 60.5897112,37.5439041 59.7310119,37.9852502 C58.8723126,38.4265964 58.00839,38.7786172 57.1392187,39.0413232 C57.6418722,39.514194 58.1733153,40.1341708 58.7335643,40.9012726 C59.2938132,41.668374 59.8880871,42.6351177 60.5164037,43.8015325 C60.8933936,44.5055845 61.2860856,45.2253882 61.6944915,45.9609651 C62.1028972,46.6965419 62.5636558,47.3848214 63.076781,48.0258242 C63.5899063,48.6668267 64.1658544,49.2316363 64.8046431,49.7202694 C65.4434317,50.2089027 66.1816926,50.5635504 67.0194481,50.7842234 C67.1974711,50.8367648 67.3205145,50.889305 67.3885822,50.9418463 C67.4566499,50.9943874 67.4906831,51.0469279 67.4906831,51.0994692 C67.4906831,51.2150598 67.4095267,51.2859893 67.2472117,51.31226 C67.0848965,51.3385306 66.8937865,51.3516655 66.6738756,51.3516655 C66.3492454,51.3516655 65.9329918,51.3306495 65.4251026,51.2886165 C64.9172133,51.2465835 64.3569728,51.1362486 63.744364,50.9576085 C63.1317554,50.7789685 62.4903585,50.5005043 61.8201542,50.1222077 C61.1499497,49.7439109 60.4902272,49.2237609 59.8409668,48.5617416 C59.3697292,48.0783626 58.9665654,47.5660935 58.6314634,47.0249191 C58.2963611,46.4837447 58.0005332,45.9373244 57.7439704,45.3856419 C57.4874079,44.8339591 57.2491747,44.2849117 57.0292641,43.7384833 C56.8093532,43.1920548 56.5842098,42.6666505 56.3538271,42.162255 C56.1234442,41.6578595 55.8695034,41.1876227 55.5919969,40.7515308 C55.3144905,40.3154388 54.9820111,39.9345207 54.5945492,39.6087652 C54.269919,39.6613066 53.9610015,39.6980848 53.6677869,39.7191013 C53.3745725,39.7401178 53.1023061,39.75588 52.8509794,39.7663881 C52.8300356,40.1762095 52.8169458,40.5466195 52.8117098,40.877629 C52.806474,41.2086386 52.803856,41.4844758 52.803856,41.7051488 C52.803856,42.230561 52.801238,42.7664732 52.7960019,43.3129016 C52.7907659,43.8593301 52.7881481,44.3715992 52.7881481,44.8497242 C52.7881481,45.3278491 52.7855301,45.7507995 52.7802941,46.1185879 C52.7750581,46.4863764 52.7724403,46.7490784 52.7724403,46.906702 L52.7724403,47.080087 C52.7724403,47.1536449 52.7619685,47.2245743 52.7410245,47.2928779 C52.7200807,47.3611816 52.6860475,47.4216029 52.6389236,47.4741443 C52.5918,47.5266854 52.5263512,47.5529555 52.4425757,47.5529555 C52.3064405,47.5529555 52.1807789,47.5266854 52.0655875,47.4741443 C51.9503962,47.4216029 51.8404424,47.3611816 51.7357231,47.2928779 C51.6310035,47.2245743 51.5289038,47.164153 51.4294202,47.1116117 C51.3299367,47.0590706 51.2330727,47.0328002 51.1388252,47.0328002 C51.0236338,47.0328002 50.9293878,47.0695785 50.8560841,47.1431363 C50.7827807,47.2166939 50.6937705,47.2534721 50.5890509,47.2534721 C50.4633876,47.2534721 50.3639058,47.221948 50.2906021,47.1588985 C50.2172984,47.095849 50.1649396,47.0170385 50.1335238,46.9224644 C50.1021079,46.8278901 50.0837823,46.7280635 50.0785463,46.622981 C50.0733103,46.5178986 50.0706923,46.4233258 50.0706923,46.3392599 C50.0706923,46.1396033 50.0733103,45.8243609 50.0785463,45.393523 C50.0837823,44.9626851 50.0942541,44.4766863 50.1099619,43.9355119 C50.12567,43.3943375 50.1439956,42.8269009 50.1649394,42.2331854 C50.1858832,41.6394696 50.2068268,41.0799144 50.2277708,40.5545022 L50.2748943,39.593003 C49.8664885,39.5089371 49.549717,39.4038562 49.3245701,39.2777575 C49.0994234,39.1516586 48.9868516,39.0150535 48.9868516,38.8679381 C48.9868516,38.689298 49.112513,38.4975255 49.3638397,38.2926146 C49.6151664,38.087704 49.9607354,37.9064396 50.400557,37.7488161 C50.4633887,36.9501897 50.5340733,36.1542023 50.6126127,35.3608303 C50.6911522,34.567458 50.7644548,33.8397733 50.8325225,33.1777542 C50.90059,32.515735 50.9634208,31.9482986 51.0210165,31.4754277 C51.0786122,31.0025568 51.1231174,30.6820603 51.154533,30.5139284 C51.2278367,30.0515659 51.3037571,29.6575128 51.3822968,29.3317574 C51.4608363,29.0060017 51.5472285,28.785332 51.641476,28.6697414 C51.7147797,28.5751673 51.8037899,28.4911025 51.9085092,28.4175449 C51.9922847,28.3544954 52.0970027,28.2940741 52.2226659,28.2362787 C52.3483292,28.1784833 52.4896984,28.1495861 52.6467776,28.1495861 Z M69.5735069,39.8767242 C69.5735069,38.8048835 69.4740249,38.0351665 69.275058,37.5675499 C69.076091,37.0999331 68.8561836,36.9134146 68.6153289,37.0079887 C68.5106094,37.0500216 68.4503966,37.1445944 68.4346887,37.2917098 C68.4189807,37.4388252 68.4111269,37.5806844 68.4111269,37.7172914 C68.4111269,37.9484728 68.4425423,38.1901586 68.505374,38.4423564 C68.5682057,38.6945543 68.6493619,38.9467482 68.7488454,39.198946 C68.8483289,39.4511437 68.9687545,39.6902026 69.1101257,39.9161299 C69.2514969,40.142057 69.4007199,40.3495916 69.5577991,40.53874 C69.5682709,40.4231494 69.5735069,40.3128144 69.5735069,40.207732 L69.5735069,39.8767242 Z M96.9495435,42.8363866 C96.892621,42.9724887 96.835933,43.1050564 96.7794798,43.2340902 C96.6014567,43.6439116 96.4312901,43.9959323 96.2689751,44.2901632 C96.1066599,44.584394 95.9495831,44.8313338 95.7977399,45.0309903 C95.6458967,45.2306471 95.494056,45.3908953 95.3422128,45.5117401 C95.1903696,45.6325848 95.0359106,45.7192764 94.8788316,45.7718178 C94.7217524,45.8243589 94.5384962,45.8506292 94.3290573,45.8506292 C94.0986744,45.8506292 93.8473517,45.8007158 93.5750811,45.7008874 C93.3028106,45.601059 93.0488698,45.4092867 92.8132511,45.1255642 C92.5776324,44.8418417 92.3812864,44.4451614 92.2242072,43.9355119 C92.067128,43.4258621 91.9885896,42.7612259 91.9885896,41.9415831 C91.9885896,41.8301418 91.9919279,41.6798429 91.9986045,41.4906851 C91.8540309,41.8983304 91.7145583,42.2771819 91.5801859,42.6272424 C91.3079153,43.3365487 91.0356489,43.9302554 90.7633784,44.4083803 C90.4911078,44.8865053 90.2005156,45.2464071 89.8915935,45.4880966 C89.5826711,45.7297861 89.2397201,45.8506292 88.8627302,45.8506292 C88.6009315,45.8506292 88.3836419,45.7665644 88.2108549,45.5984327 C88.0380679,45.4303008 87.8940809,45.2411552 87.7788893,45.0309903 C87.663698,44.8208257 87.5773058,44.618545 87.5197101,44.4241425 C87.4621144,44.2297401 87.4228452,44.1010161 87.4019014,44.0379666 C87.3914294,44.0169501 87.3809576,43.985426 87.3704856,43.943393 C87.3600138,43.90136 87.344306,43.8803437 87.3233621,43.8803437 C87.3024183,43.8803437 87.2840927,43.8961059 87.2683847,43.9276308 C87.2526769,43.9591554 87.2343511,43.9906796 87.2134072,44.0222044 C87.1819914,44.095762 87.0982172,44.2323671 86.9620818,44.4320236 C86.8259467,44.6316804 86.6557801,44.8365879 86.4515772,45.0467528 C86.2473744,45.2569174 86.014377,45.4434359 85.7525784,45.6063138 C85.4907799,45.7691914 85.2080417,45.8506292 84.9043553,45.8506292 C84.6635006,45.8506292 84.4305035,45.7718184 84.2053566,45.6141949 C83.9802099,45.4565713 83.7838639,45.2437825 83.6163127,44.9758224 C83.4487617,44.7078624 83.3152463,44.3899929 83.215763,44.0222044 C83.1215751,43.6739941 83.071975,43.3022411 83.0669612,42.9069351 C82.9735232,43.0846459 82.8765174,43.2593736 82.7759434,43.4311188 C82.477493,43.9407684 82.134542,44.4293944 81.7470801,44.897011 C81.3596182,45.3646278 80.9093315,45.8191024 80.3962062,46.2604484 C80.3647904,46.7648439 80.3229032,47.274486 80.2705435,47.7893898 C80.2181839,48.3042937 80.1605891,48.8086817 80.0977574,49.3025688 C79.9302061,50.5845744 79.7155346,51.6275016 79.453736,52.431382 C79.1919375,53.2352624 78.9144351,53.8788825 78.6212208,54.3622616 C78.3280062,54.8456406 78.0321784,55.2029154 77.733728,55.4340967 C77.4352776,55.6652781 77.1708649,55.8386614 76.9404822,55.954252 C76.4168851,56.216958 75.9770699,56.3483092 75.6210239,56.3483092 C75.1393144,56.3483092 74.7675661,56.1066232 74.5057676,55.6232442 C74.243969,55.139865 74.1130716,54.5146341 74.1130716,53.7475326 C74.1130716,53.0224639 74.2334972,52.3394385 74.4743519,51.6984359 C74.7152064,51.0574332 75.0267422,50.4532183 75.4089681,49.8857734 C75.791194,49.3183284 76.2205374,48.7902973 76.6970108,48.301664 C77.1734842,47.8130307 77.6525683,47.3638102 78.1342777,46.9539888 C78.1656936,46.5546757 78.1892552,46.1816387 78.204963,45.8348668 C78.220671,45.4880948 78.2389966,45.1938686 78.2599405,44.9521791 C78.2913563,44.3321928 78.3122999,43.6780646 78.3227717,42.989775 C78.3332437,42.3014852 78.3489513,41.6631191 78.3698953,41.0746576 C78.1290406,41.9993827 77.8881894,42.7664727 77.6473347,43.3759509 C77.40648,43.9854288 77.1630111,44.4688006 76.9169203,44.8260809 C76.6708298,45.1833609 76.4168888,45.435555 76.1550903,45.5826702 C75.8932918,45.7297857 75.6157894,45.8033422 75.322575,45.8033422 C75.1131362,45.8033422 74.8984646,45.7429208 74.6785537,45.622076 C74.4586428,45.5012313 74.257061,45.2753075 74.073802,44.9442978 C73.890543,44.6132883 73.74132,44.1509326 73.6261286,43.5572171 C73.5109373,42.9635013 73.4533425,42.1990383 73.4533425,41.2638049 C73.4533425,41.1815277 73.4539617,41.0988781 73.4552001,41.0158557 C73.2918103,41.2240889 73.1000794,41.406566 72.8800064,41.5632883 C72.393061,41.9100602 71.851146,42.0834436 71.2542453,42.0834436 C71.0762222,42.5983474 70.8589326,43.0843462 70.6023701,43.5414547 C70.3458076,43.9985633 70.0447436,44.4004975 69.6991696,44.7472694 C69.3535953,45.0940414 68.9609034,45.3672515 68.5210818,45.566908 C68.0812603,45.7665646 67.5943221,45.8663914 67.060253,45.8663914 C66.7775104,45.8663914 66.4581211,45.8243591 66.102075,45.7402931 C65.746029,45.6562272 65.4109318,45.4802168 65.0967734,45.2122568 C64.7826152,44.9442965 64.5182026,44.5660056 64.3035277,44.0773723 C64.0888529,43.5887391 63.9815171,42.9398651 63.9815171,42.1307304 C63.9815171,41.4687113 64.1045604,40.7699237 64.3506512,40.0343469 C64.5967419,39.29877 65.0077594,38.5684582 65.5837164,37.8433897 C65.8036271,37.5701754 66.005209,37.375776 66.1884681,37.2601852 C66.3717271,37.1445946 66.5209501,37.0868001 66.6361415,37.0868001 C66.8665241,37.0868001 66.9817137,37.2286592 66.9817137,37.5123817 C66.9817137,37.6384807 66.9398267,37.796102 66.856051,37.9852502 C66.7722755,38.1743986 66.6832653,38.4160846 66.5890178,38.7103152 C66.4947705,39.004546 66.4057603,39.3539397 66.3219846,39.758507 C66.2382091,40.1630744 66.1963219,40.638565 66.1963219,41.1849935 C66.1963219,42.2358177 66.3455449,43.0528211 66.6439953,43.6360285 C66.9424456,44.2192359 67.3377556,44.5108351 67.829937,44.5108351 C68.0812636,44.5108351 68.3011711,44.4267704 68.4896662,44.2586385 C68.678161,44.0905069 68.8378558,43.8698369 68.9687552,43.5966228 C69.0996543,43.3234084 69.2069901,43.0055389 69.2907659,42.6430046 C69.3745414,42.2804704 69.4373719,41.9048064 69.4792598,41.5160015 C69.1755734,41.3058366 68.8797454,41.0326264 68.5917671,40.6963628 C68.3037887,40.360099 68.0446119,39.9502838 67.8142292,39.4669048 C67.6780938,39.1831823 67.5786119,38.8915829 67.5157802,38.5920982 C67.4529485,38.2926133 67.4215333,38.006268 67.4215333,37.7330536 C67.4215333,37.3862817 67.4686563,37.0605313 67.5629038,36.7557921 C67.6571513,36.4510531 67.7959023,36.1883511 67.9791614,35.9676781 C68.1624204,35.7470051 68.3901818,35.5709947 68.6624523,35.4396417 C68.9347229,35.3082887 69.2488764,35.2426131 69.6049225,35.2426131 C70.0552161,35.2426131 70.4243464,35.350321 70.712325,35.56574 C71.0003034,35.7811589 71.2280648,36.0543691 71.3956158,36.3853786 C71.563167,36.7163882 71.6809746,37.07629 71.7490423,37.4650949 C71.8171098,37.8538998 71.8511432,38.2164287 71.8511432,38.5526925 C71.8511432,38.9940385 71.8223458,39.4458861 71.7647501,39.9082486 C71.7071544,40.3706113 71.6155262,40.8382209 71.4898629,41.3110918 C71.8773248,41.2795671 72.2228937,41.1718592 72.5265801,40.9879651 C72.8302665,40.8040708 73.0868253,40.4914553 73.2962642,40.0501093 C73.3698288,39.896318 73.4451875,39.7875431 73.5223405,39.7237837 C73.5457458,39.4626192 73.5751058,39.2062361 73.6104208,38.9546306 C73.6627805,38.5815881 73.7203753,38.2295674 73.7832069,37.8985576 C73.8460386,37.5675481 73.9193412,37.2759487 74.0031167,37.0237511 C74.0450046,36.8976521 74.0973634,36.8004523 74.1601951,36.7321488 C74.2230267,36.6638453 74.2753857,36.6034237 74.3172734,36.5508826 C74.3696333,36.4878332 74.4141383,36.4326657 74.4507901,36.3853786 C74.487442,36.3380916 74.5319469,36.3144483 74.5843066,36.3144483 C74.6680823,36.3144483 74.7256771,36.3433457 74.757093,36.4011408 C74.7885088,36.4589362 74.8461036,36.4878334 74.9298791,36.4878334 C74.9612949,36.4878334 75.0188897,36.4641903 75.1026652,36.4169033 C75.1864407,36.369616 75.2754509,36.3144487 75.3696985,36.2513993 C75.463946,36.1883498 75.5581922,36.1331823 75.6524395,36.0858953 C75.746687,36.0386082 75.8252254,36.0149649 75.8880571,36.0149649 C76.0032484,36.0149649 76.0608432,36.1095377 76.0608432,36.2986861 C76.0608432,36.3722437 76.0529894,36.4563083 76.0372816,36.5508826 L75.9823042,36.8818904 C75.8775846,37.3652696 75.812136,37.8722847 75.7859562,38.4029507 C75.7597764,38.933617 75.7466866,39.5457127 75.7466866,40.2392566 C75.7466866,40.7121275 75.7493046,41.1455858 75.7545406,41.539645 C75.7597764,41.933704 75.783338,42.2725895 75.8252258,42.556312 C75.8671135,42.8400345 75.9325623,43.0607044 76.0215738,43.218328 C76.1105853,43.3759515 76.2336287,43.4547621 76.3907079,43.4547621 C76.579203,43.4547621 76.7546053,43.318157 76.9169203,43.0449429 C77.0792356,42.7717286 77.2336943,42.4223349 77.3803015,41.996751 C77.5269087,41.5711674 77.6682779,41.0956766 77.8044133,40.5702646 C77.9405485,40.0448526 78.0766816,39.5273294 78.212817,39.0176796 C78.3489522,38.5080301 78.4824676,38.0351662 78.6133667,37.5990743 C78.7442661,37.1629823 78.8830173,36.8188427 79.0296245,36.5666448 C79.1448158,36.3774964 79.3254542,36.2146212 79.5715447,36.0780142 C79.8176355,35.9414069 80.034925,35.8731045 80.2234201,35.8731045 C80.3281394,35.8731045 80.4171496,35.8862396 80.4904533,35.9125102 C80.5637568,35.9387807 80.6265876,35.9913212 80.6789472,36.0701329 C80.7313069,36.1489447 80.7705761,36.2645338 80.7967562,36.4169033 C80.822936,36.5692727 80.8360256,36.7715532 80.8360256,37.0237511 C80.8360256,37.454589 80.8281718,37.9248255 80.812464,38.4344753 C80.7967559,38.9441249 80.7784303,39.4380048 80.7574865,39.9161299 C80.7365425,40.3942549 80.7155991,40.8224591 80.6946551,41.2007559 C80.6737112,41.5790525 80.6580036,41.8522626 80.6475316,42.0203945 C80.6265878,42.2620841 80.6030262,42.6587641 80.5768464,43.2104469 C80.5506665,43.7621294 80.5166331,44.3952414 80.4747455,45.1098018 C80.8622074,44.7840463 81.2051584,44.4399067 81.5036087,44.0773723 C81.8020591,43.714838 82.0717075,43.326039 82.3125622,42.9109635 C82.5534169,42.4958881 82.7785603,42.0519214 82.9879991,41.5790505 C83.1159614,41.2901376 83.2419681,40.987498 83.3660205,40.6711288 C83.4061489,40.5335077 83.4503099,40.3974315 83.498504,40.2629001 C83.7864823,39.4590197 84.2550949,38.6525242 84.9043553,37.8433897 C85.2185135,37.4545848 85.5509929,37.1078181 85.901803,36.8030792 C86.252613,36.4983402 86.595564,36.243519 86.9306662,36.0386085 C87.2657684,35.8336976 87.5877758,35.6787035 87.8966982,35.5736211 C88.2056204,35.4685387 88.4700332,35.4159982 88.6899439,35.4159982 C88.836551,35.4159982 88.983156,35.4422685 89.1297634,35.4948097 C89.2763706,35.5473508 89.4072678,35.6366695 89.5224594,35.7627684 C89.6376507,35.8888673 89.7292787,36.0543696 89.7973464,36.2592804 C89.8654141,36.464191 89.8994473,36.713758 89.8994473,37.0079887 C89.8994473,37.323236 89.8497063,37.6647486 89.7502229,38.032537 C89.6507394,38.4003254 89.5041344,38.7444653 89.3104034,39.0649667 C89.1166725,39.3854678 88.8784394,39.6507971 88.595697,39.8609618 C88.3129544,40.0711267 87.9935648,40.1762076 87.6375188,40.1762076 C87.4176081,40.1762076 87.3076543,40.0921427 87.3076543,39.924011 C87.3076543,39.8084202 87.3364517,39.6192749 87.3940474,39.3565687 C87.4516431,39.0938627 87.4804405,38.8416688 87.4804405,38.5999793 C87.4804405,38.505405 87.4752047,38.3924432 87.4647327,38.2610902 C87.4542606,38.1297372 87.4280812,38.0010133 87.3861934,37.8749143 C87.3443057,37.7488154 87.2867109,37.6437345 87.2134072,37.5596686 C87.1401038,37.4756026 87.0406218,37.4335703 86.9149584,37.4335703 C86.6322158,37.4335703 86.3861289,37.5649213 86.17669,37.8276275 C85.9672511,38.0903335 85.7918487,38.41083 85.6504776,38.7891266 C85.5091064,39.1674234 85.4017706,39.5614764 85.3284669,39.9712979 C85.2551632,40.3811193 85.218512,40.73314 85.218512,41.0273708 C85.218512,41.4266839 85.2499274,41.7603156 85.3127591,42.0282756 C85.3755908,42.2962357 85.4593649,42.5116516 85.5640845,42.6745292 C85.6688038,42.837407 85.7892294,42.9529958 85.9253648,43.0212994 C86.0615,43.0896029 86.2028692,43.1237543 86.3494763,43.1237543 C86.6950504,43.1237543 87.0039682,43.0055383 87.2762387,42.7691028 C87.5485093,42.5326674 87.7841244,42.2699654 87.9830913,41.9809888 C88.1820581,41.6920123 88.3469889,41.42931 88.4778881,41.1928746 C88.6087875,40.9564394 88.7161233,40.8382233 88.7998988,40.8382233 C88.8941463,40.8382233 88.9569771,40.9485583 88.9883929,41.1692313 C89.0512244,41.6421022 89.119291,42.0309011 89.1925947,42.3356401 C89.2658984,42.6403791 89.3392008,42.879438 89.4125045,43.052824 C89.485808,43.22621 89.5617286,43.3470529 89.6402681,43.4153566 C89.7188075,43.4836601 89.7999639,43.5178113 89.8837394,43.5178113 C90.0408187,43.5178113 90.1978954,43.4258656 90.3549746,43.2419713 C90.5120539,43.0580772 90.6691306,42.8085101 90.8262096,42.493263 C90.9832888,42.1780157 91.1456016,41.8102328 91.3131526,41.3899032 L91.8472191,40.0501093 C91.9196246,39.8849812 92.000304,39.7717508 92.0892583,39.7104171 C92.1039736,39.4630997 92.1201588,39.200663 92.1378141,38.923106 C92.1849378,38.182275 92.2425326,37.3442555 92.3106003,36.4090219 C92.378668,35.4737885 92.4545883,34.4860288 92.5383638,33.445713 C92.5907235,32.8047102 92.6561723,32.1032958 92.7347118,31.3414483 C92.8132515,30.5796007 92.8944077,29.836154 92.9781832,29.1110852 C93.0619589,28.3860167 93.1457331,27.7187535 93.2295086,27.1092754 C93.3132843,26.4997974 93.3865867,26.0216797 93.4494184,25.6749078 C93.5227221,25.3071194 93.6640911,25.018147 93.8735299,24.8079823 C94.0829688,24.5978175 94.318584,24.3718937 94.5803825,24.1302042 C94.67463,24.0356299 94.774112,23.9331762 94.8788316,23.8228395 C94.9835509,23.712503 95.0882689,23.6100493 95.1929882,23.515475 C95.2977078,23.4209009 95.3998076,23.3394634 95.4992911,23.2711598 C95.5987746,23.2028561 95.6956386,23.1687049 95.7898861,23.1687049 C95.9364933,23.1687049 96.0097957,23.2422613 96.0097957,23.3893768 C96.0097957,23.5049676 95.9836163,23.7151291 95.9312567,24.0198681 C95.8788968,24.3246071 95.8055944,24.8132329 95.7113469,25.4857603 C95.6170993,26.1582877 95.5045278,27.0646101 95.3736284,28.204754 C95.242729,29.3448983 95.1039778,30.8081489 94.9573706,32.5945497 C94.9259548,32.9518298 94.8893036,33.3774072 94.8474157,33.8712946 C94.8055281,34.3651819 94.7636409,34.887959 94.7217533,35.4396417 C94.6798654,35.9913243 94.6405962,36.5535068 94.6039444,37.1262058 C94.5672925,37.6989051 94.5332593,38.2400713 94.5018435,38.7497209 C94.4704276,39.2593707 94.4442482,39.7243532 94.4233042,40.1446829 C94.4023604,40.5650125 94.3918886,40.9012712 94.3918886,41.1534691 C94.3918886,41.8785376 94.467809,42.448601 94.6196522,42.8636767 C94.7714954,43.2787522 95.0254361,43.4862867 95.3814824,43.4862867 C95.5804493,43.4862867 95.7584696,43.396968 95.9155488,43.218328 C96.0726278,43.0396879 96.2244688,42.7953749 96.371076,42.4853819 C96.5176832,42.1753886 96.6695242,41.8128598 96.8266032,41.3977843 C96.9188869,41.153928 97.0165917,40.8982866 97.119718,40.630857 C97.1725778,40.4212686 97.2345692,40.2171787 97.3056922,40.0185847 C97.4261195,39.6823209 97.5622529,39.3670784 97.7140961,39.0728478 C97.8659391,38.7786169 98.0203981,38.521169 98.1774771,38.300496 C98.4497476,37.9221992 98.7377218,37.5675514 99.0414082,37.2365419 C99.3450946,36.9055321 99.6513944,36.61656 99.9603166,36.3696162 C100.269239,36.1226726 100.570303,35.9309001 100.863517,35.794293 C101.156732,35.657686 101.428998,35.5893833 101.680325,35.5893833 C102.078259,35.5893833 102.426445,35.7417506 102.724896,36.0464896 C103.023346,36.3512285 103.172569,36.7873139 103.172569,37.3547591 C103.172569,37.8486462 103.046908,38.3609153 102.795581,38.8915816 C102.544255,39.4222476 102.230101,39.9397708 101.853111,40.4441663 C101.476121,40.9485618 101.072957,41.4161716 100.643608,41.8470095 C100.214258,42.2778474 99.8215658,42.6351221 99.4655198,42.9188446 C99.6540148,43.3917155 99.8948658,43.7384822 100.18808,43.9591552 C100.481295,44.1798282 100.779741,44.2901632 101.083427,44.2901632 C101.554665,44.2901632 101.976154,44.1377959 102.347908,43.8330569 C102.719662,43.5283179 103.054759,43.1552809 103.353209,42.7139349 C103.65166,42.2725889 103.913454,41.8102332 104.138601,41.3268542 C104.363748,40.843475 104.56533,40.4178977 104.743353,40.0501093 C104.806185,39.9240104 104.869015,39.8268106 104.931847,39.758507 C104.994679,39.6902035 105.073217,39.6560521 105.167464,39.6560521 C105.230296,39.6560521 105.285273,39.6770683 105.332397,39.7191013 C105.37952,39.7611343 105.403082,39.8241827 105.403082,39.9082486 C105.403082,39.9923146 105.387374,40.0711251 105.355958,40.1446829 C105.198879,40.586029 105.028713,41.0010983 104.845454,41.3899032 C104.662195,41.7787081 104.492028,42.1254748 104.334949,42.4302138 C104.146454,42.7769857 103.963198,43.1027363 103.785175,43.4074753 C103.565264,43.7542472 103.321795,44.0826249 103.054761,44.3926179 C102.787726,44.7026112 102.497134,44.9758213 102.182976,45.2122568 C101.868817,45.4486922 101.528484,45.6352105 101.161966,45.7718178 C100.795448,45.9084248 100.407992,45.9767275 99.9995862,45.9767275 C99.6958998,45.9767275 99.3634206,45.924187 99.0021386,45.8191046 C98.6408565,45.7140221 98.3057593,45.5196225 97.9968372,45.2359001 C97.6879148,44.9521776 97.431356,44.5633786 97.2271531,44.0694912 C97.0854499,43.7267662 96.9929138,43.3157335 96.9495435,42.8363866 Z M77.8044133,49.7281505 C77.8358291,49.5390023 77.8672443,49.3446027 77.8986601,49.1449462 C77.930076,48.9452896 77.9562556,48.7403819 77.9771994,48.530217 C77.683985,48.876989 77.4143365,49.2447719 77.1682457,49.6335768 C76.9221552,50.0223817 76.7127195,50.4453321 76.5399324,50.9024406 C76.3671452,51.3595491 76.231012,51.8534289 76.1315285,52.3840952 C76.0320452,52.9147613 75.9823042,53.4953328 75.9823042,54.1258272 C75.9823042,54.4831075 76.0111016,54.7353014 76.0686972,54.8824168 C76.1262929,55.0295322 76.1865057,55.1030887 76.2493374,55.1030887 C76.3540567,55.1030887 76.4640105,55.0032621 76.5792019,54.8036054 C76.6943934,54.6039489 76.8017292,54.3465009 76.9012125,54.0312536 C77.0006961,53.7160065 77.09756,53.3613587 77.1918076,52.9672995 C77.2860551,52.5732405 77.3724473,52.1765604 77.4509868,51.7772472 C77.5295265,51.3779341 77.6002111,50.997016 77.6630425,50.6344819 C77.7258742,50.2719475 77.7729974,49.9698402 77.8044133,49.7281505 Z M99.057116,40.4126417 C99.057116,41.032628 99.104239,41.5790483 99.1984865,42.0519192 C99.4079254,41.8417543 99.6199792,41.6026953 99.8346539,41.3347353 C100.049329,41.066775 100.243057,40.7909378 100.415844,40.5072153 C100.588631,40.2234928 100.73,39.9345207 100.839956,39.6402899 C100.949911,39.346059 101.004888,39.062341 101.004888,38.7891266 C101.004888,38.3687971 100.915878,38.0430465 100.737855,37.8118651 C100.559832,37.5806839 100.381811,37.4650949 100.203788,37.4650949 C100.099069,37.4650949 99.9812611,37.5307705 99.8503619,37.6621235 C99.7194625,37.7934765 99.5938011,37.9852491 99.4733738,38.2374467 C99.3529464,38.4896446 99.2534644,38.797006 99.1749247,39.1595403 C99.0963852,39.5220747 99.057116,39.9397708 99.057116,40.4126417 Z" id="Jaco-Royale" fill="#002987" fill-rule="nonzero"></path>
                <path d="M14.5768723,23.783434 C14.5768723,23.8359751 14.5664005,24.1013042 14.5454567,24.5794291 C14.5245128,25.057554 14.4957154,25.7011742 14.4590635,26.5103086 C14.4224118,27.3194433 14.3779067,28.2651708 14.3255469,29.3475196 C14.2731872,30.4298684 14.2129745,31.5962655 14.1449068,32.8467462 C14.0768392,34.097227 14.0035367,35.4028562 13.9249971,36.7636734 C13.8464575,38.1244904 13.7600653,39.4879142 13.6658178,40.8539857 C13.634402,41.3268564 13.584661,41.7760769 13.5165934,42.2016607 C13.4485257,42.6272446 13.3621335,43.0396868 13.2574141,43.4389999 L13.5401551,43.5335735 C13.739122,43.6176395 13.838604,43.7279745 13.838604,43.8645815 C13.838604,43.9381391 13.8098066,44.0011877 13.7522109,44.0537288 C13.6946152,44.1062702 13.6134589,44.1325403 13.5087394,44.1325403 C13.4773236,44.1325403 13.4275826,44.1272862 13.359515,44.1167781 C13.2914474,44.1062697 13.1998192,44.0905077 13.0846278,44.0694912 C12.7809415,45.0467576 12.3777777,45.9189286 11.8751244,46.68603 C11.3724712,47.4531317 10.7965229,48.125649 10.1472624,48.7036021 C9.49800193,49.2815554 8.79115635,49.7623004 8.02670449,50.145851 C7.26225261,50.5294018 6.46639686,50.8262551 5.63911332,51.03642 C5.05268448,51.1835354 4.48720804,51.2570919 3.94266698,51.2570919 C3.37718203,51.2570919 2.85359272,51.1441301 2.37188332,50.9182028 C1.89017392,50.6922757 1.47392042,50.3901684 1.12311031,50.0118716 C0.772300211,49.6335751 0.49741582,49.2001165 0.298448895,48.7114834 C0.0994819701,48.2228501 2.84217094e-14,47.7158351 2.84217094e-14,47.1904231 C2.84217094e-14,46.5599287 0.170166528,45.9346978 0.510504688,45.3147115 C0.850842849,44.6947252 1.40846547,44.1640671 2.18338928,43.7227211 C3.13633613,43.1868007 4.07094306,42.8111367 4.9872381,42.5957177 C5.90353316,42.3802988 6.79101703,42.2725911 7.6497164,42.2725911 C8.19425746,42.2725911 8.72570061,42.3067423 9.24406182,42.3750458 C9.76242302,42.4433494 10.2624508,42.5352951 10.7441602,42.6508859 C10.8069919,42.3671634 10.8593508,42.0703099 10.9012386,41.7603169 C10.9431263,41.4503237 10.9745417,41.1272003 10.9954856,40.7909365 C11.0269014,40.2129832 11.0687886,39.4038608 11.1211483,38.363545 C11.1630361,37.4808527 11.2258668,36.3065745 11.3096423,34.840675 C11.3934179,33.3747753 11.5033716,31.5384877 11.6395069,29.3317574 C11.6499788,29.100576 11.6656865,28.843128 11.6866304,28.5594053 C11.7075743,28.2756829 11.7258999,28.0050997 11.7416078,27.7476478 C11.7573157,27.4901961 11.7730234,27.2616453 11.7887313,27.0619885 C11.8044393,26.862332 11.8122931,26.7257269 11.8122931,26.6521693 C11.8122931,26.5681034 11.7887316,26.5103089 11.7416078,26.4787842 C11.6944841,26.4472594 11.6447431,26.4314974 11.5923834,26.4314974 C10.7965157,26.4314974 10.0556368,26.5864915 9.3697245,26.8964845 C8.68381222,27.2064778 8.08953833,27.6373091 7.58688507,28.1889918 C7.08423178,28.7406744 6.68892184,29.3974297 6.40094341,30.1592771 C6.11296496,30.9211245 5.96897789,31.7591442 5.96897789,32.6733611 C5.96897789,33.3563967 6.04751628,33.9606115 6.20459545,34.4860235 C6.36167459,35.0114357 6.56325649,35.4764182 6.80934714,35.8809856 C7.05543782,36.2855529 7.32508632,36.6323196 7.61830073,36.9212961 C7.91151515,37.2102729 8.19425338,37.4572127 8.46652391,37.6621235 C8.73879444,37.8670341 8.98226346,38.0351634 9.1969383,38.1665166 C9.41161315,38.2978696 9.5608361,38.4055773 9.64461165,38.4896433 C9.70744331,38.5526927 9.73885866,38.6157413 9.73885866,38.6787908 C9.73885866,38.7733649 9.67864589,38.8548025 9.55821856,38.923106 C9.4377912,38.9914095 9.25715288,39.0255609 9.01629819,39.0255609 C8.681196,39.0255609 8.30159375,38.9940365 7.87748003,38.9309871 C7.45336632,38.8679378 7.0187872,38.7576029 6.57372959,38.5999793 C6.128672,38.4423555 5.69409288,38.2269399 5.26997917,37.9537258 C4.84586545,37.6805114 4.46888114,37.3337448 4.13901494,36.913415 C3.80914872,36.4930855 3.54211816,35.9886975 3.33791528,35.400236 C3.13371238,34.8117746 3.03161247,34.118241 3.03161247,33.3196147 C3.03161247,32.3738729 3.20963283,31.4622967 3.56567891,30.5848587 C3.92172498,29.7074205 4.39295536,28.8904171 4.97938419,28.1338237 C5.56581303,27.3772306 6.23600735,26.6915781 6.98998727,26.0768459 C7.7439672,25.4621139 8.52411527,24.9367096 9.33045491,24.5006177 C10.1367946,24.0645257 10.9300324,23.7256401 11.7101922,23.4839504 C12.4903519,23.2422609 13.2050513,23.121418 13.8543118,23.121418 C14.1265824,23.121418 14.3150745,23.1713314 14.419794,23.2711598 C14.5245134,23.370988 14.5768723,23.5417443 14.5768723,23.783434 Z M3.62498746,49.3441574 C4.16952852,49.3441574 4.77689212,49.2443306 5.4470965,49.0446741 C6.11730088,48.8450176 6.78225932,48.521894 7.44199175,48.0752937 C8.10172418,47.6286936 8.71694162,47.045495 9.28766256,46.3256803 C9.85838347,45.6058659 10.3112882,44.7258141 10.6463904,43.6854982 C10.5102551,43.6749899 10.3741219,43.6671088 10.2379867,43.6618547 C10.1018514,43.6566006 9.96048228,43.6539736 9.81387507,43.6539736 C9.37405344,43.6539736 8.91329485,43.6776167 8.43158545,43.7249037 C7.94987605,43.772191 7.45770209,43.8536286 6.95504881,43.9692192 C6.29531638,44.1163346 5.65130152,44.3448854 5.02298491,44.6548784 C4.39466833,44.9648717 3.8370457,45.3142654 3.35010033,45.7030703 C2.86315497,46.0918752 2.47308092,46.4990634 2.1798665,46.924647 C1.88665209,47.3502309 1.74004708,47.7469109 1.74004708,48.1146994 C1.74004708,48.4824878 1.89188798,48.7793413 2.19557434,49.0052684 C2.49926071,49.2311957 2.97572698,49.3441574 3.62498746,49.3441574 Z" id="Jaco-Royale" fill="#002987" fill-rule="nonzero"></path>
            </g>
        </g>
    </g>
</svg>