<?xml version="1.0" encoding="UTF-8" standalone="no"?>
<svg width="60px" height="38px" viewBox="0 0 60 38" version="1.1" xmlns="http://www.w3.org/2000/svg" xmlns:xlink="http://www.w3.org/1999/xlink">
    <!-- Generator: Sketch 44.1 (41455) - http://www.bohemiancoding.com/sketch -->
    <title>Group 4</title>
    <desc>Created with Sketch.</desc>
    <defs></defs>
    <g id="Page-1" stroke="none" stroke-width="1" fill="none" fill-rule="evenodd">
        <g id="z" transform="translate(-43.000000, -256.000000)">
            <g id="Group-4" transform="translate(43.000000, 256.000000)">
                <path d="M7.99992418,18.6851487 L7.99992418,29.1262136 L0.24762973,29.1262136 L0.24762973,0.432911104 L9.64851338,0.432911104 C17.446641,0.432911104 21.3456463,3.25903576 21.3456463,8.91136984 C21.3456463,12.2347329 19.7232414,14.8057213 16.4783829,16.6244122 L24.8390853,29.1262136 L16.0466096,29.1262136 L9.96253037,18.6851487 L7.99992418,18.6851487 Z M7.99992418,12.8562083 L9.45225276,12.8562083 C12.1606628,12.8562083 13.5148476,11.6590305 13.5148476,9.26463896 C13.5148476,7.28893885 12.1868307,6.30110361 9.53075701,6.30110361 L7.99992418,6.30110361 L7.99992418,12.8562083 Z" id="Rm" fill="#6EC460"></path>
                <path d="M51.8047255,29.1262136 L51.8047255,16.9886914 C51.8047255,15.4780615 51.597838,14.345106 51.1840567,13.5897911 C50.7702755,12.8344761 50.1167737,12.4568243 49.2235316,12.4568243 C48.0412995,12.4568243 47.1743423,12.9625494 46.622634,13.9740146 C46.0709257,14.9854798 45.7950757,16.5683335 45.7950757,18.7226231 L45.7950757,29.1262136 L38.0711979,29.1262136 L38.0711979,16.9886914 C38.0711979,15.4780615 37.8741622,14.345106 37.4800848,13.5897911 C37.0860074,12.8344761 36.4489253,12.4568243 35.5688191,12.4568243 C34.3603152,12.4568243 33.4802223,12.9953886 32.928514,14.0725335 C32.3768057,15.1496783 32.1009557,16.9098641 32.1009557,19.3531438 L32.1009557,29.1262136 L24.3967817,29.1262136 L24.3967817,6.80184239 L30.2093938,6.80184239 L31.1748785,9.56037016 L31.6280652,9.56037016 C32.2191812,8.53576901 33.0762866,7.75419395 34.1994071,7.21562155 C35.3225276,6.67704915 36.5999759,6.40776699 38.0317904,6.40776699 C41.2500889,6.40776699 43.5094319,7.38637777 44.8098872,9.34362869 L45.4207041,9.34362869 C46.0512278,8.42411484 46.9280368,7.70493443 48.0511573,7.1860659 C49.1742778,6.66719737 50.412319,6.40776699 51.7653179,6.40776699 C54.4056363,6.40776699 56.35629,7.08425632 57.6173376,8.43725528 C58.8783851,9.79025424 59.5088995,11.8459937 59.5088995,14.6045352 L59.5088995,29.1262136 L51.8047255,29.1262136 Z" id="Rm" fill="#0A2832"></path>
                <path d="M2.09777005,35.465716 L2.09777005,37.2815534 L0.749544924,37.2815534 L0.749544924,32.2914138 L2.38448121,32.2914138 C3.74067731,32.2914138 4.41876519,32.7829138 4.41876519,33.7659284 C4.41876519,34.3439046 4.13660782,34.791033 3.57228461,35.1073271 L5.0263198,37.2815534 L3.49719359,37.2815534 L2.43909286,35.465716 L2.09777005,35.465716 Z M2.09777005,34.4519873 L2.35034893,34.4519873 C2.82137677,34.4519873 3.05688716,34.2437824 3.05688716,33.8273665 C3.05688716,33.4837665 2.82592769,33.3119691 2.36400184,33.3119691 L2.09777005,33.3119691 L2.09777005,34.4519873 Z M9.48991203,32.2914138 L9.48991203,35.2950546 C9.48991203,35.9481222 9.30503069,36.4538438 8.93526246,36.8122345 C8.56549422,37.1706253 8.03246709,37.349818 7.33616507,37.349818 C6.65579152,37.349818 6.13300397,37.1757451 5.76778673,36.8275941 C5.40256949,36.479443 5.21996361,35.9788413 5.21996361,35.3257737 L5.21996361,32.2914138 L6.57501519,32.2914138 L6.57501519,35.2199636 C6.57501519,35.5726656 6.64100361,35.8286552 6.77298242,35.9879399 C6.90496124,36.1472247 7.09951329,36.2268659 7.35664443,36.2268659 C7.63197955,36.2268659 7.8316514,36.1477936 7.95566598,35.9896465 C8.07968055,35.8314995 8.14168691,35.5726656 8.14168691,35.2131371 L8.14168691,32.2914138 L9.48991203,32.2914138 Z M10.3047634,37.2815534 L10.3047634,32.2914138 L11.6598149,32.2914138 L11.6598149,37.2815534 L10.3047634,37.2815534 Z M16.0619691,37.2815534 L12.1743022,37.2815534 L12.1743022,36.4487257 L14.3348756,33.3802336 L12.2255006,33.3802336 L12.2255006,32.2914138 L16.0073574,32.2914138 L16.0073574,33.1208283 L13.846784,36.1927336 L16.0619691,36.1927336 L16.0619691,37.2815534 Z" id="RUIZMCPHERSON" fill="#0A2832"></path>
                <path d="M18.7165504,37.2815534 L17.6959952,33.6874242 L17.6652761,33.6874242 C17.7130615,34.2995328 17.7369539,34.7751045 17.7369539,35.1141535 L17.7369539,37.2815534 L16.542324,37.2815534 L16.542324,32.2914138 L18.337682,32.2914138 L19.3787166,35.8343447 L19.4060225,35.8343447 L20.4265777,32.2914138 L22.2253489,32.2914138 L22.2253489,37.2815534 L20.9863471,37.2815534 L20.9863471,35.0936742 C20.9863471,34.9798993 20.9880537,34.8536111 20.9914669,34.7148058 C20.9948802,34.5760005 21.0102396,34.2358188 21.0375455,33.6942506 L21.0068265,33.6942506 L19.9999242,37.2815534 L18.7165504,37.2815534 Z M25.2895176,33.325622 C24.9686725,33.325622 24.7183717,33.4570299 24.5386074,33.7198498 C24.3588432,33.9826697 24.2689624,34.3450371 24.2689624,34.806963 C24.2689624,35.7672226 24.6341741,36.2473453 25.3646086,36.2473453 C25.5853318,36.2473453 25.7992253,36.2166265 26.0062955,36.1551881 C26.2133657,36.0937497 26.4215706,36.0197972 26.6309163,35.9333283 L26.6309163,37.0733465 C26.2145003,37.2576617 25.7434796,37.349818 25.2178398,37.349818 C24.4646504,37.349818 23.8872517,37.1313735 23.4856265,36.6944782 C23.0840013,36.2575828 22.8831918,35.6261419 22.8831918,34.8001365 C22.8831918,34.2835988 22.9804678,33.8296439 23.1750228,33.4382585 C23.3695777,33.046873 23.6494596,32.7459431 24.0146769,32.5354596 C24.3798941,32.3249762 24.8093877,32.219736 25.3031705,32.219736 C25.8424633,32.219736 26.3578556,32.3369224 26.8493629,32.5712985 L26.4363623,33.6328125 C26.252047,33.5463436 26.0677345,33.4735288 25.8834193,33.4143659 C25.6991041,33.355203 25.5011388,33.325622 25.2895176,33.325622 Z M30.9921117,33.8785649 C30.9921117,34.4360616 30.8277095,34.866693 30.4989002,35.1704718 C30.1700909,35.4742506 29.7030522,35.6261377 29.09777,35.6261377 L28.7189017,35.6261377 L28.7189017,37.2815534 L27.3706766,37.2815534 L27.3706766,32.2914138 L29.09777,32.2914138 C29.7280826,32.2914138 30.2013789,32.4290793 30.5176729,32.7044144 C30.833967,32.9797496 30.9921117,33.3711291 30.9921117,33.8785649 Z M28.7189017,34.5270783 L28.9646541,34.5270783 C29.1671733,34.5270783 29.3281623,34.4701917 29.4476259,34.3564169 C29.5670895,34.242642 29.6268204,34.0856351 29.6268204,33.8853914 C29.6268204,33.5486179 29.4402324,33.3802336 29.067051,33.3802336 L28.7189017,33.3802336 L28.7189017,34.5270783 Z M35.831159,37.2815534 L34.4761074,37.2815534 L34.4761074,35.2472694 L32.9094357,35.2472694 L32.9094357,37.2815534 L31.5543841,37.2815534 L31.5543841,32.2914138 L32.9094357,32.2914138 L32.9094357,34.1413835 L34.4761074,34.1413835 L34.4761074,32.2914138 L35.831159,32.2914138 L35.831159,37.2815534 Z M39.6394114,37.2815534 L36.6767294,37.2815534 L36.6767294,32.2914138 L39.6394114,32.2914138 L39.6394114,33.3734072 L38.0249545,33.3734072 L38.0249545,34.1584496 L39.5199484,34.1584496 L39.5199484,35.240443 L38.0249545,35.240443 L38.0249545,36.1824939 L39.6394114,36.1824939 L39.6394114,37.2815534 Z M41.6284132,35.465716 L41.6284132,37.2815534 L40.2801881,37.2815534 L40.2801881,32.2914138 L41.9151244,32.2914138 C43.2713205,32.2914138 43.9494084,32.7829138 43.9494084,33.7659284 C43.9494084,34.3439046 43.667251,34.791033 43.1029278,35.1073271 L44.556963,37.2815534 L43.0278368,37.2815534 L41.969736,35.465716 L41.6284132,35.465716 Z M41.6284132,34.4519873 L41.8809921,34.4519873 C42.3520199,34.4519873 42.5875303,34.2437824 42.5875303,33.8273665 C42.5875303,33.4837665 42.3565709,33.3119691 41.894645,33.3119691 L41.6284132,33.3119691 L41.6284132,34.4519873 Z M48.0409587,35.7660801 C48.0409587,36.0755477 47.9624553,36.3503098 47.805446,36.5903747 C47.6484367,36.8304396 47.4220282,37.0170276 47.1262136,37.1501441 C46.830399,37.2832607 46.4833909,37.349818 46.085179,37.349818 C45.7529565,37.349818 45.4742123,37.3264945 45.2489381,37.2798468 C45.0236639,37.2331991 44.7892913,37.1518513 44.5458131,37.035801 L44.5458131,35.8343447 C44.8029442,35.9663235 45.0703111,36.0692882 45.3479217,36.1432418 C45.6255323,36.2171955 45.8803841,36.2541717 46.1124848,36.2541717 C46.3127285,36.2541717 46.4594959,36.2194709 46.5527912,36.1500683 C46.6460866,36.0806656 46.6927336,35.9913537 46.6927336,35.8821299 C46.6927336,35.8138649 46.673961,35.7541341 46.6364153,35.7029354 C46.5988696,35.6517367 46.5385699,35.5999699 46.4555142,35.5476335 C46.3724586,35.4952971 46.1511699,35.3883503 45.7916414,35.22679 C45.4662453,35.0788828 45.222202,34.9355286 45.0595039,34.7967233 C44.8968059,34.657918 44.7762064,34.4986356 44.6977017,34.3188714 C44.6191971,34.1391071 44.5799454,33.9263514 44.5799454,33.6805977 C44.5799454,33.2209473 44.7471919,32.862562 45.0816899,32.6054308 C45.4161879,32.3482997 45.8758314,32.219736 46.4606341,32.219736 C46.9771719,32.219736 47.5039415,32.3391978 48.0409587,32.578125 L47.6279581,33.6191596 C47.1614813,33.4052629 46.7587244,33.2983161 46.4196754,33.2983161 C46.2444621,33.2983161 46.1170362,33.3290349 46.0373938,33.3904733 C45.9577514,33.4519117 45.9179308,33.5281397 45.9179308,33.6191596 C45.9179308,33.717006 45.9685599,33.8046113 46.0698195,33.8819782 C46.1710791,33.959345 46.4458412,34.1004237 46.8941141,34.3052184 C47.324183,34.4986357 47.6228374,34.7062716 47.7900865,34.9281326 C47.9573355,35.1499935 48.0409587,35.4293066 48.0409587,35.7660801 Z M53.2486347,34.7796572 C53.2486347,35.6193155 53.0427053,36.2575828 52.6308404,36.6944782 C52.2189755,37.1313735 51.6159779,37.349818 50.8218295,37.349818 C50.0390586,37.349818 49.4389053,37.1302358 49.0213516,36.6910649 C48.603798,36.251894 48.3950243,35.612489 48.3950243,34.7728307 C48.3950243,33.9422744 48.6026602,33.3079891 49.0179384,32.869956 C49.4332166,32.4319229 50.036783,32.2129096 50.8286559,32.2129096 C51.6228043,32.2129096 52.2246642,32.4302163 52.6342536,32.8648362 C53.043843,33.2994561 53.2486347,33.9377233 53.2486347,34.7796572 Z M49.8149272,34.7796572 C49.8149272,35.7444678 50.1505579,36.2268659 50.8218295,36.2268659 C51.163154,36.2268659 51.4162992,36.1096796 51.5812727,35.8753034 C51.7462463,35.6409272 51.8287318,35.2757155 51.8287318,34.7796572 C51.8287318,34.2813234 51.7451085,33.9132673 51.5778595,33.6754779 C51.4106105,33.4376884 51.1608785,33.3187955 50.8286559,33.3187955 C50.1528334,33.3187955 49.8149272,33.8057445 49.8149272,34.7796572 Z M58.6679308,37.2815534 L56.8998786,37.2815534 L55.0772148,33.7659284 L55.0464957,33.7659284 C55.0897302,34.3188741 55.1113471,34.7409725 55.1113471,35.032236 L55.1113471,37.2815534 L53.9167172,37.2815534 L53.9167172,32.2914138 L55.6779429,32.2914138 L57.4937803,35.7592536 L57.5142597,35.7592536 C57.4824027,35.2563688 57.4664745,34.8524742 57.4664745,34.5475576 L57.4664745,32.2914138 L58.6679308,32.2914138 L58.6679308,37.2815534 Z" id="RUIZMCPHERSON" fill="#6EC460"></path>
            </g>
        </g>
    </g>
</svg>