<?xml version="1.0" encoding="utf-8"?>
<!-- Generator: Adobe Illustrator 19.1.0, SVG Export Plug-In . SVG Version: 6.00 Build 0)  -->
<!DOCTYPE svg PUBLIC "-//W3C//DTD SVG 1.1//EN" "http://www.w3.org/Graphics/SVG/1.1/DTD/svg11.dtd">
<svg version="1.1" id="Layer_1" xmlns="http://www.w3.org/2000/svg" xmlns:xlink="http://www.w3.org/1999/xlink" x="0px" y="0px"
	 viewBox="0 0 207.9 120.2" style="enable-background:new 0 0 207.9 120.2;" xml:space="preserve">
<style type="text/css">
	.st0{opacity:0.5;}
	.st1{fill:none;stroke:#000000;stroke-width:2;stroke-miterlimit:10;}
	.st2{fill:none;stroke:#000000;stroke-width:2;stroke-miterlimit:10;stroke-dasharray:3.083,3.083;}
	.st3{fill:none;stroke:#000000;stroke-width:2;stroke-miterlimit:10;stroke-dasharray:3.2103,3.2103;}
	.st4{fill:#D5EFF7;}
	.st5{fill:#70C1D4;}
	.st6{fill:#7DC691;}
	.st7{fill:#DEBB43;}
</style>
<g>
	<g class="st0">
		<g>
			<path class="st1" d="M116.4,88.9c0.5,0,1,0,1.5,0"/>
			<path class="st2" d="M121,88.9c12.2,0,23.2,0,35.5,0"/>
			<path class="st1" d="M158,88.9c0.5,0,1,0,1.5,0"/>
		</g>
	</g>
	<g class="st0">
		<g>
			<path class="st1" d="M51.5,88.9c0.5,0,1,0,1.5,0"/>
			<path class="st3" d="M56.2,88.9c10.2,0,20,0,30.5,0"/>
			<path class="st1" d="M88.3,88.9c0.5,0,1,0,1.5,0"/>
		</g>
	</g>
	<path class="st4" d="M136.3,27.5C135.3,12.1,122.6,0,107,0c-13.1,0-24.2,8.6-28,20.4c-1.7-0.5-3.4-0.7-5.3-0.7
		c-10.9,0-19.6,8.8-19.6,19.6S62.9,59,73.8,59c2.6,0,5.1-0.5,7.4-1.5C86,63.9,94.4,68.1,104,68.1c7.9,0,15-2.9,19.9-7.5
		c3.1,2.4,7.1,3.9,11.3,3.9c10.2,0,18.5-8.3,18.5-18.5C153.8,36.1,146,28,136.3,27.5z"/>
	<circle class="st5" cx="103.6" cy="88.8" r="3.8"/>
	<path class="st6" d="M104,73.8c-8.3,0-15,6.7-15,15s6.7,15,15,15s15-6.7,15-15S112.2,73.8,104,73.8z M112.6,92.6l0-2.7H109
		c-0.4,2.2-2.2,4-4.5,4.3v2.1c1,0.5,1.4,1.2,1.4,2.1c0,1.4-0.8,2.5-2.2,2.5c-1.4,0-2.5-1.1-2.5-2.5c0-1,0.3-1.8,1.3-2.2v-2
		c-2.1-0.5-3.8-2.1-4.2-4.3h-3l0,2.7L91.6,89l3.7-3.7l0,2.6h3c0.4-2.2,2-3.9,4.2-4.4v-3l-2.6,0l3.7-3.7l3.6,3.7l-2.8,0v3
		c2.3,0.4,4.1,2.1,4.5,4.4h3.6l0-2.6l3.7,3.6L112.6,92.6z"/>
	<g>
		<rect x="163.5" y="76.9" class="st7" width="26" height="18"/>
		<path class="st7" d="M176.5,57.3c-17.4,0-31.5,14.1-31.5,31.5c0,17.4,14.1,31.5,31.5,31.5s31.5-14.1,31.5-31.5
			C207.9,71.4,193.8,57.3,176.5,57.3z M191.5,96.9h-10v3h3v2h-16v-2h3v-3h-10v-22h30V96.9z"/>
	</g>
	<g>
		<rect x="18.5" y="76.9" class="st7" width="26" height="18"/>
		<path class="st7" d="M31.5,57.3C14.1,57.3,0,71.4,0,88.8c0,17.4,14.1,31.5,31.5,31.5s31.5-14.1,31.5-31.5
			C62.9,71.4,48.8,57.3,31.5,57.3z M46.5,96.9h-10v3h3v2h-16v-2h3v-3h-10v-22h30V96.9z"/>
	</g>
</g>
</svg>
