<?xml version="1.0" encoding="utf-8"?>
<!-- Generator: Adobe Illustrator 19.1.0, SVG Export Plug-In . SVG Version: 6.00 Build 0)  -->
<!DOCTYPE svg PUBLIC "-//W3C//DTD SVG 1.1//EN" "http://www.w3.org/Graphics/SVG/1.1/DTD/svg11.dtd">
<svg version="1.1" id="Layer_1" xmlns="http://www.w3.org/2000/svg" xmlns:xlink="http://www.w3.org/1999/xlink" x="0px" y="0px"
	 viewBox="0 0 154.9 103.3" style="enable-background:new 0 0 154.9 103.3;" xml:space="preserve">
<style type="text/css">
	.st0{opacity:0.5;fill:#70C1D4;}
	.st1{opacity:0.25;fill:#B3B3B3;}
	.st2{fill:#EA523A;}
</style>
<g>
	<path class="st0" d="M89.2,57.9c-1.9-16.4-16.3-28.6-32.9-27.7c-14,0.8-25.4,10.6-28.7,23.5c-1.8-0.4-3.7-0.6-5.7-0.5
		C10.2,53.8,1.3,63.7,1.9,75.4s10.6,20.5,22.2,19.9c2.8-0.2,5.5-0.9,7.9-2c5.5,6.6,14.7,10.6,25,10c8.5-0.5,15.9-4,20.9-9.2
		c3.5,2.4,7.8,3.8,12.4,3.5c11-0.6,19.4-10,18.8-20.9C108.4,66,99.6,57.9,89.2,57.9z"/>
	<path class="st0" d="M39.4,12.8C38.5,5.4,32.1-0.2,24.5,0.3c-6.3,0.3-11.5,4.8-13,10.6c-0.8-0.2-1.7-0.3-2.6-0.2
		c-5.2,0.3-9.3,4.8-9,10s4.8,9.3,10,9c1.3-0.1,2.5-0.4,3.5-0.9c2.5,3,6.7,4.8,11.3,4.5c3.8-0.2,7.2-1.8,9.4-4.2
		c1.6,1.1,3.5,1.7,5.6,1.6c4.9-0.3,8.7-4.5,8.5-9.5C48.1,16.5,44.1,12.8,39.4,12.8z"/>
	<polygon class="st1" points="77.7,2.6 143.8,4.7 82.9,10.1 	"/>
	<polygon class="st1" points="86.5,13.2 131.6,14.6 90.1,18.3 	"/>
	<polygon class="st1" points="88.8,21.4 154.9,23.5 91.5,28.9 	"/>
	<polygon class="st1" points="83.7,41.9 136.9,44 86.4,49.5 	"/>
	<polygon class="st1" points="88.2,32 130.7,33.4 89.2,37.1 	"/>
	<polygon class="st1" points="96.6,55.8 127.5,56.8 97.3,59.5 	"/>
	<path class="st2" d="M116.8,74.4L86.2,43.7c4.1-4.8,6.4-10.9,6.4-17.3c0-7.1-2.8-13.7-7.8-18.7c-5-5-11.7-7.8-18.7-7.8
		C59,0,52.4,2.8,47.4,7.8c-5,5-7.8,11.7-7.8,18.7c0,7.1,2.8,13.7,7.8,18.7c5,5,11.7,7.8,18.7,7.8c6.1,0,11.8-2,16.5-5.8l30.7,30.7
		c0.5,0.5,1.1,0.7,1.8,0.7s1.3-0.2,1.8-0.7C117.8,76.9,117.8,75.4,116.8,74.4z M50.2,42.4c-4.2-4.2-6.6-9.9-6.6-15.9
		c0-6,2.3-11.7,6.6-15.9C54.4,6.3,60.1,4,66.1,4c6,0,11.7,2.3,15.9,6.6c4.2,4.2,6.6,9.9,6.6,15.9c0,6-2.3,11.7-6.6,15.9
		c-4.2,4.2-9.9,6.6-15.9,6.6C60.1,49,54.4,46.6,50.2,42.4z"/>
</g>
</svg>
