<?xml version="1.0" encoding="UTF-8"?>
<svg width="58px" height="56px" viewBox="0 0 58 56" version="1.1" xmlns="http://www.w3.org/2000/svg" xmlns:xlink="http://www.w3.org/1999/xlink">
    <!-- Generator: Sketch 48.2 (47327) - http://www.bohemiancoding.com/sketch -->
    <title>support</title>
    <desc>Created with Sketch.</desc>
    <defs></defs>
    <g id="Desktop-HD" stroke="none" stroke-width="1" fill="none" fill-rule="evenodd" transform="translate(-239.000000, -1504.000000)">
        <g id="Group-5" transform="translate(239.000000, 1491.000000)">
            <g id="Group-11" transform="translate(0.000000, 13.000000)">
                <g id="support">
                    <circle id="Oval-5" fill="#FFEFF0" cx="31.5970149" cy="26.4029851" r="26.4029851"></circle>
                    <path d="M53.6488216,19.165182 C49.8818078,9.46963484 40.459915,2.59701493 29.4328358,2.59701493 C18.3068123,2.59701493 8.81491061,9.59352215 5.11681627,19.426851 M4.540014,35.9934918 C7.73468016,46.7177477 17.6705793,54.5373134 29.4328358,54.5373134 C40.342302,54.5373134 49.6806405,47.8105161 53.5263616,38.2784113" id="Oval-3" stroke="#859DBA" stroke-width="2.6"></path>
                    <path d="M7.31366237,34.8316748 L2.89972271,33.0660783 L2.24470178,34.7062606 L5.83942695,36.14347 L4.40139249,39.73737 L6.04074971,40.3933192 L7.80541797,35.9793795 C7.98631967,35.5264033 7.76653545,35.0135047 7.31366237,34.8316748 Z" id="Shape" stroke="#859DBA" stroke-width="0.6" fill="#859DBA" fill-rule="nonzero" transform="translate(5.056727, 36.729699) rotate(-75.000000) translate(-5.056727, -36.729699) "></path>
                    <path d="M52.5158172,16.4596943 C52.8086636,16.0693136 53.3609699,15.9897663 53.7516905,16.2817428 L57.5584991,19.1286931 L56.500604,20.5424184 L53.4013538,18.223214 L51.0827328,21.3234747 L49.6679703,20.2662627 L52.5158172,16.4596943 Z" id="Shape" stroke="#859DBA" stroke-width="0.6" fill="#859DBA" fill-rule="nonzero" transform="translate(53.613235, 18.714625) rotate(-188.000000) translate(-53.613235, -18.714625) "></path>
                    <path d="M34.1207807,26.3715061 C35.3046052,25.1910448 36.0622528,23.5383989 36.0622528,21.6968792 C36.0622528,19.8553596 35.3046052,18.2499322 34.1207807,17.0222524 C32.9369562,15.841791 31.279602,15.0862958 29.4328358,15.0862958 C27.5860697,15.0862958 25.9760684,15.841791 24.7448909,17.0222524 C23.5610665,18.2027137 22.8034188,19.8553596 22.8034188,21.6968792 C22.8034188,23.5383989 23.5610665,25.1438263 24.7448909,26.3715061 C25.9287154,27.5519674 27.5860697,28.3074627 29.4328358,28.3074627 C31.279602,28.2602442 32.8896033,27.5519674 34.1207807,26.3715061 Z M24.0819492,21.6968792 C24.0819492,20.2331072 24.697538,18.9109905 25.6445975,17.919403 C26.5916571,16.9750339 27.9648935,16.361194 29.4328358,16.361194 C30.9007782,16.361194 32.2266616,16.9750339 33.2210741,17.919403 C34.1681337,18.863772 34.7837224,20.2331072 34.7837224,21.6968792 C34.7837224,23.1606513 34.1681337,24.482768 33.2210741,25.4743555 C32.2740145,26.4187246 30.9007782,27.0325645 29.4328358,27.0325645 C27.9648935,27.0325645 26.6390101,26.4187246 25.6445975,25.4743555 C24.697538,24.482768 24.0819492,23.1606513 24.0819492,21.6968792 Z" id="Shape" stroke="#859DBA" fill="#859DBA" fill-rule="nonzero"></path>
                    <path d="M17.3104733,38.7899593 C17.3104733,39.1204885 17.5945911,39.4037992 17.926062,39.4037992 L40.9396096,39.4037992 C41.2710805,39.4037992 41.5551984,39.1204885 41.5551984,38.7899593 C41.5551984,36.2401628 40.5134328,33.9736771 38.8560786,32.2738128 C37.1987243,30.6211669 34.8784284,29.5823609 32.3213675,29.5823609 L26.5443041,29.5823609 C23.9872433,29.5823609 21.7143003,30.6211669 20.0095931,32.2738128 C18.3522388,33.9736771 17.3104733,36.2873813 17.3104733,38.7899593 Z M26.5443041,30.8572592 L32.3213675,30.8572592 C34.4996045,30.8572592 36.4884296,31.7544098 37.956372,33.1709634 C39.2822554,34.4930801 40.134609,36.1929444 40.2766679,38.1289009 L18.5890037,38.1289009 C18.7310626,36.1929444 19.5834163,34.4458616 20.9092997,33.1709634 C22.377242,31.7544098 24.3660671,30.8572592 26.5443041,30.8572592 Z" id="Shape" stroke="#859DBA" fill="#859DBA" fill-rule="nonzero"></path>
                </g>
            </g>
        </g>
    </g>
</svg>