<?xml version="1.0" encoding="UTF-8"?>
<svg width="52px" height="69px" viewBox="0 0 52 69" version="1.1" xmlns="http://www.w3.org/2000/svg" xmlns:xlink="http://www.w3.org/1999/xlink">
    <!-- Generator: Sketch 48.2 (47327) - http://www.bohemiancoding.com/sketch -->
    <title>badge</title>
    <desc>Created with Sketch.</desc>
    <defs></defs>
    <g id="Desktop-HD" stroke="none" stroke-width="1" fill="none" fill-rule="evenodd" transform="translate(-581.000000, -1491.000000)">
        <g id="Group-5" transform="translate(239.000000, 1491.000000)" fill-rule="nonzero">
            <g id="Group-11" transform="translate(342.000000, 0.000000)">
                <g id="badge">
                    <path d="M49.3084788,24.2388098 L51.692847,20.27309 C52.0240093,19.7443274 51.8915444,19.0172788 51.3616848,18.6868021 L47.5864351,15.9768936 L48.314992,11.4163158 C48.3812245,10.8214579 48.0500622,10.2265999 47.4539702,10.0944092 L42.9501636,8.97078864 L41.8242119,4.47630621 C41.691747,3.88144824 41.0956549,3.48487626 40.4995629,3.61706692 L35.9295238,4.34411555 L33.2139933,0.576681753 C32.8828311,0.0479191141 32.1542741,-0.0842715455 31.6244145,0.246205104 L27.6504675,2.62563698 L23.6765205,0.180109774 C23.1466609,-0.150366875 22.4843364,-0.0181762157 22.0869417,0.510586423 L19.3714112,4.27802022 L14.8013721,3.55097159 C14.2052801,3.48487626 13.609188,3.81535291 13.4767231,4.41021088 L12.3507715,8.90469331 L7.84696483,10.0283139 C7.25087277,10.1605046 6.85347807,10.7553625 6.98594297,11.3502205 L7.71449993,15.9107983 L3.93925025,18.6868021 C3.40939065,19.0172788 3.27692575,19.7443274 3.608088,20.27309 L5.99245622,24.2388098 L3.608088,28.2045296 C3.27692575,28.7332922 3.40939065,29.3942455 3.93925025,29.7908175 L7.71449993,32.500726 L6.98594297,37.0613038 C6.91971052,37.6561618 7.25087277,38.2510197 7.84696483,38.3832104 L12.3507715,39.506831 L13.4767231,44.0013134 C13.609188,44.5961714 14.2052801,44.9927434 14.8013721,44.8605527 L15.3974642,44.7944574 L15.3974642,65.2179143 C15.3974642,65.6805816 15.662394,66.0771536 16.0597887,66.2754396 C16.4571834,66.4737256 16.987043,66.4076302 17.3182052,66.1432489 L27.6504675,57.8813327 L37.9827298,66.1432489 C38.1814271,66.3415349 38.4463569,66.4076302 38.7112867,66.4076302 C38.9099841,66.4076302 39.042449,66.3415349 39.2411463,66.2754396 C39.638541,66.0771536 39.9034708,65.6805816 39.9034708,65.2179143 L39.9034708,44.7944574 L40.4995629,44.8605527 C41.0956549,44.9266481 41.691747,44.5961714 41.8242119,44.0013134 L42.9501636,39.506831 L47.4539702,38.3832104 C48.0500622,38.2510197 48.4474569,37.6561618 48.314992,37.0613038 L47.5864351,32.500726 L51.3616848,29.7908175 C51.8915444,29.4603409 52.0240093,28.7332922 51.692847,28.2045296 L49.3084788,24.2388098 Z" id="Shape" fill="#FFEFF0"></path>
                    <path d="M45.9893299,26.4530034 L48.3736981,22.4872836 C48.7048603,21.9585209 48.5723954,21.2314723 48.0425358,20.9009957 L44.2672861,18.1910871 L44.9958431,13.6305094 C45.0620756,13.0356514 44.7309133,12.4407935 44.1348212,12.3086028 L39.6310146,11.1849822 L38.505063,6.69049976 C38.3725981,6.09564179 37.776506,5.69906981 37.180414,5.83126047 L32.6103749,6.5583091 L29.8948444,2.7908753 C29.5636822,2.26211266 28.8351252,2.129922 28.3052656,2.46039865 L24.3313186,4.83983052 L20.3573715,2.39430332 C19.8275119,2.06382667 19.1651874,2.19601733 18.7677927,2.72477997 L16.0522623,6.49221377 L11.4822232,5.76516514 C10.8861311,5.69906981 10.2900391,6.02954646 10.1575742,6.62440443 L9.03162252,11.1188869 L4.52781589,12.2425075 C3.93172384,12.3746981 3.53432914,12.9695561 3.66679404,13.5644141 L4.39535099,18.1249918 L0.620101317,20.9009957 C0.0902417137,21.2314723 -0.0422231871,21.9585209 0.288939065,22.4872836 L2.67330728,26.4530034 L0.288939065,30.4187232 C-0.0422231871,30.9474858 0.0902417137,31.6084391 0.620101317,32.0050111 L4.39535099,34.7149196 L3.66679404,39.2754974 C3.60056159,39.8703553 3.93172384,40.4652133 4.52781589,40.5974039 L9.03162252,41.7210246 L10.1575742,46.215507 C10.2900391,46.8103649 10.8861311,47.2069369 11.4822232,47.0747463 L12.0783152,47.0086509 L12.0783152,67.4321078 C12.0783152,67.8947752 12.343245,68.2913471 12.7406397,68.4896331 C13.1380344,68.6879191 13.6678941,68.6218238 13.9990563,68.3574425 L24.3313186,60.0955262 L34.6635808,68.3574425 C34.8622782,68.5557285 35.127208,68.6218238 35.3921378,68.6218238 C35.5908351,68.6218238 35.7233,68.5557285 35.9219974,68.4896331 C36.3193921,68.2913471 36.5843219,67.8947752 36.5843219,67.4321078 L36.5843219,47.0086509 L37.180414,47.0747463 C37.776506,47.1408416 38.3725981,46.8103649 38.505063,46.215507 L39.6310146,41.7210246 L44.1348212,40.5974039 C44.7309133,40.4652133 45.128308,39.8703553 44.9958431,39.2754974 L44.2672861,34.7149196 L48.0425358,32.0050111 C48.5723954,31.6745344 48.7048603,30.9474858 48.3736981,30.4187232 L45.9893299,26.4530034 Z M23.6027616,57.649999 L14.4626835,64.9865806 L14.4626835,46.612079 L16.0522623,46.3476976 L18.7677927,50.1151314 C18.9664901,50.4456081 19.3638848,50.5777987 19.695047,50.5777987 C19.8937444,50.5777987 20.0924417,50.5117034 20.2911391,50.3795128 L24.2650861,48.0000809 L28.2390331,50.3795128 C28.7688927,50.7099894 29.4312173,50.5777987 29.828612,50.0490361 L32.5441424,46.2816023 L34.1337212,46.5459836 L34.1337212,64.9333739 L25.0598755,57.649999 C24.5962484,57.3195224 24.0001563,57.3195224 23.6027616,57.649999 Z M43.5387292,27.0478613 L45.7906325,30.6831045 L42.3465451,33.194727 C42.0153828,33.4591083 41.8166855,33.9217756 41.8829179,34.3183476 L42.5452424,38.5484487 L38.3725981,39.5398787 C37.9089709,39.6720693 37.5778087,40.002546 37.5115762,40.399118 L36.5180894,44.5631237 L32.2792126,43.9021704 C31.8155855,43.8360751 31.4181908,44.0343611 31.153261,44.3648377 L28.6364278,47.8017949 L24.9936431,45.5545537 C24.7949457,45.422363 24.5962484,45.3562677 24.397551,45.3562677 C24.1988537,45.3562677 24.0001563,45.422363 23.801459,45.5545537 L20.1586742,47.8017949 L17.6418411,44.3648377 C17.3769113,44.0343611 16.9132841,43.8360751 16.5158894,43.9021704 L12.2770126,44.5631237 L11.2835258,40.399118 C11.1510609,39.9364506 10.8198987,39.605974 10.422504,39.5398787 L6.2498596,38.5484487 L6.91218411,34.3183476 C6.97841656,33.8556803 6.77971921,33.4591083 6.44855695,33.194727 L3.00446953,30.6831045 L5.25637285,27.0478613 C5.4550702,26.6512894 5.4550702,26.1886221 5.25637285,25.7920501 L3.00446953,22.1568069 L6.44855695,19.6451844 C6.77971921,19.3808031 6.97841656,18.9181358 6.91218411,18.5215638 L6.2498596,14.2914627 L10.422504,13.3000327 C10.8861311,13.1678421 11.2172934,12.8373654 11.2835258,12.4407935 L12.2770126,8.27678767 L16.5158894,8.93774097 C16.9795166,9.0038363 17.3769113,8.80555031 17.6418411,8.47507366 L20.1586742,5.03811651 L23.801459,7.28535773 C24.1988537,7.48364372 24.6624808,7.48364372 25.0598755,7.28535773 L28.7026603,5.03811651 L31.2194934,8.47507366 C31.4844232,8.80555031 31.9480504,9.0038363 32.3454451,8.93774097 L36.5843219,8.27678767 L37.5778087,12.4407935 C37.7102736,12.9034608 38.0414358,13.2339374 38.4388305,13.3000327 L42.6114749,14.2914627 L41.9491504,18.5215638 C41.8829179,18.9842311 42.0816153,19.3808031 42.4127775,19.6451844 L45.856865,22.1568069 L43.5387292,25.7920501 C43.3400318,26.1886221 43.3400318,26.6512894 43.5387292,27.0478613 Z" id="Shape" fill="#859DBA"></path>
                    <path d="M24.3313186,9.13602696 C14.7276133,9.13602696 6.97841656,16.9352759 6.97841656,26.4530034 C6.97841656,35.9707309 14.7276133,43.7699798 24.3313186,43.7699798 C33.9350239,43.7699798 41.6842206,35.9707309 41.6842206,26.4530034 C41.6842206,16.9352759 33.9350239,9.13602696 24.3313186,9.13602696 Z M24.3313186,41.3905479 C16.0522623,41.3905479 9.36278477,34.6488243 9.36278477,26.4530034 C9.36278477,18.2571825 16.0522623,11.4493635 24.3313186,11.4493635 C32.6103749,11.4493635 39.2998524,18.1910871 39.2998524,26.386908 C39.2998524,34.5827289 32.6103749,41.3905479 24.3313186,41.3905479 Z" id="Shape" fill="#859DBA"></path>
                    <path d="M35.3921378,23.9413808 C35.2596729,23.5448089 34.8622782,23.2143322 34.4648835,23.1482369 L28.1728007,22.1568069 L25.3910378,16.5387039 C24.9936431,15.7455599 23.6689941,15.7455599 23.2715994,16.5387039 L20.4898364,22.1568069 L14.2639861,23.0821416 C13.800359,23.1482369 13.4691967,23.4787135 13.3367318,23.8752855 C13.2042669,24.2718575 13.3367318,24.8006201 13.6678941,25.0650014 L18.1717007,29.4272932 L17.045749,35.6402542 C16.9795166,36.1029215 17.1782139,36.4994935 17.5093762,36.7638748 C17.9067709,37.0282561 18.370398,37.0943515 18.7677927,36.8299701 L24.3313186,33.9217756 L29.8948444,36.8299701 C30.0935418,36.8960655 30.2260067,36.9621608 30.424704,36.9621608 C30.6896338,36.9621608 30.8883312,36.8960655 31.153261,36.7638748 C31.5506557,36.4994935 31.6831206,36.0368262 31.6168881,35.6402542 L30.5571689,29.4933885 L35.0609755,25.1310968 C35.3921378,24.8006201 35.5246027,24.3379528 35.3921378,23.9413808 Z M28.4377305,28.1714819 C28.1728007,28.4358633 28.0403358,28.8324352 28.1065682,29.2290072 L28.8351252,33.6573943 L24.8611782,31.5423438 C24.6624808,31.4762484 24.5300159,31.4101531 24.3313186,31.4101531 C24.1326212,31.4101531 23.9339239,31.4762484 23.801459,31.5423438 L19.8275119,33.6573943 L20.5560689,29.2290072 C20.6223013,28.8324352 20.4898364,28.4358633 20.2249066,28.1714819 L16.9795166,25.0650014 L21.4170908,24.4040481 C21.8144855,24.3379528 22.1456477,24.0735715 22.2781126,23.7430948 L24.2650861,19.7112797 L26.2520596,23.7430948 C26.450757,24.0735715 26.7819192,24.3379528 27.1130815,24.4040481 L31.5506557,25.0650014 L28.4377305,28.1714819 Z" id="Shape" fill="#859DBA"></path>
                </g>
            </g>
        </g>
    </g>
</svg>