<?xml version="1.0" encoding="UTF-8"?>
<svg width="52px" height="67px" viewBox="0 0 52 67" version="1.1" xmlns="http://www.w3.org/2000/svg" xmlns:xlink="http://www.w3.org/1999/xlink">
    <!-- Generator: Sketch 48.2 (47327) - http://www.bohemiancoding.com/sketch -->
    <title>like (1)</title>
    <desc>Created with Sketch.</desc>
    <defs></defs>
    <g id="Desktop-HD" stroke="none" stroke-width="1" fill="none" fill-rule="evenodd" transform="translate(-580.000000, -1819.000000)">
        <g id="Group-6" transform="translate(239.000000, 1819.000000)" fill-rule="nonzero">
            <g id="Group-11" transform="translate(341.000000, 0.000000)">
                <g id="like-(1)">
                    <path d="M27.3987617,11.942381 L27.3987617,1.33441955 C27.3987617,0.593075356 26.814113,0 26.0833022,0 C25.3524914,0 24.7678428,0.593075356 24.7678428,1.33441955 L24.7678428,11.95586 C24.7678428,12.6972042 25.3524914,13.2902796 26.0833022,13.2902796 C26.814113,13.2768006 27.3987617,12.6837252 27.3987617,11.942381 Z" id="Shape" fill="#859DBA"></path>
                    <path d="M16.1841376,16.2691353 C16.5163243,16.2691353 16.8617985,16.1343455 17.1142604,15.8782448 C17.6324717,15.3525643 17.6324717,14.5168672 17.1142604,13.9911868 L9.71314005,6.48339196 C9.19492875,5.95771153 8.37110565,5.95771153 7.85289435,6.48339196 C7.33468305,7.00907239 7.33468305,7.84476949 7.85289435,8.37044992 L15.2540147,15.8782448 C15.5064767,16.1343455 15.8519509,16.2691353 16.1841376,16.2691353 Z" id="Shape" fill="#859DBA"></path>
                    <path d="M47.8348894,23.8578041 L37.3643636,23.8578041 C36.6335528,23.8578041 36.0489042,24.4508795 36.0489042,25.1922237 C36.0489042,25.9335679 36.6335528,26.5266432 37.3643636,26.5266432 L47.8348894,26.5266432 C48.5657002,26.5266432 49.1503489,25.9335679 49.1503489,25.1922237 C49.1503489,24.4508795 48.5657002,23.8578041 47.8348894,23.8578041 Z" id="Shape" fill="#859DBA"></path>
                    <path d="M3.00296806,25.1922237 C3.00296806,25.9335679 3.58761671,26.5266432 4.31842752,26.5266432 L14.7889533,26.5266432 C15.5197641,26.5266432 16.1044128,25.9335679 16.1044128,25.1922237 C16.1044128,24.4508795 15.5197641,23.8578041 14.7889533,23.8578041 L4.31842752,23.8578041 C3.60090418,23.8578041 3.00296806,24.4643585 3.00296806,25.1922237 Z" id="Shape" fill="#859DBA"></path>
                    <path d="M35.7964423,16.6465469 L43.1975627,9.13875208 C43.715774,8.61307165 43.715774,7.77737456 43.1975627,7.25169413 C42.6793514,6.7260137 41.8555283,6.7260137 41.337317,7.25169413 L33.9361966,14.759489 C33.4179853,15.2851694 33.4179853,16.1208665 33.9361966,16.6465469 C34.1886585,16.9026477 34.5341327,17.0374375 34.8663194,17.0374375 C35.1985061,17.0374375 35.5439803,16.9026477 35.7964423,16.6465469 Z" id="Shape" fill="#859DBA"></path>
                    <path d="M2.87622604,38.6153675 L2.87622604,61.7318274 C2.87622604,63.1875579 4.04552334,64.3602296 5.46728256,64.3602296 L13.2138771,64.3602296 C14.1041376,64.3602296 14.8748108,63.9154231 15.3531597,63.2279948 C16.5888943,64.4006665 18.2365405,65.1285318 20.0569238,65.1285318 L40.8119509,65.1285318 C45.4625651,65.1285318 48.4256708,62.6483984 48.9571695,58.3351231 L51.7475381,40.3271987 C51.7608256,40.2598037 51.7608256,40.1924088 51.7608256,40.1250139 C51.7608256,36.2835031 48.6781327,33.1563784 44.8912039,33.1563784 L34.5136904,33.1563784 L34.5136904,25.5946677 C34.5136904,22.3192742 33.5702801,19.9604518 31.6967469,18.5586373 C28.7336413,16.3615627 24.6809631,17.6151083 24.508226,17.6690243 C23.9634398,17.8442511 23.5913907,18.3564525 23.5913907,18.9360489 L23.5913907,27.5356415 C23.5913907,34.2346973 15.9112334,36.5261248 15.5923342,36.6204777 C15.4328845,36.6609146 15.2734349,36.7417886 15.1538477,36.8496204 C14.6754988,36.310461 13.9845504,35.9734864 13.2271646,35.9734864 L5.46728256,35.9734864 C4.03223587,35.9734864 2.87622604,37.1596371 2.87622604,38.6153675 Z" id="Shape" fill="#FFEFF0"></path>
                    <path d="M0.0398624079,39.5608221 L0.0398624079,62.677282 C0.0398624079,64.1330124 1.20915971,65.3056841 2.63091892,65.3056841 L10.3775135,65.3056841 C11.267774,65.3056841 12.0384472,64.8608776 12.5167961,64.1734494 C13.7525307,65.3461211 15.4001769,66.0739863 17.2205602,66.0739863 L37.9755872,66.0739863 C42.6262015,66.0739863 45.5893071,63.593853 46.1208059,59.2805777 L48.9111744,41.2726532 C48.9244619,41.2052583 48.9244619,41.1378634 48.9244619,41.0704684 C48.9244619,37.2289576 45.841769,34.101833 42.0548403,34.101833 L31.6773268,34.101833 L31.6773268,26.5401222 C31.6773268,23.2647288 30.7339165,20.9059063 28.8603833,19.5040918 C25.8972776,17.3070172 21.8445995,18.5605629 21.6718624,18.6144788 C21.1270762,18.7897056 20.755027,19.3019071 20.755027,19.8815034 L20.755027,28.4810961 C20.755027,35.1801518 13.0748698,37.4715793 12.7559705,37.5659322 C12.5965209,37.6063692 12.4370713,37.6872431 12.317484,37.795075 C11.8391351,37.2559156 11.1481867,36.9189409 10.390801,36.9189409 L2.63091892,36.9189409 C1.19587224,36.9189409 0.0398624079,38.1050916 0.0398624079,39.5608221 Z M12.9818575,40.1808554 C13.1413071,40.1943344 13.3007568,40.1808554 13.4602064,40.1404184 C13.8721179,40.0191076 23.3859459,37.2289576 23.3859459,28.4945751 L23.3859459,20.9598223 C24.4090811,20.7980744 26.0965897,20.7441585 27.3057494,21.6607295 C28.4617592,22.5233846 29.0464079,24.1678208 29.0464079,26.5266432 L29.0464079,35.4227736 C29.0464079,36.1641178 29.6310565,36.7571931 30.3618673,36.7571931 L42.0548403,36.7571931 C44.36686,36.7571931 46.2403931,38.6307721 46.293543,40.9626365 L43.5164619,58.8762081 C43.5164619,58.8896871 43.5164619,58.9031661 43.5164619,58.9166451 C43.1577002,61.8820218 41.2974545,63.3781892 37.9755872,63.3781892 L17.2205602,63.3781892 C14.8819656,63.3781892 12.9818575,61.4506943 12.9818575,59.0783929 L12.9818575,40.1808554 Z M2.67078133,39.58778 L10.3509386,39.58778 L10.3509386,62.636845 L2.67078133,62.636845 L2.67078133,39.58778 Z" id="Shape" fill="#859DBA"></path>
                </g>
            </g>
        </g>
    </g>
</svg>