<?xml version="1.0" encoding="UTF-8"?>
<svg width="56px" height="55px" viewBox="0 0 56 55" version="1.1" xmlns="http://www.w3.org/2000/svg" xmlns:xlink="http://www.w3.org/1999/xlink">
    <!-- Generator: Sketch 48.2 (47327) - http://www.bohemiancoding.com/sketch -->
    <title>lifter</title>
    <desc>Created with Sketch.</desc>
    <defs></defs>
    <g id="Desktop-HD" stroke="none" stroke-width="1" fill="none" fill-rule="evenodd" transform="translate(-1042.000000, -815.000000)">
        <g id="Group-11" transform="translate(240.000000, 814.000000)" fill-rule="nonzero">
            <g id="lifter" transform="translate(802.000000, 1.000000)">
                <path d="M39.2085146,30.3807359 L32.4706121,24.7453427 C28.6793138,28.0412399 24.5555088,30.6030645 21.6880468,32.1914113 L24.4233138,40.6441129 C29.5575205,37.5657762 34.5083353,34.1288306 39.2085146,30.3807359 Z" id="Shape" fill="#E7ECED"></path>
                <g id="Group" transform="translate(23.251462, 25.947581)" fill="#AFB6BB">
                    <path d="M11.0127875,8.17282258 C11.5175517,7.80578629 12.0288655,7.4481754 12.5299181,7.07448589 L7.81008967,0.056995968 C7.79797271,0.0390322584 7.77930604,0.0304939519 7.76631579,0.0135282261 C7.27738012,0.408064516 6.78658869,0.790181452 6.29579727,1.15910282 L11.0127875,8.17282258 Z" id="Shape"></path>
                    <path d="M0.0998830409,5.36405242 L4.84023392,12.4119254 C5.36366472,12.0741633 5.8785809,11.7204335 6.39731774,11.3760181 C6.39633528,11.3750202 6.39633528,11.3731351 6.39546199,11.37125 L1.66264327,4.33479839 C1.11224951,4.67910282 0.582378168,5.00178427 0.072920078,5.30162298 C0.0859103314,5.32246976 0.0877660819,5.34520161 0.0998830409,5.36405242 Z" id="Shape"></path>
                    <path d="M4.78150487,2.26298387 C4.25992982,2.63190524 3.74588694,2.98197581 3.23839376,3.3197379 C3.23937622,3.32162298 3.23937622,3.32350806 3.24123197,3.32539315 L7.95451072,10.3334577 C8.46953606,9.98150202 8.9817232,9.6258871 9.49205458,9.26639113 L4.78150487,2.26298387 Z" id="Shape"></path>
                </g>
                <path d="M51.1757037,19.0181351 L45.6512437,10.8038407 C44.7944327,9.52952621 43.6433216,8.48796371 42.29954,7.76897177 L30.4785185,1.44785282 C29.2575439,0.795060484 27.7814581,0.881219758 26.6415906,1.67206653 L2.66354776,18.3143347 C1.52455361,19.1051815 0.908007797,20.4703125 1.06356335,21.8638306 L2.56290058,35.347369 C2.73330214,36.8808266 3.27070565,38.3480847 4.12751657,39.6223992 L9.65295906,47.8366935 C10.233154,48.699506 11.3916881,48.9208367 12.2419493,48.3314718 L18.3940897,44.0620968 C20.4308304,42.9817238 22.4368967,41.830494 24.4223314,40.6375706 L21.6899025,32.1925202 C24.5573645,30.6041734 28.6811696,28.0433468 32.4724678,24.7464516 L39.1992359,30.3724194 C41.0143782,28.9278931 42.8043041,27.4529839 44.5383392,25.9176411 L50.6904795,21.6482661 C51.5380117,21.0577923 51.7558986,19.8809476 51.1757037,19.0181351 Z" id="Shape" fill="#E8213A"></path>
                <path d="M5.02810136,22.4749294 C4.95081481,21.7786694 5.25810526,21.0956048 5.82803899,20.7001815 L27.6800468,5.53459677 C28.2499805,5.13917339 28.9875867,5.09659274 29.5985653,5.42293347 L38.1906901,10.0167641 C39.040078,10.4708468 39.0298168,11.7015827 38.1785731,12.1518952 C33.0592125,14.8603125 28.1512982,17.8109073 22.5337232,21.7094758 C16.9105809,25.6118145 12.4552515,29.148004 8.09205458,33.0276109 C7.36569201,33.67375 6.22484211,33.2338609 6.11677193,32.259496 L5.02810136,22.4749294 Z" id="Shape" fill="#C6E2F7"></path>
                <g id="Group" transform="translate(9.606238, 18.961694)" fill="#28384C">
                    <path d="M2.63385575,29.3687802 C1.78446784,29.9581452 0.625060429,29.7368145 0.0448654971,28.874002 L3.52603509,34.0496573 C4.21430019,35.073256 5.58973879,35.3362802 6.59839376,34.6371371 L10.9252398,31.6345363 C11.7746277,31.0451714 11.9925146,29.8673286 11.4123197,29.004627 L8.78512281,25.0995161 L2.63385575,29.3687802 Z" id="Shape"></path>
                    <path d="M41.082386,2.68546371 L34.9302456,6.95483871 L37.5574425,10.8599496 C38.1376374,11.7227621 39.297154,11.9440927 40.1464327,11.3547278 L44.5290604,8.31331653 C45.5059493,7.63502016 45.7564756,6.28131048 45.0897154,5.28887097 L41.5694659,0.0555544355 C42.1496608,0.919254032 41.9317739,2.09609879 41.082386,2.68546371 Z" id="Shape"></path>
                </g>
                <rect id="Rectangle-path" fill="#7383BF" x="40.1538558" y="44.5312601" width="7.45040156" height="9.46011089"></rect>
                <g id="Group" transform="translate(37.333333, 36.925403)" fill="#556080">
                    <path d="M12.1334425,18.0101714 L0.957894737,18.0101714 C0.443851852,18.0101714 0.0266354776,17.5863609 0.0266354776,17.0641935 C0.0266354776,16.5420262 0.443851852,16.1182157 0.957894737,16.1182157 L12.1334425,16.1182157 C12.6474854,16.1182157 13.0647018,16.5420262 13.0647018,17.0641935 C13.0647018,17.5863609 12.6474854,18.0101714 12.1334425,18.0101714 Z" id="Shape"></path>
                    <rect id="Rectangle-path" x="3.75178168" y="0.0377016137" width="5.58777388" height="7.56815524"></rect>
                </g>
                <path d="M44.5364834,25.9165323 C43.7076179,26.6506048 42.8639064,27.3687097 42.0163743,28.0829335 L42.0163743,36.9613306 L45.7415205,36.9613306 L45.7415205,27.7083569 L44.5364834,25.9165323" id="Shape" fill="#7383BF"></path>
                <g id="Group" transform="translate(8.405458, 15.191532)" fill="#F2ECBF">
                    <path d="M3.24134113,26.7628226 C2.77478363,26.7628226 2.31095517,26.6237702 1.90585575,26.3475504 L1.10024172,25.798881 C0.404553606,25.3249496 0.00873294347,24.5341028 0.0395165692,23.6835988 C0.0711734893,22.8330948 0.524740741,22.0754032 1.25295906,21.6553629 L7.04846784,18.2960383 C7.96018713,17.7701008 9.11784795,17.9223488 9.86658869,18.6659577 L10.6023392,19.3972581 C11.140616,19.9308468 11.3921248,20.6715726 11.29246,21.4292641 C11.1927953,22.1860685 10.7597505,22.8332056 10.1041248,23.2058972 L4.41384795,26.4507863 C4.04509942,26.6596976 3.64272904,26.7628226 3.24134113,26.7628226 Z" id="Shape"></path>
                    <path d="M29.7320702,8.60971774 C29.5709474,8.60971774 29.4079688,8.58986895 29.2459727,8.55017137 C28.6201481,8.39504032 28.1162573,7.96080645 27.8638752,7.35724798 L27.5183782,6.53324597 C27.1681871,5.6950504 27.4094347,4.70837702 28.1041404,4.13420363 L32.5510643,0.479697581 C33.106152,0.0208467744 33.8417934,-0.111552419 34.521653,0.12873992 C35.1986745,0.368034274 35.6969981,0.936663307 35.8524444,1.64800403 L36.0331072,2.47200605 C36.201653,3.24211694 35.934425,4.03296371 35.3355634,4.53528226 L31.0134113,8.13866936 C30.6447719,8.44793347 30.1949162,8.60971774 29.7320702,8.60971774 Z" id="Shape"></path>
                </g>
                <g id="Group" fill="#4D007E">
                    <path d="M11.1960702,49.6085585 C11.0219571,49.6085585 10.8477349,49.5914819 10.6726394,49.5584375 C9.93874464,49.4183871 9.30364133,48.9955746 8.88271345,48.3702823 L3.35923587,40.1559879 C2.42044444,38.7586996 1.82540351,37.1334274 1.63819103,35.452379 L0.138744639,21.9697278 C-0.0550175439,20.2243649 0.711516569,18.5243548 2.13826121,17.5329133 L26.1164133,0.890645161 C27.5441404,-0.100796371 29.3805692,-0.207691532 30.9125458,0.610655242 L42.7344405,6.93188508 C44.2086706,7.71995968 45.4826979,8.87495968 46.4214893,10.2703629 L51.9459493,18.4846573 C52.3660039,19.1109476 52.5224327,19.864869 52.3845614,20.6103629 C52.2476725,21.3558569 51.8313294,22.001996 51.2157661,22.4295766 L45.1073996,26.6667944 C37.086191,33.7656754 28.2602417,39.8920766 18.8727641,44.8756754 L12.7662534,49.1128931 C12.2968577,49.4382359 11.7530136,49.6085585 11.1960702,49.6085585 Z M28.7436101,1.95771169 C28.1913606,1.95771169 27.6418402,2.12426411 27.1678596,2.45337702 L3.18883431,19.095756 C2.33300585,19.6898891 1.87288889,20.7106048 1.98936452,21.7578226 L3.48870175,35.2404738 C3.6414191,36.6150302 4.12849903,37.945121 4.89677973,39.0879234 L10.4212398,47.3022177 C10.5618402,47.5112399 10.7732865,47.6522883 11.0182456,47.6986391 C11.2622222,47.7449899 11.5100195,47.6929839 11.7167719,47.5501613 L17.8689123,43.2807863 C17.8987135,43.2609375 17.9303704,43.2410887 17.9630097,43.223125 C27.2545341,38.2971875 35.9892242,32.2332157 43.9257232,25.2044153 C43.9526862,25.1807964 43.9824873,25.1570665 44.0122885,25.1363306 L50.1644288,20.8669556 C50.3701988,20.7250202 50.5080702,20.5093448 50.5546823,20.2605141 C50.6003119,20.0116835 50.5481326,19.7600806 50.4075322,19.5510585 L44.8830721,11.3367641 C44.1166472,10.1949597 43.0736062,9.25075605 41.8675867,8.60561492 L30.0454737,2.2850504 C29.634807,2.06560484 29.1887719,1.95771169 28.7436101,1.95771169 Z" id="Shape"></path>
                    <path d="M7.30139571,34.2783065 C7.04246394,34.2783065 6.78080312,34.2300706 6.5302768,34.1317137 C5.79267057,33.8413004 5.27950097,33.1657762 5.19107992,32.366502 L4.10328265,22.5809375 C3.98691618,21.5337198 4.44692398,20.5138911 5.30373489,19.9197581 L27.1557427,4.7531754 C28.0115712,4.15904234 29.1142144,4.09572581 30.0324834,4.58573589 L38.6255906,9.17956653 C39.3231345,9.55225806 39.7561793,10.2816734 39.7543236,11.0810585 C39.7524678,11.8860988 39.3138558,12.6173992 38.6097622,12.9900907 C33.1961014,15.8536391 28.4008421,18.7843851 23.059883,22.4900101 C17.6937076,26.2144859 13.267306,29.6834778 8.70674464,33.7390625 C8.30906823,34.0929032 7.80899805,34.2783065 7.30139571,34.2783065 Z M5.95379337,22.3689214 L7.04246394,32.1535988 C7.0574191,32.2841129 7.13841715,32.3418851 7.20358674,32.3683871 C7.25947758,32.3882359 7.3702768,32.4138508 7.47834698,32.3172681 C12.096655,28.2096774 16.5780741,24.6971069 22.0084366,20.9291633 C27.4118363,17.1791835 32.2657154,14.2133972 37.7482573,11.3138105 C37.8730292,11.2476109 37.8907135,11.1378327 37.8907135,11.0782863 C37.8907135,11.0092036 37.8683353,10.9146169 37.7565536,10.8550706 L29.1634464,6.26123992 C28.8570292,6.09856855 28.4901365,6.11930444 28.2042417,6.31701613 L6.35332554,21.4816028 C6.06830409,21.6793145 5.91471345,22.0198488 5.95379337,22.3689214 Z" id="Shape"></path>
                    <path d="M14.9612788,54.9345766 C13.9573177,54.9345766 12.9701676,54.4473387 12.3630097,53.5439415 L8.88369591,48.3701714 C8.88369591,48.3701714 8.88271345,48.3691734 8.88184016,48.3682863 C8.59125146,47.9369355 8.70117739,47.3475706 9.12581676,47.0523891 C9.5514386,46.7600907 10.1297778,46.8697581 10.4203665,47.3002218 C10.7099727,47.7306855 11.2901676,47.8432359 11.7157895,47.5480544 L17.8660741,43.2786794 C18.0699883,43.136744 18.3214971,43.0838508 18.5644912,43.1302016 C18.8075945,43.1765524 19.02177,43.3184879 19.1614971,43.525625 L21.788694,47.4317339 C22.2096218,48.0570262 22.3660507,48.8119456 22.227306,49.5574395 C22.0894347,50.3029335 21.6740741,50.9490726 21.0576374,51.3766532 L16.7307914,54.379254 C16.1888031,54.7548286 15.5722573,54.9345766 14.9612788,54.9345766 Z M11.9066043,49.5110887 L13.9024094,52.4777621 C14.3000858,53.0690121 15.0972943,53.2222581 15.6802183,52.8164113 L20.0070643,49.8138105 C20.211961,49.671875 20.3507057,49.4561996 20.3963353,49.207369 C20.4419649,48.9595363 20.390768,48.7078226 20.2501676,48.4997984 L18.1482573,45.3741129 L12.7662534,49.1098992 L12.7662534,49.1108972 C12.4961871,49.2982964 12.2055984,49.4306956 11.9066043,49.5110887 Z M12.2400936,48.3304738 L12.2494269,48.3304738 L12.2400936,48.3304738 Z" id="Shape"></path>
                    <path d="M48.7087563,31.593619 C48.5346433,31.593619 48.3604211,31.5765423 48.1853255,31.543498 C47.4514308,31.4034476 46.815345,30.9806351 46.3944172,30.3553427 L43.7682027,26.4502319 C43.6284756,26.2430948 43.575423,25.9876109 43.6220351,25.7406653 C43.6676647,25.4937198 43.8073918,25.2761593 44.011306,25.1342238 L50.1634464,20.8648488 L50.6887329,21.6462702 L50.1634464,20.8648488 C50.5872125,20.5706653 50.6961559,19.9803024 50.4065497,19.5489516 C50.115961,19.1176008 50.2267602,18.529123 50.6515088,18.2349395 C51.0742924,17.9397581 51.6554698,18.0504234 51.945076,18.4827722 L51.9460585,18.4827722 L55.4654347,23.7152016 C56.4209279,25.1371069 56.0605848,27.0830645 54.6626589,28.0536593 L50.279922,31.0960685 C49.8085614,31.4232964 49.2647173,31.593619 48.7087563,31.593619 Z M45.8310331,26.1634778 L47.9329435,29.2872782 C48.0735439,29.4963004 48.2858635,29.6373488 48.5308226,29.6836996 C48.7739259,29.7310484 49.0225965,29.6780444 49.2283665,29.5352218 L53.6111033,26.4938105 C54.1624795,26.1115827 54.3039532,25.3443548 53.9277817,24.783377 L51.8938791,21.7608165 C51.7122339,22.0143044 51.4850682,22.2414012 51.2150019,22.4286895 L45.8310331,26.1634778 Z" id="Shape"></path>
                    <path d="M11.34977,42.4888306 C10.8263392,42.4888306 10.306729,42.3327016 9.85316179,42.0243246 L8.9488655,41.4075706 C8.16846784,40.8749798 7.72330604,39.9885484 7.75867446,39.0349194 C7.79404288,38.0812903 8.30251852,37.2308972 9.11926706,36.7597379 L15.6215984,32.9917944 C16.6422612,32.4014315 17.9415049,32.5746371 18.7823782,33.4061794 L19.6093879,34.2272984 C20.2128343,34.8270867 20.4950175,35.658629 20.383345,36.5091331 C20.2715634,37.356754 19.7854659,38.0823992 19.0497154,38.4995565 L12.6647329,42.140756 C12.2522105,42.3725101 11.7995166,42.4888306 11.34977,42.4888306 Z M16.9291384,34.5319052 C16.795961,34.5319052 16.6627836,34.5659476 16.5425965,34.6350302 L10.0412476,38.4029738 C9.67621053,38.613881 9.62490448,38.9639516 9.62031969,39.1048891 C9.61475244,39.2449395 9.63985965,39.5986694 9.98721248,39.8351915 L10.8915088,40.4510585 C11.1513138,40.6270363 11.4828382,40.6412298 11.7575984,40.4860988 L18.1397427,36.8467843 C18.1407251,36.8457863 18.1415984,36.8457863 18.1425809,36.8448992 C18.3604678,36.7219254 18.5057622,36.50625 18.5384016,36.2545363 C18.5719142,36.0010484 18.488078,35.7549899 18.3083977,35.5762399 L17.4823704,34.7560081 C17.3305263,34.6094153 17.1303236,34.5319052 16.9291384,34.5319052 Z" id="Shape"></path>
                    <path d="M37.5229474,25.1322278 C37.3106277,25.1322278 37.098308,25.1067238 36.8859883,25.0537198 C36.0645458,24.8503528 35.4052086,24.2808367 35.0746667,23.490877 L34.6239376,22.4123891 C34.1648031,21.3159375 34.480499,20.0236593 35.391345,19.271623 L41.2146901,14.486623 C41.9410526,13.8868347 42.9059337,13.714627 43.7944016,14.0268851 C44.6818869,14.3400302 45.3338012,15.0836391 45.5378246,16.0144254 L45.7753606,17.0947984 C45.99423,18.1050907 45.644039,19.1401109 44.8608031,19.7975605 L39.2013099,24.5153629 C38.7177232,24.9184375 38.1291228,25.1322278 37.5229474,25.1322278 Z M42.9011306,15.7648185 C42.750269,15.7648185 42.566768,15.8064012 42.3870877,15.9549899 L36.5637427,20.7399899 C36.2945497,20.9623185 36.2005614,21.3454335 36.3374503,21.6708871 L36.7891618,22.7512601 C36.8859883,22.9867843 37.0824795,23.1552218 37.3265653,23.2157661 C37.5696686,23.2753125 37.8192125,23.2176512 38.0129747,23.0558669 C38.0139571,23.0558669 38.0139571,23.054869 38.0148304,23.0539819 L43.6743236,18.3352923 C43.9145887,18.1346976 44.0226589,17.8150101 43.9546511,17.50375 L43.7180975,16.4252621 C43.6277115,16.011875 43.3120156,15.8595161 43.180694,15.8131653 C43.1237115,15.7922077 43.0231735,15.7648185 42.9011306,15.7648185 Z" id="Shape"></path>
                    <path d="M41.8357115,16.135625 C41.5386823,16.135625 41.2462378,15.9918044 41.065575,15.723125 C40.7749864,15.2917742 40.8849123,14.7032964 41.3095517,14.4081149 C42.5743002,13.5311089 43.3333021,12.0780444 43.3407251,10.5209677 C43.3435634,10.088619 43.2876725,9.66203629 43.1758908,9.25230847 C43.0390019,8.74899194 43.3295906,8.22782258 43.8249669,8.08865927 C44.3157583,7.95237903 44.8335127,8.24478831 44.9705107,8.74799395 C45.127922,9.3250504 45.2060819,9.92483871 45.2023704,10.5302823 C45.1921092,12.707994 44.1304016,14.741996 42.3600156,15.9698488 C42.1988928,16.0817339 42.0163743,16.135625 41.8357115,16.135625 Z" id="Shape"></path>
                    <path d="M5.86155166,39.7075605 C4.89677973,39.7075605 3.92720468,39.516502 3.00522417,39.128619 C2.53026121,38.9290222 2.30396881,38.3755847 2.50046004,37.8922278 C2.69695127,37.4097581 3.24177778,37.1807762 3.71674074,37.3804839 C5.46660429,38.1164415 7.4465809,37.9083065 9.01119688,36.8223891 C9.43583626,36.5300907 10.0170136,36.638871 10.3057466,37.0712198 C10.5963353,37.5025706 10.4864094,38.0910484 10.06177,38.3862298 C8.80073294,39.2591331 7.33774659,39.7075605 5.86155166,39.7075605 Z" id="Shape"></path>
                    <path d="M24.4233138,41.5900907 C24.3125146,41.5900907 24.2017154,41.5702419 24.095501,41.5295464 C23.8310019,41.4293044 23.6270877,41.2116331 23.5385575,40.9401815 L20.8032904,32.4865927 C20.6635634,32.0523589 20.8480468,31.5793145 21.242885,31.3608669 C23.9911423,29.8397177 28.0646238,27.3307863 31.8652008,24.0273488 C32.2098246,23.7283972 32.7145887,23.723629 33.0628148,24.0160383 L39.8007173,29.6505444 C40.017731,29.8331754 40.1434854,30.105625 40.1396647,30.3922681 C40.1359532,30.6789113 40.0046316,30.9484778 39.782924,31.1244556 C35.064078,34.888629 30.0555166,38.3661593 24.8960936,41.4596875 C24.752,41.545625 24.5881481,41.5900907 24.4233138,41.5900907 Z M22.8140507,32.6398387 L24.9457622,39.2269758 C29.3526238,36.5308669 33.6403899,33.5556552 37.7194386,30.36 L32.4781442,25.9761895 C29.0369279,28.8765524 25.4542378,31.1394254 22.8140507,32.6398387 Z" id="Shape"></path>
                    <path d="M28.8795166,38.7983972 C28.5824873,38.7983972 28.2900429,38.6545766 28.1093801,38.3858972 L23.351345,31.3106351 C23.0607563,30.8792843 23.1706823,30.2899194 23.5953216,29.9947379 C24.019961,29.7024395 24.6001559,29.8121069 24.8898713,30.2425706 L29.6479064,37.3178327 C29.9384951,37.7491835 29.8285692,38.3385484 29.4039298,38.6337298 C29.2426979,38.744506 29.0601793,38.7983972 28.8795166,38.7983972 Z" id="Shape"></path>
                    <path d="M31.9909552,36.7162702 C31.6939259,36.7162702 31.4014815,36.5724496 31.221692,36.3037702 L26.4925848,29.2739718 C26.2019961,28.842621 26.311922,28.253256 26.7365614,27.9589617 C27.1612008,27.6656653 27.7413957,27.7754435 28.0311111,28.2067944 L32.759345,35.2357056 C33.050807,35.6670565 32.9409903,36.2555343 32.5162417,36.5507157 C32.3551189,36.6622681 32.1726004,36.7162702 31.9909552,36.7162702 Z" id="Shape"></path>
                    <path d="M35.0372242,34.5375605 C34.7401949,34.5375605 34.4477505,34.3937399 34.2670877,34.1250605 L29.5230253,27.0706452 C29.2324366,26.6392944 29.3423626,26.0508165 29.7670019,25.7556351 C30.1926238,25.4614516 30.770963,25.571119 31.062425,26.0034677 L35.8064873,33.056996 C36.097076,33.4883468 35.9871501,34.0777117 35.5625107,34.3728931 C35.4013879,34.4836694 35.2178869,34.5375605 35.0372242,34.5375605 Z" id="Shape"></path>
                    <path d="M16.0258246,27.401754 C16.0062846,27.401754 15.9867446,27.401754 15.9672047,27.399869 C15.4540351,27.3677117 15.0629084,26.9192843 15.0945653,26.3971169 L15.6179961,17.784627 C15.649653,17.2633468 16.1059493,16.8689214 16.6051462,16.8981956 C17.1183158,16.9303528 17.5094425,17.3787802 17.4777856,17.9009476 L16.9543548,26.5134375 C16.9244444,27.015756 16.5137778,27.401754 16.0258246,27.401754 Z" id="Shape"></path>
                    <path d="M16.2688187,23.4029435 C15.9716803,23.4029435 15.679345,23.259123 15.4986823,22.9904435 L13.473076,19.9774194 C13.1824873,19.5460685 13.2924133,18.9567036 13.7170526,18.6624093 C14.1426745,18.3682258 14.7218869,18.4788911 15.0116023,18.9102419 L17.0372086,21.9232661 C17.3277973,22.3546169 17.2178713,22.9439819 16.793232,23.2382762 C16.6329825,23.3499395 16.4494815,23.4029435 16.2688187,23.4029435 Z" id="Shape"></path>
                    <path d="M25.266152,20.7976512 C25.2466121,20.7976512 25.2270721,20.7976512 25.2075322,20.7957661 C24.6943626,20.7636089 24.3032359,20.3151815 24.3348928,19.7930141 L24.8462066,11.380121 C24.8778635,10.8588407 25.3240078,10.4671875 25.8333567,10.4936895 C26.3465263,10.5258468 26.737653,10.9742742 26.7059961,11.4964415 L26.1946823,19.9093347 C26.1647719,20.4116532 25.7541053,20.7976512 25.266152,20.7976512 Z" id="Shape"></path>
                    <path d="M25.4970292,16.9993246 C25.1998908,16.9993246 24.9075556,16.855504 24.7268928,16.5868246 L22.6249825,13.4621371 C22.3343938,13.0307863 22.4443197,12.4423085 22.8689591,12.147127 C23.2945809,11.8529435 23.8729201,11.9636089 24.1635088,12.3949597 L26.2654191,15.5196472 C26.5560078,15.950998 26.4460819,16.5394758 26.0214425,16.8346573 C25.861193,16.9454335 25.6786745,16.9993246 25.4970292,16.9993246 Z" id="Shape"></path>
                    <path d="M3.88637817,18.4108065 C3.42822612,18.4108065 3.02869396,18.0673891 2.96538012,17.5924597 L2.68319688,15.4961391 C2.61333333,14.978629 2.97007407,14.5019254 3.479423,14.4309577 C3.98418713,14.3591028 4.45816764,14.722369 4.52803119,15.2397681 L4.81021442,17.3360887 C4.88007797,17.8535988 4.52333723,18.3303024 4.0139883,18.4012702 C3.97108772,18.4080343 3.92818713,18.4108065 3.88637817,18.4108065 Z" id="Shape"></path>
                    <path d="M25.4170136,3.4675504 C25.2633138,3.4675504 25.1087407,3.42873992 24.9653021,3.34834677 L23.145575,2.31997984 C22.6967018,2.06549395 22.5345965,1.49032258 22.7842495,1.03335685 C23.0356491,0.576391129 23.6019805,0.412721774 24.0508538,0.666320565 L25.8705809,1.6946875 C26.3194542,1.94917339 26.4815595,2.52434476 26.2319064,2.98131048 C26.0613957,3.29257056 25.7438441,3.4675504 25.4170136,3.4675504 Z" id="Shape"></path>
                    <path d="M15.422269,10.4056452 C15.1251306,10.4056452 14.8327953,10.2618246 14.6521326,9.99314516 L12.0259181,6.08703629 C11.7353294,5.65568548 11.8452554,5.06720766 12.2698947,4.77202621 C12.6945341,4.47784274 13.274729,4.58751008 13.5644444,5.01985887 L16.1906589,8.92596774 C16.4812476,9.35731855 16.3713216,9.94579637 15.9466823,10.2409778 C15.7864327,10.351754 15.6039142,10.4056452 15.422269,10.4056452 Z" id="Shape"></path>
                    <path d="M47.6041481,54.9345766 L40.1537466,54.9345766 C39.6387212,54.9345766 39.2224873,54.5116532 39.2224873,53.9885988 L39.2224873,44.5284879 C39.2224873,44.0053226 39.6388304,43.5825101 40.1537466,43.5825101 L47.6041481,43.5825101 C48.1191735,43.5825101 48.5354074,44.0053226 48.5354074,44.5284879 L48.5354074,53.9885988 C48.5355166,54.5117641 48.1191735,54.9345766 47.6041481,54.9345766 Z M41.085115,53.042621 L46.6728889,53.042621 L46.6728889,45.4744657 L41.085115,45.4744657 L41.085115,53.042621 Z" id="Shape"></path>
                    <path d="M49.4667758,54.9345766 L38.2912281,54.9345766 C37.7762027,54.9345766 37.3599688,54.5116532 37.3599688,53.9885988 C37.3599688,53.4655444 37.7763119,53.042621 38.2912281,53.042621 L49.4667758,53.042621 C49.9818012,53.042621 50.3980351,53.4655444 50.3980351,53.9885988 C50.3980351,54.5116532 49.9818012,54.9345766 49.4667758,54.9345766 Z" id="Shape"></path>
                    <path d="M46.6728889,45.4744657 L41.085115,45.4744657 C40.5700897,45.4744657 40.1538558,45.0515423 40.1538558,44.5284879 L40.1538558,36.9603327 C40.1538558,36.4371673 40.5701988,36.0143548 41.085115,36.0143548 L46.6728889,36.0143548 C47.1879142,36.0143548 47.6041481,36.4371673 47.6041481,36.9603327 L47.6041481,44.5284879 C47.6041481,45.0515423 47.1879142,45.4744657 46.6728889,45.4744657 Z M42.0163743,43.5823992 L45.7415205,43.5823992 L45.7415205,37.9063105 L42.0163743,37.9063105 L42.0163743,43.5823992 Z" id="Shape"></path>
                    <path d="M45.7416296,37.9063105 L42.0163743,37.9063105 C41.5013489,37.9063105 41.085115,37.4833871 41.085115,36.9603327 L41.085115,28.0819355 C41.085115,27.8009476 41.2090136,27.5332661 41.4213333,27.3535181 C42.2631891,26.6439516 43.1014425,25.9316129 43.9246316,25.2023085 C44.1248343,25.0244456 44.3846394,24.9430544 44.6548148,24.9762097 C44.9183314,25.01125 45.154885,25.1578427 45.3057466,25.3810585 L46.5108928,27.1727722 C46.6161248,27.3297883 46.6728889,27.5161895 46.6728889,27.7063609 L46.6728889,36.9593347 C46.6728889,37.483498 46.2565458,37.9063105 45.7416296,37.9063105 Z M42.9477427,36.014244 L44.8103704,36.014244 L44.8103704,27.9995464 L44.3559298,27.3231351 C43.8893723,27.7270968 43.4189942,28.1272883 42.9478519,28.5254839 L42.9478519,36.014244 L42.9477427,36.014244 Z" id="Shape"></path>
                    <path d="M18.0568889,34.9594859 C17.6592125,34.9594859 17.2904639,34.6993448 17.1675478,34.2916129 C17.0157037,33.7930645 17.2914464,33.263246 17.7831111,33.1091129 C17.8576686,33.0826109 27.7228382,28.6722984 34.7662846,21.2659274 C35.1220429,20.8913508 35.7143548,20.8799294 36.08223,21.2431956 C36.451961,21.6064617 36.4622222,22.205252 36.1046082,22.5808266 C29.1320078,29.9133468 19.0591033,34.6898085 18.3317583,34.9187903 C18.2403899,34.9471774 18.1482573,34.9594859 18.0568889,34.9594859 Z" id="Shape"></path>
                </g>
            </g>
        </g>
    </g>
</svg>