<svg xmlns="http://www.w3.org/2000/svg" xmlns:xlink="http://www.w3.org/1999/xlink" width="48" height="54" viewBox="0 0 48 54"><defs><path id="3nxya" d="M693.81 1691h-3.62a1.4 1.4 0 0 1-1.4-1.26l-.37-2.23c-.7-.22-1.38-.5-2.03-.84l-1.86 1.33a1.4 1.4 0 0 1-1.85-.11l-2.57-2.57a1.4 1.4 0 0 1-.1-1.88l1.32-1.83c-.34-.65-.62-1.33-.84-2.03l-2.26-.38a1.39 1.39 0 0 1-1.23-1.39v-3.62c0-.73.54-1.33 1.26-1.4l2.23-.37c.22-.7.5-1.38.84-2.03l-1.33-1.86c-.44-.53-.4-1.34.11-1.85l2.57-2.57c.49-.5 1.34-.53 1.87-.1l1.84 1.32c.65-.34 1.33-.62 2.03-.84l.38-2.26c.06-.69.66-1.23 1.39-1.23h3.62c.73 0 1.33.54 1.4 1.26l.37 2.23a12 12 0 0 1 2.03.84l1.86-1.33a1.4 1.4 0 0 1 1.85.11l2.57 2.57c.51.5.55 1.31.1 1.87l-1.32 1.84c.34.65.62 1.33.84 2.03l2.26.38c.69.06 1.23.66 1.23 1.39v3.62a1.4 1.4 0 0 1-1.26 1.4l-2.23.37c-.22.7-.5 1.38-.84 2.03l1.33 1.86c.44.54.4 1.34-.11 1.85l-2.57 2.57c-.49.5-1.34.53-1.88.1l-1.83-1.32c-.65.34-1.33.62-2.03.84l-.38 2.26a1.39 1.39 0 0 1-1.39 1.23z"/><path id="3nxyb" d="M709.45 1664h-2.9c-.58 0-1.06-.43-1.12-1.01l-.3-1.78c-.55-.18-1.1-.4-1.61-.67l-1.5 1.06a1.11 1.11 0 0 1-1.48-.1l-2.05-2.04a1.12 1.12 0 0 1-.08-1.5l1.05-1.48a9.6 9.6 0 0 1-.67-1.62l-1.8-.3a1.1 1.1 0 0 1-.99-1.11v-2.9c0-.58.43-1.06 1.01-1.12l1.78-.3c.18-.55.4-1.1.67-1.61l-1.06-1.5a1.1 1.1 0 0 1 .09-1.48l2.05-2.05c.4-.4 1.07-.43 1.5-.08l1.48 1.05c.51-.27 1.06-.5 1.62-.67l.3-1.8c.05-.56.53-.99 1.11-.99h2.9c.58 0 1.06.43 1.12 1l.3 1.8c.55.17 1.1.4 1.61.66l1.5-1.06a1.11 1.11 0 0 1 1.48.1l2.05 2.04c.41.4.44 1.05.08 1.5l-1.05 1.48c.27.51.5 1.06.67 1.61l1.8.3c.56.06.99.54.99 1.12v2.9c0 .58-.43 1.06-1.01 1.12l-1.78.3c-.18.55-.4 1.1-.67 1.61l1.06 1.5c.35.42.32 1.07-.09 1.48l-2.05 2.05c-.4.4-1.07.43-1.5.08l-1.48-1.05c-.51.27-1.06.5-1.61.67l-.3 1.8c-.06.56-.54.99-1.12.99z"/><path id="3nxyc" d="M689.81 1693h-3.62a1.4 1.4 0 0 1-1.4-1.26l-.37-2.23c-.7-.22-1.38-.5-2.03-.84l-1.86 1.33a1.4 1.4 0 0 1-1.85-.11l-2.57-2.57a1.4 1.4 0 0 1-.1-1.88l1.32-1.83c-.34-.65-.62-1.33-.84-2.03l-2.26-.38a1.39 1.39 0 0 1-1.23-1.39v-3.62c0-.73.54-1.33 1.26-1.4l2.23-.37c.22-.7.5-1.38.84-2.03l-1.33-1.86c-.44-.53-.4-1.34.11-1.85l2.57-2.57c.49-.5 1.34-.53 1.87-.1l1.84 1.32c.65-.34 1.33-.62 2.03-.84l.38-2.26c.06-.69.66-1.23 1.39-1.23h3.62c.73 0 1.33.54 1.4 1.26l.37 2.23a12 12 0 0 1 2.03.84l1.86-1.33a1.4 1.4 0 0 1 1.85.11l2.57 2.57c.51.5.55 1.31.1 1.87l-1.32 1.84c.34.65.62 1.33.84 2.03l2.26.38c.69.06 1.23.66 1.23 1.39v3.62a1.4 1.4 0 0 1-1.26 1.4l-2.23.37c-.22.7-.5 1.38-.84 2.03l1.33 1.86c.44.54.4 1.34-.11 1.85l-2.57 2.57c-.49.5-1.34.53-1.88.1l-1.83-1.32c-.65.34-1.33.62-2.03.84l-.38 2.26a1.39 1.39 0 0 1-1.39 1.23zm-7.45-5.41a.5.5 0 0 1 .24.06c.76.43 1.56.76 2.4 1 .18.05.31.2.35.4l.42 2.56c.03.24.2.4.42.4h3.62c.21 0 .4-.16.41-.37l.43-2.6a.5.5 0 0 1 .36-.4c.83-.23 1.63-.56 2.39-.99a.5.5 0 0 1 .53.03l2.12 1.52c.21.17.43.13.57-.01l2.57-2.57a.4.4 0 0 0 .03-.55l-1.54-2.14a.5.5 0 0 1-.03-.53c.43-.75.76-1.56 1-2.4a.5.5 0 0 1 .4-.35l2.56-.42c.24-.03.4-.2.4-.42v-3.62c0-.21-.16-.39-.37-.41l-2.6-.43a.5.5 0 0 1-.4-.36c-.23-.83-.56-1.64-.99-2.39a.5.5 0 0 1 .03-.53l1.52-2.12c.15-.19.14-.42-.01-.57l-2.57-2.57a.42.42 0 0 0-.55-.02l-2.14 1.53a.5.5 0 0 1-.53.03c-.75-.42-1.56-.76-2.4-1a.5.5 0 0 1-.35-.39l-.42-2.57c-.03-.24-.2-.4-.42-.4h-3.62a.4.4 0 0 0-.41.37l-.43 2.6a.5.5 0 0 1-.36.4c-.83.23-1.64.56-2.39.99a.5.5 0 0 1-.53-.03l-2.12-1.52c-.21-.17-.43-.13-.57.01l-2.57 2.57a.4.4 0 0 0-.03.55l1.54 2.14a.5.5 0 0 1 .03.53c-.43.75-.76 1.56-1 2.4a.5.5 0 0 1-.4.35l-2.56.42c-.24.03-.4.2-.4.42v3.62c0 .22.16.4.37.41l2.6.43a.5.5 0 0 1 .4.36c.23.83.56 1.63.99 2.39a.5.5 0 0 1-.03.53l-1.52 2.12c-.15.19-.14.42.01.57l2.57 2.57c.14.14.39.15.55.02l2.14-1.53a.5.5 0 0 1 .29-.09zm5.64-3.66a5.94 5.94 0 1 1 .01-11.88 5.94 5.94 0 0 1-.01 11.88zm0-10.87a4.95 4.95 0 1 0 .01 9.9 4.95 4.95 0 0 0-.01-9.9z"/><path id="3nxyd" d="M705.45 1666h-2.9c-.58 0-1.06-.43-1.12-1.01l-.3-1.78c-.55-.18-1.1-.4-1.61-.67l-1.5 1.06a1.11 1.11 0 0 1-1.48-.1l-2.05-2.04a1.12 1.12 0 0 1-.08-1.5l1.05-1.48a9.6 9.6 0 0 1-.67-1.62l-1.8-.3a1.1 1.1 0 0 1-.99-1.11v-2.9c0-.58.43-1.06 1.01-1.12l1.78-.3c.18-.55.4-1.1.67-1.61l-1.06-1.5a1.1 1.1 0 0 1 .09-1.48l2.05-2.05c.4-.4 1.07-.43 1.5-.08l1.48 1.05c.51-.27 1.06-.5 1.62-.67l.3-1.8c.05-.56.53-.99 1.11-.99h2.9c.58 0 1.06.43 1.12 1l.3 1.8c.55.17 1.1.4 1.61.66l1.5-1.06a1.11 1.11 0 0 1 1.48.1l2.05 2.04c.41.4.44 1.05.08 1.5l-1.05 1.48c.27.51.5 1.06.67 1.61l1.8.3c.56.06.99.54.99 1.12v2.9c0 .58-.43 1.06-1.01 1.12l-1.78.3c-.18.55-.4 1.1-.67 1.61l1.06 1.5c.35.42.32 1.07-.09 1.48l-2.05 2.05c-.4.4-1.07.43-1.5.08l-1.48-1.05c-.51.27-1.06.5-1.61.67l-.3 1.8c-.06.56-.54.99-1.12.99zm-5.96-4.33a.4.4 0 0 1 .19.05c.6.34 1.25.6 1.91.8a.4.4 0 0 1 .29.31l.34 2.06c.02.19.16.32.33.32h2.9c.17 0 .31-.13.33-.3l.34-2.08a.4.4 0 0 1 .29-.31c.66-.2 1.3-.46 1.9-.8a.4.4 0 0 1 .43.03l1.7 1.2c.17.14.34.12.46 0l2.05-2.05c.12-.12.13-.31.02-.44l-1.22-1.72a.4.4 0 0 1-.03-.42c.34-.6.6-1.25.8-1.91a.4.4 0 0 1 .31-.29l2.06-.34c.19-.02.32-.16.32-.33v-2.9a.33.33 0 0 0-.3-.33l-2.08-.34a.4.4 0 0 1-.31-.29 8.73 8.73 0 0 0-.8-1.9.4.4 0 0 1 .03-.43l1.2-1.7c.13-.15.12-.34 0-.46l-2.05-2.05a.34.34 0 0 0-.44-.02l-1.72 1.22a.4.4 0 0 1-.42.03c-.6-.34-1.25-.6-1.91-.8a.4.4 0 0 1-.29-.31l-.34-2.05c-.02-.2-.16-.33-.33-.33h-2.9a.33.33 0 0 0-.33.3l-.34 2.08a.4.4 0 0 1-.29.31c-.66.2-1.3.46-1.9.8a.4.4 0 0 1-.43-.03l-1.7-1.2c-.17-.14-.34-.12-.46 0l-2.05 2.05a.33.33 0 0 0-.02.44l1.22 1.72c.1.12.1.29.03.42a8.8 8.8 0 0 0-.8 1.91.4.4 0 0 1-.31.29l-2.06.34c-.19.02-.32.16-.32.33v2.9c0 .17.13.31.3.33l2.08.34a.4.4 0 0 1 .31.29c.19.66.46 1.3.8 1.9a.4.4 0 0 1-.03.43l-1.2 1.7c-.13.15-.12.34 0 .46l2.05 2.05c.12.12.32.13.44.02l1.72-1.22a.4.4 0 0 1 .23-.08zm4.51-2.92a4.75 4.75 0 1 1 .01-9.5 4.75 4.75 0 0 1-.01 9.5zm0-8.7a3.96 3.96 0 1 0 .01 7.91 3.96 3.96 0 0 0-.01-7.92z"/></defs><g><g transform="translate(-672 -1640)"><use fill="#ffeff0" xlink:href="#3nxya"/></g><g transform="translate(-672 -1640)"><use fill="#ffeff0" xlink:href="#3nxyb"/></g><g transform="translate(-672 -1640)"><use fill="#859dba" xlink:href="#3nxyc"/><use fill="#fff" fill-opacity="0" stroke="#859dba" stroke-miterlimit="50" xlink:href="#3nxyc"/></g><g transform="translate(-672 -1640)"><use fill="#859dba" xlink:href="#3nxyd"/><use fill="#fff" fill-opacity="0" stroke="#859dba" stroke-miterlimit="50" xlink:href="#3nxyd"/></g></g></svg>