<svg xmlns="http://www.w3.org/2000/svg" xmlns:xlink="http://www.w3.org/1999/xlink" width="54" height="54" viewBox="0 0 54 54"><defs><path id="2341a" d="M378.28 1662.79l-2.33-2.33a2.47 2.47 0 0 0-3.5 0l-6.62 6.63v-15.1L353.84 1640H328v51h37.84v-12.28l12.44-12.44c.96-.96.96-2.53 0-3.5z"/><path id="2341b" d="M330.94 1665.03v-1.65h27.97v1.65z"/><path id="2341c" d="M330.94 1672.44v-1.65h26.32v1.65z"/><path id="2341d" d="M330.94 1679.84v-1.65h20.56v1.65z"/><path id="2341e" d="M337.52 1687.25v-1.65h1.65v1.65z"/><path id="2341f" d="M334.22 1687.25v-1.65h1.65v1.65z"/><path id="2341g" d="M330.94 1687.25v-1.65h1.65v1.65z"/><path id="2341h" d="M342.46 1646.12v13.16h-11.52v-13.16zm-1.65 1.65h-8.22v9.87h8.22z"/><path id="2341i" d="M376.28 1668.28l-12.44 12.44V1693H326v-51h25.84l11.99 12v15.09l6.62-6.63a2.47 2.47 0 0 1 3.5 0l2.33 2.33c.96.96.96 2.53 0 3.5zm-23.96-14.76h8.7l-8.7-8.7zm9.87 28.84l-5.87 5.87-7.27 1.46 1.46-7.27 11.68-11.69v-15.57h-11.51v-11.51h-23.03v47.7h34.54zm-11.04 5.23l3.1-.62-2.48-2.48zm19.9-16.4l-3.5-3.49-15.13 15.12 3.5 3.5zm2.33-2.32l-3.5-3.5-1.16 1.17 3.5 3.49zm1.73-2.92l-2.33-2.33a.82.82 0 0 0-1.16 0l-.58.59 3.49 3.5.58-.6a.82.82 0 0 0 0-1.16z"/><path id="2341j" d="M356.5 1683.4l-1.16-1.16 11.63-11.63 1.16 1.16z"/></defs><g><g transform="translate(-325 -1640)"><use fill="#ffeff0" xlink:href="#2341a"/></g><g transform="translate(-325 -1640)"><use fill="#859dba" xlink:href="#2341b"/><use fill="#fff" fill-opacity="0" stroke="#859dba" stroke-miterlimit="50" stroke-width=".7" xlink:href="#2341b"/></g><g transform="translate(-325 -1640)"><use fill="#859dba" xlink:href="#2341c"/><use fill="#fff" fill-opacity="0" stroke="#859dba" stroke-miterlimit="50" stroke-width=".7" xlink:href="#2341c"/></g><g transform="translate(-325 -1640)"><use fill="#859dba" xlink:href="#2341d"/><use fill="#fff" fill-opacity="0" stroke="#859dba" stroke-miterlimit="50" stroke-width=".7" xlink:href="#2341d"/></g><g transform="translate(-325 -1640)"><use fill="#859dba" xlink:href="#2341e"/></g><g transform="translate(-325 -1640)"><use fill="#859dba" xlink:href="#2341f"/></g><g transform="translate(-325 -1640)"><use fill="#859dba" xlink:href="#2341g"/></g><g transform="translate(-325 -1640)"><use fill="#859dba" xlink:href="#2341h"/><use fill="#fff" fill-opacity="0" stroke="#859dba" stroke-miterlimit="50" stroke-width=".7" xlink:href="#2341h"/></g><g transform="translate(-325 -1640)"><use fill="#859dba" xlink:href="#2341i"/><use fill="#fff" fill-opacity="0" stroke="#859dba" stroke-miterlimit="50" stroke-width=".4" xlink:href="#2341i"/></g><g transform="translate(-325 -1640)"><use fill="#859dba" xlink:href="#2341j"/></g></g></svg>