<svg xmlns="http://www.w3.org/2000/svg" xmlns:xlink="http://www.w3.org/1999/xlink" width="49" height="54" viewBox="0 0 49 54"><defs><path id="awqva" d="M671.01 1835.09v-15.1l12.04-11.99H709v51h-38v-12.28z"/><path id="awqvb" d="M701 1844.5a9.5 9.5 0 1 1 19 0 9.5 9.5 0 0 1-19 0z"/><path id="awqvc" d="M719 1845.37c0 4.72-3.6 8.6-8.21 9v6.63H673v-37.36l13.63-13.64h24.16v26.36c4.6.42 8.21 4.3 8.21 9zm-43.2-22.2h10.34v-10.36zm33.34 31.2a9.05 9.05 0 0 1 0-18v-24.72H687.8v13.16h-13.15v34.54h34.5zm8.22-9a7.4 7.4 0 0 0-7.4-7.39 7.4 7.4 0 0 0 0 14.8 7.4 7.4 0 0 0 7.4-7.4z"/><path id="awqvd" d="M705 1815v15h-13v-15zm-1.63 1.66h-9.74v11.67h9.74z"/><path id="awqve" d="M678 1835v-2h28v2z"/><path id="awqvf" d="M678 1842v-2h20v2z"/><path id="awqvg" d="M678 1850v-2h20v2z"/><path id="awqvh" d="M678 1857v-2h28v2z"/><path id="awqvi" d="M714 1842.1l-1.12-1.1-3.38 3.38-3.38-3.38-1.12 1.1 3.38 3.4-3.38 3.38 1.12 1.12 3.38-3.39 3.38 3.39 1.12-1.12-3.38-3.38z"/></defs><g><g transform="translate(-671 -1808)"><use fill="#ffeff0" xlink:href="#awqva"/></g><g transform="translate(-671 -1808)"><use fill="#ffeff0" xlink:href="#awqvb"/></g><g transform="translate(-671 -1808)"><use fill="#859dba" xlink:href="#awqvc"/><use fill="#fff" fill-opacity="0" stroke="#859dba" stroke-miterlimit="50" stroke-width=".4" xlink:href="#awqvc"/></g><g transform="translate(-671 -1808)"><use fill="#859dba" xlink:href="#awqvd"/><use fill="#fff" fill-opacity="0" stroke="#859dba" stroke-miterlimit="50" stroke-width=".4" xlink:href="#awqvd"/></g><g transform="translate(-671 -1808)"><use fill="#859dba" xlink:href="#awqve"/><use fill="#fff" fill-opacity="0" stroke="#859dba" stroke-miterlimit="50" stroke-width=".4" xlink:href="#awqve"/></g><g transform="translate(-671 -1808)"><use fill="#859dba" xlink:href="#awqvf"/><use fill="#fff" fill-opacity="0" stroke="#859dba" stroke-miterlimit="50" stroke-width=".4" xlink:href="#awqvf"/></g><g transform="translate(-671 -1808)"><use fill="#859dba" xlink:href="#awqvg"/><use fill="#fff" fill-opacity="0" stroke="#859dba" stroke-miterlimit="50" stroke-width=".4" xlink:href="#awqvg"/></g><g transform="translate(-671 -1808)"><use fill="#859dba" xlink:href="#awqvh"/><use fill="#fff" fill-opacity="0" stroke="#859dba" stroke-miterlimit="50" stroke-width=".4" xlink:href="#awqvh"/></g><g transform="translate(-671 -1808)"><use fill="#859dba" xlink:href="#awqvi"/><use fill="#fff" fill-opacity="0" stroke="#859dba" stroke-miterlimit="50" stroke-width=".4" xlink:href="#awqvi"/></g></g></svg>