<svg xmlns="http://www.w3.org/2000/svg" xmlns:xlink="http://www.w3.org/1999/xlink" width="54" height="52" viewBox="0 0 54 52"><defs><path id="czs0a" d="M1018 1851v-41h42v41z"/><path id="czs0b" d="M1024.47 1858.85a3.16 3.16 0 0 1-3.16 3.15h-12.15a3.16 3.16 0 0 1-1.04-6.13 3.16 3.16 0 0 1 2.92-4.4 6.27 6.27 0 0 0-.02-6.2 3.16 3.16 0 0 1-.18-6.29l-1.04-6.5c-.11-.7.1-1.4.58-1.96a3.37 3.37 0 0 1 2.5-1.12h1.31v-2h2.09v2h1.3c.96 0 1.92.43 2.51 1.12.49.57.7 1.26.58 1.95l-1.04 6.51a3.16 3.16 0 0 1-.17 6.3h-.22c-.54 1-.82 2.04-.82 3.1 0 1.05.28 2.09.82 3.1h.22a3.16 3.16 0 0 1 2.9 4.4 3.16 3.16 0 0 1 2.1 2.97zm-12.61-26.7l1.1 6.83h4.56l1.1-6.84c0-.03 0-.68-1.03-.66h-4.7c-.91 0-1.04.63-1.03.66zm7.6 11.05a1.07 1.07 0 0 0 0-2.14H1011a1.07 1.07 0 0 0 0 2.14zm-3.12 5.18c0-1.06.2-2.1.6-3.1h-3.6a8.3 8.3 0 0 1 0 6.2h3.6c-.4-1.01-.6-2.05-.6-3.1zm-6.4 6.24c0 .6.48 1.08 1.07 1.08h8.45a1.07 1.07 0 0 0 0-2.15H1011c-.59 0-1.07.48-1.07 1.07zm12.45 4.23c0-.6-.49-1.07-1.08-1.07h-12.15a1.07 1.07 0 0 0 0 2.14h12.15c.6 0 1.08-.48 1.08-1.07zm3.57-28.5c.4.41.4 1.07 0 1.48l-2.5 2.5a1.04 1.04 0 0 1-1.48-1.47l2.5-2.5c.41-.41 1.07-.41 1.48 0zm20.58 5.45l5.45-5.44c.41-.41 1.07-.41 1.48 0 .4.4.4 1.06 0 1.47l-5.45 5.44a1.04 1.04 0 0 1-1.48-1.47zm-.72-2.41c-.4-.4-.4-1.07 0-1.47l2.2-2.2a1.04 1.04 0 1 1 1.47 1.47l-2.2 2.2a1.04 1.04 0 0 1-1.47 0zM1058 1812v43.72h-33.7v-2.08h3.8v-11.8h-2.61v-2.08h2.61v-11.8h-6.9v-2.08h6.9v-11.8h-11.82v10.09h-2.09V1812zm-16 29.84h-11.82v11.8h11.83zm0-13.88h-11.82v11.8h11.83zm0-13.88h-11.82v11.8h11.83zm13.92 27.76h-11.83v11.8h11.83zm0-13.88h-11.83v11.8h11.83zm0-13.88h-11.83v11.8h11.83zm-15.64 34.39c.4.4.4 1.06 0 1.47l-2.2 2.19a1.04 1.04 0 0 1-1.47-1.47l2.2-2.2c.4-.4 1.06-.4 1.47 0zm0-28.02c.4.4.4 1.06 0 1.47l-2.2 2.19a1.04 1.04 0 0 1-1.47-1.47l2.2-2.2c.4-.4 1.06-.4 1.47 0zm13.9 13.78c.41.41.41 1.07 0 1.47l-2.19 2.2a1.04 1.04 0 0 1-1.47-1.47l2.2-2.2c.4-.4 1.06-.4 1.47 0zm-21.55-12.22l5.46-5.44a1.04 1.04 0 0 1 1.47 1.47l-5.45 5.44a1.04 1.04 0 0 1-1.48-1.47zm0 28.02l5.46-5.44a1.04 1.04 0 1 1 1.47 1.47l-5.45 5.44a1.04 1.04 0 0 1-1.48-1.47zm-.71-30.43c-.41-.4-.41-1.06 0-1.47l2.2-2.2a1.04 1.04 0 1 1 1.47 1.47l-2.2 2.2a1.04 1.04 0 0 1-1.47 0zm-5.24 14.63c.4.41.4 1.07 0 1.47l-2.2 2.2a1.04 1.04 0 0 1-1.47-1.47l2.2-2.2c.4-.4 1.06-.4 1.47 0zm5.24 13.39c-.41-.4-.41-1.06 0-1.47l2.2-2.2a1.04 1.04 0 1 1 1.47 1.47l-2.2 2.2a1.04 1.04 0 0 1-1.47 0z"/></defs><g><g transform="translate(-1006 -1810)"><use fill="#ffeff0" xlink:href="#czs0a"/></g><g transform="translate(-1006 -1810)"><use fill="#859dba" xlink:href="#czs0b"/></g></g></svg>