<svg xmlns="http://www.w3.org/2000/svg" xmlns:xlink="http://www.w3.org/1999/xlink" width="52" height="55" viewBox="0 0 52 55"><defs><path id="7v45a" d="M376.7 1844.86l-8.03-8.14a13.16 13.16 0 0 0 2.98-8.36c0-4.09-1.86-7.74-4.76-10.14V1807H329V1858h37.89v-19.49l.35-.31 8.02 8.13z"/><path id="7v45b" d="M372.26 1849.33l-8.02-8.13-.35.31V1861H326v-51h37.9v11.22c2.9 2.4 4.75 6.05 4.75 10.14 0 3.18-1.12 6.1-2.98 8.36l8.03 8.14zm-19-10.38h-5.4a10.77 10.77 0 0 0 14 1.52v-18.21a10.7 10.7 0 0 0-13.3.83h4.7v2.07h-6.51a11.05 11.05 0 0 0-1.8 4.83h8.32v2.06h-8.38c.1 1.75.62 3.4 1.44 4.83h6.94zm8.6 19.3v-15.35a12.84 12.84 0 0 1-16.64-3.95h-9.02v-2.07h7.83a13.15 13.15 0 0 1-1.18-4.83h-6.65V1830h6.69c.18-1.73.7-3.36 1.47-4.83h-8.16v-2.07h9.52a12.81 12.81 0 0 1 16.13-3.26v-7.07-.7h-33.81v46.87h33.81v-.69zm4.75-26.89c0-2.78-1.03-5.32-2.72-7.26v14.53a11.05 11.05 0 0 0 2.72-7.27z"/></defs><g><g transform="translate(-325 -1807)"><use fill="#ffeff0" xlink:href="#7v45a"/></g><g transform="translate(-325 -1807)"><use fill="#859dba" xlink:href="#7v45b"/><use fill="#fff" fill-opacity="0" stroke="#859dba" stroke-miterlimit="50" stroke-width=".4" xlink:href="#7v45b"/></g></g></svg>