<?xml version="1.0" encoding="UTF-8" standalone="no"?>
<svg width="212px" height="185px" viewBox="0 0 212 185" version="1.1" xmlns="http://www.w3.org/2000/svg" xmlns:xlink="http://www.w3.org/1999/xlink">
    <!-- Generator: Sketch 42 (36781) - http://www.bohemiancoding.com/sketch -->
    <title>binder</title>
    <desc>Created with Sketch.</desc>
    <defs></defs>
    <g id="Page-1" stroke="none" stroke-width="1" fill="none" fill-rule="evenodd" opacity="0.257695896">
        <g id="Large-Device-Desktops" transform="translate(-1003.000000, -626.000000)">
            <g id="Group-3" transform="translate(83.000000, 578.000000)">
                <g id="Group-8">
                    <g id="binder" transform="translate(1026.000000, 155.500000) scale(-1, 1) translate(-1026.000000, -155.500000) translate(920.000000, 48.000000)">
                        <g id="Layer_1">
                            <rect id="Rectangle-path" fill="#F7F7F7" x="57.3752126" y="10.3489746" width="154.531724" height="194.30373"></rect>
                            <path d="M188.773898,42.1567969 L80.5111732,42.1567969 C78.4808976,42.1567969 76.8349764,40.5010449 76.8349764,38.4577051 C76.8349764,36.4143652 78.4808976,34.7586133 80.5111732,34.7586133 L188.773898,34.7586133 C190.804591,34.7586133 192.450094,36.4143652 192.450094,38.4577051 C192.450094,40.500625 190.804591,42.1567969 188.773898,42.1567969 Z" id="Shape" fill="#DCDCDC"></path>
                            <g id="Group" transform="translate(76.787402, 66.347656)">
                                <path d="M111.986496,7.75385742 L3.72377165,7.75385742 C1.69349606,7.75385742 0.0475748031,6.09810547 0.0475748031,4.05476562 C0.0475748031,2.01142578 1.69349606,0.355673828 3.72377165,0.355673828 L111.986496,0.355673828 C114.017189,0.355673828 115.662693,2.01142578 115.662693,4.05476562 C115.662693,6.09810547 114.017189,7.75385742 111.986496,7.75385742 Z" id="Shape" fill="#CBCBCB"></path>
                                <path d="M111.986496,23.7268457 L87.2718031,23.7268457 C85.2411102,23.7268457 83.5956063,22.0710938 83.5956063,20.0277539 C83.5956063,17.9844141 85.2411102,16.3286621 87.2718031,16.3286621 L111.986496,16.3286621 C114.017189,16.3286621 115.662693,17.9844141 115.662693,20.0277539 C115.662693,22.0706738 114.017189,23.7268457 111.986496,23.7268457 Z" id="Shape" fill="#CBCBCB"></path>
                                <path d="M76.8633543,23.7268457 L3.72377165,23.7268457 C1.69349606,23.7268457 0.0475748031,22.0710938 0.0475748031,20.0277539 C0.0475748031,17.9844141 1.69349606,16.3286621 3.72377165,16.3286621 L76.8633543,16.3286621 C78.8940472,16.3286621 80.5395512,17.9844141 80.5395512,20.0277539 C80.5391339,22.0706738 78.8932126,23.7268457 76.8633543,23.7268457 Z" id="Shape" fill="#E1E1E1"></path>
                                <path d="M111.986496,39.6994141 L51.5185039,39.6994141 C49.487811,39.6994141 47.8423071,38.0436621 47.8423071,36.0003223 C47.8423071,33.9569824 49.487811,32.3012305 51.5185039,32.3012305 L111.986913,32.3012305 C114.017606,32.3012305 115.66311,33.9569824 115.66311,36.0003223 C115.66311,38.0436621 114.017189,39.6994141 111.986496,39.6994141 Z" id="Shape" fill="#CBCBCB"></path>
                                <path d="M41.5611811,39.6994141 L3.72335433,39.6994141 C1.69307874,39.6994141 0.0471574803,38.0436621 0.0471574803,36.0003223 C0.0471574803,33.9569824 1.69307874,32.3012305 3.72335433,32.3012305 L41.5611811,32.3012305 C43.591874,32.3012305 45.237378,33.9569824 45.237378,36.0003223 C45.237378,38.0436621 43.591874,39.6994141 41.5611811,39.6994141 Z" id="Shape" fill="#5C6670"></path>
                            </g>
                            <g id="Group" transform="translate(76.787402, 130.175781)">
                                <path d="M111.986496,7.81558594 L46.9675984,7.81558594 C44.9369055,7.81558594 43.2914016,6.15983398 43.2914016,4.11649414 C43.2914016,2.0731543 44.9369055,0.417402344 46.9675984,0.417402344 L111.986913,0.417402344 C114.017606,0.417402344 115.66311,2.0731543 115.66311,4.11649414 C115.662693,6.15983398 114.017189,7.81558594 111.986496,7.81558594 Z" id="Shape" fill="#D8D8D9"></path>
                                <path d="M34.2951732,7.81558594 L3.72293701,7.81558594 C1.69266142,7.81558594 0.0467401575,6.15983398 0.0467401575,4.11649414 C0.0467401575,2.0731543 1.69266142,0.417402344 3.72293701,0.417402344 L34.2951732,0.417402344 C36.3258661,0.417402344 37.9713701,2.0731543 37.9713701,4.11649414 C37.9713701,6.15983398 36.3258661,7.81558594 34.2951732,7.81558594 Z" id="Shape" fill="#5C6670"></path>
                                <path d="M111.986496,23.7873145 L76.862937,23.7873145 C74.8322441,23.7873145 73.1867402,22.1315625 73.1867402,20.0882227 C73.1867402,18.0448828 74.8322441,16.3891309 76.862937,16.3891309 L111.986496,16.3891309 C114.017189,16.3891309 115.662693,18.0448828 115.662693,20.0882227 C115.662693,22.1315625 114.017189,23.7873145 111.986496,23.7873145 Z" id="Shape" fill="#D8D8D9"></path>
                                <path d="M64.4680315,23.7873145 L3.72377165,23.7873145 C1.69349606,23.7873145 0.0475748031,22.1315625 0.0475748031,20.0882227 C0.0475748031,18.0448828 1.69349606,16.3891309 3.72377165,16.3891309 L64.4680315,16.3891309 C66.4987244,16.3891309 68.1442283,18.0448828 68.1442283,20.0882227 C68.1442283,22.1315625 66.4983071,23.7873145 64.4680315,23.7873145 Z" id="Shape" fill="#5C6670"></path>
                                <path d="M111.986496,39.7594629 L3.72377165,39.7594629 C1.69349606,39.7594629 0.0475748031,38.103291 0.0475748031,36.0603711 C0.0475748031,34.0170313 1.69349606,32.3612793 3.72377165,32.3612793 L111.986496,32.3612793 C114.017189,32.3612793 115.662693,34.0170313 115.662693,36.0603711 C115.662693,38.103291 114.017189,39.7594629 111.986496,39.7594629 Z" id="Shape" fill="#D8D8D9"></path>
                                <path d="M71.432315,55.7311914 L3.72377165,55.7311914 C1.69349606,55.7311914 0.0475748031,54.0754395 0.0475748031,52.0320996 C0.0475748031,49.9887598 1.69349606,48.3330078 3.72377165,48.3330078 L71.432315,48.3330078 C73.4630079,48.3330078 75.1085118,49.9887598 75.1085118,52.0320996 C75.1085118,54.0754395 73.4625906,55.7311914 71.432315,55.7311914 Z" id="Shape" fill="#D8D8D9"></path>
                            </g>
                            <path d="M143.963441,9.86396484 C143.963441,4.43899414 139.552339,0 134.160528,0 L81.8315827,0 C76.440189,0 72.0286693,4.43857422 72.0286693,9.86396484 L72.0286693,205.136035 C72.0286693,210.561006 76.4397717,215 81.8315827,215 L134.160528,215 C139.551921,215 143.963441,210.561426 143.963441,205.136035 L143.963441,9.86396484 Z" id="Shape" fill="#D5DAED"></path>
                            <ellipse id="Oval" fill="#FFFFFF" cx="107.99689" cy="177.16" rx="19.8954488" ry="20.0193555"></ellipse>
                            <ellipse id="Oval" fill="#EDEDED" cx="107.99689" cy="177.16" rx="8.62188976" ry="8.67558594"></ellipse>
                            <rect id="Rectangle-path" fill="#FFFFFF" x="86.6708583" y="21.3059961" width="42.652063" height="81.6483496"></rect>
                            <g id="Group" transform="translate(94.732283, 42.412109)" fill="#F3F3F3">
                                <path d="M22.6572913,7.63291992 L3.86858268,7.63291992 C1.83830709,7.63291992 0.192385827,5.97716797 0.192385827,3.93382812 C0.192385827,1.89048828 1.83830709,0.234736328 3.86858268,0.234736328 L22.6572913,0.234736328 C24.6879843,0.234736328 26.3334882,1.89048828 26.3334882,3.93382812 C26.3330709,5.97674805 24.6879843,7.63291992 22.6572913,7.63291992 Z" id="Shape"></path>
                                <path d="M22.6572913,20.9490625 L3.86858268,20.9490625 C1.83830709,20.9490625 0.192385827,19.2933105 0.192385827,17.2499707 C0.192385827,15.2066309 1.83830709,13.5508789 3.86858268,13.5508789 L22.6572913,13.5508789 C24.6879843,13.5508789 26.3334882,15.2066309 26.3334882,17.2499707 C26.3330709,19.2928906 24.6879843,20.9490625 22.6572913,20.9490625 Z" id="Shape"></path>
                            </g>
                            <path d="M72.0286693,9.86396484 C72.0286693,4.43899414 67.6175669,0 62.2257559,0 L9.89597638,0 C4.50458268,0 0.0930629921,4.43857422 0.0930629921,9.86396484 L0.0930629921,205.136035 C0.0930629921,210.561006 4.50416535,215 9.89597638,215 L62.2253386,215 C67.6167323,215 72.028252,210.561426 72.028252,205.136035 L72.028252,9.86396484 L72.0286693,9.86396484 Z" id="Shape" fill="#E8ECFB"></path>
                            <ellipse id="Oval" fill="#FFFFFF" cx="36.0587795" cy="177.16" rx="19.8954488" ry="20.0193555"></ellipse>
                            <ellipse id="Oval" fill="#EDEDED" cx="36.0587795" cy="177.16" rx="8.62188976" ry="8.67558594"></ellipse>
                            <rect id="Rectangle-path" fill="#FFFFFF" x="14.735252" y="21.3059961" width="42.652063" height="81.6483496"></rect>
                            <g id="Group" transform="translate(22.952756, 42.412109)" fill="#F3F3F3">
                                <path d="M22.5020472,7.63291992 L3.71292126,7.63291992 C1.68264567,7.63291992 0.0367244094,5.97716797 0.0367244094,3.93382812 C0.0367244094,1.89048828 1.68264567,0.234736328 3.71292126,0.234736328 L22.5020472,0.234736328 C24.5323228,0.234736328 26.1782441,1.89048828 26.1782441,3.93382812 C26.1782441,5.97674805 24.5323228,7.63291992 22.5020472,7.63291992 Z" id="Shape"></path>
                                <path d="M22.5020472,20.9490625 L3.71292126,20.9490625 C1.68264567,20.9490625 0.0367244094,19.2933105 0.0367244094,17.2499707 C0.0367244094,15.2066309 1.68264567,13.5508789 3.71292126,13.5508789 L22.5020472,13.5508789 C24.5323228,13.5508789 26.1782441,15.2066309 26.1782441,17.2499707 C26.1782441,19.2928906 24.5323228,20.9490625 22.5020472,20.9490625 Z" id="Shape"></path>
                            </g>
                        </g>
                    </g>
                </g>
            </g>
        </g>
    </g>
</svg>