<?xml version="1.0" encoding="UTF-8" standalone="no"?>
<svg width="171px" height="67px" viewBox="0 0 171 67" version="1.1" xmlns="http://www.w3.org/2000/svg" xmlns:xlink="http://www.w3.org/1999/xlink">
    <!-- Generator: Sketch 42 (36781) - http://www.bohemiancoding.com/sketch -->
    <title>proximity_marketing</title>
    <desc>Created with Sketch.</desc>
    <defs>
        <filter x="-50%" y="-50%" width="200%" height="200%" filterUnits="objectBoundingBox" id="filter-1">
            <feGaussianBlur stdDeviation="10 0" in="SourceGraphic"></feGaussianBlur>
        </filter>
        <filter x="-50%" y="-50%" width="200%" height="200%" filterUnits="objectBoundingBox" id="filter-2">
            <feGaussianBlur stdDeviation="10 0" in="SourceGraphic"></feGaussianBlur>
        </filter>
    </defs>
    <g id="Page-1" stroke="none" stroke-width="1" fill="none" fill-rule="evenodd">
        <g id="Large-Device-Desktops" transform="translate(-561.000000, -1015.000000)">
            <g id="proximity_marketing" transform="translate(580.000000, 1015.000000)">
                <ellipse id="Oval-7" fill-opacity="0.209999993" fill="#D8D8D8" filter="url(#filter-1)" cx="114" cy="65.057971" rx="18" ry="0.971014493"></ellipse>
                <ellipse id="Oval-7" fill="#D8D8D8" filter="url(#filter-2)" cx="24" cy="66.0289855" rx="18" ry="0.971014493"></ellipse>
                <g id="smartphone-(3)" transform="translate(29.789149, 44.914775) rotate(91.000000) translate(-29.789149, -44.914775) translate(7.789149, 16.414775)">
                    <g id="Capa_1" transform="translate(-0.000000, 0.000000)">
                        <rect id="Rectangle-path" fill="#C8D2D6" x="18.677" y="45.6376812" width="24" height="10.6811594"></rect>
                        <path d="M34.677,56.3188406 L18.677,56.3188406 L18.677,45.6376812 L28.103,45.6376812 C31.734,45.6376812 34.677,48.4953768 34.677,52.0211304 L34.677,56.3188406 Z" id="Shape" fill="#E7ECED"></path>
                        <ellipse id="Oval" fill="#7383BF" cx="28.177" cy="50.9782609" rx="2.5" ry="2.42753623"></ellipse>
                        <path d="M26.581,10.3917971 C27.814,9.86550725 28.677,8.67310145 28.677,7.2826087 C28.677,5.40563768 27.11,3.88405797 25.177,3.88405797 C23.744,3.88405797 22.516,4.72204348 21.975,5.91930435 L26.581,10.3917971 Z" id="Shape" fill="#FBCE9D"></path>
                        <path d="M31.581,15.2468696 C32.814,14.7205797 33.677,13.5281739 33.677,12.1376812 C33.677,10.2607101 32.11,8.73913043 30.177,8.73913043 C28.744,8.73913043 27.516,9.57711594 26.975,10.7743768 L31.581,15.2468696 Z" id="Shape" fill="#FBCE9D"></path>
                        <path d="M36.581,20.101942 C37.814,19.5756522 38.677,18.3832464 38.677,16.9927536 C38.677,15.1157826 37.11,13.5942029 35.177,13.5942029 C33.744,13.5942029 32.516,14.4321884 31.975,15.6294493 L36.581,20.101942 Z" id="Shape" fill="#FBCE9D"></path>
                        <path d="M41.581,24.9570145 C42.814,24.4307246 43.677,23.2383188 43.677,21.8478261 C43.677,19.9708551 42.11,18.4492754 40.177,18.4492754 C38.744,18.4492754 37.516,19.2872609 36.975,20.4845217 L41.581,24.9570145 Z" id="Shape" fill="#FBCE9D"></path>
                        <path d="M21.177,32.0434783 L11.177,32.0434783 C9.252,32.0434783 7.677,30.5141304 7.677,28.6449275 L7.677,28.6449275 C7.677,26.7757246 9.252,25.2463768 11.177,25.2463768 L21.177,25.2463768 C23.102,25.2463768 24.677,26.7757246 24.677,28.6449275 L24.677,28.6449275 C24.677,30.5141304 23.102,32.0434783 21.177,32.0434783 Z" id="Shape" fill="#FBCE9D"></path>
                        <path d="M41.813,30.6481304 L30.693,41.4458116 C29.797,42.3158406 28.344,42.3158406 27.449,41.4458116 L17.767,32.0434783 L11.178,32.0434783 C10.6,32.3182754 9.023,31.3268696 9.628,31.8308261 L20.44,42.2886522 C20.514,42.3605072 20.6,42.411971 20.678,42.477029 L20.678,45.6376812 L40.678,45.6376812 L40.678,41.2584058 C42.497,39.929087 43.678,37.8229565 43.678,35.442029 C43.677,33.6038986 42.97,31.9298696 41.813,30.6481304 Z" id="Shape" fill="#F7B563"></path>
                        <path d="M18.769,2.80526087 L3.212,17.9113333 L10.804,25.2832754 C10.929,25.2706522 11.05,25.2463768 11.177,25.2463768 L21.177,25.2463768 C23.102,25.2463768 24.677,26.7757246 24.677,28.6449275 C24.677,30.5141304 23.102,32.0434783 21.177,32.0434783 L17.766,32.0434783 L24.121,38.2142754 L39.677,23.1082029 L18.769,2.80526087 Z" id="Shape" fill="#424A60"></path>
                        <g id="Group" fill="#E7ECED">
                            <path d="M18.769,2.80526087 L16.552,0.652521739 C15.656,-0.217507246 14.203,-0.217507246 13.308,0.652521739 L0.995,12.6076522 C0.099,13.4776812 0.099,14.8885652 0.995,15.7585942 L3.212,17.9113333 L18.769,2.80526087 Z" id="Shape"></path>
                            <path d="M43.005,26.3397391 L39.677,23.1082029 L24.121,38.2142754 L27.448,41.4448406 C28.344,42.3148696 29.797,42.3148696 30.692,41.4448406 L43.004,29.4897101 C43.901,28.6206522 43.901,27.2097681 43.005,26.3397391 Z" id="Shape"></path>
                        </g>
                        <ellipse id="Oval" fill="#FFFFFF" cx="34.177" cy="32.5289855" rx="2" ry="1.94202899"></ellipse>
                        <path d="M8.677,10.6811594 C8.421,10.6811594 8.165,10.586 7.97,10.3966522 C7.579,10.0169855 7.579,9.40330435 7.97,9.02363768 L9.97,7.0816087 C10.361,6.70194203 10.993,6.70194203 11.384,7.0816087 C11.775,7.46127536 11.775,8.07495652 11.384,8.45462319 L9.384,10.3966522 C9.189,10.586 8.933,10.6811594 8.677,10.6811594 Z" id="Shape" fill="#424A60"></path>
                    </g>
                </g>
                <g id="wifi-(2)" transform="translate(64.398400, 34.594804) scale(1, -1) rotate(114.000000) translate(-64.398400, -34.594804) translate(51.898400, 24.094804)" fill="#1F84CE">
                    <g id="Layer_1" transform="translate(-0.000000, -0.000000)">
                        <ellipse id="Oval" cx="12.5656566" cy="17.8741003" rx="2.58585859" ry="2.49769087"></ellipse>
                        <path d="M14.3838384,16.1179114 C15.3939394,17.0935719 15.3939394,18.6546287 14.3838384,19.6302892 C13.3737374,20.6059497 11.7575758,20.6059497 10.7474747,19.6302892" id="Shape"></path>
                        <path d="M20.2424242,10.5761598 C19.9191919,10.5761598 19.5959596,10.4590805 19.3535354,10.224922 C17.5353535,8.42970668 15.0707071,7.45404618 12.4848485,7.45404618 C9.8989899,7.45404618 7.43434343,8.42970668 5.61616162,10.1858956 C5.13131313,10.6542126 4.32323232,10.6542126 3.83838384,10.1858956 C3.35353535,9.71757853 3.35353535,8.93705014 3.83838384,8.4687331 C6.14141414,6.24422717 9.25252525,4.99538173 12.5252525,4.99538173 L12.5252525,4.99538173 C15.7979798,4.99538173 18.8686869,6.24422717 21.2121212,8.4687331 C21.6969697,8.93705014 21.6969697,9.71757853 21.2121212,10.1858956 C20.9292929,10.4200541 20.5656566,10.5761598 20.2424242,10.5761598 Z" id="Shape"></path>
                        <path d="M12.4848485,6.28325359 C9.21212121,6.28325359 6.14141414,7.53209902 3.7979798,9.75660495 C3.71717172,9.83465779 3.67676768,9.91271063 3.5959596,9.99076347 C3.63636364,10.0688163 3.71717172,10.1468691 3.7979798,10.224922 C4.28282828,10.693239 5.09090909,10.693239 5.57575758,10.224922 C7.43434343,8.42970668 9.85858586,7.45404618 12.4444444,7.45404618 C15.030303,7.45404618 17.4949495,8.42970668 19.3131313,10.224922 C19.5555556,10.4590805 19.8787879,10.5761598 20.2020202,10.5761598 C20.5252525,10.5761598 20.8484848,10.4590805 21.0909091,10.224922 C21.1717172,10.1468691 21.2121212,10.0688163 21.2929293,9.99076347 C21.2525253,9.91271063 21.1717172,9.83465779 21.0909091,9.75660495 C18.8282828,7.4930726 15.7575758,6.28325359 12.4848485,6.28325359 Z" id="Shape"></path>
                        <path d="M23.7171717,6.94670273 C23.3939394,6.94670273 23.0707071,6.82962347 22.8282828,6.59546495 C20.040404,3.9416684 16.4040404,2.45866445 12.4848485,2.45866445 C8.56565657,2.45866445 4.92929293,3.9416684 2.14141414,6.59546495 C1.65656566,7.06378198 0.848484848,7.06378198 0.363636364,6.59546495 C-0.121212121,6.12714791 -0.121212121,5.34661951 0.363636364,4.87830248 C3.5959596,1.75618889 7.91919192,0.0390264198 12.4848485,0.0390264198 L12.4848485,0.0390264198 C17.0505051,0.0390264198 21.3737374,1.75618889 24.6060606,4.87830248 C25.0909091,5.34661951 25.0909091,6.12714791 24.6060606,6.59546495 C24.3636364,6.82962347 24.040404,6.94670273 23.7171717,6.94670273 Z" id="Shape"></path>
                        <path d="M12.4848485,1.32689827 C7.91919192,1.32689827 3.5959596,3.04406074 0.363636364,6.16617433 C0.282828283,6.24422717 0.242424242,6.28325359 0.202020202,6.36130643 C0.242424242,6.43935927 0.323232323,6.51741211 0.363636364,6.55643853 C0.848484848,7.02475556 1.65656566,7.02475556 2.14141414,6.55643853 C4.92929293,3.9416684 8.56565657,2.45866445 12.4848485,2.45866445 C16.4040404,2.45866445 20.040404,3.9416684 22.8282828,6.59546495 C23.0707071,6.82962347 23.3939394,6.94670273 23.7171717,6.94670273 C24.040404,6.94670273 24.3636364,6.82962347 24.6060606,6.59546495 C24.6868687,6.51741211 24.7272727,6.47838569 24.7676768,6.40033285 C24.7272727,6.32228001 24.6464646,6.24422717 24.6060606,6.20520075 C21.3737374,3.04406074 17.0505051,1.32689827 12.4848485,1.32689827 Z" id="Shape"></path>
                        <path d="M17.1313131,14.2836696 C16.8080808,14.2836696 16.4848485,14.1665904 16.2424242,13.9324319 C15.2323232,12.9567714 13.8989899,12.4494279 12.4848485,12.4494279 C11.0707071,12.4494279 9.73737374,12.9957978 8.72727273,13.9324319 C8.24242424,14.4007489 7.43434343,14.4007489 6.94949495,13.9324319 C6.46464646,13.4641148 6.46464646,12.6835864 6.94949495,12.2152694 C8.44444444,10.7712919 10.3838384,9.99076347 12.4848485,9.99076347 L12.4848485,9.99076347 C14.5858586,9.99076347 16.5252525,10.7712919 18.020202,12.2152694 C18.5050505,12.6835864 18.5050505,13.4641148 18.020202,13.9324319 C17.7777778,14.1665904 17.4545455,14.2836696 17.1313131,14.2836696 Z" id="Shape"></path>
                        <path d="M12.4848485,11.3566882 C10.3838384,11.3566882 8.44444444,12.1372166 6.94949495,13.5811941 C6.90909091,13.6202205 6.82828283,13.6982734 6.78787879,13.7763262 C6.82828283,13.854379 6.86868687,13.8934055 6.94949495,13.9714583 C7.43434343,14.4397753 8.24242424,14.4397753 8.72727273,13.9714583 C9.73737374,12.9957978 11.0707071,12.4884543 12.4848485,12.4884543 C13.8989899,12.4884543 15.2323232,13.0348242 16.2424242,13.9714583 C16.4848485,14.2056168 16.8080808,14.3226961 17.1313131,14.3226961 C17.4545455,14.3226961 17.7777778,14.2056168 18.020202,13.9714583 C18.0606061,13.9324319 18.1414141,13.854379 18.1818182,13.7763262 C18.1414141,13.6982734 18.1010101,13.6592469 18.020202,13.5811941 C16.5252525,12.1372166 14.5858586,11.3566882 12.4848485,11.3566882 Z" id="Shape"></path>
                    </g>
                </g>
                <g id="wifi-(2)" transform="translate(96.194373, 30.597144) scale(1, -1) rotate(271.000000) translate(-96.194373, -30.597144) translate(85.194373, 21.597144)" fill="#1F84CE">
                    <g id="Layer_1" transform="translate(-0.000000, -0.000000)">
                        <ellipse id="Oval" cx="10.6751259" cy="15.1849025" rx="2.19681047" ry="2.12190777"></ellipse>
                        <path d="M12.2197582,13.6929361 C13.0778873,14.5218063 13.0778873,15.8479987 12.2197582,16.6768689 C11.3616291,17.5057391 9.98862259,17.5057391 9.1304935,16.6768689" id="Shape"></path>
                        <path d="M17.1969069,8.98495323 C16.9223056,8.98495323 16.6477043,8.88548881 16.4417533,8.68655995 C14.897121,7.16143874 12.803286,6.33256852 10.6064755,6.33256852 C8.40966506,6.33256852 6.31583009,7.16143874 4.77119773,8.65340514 C4.35929577,9.05126285 3.6727925,9.05126285 3.26089054,8.65340514 C2.84898857,8.25554744 2.84898857,7.59245126 3.26089054,7.19459355 C5.21742486,5.30476944 7.86046245,4.24381555 10.6408007,4.24381555 L10.6408007,4.24381555 C13.4211389,4.24381555 16.0298514,5.30476944 18.0207109,7.19459355 C18.4326128,7.59245126 18.4326128,8.25554744 18.0207109,8.65340514 C17.7804347,8.852334 17.4715082,8.98495323 17.1969069,8.98495323 Z" id="Shape"></path>
                        <path d="M10.6064755,5.33792425 C7.82613728,5.33792425 5.21742486,6.39887813 3.22656537,8.28870225 C3.15791504,8.35501186 3.12358988,8.42132148 3.05493955,8.4876311 C3.08926472,8.55394072 3.15791504,8.62025034 3.22656537,8.68655995 C3.63846733,9.08441766 4.3249706,9.08441766 4.73687257,8.68655995 C6.31583009,7.16143874 8.3753399,6.33256852 10.5721504,6.33256852 C12.7689608,6.33256852 14.8627958,7.16143874 16.4074282,8.68655995 C16.6133791,8.88548881 16.8879805,8.98495323 17.1625818,8.98495323 C17.4371831,8.98495323 17.7117844,8.88548881 17.9177354,8.68655995 C17.9863857,8.62025034 18.0207109,8.55394072 18.0893612,8.4876311 C18.055036,8.42132148 17.9863857,8.35501186 17.9177354,8.28870225 C15.9955262,6.36572332 13.3868138,5.33792425 10.6064755,5.33792425 Z" id="Shape"></path>
                        <path d="M20.148871,5.901556 C19.8742697,5.901556 19.5996684,5.80209157 19.3937174,5.60316272 C17.0252811,3.34863571 13.9360164,2.08875297 10.6064755,2.08875297 C7.27693467,2.08875297 4.18766995,3.34863571 1.81923367,5.60316272 C1.4073317,6.00102043 0.720828434,6.00102043 0.308926472,5.60316272 C-0.102975491,5.20530501 -0.102975491,4.54220883 0.308926472,4.14435112 C3.05493955,1.4919664 6.72773205,0.033154809 10.6064755,0.033154809 L10.6064755,0.033154809 C14.485219,0.033154809 18.1580115,1.4919664 20.9040246,4.14435112 C21.3159266,4.54220883 21.3159266,5.20530501 20.9040246,5.60316272 C20.6980736,5.80209157 20.4234723,5.901556 20.148871,5.901556 Z" id="Shape"></path>
                        <path d="M10.6064755,1.12726351 C6.72773205,1.12726351 3.05493955,2.5860751 0.308926472,5.23845982 C0.240276145,5.30476944 0.205950981,5.33792425 0.171625818,5.40423386 C0.205950981,5.47054348 0.274601308,5.5368531 0.308926472,5.57000791 C0.720828434,5.96786562 1.4073317,5.96786562 1.81923367,5.57000791 C4.18766995,3.34863571 7.27693467,2.08875297 10.6064755,2.08875297 C13.9360164,2.08875297 17.0252811,3.34863571 19.3937174,5.60316272 C19.5996684,5.80209157 19.8742697,5.901556 20.148871,5.901556 C20.4234723,5.901556 20.6980736,5.80209157 20.9040246,5.60316272 C20.9726749,5.5368531 21.0070001,5.50369829 21.0413252,5.43738867 C21.0070001,5.37107906 20.9383498,5.30476944 20.9040246,5.27161463 C18.1580115,2.5860751 14.485219,1.12726351 10.6064755,1.12726351 Z" id="Shape"></path>
                        <path d="M14.5538693,12.1346601 C14.279268,12.1346601 14.0046667,12.0351957 13.7987157,11.8362668 C12.9405867,11.0073966 11.8078563,10.5763841 10.6064755,10.5763841 C9.40509481,10.5763841 8.27236441,11.0405514 7.41423532,11.8362668 C7.00233336,12.2341245 6.31583009,12.2341245 5.90392813,11.8362668 C5.49202616,11.4384091 5.49202616,10.7753129 5.90392813,10.3774552 C7.17395918,9.15072728 8.82156703,8.4876311 10.6064755,8.4876311 L10.6064755,8.4876311 C12.391384,8.4876311 14.0389919,9.15072728 15.3090229,10.3774552 C15.7209249,10.7753129 15.7209249,11.4384091 15.3090229,11.8362668 C15.103072,12.0351957 14.8284706,12.1346601 14.5538693,12.1346601 Z" id="Shape"></path>
                        <path d="M10.6064755,9.64804941 C8.82156703,9.64804941 7.17395918,10.3111456 5.90392813,11.5378735 C5.86960296,11.5710283 5.80095264,11.637338 5.76662747,11.7036476 C5.80095264,11.7699572 5.8352778,11.803112 5.90392813,11.8694216 C6.31583009,12.2672793 7.00233336,12.2672793 7.41423532,11.8694216 C8.27236441,11.0405514 9.40509481,10.6095389 10.6064755,10.6095389 C11.8078563,10.6095389 12.9405867,11.0737062 13.7987157,11.8694216 C14.0046667,12.0683505 14.279268,12.1678149 14.5538693,12.1678149 C14.8284706,12.1678149 15.103072,12.0683505 15.3090229,11.8694216 C15.3433481,11.8362668 15.4119984,11.7699572 15.4463236,11.7036476 C15.4119984,11.637338 15.3776733,11.6041831 15.3090229,11.5378735 C14.0389919,10.3111456 12.391384,9.64804941 10.6064755,9.64804941 Z" id="Shape"></path>
                    </g>
                </g>
                <g id="bluetooth" transform="translate(42.000000, 27.974876)">
                    <g id="Layer_1">
                        <path d="M6,0 L6,0 C2.69736842,0 0.0200701754,2.46006332 0.0200701754,5.49472067 L0.0200701754,11.0125579 C0.0200701754,14.0471831 2.69736842,16.5072464 6,16.5072464 L6,16.5072464 C9.30263158,16.5072464 11.9799298,14.0471831 11.9799298,11.0125257 L11.9799298,5.49472067 C11.9799298,2.46006332 9.30263158,0 6,0 Z" id="Shape" fill="#1F84CE"></path>
                        <path d="M6.81887719,8.86016777 L9.23705263,6.55369922 C9.45438596,6.34642366 9.45438596,6.0183099 9.23705263,5.81106658 L6.42950877,3.13324946 C6.26463158,2.97607597 6.01242105,2.92661872 5.79217544,3.00821997 C5.57185965,3.08985346 5.42754386,3.2862639 5.42754386,3.50456578 L5.42754386,7.53313992 L3.60185965,5.79181887 C3.37870175,5.57906239 3.01,5.57264648 2.77824561,5.77769744 C2.54659649,5.98278063 2.5397193,6.32156607 2.76291228,6.53448375 L5.20122807,8.86013553 L2.76291228,11.1857873 C2.53975439,11.398705 2.54663158,11.7374582 2.77824561,11.9425736 C2.89122807,12.0426166 3.03684211,12.0923317 3.1822807,12.0923317 C3.33501754,12.0923317 3.48747368,12.0374903 3.60185965,11.9284522 L5.42754386,10.1871311 L5.42754386,14.2157053 C5.42754386,14.4340072 5.57182456,14.6304176 5.79217544,14.7120511 C5.86277193,14.7381983 5.93666667,14.7509334 6.00989474,14.7509334 C6.16512281,14.7509012 6.31750877,14.6938028 6.42950877,14.5870216 L9.23705263,11.9092045 C9.45438596,11.7019289 9.45438596,11.3738152 9.23705263,11.1665718 L6.81887719,8.86016777 Z M6.59252632,4.8315614 L8.00884211,6.18241514 L6.59252632,7.53326888 L6.59252632,4.8315614 L6.59252632,4.8315614 Z M6.59252632,12.8888064 L6.59252632,10.1870989 L8.00884211,11.5379526 L6.59252632,12.8888064 Z" id="Shape" fill="#145587" opacity="0.3"></path>
                        <path d="M6.81887719,8.25362319 L9.23705263,5.94715464 C9.45438596,5.73987908 9.45438596,5.41176531 9.23705263,5.20452199 L6.42950877,2.52670488 C6.26463158,2.36953139 6.01242105,2.32007413 5.79217544,2.40167538 C5.57185965,2.48330888 5.42754386,2.67971932 5.42754386,2.8980212 L5.42754386,6.92659534 L3.60185965,5.18527429 C3.37870175,4.9725178 3.01,4.9661019 2.77824561,5.17115285 C2.54659649,5.37623605 2.5397193,5.71502148 2.76291228,5.92793917 L5.20122807,8.25359095 L2.76291228,10.5792427 C2.53975439,10.7921604 2.54663158,11.1309136 2.77824561,11.336029 C2.89122807,11.436072 3.03684211,11.4857872 3.1822807,11.4857872 C3.33501754,11.4857872 3.48747368,11.4309457 3.60185965,11.3219076 L5.42754386,9.58058656 L5.42754386,13.6091285 C5.42754386,13.8274303 5.57182456,14.0238408 5.79217544,14.1054743 C5.86277193,14.1316215 5.93666667,14.1443566 6.00989474,14.1443566 C6.16512281,14.1443243 6.31750877,14.087226 6.42950877,13.9804448 L9.23705263,11.3026277 C9.45438596,11.0953521 9.45438596,10.7672383 9.23705263,10.559995 L6.81887719,8.25362319 Z M6.59252632,4.22501681 L8.00884211,5.57587056 L6.59252632,6.9267243 L6.59252632,4.22501681 L6.59252632,4.22501681 Z M6.59252632,12.2822296 L6.59252632,9.58052208 L8.00884211,10.9313758 L6.59252632,12.2822296 Z" id="Shape" fill="#FFFFFF"></path>
                    </g>
                </g>
                <path d="M126.951995,13.8463304 L127.099272,21.8197768 C127.501627,26.6010293 127.832529,32.4562266 127.344725,35.1083216 L127.369141,36.4301758 C127.369141,36.4301758 126.874798,36.7853975 126.076426,37.3202034 C125.404508,37.9270708 124.533203,38.4494871 123.627395,38.8870448 C120.801756,40.6079024 117.10123,42.5440819 115.227051,42.2026367 C111.949219,41.6054687 103.702148,38.0893555 102.969727,37.2597656 C102.237305,36.4301758 98.5048828,24.2458059 98.5048828,22.8432617 C98.5048828,21.4407175 107.834473,2.33105469 107.834473,2.33105469 C107.834473,2.33105469 107.909887,2.28542734 108.05556,2.20915906 C108.199651,1.90684143 108.302286,1.69560619 108.353516,1.59716797 C108.520203,1.27687462 109.679547,1.11796029 111.256672,1.06885999 C113.612573,0.523309213 117.042625,0.285531384 121.094001,1.67187778 C121.419239,1.73354241 121.662894,1.79604059 121.803223,1.85742188 C123.014755,2.38736092 126.142546,10.9915244 126.920795,13.1779983 L126.94043,13.2202148 L126.940683,13.2339124 C127.041964,13.5188744 127.098145,13.6801758 127.098145,13.6801758 L126.951995,13.8463304 Z" id="Path-2" fill="#D4667A" style="mix-blend-mode: darken;"></path>
            </g>
        </g>
    </g>
</svg>