<?xml version="1.0" encoding="utf-8"?>
<!-- Generator: Adobe Illustrator 19.1.0, SVG Export Plug-In . SVG Version: 6.00 Build 0)  -->
<!DOCTYPE svg PUBLIC "-//W3C//DTD SVG 1.1//EN" "http://www.w3.org/Graphics/SVG/1.1/DTD/svg11.dtd">
<svg version="1.1" id="Layer_1" xmlns="http://www.w3.org/2000/svg" xmlns:xlink="http://www.w3.org/1999/xlink" x="0px" y="0px"
	 viewBox="0 0 180.8 120.6" style="enable-background:new 0 0 180.8 120.6;" xml:space="preserve">
<style type="text/css">
	.st0{opacity:0.5;fill:#70C1D4;}
	.st1{fill:#70C1D4;}
</style>
<g>
	<path class="st0" d="M180.8,37.5c-0.6-8.7-7.9-15.2-16.4-15.1C162.6,9,150.8-0.9,137.1,0.1c-11.4,0.8-20.6,8.9-23.2,19.5
		c-1.5-0.3-3.1-0.4-4.7-0.3c-9.5,0.6-16.7,8.9-16,18.4s8.9,16.7,18.4,16c2.3-0.2,4.5-0.8,6.4-1.7c4.6,5.3,12.2,8.5,20.5,7.9
		c6.9-0.5,13-3.4,17-7.8c2.9,1.9,6.4,3,10.2,2.7C174.7,54.2,181.4,46.4,180.8,37.5z M136.6,43l-2.1-7.6c-4.8,1.2-12.6,4.8-14.4,16.6
		l-7.2-1.1c2.3-14.4,12.5-20.6,19.6-22.5l-1.9-6.7l15.1,7.3L136.6,43z"/>
	<path class="st1" d="M123.3,54.4c-3.5-23.2-24.4-39.9-48-37.9c-19.9,1.7-35.6,16.2-39.8,34.7c-2.6-0.5-5.3-0.7-8.1-0.4
		C10.9,52.2-1.3,66.7,0.1,83.2s15.9,28.7,32.4,27.2c4-0.3,7.7-1.5,11.1-3.2c8.1,9.1,21.4,14.4,36,13.1c12-1,22.4-6.4,29.3-14
		c5.1,3.3,11.2,5,17.7,4.4c15.5-1.3,27.1-15,25.7-30.6C151,65.2,138.2,54,123.3,54.4z"/>
</g>
</svg>
