<?xml version="1.0" encoding="utf-8"?>
<!-- Generator: Adobe Illustrator 19.1.0, SVG Export Plug-In . SVG Version: 6.00 Build 0)  -->
<!DOCTYPE svg PUBLIC "-//W3C//DTD SVG 1.1//EN" "http://www.w3.org/Graphics/SVG/1.1/DTD/svg11.dtd">
<svg version="1.1" id="Layer_1" xmlns="http://www.w3.org/2000/svg" xmlns:xlink="http://www.w3.org/1999/xlink" x="0px" y="0px"
	 viewBox="0 0 192.4 187.9" style="enable-background:new 0 0 192.4 187.9;" xml:space="preserve">
<style type="text/css">
	.st0{fill:#DEBB43;}
	.st1{fill:#E55D5D;}
	.st2{fill:#646464;}
</style>
<g>
	<g>
		<path class="st0" d="M5.9,52.9c-3.8,1-6.3,4.7-5.8,8.6l1.1,7.8C1.6,73.3,5,76.2,9,76.1l5.8-0.1c1.5,3.3,3.3,6.5,5.5,9.4l-3,5.1
			c-2,3.4-1.2,7.8,2,10.2l6.3,4.8c3.2,2.4,7.6,2.1,10.3-0.8l4.1-4.2c3.5,1.4,7.2,2.4,10.9,3l1.5,5.8c1,3.8,4.7,6.3,8.6,5.8l7.8-1.1
			c3.9-0.5,6.8-3.9,6.7-7.9l-0.1-5.7c3.7-1.5,7.2-3.5,10.5-5.9l4.8,2.8c3.4,2,7.8,1.2,10.2-2l4.8-6.3c2.4-3.2,2.1-7.6-0.8-10.3
			l-3.9-3.8c1.5-3.7,2.6-7.5,3.1-11.5l5-1.3c3.8-1,6.3-4.7,5.8-8.6l-1.1-7.8c-0.5-3.9-3.9-6.8-7.9-6.7l-5.1,0.1
			c-1.5-3.6-3.5-7-5.8-10.2l2.6-4.3c2-3.4,1.2-7.8-2-10.2l-6.3-4.8c-3.2-2.4-7.6-2.1-10.3,0.8l-3.3,3.4c-3.8-1.6-7.8-2.7-11.9-3.2
			l-1.2-4.8c-1-3.8-4.7-6.3-8.6-5.8l-7.8,1.1C42.2,1.6,39.3,5,39.4,9l0.1,4.9c-3.9,1.6-7.6,3.8-10.9,6.5l-4.3-2.6
			c-3.4-2-7.8-1.2-10.2,2l-4.8,6.3c-2.4,3.2-2.1,7.6,0.8,10.3l3.9,3.8c-1.4,3.7-2.4,7.5-2.8,11.4L5.9,52.9z M54.9,36.7
			c11.2-1.5,21.5,6.4,23.1,17.6c1.5,11.2-6.4,21.5-17.6,23.1C49.2,78.9,38.8,71,37.3,59.8C35.8,48.6,43.7,38.2,54.9,36.7L54.9,36.7z
			 M54.9,36.7"/>
	</g>
	<g>
		<g>
			<path class="st0" d="M169.1,155l-8.4-14.4l8.3-14.5l23.3-0.1c-5-8.7-14.4-14.5-25.2-14.5c-11.3,0-21.1,6.6-25.9,16l-0.1,0
				l-36.7,0.1c0.3,1.5,0.4,3,0.2,4.6c5.5,3.8,6.3,12.3,2.3,17.5c0.2,1.8,0.1,3.6-0.4,5.3l35.4-0.1c5,8.8,14.5,14.8,25.4,14.7
				c10.8,0,20.2-6,25.1-14.7L169.1,155z"/>
		</g>
	</g>
	<g>
		<path class="st1" d="M73.4,149.9c13.5,24-14.7,29.3-14.7,29.3c4.6-5.2,1.7-6.9,1.7-6.9C51.2,189.2,38,184.9,38,184.9
			c4.2-2.3,4.5-5.7,4.5-5.7c-14.3-2.1-19,8.7-19,8.7c-4.3-15,10.8-27.4,10.8-27.4c-2.8-3.9-6.2-0.1-6.2-0.1
			c6.9-36.3,34.2-23.6,34.2-23.6L73.4,149.9z"/>
		<path class="st0" d="M67.7,150.8c7.9,14-8.6,17.1-8.6,17.1c2.7-3,1-4,1-4c-5.3,9.9-13,7.4-13,7.4c2.5-1.4,2.6-3.3,2.6-3.3
			c-8.3-1.2-11.1,5.1-11.1,5.1c-2.5-8.8,6.3-16,6.3-16c-1.6-2.3-3.6-0.1-3.6-0.1c4-21.1,19.9-13.7,19.9-13.7L67.7,150.8z"/>
	</g>
	<g>
		<g>
			<g>
				<g>
					<path class="st2" d="M162.6,49.9c0-0.7-0.3-1.3-0.7-1.8c-0.5-0.5-1.1-0.7-1.8-0.7c-1.3,0-32.3,0.7-52.2,20.7L82.7,93.3
						c-5.9-2.1-25.9-6-54,22.2c-0.9,0.9-1,2.2-0.3,3.2c0.1,0.1,0.2,0.2,0.3,0.3c0.7,0.7,1.9,0.9,2.8,0.5c0.2-0.1,18.2-8.8,27.7-2.7
						l-6.3,6.3c-0.2,0.2-0.3,0.3-0.4,0.5c-0.3,0.5-6.3,11.3,8.1,25.8c14.5,14.5,25.3,8.4,25.8,8.1c0.2-0.1,0.4-0.2,0.5-0.4l6.3-6.3
						c6.1,9.5-2.6,27.5-2.7,27.7c-0.5,1-0.3,2.1,0.5,2.8c0,0,0,0,0,0c1,0.9,2.5,0.9,3.5,0c0,0,0.1-0.1,0.1-0.1
						c28-28.1,24.1-48,22.1-53.9l25.3-25.3C161.9,82.2,162.6,51.2,162.6,49.9L162.6,49.9z M127.7,96.3c-3.8,3.8-10.1,3.8-13.9,0
						c-3.8-3.8-3.8-10.1,0-13.9c3.8-3.8,10.1-3.8,13.9,0C131.5,86.2,131.5,92.5,127.7,96.3L127.7,96.3z M130.5,99.2"/>
				</g>
			</g>
		</g>
	</g>
</g>
</svg>
