<?xml version="1.0" encoding="utf-8"?>
<!-- Generator: Adobe Illustrator 19.1.0, SVG Export Plug-In . SVG Version: 6.00 Build 0)  -->
<!DOCTYPE svg PUBLIC "-//W3C//DTD SVG 1.1//EN" "http://www.w3.org/Graphics/SVG/1.1/DTD/svg11.dtd">
<svg version="1.1" id="Layer_1" xmlns="http://www.w3.org/2000/svg" xmlns:xlink="http://www.w3.org/1999/xlink" x="0px" y="0px"
	 viewBox="0 0 118 94.7" style="enable-background:new 0 0 118 94.7;" xml:space="preserve">
<style type="text/css">
	.st0{fill:#E55D5D;}
	.st1{fill:#DEBB43;}
	.st2{fill:#7DC691;}
	.st3{opacity:0.3;fill:#FFFFFF;}
	.st4{fill:#FFFFFF;}
	.st5{fill:none;stroke:#FFFFFF;stroke-miterlimit:10;}
	.st6{fill:none;stroke:#FFFFFF;stroke-miterlimit:10;stroke-dasharray:2.9573,1.9716;}
</style>
<g>
	<polygon class="st0" points="68.9,43.4 59.1,43.4 58.9,43.4 49.1,43.4 53.1,74.8 56.1,67.9 59,86.4 61.9,67.9 64.9,74.8 	"/>
	<polygon class="st1" points="64.6,46.8 59.1,46.8 58.9,46.8 53.4,46.8 55,66.9 57.2,62.5 59,74.3 60.8,62.5 63,66.9 	"/>
	<g>
		<path class="st2" d="M38,50.7c-0.2-3.3-8.7-5.8-19-5.8c-10.2,0-17.9,2.5-19,5.7v0c0,0,0.2,38.1,0.2,38.1c0,3.2,8.5,5.8,18.9,5.8
			C29.5,94.6,38,92,38,88.7L38,50.7L38,50.7z"/>
		<ellipse class="st3" cx="19.2" cy="50.6" rx="16" ry="4.1"/>
		<path class="st3" d="M19.2,56.3v38.3c10.4,0,18.8-2.6,18.8-5.9l0-36.5C35.1,54.7,27.8,56.3,19.2,56.3z"/>
	</g>
	<g>
		<path class="st2" d="M118,50.7c-0.2-3.3-8.7-5.8-19-5.8c-10.2,0-17.9,2.5-19,5.7v0c0,0,0.2,38.1,0.2,38.1c0,3.2,8.5,5.8,18.9,5.8
			c10.4,0,18.9-2.7,18.9-5.9L118,50.7L118,50.7z"/>
		<ellipse class="st3" cx="99.2" cy="50.6" rx="16" ry="4.1"/>
		<path class="st3" d="M99.2,56.3v38.3c10.4,0,18.8-2.6,18.8-5.9l0-36.5C115.1,54.7,107.8,56.3,99.2,56.3z"/>
	</g>
	<g>
		<path class="st2" d="M78,5.7c-0.2-3.3-8.7-5.8-19-5.8c-10.2,0-17.9,2.5-19,5.7v0c0,0,0.2,38.1,0.2,38.1c0,3.2,8.5,5.8,18.9,5.8
			C69.5,49.6,78,47,78,43.7L78,5.7L78,5.7z"/>
		<ellipse class="st3" cx="59.2" cy="5.6" rx="16" ry="4.1"/>
		<path class="st3" d="M59.2,11.3v38.3c10.4,0,18.8-2.6,18.8-5.9l0-36.5C75.1,9.7,67.8,11.3,59.2,11.3z"/>
	</g>
	<polygon class="st4" points="55.8,32.4 50.8,27.4 48.3,29.9 53.2,34.8 54.5,36.1 55.8,37.4 67.7,25.5 65.2,23 	"/>
	<g>
		<g>
			<path class="st5" d="M12.5,69c1.5-2.1,3.9-3.6,6.7-3.6c2.1,0,4,0.8,5.5,2.1"/>
			<g>
				<polygon class="st4" points="22.7,68.4 26.4,69.8 25.8,65.9 				"/>
			</g>
		</g>
	</g>
	<g>
		<g>
			<path class="st5" d="M26.3,77.3c-0.2,0.4-0.5,0.9-0.8,1.2"/>
			<path class="st6" d="M24.1,79.9c-1.4,1-3,1.6-4.9,1.6c-4.5,0-8.1-3.6-8.1-8.1s3.6-8.1,8.1-8.1c1,0,2,0.2,2.9,0.5"/>
			<path class="st5" d="M23,66.4c0.4,0.2,0.9,0.5,1.3,0.8"/>
		</g>
	</g>
	<g>
		<g>
			<g>
				<path class="st5" d="M92.5,69c1.5-2.1,3.9-3.6,6.7-3.6c2.1,0,4,0.8,5.5,2.1"/>
				<g>
					<polygon class="st4" points="102.7,68.4 106.4,69.8 105.8,65.9 					"/>
				</g>
			</g>
		</g>
		<g>
			<g>
				<path class="st5" d="M106.3,77.3c-0.2,0.4-0.5,0.9-0.8,1.2"/>
				<path class="st6" d="M104.1,79.9c-1.4,1-3,1.6-4.9,1.6c-4.5,0-8.1-3.6-8.1-8.1s3.6-8.1,8.1-8.1c1,0,2,0.2,2.9,0.5"/>
				<path class="st5" d="M103,66.4c0.4,0.2,0.9,0.5,1.3,0.8"/>
			</g>
		</g>
	</g>
</g>
</svg>
