<?xml version="1.0" encoding="utf-8"?>
<!-- Generator: Adobe Illustrator 19.1.0, SVG Export Plug-In . SVG Version: 6.00 Build 0)  -->
<!DOCTYPE svg PUBLIC "-//W3C//DTD SVG 1.1//EN" "http://www.w3.org/Graphics/SVG/1.1/DTD/svg11.dtd">
<svg version="1.1" id="Layer_1" xmlns="http://www.w3.org/2000/svg" xmlns:xlink="http://www.w3.org/1999/xlink" x="0px" y="0px"
	 viewBox="-245 352.3 121 89.7" style="enable-background:new -245 352.3 121 89.7;" xml:space="preserve">
<style type="text/css">
	.st0{fill:#7DC691;}
	.st1{opacity:0.3;fill:#FFFFFF;enable-background:new    ;}
	.st2{enable-background:new    ;}
	.st3{fill:#FFFFFF;}
</style>
<path class="st0" d="M-165.5,358.1c-0.2-3.3-8.8-5.8-19-5.8s-17.9,2.5-19,5.7l0,0l0.2,38.1c0,3.2,8.5,5.8,18.9,5.8
	c10.4,0,18.9-2.7,18.9-5.9l0,0V358.1L-165.5,358.1z"/>
<ellipse class="st1" cx="-184.3" cy="358" rx="16" ry="4.1"/>
<path class="st1" d="M-184.3,363.7V402c10.4,0,18.8-2.6,18.8-5.9l0,0v-36.4C-168.4,362-175.7,363.7-184.3,363.7z"/>
<path class="st0" d="M-186.2,378.1c-0.2-3.3-8.7-5.8-19-5.8c-10.2,0-17.9,2.5-19,5.7l0,0l0.2,38.1c0,3.2,8.5,5.8,18.9,5.8
	c10.4,0,18.9-2.7,18.9-5.9l0,0V378.1L-186.2,378.1z"/>
<ellipse class="st1" cx="-204.9" cy="378" rx="16" ry="4.1"/>
<path class="st1" d="M-204.9,383.7V422c10.4,0,18.8-2.6,18.8-5.9l0,0v-36.4C-189.1,382-196.4,383.7-204.9,383.7z"/>
<path class="st0" d="M-144.9,378.1c-0.2-3.3-8.7-5.8-19-5.8c-10.2,0-17.9,2.5-19,5.7l0,0l0.2,38.1c0,3.2,8.5,5.8,18.9,5.8
	c10.4,0,18.9-2.7,18.9-5.9l0,0V378.1L-144.9,378.1z"/>
<ellipse class="st1" cx="-163.7" cy="378" rx="16" ry="4.1"/>
<path class="st1" d="M-163.7,383.7V422c10.4,0,18.8-2.6,18.8-5.9l0,0v-36.4C-147.8,382-155.1,383.7-163.7,383.7z"/>
<path class="st0" d="M-206.8,398.1c-0.2-3.3-8.7-5.8-19-5.8c-10.2,0-17.9,2.6-18.9,5.7l0,0l0.2,38.1c0,3.2,8.5,5.8,18.9,5.8
	c10.4,0,18.9-2.7,18.9-5.9l0,0L-206.8,398.1L-206.8,398.1z"/>
<ellipse class="st1" cx="-225.6" cy="398" rx="16" ry="4.1"/>
<path class="st1" d="M-225.6,403.7V442c10.4,0,18.8-2.6,18.8-5.9l0,0v-36.4C-209.7,402-217,403.7-225.6,403.7z"/>
<path class="st0" d="M-165.5,398.1c-0.2-3.3-8.7-5.8-19-5.8c-10.2,0-17.9,2.5-19,5.7l0,0l0.2,38.1c0,3.2,8.5,5.8,18.9,5.8
	c10.4,0,18.9-2.7,18.9-5.9l0,0V398.1L-165.5,398.1z"/>
<ellipse class="st1" cx="-184.3" cy="398" rx="16" ry="4.1"/>
<path class="st1" d="M-184.3,403.7V442c10.4,0,18.8-2.6,18.8-5.9l0,0v-36.4C-168.4,402-175.7,403.7-184.3,403.7z"/>
<path class="st0" d="M-124.3,398.1c-0.2-3.3-8.7-5.8-19-5.8c-10.2,0-17.9,2.5-19,5.7l0,0l0.2,38.1c0,3.2,8.5,5.8,18.9,5.8
	c10.4,0,18.9-2.7,18.9-5.9l0,0V398.1L-124.3,398.1z"/>
<ellipse class="st1" cx="-143.1" cy="398" rx="16" ry="4.1"/>
<path class="st1" d="M-143.1,403.7V442c10.4,0,18.8-2.6,18.8-5.9l0,0v-36.4C-127.2,402-134.5,403.7-143.1,403.7z"/>
<g class="st2">
	<path class="st3" d="M-233.7,418h3.2c0.7,0,1.3,0.1,1.6,0.2c0.5,0.1,0.9,0.4,1.3,0.8s0.6,0.8,0.8,1.4s0.3,1.2,0.3,2
		c0,0.7-0.1,1.3-0.3,1.8c-0.2,0.6-0.5,1.1-0.9,1.5c-0.3,0.3-0.7,0.5-1.2,0.7c-0.4,0.1-0.9,0.2-1.5,0.2h-3.3V418z M-231.9,419.4v5.7
		h1.3c0.5,0,0.8,0,1-0.1c0.3-0.1,0.5-0.2,0.7-0.4s0.3-0.4,0.5-0.8s0.2-0.9,0.2-1.6s-0.1-1.2-0.2-1.5s-0.3-0.6-0.5-0.8
		s-0.5-0.3-0.8-0.4c-0.2-0.1-0.7-0.1-1.4-0.1H-231.9z"/>
	<path class="st3" d="M-225,418h3.4c0.7,0,1.2,0,1.5,0.1s0.6,0.2,0.9,0.4s0.5,0.4,0.7,0.7s0.3,0.6,0.3,1c0,0.4-0.1,0.8-0.3,1.1
		s-0.5,0.6-0.9,0.8c0.5,0.2,0.9,0.4,1.2,0.8s0.4,0.8,0.4,1.3c0,0.4-0.1,0.8-0.3,1.1s-0.4,0.7-0.7,0.9s-0.7,0.4-1.2,0.4
		c-0.3,0-1,0.1-2.1,0.1h-2.9V418z M-223.3,419.4v2h1.1c0.7,0,1.1,0,1.3,0c0.3,0,0.5-0.1,0.7-0.3s0.3-0.4,0.3-0.7
		c0-0.3-0.1-0.5-0.2-0.6s-0.4-0.3-0.7-0.3c-0.2,0-0.7,0-1.5,0H-223.3z M-223.3,422.8v2.3h1.6c0.6,0,1,0,1.2-0.1
		c0.3,0,0.5-0.2,0.6-0.3s0.2-0.4,0.2-0.7c0-0.3-0.1-0.5-0.2-0.7s-0.3-0.3-0.5-0.4s-0.7-0.1-1.5-0.1H-223.3z"/>
</g>
<g class="st2">
	<path class="st3" d="M-191.5,418h3.2c0.7,0,1.3,0.1,1.6,0.2c0.5,0.1,0.9,0.4,1.3,0.8s0.6,0.8,0.8,1.4s0.3,1.2,0.3,2
		c0,0.7-0.1,1.3-0.3,1.8c-0.2,0.6-0.5,1.1-0.9,1.5c-0.3,0.3-0.7,0.5-1.2,0.7c-0.4,0.1-0.9,0.2-1.5,0.2h-3.3V418z M-189.8,419.4v5.7
		h1.3c0.5,0,0.8,0,1-0.1c0.3-0.1,0.5-0.2,0.7-0.4s0.3-0.4,0.5-0.8s0.2-0.9,0.2-1.6s-0.1-1.2-0.2-1.5s-0.3-0.6-0.5-0.8
		s-0.5-0.3-0.8-0.4c-0.2-0.1-0.7-0.1-1.4-0.1H-189.8z"/>
	<path class="st3" d="M-182.9,418h3.4c0.7,0,1.2,0,1.5,0.1s0.6,0.2,0.9,0.4s0.5,0.4,0.7,0.7s0.3,0.6,0.3,1c0,0.4-0.1,0.8-0.3,1.1
		s-0.5,0.6-0.9,0.8c0.5,0.2,0.9,0.4,1.2,0.8s0.4,0.8,0.4,1.3c0,0.4-0.1,0.8-0.3,1.1s-0.4,0.7-0.7,0.9s-0.7,0.4-1.2,0.4
		c-0.3,0-1,0.1-2.1,0.1h-2.9V418z M-181.1,419.4v2h1.1c0.7,0,1.1,0,1.3,0c0.3,0,0.5-0.1,0.7-0.3s0.3-0.4,0.3-0.7
		c0-0.3-0.1-0.5-0.2-0.6s-0.4-0.3-0.7-0.3c-0.2,0-0.7,0-1.5,0H-181.1z M-181.1,422.8v2.3h1.6c0.6,0,1,0,1.2-0.1
		c0.3,0,0.5-0.2,0.6-0.3s0.2-0.4,0.2-0.7c0-0.3-0.1-0.5-0.2-0.7s-0.3-0.3-0.5-0.4s-0.7-0.1-1.5-0.1H-181.1z"/>
</g>
<g class="st2">
	<path class="st3" d="M-151,418h3.2c0.7,0,1.3,0.1,1.6,0.2c0.5,0.1,0.9,0.4,1.3,0.8s0.6,0.8,0.8,1.4s0.3,1.2,0.3,2
		c0,0.7-0.1,1.3-0.3,1.8c-0.2,0.6-0.5,1.1-0.9,1.5c-0.3,0.3-0.7,0.5-1.2,0.7c-0.4,0.1-0.9,0.2-1.5,0.2h-3.3V418z M-149.3,419.4v5.7
		h1.3c0.5,0,0.8,0,1-0.1c0.3-0.1,0.5-0.2,0.7-0.4s0.3-0.4,0.5-0.8s0.2-0.9,0.2-1.6s-0.1-1.2-0.2-1.5s-0.3-0.6-0.5-0.8
		s-0.5-0.3-0.8-0.4c-0.2-0.1-0.7-0.1-1.4-0.1H-149.3z"/>
	<path class="st3" d="M-142.4,418h3.4c0.7,0,1.2,0,1.5,0.1s0.6,0.2,0.9,0.4s0.5,0.4,0.7,0.7s0.3,0.6,0.3,1c0,0.4-0.1,0.8-0.3,1.1
		s-0.5,0.6-0.9,0.8c0.5,0.2,0.9,0.4,1.2,0.8s0.4,0.8,0.4,1.3c0,0.4-0.1,0.8-0.3,1.1s-0.4,0.7-0.7,0.9s-0.7,0.4-1.2,0.4
		c-0.3,0-1,0.1-2.1,0.1h-2.9V418z M-140.6,419.4v2h1.1c0.7,0,1.1,0,1.3,0c0.3,0,0.5-0.1,0.7-0.3s0.3-0.4,0.3-0.7
		c0-0.3-0.1-0.5-0.2-0.6s-0.4-0.3-0.7-0.3c-0.2,0-0.7,0-1.5,0H-140.6z M-140.6,422.8v2.3h1.6c0.6,0,1,0,1.2-0.1
		c0.3,0,0.5-0.2,0.6-0.3s0.2-0.4,0.2-0.7c0-0.3-0.1-0.5-0.2-0.7s-0.3-0.3-0.5-0.4s-0.7-0.1-1.5-0.1H-140.6z"/>
</g>
</svg>
