<?xml version="1.0" encoding="UTF-8"?>
<svg width="29px" height="29px" viewBox="0 0 29 29" version="1.1" xmlns="http://www.w3.org/2000/svg" xmlns:xlink="http://www.w3.org/1999/xlink">
    <!-- Generator: Sketch 47.1 (45422) - http://www.bohemiancoding.com/sketch -->
    <title>settings (18)</title>
    <desc>Created with Sketch.</desc>
    <defs></defs>
    <g id="Page-1" stroke="none" stroke-width="1" fill="none" fill-rule="evenodd">
        <g id="Artboard-3" transform="translate(-85.000000, -1005.000000)" fill-rule="nonzero" fill="#FFFFFF">
            <g id="Group-28" transform="translate(62.000000, 906.000000)">
                <g id="settings-(18)" transform="translate(23.000000, 99.000000)">
                    <path d="M27.7072319,11.6995295 C27.1618382,11.6178532 26.6019445,11.5395188 26.0431837,11.4666785 C25.975498,11.4578992 25.9205565,11.4119634 25.903451,11.3497716 C25.6455657,10.4138931 25.2713404,9.51080963 24.7912535,8.66561328 C24.7589683,8.60885904 24.7650288,8.53726487 24.8067164,8.48305947 C25.1503558,8.03644553 25.4909931,7.58496046 25.8192262,7.1412352 C26.2623833,6.54208716 26.1980394,5.6919064 25.6696947,5.16350291 L23.8364606,3.3302617 C23.3080592,2.80191485 22.4579384,2.73757073 21.8586794,3.18084286 C21.4159188,3.50834087 20.9644921,3.84897958 20.516917,4.19329996 C20.4628818,4.23498771 20.391118,4.24104829 20.3343639,4.20881958 C19.4892275,3.72873083 18.5861476,3.35450403 17.6502161,3.09656111 C17.5879679,3.07951218 17.5420323,3.02457046 17.5331964,2.95671459 C17.4601864,2.39710194 17.3819089,1.83726272 17.3004596,1.29282984 C17.1901801,0.555761069 16.5435694,0 15.7963082,0 L13.2036918,0 C12.4563739,0 11.8097633,0.555761069 11.6996537,1.2927732 C11.6181477,1.83731936 11.5398702,2.39710194 11.4668603,2.95682787 C11.4579677,3.0246271 11.4120887,3.07945554 11.3497839,3.09656111 C10.4138524,3.35461731 9.51071584,3.72878747 8.66574935,4.20881958 C8.60893869,4.24104829 8.53723152,4.23481778 8.48308297,4.19329996 C8.03556452,3.84897958 7.58408122,3.50834087 7.14126395,3.18078622 C6.54194832,2.73757073 5.69182752,2.80202814 5.16353938,3.33031834 L3.33030533,5.16355955 C2.80190391,5.69201968 2.73761668,6.54225708 3.18088707,7.14134848 C3.5096299,7.58575343 3.85026729,8.03712522 4.19334022,8.48305947 C4.23497116,8.53715158 4.24108836,8.6088024 4.20885978,8.66561328 C3.72865963,9.51097956 3.35449093,10.414063 3.09660566,11.3497716 C3.0795568,11.4119067 3.02461528,11.4578425 2.95687296,11.4667352 C2.39839531,11.5396321 1.83855828,11.6179099 1.29288143,11.6995861 C0.555758898,11.8097528 0,12.4564792 0,13.2036867 L0,15.7963699 C0,16.543634 0.555758898,17.1903038 1.29276815,17.3005272 C1.838445,17.3822034 2.39833867,17.4604812 2.95681632,17.5333215 C3.02461528,17.5422141 3.07944351,17.5880933 3.09654902,17.6503417 C3.35443429,18.5861069 3.72865963,19.4891904 4.20880314,20.3345 C4.24103172,20.3913109 4.23491452,20.4629617 4.19328358,20.5170538 C3.84936103,20.9640642 3.50872365,21.4154927 3.18083043,21.8588214 C2.73761668,22.4579695 2.80184727,23.3082069 3.33024869,23.8366104 L5.16348274,25.6698516 C5.6919408,26.1982551 6.54217489,26.2625992 7.14126395,25.8192704 C7.58402458,25.4917724 8.03545124,25.1511337 8.48302633,24.8068133 C8.53711824,24.7651256 8.60882541,24.7591216 8.66557942,24.7912937 C9.5106592,25.2713824 10.4136824,25.645496 11.3497272,25.9035522 C11.4119754,25.9206577 11.4579111,25.9755428 11.466747,26.0432854 C11.5397569,26.6028981 11.6180911,27.1627939 11.6995404,27.7071702 C11.8097633,28.4442389 12.4563739,29 13.2036918,29 L15.7963082,29 C16.5435694,29 17.1902367,28.4442389 17.3004029,27.7070569 C17.3819089,27.1620009 17.4601864,26.6021617 17.5331397,26.0431721 C17.5420323,25.9753729 17.5879113,25.9204878 17.6501595,25.9033256 C18.586091,25.6452694 19.4892275,25.2710992 20.3342507,24.7910671 C20.3910613,24.7589517 20.4627118,24.7650689 20.5168604,24.8065868 C20.9643788,25.1509071 21.4158621,25.4915458 21.8586228,25.8190439 C22.4577685,26.2622593 23.3079459,26.1980285 23.836404,25.669625 L25.669638,23.8363838 C26.1979828,23.3079803 26.2623267,22.4577996 25.8191129,21.8585949 C25.4908799,21.4150395 25.1501858,20.9635545 24.8066031,20.5168272 C24.7649722,20.4627351 24.758855,20.3910843 24.7911402,20.3342734 C25.2712837,19.4889638 25.6454524,18.5858804 25.9033377,17.6501718 C25.9205565,17.5878667 25.9753847,17.5419876 26.0431837,17.5330949 C26.6018313,17.4602546 27.1617249,17.3819202 27.7071752,17.3003006 C28.4442411,17.1901339 29,16.5434641 29,15.7962 L29,13.2035168 C29,12.4564226 28.4442411,11.8096962 27.7072319,11.6995295 Z M27.6458333,15.7964832 C27.6458333,15.8786126 27.586134,15.9494138 27.5068936,15.961365 C26.9698261,16.0417385 26.4184852,16.1187702 25.8681638,16.1906476 C25.2588228,16.2700582 24.760271,16.7017756 24.5979387,17.290615 C24.3697331,18.1185925 24.0386114,18.9177398 23.6138059,19.6656836 C23.3117408,20.1974855 23.358696,20.8558234 23.7334311,21.3429356 C24.0719162,21.7829226 24.4073992,22.2274974 24.7305346,22.6643125 C24.7782261,22.7287133 24.7702964,22.8211513 24.7122397,22.8792083 L22.878949,24.7124495 C22.8208356,24.7705631 22.7284545,24.7783229 22.6641107,24.7308012 C22.2281469,24.4082309 21.7834605,24.0727465 21.3426823,23.7336371 C20.8556286,23.3588439 20.19735,23.3118885 19.6656068,23.6138981 C18.9176659,24.0387053 18.1185217,24.369885 17.2904342,24.598148 C16.7017104,24.7604244 16.2699947,25.2589781 16.1904144,25.8683781 C16.1186506,26.4190415 16.0415059,26.9703846 15.9611894,27.5071143 C15.9493515,27.586355 15.8784373,27.6460546 15.7963082,27.6460546 L13.2036918,27.6460546 C13.1215627,27.6460546 13.0506485,27.586355 13.0388106,27.5070577 C12.958664,26.970951 12.8814627,26.4196079 12.8095856,25.8684348 C12.7301186,25.2590347 12.2982896,24.760481 11.7095658,24.5982047 C10.8814216,24.3699416 10.0822775,24.0387619 9.33439323,23.6138981 C9.10120332,23.4815282 8.8436579,23.4161645 8.58696208,23.4161645 C8.25821925,23.4161645 7.93077916,23.523216 7.65737433,23.7337504 C7.21653949,24.0728598 6.77190971,24.4083442 6.33594597,24.7309144 C6.27148881,24.7784362 6.17922105,24.7706764 6.1211643,24.7125628 L4.28787361,22.8793216 C4.22976021,22.8212079 4.22183051,22.7288832 4.26952201,22.6644824 C4.59243084,22.2279506 4.92785728,21.7833757 5.26662552,21.3430489 C5.64130399,20.8559367 5.6883158,20.1977121 5.38636404,19.6659668 C4.9613886,18.9177964 4.6303235,18.1187058 4.40211797,17.2907849 C4.23984227,16.7020588 3.74129051,16.2702848 3.13194948,16.1908175 C2.58185465,16.1190534 2.03045709,16.0418518 1.49310643,15.9615349 C1.41386604,15.9496403 1.35416671,15.8787825 1.35416671,15.7966531 L1.35416671,13.2039699 C1.35416671,13.1218406 1.41386604,13.0509827 1.49310643,13.0390881 C2.03045709,12.9587146 2.58179801,12.8815696 3.13183619,12.8098055 C3.74123387,12.7303949 4.23978562,12.2986209 4.40206133,11.7098381 C4.63015357,10.8819739 4.96133196,10.0828267 5.3863074,9.33465626 C5.6883158,8.80285431 5.64130399,8.14457311 5.26662552,7.65757417 C4.92876353,7.2182669 4.59328046,6.77374867 4.26952201,6.33614064 C4.22194379,6.27173987 4.22981686,6.17930183 4.28787361,6.12130149 L6.12105102,4.28800364 C6.17905113,4.22989002 6.27143217,4.22213021 6.33583269,4.26965197 C6.77179643,4.59216558 7.2164262,4.92764997 7.65726105,5.26681602 C8.14437138,5.64143931 8.80259336,5.68850794 9.33444987,5.38644172 C10.0822775,4.96163454 10.8814216,4.63045487 11.7095092,4.40219181 C12.2982896,4.23991547 12.7301186,3.74136177 12.8095856,3.13196171 C12.8815193,2.58078856 12.9586073,2.02944549 13.0388673,1.49316891 C13.0507052,1.41404149 13.1216194,1.35428528 13.2037484,1.35428528 L15.7963648,1.35428528 C15.8784939,1.35428528 15.9494081,1.41398485 15.961246,1.49322555 C16.0415059,2.0293322 16.118594,2.58061864 16.1905277,3.13196171 C16.2699947,3.74136177 16.7018236,4.23991547 17.2905474,4.40219181 C18.118635,4.63045487 18.9177225,4.96163454 19.6657201,5.38644172 C20.1974633,5.68833802 20.8557419,5.64143931 21.342739,5.26670273 C21.7835738,4.92759333 22.2282036,4.59210894 22.6641107,4.26959533 C22.7285112,4.22190364 22.8209489,4.22977674 22.8790056,4.287947 L24.7122397,6.12118821 C24.7703531,6.17930183 24.7781695,6.27168323 24.7305913,6.33602736 C24.4074559,6.7729557 24.0719728,7.21747393 23.7334878,7.65746088 C23.3588093,8.14462975 23.3117975,8.80291095 23.6138625,9.3347129 C24.0387247,10.0826567 24.3698464,10.8817474 24.5981086,11.7098381 C24.7603843,12.2985642 25.2590493,12.7302816 25.8682204,12.8096922 C26.4185418,12.881513 26.9699394,12.958658 27.5070635,13.0389748 C27.5863039,13.0508694 27.6460032,13.1217273 27.6460032,13.2038567 L27.6460032,15.7964832 L27.6458333,15.7964832 Z" id="Shape"></path>
                    <path d="M14.5,8.45833333 C11.1685863,8.45833333 8.45833333,11.1685863 8.45833333,14.5 C8.45833333,17.8314137 11.1685863,20.5416667 14.5,20.5416667 C17.8314137,20.5416667 20.5416667,17.8314137 20.5416667,14.5 C20.5416667,11.1685863 17.8314137,8.45833333 14.5,8.45833333 Z M14.5,19.2418825 C11.8852643,19.2418825 9.75811745,17.1146814 9.75811745,14.5 C9.75811745,11.8852643 11.885373,9.75811745 14.5,9.75811745 C17.1146814,9.75811745 19.2418825,11.8853186 19.2418825,14.5 C19.2418825,17.1146814 17.1147357,19.2418825 14.5,19.2418825 Z" id="Shape"></path>
                </g>
            </g>
        </g>
    </g>
</svg>