<?xml version="1.0" encoding="UTF-8"?>
<svg width="73px" height="51px" viewBox="0 0 73 51" version="1.1" xmlns="http://www.w3.org/2000/svg" xmlns:xlink="http://www.w3.org/1999/xlink">
    <!-- Generator: Sketch 47.1 (45422) - http://www.bohemiancoding.com/sketch -->
    <title>Group 26</title>
    <desc>Created with Sketch.</desc>
    <defs>
        <linearGradient x1="50%" y1="0%" x2="50%" y2="100%" id="linearGradient-1">
            <stop stop-color="#FE0000" offset="0%"></stop>
            <stop stop-color="#DC4848" offset="100%"></stop>
        </linearGradient>
    </defs>
    <g id="Page-1" stroke="none" stroke-width="1" fill="none" fill-rule="evenodd">
        <g id="Artboard-3" transform="translate(-203.000000, -98.000000)" fill-rule="nonzero">
            <g id="Group-28" transform="translate(60.000000, 66.000000)">
                <g id="Group-26" transform="translate(143.000000, 32.000000)">
                    <g id="cloud-computing-(15)">
                        <g id="Group">
                            <g id="Shape" fill="url(#linearGradient-1)">
                                <path d="M58.3659333,50.7548077 L46.43895,50.7548077 C46.3124167,50.7548077 46.1858833,50.7472885 46.0605667,50.7372628 L45.89875,50.7272372 L45.8221,50.7372628 C45.6967833,50.7472885 45.5714667,50.7548077 45.4437167,50.7548077 L15.6280833,50.7548077 C7.01043333,50.7548077 0,43.5325865 0,34.6561346 C0,28.6971442 3.47601667,22.7431667 8.53613333,19.9021506 C8.5264,19.7442468 8.51666667,19.5863429 8.51666667,19.4246795 C8.51666667,13.2050224 13.4295667,8.14583333 19.4666667,8.14583333 C21.23205,8.14583333 22.9512,8.57944231 24.5012333,9.4090641 C28.4651333,3.96388782 34.8635833,0.626602564 41.4688667,0.626602564 C52.3507333,0.626602564 61.3771833,9.64216026 62.0195833,20.9210064 C68.3438167,22.6328846 73,28.8024135 73,35.6812564 C73,43.9925128 66.4348667,50.7548077 58.3659333,50.7548077 Z M45.89875,48.2233333 L46.22725,48.2371186 C46.2978167,48.2421314 46.3683833,48.2483974 46.43895,48.2483974 L58.3659333,48.2483974 C65.0928833,48.2483974 70.5666667,42.6102276 70.5666667,35.6812564 C70.5666667,29.6458205 66.2864333,24.2645577 60.6119,23.1629904 L59.6337,22.9737564 L59.6203167,21.9498878 C59.4889167,11.5733494 51.3457667,3.13301282 41.4688667,3.13301282 C35.3770167,3.13301282 29.2511,6.52167949 25.8614667,11.7675962 L25.1874333,12.811516 L24.17395,12.1172404 C22.7772167,11.1585385 21.1481,10.6522436 19.4666667,10.6522436 C14.7703333,10.6522436 10.95,14.5885609 10.95,19.4246795 C10.95,19.5299487 10.9573,19.6339647 10.9646,19.7379808 L10.9792,19.9911282 L10.96825,20.2079327 C10.9597333,20.3658365 10.95,20.5237404 10.95,20.6778846 L10.95,21.4674038 L10.2589333,21.8070224 C5.72441667,24.0465 2.43333333,29.4503205 2.43333333,34.6561346 C2.43333333,42.1515545 8.35241667,48.2483974 15.6280833,48.2483974 L45.4449333,48.2483974 C45.5167167,48.2483974 45.5860667,48.2421314 45.6566333,48.2371186 L45.89875,48.2233333 Z"></path>
                            </g>
                            <g transform="translate(53.533333, 20.051282)" id="Shape">
                                <path d="M7.30365,1.87980769 C7.30365,1.87980769 4.2194,1.40985577 1.21666667,1.87980769" fill="#91BAE1"></path>
                                <path d="M1.21545,3.13301282 C0.62415,3.13301282 0.10585,2.68937821 0.0146,2.06778846 C-0.0863833333,1.38353846 0.369866667,0.744403846 1.03416667,0.640387821 C4.18168333,0.146625 7.34866667,0.617830128 7.4825,0.639134615 C8.1468,0.740644231 8.60548333,1.37727244 8.50693333,2.06152244 C8.4096,2.74702564 7.78545,3.21321795 7.12723333,3.11922756 C7.09803333,3.11546795 4.17681667,2.68687179 1.39916667,3.11797436 C1.33711667,3.128 1.27628333,3.13301282 1.21545,3.13301282 Z" fill="url(#linearGradient-1)"></path>
                            </g>
                            <g transform="translate(8.516667, 7.519231)" id="Shape" fill="url(#linearGradient-1)">
                                <path d="M20.6833333,13.1586538 C20.0117333,13.1586538 19.4666667,12.5984712 19.4666667,11.9054487 C19.4666667,7.06933013 15.6463333,3.13301282 10.95,3.13301282 C6.25366667,3.13301282 2.43333333,7.06933013 2.43333333,11.9054487 C2.43333333,12.5984712 1.88826667,13.1586538 1.21666667,13.1586538 C0.545066667,13.1586538 0,12.5984712 0,11.9054487 C0,5.68579167 4.9129,0.626602564 10.95,0.626602564 C16.9871,0.626602564 21.9,5.68579167 21.9,11.9054487 C21.9,12.5984712 21.3549333,13.1586538 20.6833333,13.1586538 Z"></path>
                            </g>
                        </g>
                        <g id="Group" transform="translate(30.003459, 22.503205)" fill="url(#linearGradient-1)">
                            <path d="M15.2952941,0.225035644 C14.7417107,-0.170977177 13.9849441,-0.0306182025 13.6016941,0.538336926 L6.79322741,10.6141062 L1.98861074,6.55121513 C1.47031074,6.11134013 0.702594073,6.19029205 0.27676074,6.72541064 C-0.15028926,7.26052923 -0.0748559267,8.05004846 0.445877407,8.48867026 L6.26884407,13.4125132 C6.48784407,13.5967344 6.76037741,13.6969908 7.04021074,13.6969908 C7.09496074,13.6969908 7.15092741,13.6932312 7.20689407,13.6857119 C7.54269407,13.6368369 7.84442741,13.447603 8.03909407,13.160619 L15.5994607,1.97075039 C15.9827107,1.40179526 15.8464441,0.621048464 15.2952941,0.225035644 Z" id="Shape"></path>
                        </g>
                    </g>
                </g>
            </g>
        </g>
    </g>
</svg>