<?xml version="1.0" encoding="UTF-8"?>
<svg width="37px" height="26px" viewBox="0 0 37 26" version="1.1" xmlns="http://www.w3.org/2000/svg" xmlns:xlink="http://www.w3.org/1999/xlink">
    <!-- Generator: Sketch 47.1 (45422) - http://www.bohemiancoding.com/sketch -->
    <title>Group 26</title>
    <desc>Created with Sketch.</desc>
    <defs></defs>
    <g id="Page-1" stroke="none" stroke-width="1" fill="none" fill-rule="evenodd">
        <g id="Artboard-3" transform="translate(-80.000000, -511.000000)" fill-rule="nonzero" fill="#FFFFFF">
            <g id="Group-28" transform="translate(62.000000, 486.000000)">
                <g id="Group-26" transform="translate(18.000000, 25.000000)">
                    <g id="cloud-computing-(15)">
                        <g id="Group">
                            <g id="Shape">
                                <path d="M29.5827333,25.875 L23.53755,25.875 C23.4734167,25.875 23.4092833,25.8711667 23.3457667,25.8660556 L23.26375,25.8609444 L23.2249,25.8660556 C23.1613833,25.8711667 23.0978667,25.875 23.0331167,25.875 L7.92108333,25.875 C3.55323333,25.875 0,22.1930833 0,17.6678333 C0,14.6299167 1.76181667,11.5945556 4.32653333,10.1461944 C4.3216,10.0656944 4.31666667,9.98519444 4.31666667,9.90277778 C4.31666667,6.73197222 6.80676667,4.15277778 9.86666667,4.15277778 C10.76145,4.15277778 11.6328,4.37383333 12.4184333,4.79677778 C14.4275333,2.02080556 17.6705833,0.319444444 21.0184667,0.319444444 C26.5339333,0.319444444 31.1089833,4.91561111 31.4345833,10.6656111 C34.6400167,11.5383333 37,14.6835833 37,18.1904444 C37,22.4275556 33.6724667,25.875 29.5827333,25.875 Z M23.26375,24.5844444 L23.43025,24.5914722 C23.4660167,24.5940278 23.5017833,24.5972222 23.53755,24.5972222 L29.5827333,24.5972222 C32.9922833,24.5972222 35.7666667,21.7228611 35.7666667,18.1904444 C35.7666667,15.1135556 33.5972333,12.3701667 30.7211,11.8085833 L30.2253,11.7121111 L30.2185167,11.1901389 C30.1519167,5.90013889 26.0245667,1.59722222 21.0184667,1.59722222 C17.9308167,1.59722222 14.8259,3.32477778 13.1078667,5.99916667 L12.7662333,6.53136111 L12.25255,6.17741667 C11.5446167,5.68866667 10.7189,5.43055556 9.86666667,5.43055556 C7.48633333,5.43055556 5.55,7.43730556 5.55,9.90277778 C5.55,9.95644444 5.5537,10.0094722 5.5574,10.0625 L5.5648,10.1915556 L5.55925,10.3020833 C5.55493333,10.3825833 5.55,10.4630833 5.55,10.5416667 L5.55,10.9441667 L5.19973333,11.1173056 C2.90141667,12.259 1.23333333,15.0138889 1.23333333,17.6678333 C1.23333333,21.4890278 4.23341667,24.5972222 7.92108333,24.5972222 L23.0337333,24.5972222 C23.0701167,24.5972222 23.1052667,24.5940278 23.1410333,24.5914722 L23.26375,24.5844444 Z"></path>
                            </g>
                            <g transform="translate(27.133333, 10.222222)" id="Shape">
                                <path d="M3.70185,0.958333333 C3.70185,0.958333333 2.1386,0.71875 0.616666667,0.958333333"></path>
                                <path d="M0.61605,1.59722222 C0.31635,1.59722222 0.05365,1.37105556 0.0074,1.05416667 C-0.0437833333,0.705333333 0.187466667,0.3795 0.524166667,0.326472222 C2.11948333,0.07475 3.72466667,0.314972222 3.7925,0.325833333 C4.1292,0.377583333 4.36168333,0.702138889 4.31173333,1.05097222 C4.2624,1.40044444 3.94605,1.63811111 3.61243333,1.59019444 C3.59763333,1.58827778 2.11701667,1.36977778 0.709166667,1.58955556 C0.677716667,1.59466667 0.646883333,1.59722222 0.61605,1.59722222 Z"></path>
                            </g>
                            <g transform="translate(4.316667, 3.833333)" id="Shape">
                                <path d="M10.4833333,6.70833333 C10.1429333,6.70833333 9.86666667,6.42275 9.86666667,6.06944444 C9.86666667,3.60397222 7.93033333,1.59722222 5.55,1.59722222 C3.16966667,1.59722222 1.23333333,3.60397222 1.23333333,6.06944444 C1.23333333,6.42275 0.957066667,6.70833333 0.616666667,6.70833333 C0.276266667,6.70833333 0,6.42275 0,6.06944444 C0,2.89863889 2.4901,0.319444444 5.55,0.319444444 C8.6099,0.319444444 11.1,2.89863889 11.1,6.06944444 C11.1,6.42275 10.8237333,6.70833333 10.4833333,6.70833333 Z"></path>
                            </g>
                        </g>
                        <g id="Group" transform="translate(15.207233, 11.472222)">
                            <path d="M7.75240932,0.114724054 C7.47182599,-0.0871648353 7.08825932,-0.0156092797 6.89400932,0.274446276 L3.44314266,5.41111294 L1.00792599,3.33983516 C0.745225991,3.11558516 0.356109325,3.15583516 0.140275991,3.42864072 C-0.0761740085,3.70144628 -0.0379406752,4.10394628 0.225992658,4.32755739 L3.17735932,6.83775183 C3.28835932,6.9316685 3.42649266,6.98277961 3.56832599,6.98277961 C3.59607599,6.98277961 3.62444266,6.98086294 3.65280932,6.97702961 C3.82300932,6.95211294 3.97594266,6.85564072 4.07460932,6.70933516 L7.90657599,1.00469628 C8.10082599,0.71464072 8.03175932,0.316612943 7.75240932,0.114724054 Z" id="Shape"></path>
                        </g>
                    </g>
                </g>
            </g>
        </g>
    </g>
</svg>