<?xml version="1.0" encoding="UTF-8"?>
<svg width="37px" height="36px" viewBox="0 0 37 36" version="1.1" xmlns="http://www.w3.org/2000/svg" xmlns:xlink="http://www.w3.org/1999/xlink">
    <!-- Generator: Sketch 47.1 (45422) - http://www.bohemiancoding.com/sketch -->
    <title>monitoring-system</title>
    <desc>Created with Sketch.</desc>
    <defs></defs>
    <g id="Page-1" stroke="none" stroke-width="1" fill="none" fill-rule="evenodd">
        <g id="Artboard-3" transform="translate(-81.000000, -1645.000000)" stroke="#FFFFFF" fill="#FFFFFF" fill-rule="nonzero">
            <g id="Group-28" transform="translate(62.000000, 1326.000000)">
                <g id="monitoring-system" transform="translate(20.000000, 320.000000)">
                    <path d="M17.7061066,21 C16.7653381,21 16,21.7606164 16,22.6955094 C16,23.6304025 16.7653381,24.3910189 17.7061066,24.3910189 C18.6468033,24.3910189 19.4121414,23.6304025 19.4121414,22.6955094 C19.4121414,21.7605451 18.6468033,21 17.7061066,21 Z M17.7061066,23.7851488 C17.1014959,23.7851488 16.6096311,23.2963899 16.6096311,22.6955094 C16.6096311,22.0946289 17.1014959,21.60587 17.7061066,21.60587 C18.3106455,21.60587 18.8025102,22.0946289 18.8025102,22.6955094 C18.8025102,23.2963187 18.3106455,23.7851488 17.7061066,23.7851488 Z" id="Shape" stroke-width="0.2"></path>
                    <path d="M32.5331455,0.0186037736 L2.40660861,0.0186037736 C1.0796209,0.0186037736 0,1.09156394 0,2.41043606 L0,23.9171824 C0,25.2360545 1.0796209,26.3090147 2.40660861,26.3090147 L12.9852869,26.3090147 L11.7314549,30.447392 L11.5910246,30.447392 C10.5686373,30.447392 9.73688525,31.2741551 9.73688525,32.2903061 L9.73688525,33.6898658 C9.73688525,33.8572285 9.8733709,33.9928008 10.0417008,33.9928008 L24.8983402,33.9928008 C25.0666701,33.9928008 25.2031557,33.8572285 25.2031557,33.6898658 L25.2031557,32.2903061 C25.2031557,31.2740839 24.3712602,30.447392 23.3487295,30.447392 L23.2083709,30.447392 L21.9545389,26.3090147 L32.5333607,26.3090147 C33.8603484,26.3090147 34.9399693,25.2360545 34.9399693,23.9171824 L34.9399693,2.41043606 C34.9397541,1.09156394 33.8601332,0.0186037736 32.5331455,0.0186037736 Z M0.609631148,12.1533962 L9.18455943,12.1533962 C9.30304303,12.1533962 9.41084016,12.0851111 9.46090164,11.9783354 L11.3717008,7.90054507 L13.4316086,15.9170608 C13.4630943,16.0396604 13.5678791,16.1297568 13.6944672,16.1432998 C13.8209119,16.1571279 13.9426947,16.0907673 13.9995697,15.9775765 L16.0076947,11.9859623 C16.0086988,11.9839665 17.1391701,9.53541999 19.3991086,4.64032285 L21.5146004,11.9343564 C21.5521824,12.0640839 21.6716701,12.1533962 21.8075102,12.1533962 L24.7835861,12.1533962 L26.2966906,17.2113417 C26.3338422,17.3355094 26.4463012,17.4224696 26.5765471,17.427673 C26.714252,17.4279581 26.8274283,17.3514046 26.873043,17.2344361 L28.8536988,12.1533962 L34.330123,12.1533962 L34.330123,18.9265954 L0.609631148,18.9265954 L0.609631148,12.1533962 Z M2.40660861,0.624473795 L32.5332172,0.624473795 C33.5240471,0.624473795 34.3301947,1.4256478 34.3301947,2.41050734 L34.330123,11.5475975 L28.644918,11.5475975 C28.5190471,11.5475975 28.4061578,11.6244361 28.3606865,11.7411195 L26.6268238,16.1890608 L25.3031352,11.7642138 C25.2646926,11.6356981 25.1458504,11.5475975 25.0109426,11.5475975 L22.036875,11.5475975 L19.7575,3.68825157 C19.7222131,3.56650734 19.614416,3.47947589 19.4873258,3.46999581 C19.361168,3.46051572 19.2406762,3.53065409 19.1875307,3.64576939 L15.4601025,11.719522 L13.8199078,14.9797442 L11.7510348,6.92851572 C11.7191906,6.80449057 11.6122541,6.71368134 11.4839447,6.70184906 C11.3559939,6.6892327 11.2337807,6.75951363 11.1793443,6.87562683 L8.99019467,11.5475262 L0.609631148,11.5475262 L0.609631148,2.41043606 C0.609631148,1.4256478 1.41577869,0.624473795 2.40660861,0.624473795 Z M24.5933811,32.2903774 L24.5933811,33.3870021 L10.346373,33.3870021 L10.346373,32.2903774 C10.346373,31.6083103 10.9046516,31.0533333 11.5908811,31.0533333 L23.3485861,31.0533333 C24.034959,31.0532621 24.5933811,31.608239 24.5933811,32.2903774 Z M22.5715574,30.447392 L12.3680533,30.447392 L13.6218852,26.3090147 L21.3176537,26.3090147 L22.5715574,30.447392 Z M32.5331455,25.7032159 L2.40660861,25.7032159 C1.41577869,25.7032159 0.609631148,24.9020419 0.609631148,23.9172537 L0.609631148,19.5324654 L34.330123,19.5324654 L34.330123,23.9172537 C34.330123,24.9019706 33.5239754,25.7032159 32.5331455,25.7032159 Z" id="Shape" stroke-width="0.7128"></path>
                </g>
            </g>
        </g>
    </g>
</svg>