<?xml version="1.0" encoding="UTF-8"?>
<svg width="30px" height="26px" viewBox="0 0 30 26" version="1.1" xmlns="http://www.w3.org/2000/svg" xmlns:xlink="http://www.w3.org/1999/xlink">
    <!-- Generator: Sketch 47.1 (45422) - http://www.bohemiancoding.com/sketch -->
    <title>Forma_1-2</title>
    <desc>Created with Sketch.</desc>
    <defs></defs>
    <g id="Page-1" stroke="none" stroke-width="1" fill="none" fill-rule="evenodd">
        <g id="Artboard-3" transform="translate(-84.000000, -1155.000000)" stroke="#FFFFFF" stroke-width="1.150848">
            <g id="Group-28" transform="translate(62.000000, 906.000000)">
                <path d="M50.4031642,250.035249 L23.2419553,261.724212 C23.0962143,261.785583 23.0017428,261.921175 23.0000238,262.071448 C22.9983048,262.221722 23.0896527,262.359197 23.233956,262.423507 L30.9203076,265.917631 C31.0615564,265.981652 31.2287945,265.967177 31.3552709,265.879984 L38.8291405,260.706328 L32.9621354,266.295985 C32.8786267,266.375133 32.8357546,266.484517 32.8446453,266.59575 L33.429096,273.641881 C33.442854,273.799017 33.5559784,273.932813 33.7155718,273.980705 C33.7577746,273.993338 33.8017759,273.999844 33.8460608,274 C33.9672666,274.000163 34.0827084,273.951317 34.1630341,273.865882 L38.24269,269.489403 L43.2862645,271.720936 C43.3965825,271.770296 43.5241845,271.772355 43.636235,271.726584 C43.7468911,271.682398 43.8317172,271.595172 43.8687154,271.487524 L50.9811155,250.505367 C51.0308733,250.356953 50.9802879,250.194954 50.8531263,250.095484 C50.728103,249.995258 50.5529175,249.971806 50.4031642,250.035249 Z" id="Forma_1-2"></path>
            </g>
        </g>
    </g>
</svg>