<?xml version="1.0" encoding="UTF-8"?>
<svg width="55px" height="50px" viewBox="0 0 55 50" version="1.1" xmlns="http://www.w3.org/2000/svg" xmlns:xlink="http://www.w3.org/1999/xlink">
    <!-- Generator: Sketch 47.1 (45422) - http://www.bohemiancoding.com/sketch -->
    <title>Forma_1-2</title>
    <desc>Created with Sketch.</desc>
    <defs>
        <linearGradient x1="50%" y1="0%" x2="50%" y2="100%" id="linearGradient-1">
            <stop stop-color="#FD0202" offset="0%"></stop>
            <stop stop-color="#DE4343" offset="100%"></stop>
        </linearGradient>
    </defs>
    <g id="Page-1" stroke="none" stroke-width="1" fill="none" fill-rule="evenodd">
        <g id="Artboard-3" transform="translate(-201.000000, -1368.000000)" stroke="url(#linearGradient-1)" stroke-width="2.16">
            <g id="Group-28" transform="translate(62.000000, 1326.000000)">
                <path d="M191.891591,44.06756 L141.449346,66.471406 C141.178684,66.589034 141.003237,66.8489183 141.000044,67.1369424 C140.996852,67.4249664 141.166498,67.6884602 141.43449,67.8117222 L155.709143,74.5087937 C155.971462,74.6314988 156.282047,74.6037553 156.516932,74.4366367 L170.396975,64.5204612 L159.501109,75.2339715 C159.346021,75.3856716 159.266401,75.5953247 159.282913,75.8085216 L160.368321,89.3136058 C160.393872,89.6147824 160.60396,89.8712245 160.900348,89.9630188 C160.978724,89.9872307 161.060441,89.9997006 161.142684,89.9999992 C161.367781,90.0003118 161.582173,89.9066906 161.731349,89.7429399 L169.307853,81.3546889 L178.674491,85.6317949 C178.879367,85.7264004 179.116343,85.7303467 179.324436,85.6426185 C179.529941,85.5579303 179.687475,85.390746 179.756186,85.1844215 L192.964929,44.9686205 C193.057336,44.6841594 192.963392,44.3736616 192.727235,44.1830112 C192.495048,43.9909113 192.169704,43.9459622 191.891591,44.06756 Z" id="Forma_1-2"></path>
            </g>
        </g>
    </g>
</svg>