<?xml version="1.0" encoding="UTF-8"?>
<svg width="67px" height="67px" viewBox="0 0 67 67" version="1.1" xmlns="http://www.w3.org/2000/svg" xmlns:xlink="http://www.w3.org/1999/xlink">
    <!-- Generator: Sketch 47.1 (45422) - http://www.bohemiancoding.com/sketch -->
    <title>strategy (1)</title>
    <desc>Created with Sketch.</desc>
    <defs></defs>
    <g id="Page-1" stroke="none" stroke-width="1" fill="none" fill-rule="evenodd">
        <g id="cloud" transform="translate(-988.000000, -1660.000000)" fill-rule="nonzero">
            <g id="Group" transform="translate(-3.000000, 1451.000000)">
                <g id="Group-29" transform="translate(262.000000, 145.000000)">
                    <g id="strategy-(1)" transform="translate(729.000000, 64.000000)">
                        <ellipse id="Oval" fill="#E1E6E9" cx="33.5162424" cy="33.5125519" rx="33.2614394" ry="33.3456456"></ellipse>
                        <path d="M56.1023485,24.8059443 C56.518053,21.9768481 54.1116364,19.5645089 51.2898535,19.9812658 C49.5070783,20.2993038 48.1506667,21.6589797 47.833601,23.4462684 C47.4178965,26.2753646 49.8243131,28.6877038 52.646096,28.2709468 C54.4398687,28.0626532 55.7961111,26.5934025 56.1023485,24.8059443 Z" id="SVGCleanerId_0" fill="#2EA2DB"></path>
                        <path d="M66.8759823,42.9536152 C67.4009848,40.3328127 65.2025051,38.1289367 62.5884899,38.6552684 C61.1227803,38.9733063 59.9743056,40.1246886 59.7665379,41.4843646 C59.2415354,44.1051671 61.4400152,46.309043 64.0540303,45.7827114 C65.5197399,45.4646734 66.6682146,44.3132911 66.8759823,42.9536152 Z" id="SVGCleanerId_1" fill="#FDBF5E"></path>
                        <path d="M8.30478535,24.8059443 C8.7204899,21.9768481 6.31407323,19.5645089 3.4922904,19.9812658 C1.72034343,20.2993038 0.36410101,21.6589797 0.0468661616,23.4462684 C-0.368838384,26.2753646 2.03757828,28.6877038 4.85936111,28.2709468 C6.63147727,28.0626532 7.99854798,26.5934025 8.30478535,24.8059443 Z" id="SVGCleanerId_2" fill="#F16051"></path>
                        <path d="M19.6034217,42.8440405 C20.0191263,40.0149443 17.6127096,37.6026051 14.7909268,38.019362 C13.0081515,38.3374 11.6517399,39.6970759 11.3346742,41.4843646 C10.9189697,44.3134608 13.3253864,46.7258 16.1471692,46.309043 C17.9299444,46.1007494 19.395654,44.6313291 19.6034217,42.8440405 Z" id="SVGCleanerId_3" fill="#4FBF9F"></path>
                        <polygon id="Shape" fill="#FFFFFF" points="41.8834596 1.21956962 41.8834596 6.77887342 36.4474924 6.77887342 36.4474924 1.21956962 31.1098258 1.21956962 31.1098258 6.77887342 25.6738586 6.77887342 25.6738586 1.21956962 20.2378914 1.21956962 20.2378914 12.3274911 47.3194268 12.3274911 47.3194268 1.21956962"></polygon>
                        <path d="M39.0615076,25.7490329 C39.4772121,23.9617443 41.1505202,17.7772203 45.0224773,12.3274911 L22.5346717,12.3274911 C26.4066288,17.7772203 28.0801061,23.9617443 28.4956414,25.7490329 L39.0615076,25.7490329 Z" id="SVGCleanerId_4" fill="#FFFFFF"></path>
                        <path d="M41.0522197,25.7490329 L26.4066288,25.7490329 C24.9409192,25.7490329 23.6831465,26.9004152 23.6831465,28.4794101 L23.6831465,28.4794101 C23.6831465,29.9488304 24.8316212,31.2097873 26.4066288,31.2097873 L41.0522197,31.2097873 C42.5179293,31.2097873 43.775702,30.0584051 43.775702,28.4794101 L43.775702,28.4794101 C43.7647045,26.9112709 42.6162298,25.7490329 41.0522197,25.7490329 Z" id="SVGCleanerId_5" fill="#FFFFFF"></path>
                        <path d="M41.0522197,38.0191924 L26.4066288,38.0191924 C24.9409192,38.0191924 23.6831465,39.1705747 23.6831465,40.7495696 L23.6831465,40.7495696 C23.6831465,42.2189899 24.8316212,43.4799468 26.4066288,43.4799468 L41.0522197,43.4799468 C42.5179293,43.4799468 43.775702,42.3285646 43.775702,40.7495696 L43.775702,40.7495696 C43.7647045,39.280319 42.6162298,38.0191924 41.0522197,38.0191924 Z" id="SVGCleanerId_6" fill="#FFFFFF"></path>
                        <rect id="SVGCleanerId_7" fill="#FFFFFF" x="16.0486995" y="53.5352051" width="35.4599192" height="12.2701595"></rect>
                        <polygon id="Shape" fill="#FFFFFF" points="39.0615076 43.4690911 28.4958106 43.4690911 20.2378914 53.5352051 47.3194268 53.5352051"></polygon>
                        <ellipse id="Oval" fill="#CEDBEA" cx="33.5162424" cy="33.5125519" rx="33.2614394" ry="33.3456456"></ellipse>
                        <polygon id="Shape" fill="#FFFFFF" points="41.8834596 1.21956962 41.8834596 6.77887342 36.4474924 6.77887342 36.4474924 1.21956962 31.1098258 1.21956962 31.1098258 6.77887342 25.6738586 6.77887342 25.6738586 1.21956962 20.2378914 1.21956962 20.2378914 12.3274911 47.3194268 12.3274911 47.3194268 1.21956962"></polygon>
                        <path d="M39.0615076,25.7490329 C39.4772121,23.9617443 41.1505202,17.7772203 45.0224773,12.3274911 L22.5346717,12.3274911 C26.4066288,17.7772203 28.0801061,23.9617443 28.4956414,25.7490329 L39.0615076,25.7490329 Z" id="SVGCleanerId_4_1_" fill="#FFFFFF"></path>
                        <path d="M41.0522197,25.7490329 L26.4066288,25.7490329 C24.9409192,25.7490329 23.6831465,26.9004152 23.6831465,28.4794101 L23.6831465,28.4794101 C23.6831465,29.9488304 24.8316212,31.2097873 26.4066288,31.2097873 L41.0522197,31.2097873 C42.5179293,31.2097873 43.775702,30.0584051 43.775702,28.4794101 L43.775702,28.4794101 C43.7647045,26.9112709 42.6162298,25.7490329 41.0522197,25.7490329 Z" id="SVGCleanerId_5_1_" fill="#FFFFFF"></path>
                        <path d="M41.0522197,38.0191924 L26.4066288,38.0191924 C24.9409192,38.0191924 23.6831465,39.1705747 23.6831465,40.7495696 L23.6831465,40.7495696 C23.6831465,42.2189899 24.8316212,43.4799468 26.4066288,43.4799468 L41.0522197,43.4799468 C42.5179293,43.4799468 43.775702,42.3285646 43.775702,40.7495696 L43.775702,40.7495696 C43.7647045,39.280319 42.6162298,38.0191924 41.0522197,38.0191924 Z" id="SVGCleanerId_6_1_" fill="#FFFFFF"></path>
                        <rect id="Rectangle-path" fill="#FFFFFF" x="25.980096" y="31.2097873" width="15.5861288" height="6.82043038"></rect>
                        <rect id="SVGCleanerId_7_1_" fill="#FFFFFF" x="16.0486995" y="53.5352051" width="35.4599192" height="12.2701595"></rect>
                        <polygon id="Shape" fill="#FFFFFF" points="39.0615076 43.4690911 28.4958106 43.4690911 20.2378914 53.5352051 47.3194268 53.5352051"></polygon>
                        <path d="M52.3398586,22.8212177 L44.3881768,26.8016962 C43.7647045,25.5407392 42.5069318,24.7073949 41.0412222,24.7073949 L40.41775,24.7073949 C41.1505202,22.2950557 42.6162298,17.6786709 45.5474798,13.3801544 L48.2709621,13.3801544 L48.2709621,0.166906329 L40.8442828,0.166906329 L40.8442828,5.72637975 L37.4973283,5.72637975 L37.4973283,0.166906329 L29.961351,0.166906329 L29.961351,5.72637975 L26.6143965,5.72637975 L26.6143965,0.166906329 L19.0784192,0.166906329 L19.0784192,13.3801544 L21.8019015,13.3801544 C24.7331515,17.5689266 26.2973308,22.1853114 26.9316313,24.7073949 L26.2973308,24.7073949 C24.2083182,24.7073949 22.5348409,26.3851089 22.5348409,28.4794101 C22.5348409,29.9488304 23.475548,31.3085063 24.7333207,31.834838 L24.7333207,36.4512228 L15.950399,40.8593139 L6.85024242,26.3851089 C6.43453788,26.9114405 5.90953535,27.3281975 5.28623232,27.5364911 C5.17693434,27.5364911 5.17693434,27.5364911 5.07846465,27.5364911 L15.1191591,43.5788354 L22.8630732,39.8068203 C22.7537753,40.1248582 22.7537753,40.4318709 22.7537753,40.8594835 C22.7537753,42.8552354 24.3177854,44.5329494 26.3084975,44.5329494 L19.7130581,52.5924557 L15.0096919,52.5924557 L15.0096919,66.9570861 L52.5476263,66.9570861 L52.5476263,52.482881 L47.8444293,52.482881 L41.2599874,44.4123494 C43.2506995,44.3027747 44.8147096,42.7346354 44.8147096,40.7388835 C44.8147096,39.2694633 43.8740025,37.9097873 42.6162298,37.3834557 L42.6162298,31.8239823 C43.7647045,31.2976506 44.6069419,30.2560127 44.8147096,28.9948861 L51.7163864,25.6394582 L61.3415455,40.8484582 C61.4508434,40.5304203 61.6587803,40.2234076 61.9650177,39.9053696 C62.2822525,39.5873316 62.5884899,39.4886127 62.9057247,39.280319 L52.3398586,22.8212177 Z M21.276899,11.2856835 L21.276899,2.26120759 L24.6238535,2.26120759 L24.6238535,7.82068101 L32.1598308,7.82068101 L32.1598308,2.26120759 L35.5067854,2.26120759 L35.5067854,7.82068101 L42.9334646,7.82068101 L42.9334646,2.26120759 L46.2804192,2.26120759 L46.2804192,11.2746582 L21.276899,11.2746582 L21.276899,11.2856835 Z M24.4160859,13.3801544 L43.0319343,13.3801544 C40.2099823,17.8869646 38.7444419,22.5033494 38.2194394,24.7073949 L29.22875,24.7073949 C28.7035783,22.5031797 27.2378687,17.8867949 24.4160859,13.3801544 Z M49.5179066,54.5878684 L50.4586136,54.5878684 L50.4586136,64.7637266 L17.0987045,64.7637266 L17.0987045,54.5878684 L18.0394116,54.5878684 L49.5179066,54.5878684 Z M45.120947,52.4935671 L22.4253737,52.4935671 L29.0098157,44.5217544 L38.6349747,44.5217544 L45.120947,52.4935671 Z M42.7146995,40.7495696 C42.7146995,41.6926582 41.9819293,42.4272835 41.0412222,42.4272835 L39.5755126,42.4272835 L27.9706389,42.4272835 L26.5049293,42.4272835 C25.5642222,42.4272835 24.831452,41.6926582 24.831452,40.7495696 C24.831452,39.806481 25.5642222,39.0718557 26.5049293,39.0718557 L41.1505202,39.0718557 C41.9929268,39.0718557 42.7146995,39.8066506 42.7146995,40.7495696 Z M27.030101,36.9775544 L27.030101,32.1528759 L40.5272172,32.1528759 L40.5272172,36.9775544 L27.030101,36.9775544 Z M41.0522197,30.0473797 L26.4066288,30.0473797 C25.4659217,30.0473797 24.7331515,29.3127544 24.7331515,28.3696658 C24.7331515,27.4265772 25.4659217,26.6919519 26.4066288,26.6919519 L27.5551035,26.6919519 L39.8927475,26.6919519 L41.0412222,26.6919519 C41.9819293,26.6919519 42.7146995,27.4265772 42.7146995,28.3696658 C42.7146995,29.3237797 41.9929268,30.0473797 41.0522197,30.0473797 Z" id="Shape" fill="#193651"></path>
                        <path d="M19.6034217,42.8440405 C20.0191263,40.0149443 17.6127096,37.6026051 14.7909268,38.019362 C13.0081515,38.3374 11.6517399,39.6970759 11.3346742,41.4843646 C10.9189697,44.3134608 13.3253864,46.7258 16.1471692,46.309043 C17.9299444,46.1007494 19.395654,44.6313291 19.6034217,42.8440405 Z" id="SVGCleanerId_3_1_" fill="#4FBF9F"></path>
                        <path d="M56.1023485,24.8059443 C56.518053,21.9768481 54.1116364,19.5645089 51.2898535,19.9812658 C49.5070783,20.2993038 48.1506667,21.6589797 47.833601,23.4462684 C47.4178965,26.2753646 49.8243131,28.6877038 52.646096,28.2709468 C54.4398687,28.0626532 55.7961111,26.5934025 56.1023485,24.8059443 Z" id="SVGCleanerId_0_1_" fill="#2EA2DB"></path>
                        <path d="M66.8759823,42.9536152 C67.4009848,40.3328127 65.2025051,38.1289367 62.5884899,38.6552684 C61.1227803,38.9733063 59.9743056,40.1246886 59.7665379,41.4843646 C59.2415354,44.1051671 61.4400152,46.309043 64.0540303,45.7827114 C65.5197399,45.4646734 66.6682146,44.3132911 66.8759823,42.9536152 Z" id="SVGCleanerId_1_1_" fill="#FDBF5E"></path>
                        <path d="M8.30478535,24.8059443 C8.7204899,21.9768481 6.31407323,19.5645089 3.4922904,19.9812658 C1.72034343,20.2993038 0.36410101,21.6589797 0.0468661616,23.4462684 C-0.368838384,26.2753646 2.03757828,28.6877038 4.85936111,28.2709468 C6.63147727,28.0626532 7.99854798,26.5934025 8.30478535,24.8059443 Z" id="SVGCleanerId_2_1_" fill="#F16051"></path>
                        <g id="Group" transform="translate(24.871212, 58.518987)" fill="#193651">
                            <rect id="Rectangle-path" x="15.6560051" y="0.158934177" width="2.08901263" height="2.09430127"></rect>
                            <rect id="Rectangle-path" x="7.81362121" y="0.158934177" width="2.08901263" height="2.09430127"></rect>
                            <rect id="Rectangle-path" x="0.0698762626" y="0.158934177" width="2.08901263" height="2.09430127"></rect>
                        </g>
                    </g>
                </g>
            </g>
        </g>
    </g>
</svg>