<?xml version="1.0" encoding="UTF-8" standalone="no"?>
<svg width="43px" height="43px" viewBox="0 0 43 43" version="1.1" xmlns="http://www.w3.org/2000/svg" xmlns:xlink="http://www.w3.org/1999/xlink">
    <!-- Generator: Sketch 41 (35326) - http://www.bohemiancoding.com/sketch -->
    <title>Group 4</title>
    <desc>Created with Sketch.</desc>
    <defs>
        <linearGradient x1="50%" y1="0%" x2="50%" y2="100%" id="linearGradient-1">
            <stop stop-color="#01C3C4" offset="0%"></stop>
            <stop stop-color="#06AAC6" offset="100%"></stop>
        </linearGradient>
        <circle id="path-2" cx="20.6131292" cy="20.6131292" r="20.5"></circle>
    </defs>
    <g id="Page-1" stroke="none" stroke-width="1" fill="none" fill-rule="evenodd">
        <g id="ExSitu_mobile" transform="translate(-25.000000, -1760.000000)">
            <g id="Group-5" transform="translate(0.000000, 1747.000000)">
                <g id="Group-4" transform="translate(26.000000, 14.000000)">
                    <mask id="mask-3" fill="white">
                        <use xlink:href="#path-2"></use>
                    </mask>
                    <use id="Combined-Shape" stroke="url(#linearGradient-1)" stroke-width="1.5" fill="#FFFFFF" xlink:href="#path-2"></use>
                    <g id="teamwork" mask="url(#mask-3)">
                        <g transform="translate(7.735849, 5.415094)" id="Layer_1">
                            <g>
                                <g id="Group" transform="translate(17.878142, 3.437432)" fill="#2C9984">
                                    <path d="M2.9224437,22.044994 C2.9224437,22.044994 3.05468097,22.5436307 2.86954879,22.6748509 C2.86954879,22.6748509 2.68441661,22.727339 2.68441661,22.9897794 C2.68441661,22.9897794 2.68441661,23.3047079 2.2877048,23.2784639 C2.2877048,23.2784639 1.20335917,23.4096841 1.04467444,23.1472437 C1.04467444,23.1472437 0.938884627,23.0160235 0.991779536,22.7798271 L2.23480989,22.3074344 L2.9224437,22.044994 Z" id="Shape"></path>
                                    <path d="M2.76375897,21.3101608 C2.76375897,21.3101608 3.23981315,21.7038214 2.89599625,22.2287022 C2.89599625,22.2287022 2.65796916,22.5698748 2.6315217,22.727339 C2.6315217,22.727339 2.65796916,23.2522198 2.10257262,23.1209996 C2.10257262,23.1209996 1.54717608,22.727339 1.15046426,23.0422675 C1.15046426,23.0422675 0.859542265,23.0160235 0.991779536,22.6223629 C0.991779536,22.6223629 1.30914899,22.2287022 1.49428117,21.8612857 C1.49428117,21.8612857 1.60007098,21.7825536 1.54717608,21.4938691 L2.76375897,21.3101608 Z" id="Shape"></path>
                                    <path d="M4.03323678,22.044994 C4.03323678,22.044994 3.90099951,22.5436307 4.08613169,22.6748509 C4.08613169,22.6748509 4.27126387,22.727339 4.27126387,22.9897794 C4.27126387,22.9897794 4.27126387,23.3047079 4.66797568,23.2784639 C4.66797568,23.2784639 5.75232131,23.4096841 5.91100603,23.1472437 C5.91100603,23.1472437 6.01679585,23.0160235 5.96390094,22.7798271 L4.72087059,22.3074344 L4.03323678,22.044994 Z" id="Shape"></path>
                                    <path d="M4.19192151,21.3101608 C4.19192151,21.3101608 3.71586733,21.7038214 4.05968423,22.2287022 C4.05968423,22.2287022 4.29771132,22.5698748 4.32415878,22.727339 C4.32415878,22.727339 4.29771132,23.2522198 4.85310786,23.1209996 C4.85310786,23.1209996 5.4085044,22.727339 5.80521622,23.0422675 C5.80521622,23.0422675 6.09613821,23.0160235 5.96390094,22.6223629 C5.96390094,22.6223629 5.64653149,22.2287022 5.46139931,21.8612857 C5.46139931,21.8612857 5.35560949,21.7825536 5.4085044,21.4938691 L4.19192151,21.3101608 Z" id="Shape"></path>
                                    <polygon id="Shape" points="2.3405997 3.88411798 3.42494533 8.08316445 4.50929096 3.88411798"></polygon>
                                    <polygon id="Shape" points="3.74231478 4.33026667 3.87455205 3.88411798 3.08112843 3.88411798 3.2133657 4.33026667"></polygon>
                                    <polygon id="Shape" points="3.74231478 4.33026667 3.47784024 4.33026667 3.2133657 4.33026667 2.68441661 7.53203961 3.47784024 8.08316445 4.27126387 7.53203961"></polygon>
                                    <path d="M1.44138626,9.76278304 C1.25625408,10.8650327 1.01822699,12.8070917 1.38849135,15.0903233 C1.38849135,15.0903233 1.73230826,20.3128873 1.4149388,21.4676251 C1.4149388,21.4676251 2.04967771,22.5698748 3.13402333,21.4676251 C3.13402333,21.4676251 3.16047079,12.8595798 3.45139279,12.5184073 L3.45139279,9.76278304 L1.44138626,9.76278304 L1.44138626,9.76278304 Z" id="Shape"></path>
                                    <path d="M3.47784024,9.76278304 L3.47784024,12.4921632 C3.76876224,12.8595798 3.79520969,21.441381 3.79520969,21.441381 C4.90600277,22.5436307 5.51429422,21.441381 5.51429422,21.441381 C5.19692477,20.2866433 5.54074167,15.0640792 5.54074167,15.0640792 C5.91100603,12.7808477 5.6994264,10.8387887 5.48784677,9.736539 L3.47784024,9.736539 L3.47784024,9.76278304 Z" id="Shape"></path>
                                    <polygon id="Shape" points="4.32415878 3.30674909 2.60507425 3.30674909 2.36704716 3.88411798 4.4828435 3.88411798"></polygon>
                                    <path d="M2.44638952,3.67416566 L0.515725359,4.38275475 C0.515725359,4.38275475 1.67941335,7.89945617 1.17691172,10.2614198 C1.17691172,10.2614198 0.965332082,11.4686457 1.12401681,12.3871871 C1.12401681,12.3871871 2.47283698,13.3582166 2.97533861,12.4659192 C2.97533861,12.4659192 3.66297242,10.3401519 3.53073515,8.26687274 L2.9224437,6.66598627 L2.44638952,3.67416566 Z" id="Shape"></path>
                                    <path d="M2.60507425,3.30674909 L1.67941335,4.30402263 L2.02323025,4.46148687 L1.75875571,4.72392728 C1.75875571,4.72392728 2.6315217,7.37457536 3.53073515,8.29311678 C3.53073515,8.26687274 2.55217934,4.17280243 2.60507425,3.30674909 Z" id="Shape"></path>
                                    <path d="M4.50929096,3.67416566 L6.43995512,4.38275475 C6.43995512,4.38275475 5.27626713,7.89945617 5.77876876,10.2614198 C5.77876876,10.2614198 5.9903484,11.4686457 5.83166367,12.3871871 C5.83166367,12.3871871 4.4828435,13.3582166 3.98034187,12.4659192 C3.98034187,12.4659192 3.29270806,10.3401519 3.42494533,8.26687274 L4.03323678,6.66598627 L4.50929096,3.67416566 Z" id="Shape"></path>
                                    <path d="M4.32415878,3.30674909 L5.24981968,4.30402263 L4.90600277,4.46148687 L5.17047731,4.72392728 C5.17047731,4.72392728 4.29771132,7.37457536 3.39849788,8.29311678 C3.39849788,8.26687274 4.37705369,4.17280243 4.32415878,3.30674909 Z" id="Shape"></path>
                                    <ellipse id="Oval" cx="3.74231478" cy="8.45058102" rx="0.18513218" ry="0.183708283"></ellipse>
                                    <polygon id="Shape" points="4.64152823 6.90218263 4.95889768 6.37730183 5.46139931 6.74471839"></polygon>
                                    <rect id="Rectangle-path" transform="translate(4.974760, 6.490100) rotate(168.216987) translate(-4.974760, -6.490100) " x="4.43260259" y="5.99010045" width="1.08431464" height="0.262432905"></rect>
                                    <path d="M6.54574494,12.0722586 C6.57219239,12.2822109 6.57219239,12.4396752 6.57219239,12.4396752 C6.6250873,12.4921632 6.75732457,12.6758715 6.75732457,12.6758715 C7.02179911,12.8858239 6.88956184,13.0432881 6.88956184,13.0432881 L6.9160093,13.2007523 C6.96890421,13.2794845 6.94245675,13.4107047 6.94245675,13.4107047 C6.81021948,13.6731451 6.70442966,13.4631927 6.70442966,13.4631927 C6.54574494,13.646901 6.46640257,13.4107047 6.46640257,13.4107047 C6.28127039,13.4894368 6.22837549,13.3057285 6.22837549,13.3057285 C6.22837549,13.3057285 5.91100603,13.3582166 5.96390094,12.6233834 C5.9903484,12.4396752 5.9903484,12.2559669 5.96390094,12.0722586 L6.54574494,12.0722586 L6.54574494,12.0722586 Z" id="Shape"></path>
                                    <path d="M6.25482294,12.8070917 C6.25482294,12.7808477 6.28127039,12.6758715 6.28127039,12.6758715 C6.22837549,12.8333358 6.41350767,12.9120679 6.41350767,12.9120679 C6.38706021,12.9120679 6.38706021,12.8070917 6.38706021,12.8070917 C6.41350767,12.9383119 6.6250873,13.0170441 6.6250873,13.0170441 C6.65153475,12.9383119 6.73087712,12.8858239 6.73087712,12.8858239 C6.67798221,12.964556 6.67798221,13.0170441 6.67798221,13.0170441 C6.70442966,13.0170441 6.75732457,13.0695321 6.75732457,13.0695321 C6.70442966,13.0170441 6.67798221,13.0695321 6.67798221,13.0695321 C6.78377203,13.0957762 6.75732457,13.2007523 6.75732457,13.2007523 C6.75732457,13.0957762 6.70442966,13.1220202 6.70442966,13.1220202 C6.75732457,13.1745083 6.73087712,13.2269964 6.73087712,13.2269964 C6.73087712,13.1482643 6.6250873,13.1482643 6.6250873,13.1482643 C6.67798221,13.0695321 6.6250873,13.0957762 6.6250873,13.0957762 C6.54574494,12.964556 6.49285003,13.0957762 6.49285003,13.1482643 L6.46640257,13.1482643 C6.51929748,13.0170441 6.46640257,12.9908 6.46640257,12.9908 C6.38706021,12.9120679 6.36061276,13.0432881 6.36061276,13.0432881 C6.36061276,13.2532404 6.22837549,13.3319725 6.22837549,13.3319725 L6.20192803,13.3319725 C6.28127039,13.3057285 6.3341653,13.1745083 6.3341653,13.1745083 C6.41350767,12.964556 6.30771785,12.964556 6.30771785,12.964556 C6.14903312,12.9383119 6.17548058,13.0957762 6.17548058,13.0957762 C6.12258567,13.1220202 6.01679585,13.0957762 6.01679585,13.0957762 C6.04324331,13.0957762 6.09613821,13.0695321 6.09613821,13.0695321 C6.14903312,13.0170441 6.06969076,12.9120679 6.06969076,12.9120679 C6.12258567,12.964556 6.30771785,12.964556 6.30771785,12.964556 C6.36061276,12.9120679 6.28127039,12.8333358 6.25482294,12.8070917 L6.22837549,12.8595798 C6.22837549,12.8333358 6.17548058,12.7021156 6.17548058,12.7021156 C6.20192803,12.7021156 6.25482294,12.7808477 6.25482294,12.8070917 Z" id="Shape"></path>
                                    <path d="M6.88956184,13.0957762 C6.88956184,13.0957762 6.86311439,13.1220202 6.81021948,13.2532404 C6.81021948,13.2532404 6.78377203,13.2794845 6.78377203,13.3057285 C6.75732457,13.3319725 6.73087712,13.3582166 6.67798221,13.3582166 C6.6250873,13.3319725 6.54574494,13.3319725 6.49285003,13.3319725 L6.38706021,13.3319725 C6.36061276,13.3319725 6.3341653,13.3057285 6.3341653,13.2794845 C6.36061276,13.2269964 6.38706021,13.1745083 6.46640257,13.1482643 C6.46640257,13.1482643 6.57219239,13.1220202 6.59863985,13.1482643 C6.59863985,13.1482643 6.43995512,13.0957762 6.36061276,13.2007523 C6.36061276,13.2007523 6.25482294,13.3057285 6.3341653,13.3319725 C6.3341653,13.3319725 6.57219239,13.3319725 6.59863985,13.3582166 C6.59863985,13.3582166 6.70442966,13.4107047 6.75732457,13.3319725 C6.75732457,13.3319725 6.78377203,13.2269964 6.88956184,13.2532404 C6.88956184,13.2532404 6.86311439,13.2269964 6.81021948,13.2269964 C6.83666693,13.2269964 6.86311439,13.1482643 6.88956184,13.0957762 Z" id="Shape"></path>
                                    <path d="M6.69712101,13.3319725 C6.69712101,13.3966034 6.74270726,13.5581805 6.74270726,13.5581805 C6.69712101,13.5258651 6.69712101,13.4935497 6.69712101,13.4935497 C6.69712101,13.5258651 6.65153475,13.5258651 6.65153475,13.5258651 C6.69712101,13.4289188 6.65153475,13.3319725 6.65153475,13.3319725 L6.69712101,13.3319725 Z" id="Shape"></path>
                                    <path d="M6.48554137,13.4673056 C6.43995512,13.4673056 6.43995512,13.4673056 6.48554137,13.4673056 C6.43995512,13.4349902 6.43995512,13.4349902 6.43995512,13.4673056 C6.48554137,13.4026748 6.48554137,13.3057285 6.48554137,13.3057285 L6.53112763,13.3057285 C6.53112763,13.4026748 6.48554137,13.4673056 6.48554137,13.4673056 Z" id="Shape"></path>
                                    <rect id="Rectangle-path" x="5.85811113" y="11.704842" width="0.793423629" height="0.551124849"></rect>
                                    <path d="M0.436382996,12.0722586 C0.409935542,12.2822109 0.409935542,12.4396752 0.409935542,12.4396752 C0.330593179,12.4659192 0.198355907,12.6758715 0.198355907,12.6758715 C-0.0661186357,12.8858239 0.0661186357,13.0432881 0.0661186357,13.0432881 L0.0396711814,13.2007523 C-0.0132237271,13.2794845 0.0132237271,13.4107047 0.0132237271,13.4107047 C0.145460999,13.6731451 0.251250816,13.4631927 0.251250816,13.4631927 C0.409935542,13.646901 0.489277904,13.4107047 0.489277904,13.4107047 C0.674410084,13.4894368 0.727304993,13.3057285 0.727304993,13.3057285 C0.727304993,13.3057285 1.04467444,13.3582166 0.991779536,12.6233834 C0.965332082,12.4396752 0.965332082,12.2559669 0.991779536,12.0722586 L0.436382996,12.0722586 L0.436382996,12.0722586 Z" id="Shape"></path>
                                    <path d="M0.700857539,12.8070917 C0.700857539,12.7808477 0.674410084,12.6758715 0.674410084,12.6758715 C0.727304993,12.8333358 0.542172813,12.9120679 0.542172813,12.9120679 C0.568620267,12.9120679 0.568620267,12.8070917 0.568620267,12.8070917 C0.542172813,12.9383119 0.330593179,13.0170441 0.330593179,13.0170441 C0.304145724,12.9383119 0.224803361,12.8858239 0.224803361,12.8858239 C0.27769827,12.964556 0.27769827,13.0170441 0.27769827,13.0170441 C0.251250816,13.0170441 0.198355907,13.0695321 0.198355907,13.0695321 C0.251250816,13.0170441 0.27769827,13.0695321 0.27769827,13.0695321 C0.171908453,13.0957762 0.198355907,13.2007523 0.198355907,13.2007523 C0.198355907,13.0957762 0.251250816,13.1220202 0.251250816,13.1220202 C0.198355907,13.1745083 0.224803361,13.2269964 0.224803361,13.2269964 C0.224803361,13.1482643 0.330593179,13.1482643 0.330593179,13.1482643 C0.27769827,13.0695321 0.330593179,13.0957762 0.330593179,13.0957762 C0.409935542,12.964556 0.46283045,13.0957762 0.46283045,13.1482643 L0.489277904,13.1482643 C0.436382996,13.0170441 0.489277904,12.9908 0.489277904,12.9908 C0.568620267,12.9120679 0.595067722,13.0432881 0.595067722,13.0432881 C0.595067722,13.2532404 0.727304993,13.3319725 0.727304993,13.3319725 L0.753752447,13.3319725 C0.674410084,13.3057285 0.621515176,13.1745083 0.621515176,13.1745083 C0.542172813,12.964556 0.64796263,12.964556 0.64796263,12.964556 C0.806647356,12.9383119 0.780199902,13.0957762 0.780199902,13.0957762 C0.83309481,13.1220202 0.938884627,13.0957762 0.938884627,13.0957762 C0.912437173,13.0957762 0.859542265,13.0695321 0.859542265,13.0695321 C0.806647356,13.0170441 0.885989719,12.9120679 0.885989719,12.9120679 C0.83309481,12.964556 0.64796263,12.964556 0.64796263,12.964556 C0.621515176,12.9120679 0.700857539,12.8333358 0.700857539,12.8070917 L0.727304993,12.8595798 C0.727304993,12.8333358 0.780199902,12.7021156 0.780199902,12.7021156 C0.753752447,12.7021156 0.727304993,12.7808477 0.700857539,12.8070917 Z" id="Shape"></path>
                                    <path d="M0.0661186357,13.0957762 C0.0661186357,13.0957762 0.09256609,13.1220202 0.145460999,13.2532404 C0.145460999,13.2532404 0.145460999,13.2794845 0.171908453,13.3057285 C0.198355907,13.3319725 0.224803361,13.3582166 0.27769827,13.3582166 C0.330593179,13.3319725 0.409935542,13.3319725 0.46283045,13.3319725 L0.568620267,13.3319725 C0.595067722,13.3319725 0.621515176,13.3057285 0.621515176,13.2794845 C0.595067722,13.2269964 0.568620267,13.1745083 0.489277904,13.1482643 C0.489277904,13.1482643 0.383488087,13.1220202 0.357040633,13.1482643 C0.357040633,13.1482643 0.515725359,13.0957762 0.595067722,13.2007523 C0.595067722,13.2007523 0.700857539,13.3057285 0.621515176,13.3319725 C0.621515176,13.3319725 0.383488087,13.3319725 0.357040633,13.3582166 C0.357040633,13.3582166 0.251250816,13.4107047 0.198355907,13.3319725 C0.198355907,13.3319725 0.171908453,13.2269964 0.0661186357,13.2532404 C0.0661186357,13.2532404 0.09256609,13.2269964 0.145460999,13.2269964 C0.119013544,13.2269964 0.119013544,13.1482643 0.0661186357,13.0957762 Z" id="Shape"></path>
                                    <path d="M0.296837069,13.3319725 C0.296837069,13.3966034 0.251250816,13.5581805 0.251250816,13.5581805 C0.296837069,13.5258651 0.296837069,13.4935497 0.296837069,13.4935497 C0.296837069,13.5258651 0.342423323,13.5258651 0.342423323,13.5258651 C0.296837069,13.4289188 0.342423323,13.3319725 0.342423323,13.3319725 L0.296837069,13.3319725 Z" id="Shape"></path>
                                    <path d="M0.534864158,13.4673056 L0.534864158,13.4673056 C0.580450411,13.4349902 0.580450411,13.4349902 0.580450411,13.4673056 C0.534864158,13.4026748 0.534864158,13.3057285 0.534864158,13.3057285 L0.489277904,13.3057285 C0.489277904,13.4026748 0.534864158,13.4673056 0.534864158,13.4673056 Z" id="Shape"></path>
                                    <rect id="Rectangle-path" x="0.330593179" y="11.704842" width="0.793423629" height="0.551124849"></rect>
                                    <path d="M6.81021948,12.0197705 L5.6994264,12.0197705 C5.6994264,12.0197705 5.67297895,9.15917011 5.83166367,8.6342893 C5.83166367,8.6342893 5.88455858,8.08316445 5.75232131,7.63701577 C5.93745349,5.93115314 6.43995512,4.40899879 6.46640257,4.38275475 C6.43995512,4.35651071 6.99535166,5.7736889 6.81021948,12.0197705 Z" id="Shape"></path>
                                    <path d="M0.119013544,12.0197705 L1.25625408,12.0197705 C1.25625408,12.0197705 1.28270153,9.15917011 1.12401681,8.6342893 C1.12401681,8.6342893 1.0711219,8.08316445 1.20335917,7.63701577 C1.01822699,5.93115314 0.515725359,4.40899879 0.489277904,4.38275475 C0.515725359,4.35651071 -0.0396711814,5.7736889 0.119013544,12.0197705 Z" id="Shape"></path>
                                    <ellipse id="Oval" cx="3.47784024" cy="3.09679677" rx="0.74052872" ry="0.787321213"></ellipse>
                                    <path d="M4.19192151,2.96557657 C4.19192151,2.96557657 4.32415878,3.64792162 3.47784024,3.91036202 C3.47784024,3.91036202 3.95389442,4.01533819 4.16547405,4.59270708 C4.16547405,4.59270708 4.74731805,3.67416566 4.19192151,2.96557657 Z" id="Shape"></path>
                                    <path d="M2.76375897,2.96557657 C2.76375897,2.96557657 2.6315217,3.64792162 3.47784024,3.91036202 C3.47784024,3.91036202 3.00178606,4.01533819 2.79020643,4.59270708 C2.79020643,4.59270708 2.20836243,3.67416566 2.76375897,2.96557657 Z" id="Shape"></path>
                                    <path d="M4.50929096,2.36196364 C4.40350114,2.65064808 4.37705369,2.83435637 4.35060623,2.88684445 L4.35060623,2.88684445 C4.11257914,3.20177293 3.82165715,3.41172526 3.47784024,3.41172526 C3.16047079,3.41172526 2.89599625,3.22801697 2.65796916,2.93933253 C2.18191498,2.3357196 2.49928443,1.25971394 2.49928443,1.25971394 C2.73731152,1.54839839 3.53073515,1.54839839 3.53073515,1.54839839 C3.2133657,1.4959103 3.13402333,1.25971394 3.13402333,1.2334699 C3.18691824,1.39093414 3.95389442,1.4959103 3.95389442,1.4959103 C4.7737655,1.60088647 4.50929096,2.36196364 4.50929096,2.36196364 Z" id="Shape"></path>
                                    <path d="M3.02823352,0.104976162 C3.02823352,0.104976162 4.11257914,-0.314928485 4.64152823,0.656101011 C5.22337222,1.67961859 4.4828435,2.80811233 4.35060623,2.88684445 C4.35060623,2.88684445 4.37705369,2.70313616 4.50929096,2.36196364 C4.50929096,2.36196364 4.7737655,1.60088647 3.98034187,1.46966626 C3.98034187,1.46966626 3.2133657,1.3646901 3.16047079,1.20722586 C3.16047079,1.20722586 3.2133657,1.46966626 3.5571826,1.54839839 C3.5571826,1.54839839 2.76375897,1.52215435 2.52573189,1.25971394 C2.52573189,1.25971394 2.18191498,2.36196364 2.68441661,2.93933253 C2.68441661,2.93933253 1.83809807,2.25698748 1.94388789,1.2334699 C1.94388789,1.2334699 1.89099298,-0.183708283 3.02823352,0.104976162 Z" id="Shape"></path>
                                </g>
                                <g id="Group" transform="translate(13.778787, 2.912551)" fill="#E6E9EE">
                                    <path d="M3.02823352,22.9897794 C3.02823352,22.9897794 3.16047079,23.4884162 2.97533861,23.6458804 C2.97533861,23.6458804 2.76375897,23.6983685 2.79020643,23.987053 C2.79020643,23.987053 2.79020643,24.3019814 2.36704716,24.3019814 C2.36704716,24.3019814 1.22980662,24.4332016 1.0711219,24.1707612 C1.0711219,24.1707612 0.938884627,24.013297 1.01822699,23.8033447 L2.31415225,23.3309519 L3.02823352,22.9897794 Z" id="Shape"></path>
                                    <path d="M2.86954879,22.2287022 C2.86954879,22.2287022 3.34560297,22.6486069 3.00178606,23.1734877 C3.00178606,23.1734877 2.73731152,23.5146602 2.73731152,23.6983685 C2.73731152,23.6983685 2.76375897,24.2494934 2.18191498,24.1182732 C2.18191498,24.1182732 1.60007098,23.6983685 1.17691172,24.039541 C1.17691172,24.039541 0.885989719,24.013297 1.01822699,23.5933924 C1.01822699,23.5933924 1.3620439,23.1734877 1.54717608,22.7798271 C1.54717608,22.7798271 1.65296589,22.701095 1.60007098,22.4124105 L2.86954879,22.2287022 Z" id="Shape"></path>
                                    <path d="M4.19192151,22.9897794 C4.19192151,22.9897794 4.05968423,23.4884162 4.24481641,23.6458804 C4.24481641,23.6458804 4.45639605,23.6983685 4.42994859,23.987053 C4.42994859,23.987053 4.42994859,24.3019814 4.85310786,24.3019814 C4.85310786,24.3019814 5.9903484,24.4332016 6.14903312,24.1707612 C6.14903312,24.1707612 6.28127039,24.013297 6.20192803,23.8033447 L4.90600277,23.3309519 L4.19192151,22.9897794 Z" id="Shape"></path>
                                    <path d="M4.37705369,22.2287022 C4.37705369,22.2287022 3.90099951,22.6486069 4.24481641,23.1734877 C4.24481641,23.1734877 4.50929096,23.5146602 4.50929096,23.6983685 C4.50929096,23.6983685 4.4828435,24.2494934 5.0646875,24.1182732 C5.0646875,24.1182732 5.64653149,23.6983685 6.06969076,24.039541 C6.06969076,24.039541 6.36061276,24.013297 6.22837549,23.5933924 C6.22837549,23.5933924 5.88455858,23.1734877 5.6994264,22.7798271 C5.6994264,22.7798271 5.59363658,22.701095 5.64653149,22.4124105 L4.37705369,22.2287022 Z" id="Shape"></path>
                                    <polygon id="Shape" points="2.41994207 4.09407031 3.5571826 8.45058102 4.69442314 4.09407031"></polygon>
                                    <polygon id="Shape" points="3.87455205 4.56646304 4.03323678 4.09407031 3.18691824 4.09407031 3.34560297 4.56646304"></polygon>
                                    <polygon id="Shape" points="3.87455205 4.56646304 3.61007751 4.56646304 3.34560297 4.56646304 2.76375897 7.87321213 3.61007751 8.45058102 4.45639605 7.87321213"></polygon>
                                    <path d="M1.49428117,10.2089317 C1.28270153,11.3374255 1.0711219,13.3844606 1.44138626,15.7464243 C1.44138626,15.7464243 1.78520316,21.2051847 1.46783371,22.4124105 C1.46783371,22.4124105 2.10257262,23.5671483 3.26626061,22.4124105 C3.26626061,22.4124105 3.29270806,13.4369487 3.61007751,13.0695321 L3.61007751,10.2089317 L1.49428117,10.2089317 L1.49428117,10.2089317 Z" id="Shape"></path>
                                    <path d="M3.61007751,10.2089317 L3.61007751,13.0695321 C3.92744696,13.4369487 3.95389442,22.4124105 3.95389442,22.4124105 C5.09113495,23.5671483 5.75232131,22.4124105 5.75232131,22.4124105 C5.43495186,21.2051847 5.77876876,15.7464243 5.77876876,15.7464243 C6.14903312,13.3844606 5.93745349,11.3374255 5.72587385,10.2089317 L3.61007751,10.2089317 Z" id="Shape"></path>
                                    <polygon id="Shape" points="4.50929096 3.46421334 2.71086407 3.46421334 2.44638952 4.09407031 4.64152823 4.09407031"></polygon>
                                    <path d="M2.52573189,3.85787394 L0.515725359,4.59270708 C0.515725359,4.59270708 1.73230826,8.26687274 1.20335917,10.7338125 C1.20335917,10.7338125 0.991779536,11.9672824 1.15046426,12.9383119 C1.15046426,12.9383119 2.55217934,13.9355855 3.08112843,13.0170441 C3.08112843,13.0170441 3.79520969,10.8125447 3.66297242,8.66053334 L3.02823352,6.98091476 L2.52573189,3.85787394 Z" id="Shape"></path>
                                    <path d="M2.71086407,3.46421334 L1.73230826,4.48773091 L2.10257262,4.64519516 L1.81165062,4.90763556 C1.81165062,4.90763556 2.71086407,7.66325981 3.66297242,8.60804526 C3.66297242,8.6342893 2.65796916,4.35651071 2.71086407,3.46421334 Z" id="Shape"></path>
                                    <path d="M4.69442314,3.85787394 L6.70442966,4.59270708 C6.70442966,4.59270708 5.48784677,8.26687274 6.01679585,10.7338125 C6.01679585,10.7338125 6.22837549,11.9672824 6.06969076,12.9383119 C6.06969076,12.9383119 4.66797568,13.9355855 4.1390266,13.0170441 C4.1390266,13.0170441 3.42494533,10.8125447 3.5571826,8.66053334 L4.19192151,6.98091476 L4.69442314,3.85787394 Z" id="Shape"></path>
                                    <path d="M4.50929096,3.46421334 L5.48784677,4.48773091 L5.11758241,4.64519516 L5.4085044,4.90763556 C5.4085044,4.90763556 4.50929096,7.66325981 3.5571826,8.60804526 C3.53073515,8.6342893 4.56218587,4.35651071 4.50929096,3.46421334 Z" id="Shape"></path>
                                    <ellipse id="Oval" cx="3.90099951" cy="8.84424163" rx="0.211579634" ry="0.209952323"></ellipse>
                                    <polygon id="Shape" points="4.82666041 7.21711112 5.17047731 6.66598627 5.6994264 7.05964688"></polygon>
                                    <rect id="Rectangle-path" transform="translate(5.184618, 6.804707) rotate(168.216987) translate(-5.184618, -6.804707) " x="4.61601365" y="6.30470668" width="1.13720804" height="0.262432905"></rect>
                                    <path d="M6.81021948,12.6233834 C6.83666693,12.8333358 6.83666693,12.9908 6.83666693,12.9908 C6.88956184,13.0432881 7.04824657,13.2532404 7.04824657,13.2532404 C7.33916857,13.4894368 7.18048384,13.646901 7.18048384,13.646901 L7.2069313,13.8306093 C7.28627366,13.9093414 7.23337875,14.0405616 7.23337875,14.0405616 C7.10114148,14.3292461 6.96890421,14.0930497 6.96890421,14.0930497 C6.81021948,14.303002 6.70442966,14.0405616 6.70442966,14.0405616 C6.51929748,14.1192938 6.46640257,13.9355855 6.46640257,13.9355855 C6.46640257,13.9355855 6.12258567,13.9880736 6.20192803,13.2007523 C6.22837549,13.0170441 6.22837549,12.8070917 6.20192803,12.6233834 L6.81021948,12.6233834 Z" id="Shape"></path>
                                    <path d="M6.51929748,13.3844606 C6.51929748,13.3582166 6.54574494,13.2269964 6.54574494,13.2269964 C6.49285003,13.3844606 6.67798221,13.4894368 6.67798221,13.4894368 C6.65153475,13.4894368 6.65153475,13.3844606 6.65153475,13.3844606 C6.67798221,13.5156808 6.9160093,13.620657 6.9160093,13.620657 C6.94245675,13.5419249 7.02179911,13.4894368 7.02179911,13.4894368 C6.94245675,13.5419249 6.94245675,13.620657 6.94245675,13.620657 C6.99535166,13.620657 7.02179911,13.6731451 7.02179911,13.6731451 C6.96890421,13.620657 6.94245675,13.6731451 6.94245675,13.6731451 C7.04824657,13.6993891 7.02179911,13.8043653 7.02179911,13.8043653 C7.02179911,13.6993891 6.94245675,13.6993891 6.94245675,13.6993891 C6.99535166,13.7518772 6.96890421,13.8043653 6.96890421,13.8043653 C6.96890421,13.7256331 6.86311439,13.6993891 6.86311439,13.6993891 C6.9160093,13.620657 6.86311439,13.646901 6.86311439,13.646901 C6.78377203,13.5156808 6.73087712,13.646901 6.73087712,13.6993891 L6.70442966,13.6993891 C6.75732457,13.5681689 6.70442966,13.5419249 6.70442966,13.5419249 C6.59863985,13.4631927 6.59863985,13.5944129 6.59863985,13.5944129 C6.59863985,13.8043653 6.46640257,13.8830974 6.46640257,13.8830974 L6.41350767,13.8830974 C6.49285003,13.8568534 6.54574494,13.7256331 6.54574494,13.7256331 C6.6250873,13.5156808 6.51929748,13.4894368 6.51929748,13.4894368 C6.3341653,13.4631927 6.38706021,13.620657 6.38706021,13.620657 C6.30771785,13.646901 6.22837549,13.620657 6.22837549,13.620657 C6.25482294,13.620657 6.30771785,13.5681689 6.30771785,13.5681689 C6.36061276,13.5156808 6.28127039,13.3844606 6.28127039,13.3844606 C6.3341653,13.4369487 6.51929748,13.4369487 6.51929748,13.4369487 C6.6250873,13.4369487 6.54574494,13.3319725 6.54574494,13.3319725 L6.49285003,13.3582166 C6.49285003,13.3319725 6.43995512,13.2007523 6.43995512,13.2007523 C6.46640257,13.2794845 6.49285003,13.3582166 6.51929748,13.3844606 Z" id="Shape"></path>
                                    <path d="M7.18048384,13.6731451 C7.18048384,13.6731451 7.15403639,13.6993891 7.10114148,13.8306093 C7.10114148,13.8306093 7.07469402,13.8568534 7.07469402,13.8830974 C7.04824657,13.9355855 7.02179911,13.9355855 6.96890421,13.9355855 C6.9160093,13.9093414 6.83666693,13.9093414 6.78377203,13.9093414 L6.67798221,13.9093414 C6.65153475,13.9093414 6.6250873,13.8830974 6.6250873,13.8568534 C6.65153475,13.8043653 6.67798221,13.7518772 6.78377203,13.7256331 C6.78377203,13.7256331 6.88956184,13.6993891 6.9160093,13.7256331 C6.9160093,13.7256331 6.75732457,13.6731451 6.65153475,13.7781212 C6.65153475,13.7781212 6.54574494,13.8830974 6.6250873,13.9355855 C6.6250873,13.9355855 6.88956184,13.9355855 6.88956184,13.9618295 C6.88956184,13.9618295 6.99535166,14.0143176 7.04824657,13.9355855 C7.04824657,13.9355855 7.07469402,13.8306093 7.18048384,13.8306093 C7.18048384,13.8306093 7.15403639,13.8043653 7.10114148,13.8043653 C7.12758893,13.8043653 7.12758893,13.7256331 7.18048384,13.6731451 Z" id="Shape"></path>
                                    <path d="M6.98804301,13.9376292 C6.94245675,13.9942048 7.03362926,14.1356439 7.03362926,14.1356439 C6.98804301,14.1073561 6.98804301,14.0790683 6.98804301,14.0790683 C6.98804301,14.1073561 6.94245675,14.1073561 6.94245675,14.1073561 C6.98804301,14.0224927 6.94245675,13.9093414 6.94245675,13.9093414 L6.98804301,13.9093414 L6.98804301,13.9376292 Z" id="Shape"></path>
                                    <path d="M6.72356846,14.0709185 L6.72356846,14.0709185 C6.72356846,14.0709185 6.72356846,14.0709185 6.67798221,14.0709185 C6.72356846,14.0062877 6.72356846,13.9093414 6.72356846,13.9093414 L6.76915472,13.9093414 C6.81474097,13.9739723 6.72356846,14.0709185 6.72356846,14.0709185 Z" id="Shape"></path>
                                    <rect id="Rectangle-path" x="6.09613821" y="12.2297228" width="0.846318537" height="0.57736889"></rect>
                                    <path d="M0.436382996,12.6233834 C0.409935542,12.8333358 0.409935542,12.9908 0.409935542,12.9908 C0.357040633,13.0432881 0.198355907,13.2532404 0.198355907,13.2532404 C-0.09256609,13.4894368 0.0661186357,13.646901 0.0661186357,13.646901 L0.0661186357,13.8043653 C-0.0132237271,13.8830974 0.0396711814,14.0143176 0.0396711814,14.0143176 C0.171908453,14.303002 0.304145724,14.0668057 0.304145724,14.0668057 C0.46283045,14.276758 0.568620267,14.0143176 0.568620267,14.0143176 C0.753752447,14.0930497 0.806647356,13.9093414 0.806647356,13.9093414 C0.806647356,13.9093414 1.15046426,13.9618295 1.0711219,13.1745083 C1.04467444,12.9908 1.04467444,12.7808477 1.0711219,12.5971394 L0.436382996,12.5971394 L0.436382996,12.6233834 L0.436382996,12.6233834 Z" id="Shape"></path>
                                    <path d="M0.727304993,13.3844606 C0.727304993,13.3582166 0.700857539,13.2269964 0.700857539,13.2269964 C0.753752447,13.3844606 0.568620267,13.4894368 0.568620267,13.4894368 C0.595067722,13.4894368 0.595067722,13.3844606 0.595067722,13.3844606 C0.568620267,13.5156808 0.330593179,13.620657 0.330593179,13.620657 C0.304145724,13.5419249 0.224803361,13.4894368 0.224803361,13.4894368 C0.27769827,13.5681689 0.304145724,13.620657 0.304145724,13.620657 C0.251250816,13.620657 0.224803361,13.6731451 0.224803361,13.6731451 C0.27769827,13.620657 0.304145724,13.6731451 0.304145724,13.6731451 C0.198355907,13.6993891 0.224803361,13.8043653 0.224803361,13.8043653 C0.224803361,13.6993891 0.304145724,13.6993891 0.304145724,13.6993891 C0.251250816,13.7518772 0.27769827,13.8043653 0.27769827,13.8043653 C0.27769827,13.7256331 0.383488087,13.6993891 0.383488087,13.6993891 C0.330593179,13.620657 0.383488087,13.646901 0.383488087,13.646901 C0.46283045,13.5156808 0.515725359,13.646901 0.515725359,13.6993891 L0.542172813,13.6993891 C0.489277904,13.5681689 0.542172813,13.5419249 0.542172813,13.5419249 C0.64796263,13.4631927 0.64796263,13.5944129 0.64796263,13.5944129 C0.64796263,13.8043653 0.780199902,13.8830974 0.780199902,13.8830974 L0.83309481,13.8830974 C0.727304993,13.8568534 0.700857539,13.7256331 0.700857539,13.7256331 C0.621515176,13.5156808 0.727304993,13.4894368 0.727304993,13.4894368 C0.912437173,13.4631927 0.859542265,13.620657 0.859542265,13.620657 C0.938884627,13.646901 1.01822699,13.620657 1.01822699,13.620657 C0.991779536,13.620657 0.938884627,13.5681689 0.938884627,13.5681689 C0.885989719,13.5156808 0.965332082,13.3844606 0.965332082,13.3844606 C0.938884627,13.5156808 0.727304993,13.5156808 0.727304993,13.5156808 C0.621515176,13.5156808 0.700857539,13.4107047 0.700857539,13.4107047 L0.753752447,13.4369487 C0.753752447,13.4107047 0.806647356,13.2794845 0.806647356,13.2794845 C0.780199902,13.2794845 0.753752447,13.3582166 0.727304993,13.3844606 Z" id="Shape"></path>
                                    <path d="M0.0661186357,13.6731451 C0.0661186357,13.6731451 0.09256609,13.6993891 0.145460999,13.8306093 C0.145460999,13.8306093 0.171908453,13.8568534 0.171908453,13.8830974 C0.198355907,13.9355855 0.224803361,13.9355855 0.27769827,13.9355855 C0.330593179,13.9093414 0.409935542,13.9093414 0.46283045,13.9093414 L0.568620267,13.9093414 C0.595067722,13.9093414 0.621515176,13.8830974 0.621515176,13.8568534 C0.595067722,13.8043653 0.568620267,13.7518772 0.46283045,13.7256331 C0.46283045,13.7256331 0.357040633,13.6993891 0.330593179,13.7256331 C0.330593179,13.7256331 0.489277904,13.6731451 0.595067722,13.7781212 C0.595067722,13.7781212 0.700857539,13.8830974 0.621515176,13.9355855 C0.621515176,13.9355855 0.357040633,13.9355855 0.357040633,13.9618295 C0.357040633,13.9618295 0.251250816,14.0143176 0.198355907,13.9355855 C0.198355907,13.9355855 0.171908453,13.8306093 0.0661186357,13.8306093 C0.0661186357,13.8306093 0.09256609,13.8043653 0.145460999,13.8043653 C0.119013544,13.8043653 0.119013544,13.7256331 0.0661186357,13.6731451 Z" id="Shape"></path>
                                    <path d="M0.296837069,13.9376292 C0.342423323,13.9942048 0.251250816,14.1356439 0.251250816,14.1356439 C0.296837069,14.1073561 0.296837069,14.0790683 0.296837069,14.0790683 C0.296837069,14.1073561 0.342423323,14.1073561 0.342423323,14.1073561 C0.296837069,14.0224927 0.342423323,13.9093414 0.342423323,13.9093414 L0.296837069,13.9093414 L0.296837069,13.9376292 Z" id="Shape"></path>
                                    <path d="M0.566670476,14.0709185 L0.566670476,14.0709185 C0.612256729,14.0386031 0.612256729,14.0386031 0.612256729,14.0709185 C0.566670476,14.0062877 0.566670476,13.9093414 0.566670476,13.9093414 L0.521084222,13.9093414 C0.475497969,13.9739723 0.566670476,14.0709185 0.566670476,14.0709185 Z" id="Shape"></path>
                                    <rect id="Rectangle-path" x="0.330593179" y="12.2297228" width="0.846318537" height="0.57736889"></rect>
                                    <path d="M7.10114148,12.5708954 L5.93745349,12.5708954 C5.93745349,12.5708954 5.91100603,9.6053188 6.06969076,9.02794991 C6.06969076,9.02794991 6.12258567,8.45058102 5.96390094,7.97818829 C6.17548058,6.19359354 6.67798221,4.61895112 6.70442966,4.56646304 C6.70442966,4.59270708 7.28627366,6.06237334 7.10114148,12.5708954 Z" id="Shape"></path>
                                    <path d="M0.119013544,12.5708954 L1.28270153,12.5708954 C1.28270153,12.5708954 1.30914899,9.6053188 1.15046426,9.02794991 C1.15046426,9.02794991 1.09756935,8.45058102 1.25625408,7.97818829 C1.04467444,6.19359354 0.542172813,4.61895112 0.515725359,4.56646304 C0.515725359,4.59270708 -0.0661186357,6.06237334 0.119013544,12.5708954 Z" id="Shape"></path>
                                    <ellipse id="Oval" cx="3.61007751" cy="3.25426101" rx="0.766976175" ry="0.813565254"></ellipse>
                                    <path d="M4.35060623,3.12304081 C4.35060623,3.12304081 4.50929096,3.8316299 3.61007751,4.09407031 C3.61007751,4.09407031 4.11257914,4.19904647 4.32415878,4.8026594 C4.35060623,4.8026594 4.93245023,3.88411798 4.35060623,3.12304081 Z" id="Shape"></path>
                                    <path d="M2.86954879,3.12304081 C2.86954879,3.12304081 2.71086407,3.8316299 3.61007751,4.09407031 C3.61007751,4.09407031 3.10757588,4.19904647 2.89599625,4.8026594 C2.89599625,4.8026594 2.31415225,3.88411798 2.86954879,3.12304081 Z" id="Shape"></path>
                                    <path d="M4.69442314,2.49318384 C4.58863332,2.80811233 4.56218587,2.99182061 4.53573841,3.01806465 L4.53573841,3.01806465 C4.29771132,3.35923718 3.98034187,3.5691895 3.63652497,3.5691895 C3.31915551,3.5691895 3.02823352,3.38548122 2.79020643,3.07055273 C2.2877048,2.44069576 2.6315217,1.31220202 2.6315217,1.31220202 C2.89599625,1.60088647 3.71586733,1.62713051 3.71586733,1.62713051 C3.37205042,1.57464243 3.31915551,1.31220202 3.29270806,1.28595798 C3.37205042,1.44342222 4.1390266,1.57464243 4.1390266,1.57464243 C4.95889768,1.70586263 4.69442314,2.49318384 4.69442314,2.49318384 Z" id="Shape"></path>
                                    <path d="M3.16047079,0.131220202 C3.16047079,0.131220202 4.27126387,-0.314928485 4.85310786,0.682345051 C5.46139931,1.75835071 4.69442314,2.91308849 4.53573841,3.01806465 C4.53573841,3.01806465 4.58863332,2.83435637 4.69442314,2.4669398 C4.69442314,2.4669398 4.95889768,1.67961859 4.1390266,1.54839839 C4.1390266,1.54839839 3.34560297,1.44342222 3.29270806,1.25971394 C3.29270806,1.25971394 3.34560297,1.54839839 3.71586733,1.60088647 C3.71586733,1.60088647 2.89599625,1.57464243 2.6315217,1.28595798 C2.6315217,1.28595798 2.2877048,2.44069576 2.79020643,3.04430869 C2.79020643,3.04430869 1.91744044,2.3357196 2.02323025,1.25971394 C2.02323025,1.31220202 1.97033534,-0.157464243 3.16047079,0.131220202 Z" id="Shape"></path>
                                </g>
                                <g id="Group" transform="translate(0.158348, 3.437432)" fill="#2C9984">
                                    <path d="M4.08613169,22.044994 C4.08613169,22.044994 3.95389442,22.5436307 4.1390266,22.6748509 C4.1390266,22.6748509 4.32415878,22.727339 4.32415878,22.9897794 C4.32415878,22.9897794 4.32415878,23.3047079 4.72087059,23.2784639 C4.72087059,23.2784639 5.80521622,23.4096841 5.96390094,23.1472437 C5.96390094,23.1472437 6.06969076,23.0160235 6.01679585,22.7798271 L4.7737655,22.3074344 L4.08613169,22.044994 Z" id="Shape"></path>
                                    <path d="M4.24481641,21.3101608 C4.24481641,21.3101608 3.76876224,21.7038214 4.11257914,22.2287022 C4.11257914,22.2287022 4.35060623,22.5698748 4.37705369,22.727339 C4.37705369,22.727339 4.35060623,23.2522198 4.90600277,23.1209996 C4.90600277,23.1209996 5.46139931,22.727339 5.85811113,23.0422675 C5.85811113,23.0422675 6.14903312,23.0160235 6.01679585,22.6223629 C6.01679585,22.6223629 5.6994264,22.2287022 5.51429422,21.8612857 C5.51429422,21.8612857 5.4085044,21.7825536 5.46139931,21.4938691 L4.24481641,21.3101608 Z" id="Shape"></path>
                                    <path d="M2.97533861,22.044994 C2.97533861,22.044994 3.10757588,22.5436307 2.9224437,22.6748509 C2.9224437,22.6748509 2.73731152,22.727339 2.73731152,22.9897794 C2.73731152,22.9897794 2.73731152,23.3047079 2.3405997,23.2784639 C2.3405997,23.2784639 1.25625408,23.4096841 1.09756935,23.1472437 C1.09756935,23.1472437 0.991779536,23.0160235 1.04467444,22.7798271 L2.2877048,22.3074344 L2.97533861,22.044994 Z" id="Shape"></path>
                                    <path d="M2.81665388,21.3101608 C2.81665388,21.3101608 3.29270806,21.7038214 2.94889115,22.2287022 C2.94889115,22.2287022 2.71086407,22.5698748 2.68441661,22.727339 C2.68441661,22.727339 2.71086407,23.2522198 2.15546752,23.1209996 C2.15546752,23.1209996 1.60007098,22.727339 1.20335917,23.0422675 C1.20335917,23.0422675 0.912437173,23.0160235 1.04467444,22.6223629 C1.04467444,22.6223629 1.3620439,22.2287022 1.54717608,21.8612857 C1.54717608,21.8612857 1.65296589,21.7825536 1.60007098,21.4938691 L2.81665388,21.3101608 Z" id="Shape"></path>
                                    <polygon id="Shape" points="4.66797568 3.88411798 3.58363006 8.08316445 2.49928443 3.88411798"></polygon>
                                    <polygon id="Shape" points="3.26626061 4.33026667 3.13402333 3.88411798 3.92744696 3.88411798 3.79520969 4.33026667"></polygon>
                                    <polygon id="Shape" points="3.26626061 4.33026667 3.53073515 4.33026667 3.79520969 4.33026667 4.32415878 7.53203961 3.53073515 8.08316445 2.73731152 7.53203961"></polygon>
                                    <path d="M5.56718913,9.76278304 C5.75232131,10.8650327 5.9903484,12.8070917 5.62008404,15.0903233 C5.62008404,15.0903233 5.27626713,20.3128873 5.59363658,21.4676251 C5.59363658,21.4676251 4.95889768,22.5698748 3.87455205,21.4676251 C3.87455205,21.4676251 3.8481046,12.8595798 3.5571826,12.5184073 L3.5571826,9.76278304 L5.56718913,9.76278304 L5.56718913,9.76278304 Z" id="Shape"></path>
                                    <path d="M3.53073515,9.76278304 L3.53073515,12.4921632 C3.23981315,12.8595798 3.2133657,21.441381 3.2133657,21.441381 C2.10257262,22.5436307 1.49428117,21.441381 1.49428117,21.441381 C1.78520316,20.3128873 1.46783371,15.0903233 1.46783371,15.0903233 C1.09756935,12.8070917 1.30914899,10.8650327 1.52072862,9.76278304 L3.53073515,9.76278304 L3.53073515,9.76278304 Z" id="Shape"></path>
                                    <polygon id="Shape" points="2.68441661 3.30674909 4.40350114 3.30674909 4.64152823 3.88411798 2.52573189 3.88411798"></polygon>
                                    <path d="M4.56218587,3.67416566 L6.49285003,4.38275475 C6.49285003,4.38275475 5.32916204,7.89945617 5.83166367,10.2614198 C5.83166367,10.2614198 6.04324331,11.4686457 5.88455858,12.3871871 C5.88455858,12.3871871 4.53573841,13.3582166 4.03323678,12.4659192 C4.03323678,12.4659192 3.34560297,10.3401519 3.47784024,8.26687274 L4.08613169,6.66598627 L4.56218587,3.67416566 Z" id="Shape"></path>
                                    <path d="M4.40350114,3.30674909 L5.32916204,4.30402263 L4.98534513,4.46148687 L5.24981968,4.72392728 C5.24981968,4.72392728 4.37705369,7.37457536 3.47784024,8.29311678 C3.47784024,8.26687274 4.45639605,4.17280243 4.40350114,3.30674909 Z" id="Shape"></path>
                                    <path d="M2.49928443,3.67416566 L0.568620267,4.38275475 C0.568620267,4.38275475 1.73230826,7.89945617 1.22980662,10.2614198 C1.22980662,10.2614198 1.01822699,11.4686457 1.17691172,12.3871871 C1.17691172,12.3871871 2.52573189,13.3582166 3.02823352,12.4659192 C3.02823352,12.4659192 3.71586733,10.3401519 3.58363006,8.26687274 L2.97533861,6.66598627 L2.49928443,3.67416566 Z" id="Shape"></path>
                                    <path d="M2.68441661,3.30674909 L1.75875571,4.30402263 L2.10257262,4.46148687 L1.83809807,4.72392728 C1.83809807,4.72392728 2.71086407,7.37457536 3.61007751,8.29311678 C3.61007751,8.26687274 2.6315217,4.17280243 2.68441661,3.30674909 Z" id="Shape"></path>
                                    <ellipse id="Oval" cx="3.26626061" cy="8.45058102" rx="0.18513218" ry="0.183708283"></ellipse>
                                    <polygon id="Shape" points="2.36704716 6.90218263 2.04967771 6.37730183 1.54717608 6.74471839"></polygon>
                                    <rect id="Rectangle-path" transform="translate(1.864925, 7.220192) rotate(11.783013) translate(-1.864925, -7.220192) " x="1.32276816" y="6.72019172" width="1.08431464" height="0.262432905"></rect>
                                    <path d="M0.46283045,12.0722586 C0.436382996,12.2822109 0.436382996,12.4396752 0.436382996,12.4396752 C0.383488087,12.4921632 0.251250816,12.6758715 0.251250816,12.6758715 C-0.0132237271,12.8858239 0.119013544,13.0432881 0.119013544,13.0432881 L0.09256609,13.2007523 C0.0396711814,13.2794845 0.0661186357,13.4107047 0.0661186357,13.4107047 C0.198355907,13.6731451 0.304145724,13.4631927 0.304145724,13.4631927 C0.46283045,13.646901 0.542172813,13.4107047 0.542172813,13.4107047 C0.727304993,13.4894368 0.780199902,13.3057285 0.780199902,13.3057285 C0.780199902,13.3057285 1.09756935,13.3582166 1.04467444,12.6233834 C1.01822699,12.4396752 1.01822699,12.2559669 1.04467444,12.0722586 L0.46283045,12.0722586 L0.46283045,12.0722586 Z" id="Shape"></path>
                                    <path d="M0.753752447,12.8070917 C0.753752447,12.7808477 0.727304993,12.6758715 0.727304993,12.6758715 C0.780199902,12.8333358 0.595067722,12.9120679 0.595067722,12.9120679 C0.621515176,12.9120679 0.621515176,12.8070917 0.621515176,12.8070917 C0.595067722,12.9383119 0.383488087,13.0170441 0.383488087,13.0170441 C0.357040633,12.9383119 0.27769827,12.8858239 0.27769827,12.8858239 C0.330593179,12.964556 0.330593179,13.0170441 0.330593179,13.0170441 C0.304145724,13.0170441 0.251250816,13.0695321 0.251250816,13.0695321 C0.304145724,13.0170441 0.330593179,13.0695321 0.330593179,13.0695321 C0.224803361,13.0957762 0.251250816,13.2007523 0.251250816,13.2007523 C0.251250816,13.0957762 0.304145724,13.1220202 0.304145724,13.1220202 C0.251250816,13.1745083 0.27769827,13.2269964 0.27769827,13.2269964 C0.27769827,13.1482643 0.383488087,13.1482643 0.383488087,13.1482643 C0.330593179,13.0695321 0.383488087,13.0957762 0.383488087,13.0957762 C0.46283045,12.964556 0.515725359,13.0957762 0.515725359,13.1482643 L0.542172813,13.1482643 C0.489277904,13.0170441 0.542172813,12.9908 0.542172813,12.9908 C0.621515176,12.9120679 0.64796263,13.0432881 0.64796263,13.0432881 C0.64796263,13.2532404 0.780199902,13.3319725 0.780199902,13.3319725 L0.806647356,13.3319725 C0.727304993,13.3057285 0.674410084,13.1745083 0.674410084,13.1745083 C0.595067722,12.964556 0.700857539,12.964556 0.700857539,12.964556 C0.859542265,12.9383119 0.83309481,13.0957762 0.83309481,13.0957762 C0.885989719,13.1220202 0.991779536,13.0957762 0.991779536,13.0957762 C0.965332082,13.0957762 0.912437173,13.0695321 0.912437173,13.0695321 C0.885989719,12.9908 0.991779536,12.8858239 0.991779536,12.8858239 C0.938884627,12.9383119 0.753752447,12.9383119 0.753752447,12.9383119 C0.64796263,12.9120679 0.727304993,12.8333358 0.753752447,12.8070917 L0.780199902,12.8595798 C0.780199902,12.8333358 0.83309481,12.7021156 0.83309481,12.7021156 C0.806647356,12.7021156 0.753752447,12.7808477 0.753752447,12.8070917 Z" id="Shape"></path>
                                    <path d="M0.119013544,13.0957762 C0.119013544,13.0957762 0.145460999,13.1220202 0.198355907,13.2532404 C0.198355907,13.2532404 0.224803361,13.2794845 0.224803361,13.3057285 C0.251250816,13.3319725 0.27769827,13.3582166 0.330593179,13.3582166 C0.383488087,13.3319725 0.46283045,13.3319725 0.515725359,13.3319725 L0.621515176,13.3319725 C0.64796263,13.3319725 0.674410084,13.3057285 0.674410084,13.2794845 C0.64796263,13.2269964 0.621515176,13.1745083 0.542172813,13.1482643 C0.542172813,13.1482643 0.436382996,13.1220202 0.409935542,13.1482643 C0.409935542,13.1482643 0.568620267,13.0957762 0.64796263,13.2007523 C0.64796263,13.2007523 0.753752447,13.3057285 0.674410084,13.3319725 C0.674410084,13.3319725 0.436382996,13.3319725 0.409935542,13.3582166 C0.409935542,13.3582166 0.304145724,13.4107047 0.251250816,13.3319725 C0.251250816,13.3319725 0.224803361,13.2269964 0.119013544,13.2532404 C0.119013544,13.2532404 0.145460999,13.2269964 0.198355907,13.2269964 C0.171908453,13.2269964 0.145460999,13.1482643 0.119013544,13.0957762 Z" id="Shape"></path>
                                    <path d="M0.349731978,13.3319725 C0.349731978,13.3966034 0.304145724,13.5581805 0.304145724,13.5581805 C0.349731978,13.5258651 0.349731978,13.4935497 0.349731978,13.4935497 C0.349731978,13.5258651 0.395318231,13.5258651 0.395318231,13.5258651 C0.349731978,13.4289188 0.395318231,13.3319725 0.395318231,13.3319725 L0.349731978,13.3319725 Z" id="Shape"></path>
                                    <path d="M0.561311612,13.4673056 L0.561311612,13.4673056 C0.606897865,13.4349902 0.606897865,13.4349902 0.606897865,13.4673056 C0.561311612,13.4026748 0.561311612,13.3057285 0.561311612,13.3057285 L0.515725359,13.3057285 C0.515725359,13.4026748 0.561311612,13.4673056 0.561311612,13.4673056 Z" id="Shape"></path>
                                    <rect id="Rectangle-path" x="0.357040633" y="11.704842" width="0.793423629" height="0.551124849"></rect>
                                    <path d="M6.57219239,12.0722586 C6.59863985,12.2822109 6.59863985,12.4396752 6.59863985,12.4396752 C6.65153475,12.4921632 6.78377203,12.6758715 6.78377203,12.6758715 C7.04824657,12.8858239 6.9160093,13.0432881 6.9160093,13.0432881 L6.94245675,13.2007523 C6.99535166,13.2794845 6.96890421,13.4107047 6.96890421,13.4107047 C6.83666693,13.6731451 6.73087712,13.4631927 6.73087712,13.4631927 C6.57219239,13.646901 6.49285003,13.4107047 6.49285003,13.4107047 C6.30771785,13.4894368 6.25482294,13.3057285 6.25482294,13.3057285 C6.25482294,13.3057285 5.93745349,13.3582166 5.9903484,12.6233834 C6.01679585,12.4396752 6.01679585,12.2559669 5.9903484,12.0722586 L6.57219239,12.0722586 L6.57219239,12.0722586 Z" id="Shape"></path>
                                    <path d="M6.30771785,12.8070917 C6.30771785,12.7808477 6.3341653,12.6758715 6.3341653,12.6758715 C6.28127039,12.8333358 6.46640257,12.9120679 6.46640257,12.9120679 C6.43995512,12.9120679 6.43995512,12.8070917 6.43995512,12.8070917 C6.46640257,12.9383119 6.67798221,13.0170441 6.67798221,13.0170441 C6.70442966,12.9383119 6.78377203,12.8858239 6.78377203,12.8858239 C6.73087712,12.964556 6.73087712,13.0170441 6.73087712,13.0170441 C6.75732457,13.0170441 6.81021948,13.0695321 6.81021948,13.0695321 C6.75732457,13.0170441 6.73087712,13.0695321 6.73087712,13.0695321 C6.83666693,13.0957762 6.81021948,13.2007523 6.81021948,13.2007523 C6.81021948,13.0957762 6.75732457,13.1220202 6.75732457,13.1220202 C6.81021948,13.1745083 6.78377203,13.2269964 6.78377203,13.2269964 C6.78377203,13.1482643 6.67798221,13.1482643 6.67798221,13.1482643 C6.73087712,13.0695321 6.67798221,13.0957762 6.67798221,13.0957762 C6.59863985,12.964556 6.54574494,13.0957762 6.54574494,13.1482643 L6.51929748,13.1482643 C6.57219239,13.0170441 6.51929748,12.9908 6.51929748,12.9908 C6.43995512,12.9120679 6.41350767,13.0432881 6.41350767,13.0432881 C6.41350767,13.2532404 6.28127039,13.3319725 6.28127039,13.3319725 L6.25482294,13.3319725 C6.3341653,13.3057285 6.38706021,13.1745083 6.38706021,13.1745083 C6.46640257,12.964556 6.36061276,12.964556 6.36061276,12.964556 C6.20192803,12.9383119 6.22837549,13.0957762 6.22837549,13.0957762 C6.17548058,13.1220202 6.06969076,13.0957762 6.06969076,13.0957762 C6.09613821,13.0957762 6.14903312,13.0695321 6.14903312,13.0695321 C6.20192803,13.0170441 6.12258567,12.9120679 6.12258567,12.9120679 C6.17548058,12.964556 6.36061276,12.964556 6.36061276,12.964556 C6.38706021,12.9120679 6.30771785,12.8333358 6.30771785,12.8070917 L6.28127039,12.8595798 C6.28127039,12.8333358 6.22837549,12.7021156 6.22837549,12.7021156 C6.25482294,12.7021156 6.28127039,12.7808477 6.30771785,12.8070917 Z" id="Shape"></path>
                                    <path d="M6.94245675,13.0957762 C6.94245675,13.0957762 6.9160093,13.1220202 6.86311439,13.2532404 C6.86311439,13.2532404 6.86311439,13.2794845 6.83666693,13.3057285 C6.81021948,13.3319725 6.78377203,13.3582166 6.73087712,13.3582166 C6.67798221,13.3319725 6.59863985,13.3319725 6.54574494,13.3319725 L6.43995512,13.3319725 C6.41350767,13.3319725 6.38706021,13.3057285 6.38706021,13.2794845 C6.41350767,13.2269964 6.43995512,13.1745083 6.51929748,13.1482643 C6.51929748,13.1482643 6.6250873,13.1220202 6.65153475,13.1482643 C6.65153475,13.1482643 6.49285003,13.0957762 6.41350767,13.2007523 C6.41350767,13.2007523 6.30771785,13.3057285 6.38706021,13.3319725 C6.38706021,13.3319725 6.6250873,13.3319725 6.65153475,13.3582166 C6.65153475,13.3582166 6.75732457,13.4107047 6.81021948,13.3319725 C6.81021948,13.3319725 6.83666693,13.2269964 6.94245675,13.2532404 C6.94245675,13.2532404 6.9160093,13.2269964 6.86311439,13.2269964 C6.88956184,13.2269964 6.88956184,13.1482643 6.94245675,13.0957762 Z" id="Shape"></path>
                                    <path d="M6.75001592,13.3319725 C6.75001592,13.3966034 6.79560217,13.5581805 6.79560217,13.5581805 C6.75001592,13.5258651 6.75001592,13.4935497 6.75001592,13.4935497 C6.75001592,13.5258651 6.70442966,13.5258651 6.70442966,13.5258651 C6.75001592,13.4289188 6.70442966,13.3319725 6.70442966,13.3319725 L6.75001592,13.3319725 Z" id="Shape"></path>
                                    <path d="M6.51198883,13.4673056 C6.51198883,13.4673056 6.46640257,13.4673056 6.51198883,13.4673056 C6.46640257,13.4349902 6.46640257,13.4349902 6.46640257,13.4673056 C6.51198883,13.4026748 6.51198883,13.3057285 6.51198883,13.3057285 L6.55757508,13.3057285 C6.55757508,13.4026748 6.51198883,13.4673056 6.51198883,13.4673056 Z" id="Shape"></path>
                                    <rect id="Rectangle-path" x="5.88455858" y="11.704842" width="0.793423629" height="0.551124849"></rect>
                                    <path d="M0.198355907,12.0197705 L1.30914899,12.0197705 C1.30914899,12.0197705 1.33559644,9.15917011 1.17691172,8.6342893 C1.17691172,8.6342893 1.12401681,8.08316445 1.25625408,7.63701577 C1.0711219,5.93115314 0.568620267,4.40899879 0.542172813,4.38275475 C0.568620267,4.35651071 0.0132237271,5.7736889 0.198355907,12.0197705 Z" id="Shape"></path>
                                    <path d="M6.88956184,12.0197705 L5.75232131,12.0197705 C5.75232131,12.0197705 5.72587385,9.15917011 5.88455858,8.6342893 C5.88455858,8.6342893 5.93745349,8.08316445 5.80521622,7.63701577 C5.9903484,5.93115314 6.49285003,4.40899879 6.51929748,4.38275475 C6.49285003,4.35651071 7.04824657,5.7736889 6.88956184,12.0197705 Z" id="Shape"></path>
                                    <ellipse id="Oval" cx="3.53073515" cy="3.09679677" rx="0.74052872" ry="0.787321213"></ellipse>
                                    <path d="M2.81665388,2.96557657 C2.81665388,2.96557657 2.68441661,3.64792162 3.53073515,3.91036202 C3.53073515,3.91036202 3.05468097,4.01533819 2.84310134,4.59270708 C2.84310134,4.59270708 2.26125734,3.67416566 2.81665388,2.96557657 Z" id="Shape"></path>
                                    <path d="M4.24481641,2.96557657 C4.24481641,2.96557657 4.37705369,3.64792162 3.53073515,3.91036202 C3.53073515,3.91036202 4.00678933,4.01533819 4.21836896,4.59270708 C4.21836896,4.59270708 4.80021295,3.67416566 4.24481641,2.96557657 Z" id="Shape"></path>
                                    <path d="M2.49928443,2.36196364 C2.60507425,2.65064808 2.6315217,2.83435637 2.65796916,2.88684445 L2.65796916,2.88684445 C2.89599625,3.20177293 3.18691824,3.41172526 3.53073515,3.41172526 C3.8481046,3.41172526 4.11257914,3.22801697 4.35060623,2.93933253 C4.82666041,2.3357196 4.50929096,1.25971394 4.50929096,1.25971394 C4.27126387,1.54839839 3.47784024,1.54839839 3.47784024,1.54839839 C3.79520969,1.4959103 3.87455205,1.25971394 3.87455205,1.2334699 C3.82165715,1.39093414 3.05468097,1.4959103 3.05468097,1.4959103 C2.23480989,1.60088647 2.49928443,2.36196364 2.49928443,2.36196364 Z" id="Shape"></path>
                                    <path d="M3.98034187,0.104976162 C3.98034187,0.104976162 2.89599625,-0.314928485 2.36704716,0.656101011 C1.78520316,1.67961859 2.52573189,2.80811233 2.65796916,2.88684445 C2.65796916,2.88684445 2.6315217,2.70313616 2.49928443,2.36196364 C2.49928443,2.36196364 2.23480989,1.60088647 3.02823352,1.46966626 C3.02823352,1.46966626 3.79520969,1.3646901 3.8481046,1.20722586 C3.8481046,1.20722586 3.79520969,1.46966626 3.45139279,1.54839839 C3.45139279,1.54839839 4.24481641,1.52215435 4.4828435,1.25971394 C4.4828435,1.25971394 4.82666041,2.36196364 4.32415878,2.93933253 C4.32415878,2.93933253 5.17047731,2.25698748 5.0646875,1.2334699 C5.0646875,1.2334699 5.11758241,-0.183708283 3.98034187,0.104976162 Z" id="Shape"></path>
                                </g>
                                <g id="Group" transform="translate(3.993229, 2.912551)" fill="#E6E9EE">
                                    <path d="M4.24481641,22.9897794 C4.24481641,22.9897794 4.11257914,23.4884162 4.29771132,23.6458804 C4.29771132,23.6458804 4.50929096,23.6983685 4.4828435,23.987053 C4.4828435,23.987053 4.4828435,24.3019814 4.90600277,24.3019814 C4.90600277,24.3019814 6.04324331,24.4332016 6.20192803,24.1707612 C6.20192803,24.1707612 6.3341653,24.013297 6.25482294,23.8033447 L4.95889768,23.3309519 L4.24481641,22.9897794 Z" id="Shape"></path>
                                    <path d="M4.40350114,22.2287022 C4.40350114,22.2287022 3.92744696,22.6486069 4.27126387,23.1734877 C4.27126387,23.1734877 4.53573841,23.5146602 4.53573841,23.6983685 C4.53573841,23.6983685 4.50929096,24.2494934 5.09113495,24.1182732 C5.09113495,24.1182732 5.67297895,23.6983685 6.09613821,24.039541 C6.09613821,24.039541 6.38706021,24.013297 6.25482294,23.5933924 C6.25482294,23.5933924 5.91100603,23.1734877 5.72587385,22.7798271 C5.72587385,22.7798271 5.62008404,22.701095 5.67297895,22.4124105 L4.40350114,22.2287022 Z" id="Shape"></path>
                                    <path d="M3.08112843,22.9897794 C3.08112843,22.9897794 3.2133657,23.4884162 3.02823352,23.6458804 C3.02823352,23.6458804 2.81665388,23.6983685 2.84310134,23.987053 C2.84310134,23.987053 2.84310134,24.3019814 2.41994207,24.3019814 C2.41994207,24.3019814 1.28270153,24.4332016 1.12401681,24.1707612 C1.12401681,24.1707612 0.991779536,24.013297 1.0711219,23.8033447 L2.36704716,23.3309519 L3.08112843,22.9897794 Z" id="Shape"></path>
                                    <path d="M2.89599625,22.2287022 C2.89599625,22.2287022 3.37205042,22.6486069 3.02823352,23.1734877 C3.02823352,23.1734877 2.76375897,23.5146602 2.76375897,23.6983685 C2.76375897,23.6983685 2.79020643,24.2494934 2.20836243,24.1182732 C2.20836243,24.1182732 1.62651844,23.6983685 1.20335917,24.039541 C1.20335917,24.039541 0.912437173,24.013297 1.04467444,23.5933924 C1.04467444,23.5933924 1.38849135,23.1734877 1.57362353,22.7798271 C1.57362353,22.7798271 1.67941335,22.701095 1.62651844,22.4124105 L2.89599625,22.2287022 Z" id="Shape"></path>
                                    <polygon id="Shape" points="4.85310786 4.09407031 3.71586733 8.45058102 2.57862679 4.09407031"></polygon>
                                    <polygon id="Shape" points="3.39849788 4.56646304 3.23981315 4.09407031 4.08613169 4.09407031 3.92744696 4.56646304"></polygon>
                                    <polygon id="Shape" points="3.39849788 4.56646304 3.66297242 4.56646304 3.92744696 4.56646304 4.50929096 7.87321213 3.66297242 8.45058102 2.81665388 7.87321213"></polygon>
                                    <path d="M5.77876876,10.2089317 C5.9903484,11.3374255 6.20192803,13.3844606 5.83166367,15.7464243 C5.83166367,15.7464243 5.48784677,21.2051847 5.80521622,22.4124105 C5.80521622,22.4124105 5.17047731,23.5671483 4.00678933,22.4124105 C4.00678933,22.4124105 3.98034187,13.4369487 3.66297242,13.0695321 L3.66297242,10.2089317 L5.77876876,10.2089317 L5.77876876,10.2089317 Z" id="Shape"></path>
                                    <path d="M3.66297242,10.2089317 L3.66297242,13.0695321 C3.34560297,13.4369487 3.31915551,22.4124105 3.31915551,22.4124105 C2.18191498,23.5671483 1.52072862,22.4124105 1.52072862,22.4124105 C1.83809807,21.2051847 1.49428117,15.7464243 1.49428117,15.7464243 C1.12401681,13.3844606 1.33559644,11.3374255 1.54717608,10.2089317 L3.66297242,10.2089317 Z" id="Shape"></path>
                                    <polygon id="Shape" points="2.76375897 3.46421334 4.56218587 3.46421334 4.82666041 4.09407031 2.6315217 4.09407031"></polygon>
                                    <path d="M4.74731805,3.85787394 L6.75732457,4.59270708 C6.75732457,4.59270708 5.54074167,8.26687274 6.06969076,10.7338125 C6.06969076,10.7338125 6.28127039,11.9672824 6.12258567,12.9383119 C6.12258567,12.9383119 4.72087059,13.9355855 4.19192151,13.0170441 C4.19192151,13.0170441 3.47784024,10.8125447 3.61007751,8.66053334 L4.24481641,6.98091476 L4.74731805,3.85787394 Z" id="Shape"></path>
                                    <path d="M4.56218587,3.46421334 L5.54074167,4.48773091 L5.17047731,4.64519516 L5.46139931,4.90763556 C5.46139931,4.90763556 4.56218587,7.66325981 3.61007751,8.60804526 C3.61007751,8.6342893 4.61508077,4.35651071 4.56218587,3.46421334 Z" id="Shape"></path>
                                    <path d="M2.57862679,3.85787394 L0.568620267,4.59270708 C0.568620267,4.59270708 1.78520316,8.26687274 1.25625408,10.7338125 C1.25625408,10.7338125 1.04467444,11.9672824 1.20335917,12.9383119 C1.20335917,12.9383119 2.60507425,13.9355855 3.13402333,13.0170441 C3.13402333,13.0170441 3.8481046,10.8125447 3.71586733,8.66053334 L3.08112843,6.98091476 L2.57862679,3.85787394 Z" id="Shape"></path>
                                    <path d="M2.76375897,3.46421334 L1.78520316,4.48773091 L2.15546752,4.64519516 L1.86454553,4.90763556 C1.86454553,4.90763556 2.76375897,7.66325981 3.71586733,8.60804526 C3.74231478,8.6342893 2.71086407,4.35651071 2.76375897,3.46421334 Z" id="Shape"></path>
                                    <ellipse id="Oval" cx="3.37205042" cy="8.84424163" rx="0.211579634" ry="0.209952323"></ellipse>
                                    <polygon id="Shape" points="2.44638952 7.21711112 2.10257262 6.66598627 1.57362353 7.05964688"></polygon>
                                    <rect id="Rectangle-path" transform="translate(1.934558, 7.551238) rotate(11.783013) translate(-1.934558, -7.551238) " x="1.36595406" y="7.05123801" width="1.13720804" height="0.262432905"></rect>
                                    <path d="M0.46283045,12.6233834 C0.436382996,12.8333358 0.436382996,12.9908 0.436382996,12.9908 C0.383488087,13.0432881 0.224803361,13.2532404 0.224803361,13.2532404 C-0.0661186357,13.4894368 0.09256609,13.646901 0.09256609,13.646901 L0.0661186357,13.8306093 C-0.0132237271,13.9093414 0.0396711814,14.0405616 0.0396711814,14.0405616 C0.171908453,14.3292461 0.304145724,14.0930497 0.304145724,14.0930497 C0.46283045,14.303002 0.568620267,14.0405616 0.568620267,14.0405616 C0.753752447,14.1192938 0.806647356,13.9355855 0.806647356,13.9355855 C0.806647356,13.9355855 1.15046426,13.9880736 1.0711219,13.2007523 C1.04467444,13.0170441 1.04467444,12.8070917 1.0711219,12.6233834 L0.46283045,12.6233834 Z" id="Shape"></path>
                                    <path d="M0.753752447,13.3844606 C0.753752447,13.3582166 0.727304993,13.2269964 0.727304993,13.2269964 C0.780199902,13.3844606 0.595067722,13.4894368 0.595067722,13.4894368 C0.621515176,13.4894368 0.621515176,13.3844606 0.621515176,13.3844606 C0.595067722,13.5156808 0.357040633,13.620657 0.357040633,13.620657 C0.330593179,13.5419249 0.251250816,13.4894368 0.251250816,13.4894368 C0.304145724,13.5681689 0.330593179,13.620657 0.330593179,13.620657 C0.27769827,13.620657 0.251250816,13.6731451 0.251250816,13.6731451 C0.304145724,13.620657 0.330593179,13.6731451 0.330593179,13.6731451 C0.224803361,13.6993891 0.251250816,13.8043653 0.251250816,13.8043653 C0.251250816,13.6993891 0.330593179,13.6993891 0.330593179,13.6993891 C0.27769827,13.7518772 0.304145724,13.8043653 0.304145724,13.8043653 C0.304145724,13.7256331 0.409935542,13.6993891 0.409935542,13.6993891 C0.357040633,13.620657 0.409935542,13.646901 0.409935542,13.646901 C0.489277904,13.5156808 0.542172813,13.646901 0.542172813,13.6993891 L0.568620267,13.6993891 C0.515725359,13.5681689 0.568620267,13.5419249 0.568620267,13.5419249 C0.674410084,13.4631927 0.674410084,13.5944129 0.674410084,13.5944129 C0.674410084,13.8043653 0.806647356,13.8830974 0.806647356,13.8830974 L0.859542265,13.8830974 C0.780199902,13.8568534 0.727304993,13.7256331 0.727304993,13.7256331 C0.64796263,13.5156808 0.753752447,13.4894368 0.753752447,13.4894368 C0.938884627,13.4631927 0.885989719,13.620657 0.885989719,13.620657 C0.965332082,13.646901 1.04467444,13.620657 1.04467444,13.620657 C1.01822699,13.620657 0.965332082,13.5681689 0.965332082,13.5681689 C0.912437173,13.5156808 0.991779536,13.3844606 0.991779536,13.3844606 C0.965332082,13.5156808 0.753752447,13.5156808 0.753752447,13.5156808 C0.64796263,13.5156808 0.727304993,13.4107047 0.727304993,13.4107047 L0.780199902,13.4369487 C0.780199902,13.4107047 0.83309481,13.2794845 0.83309481,13.2794845 C0.806647356,13.2794845 0.780199902,13.3582166 0.753752447,13.3844606 Z" id="Shape"></path>
                                    <path d="M0.09256609,13.6731451 C0.09256609,13.6731451 0.119013544,13.6993891 0.171908453,13.8306093 C0.171908453,13.8306093 0.198355907,13.8568534 0.198355907,13.8830974 C0.224803361,13.9355855 0.251250816,13.9355855 0.304145724,13.9355855 C0.357040633,13.9093414 0.436382996,13.9093414 0.489277904,13.9093414 L0.595067722,13.9093414 C0.621515176,13.9093414 0.64796263,13.8830974 0.64796263,13.8568534 C0.621515176,13.8043653 0.595067722,13.7518772 0.489277904,13.7256331 C0.489277904,13.7256331 0.383488087,13.6993891 0.357040633,13.7256331 C0.357040633,13.7256331 0.515725359,13.6731451 0.621515176,13.7781212 C0.621515176,13.7781212 0.727304993,13.8830974 0.64796263,13.9355855 C0.64796263,13.9355855 0.383488087,13.9355855 0.383488087,13.9618295 C0.383488087,13.9618295 0.27769827,14.0143176 0.224803361,13.9355855 C0.224803361,13.9355855 0.198355907,13.8306093 0.09256609,13.8306093 C0.09256609,13.8306093 0.119013544,13.8043653 0.171908453,13.8043653 C0.145460999,13.8043653 0.145460999,13.7256331 0.09256609,13.6731451 Z" id="Shape"></path>
                                    <path d="M0.323284523,13.9376292 C0.368870777,13.9942048 0.27769827,14.1356439 0.27769827,14.1356439 C0.323284523,14.1073561 0.323284523,14.0790683 0.323284523,14.0790683 C0.323284523,14.1073561 0.368870777,14.1073561 0.368870777,14.1073561 C0.323284523,14.0224927 0.368870777,13.9093414 0.368870777,13.9093414 L0.323284523,13.9093414 L0.323284523,13.9376292 Z" id="Shape"></path>
                                    <path d="M0.59311793,14.0709185 L0.59311793,14.0709185 C0.638704184,14.0386031 0.638704184,14.0386031 0.638704184,14.0709185 C0.59311793,14.0062877 0.59311793,13.9093414 0.59311793,13.9093414 L0.547531677,13.9093414 C0.501945423,13.9739723 0.59311793,14.0709185 0.59311793,14.0709185 Z" id="Shape"></path>
                                    <rect id="Rectangle-path" x="0.357040633" y="12.2297228" width="0.846318537" height="0.57736889"></rect>
                                    <path d="M6.83666693,12.6233834 C6.86311439,12.8333358 6.86311439,12.9908 6.86311439,12.9908 C6.9160093,13.0432881 7.07469402,13.2532404 7.07469402,13.2532404 C7.36561602,13.4894368 7.2069313,13.646901 7.2069313,13.646901 L7.23337875,13.8306093 C7.31272111,13.9093414 7.2598262,14.0405616 7.2598262,14.0405616 C7.12758893,14.3292461 6.99535166,14.0930497 6.99535166,14.0930497 C6.83666693,14.303002 6.73087712,14.0405616 6.73087712,14.0405616 C6.54574494,14.1192938 6.49285003,13.9355855 6.49285003,13.9355855 C6.49285003,13.9355855 6.14903312,13.9880736 6.22837549,13.2007523 C6.25482294,13.0170441 6.25482294,12.8070917 6.22837549,12.6233834 L6.83666693,12.6233834 Z" id="Shape"></path>
                                    <path d="M6.54574494,13.3844606 C6.54574494,13.3582166 6.57219239,13.2269964 6.57219239,13.2269964 C6.51929748,13.3844606 6.70442966,13.4894368 6.70442966,13.4894368 C6.67798221,13.4894368 6.67798221,13.3844606 6.67798221,13.3844606 C6.70442966,13.5156808 6.94245675,13.620657 6.94245675,13.620657 C6.96890421,13.5419249 7.04824657,13.4894368 7.04824657,13.4894368 C6.99535166,13.5681689 6.96890421,13.620657 6.96890421,13.620657 C7.02179911,13.620657 7.04824657,13.6731451 7.04824657,13.6731451 C6.99535166,13.620657 6.96890421,13.6731451 6.96890421,13.6731451 C7.07469402,13.6993891 7.04824657,13.8043653 7.04824657,13.8043653 C7.04824657,13.6993891 6.96890421,13.6993891 6.96890421,13.6993891 C7.02179911,13.7518772 6.99535166,13.8043653 6.99535166,13.8043653 C6.99535166,13.7256331 6.88956184,13.6993891 6.88956184,13.6993891 C6.94245675,13.620657 6.88956184,13.646901 6.88956184,13.646901 C6.81021948,13.5156808 6.75732457,13.646901 6.75732457,13.6993891 L6.73087712,13.6993891 C6.78377203,13.5681689 6.73087712,13.5419249 6.73087712,13.5419249 C6.6250873,13.4631927 6.6250873,13.5944129 6.6250873,13.5944129 C6.6250873,13.8043653 6.49285003,13.8830974 6.49285003,13.8830974 L6.43995512,13.8830974 C6.54574494,13.8568534 6.57219239,13.7256331 6.57219239,13.7256331 C6.65153475,13.5156808 6.54574494,13.4894368 6.54574494,13.4894368 C6.38706021,13.5156808 6.41350767,13.6731451 6.41350767,13.6731451 C6.3341653,13.6993891 6.25482294,13.6731451 6.25482294,13.6731451 C6.28127039,13.6731451 6.3341653,13.620657 6.3341653,13.620657 C6.38706021,13.5681689 6.30771785,13.4369487 6.30771785,13.4369487 C6.36061276,13.4894368 6.54574494,13.4894368 6.54574494,13.4894368 C6.65153475,13.4894368 6.57219239,13.3844606 6.57219239,13.3844606 L6.51929748,13.4107047 C6.51929748,13.3844606 6.46640257,13.2532404 6.46640257,13.2532404 C6.49285003,13.2794845 6.51929748,13.3582166 6.54574494,13.3844606 Z" id="Shape"></path>
                                    <path d="M7.2069313,13.6731451 C7.2069313,13.6731451 7.18048384,13.6993891 7.12758893,13.8306093 C7.12758893,13.8306093 7.10114148,13.8568534 7.10114148,13.8830974 C7.07469402,13.9355855 7.04824657,13.9355855 6.99535166,13.9355855 C6.94245675,13.9093414 6.86311439,13.9093414 6.81021948,13.9093414 L6.70442966,13.9093414 C6.67798221,13.9093414 6.65153475,13.8830974 6.65153475,13.8568534 C6.67798221,13.8043653 6.70442966,13.7518772 6.81021948,13.7256331 C6.81021948,13.7256331 6.9160093,13.6993891 6.94245675,13.7256331 C6.94245675,13.7256331 6.78377203,13.6731451 6.67798221,13.7781212 C6.67798221,13.7781212 6.57219239,13.8830974 6.65153475,13.9355855 C6.65153475,13.9355855 6.9160093,13.9355855 6.9160093,13.9618295 C6.9160093,13.9618295 7.02179911,14.0143176 7.07469402,13.9355855 C7.07469402,13.9355855 7.10114148,13.8306093 7.2069313,13.8306093 C7.2069313,13.8306093 7.18048384,13.8043653 7.12758893,13.8043653 C7.15403639,13.8043653 7.15403639,13.7256331 7.2069313,13.6731451 Z" id="Shape"></path>
                                    <path d="M7.01449046,13.9376292 C6.96890421,13.9942048 7.06007671,14.1356439 7.06007671,14.1356439 C7.01449046,14.1073561 7.01449046,14.0790683 7.01449046,14.0790683 C7.01449046,14.1073561 6.96890421,14.1073561 6.96890421,14.1073561 C7.01449046,14.0224927 6.96890421,13.9093414 6.96890421,13.9093414 L7.01449046,13.9093414 L7.01449046,13.9376292 Z" id="Shape"></path>
                                    <path d="M6.75001592,14.0709185 L6.75001592,14.0709185 C6.70442966,14.0386031 6.70442966,14.0386031 6.70442966,14.0709185 C6.75001592,14.0062877 6.75001592,13.9093414 6.75001592,13.9093414 L6.79560217,13.9093414 C6.84118842,13.9739723 6.75001592,14.0709185 6.75001592,14.0709185 Z" id="Shape"></path>
                                    <rect id="Rectangle-path" x="6.12258567" y="12.2297228" width="0.846318537" height="0.57736889"></rect>
                                    <path d="M0.171908453,12.5708954 L1.33559644,12.5708954 C1.33559644,12.5708954 1.3620439,9.6053188 1.20335917,9.02794991 C1.20335917,9.02794991 1.15046426,8.45058102 1.30914899,7.97818829 C1.12401681,6.19359354 0.595067722,4.61895112 0.568620267,4.59270708 C0.568620267,4.59270708 -0.0132237271,6.06237334 0.171908453,12.5708954 Z" id="Shape"></path>
                                    <path d="M7.15403639,12.5708954 L5.9903484,12.5708954 C5.9903484,12.5708954 5.96390094,9.6053188 6.12258567,9.02794991 C6.12258567,9.02794991 6.17548058,8.45058102 6.01679585,7.97818829 C6.22837549,6.19359354 6.73087712,4.61895112 6.75732457,4.56646304 C6.75732457,4.59270708 7.33916857,6.06237334 7.15403639,12.5708954 Z" id="Shape"></path>
                                    <ellipse id="Oval" cx="3.66297242" cy="3.25426101" rx="0.766976175" ry="0.813565254"></ellipse>
                                    <path d="M2.9224437,3.12304081 C2.9224437,3.12304081 2.76375897,3.8316299 3.66297242,4.09407031 C3.66297242,4.09407031 3.16047079,4.19904647 2.94889115,4.8026594 C2.9224437,4.8026594 2.3405997,3.88411798 2.9224437,3.12304081 Z" id="Shape"></path>
                                    <path d="M4.40350114,3.12304081 C4.40350114,3.12304081 4.56218587,3.8316299 3.66297242,4.09407031 C3.66297242,4.09407031 4.16547405,4.19904647 4.37705369,4.8026594 C4.37705369,4.8026594 4.95889768,3.88411798 4.40350114,3.12304081 Z" id="Shape"></path>
                                    <path d="M2.57862679,2.49318384 C2.68441661,2.80811233 2.71086407,2.99182061 2.73731152,3.01806465 L2.73731152,3.01806465 C2.97533861,3.35923718 3.29270806,3.5691895 3.63652497,3.5691895 C3.95389442,3.5691895 4.24481641,3.38548122 4.4828435,3.07055273 C4.98534513,2.44069576 4.64152823,1.31220202 4.64152823,1.31220202 C4.37705369,1.60088647 3.5571826,1.62713051 3.5571826,1.62713051 C3.90099951,1.57464243 3.95389442,1.31220202 3.98034187,1.28595798 C3.90099951,1.44342222 3.13402333,1.57464243 3.13402333,1.57464243 C2.31415225,1.70586263 2.57862679,2.49318384 2.57862679,2.49318384 Z" id="Shape"></path>
                                    <path d="M4.11257914,0.131220202 C4.11257914,0.131220202 3.00178606,-0.314928485 2.41994207,0.682345051 C1.81165062,1.75835071 2.57862679,2.91308849 2.73731152,3.01806465 C2.73731152,3.01806465 2.68441661,2.83435637 2.57862679,2.4669398 C2.57862679,2.4669398 2.31415225,1.67961859 3.13402333,1.54839839 C3.13402333,1.54839839 3.92744696,1.44342222 3.98034187,1.25971394 C3.98034187,1.25971394 3.92744696,1.54839839 3.5571826,1.60088647 C3.5571826,1.60088647 4.37705369,1.57464243 4.64152823,1.28595798 C4.64152823,1.28595798 4.98534513,2.44069576 4.4828435,3.04430869 C4.4828435,3.04430869 5.35560949,2.3357196 5.24981968,1.25971394 C5.24981968,1.31220202 5.30271459,-0.157464243 4.11257914,0.131220202 Z" id="Shape"></path>
                                </g>
                                <g id="Group" transform="translate(9.216601, 27.516339)" fill="#324A5E">
                                    <path d="M2.56540307,0.957907476 C2.56540307,0.957907476 2.75053525,1.58776445 2.4860607,1.77147273 C2.4860607,1.77147273 2.22158616,1.82396081 2.24803361,2.19137738 C2.24803361,2.19137738 2.24803361,2.58503798 1.71908453,2.55879394 C1.71908453,2.55879394 0.317369452,2.71625819 0.132237271,2.4013297 C0.132237271,2.4013297 -0.0264474543,2.21762142 0.0793423629,1.92893697 L1.69263707,1.32532404 L2.56540307,0.957907476 Z" id="Shape"></path>
                                    <path d="M2.35382343,0.0131220202 C2.35382343,0.0131220202 2.96211488,0.511758788 2.51250816,1.19410384 C2.51250816,1.19410384 2.19513871,1.61400849 2.19513871,1.85020485 C2.19513871,1.85020485 2.24803361,2.5325499 1.50750489,2.37508566 C1.50750489,2.37508566 0.766976175,1.85020485 0.290921997,2.29635354 C0.290921997,2.29635354 -0.0793423629,2.2701095 0.105789817,1.77147273 C0.105789817,1.77147273 0.528949086,1.24659192 0.766976175,0.774199193 C0.766976175,0.774199193 0.9256609,0.669223031 0.846318537,0.301806465 L2.35382343,0.0131220202 Z" id="Shape"></path>
                                    <path d="M4.02001305,0.957907476 C4.02001305,0.957907476 3.83488087,1.58776445 4.09935542,1.77147273 C4.09935542,1.77147273 4.36382996,1.82396081 4.3373825,2.19137738 C4.3373825,2.19137738 4.3373825,2.58503798 4.86633159,2.55879394 C4.86633159,2.55879394 6.26804667,2.71625819 6.45317885,2.4013297 C6.45317885,2.4013297 6.61186357,2.21762142 6.50607376,1.92893697 L4.89277904,1.32532404 L4.02001305,0.957907476 Z" id="Shape"></path>
                                    <path d="M4.23159269,0.0131220202 C4.23159269,0.0131220202 3.62330124,0.511758788 4.07290796,1.19410384 C4.07290796,1.19410384 4.39027741,1.61400849 4.39027741,1.85020485 C4.39027741,1.85020485 4.3373825,2.5325499 5.07791122,2.37508566 C5.07791122,2.37508566 5.81843994,1.85020485 6.29449412,2.29635354 C6.29449412,2.29635354 6.66475848,2.2701095 6.4796263,1.77147273 C6.4796263,1.77147273 6.05646703,1.24659192 5.81843994,0.774199193 C5.81843994,0.774199193 5.65975522,0.669223031 5.73909758,0.301806465 L4.23159269,0.0131220202 Z" id="Shape"></path>
                                </g>
                                <polygon id="Shape" fill="#E6E9EE" points="11.0414753 5.06456265 12.4431903 10.470835 13.818458 5.06456265"></polygon>
                                <polygon id="Shape" fill="#F1543F" points="12.8399021 5.66817558 13.0250343 5.06456265 11.9935836 5.06456265 12.1787158 5.66817558"></polygon>
                                <polygon id="Shape" fill="#FF7058" points="12.8399021 5.66817558 12.5225327 5.66817558 12.1787158 5.66817558 11.4646345 9.76224588 12.5225327 10.470835 13.5539834 9.76224588"></polygon>
                                <g id="Group" transform="translate(9.547194, 12.622846)" fill="#2B3B4E">
                                    <path d="M0.330593179,0.0262440404 C0.0661186357,1.44342222 -0.198355907,3.96285011 0.27769827,6.87593859 C0.27769827,6.87593859 0.700857539,13.620657 0.304145724,15.1165673 C0.304145724,15.1165673 1.09756935,16.5337455 2.52573189,15.1165673 C2.52573189,15.1165673 2.57862679,4.01533819 2.94889115,3.5691895 L2.94889115,0.0262440404 L0.330593179,0.0262440404 L0.330593179,0.0262440404 Z" id="Shape"></path>
                                    <path d="M2.94889115,0.0262440404 L2.94889115,3.5691895 C3.31915551,4.04158223 3.37205042,15.1165673 3.37205042,15.1165673 C4.80021295,16.5337455 5.59363658,15.1165673 5.59363658,15.1165673 C5.19692477,13.620657 5.62008404,6.87593859 5.62008404,6.87593859 C6.09613821,3.93660607 5.80521622,1.41717818 5.56718913,0.0262440404 L2.94889115,0.0262440404 L2.94889115,0.0262440404 Z" id="Shape"></path>
                                </g>
                                <polygon id="Shape" fill="#CED5E0" points="13.6068783 4.32972951 11.3852922 4.32972951 11.0679227 5.06456265 13.7920105 5.06456265"></polygon>
                                <path d="M11.1737125,4.80212224 L8.68765183,5.69441962 C8.68765183,5.69441962 10.1951567,10.2346386 9.53397036,13.2789473 C9.53397036,13.2789473 9.26949582,14.8273457 9.48107545,16.0083275 C9.48107545,16.0083275 11.20016,17.2417974 11.8877938,16.0870596 C11.8877938,16.0870596 12.7605598,13.3576794 12.6283225,10.6807873 L11.8613463,8.6075081 L11.1737125,4.80212224 Z" id="Shape" fill="#324A5E"></path>
                                <path d="M11.3852922,4.32972951 L10.1687093,5.61568749 L10.618316,5.82563982 L10.2744991,6.1405683 C10.2744991,6.1405683 11.4117396,9.55229356 12.5754276,10.7332754 C12.5754276,10.7070313 11.3323973,5.43197921 11.3852922,4.32972951 Z" id="Shape" fill="#2B3B4E"></path>
                                <path d="M13.8449054,4.80212224 L16.3309661,5.69441962 C16.3309661,5.69441962 14.8234612,10.2346386 15.4846476,13.2789473 C15.4846476,13.2789473 15.7491221,14.8273457 15.5375425,16.0083275 C15.5375425,16.0083275 13.818458,17.2417974 13.1308241,16.0870596 C13.1308241,16.0870596 12.2580582,13.3576794 12.3902954,10.6807873 L13.1572716,8.6075081 L13.8449054,4.80212224 Z" id="Shape" fill="#324A5E"></path>
                                <g id="Group" transform="translate(12.390295, 4.290363)" fill="#2B3B4E">
                                    <path d="M1.2165829,0.0393660607 L2.4331658,1.32532404 L1.98355907,1.50903233 L2.32737598,1.82396081 C2.32737598,1.82396081 1.19013544,5.23568607 0.0264474543,6.41666789 C0.0264474543,6.41666789 1.29592526,1.14161576 1.2165829,0.0393660607 Z" id="Shape"></path>
                                    <ellipse id="Oval" cx="0.449606723" cy="6.67910829" rx="0.238027089" ry="0.236196364"></ellipse>
                                </g>
                                <polygon id="Shape" fill="#FFFFFF" points="14.0300376 8.97492467 14.4267494 8.26633558 15.0879358 8.73872831"></polygon>
                                <rect id="Rectangle-path" fill="#2B3B4E" transform="translate(14.480095, 8.587486) rotate(168.216987) translate(-14.480095, -8.587486) " x="13.7792904" y="8.08748573" width="1.40160891" height="0.341162777"></rect>
                                <g id="Group" transform="translate(15.630109, 15.575301)" fill="#FFD05B">
                                    <path d="M0.83309481,0.0656101011 C0.859542265,0.328050505 0.859542265,0.511758788 0.859542265,0.511758788 C0.938884627,0.59049091 1.12401681,0.826687274 1.12401681,0.826687274 C1.46783371,1.11537172 1.28270153,1.32532404 1.28270153,1.32532404 L1.30914899,1.53527637 C1.38849135,1.64025253 1.33559644,1.79771677 1.33559644,1.79771677 C1.15046426,2.1388893 1.01822699,1.85020485 1.01822699,1.85020485 C0.806647356,2.08640121 0.700857539,1.79771677 0.700857539,1.79771677 C0.46283045,1.90269293 0.383488087,1.66649657 0.383488087,1.66649657 C0.383488087,1.66649657 -0.0396711814,1.71898465 0.0661186357,0.774199193 C0.09256609,0.564246869 0.09256609,0.301806465 0.0661186357,0.0393660607 L0.83309481,0.0393660607 L0.83309481,0.0656101011 L0.83309481,0.0656101011 Z" id="Shape"></path>
                                    <path d="M0.46283045,1.01039556 C0.46283045,0.957907476 0.489277904,0.826687274 0.489277904,0.826687274 C0.436382996,1.01039556 0.64796263,1.14161576 0.64796263,1.14161576 C0.621515176,1.14161576 0.621515176,1.01039556 0.621515176,1.01039556 C0.64796263,1.1678598 0.938884627,1.29908 0.938884627,1.29908 C0.991779536,1.19410384 1.0711219,1.11537172 1.0711219,1.11537172 C0.991779536,1.19410384 0.991779536,1.29908 0.991779536,1.29908 C1.04467444,1.29908 1.09756935,1.35156808 1.09756935,1.35156808 C1.01822699,1.29908 0.991779536,1.35156808 0.991779536,1.35156808 C1.12401681,1.37781212 1.0711219,1.50903233 1.0711219,1.50903233 C1.0711219,1.37781212 0.991779536,1.40405616 0.991779536,1.40405616 C1.0711219,1.45654424 1.04467444,1.53527637 1.04467444,1.53527637 C1.04467444,1.4303002 0.912437173,1.4303002 0.912437173,1.4303002 C0.965332082,1.35156808 0.938884627,1.35156808 0.938884627,1.35156808 C0.83309481,1.19410384 0.780199902,1.37781212 0.753752447,1.4303002 C0.727304993,1.4303002 0.727304993,1.4303002 0.700857539,1.45654424 C0.780199902,1.29908 0.700857539,1.27283596 0.700857539,1.27283596 C0.595067722,1.1678598 0.568620267,1.32532404 0.568620267,1.32532404 C0.568620267,1.58776445 0.383488087,1.69274061 0.383488087,1.69274061 L0.330593179,1.69274061 C0.436382996,1.64025253 0.489277904,1.50903233 0.489277904,1.50903233 C0.595067722,1.24659192 0.46283045,1.22034788 0.46283045,1.22034788 C0.251250816,1.19410384 0.304145724,1.37781212 0.304145724,1.37781212 C0.224803361,1.40405616 0.119013544,1.40405616 0.119013544,1.40405616 C0.171908453,1.37781212 0.198355907,1.35156808 0.198355907,1.35156808 C0.27769827,1.27283596 0.145460999,1.14161576 0.145460999,1.14161576 C0.198355907,1.19410384 0.436382996,1.19410384 0.436382996,1.19410384 C0.542172813,1.19410384 0.46283045,1.06288364 0.46283045,1.06288364 L0.409935542,1.08912768 C0.409935542,1.06288364 0.357040633,0.905419395 0.357040633,0.905419395 C0.409935542,0.879175355 0.46283045,0.984151516 0.46283045,1.01039556 Z" id="Shape"></path>
                                    <path d="M1.30914899,1.37781212 C1.30914899,1.37781212 1.25625408,1.40405616 1.20335917,1.56152041 C1.20335917,1.56152041 1.17691172,1.58776445 1.17691172,1.64025253 C1.15046426,1.69274061 1.09756935,1.71898465 1.04467444,1.69274061 C0.965332082,1.66649657 0.885989719,1.64025253 0.806647356,1.66649657 L0.674410084,1.66649657 C0.621515176,1.66649657 0.595067722,1.64025253 0.621515176,1.58776445 C0.64796263,1.53527637 0.700857539,1.45654424 0.806647356,1.4303002 C0.806647356,1.4303002 0.938884627,1.40405616 0.991779536,1.4303002 C0.991779536,1.4303002 0.780199902,1.35156808 0.674410084,1.48278828 C0.674410084,1.48278828 0.542172813,1.61400849 0.64796263,1.66649657 C0.64796263,1.66649657 0.965332082,1.66649657 0.991779536,1.69274061 C0.991779536,1.69274061 1.12401681,1.74522869 1.17691172,1.66649657 C1.17691172,1.66649657 1.20335917,1.53527637 1.33559644,1.56152041 C1.33559644,1.56152041 1.28270153,1.53527637 1.22980662,1.53527637 C1.22980662,1.53527637 1.25625408,1.45654424 1.30914899,1.37781212 Z" id="Shape"></path>
                                    <path d="M1.03024856,1.69274061 C0.997790321,1.74522869 1.09516504,1.92893697 1.09516504,1.92893697 L1.03024856,1.87644889 C0.997790321,1.90269293 0.997790321,1.90269293 0.965332082,1.92893697 C0.997790321,1.85020485 0.965332082,1.71898465 0.965332082,1.71898465 L1.03024856,1.71898465 L1.03024856,1.69274061 Z" id="Shape"></path>
                                    <path d="M0.738846083,1.86646049 C0.700857539,1.86646049 0.700857539,1.83414506 0.738846083,1.86646049 L0.700857539,1.83414506 C0.738846083,1.76951422 0.738846083,1.64025253 0.738846083,1.64025253 L0.814823172,1.64025253 C0.814823172,1.76951422 0.738846083,1.86646049 0.738846083,1.86646049 Z" id="Shape"></path>
                                </g>
                                <rect id="Rectangle-path" fill="#FFFFFF" x="15.5639899" y="15.1422742" width="1.03145072" height="0.708589092"></rect>
                                <g id="Group" transform="translate(8.026465, 15.575301)" fill="#FFD05B">
                                    <path d="M0.55539654,0.0656101011 C0.528949086,0.328050505 0.528949086,0.511758788 0.528949086,0.511758788 C0.449606723,0.59049091 0.264474543,0.826687274 0.264474543,0.826687274 C-0.0793423629,1.11537172 0.105789817,1.32532404 0.105789817,1.32532404 L0.0793423629,1.53527637 C3.03368441e-14,1.64025253 0.0528949086,1.79771677 0.0528949086,1.79771677 C0.238027089,2.1388893 0.37026436,1.85020485 0.37026436,1.85020485 C0.581843994,2.08640121 0.687633812,1.79771677 0.687633812,1.79771677 C0.9256609,1.90269293 1.00500326,1.66649657 1.00500326,1.66649657 C1.00500326,1.66649657 1.42816253,1.71898465 1.32237271,0.774199193 C1.29592526,0.564246869 1.29592526,0.301806465 1.32237271,0.0393660607 L0.55539654,0.0393660607 L0.55539654,0.0656101011 L0.55539654,0.0656101011 Z" id="Shape"></path>
                                    <path d="M0.9256609,1.01039556 C0.9256609,0.957907476 0.899213446,0.826687274 0.899213446,0.826687274 C0.952108355,1.01039556 0.74052872,1.14161576 0.74052872,1.14161576 C0.766976175,1.14161576 0.766976175,1.01039556 0.766976175,1.01039556 C0.74052872,1.1678598 0.449606723,1.29908 0.449606723,1.29908 C0.396711814,1.19410384 0.317369452,1.11537172 0.317369452,1.11537172 C0.396711814,1.19410384 0.396711814,1.29908 0.396711814,1.29908 C0.343816906,1.29908 0.290921997,1.35156808 0.290921997,1.35156808 C0.37026436,1.29908 0.396711814,1.35156808 0.396711814,1.35156808 C0.264474543,1.37781212 0.317369452,1.50903233 0.317369452,1.50903233 C0.317369452,1.37781212 0.396711814,1.40405616 0.396711814,1.40405616 C0.317369452,1.45654424 0.343816906,1.53527637 0.343816906,1.53527637 C0.343816906,1.4303002 0.476054177,1.4303002 0.476054177,1.4303002 C0.423159269,1.35156808 0.449606723,1.35156808 0.449606723,1.35156808 C0.55539654,1.19410384 0.608291449,1.37781212 0.634738903,1.4303002 C0.661186357,1.4303002 0.661186357,1.4303002 0.687633812,1.45654424 C0.608291449,1.29908 0.687633812,1.27283596 0.687633812,1.27283596 C0.793423629,1.1678598 0.819871083,1.32532404 0.819871083,1.32532404 C0.819871083,1.58776445 1.00500326,1.69274061 1.00500326,1.69274061 L1.05789817,1.69274061 C0.952108355,1.64025253 0.899213446,1.50903233 0.899213446,1.50903233 C0.793423629,1.24659192 0.9256609,1.22034788 0.9256609,1.22034788 C1.13724053,1.19410384 1.08434563,1.37781212 1.08434563,1.37781212 C1.16368799,1.40405616 1.26947781,1.40405616 1.26947781,1.40405616 C1.2165829,1.37781212 1.19013544,1.35156808 1.19013544,1.35156808 C1.11079308,1.27283596 1.24303035,1.14161576 1.24303035,1.14161576 C1.19013544,1.19410384 0.952108355,1.19410384 0.952108355,1.19410384 C0.846318537,1.19410384 0.9256609,1.06288364 0.9256609,1.06288364 L0.978555809,1.08912768 C0.978555809,1.06288364 1.03145072,0.905419395 1.03145072,0.905419395 C0.978555809,0.879175355 0.9256609,0.984151516 0.9256609,1.01039556 Z" id="Shape"></path>
                                    <path d="M0.0793423629,1.37781212 C0.0793423629,1.37781212 0.132237271,1.40405616 0.18513218,1.56152041 C0.18513218,1.56152041 0.211579634,1.58776445 0.211579634,1.64025253 C0.238027089,1.69274061 0.290921997,1.71898465 0.343816906,1.69274061 C0.423159269,1.66649657 0.502501632,1.64025253 0.581843994,1.66649657 L0.714081266,1.66649657 C0.766976175,1.66649657 0.793423629,1.64025253 0.766976175,1.58776445 C0.74052872,1.53527637 0.687633812,1.45654424 0.581843994,1.4303002 C0.581843994,1.4303002 0.449606723,1.40405616 0.396711814,1.4303002 C0.396711814,1.4303002 0.608291449,1.35156808 0.714081266,1.48278828 C0.714081266,1.48278828 0.846318537,1.61400849 0.74052872,1.66649657 C0.74052872,1.66649657 0.423159269,1.66649657 0.396711814,1.69274061 C0.396711814,1.69274061 0.264474543,1.74522869 0.211579634,1.66649657 C0.211579634,1.66649657 0.18513218,1.53527637 0.0528949086,1.56152041 C0.0528949086,1.56152041 0.105789817,1.53527637 0.158684726,1.53527637 C0.158684726,1.53527637 0.132237271,1.45654424 0.0793423629,1.37781212 Z" id="Shape"></path>
                                    <path d="M0.38228593,1.69274061 C0.41474417,1.74522869 0.317369452,1.92893697 0.317369452,1.92893697 C0.349827691,1.90269293 0.38228593,1.87644889 0.38228593,1.87644889 C0.41474417,1.90269293 0.41474417,1.90269293 0.447202409,1.92893697 C0.41474417,1.85020485 0.447202409,1.71898465 0.447202409,1.71898465 L0.38228593,1.71898465 L0.38228593,1.69274061 Z" id="Shape"></path>
                                    <path d="M0.684268538,1.86646049 C0.722257082,1.86646049 0.722257082,1.83414506 0.684268538,1.86646049 L0.722257082,1.83414506 C0.684268538,1.76951422 0.684268538,1.64025253 0.684268538,1.64025253 L0.608291449,1.64025253 C0.608291449,1.76951422 0.684268538,1.86646049 0.684268538,1.86646049 Z" id="Shape"></path>
                                </g>
                                <rect id="Rectangle-path" fill="#FFFFFF" x="8.42317728" y="15.1422742" width="1.03145072" height="0.708589092"></rect>
                                <g id="Group" transform="translate(8.092584, 5.668176)" fill="#324A5E">
                                    <path d="M8.74088364,9.89400324 L7.28627366,9.89400324 C7.28627366,9.89400324 7.2598262,6.21983758 7.44495838,5.51124849 C7.44495838,5.51124849 7.49785329,4.77641536 7.33916857,4.22529051 C7.60364311,2.02079111 8.23838201,0.0524880809 8.23838201,0.0262440404 C8.23838201,0.0262440404 8.95246328,1.83708283 8.74088364,9.89400324 Z" id="Shape"></path>
                                    <path d="M0.09256609,9.89400324 L1.54717608,9.89400324 C1.54717608,9.89400324 1.57362353,6.21983758 1.38849135,5.51124849 C1.38849135,5.51124849 1.33559644,4.77641536 1.49428117,4.22529051 C1.22980662,2.02079111 0.595067722,0.0524880809 0.595067722,0.0262440404 C0.595067722,0.0262440404 -0.145460999,1.83708283 0.09256609,9.89400324 Z" id="Shape"></path>
                                </g>
                                <ellipse id="Oval" fill="#F9B54C" cx="12.5225327" cy="4.06728911" rx="0.952108355" ry="1.02351758"></ellipse>
                                <g id="Group" transform="translate(11.266279, 3.831093)" fill="#FFFFFF">
                                    <path d="M2.15546752,0.0262440404 C2.15546752,0.0262440404 2.3405997,0.918541415 1.22980662,1.2334699 C1.22980662,1.2334699 1.86454553,1.3646901 2.12902007,2.12576728 C2.15546752,2.12576728 2.86954879,0.971029496 2.15546752,0.0262440404 Z" id="Shape"></path>
                                    <path d="M0.330593179,0.0262440404 C0.330593179,0.0262440404 0.145460999,0.918541415 1.25625408,1.2334699 C1.25625408,1.2334699 0.621515176,1.3646901 0.357040633,2.12576728 C0.357040633,2.12576728 -0.383488087,0.971029496 0.330593179,0.0262440404 Z" id="Shape"></path>
                                </g>
                                <path d="M13.8449054,3.09625961 C13.7126681,3.48992022 13.6597732,3.69987254 13.6597732,3.75236062 L13.6597732,3.75236062 C13.3688512,4.17226527 12.9721394,4.43470567 12.5489802,4.43470567 C12.1522683,4.43470567 11.782004,4.19850931 11.491082,3.83109274 C10.8563431,3.07001557 11.3059498,1.65283739 11.3059498,1.65283739 C11.6233193,2.02025395 12.6283225,2.02025395 12.6283225,2.02025395 C12.2051632,1.96776587 12.1258209,1.62659335 12.1258209,1.60034931 C12.2051632,1.81030163 13.1837191,1.94152183 13.1837191,1.94152183 C14.1887223,2.12523012 13.8449054,3.09625961 13.8449054,3.09625961 Z" id="Shape" fill="#FFD05B"></path>
                                <path d="M11.9406887,0.183171124 C11.9406887,0.183171124 13.3159563,-0.367953725 14.0300376,0.891760216 C14.7705663,2.23020628 13.8449054,3.6736285 13.6333258,3.77860466 C13.6333258,3.77860466 13.6862207,3.5424083 13.818458,3.09625961 C13.818458,3.09625961 14.1622749,2.09898608 13.1308241,1.96776587 C13.1308241,1.96776587 12.1522683,1.83654567 12.072926,1.62659335 C12.072926,1.62659335 12.1522683,1.99400991 12.5754276,2.046498 C12.5754276,2.046498 11.5704243,2.02025395 11.2530549,1.67908143 C11.2530549,1.67908143 10.8298956,3.09625961 11.4381871,3.85733679 C11.4381871,3.85733679 10.3538414,2.99128345 10.4860787,1.65283739 C10.5389736,1.65283739 10.4596313,-0.184245442 11.9406887,0.183171124 Z" id="Shape" fill="#324A5E"></path>
                            </g>
                        </g>
                    </g>
                </g>
            </g>
        </g>
    </g>
</svg>