<?xml version="1.0" encoding="UTF-8" standalone="no"?>
<svg width="43px" height="43px" viewBox="0 0 43 43" version="1.1" xmlns="http://www.w3.org/2000/svg" xmlns:xlink="http://www.w3.org/1999/xlink">
    <!-- Generator: Sketch 41 (35326) - http://www.bohemiancoding.com/sketch -->
    <title>Group 4</title>
    <desc>Created with Sketch.</desc>
    <defs>
        <linearGradient x1="50%" y1="0%" x2="50%" y2="100%" id="linearGradient-1">
            <stop stop-color="#01C3C4" offset="0%"></stop>
            <stop stop-color="#06AAC6" offset="100%"></stop>
        </linearGradient>
        <circle id="path-2" cx="20.6158885" cy="20.6158885" r="20.5"></circle>
    </defs>
    <g id="Page-1" stroke="none" stroke-width="1" fill="none" fill-rule="evenodd">
        <g id="ExSitu_mobile" transform="translate(-25.000000, -1481.000000)">
            <g id="Group-5" transform="translate(0.000000, 1467.000000)">
                <g id="Group-4" transform="translate(26.000000, 15.000000)">
                    <mask id="mask-3" fill="white">
                        <use xlink:href="#path-2"></use>
                    </mask>
                    <use id="Combined-Shape" stroke="url(#linearGradient-1)" stroke-width="1.5" fill="#FFFFFF" xlink:href="#path-2"></use>
                    <g id="forbidden-sign" mask="url(#mask-3)">
                        <g transform="translate(22.000000, 22.000000)" id="Capa_1">
                            <g>
                                <path d="M5.60054542,0 C2.51254469,0 0,2.59230801 0,5.77834051 C0,8.96437301 2.51254469,11.556681 5.60054542,11.556681 C8.68854615,11.556681 11.2010908,8.96437301 11.2010908,5.77834051 C11.2010908,2.59230801 8.68854615,0 5.60054542,0 Z M2.10020453,5.77834051 C2.10020453,5.1773931 2.2570198,4.61978324 2.50904435,4.12067908 L7.20720189,8.96798448 C6.72345478,9.2280098 6.18300214,9.38980333 5.60054542,9.38980333 C3.67045745,9.38980333 2.10020453,7.76970111 2.10020453,5.77834051 Z M8.69204649,7.43600195 L3.99388895,2.58869655 C4.47763606,2.32867123 5.0180887,2.16687769 5.60054542,2.16687769 C7.53063339,2.16687769 9.10088631,3.78697991 9.10088631,5.77834051 C9.10088631,6.37928793 8.94407104,6.93689779 8.69204649,7.43600195 Z" id="Shape" fill="#E15C5C"></path>
                            </g>
                        </g>
                    </g>
                    <g id="Group-13" mask="url(#mask-3)" fill="#F5A623">
                        <g transform="translate(7.000000, 6.000000)">
                            <path d="M14.8118896,23.6819304 L4.12277711,23.6819304 C4.12277711,23.6819304 3.18152156,23.392917 2.89447751,22.5892813 C2.60743346,21.7856456 0.0445735068,16.8551606 0.0445735068,16.8551606 C0.0445735068,16.8551606 -0.171759691,15.9967881 0.674592409,15.3901086 C1.52094451,14.7834291 3.56191327,12.4002918 3.56191327,12.4002918 L11.5034653,16.4419058 L19.8469568,12.4291049 L22.9007476,16.2013689 C22.9007476,16.2013689 18.7202148,13.9128418 15.9290771,17.263916 C13.1379395,20.6149902 14.8118896,23.6819304 14.8118896,23.6819304 Z" id="Path-6"></path>
                            <polygon id="Path-7" points="17.7695046 9.86169235 20.1143978 11.2716865 12.4381087 15.5941276"></polygon>
                            <polygon id="Path-7" transform="translate(7.024411, 12.728472) scale(-1, 1) translate(-7.024411, -12.728472) " points="8.51766265 9.86225417 10.8625558 11.2722483 3.18626673 15.5946894"></polygon>
                            <path d="M5.95783649,7.23276115 C5.95783649,7.23276115 13.0388398,5.8353677 17.3327932,7.25146155 L17.2438795,9.58644332 C17.2438795,9.58644332 16.7818086,10.6993579 15.7312196,10.8531747 C14.6806306,11.0069916 7.70662708,11.4979774 6.93304725,10.6966693 C6.15946743,9.8953611 6.5000697,10.2125456 6.05795185,9.61670105 L5.95783649,7.23276115 Z M12.6132911,8.44583928 L15.3731924,8.26521588 C15.3731924,8.26521588 15.45106,9.16094902 14.2499868,9.56589696 C13.0489136,9.9708449 12.6132911,8.44583928 12.6132911,8.44583928 Z M10.9134449,8.44583928 L8.15354359,8.26521588 C8.15354359,8.26521588 8.07567609,9.16094902 9.27674929,9.56589696 C10.4778225,9.9708449 10.9134449,8.44583928 10.9134449,8.44583928 Z" id="Combined-Shape"></path>
                            <path d="M11.4490125,1.26905894 C11.4490125,1.26905894 13.5743053,1.13342084 14.1847212,0.634930768 C14.7951371,0.136440691 16.0620982,2.4695765 16.1719372,2.76749876 C16.2817763,3.06542103 17.2055292,5.85033604 17.2055292,6.05636149 C17.2055292,6.26238693 19.5427212,6.45468804 19.6533382,6.96064223 C19.7639551,7.46659641 19.4951139,7.34789301 19.4951139,7.34789301 C19.4951139,7.34789301 15.017849,6.22233757 13.2855499,6.39730269 L10.7198895,6.33943579 C10.7198895,6.33943579 6.21788751,6.52483461 3.70403507,7.3238955 L3.42360315,7.28312381 C3.42360315,7.28312381 3.28171471,6.77829326 3.61029847,6.77829326 C3.93888222,6.77829326 5.33209602,6.22899909 5.67281497,6.22899909 C6.01353393,6.22899909 6.07491001,1.30565715 8.64632683,0.623293179 L8.92100232,0.640067358 C8.92100232,0.640067358 9.85416774,0.897458708 10.3608899,1.08325883 C10.8676121,1.26905894 11.4490125,1.26905894 11.4490125,1.26905894 Z" id="Path-10"></path>
                        </g>
                    </g>
                </g>
            </g>
        </g>
    </g>
</svg>