<?xml version="1.0" encoding="UTF-8" standalone="no"?>
<svg width="43px" height="43px" viewBox="0 0 43 43" version="1.1" xmlns="http://www.w3.org/2000/svg" xmlns:xlink="http://www.w3.org/1999/xlink">
    <!-- Generator: Sketch 41 (35326) - http://www.bohemiancoding.com/sketch -->
    <title>Group 4</title>
    <desc>Created with Sketch.</desc>
    <defs>
        <linearGradient x1="50%" y1="0%" x2="50%" y2="100%" id="linearGradient-1">
            <stop stop-color="#01C3C4" offset="0%"></stop>
            <stop stop-color="#06AAC6" offset="100%"></stop>
        </linearGradient>
        <circle id="path-2" cx="20.6131292" cy="20.6131292" r="20.5"></circle>
    </defs>
    <g id="Page-1" stroke="none" stroke-width="1" fill="none" fill-rule="evenodd">
        <g id="ExSitu_mobile" transform="translate(-25.000000, -1901.000000)">
            <g id="Group-5" transform="translate(0.000000, 1887.000000)">
                <g id="Group-4" transform="translate(26.000000, 15.000000)">
                    <mask id="mask-3" fill="white">
                        <use xlink:href="#path-2"></use>
                    </mask>
                    <use id="Combined-Shape" stroke="url(#linearGradient-1)" stroke-width="1.5" fill="#FFFFFF" xlink:href="#path-2"></use>
                    <g id="smartphone" mask="url(#mask-3)">
                        <g transform="translate(12.377358, 8.509434)" id="Capa_1">
                            <g>
                                <g id="Group">
                                    <path d="M16.201384,1.79461452 L16.201384,22.1780474 C16.201384,23.1674676 15.4017375,23.9726619 14.4191345,23.9726619 L1.8182625,23.9726619 C0.835133724,23.9726619 0.0354872687,23.1674676 0.0354872687,22.1780474 L0.0354872687,1.79461452 C0.0354872687,0.805194302 0.835133724,0 1.8182625,0 L14.4191345,0 C15.4017375,0 16.201384,0.805194302 16.201384,1.79461452 Z M15.412778,22.1780474 L15.412778,19.8074622 L0.824093241,19.8074622 L0.824093241,22.1780474 C0.824093241,22.7296664 1.26991848,23.1785847 1.8182625,23.1785847 L14.4191345,23.1785847 C14.9669527,23.1785847 15.412778,22.7296664 15.412778,22.1780474 Z M15.412778,19.013385 L15.412778,4.95927694 L0.824093241,4.95927694 L0.824093241,19.013385 L15.412778,19.013385 Z M15.412778,4.16519972 L15.412778,1.79461452 C15.412778,1.24299554 14.9669527,0.794077221 14.4191345,0.794077221 L1.8182625,0.794077221 C1.26991848,0.794077221 0.824093241,1.24299554 0.824093241,1.79461452 L0.824093241,4.16519972 L15.412778,4.16519972 Z" id="Shape" fill="#E4A896"></path>
                                    <path d="M15.412778,19.8074622 L15.412778,22.1780474 C15.412778,22.7296664 14.9669527,23.1785847 14.4191345,23.1785847 L1.8182625,23.1785847 C1.26991848,23.1785847 0.824093241,22.7296664 0.824093241,22.1780474 L0.824093241,19.8074622 L15.412778,19.8074622 L15.412778,19.8074622 Z M9.45932863,21.5184339 C9.45932863,20.7741189 8.85788514,20.1685026 8.11869848,20.1685026 C7.37951182,20.1685026 6.77806833,20.7741189 6.77806833,21.5184339 C6.77806833,22.262749 7.37951182,22.8683652 8.11869848,22.8683652 C8.85788514,22.8683652 9.45932863,22.262749 9.45932863,21.5184339 Z" id="Shape" fill="#F48C6C"></path>
                                    <path d="M15.412778,1.79461452 L15.412778,4.16519972 L0.824093241,4.16519972 L0.824093241,1.79461452 C0.824093241,1.24299554 1.26991848,0.794077221 1.8182625,0.794077221 L14.4191345,0.794077221 C14.9669527,0.794077221 15.412778,1.24299554 15.412778,1.79461452 Z M10.6422376,2.5516348 C10.6422376,2.33194011 10.4655899,2.15459619 10.2479346,2.15459619 L5.98946236,2.15459619 C5.77180711,2.15459619 5.59515937,2.33194011 5.59515937,2.5516348 C5.59515937,2.77080012 5.77180711,2.94867341 5.98946236,2.94867341 L10.2479346,2.94867341 C10.4655899,2.94867341 10.6422376,2.77080012 10.6422376,2.5516348 Z" id="Shape" fill="#F48C6C"></path>
                                    <path d="M13.7945585,10.9058566 C13.9139009,11.016498 13.9538569,11.1901362 13.8949744,11.342599 C13.8360918,11.4950619 13.6899368,11.5951156 13.527484,11.5951156 L12.4591857,11.5951156 L12.4591857,17.779389 C12.4591857,17.9985543 12.282538,18.1764276 12.0648828,18.1764276 L4.1725142,18.1764276 C3.95433321,18.1764276 3.77821121,17.9985543 3.77821121,17.779389 L3.77821121,11.5951156 L2.70938725,11.5951156 C2.54693442,11.5951156 2.40130518,11.4950619 2.34189687,11.342599 C2.28301429,11.1901362 2.32297032,11.016498 2.44283843,10.9058566 L7.85162392,5.90105252 C8.00251053,5.76129493 8.23436069,5.76129493 8.3852473,5.90105252 L13.7945585,10.9058566 Z M12.0648828,10.8010384 L12.5154396,10.8010384 L8.11869848,6.73271606 L3.72143158,10.8010384 L4.1725142,10.8010384 C4.39016944,10.8010384 4.56681718,10.9789117 4.56681718,11.198077 L4.56681718,17.3823504 L11.6705798,17.3823504 L11.6705798,11.198077 C11.6705798,10.9789117 11.8467018,10.8010384 12.0648828,10.8010384 Z" id="Shape" fill="#2BB2D1"></path>
                                    <path d="M12.5154396,10.8010384 L12.0648828,10.8010384 C11.8467018,10.8010384 11.6705798,10.9789117 11.6705798,11.198077 L11.6705798,17.3823504 L4.56681718,17.3823504 L4.56681718,11.198077 C4.56681718,10.9789117 4.39016944,10.8010384 4.1725142,10.8010384 L3.72143158,10.8010384 L8.11869848,6.73271606 L12.5154396,10.8010384 Z M10.0113528,15.2457533 L10.0113528,11.9900367 C10.0113528,11.7708713 9.83470507,11.592998 9.61704983,11.592998 L6.62034713,11.592998 C6.40269188,11.592998 6.22604415,11.7708713 6.22604415,11.9900367 L6.22604415,15.2457533 C6.22604415,15.4649186 6.40269188,15.6427919 6.62034713,15.6427919 L9.61704983,15.6427919 C9.83470507,15.6427919 10.0113528,15.4649186 10.0113528,15.2457533 Z" id="Shape" fill="#3DD0F2"></path>
                                    <path d="M10.2479346,2.15459619 C10.4655899,2.15459619 10.6422376,2.33194011 10.6422376,2.5516348 C10.6422376,2.77080012 10.4655899,2.94867341 10.2479346,2.94867341 L5.98946236,2.94867341 C5.77180711,2.94867341 5.59515937,2.77080012 5.59515937,2.5516348 C5.59515937,2.33194011 5.77180711,2.15459619 5.98946236,2.15459619 L10.2479346,2.15459619 Z" id="Shape" fill="#000000"></path>
                                    <path d="M10.0113528,11.9900367 L10.0113528,15.2457533 C10.0113528,15.4649186 9.83470507,15.6427919 9.61704983,15.6427919 L6.62034713,15.6427919 C6.40269188,15.6427919 6.22604415,15.4649186 6.22604415,15.2457533 L6.22604415,11.9900367 C6.22604415,11.7708713 6.40269188,11.592998 6.62034713,11.592998 L9.61704983,11.592998 C9.83470507,11.592998 10.0113528,11.7708713 10.0113528,11.9900367 Z M9.22274684,14.8487146 L9.22274684,12.3870753 L7.01465012,12.3870753 L7.01465012,14.8487146 L9.22274684,14.8487146 Z" id="Shape" fill="#299DB8"></path>
                                    <path d="M8.11869848,20.1685026 C8.85788514,20.1685026 9.45932863,20.7741189 9.45932863,21.5184339 C9.45932863,22.262749 8.85788514,22.8683652 8.11869848,22.8683652 C7.37951182,22.8683652 6.77806833,22.262749 6.77806833,21.5184339 C6.77806833,20.7741189 7.37951182,20.1685026 8.11869848,20.1685026 Z M8.67072266,21.5184339 C8.67072266,21.2119201 8.42310038,20.9625799 8.11869848,20.9625799 C7.81429657,20.9625799 7.5666743,21.2119201 7.5666743,21.5184339 C7.5666743,21.8249477 7.81429657,22.074288 8.11869848,22.074288 C8.42310038,22.074288 8.67072266,21.8249477 8.67072266,21.5184339 Z" id="Shape" fill="#C76E53"></path>
                                </g>
                            </g>
                        </g>
                    </g>
                </g>
            </g>
        </g>
    </g>
</svg>