<?xml version="1.0" encoding="UTF-8" standalone="no"?>
<svg width="43px" height="43px" viewBox="0 0 43 43" version="1.1" xmlns="http://www.w3.org/2000/svg" xmlns:xlink="http://www.w3.org/1999/xlink">
    <!-- Generator: Sketch 41 (35326) - http://www.bohemiancoding.com/sketch -->
    <title>Group 4</title>
    <desc>Created with Sketch.</desc>
    <defs>
        <linearGradient x1="50%" y1="0%" x2="50%" y2="100%" id="linearGradient-1">
            <stop stop-color="#01C3C4" offset="0%"></stop>
            <stop stop-color="#06AAC6" offset="100%"></stop>
        </linearGradient>
        <circle id="path-2" cx="20.6131292" cy="20.6131292" r="20.5"></circle>
    </defs>
    <g id="Page-1" stroke="none" stroke-width="1" fill="none" fill-rule="evenodd">
        <g id="ExSitu_mobile" transform="translate(-25.000000, -1691.000000)">
            <g id="Group-5" transform="translate(0.000000, 1677.000000)">
                <g id="Group-4" transform="translate(26.000000, 15.000000)">
                    <mask id="mask-3" fill="white">
                        <use xlink:href="#path-2"></use>
                    </mask>
                    <use id="Combined-Shape" stroke="url(#linearGradient-1)" stroke-width="1.5" fill="#FFFFFF" xlink:href="#path-2"></use>
                    <g id="cctv" mask="url(#mask-3)">
                        <g transform="translate(23.896468, 20.207547) scale(-1, 1) translate(-23.896468, -20.207547) translate(6.896468, 5.707547)" id="Layer_1">
                            <g transform="translate(0.000000, 0.000000)">
                                <path d="M7.65501361,23.6039348 L7.58069309,22.1467935 L11.5568409,21.9396871 L13.8682091,14.6169973 L15.2654349,15.0534 L12.8054257,22.8642692 C12.7162411,23.1527388 12.4486872,23.3598452 12.1439731,23.3746385 L7.65501361,23.6039348 Z" id="Shape" fill="#2B3B4E"></path>
                                <path d="M6.80561729,0.756966807 C2.58421172,4.17422209 0.34919834,10.1681445 0.465042181,14.9366326 C0.580886021,19.7051206 2.50829079,25.3279038 6.61927976,28.7246265 C6.68103167,28.7756492 6.7431452,28.8264458 6.80561729,28.8770174 L6.80561729,0.756966807 Z" id="Shape" fill="#FFD05B"></path>
                                <path d="M6.92667251,27.1247433 L6.92667251,27.1247433 L6.92667251,18.1599957 L6.92667251,18.1599957 C7.69217387,18.1599957 8.30903419,18.7739182 8.30903419,19.5357738 L8.30903419,25.7489652 C8.30903419,26.5108208 7.69217387,27.1247433 6.92667251,27.1247433 Z" id="Shape" fill="#324A5E"></path>
                                <path d="M13.570927,16.6362845 L13.570927,16.6362845 C12.5007116,16.0519486 12.1142448,14.7131538 12.701377,13.6480353 L14.7823515,9.87574047 L18.6544507,11.9911842 L16.5734761,15.763479 C15.986344,16.8285975 14.6411425,17.2206203 13.570927,16.6362845 Z" id="Shape" fill="#ACB3BA"></path>
                                <path d="M21.6792958,14.7797237 L25.5811232,16.9173574 C25.6182834,16.9395474 25.6703078,16.9247541 25.6926039,16.8877708 L27.6323695,13.374359 C27.6546657,13.3373757 27.6398016,13.2855991 27.6026413,13.2634091 L23.700814,11.1257754 C23.6636537,11.1035854 23.6116294,11.1183788 23.5893332,11.155362 L21.6495676,14.6687739 C21.6272715,14.7057571 21.6421356,14.7575337 21.6792958,14.7797237 Z" id="Shape" fill="#324A5E"></path>
                                <path d="M22.697487,17.205827 L9.88462923,10.2011934 C9.72855614,10.1124335 9.66909972,9.92012041 9.75828434,9.76479063 L12.9317706,4.0101919 C13.0209552,3.85486212 13.2141885,3.79568887 13.3702616,3.88444874 L26.1831194,10.8890824 C26.3391925,10.9778423 26.3986489,11.1701554 26.3094643,11.3254851 L23.135978,17.0800839 C23.0467934,17.2354136 22.8535601,17.2945869 22.697487,17.205827 Z" id="Shape" fill="#B7BDC7"></path>
                                <g id="Group" transform="translate(11.296719, 1.044133)">
                                    <path d="M0.527675696,4.22349083 L15.0127451,12.1453099 C16.9599428,13.2104284 19.3827918,12.8036123 20.8766342,11.1689512 L21.5678151,10.4144923 L2.77958747,0.140536473 C2.33366434,-0.10355319 1.77626044,0.0591732516 1.53843477,0.502972639 L0.170937197,2.98085255 C-0.0817525726,3.42465194 0.0817525726,3.97940117 0.527675696,4.22349083 Z" id="Shape" fill="#CBCDD0"></path>
                                    <ellipse id="Oval" fill="#E6E9EE" cx="3.2701029" cy="13.7873676" rx="0.914142402" ry="0.909788744"></ellipse>
                                </g>
                                <ellipse id="Oval" fill="#2C9984" cx="22.1029228" cy="14.5430307" rx="0.631724424" ry="0.628715799"></ellipse>
                            </g>
                        </g>
                    </g>
                </g>
            </g>
        </g>
    </g>
</svg>