<?xml version="1.0" encoding="UTF-8" standalone="no"?>
<svg width="43px" height="43px" viewBox="0 0 43 43" version="1.1" xmlns="http://www.w3.org/2000/svg" xmlns:xlink="http://www.w3.org/1999/xlink">
    <!-- Generator: Sketch 41 (35326) - http://www.bohemiancoding.com/sketch -->
    <title>Group 4</title>
    <desc>Created with Sketch.</desc>
    <defs>
        <linearGradient x1="50%" y1="0%" x2="50%" y2="100%" id="linearGradient-1">
            <stop stop-color="#01C3C4" offset="0%"></stop>
            <stop stop-color="#06AAC6" offset="100%"></stop>
        </linearGradient>
        <circle id="path-2" cx="20.61037" cy="20.61037" r="20.5"></circle>
    </defs>
    <g id="Page-1" stroke="none" stroke-width="1" fill="none" fill-rule="evenodd">
        <g id="ExSitu_mobile" transform="translate(-25.000000, -1621.000000)">
            <g id="Group-5" transform="translate(0.000000, 1607.000000)">
                <g id="Group-4" transform="translate(26.000000, 15.000000)">
                    <mask id="mask-3" fill="white">
                        <use xlink:href="#path-2"></use>
                    </mask>
                    <use id="Combined-Shape" stroke="url(#linearGradient-1)" stroke-width="1.5" fill="#FFFFFF" xlink:href="#path-2"></use>
                    <g id="intercom" mask="url(#mask-3)">
                        <g transform="translate(13.830189, 8.301887)" id="Capa_1">
                            <g>
                                <g id="Group">
                                    <path d="M14.3243001,1.28853844 L14.3243001,22.107106 C14.3243001,22.8183047 13.7512934,23.3950624 13.04472,23.3950624 L1.29432441,23.3950624 C0.587172855,23.3950624 0.0141661595,22.8183047 0.0141661595,22.107106 L0.0141661595,1.28853844 C0.0141661595,0.576757721 0.587172855,0 1.29432441,0 L13.04472,0 C13.7512934,0 14.3243001,0.576757721 14.3243001,1.28853844 Z M11.7657182,12.7876091 L11.7657182,10.2559279 L10.2172702,10.2559279 L6.83242544,10.2559279 L5.08276019,10.2559279 L2.57274802,10.2559279 L2.57274802,12.7876091 L4.38890749,12.7876091 L6.13857273,12.7876091 L9.52341753,12.7876091 L11.7657182,12.7876091 Z M11.7657182,18.7245471 C11.7657182,18.1460434 11.2996805,17.6775368 10.7249391,17.6775368 C10.1501978,17.6775368 9.68416007,18.1460434 9.68416007,18.7245471 C9.68416007,19.3036328 10.1501978,19.7721393 10.7249391,19.7721393 C11.2996805,19.7721393 11.7657182,19.3036328 11.7657182,18.7245471 Z M10.3780128,5.10410213 C10.3780128,3.32028537 8.94173767,1.8740261 7.16952222,1.8740261 C5.39730676,1.8740261 3.96045344,3.32028537 3.96045344,5.10410213 C3.96045344,6.8879189 5.39730676,8.33359617 7.16952222,8.33359617 C8.94173767,8.33359617 10.3780128,6.8879189 10.3780128,5.10410213 Z" id="Shape" fill="#51B7A6"></path>
                                    <path d="M1.29432441,22.4638693 C1.0985423,22.4638693 0.939303104,22.3038205 0.939303104,22.107106 L0.939303104,1.28853844 C0.939303104,1.0915329 1.0985423,0.931193091 1.29432441,0.931193091 L13.0447778,0.931193091 C13.240213,0.931193091 13.3992209,1.0914747 13.3992209,1.28853844 L13.3992209,22.107106 C13.3992209,22.3038205 13.240213,22.4638693 13.0447778,22.4638693 L1.29432441,22.4638693 L1.29432441,22.4638693 Z" id="Shape" fill="#88C9B3"></path>
                                    <path d="M10.7249391,17.6775368 C11.2996805,17.6775368 11.7657182,18.1460434 11.7657182,18.7245471 C11.7657182,19.3036328 11.2996805,19.7721393 10.7249391,19.7721393 C10.1501978,19.7721393 9.68416007,19.3036328 9.68416007,18.7245471 C9.68416007,18.1460434 10.1501978,17.6775368 10.7249391,17.6775368 Z" id="Shape" fill="#665040"></path>
                                    <rect id="Rectangle-path" fill="#51B7A6" x="1.87889531" y="9.55753309" width="10.5806756" height="3.92847085"></rect>
                                    <path d="M7.16952222,1.8740261 C8.94173767,1.8740261 10.3780128,3.32028537 10.3780128,5.10410213 C10.3780128,6.8879189 8.94173767,8.33359617 7.16952222,8.33359617 C5.39730676,8.33359617 3.96045344,6.8879189 3.96045344,5.10410213 C3.96045344,3.32028537 5.39730676,1.8740261 7.16952222,1.8740261 Z M8.86078819,5.10410213 C8.86078819,4.16359711 8.10333232,3.40176476 7.16952222,3.40176476 C6.2351339,3.40176476 5.47825624,4.16359711 5.47825624,5.10410213 C5.47825624,6.04402516 6.2351339,6.8064395 7.16952222,6.8064395 C8.10333232,6.8064395 8.86078819,6.04402516 8.86078819,5.10410213 Z" id="Shape" fill="#E77200"></path>
                                    <path d="M7.16952222,3.40176476 C8.10333232,3.40176476 8.86078819,4.16359711 8.86078819,5.10410213 C8.86078819,6.04402516 8.10333232,6.8064395 7.16952222,6.8064395 C6.2351339,6.8064395 5.47825624,6.04402516 5.47825624,5.10410213 C5.47825624,4.16359711 6.2351339,3.40176476 7.16952222,3.40176476 Z" id="Shape" fill="#7C6655"></path>
                                    <ellipse id="Oval" fill="#665040" cx="7.16952222" cy="5.10410213" rx="0.626895922" ry="0.630999718"></ellipse>
                                    <g transform="translate(2.891053, 14.608092)" id="Shape" fill="#7C6655">
                                        <g transform="translate(3.527085, 0.000000)">
                                            <path d="M0.469217894,0.886961419 C0.0853438831,0.886961419 -0.106911138,0.399190838 0.17034084,0.134091805 C0.318189288,-0.00721674646 0.549473524,-0.0245020182 0.71686549,0.0921299165 C0.855404747,0.188683 0.926755934,0.364503896 0.895127815,0.53107106 C0.856561169,0.734303952 0.675581254,0.886961419 0.469217894,0.886961419 Z"></path>
                                            <path d="M0.469217894,2.45834976 C0.0770176506,2.45834976 -0.112057212,1.94904534 0.186125989,1.69122125 C0.491652465,1.42699521 0.974169203,1.70780813 0.894780889,2.10682437 C0.854710895,2.30807848 0.673499696,2.45834976 0.469217894,2.45834976 Z"></path>
                                            <path d="M0.469217894,4.0297381 C0.283265368,4.0297381 0.117029823,3.90577302 0.0578788801,3.72971933 C-0.00115642118,3.55401483 0.0630827754,3.35223693 0.211104687,3.24235614 C0.530623859,3.0051347 0.988855752,3.30957665 0.889866099,3.69904816 C0.841296409,3.89023374 0.666387705,4.0297381 0.469217894,4.0297381 Z"></path>
                                            <path d="M0.469217894,5.60054445 C0.0780006086,5.60054445 -0.110033475,5.09822397 0.18126902,4.83795551 C0.329811321,4.70526049 0.554041388,4.69332958 0.716923311,4.80629494 C0.855578211,4.90249883 0.926755934,5.07895992 0.895185636,5.24529428 C0.856503348,5.44887637 0.675639075,5.60054445 0.469217894,5.60054445 Z"></path>
                                        </g>
                                        <g transform="translate(1.734632, 0.000000)">
                                            <path d="M0.484251369,0.886961419 C0.302808886,0.886961419 0.136920268,0.768874495 0.0758612295,0.597302168 C0.0123158856,0.418687694 0.0739531345,0.212486623 0.225675593,0.0995794612 C0.541320755,-0.135255796 0.993018868,0.158593823 0.906807669,0.54585375 C0.863094948,0.742451891 0.684427876,0.886961419 0.484251369,0.886961419 Z"></path>
                                            <path d="M0.484251369,2.45834976 C0.092108947,2.45834976 -0.0981801582,1.94916174 0.200812538,1.69122125 C0.34721546,1.56486999 0.564044431,1.55101849 0.724786975,1.65868769 C0.875295192,1.75948935 0.948438831,1.95119872 0.904437005,2.12765981 C0.856676811,2.31925279 0.680553865,2.45834976 0.484251369,2.45834976 Z"></path>
                                            <path d="M0.484251369,4.0297381 C0.0908368837,4.0297381 -0.096965916,3.51950249 0.200812538,3.26260959 C0.347504565,3.13608373 0.563697505,3.12269783 0.724786975,3.23007603 C0.878533171,3.33250727 0.951272063,3.530735 0.901603774,3.70934948 C0.849738284,3.8958209 0.677258065,4.0297381 0.484251369,4.0297381 Z"></path>
                                            <path d="M0.484251369,5.60112644 C0.29482958,5.60112644 0.124546561,5.4725054 0.0691539866,5.29098094 C0.0157851491,5.11597484 0.0813542301,4.91815451 0.229087036,4.8111255 C0.545715155,4.58187741 0.992787584,4.87369004 0.906807669,5.25996057 C0.863094948,5.45638412 0.684196592,5.60112644 0.484251369,5.60112644 Z"></path>
                                        </g>
                                        <g>
                                            <path d="M0.440885575,0.886961419 C0.0444643944,0.886961419 -0.145188679,0.367355674 0.165483871,0.113023561 C0.473265368,-0.138922369 0.943524041,0.139853562 0.865812538,0.535436027 C0.826262934,0.736922933 0.644646987,0.886961419 0.440885575,0.886961419 Z"></path>
                                            <path d="M0.440885575,2.45834976 C0.0444065733,2.45834976 -0.145015216,1.93856942 0.165483871,1.6841791 C0.47338101,1.43200038 0.943524041,1.7113001 0.865812538,2.10676617 C0.826262934,2.30825307 0.644589166,2.45834976 0.440885575,2.45834976 Z"></path>
                                            <path d="M0.440885575,4.0297381 C0.260599513,4.0297381 0.0959251369,3.91275697 0.0336518564,3.74310523 C-0.03330493,3.56059138 0.032321972,3.34793016 0.191040779,3.23618699 C0.508362751,3.01287525 0.948785758,3.30585187 0.863441875,3.68857223 C0.819671333,3.88505398 0.641062082,4.0297381 0.440885575,4.0297381 Z"></path>
                                            <path d="M0.440885575,5.60112644 C0.0357912355,5.60112644 -0.147617164,5.06289684 0.178956178,4.81630527 C0.494312234,4.57815263 0.950231284,4.87025627 0.863441875,5.26001877 C0.819786975,5.45626772 0.640830797,5.60112644 0.440885575,5.60112644 Z"></path>
                                        </g>
                                    </g>
                                    <polygon id="Shape" fill="#E77200" points="10.2172702 10.2559279 9.52341753 12.7876091 6.13857273 12.7876091 6.83242544 10.2559279"></polygon>
                                    <polygon id="Shape" fill="#E77200" points="5.08276019 10.2559279 4.38890749 12.7876091 2.57274802 12.7876091 2.57274802 10.2559279"></polygon>
                                    <polygon id="Shape" fill="#FCF4DE" points="11.7657182 10.2559279 11.7657182 12.7876091 9.52341753 12.7876091 10.2172702 10.2559279"></polygon>
                                    <polygon id="Shape" fill="#FCF4DE" points="6.83242544 10.2559279 6.13857273 12.7876091 4.38890749 12.7876091 5.08276019 10.2559279"></polygon>
                                </g>
                            </g>
                        </g>
                    </g>
                </g>
            </g>
        </g>
    </g>
</svg>