<?xml version="1.0" encoding="UTF-8" standalone="no"?>
<svg width="38px" height="53px" viewBox="0 0 38 53" version="1.1" xmlns="http://www.w3.org/2000/svg" xmlns:xlink="http://www.w3.org/1999/xlink">
    <!-- Generator: Sketch 41 (35326) - http://www.bohemiancoding.com/sketch -->
    <title>padlock</title>
    <desc>Created with Sketch.</desc>
    <defs></defs>
    <g id="Page-1" stroke="none" stroke-width="1" fill="none" fill-rule="evenodd">
        <g id="ExSitu" transform="translate(-731.000000, -626.000000)" fill="#3F3F3F">
            <g id="section2" transform="translate(176.000000, 626.000000)">
                <g id="padlock" transform="translate(555.500000, 0.000000)">
                    <g id="Layer_1">
                        <ellipse id="Oval" cx="26.89715" cy="47.0797344" rx="0.839694444" ry="0.845722656"></ellipse>
                        <ellipse id="Oval" cx="30.2560306" cy="43.6968437" rx="0.839694444" ry="0.845722656"></ellipse>
                        <path d="M21.3476639,38.043959 C22.3779083,37.1918184 22.9785417,35.927375 22.9785417,34.5627285 C22.9785417,32.0755586 20.9695444,30.0521387 18.5001028,30.0521387 C16.0306611,30.0521387 14.0216639,32.0756621 14.0216639,34.5627285 C14.0216639,35.9272715 14.6221944,37.1917148 15.6525417,38.043959 L14.7589917,43.9644316 C14.7223,44.2081074 14.7928056,44.4558203 14.9523167,44.642873 C15.1118278,44.8298223 15.3444139,44.9372715 15.5891278,44.9372715 L21.4111806,44.9372715 C21.6558944,44.9372715 21.8884806,44.8297187 22.0479917,44.642873 C22.2075028,44.4560273 22.2781111,44.2083145 22.2413167,43.9644316 L21.3476639,38.043959 Z M19.9921278,36.9473145 C19.7101056,37.126707 19.5603583,37.4572324 19.6104111,37.7893105 L20.4338667,43.2457227 L16.565825,43.2457227 L17.3892806,37.7893105 C17.4393333,37.4572324 17.2895861,37.126707 17.0075639,36.9473145 C16.1894528,36.4264238 15.7008472,35.5350508 15.7008472,34.5627285 C15.7008472,33.0082344 16.9564833,31.743584 18.4998972,31.743584 C20.0433111,31.743584 21.2989472,33.0082344 21.2989472,34.5627285 C21.29905,35.5350508 20.8104444,36.4264238 19.9921278,36.9473145 Z" id="Shape"></path>
                        <path d="M32.7752167,21.9894102 L32.1665667,21.9894102 C32.1976056,21.9011113 32.2153861,21.806498 32.2153861,21.7075371 L32.2153861,13.8139531 C32.2153861,6.19685937 26.0626972,0 18.5,0 C10.9373028,0 4.78461389,6.19685937 4.78461389,13.8138496 L4.78461389,21.9894102 L4.22478333,21.9894102 C1.90961111,21.9894102 0.0262083333,23.886334 0.0262083333,26.218127 L0.0262083333,48.7712832 C0.0262083333,51.1030762 1.90961111,53 4.22478333,53 L32.7751139,53 C35.0902861,53 36.9736889,51.1030762 36.9736889,48.7712832 L36.9736889,26.218127 C36.9737917,23.886334 35.0902861,21.9894102 32.7752167,21.9894102 Z M6.46410556,13.8138496 C6.46410556,7.12953516 11.8633306,1.69144531 18.5,1.69144531 C25.1366694,1.69144531 30.5358944,7.12943164 30.5358944,13.8137461 L30.5358944,21.7073301 C30.5358944,21.806291 30.553675,21.9009043 30.5847139,21.9892031 L10.9425444,21.9892031 L10.9425444,13.8136426 C10.9425444,9.61649805 14.3327722,6.20193164 18.5,6.20193164 C22.6672278,6.20193164 26.0574556,9.61649805 26.0574556,13.8136426 L26.0574556,19.4519316 C26.0574556,19.9189941 26.4334167,20.2976543 26.89715,20.2976543 C27.3608833,20.2976543 27.7368444,19.9189941 27.7368444,19.4519316 L27.7368444,13.8136426 C27.7368444,8.68382227 23.5932556,4.51048633 18.5,4.51048633 C13.4067444,4.51048633 9.26315556,8.68382227 9.26315556,13.8136426 L9.26315556,21.9892031 L6.46410556,21.9892031 L6.46410556,13.8138496 L6.46410556,13.8138496 Z M35.2943,48.7712832 C35.2943,50.1704004 34.1642583,51.3085547 32.7751139,51.3085547 L4.22478333,51.3085547 C2.83563889,51.3085547 1.70559722,50.1704004 1.70559722,48.7712832 L1.70559722,26.218127 C1.70559722,24.8190098 2.83563889,23.6808555 4.22478333,23.6808555 L32.7751139,23.6808555 C34.1642583,23.6808555 35.2943,24.8190098 35.2943,26.218127 L35.2943,48.7712832 Z" id="Shape"></path>
                    </g>
                </g>
            </g>
        </g>
    </g>
</svg>