<?xml version="1.0" encoding="UTF-8"?>
<svg width="43px" height="43px" viewBox="0 0 43 43" version="1.1" xmlns="http://www.w3.org/2000/svg" xmlns:xlink="http://www.w3.org/1999/xlink">
    <!-- Generator: Sketch 47.1 (45422) - http://www.bohemiancoding.com/sketch -->
    <title>Artboard 2</title>
    <desc>Created with Sketch.</desc>
    <defs>
        <linearGradient x1="0%" y1="0%" x2="101.999998%" y2="100.999999%" id="linearGradient-1">
            <stop stop-color="#645F8C" offset="0%"></stop>
            <stop stop-color="#F3408A" offset="100%"></stop>
        </linearGradient>
        <linearGradient x1="-410.022651%" y1="-821.129323%" x2="518.493529%" y2="100%" id="linearGradient-2">
            <stop stop-color="#6C5D8C" offset="0%"></stop>
            <stop stop-color="#E8428A" offset="100%"></stop>
        </linearGradient>
        <linearGradient x1="-277.026367%" y1="-14.8367746%" x2="282.720947%" y2="155.409459%" id="linearGradient-3">
            <stop stop-color="#6C5D8C" offset="0%"></stop>
            <stop stop-color="#C8498B" offset="51.4311572%"></stop>
            <stop stop-color="#E8428A" offset="100%"></stop>
        </linearGradient>
    </defs>
    <g id="desktop" stroke="none" stroke-width="1" fill="none" fill-rule="evenodd">
        <g id="Artboard-2" stroke-width="0.3" fill="url(#linearGradient-1)" fill-rule="nonzero">
            <g id="noun_1411962_cc" transform="translate(1.000000, 1.000000)">
                <path d="M7.35143899,41 C7.70962935,41 8,40.709747 8,40.3517018 L8,35.2690438 C8,34.0158855 6.98370272,33 5.73003648,33 L2.26996352,33 C1.01629728,33 1.53529834e-16,34.0158855 0,35.2690438 L0,40.3517018 C4.38656669e-17,40.709747 0.290370653,41 0.648561005,41 L7.35143899,41 Z M1.29712201,35.2690438 C1.29712201,34.7319759 1.73267799,34.2965964 2.26996352,34.2965964 L5.73003648,34.2965964 C6.26732201,34.2965964 6.70287799,34.7319759 6.70287799,35.2690438 L6.70287799,39.7034036 L1.29712201,39.7034036 L1.29712201,35.2690438 Z" id="Shape" stroke="url(#linearGradient-2)"></path>
                <path d="M18.351439,41 C18.7096293,41 19,40.7150903 19,40.3636364 L19,22.2272727 C19,20.997184 17.9837027,20 16.7300365,20 L13.2699635,20 C12.0162973,20 11,20.997184 11,22.2272727 L11,40.3636364 C11,40.7150903 11.2903707,41 11.648561,41 L18.351439,41 Z M12.3003648,22.2272727 C12.3003648,21.7000918 12.7359208,21.2727273 13.2732063,21.2727273 L16.7300365,21.2727273 C17.267322,21.2727273 17.702878,21.7000918 17.702878,22.2272727 L17.702878,39.7272727 L12.3003648,39.7272727 L12.3003648,22.2272727 Z" id="Shape" stroke="url(#linearGradient-2)"></path>
                <path d="M29.351439,41 C29.7096293,41 30,40.7038267 30,40.3384785 L30,28.3153252 C30,27.0366064 28.9837027,26 27.7300365,26 L24.2699635,26 C23.0162973,26 22,27.0366064 22,28.3153252 L22,40.3384785 C22,40.7038267 22.2903707,41 22.648561,41 L29.351439,41 Z M23.297122,28.3153252 C23.297122,27.7673029 23.732678,27.323043 24.2699635,27.323043 L27.7300365,27.323043 C28.267322,27.323043 28.702878,27.7673029 28.702878,28.3153252 L28.702878,39.676957 L23.297122,39.676957 L23.297122,28.3153252 Z" id="Shape" stroke="url(#linearGradient-2)"></path>
                <path d="M41,15.2611906 C41,14.0123695 39.9837027,13 38.7300365,13 L35.2699635,13 C34.0162973,13 33,14.0123695 33,15.2611906 L33,40.3539455 C33,40.7107516 33.2903707,41 33.648561,41 L40.351439,41 C40.7096293,41 41,40.7107516 41,40.3539455 L41,15.2611906 Z M39.702878,39.7078911 L34.297122,39.7078911 L34.297122,15.2611906 C34.297122,14.7259816 34.732678,14.2921089 35.2699635,14.2921089 L38.7300365,14.2921089 C39.267322,14.2921089 39.702878,14.7259816 39.702878,15.2611906 L39.702878,39.7078911 Z" id="Shape" stroke="url(#linearGradient-3)"></path>
                <path d="M3.95360962,27.9999972 C5.49655091,27.9975339 6.89673777,27.0878375 7.53842672,25.6709543 C8.18011567,24.2540711 7.94574917,22.5895745 6.93839177,21.4094401 L12.9848174,14.0945039 C14.635911,15.085051 16.7541736,14.725368 17.9936149,13.2440051 L22.3458885,15.882815 C21.6311245,17.7001371 22.3281181,19.7726276 23.9910383,20.7746207 C25.6539585,21.7766138 27.7912169,21.4119028 29.035719,19.9137746 C30.280221,18.4156464 30.2640701,16.2269739 28.9975972,14.7477387 L35.0472254,7.42310092 C36.8191052,8.47681389 39.0952444,7.98104103 40.2793946,6.28346605 C41.4635449,4.58589107 41.1592841,2.25481721 39.5799892,0.925018116 C38.0006943,-0.404780973 35.6750716,-0.2881237 34.2340718,1.19317861 C32.793072,2.67448093 32.7191037,5.02452742 34.0640407,6.59523899 L28.0176151,13.9101752 C26.3650227,12.9211332 24.2465132,13.2835938 23.0088176,14.7671417 L18.6533415,12.1283318 C19.3665754,10.3112315 18.6690169,8.24002416 17.0065798,7.23872776 C15.3441427,6.23743136 13.207863,6.60179994 11.963356,8.09891112 C10.718849,9.5960223 10.7337062,11.7836727 11.9984302,13.2634081 L5.95520709,20.5783444 C4.52100911,19.7240769 2.71023883,19.8700671 1.42845089,20.9433061 C0.146662955,22.0165451 -0.330652227,23.7863653 0.235207614,25.3676909 C0.801067455,26.9490164 2.28848395,28.0019784 3.95360962,27.9999972 L3.95360962,27.9999972 Z M37.0488229,1.27881317 C38.522169,1.27881317 39.716552,2.48486184 39.716552,3.97259827 C39.716552,5.4603347 38.522169,6.66638337 37.0488229,6.66638337 C35.5754768,6.66638337 34.3810938,5.4603347 34.3810938,3.97259827 C34.3828584,2.48560055 35.5762083,1.28059507 37.0488229,1.27881317 Z M26.0160176,14.6507236 C27.4893637,14.6507236 28.6837467,15.8567723 28.6837467,17.3445087 C28.6837467,18.8322451 27.4893637,20.0382938 26.0160176,20.0382938 C24.5426715,20.0382938 23.3482885,18.8322451 23.3482885,17.3445087 C23.3500532,15.857511 24.5434031,14.6525055 26.0160176,14.6507236 Z M14.9864149,7.96638531 C16.0657019,7.96638609 17.0386547,8.62305621 17.4513801,9.63005179 C17.8641056,10.6370474 17.6352784,11.7959457 16.871649,12.5661078 C16.1080197,13.3362699 14.9600569,13.5659398 13.9632981,13.147974 C12.9665393,12.7300081 12.3173901,11.7467643 12.3186858,10.6569366 C12.3222132,9.1712019 13.515048,7.9681625 14.9864149,7.96638531 Z M3.95360962,21.3285942 C5.03376839,21.3286068 6.00731986,21.9863349 6.41947178,22.9945224 C6.83162371,24.0027099 6.60102637,25.1623627 5.83540276,25.9317519 C5.06977915,26.701141 3.92024653,26.928406 2.92380632,26.5073805 C1.9273661,26.086355 1.28069367,25.1001402 1.28588051,24.009444 C1.29467826,22.5275003 2.48597489,21.3303446 3.95360962,21.3285942 Z" id="Shape" stroke="url(#linearGradient-2)"></path>
            </g>
        </g>
    </g>
</svg>