<?xml version="1.0" encoding="UTF-8"?>
<svg width="43px" height="43px" viewBox="0 0 43 43" version="1.1" xmlns="http://www.w3.org/2000/svg" xmlns:xlink="http://www.w3.org/1999/xlink">
    <!-- Generator: Sketch 47.1 (45422) - http://www.bohemiancoding.com/sketch -->
    <title>Artboard 2 Copy 3</title>
    <desc>Created with Sketch.</desc>
    <defs>
        <linearGradient x1="0%" y1="0%" x2="101.999998%" y2="100.999999%" id="linearGradient-1">
            <stop stop-color="#645F8C" offset="0%"></stop>
            <stop stop-color="#F3408A" offset="100%"></stop>
        </linearGradient>
        <linearGradient x1="-28.660966%" y1="-14.3131902%" x2="113.835509%" y2="119.259384%" id="linearGradient-2">
            <stop stop-color="#6B5D8C" offset="0%"></stop>
            <stop stop-color="#EA428B" offset="100%"></stop>
        </linearGradient>
    </defs>
    <g id="desktop" stroke="none" stroke-width="1" fill="none" fill-rule="evenodd">
        <g id="Artboard-2-Copy-3" fill-rule="nonzero" fill="url(#linearGradient-1)">
            <g id="noun_326210_cc" transform="translate(0.000000, 6.000000)">
                <g id="Group">
                    <path d="M40.3050065,0.596923828 L3.0840685,0.596923828 C2.4784839,0.596923828 1.98300559,1.08910627 1.98300559,1.6906626 L1.98300559,26.8425527 C1.98300559,26.8425527 41.3097264,26.8425527 41.4053813,26.8425527 L41.4053813,1.68997901 C41.4053813,1.08842269 40.909903,0.596923828 40.3050065,0.596923828 Z M39.0297408,25.4746957 L4.36002239,25.4746957 L4.36002239,25.4746957 C3.80773764,25.4746957 3.36002239,25.0269804 3.36002239,24.4746957 L3.36002239,2.96409729 L3.36002239,2.96409729 C3.36002239,2.41181254 3.80773764,1.96409729 4.36002239,1.96409729 L39.0297408,1.96409729 L39.0297408,1.96409729 C39.5820256,1.96409729 40.0297408,2.41181254 40.0297408,2.96409729 L40.0297408,24.4746957 L40.0297408,24.4746957 C40.0297408,25.0269804 39.5820256,25.4746957 39.0297408,25.4746957 Z" id="Shape" stroke="url(#linearGradient-2)" stroke-width="0.2"></path>
                    <path d="M42.9923125,28.8769365 L24.9420781,28.8980909 C24.8767344,29.2550909 24.5557813,29.5344545 24.15475,29.5344545 L18.8375625,29.5344545 C18.4358906,29.5344545 18.1155781,29.2550909 18.0502344,28.8980909 L0,28.8980909 L0,29.5344545 L2.05640625,30.8071818 L40.95,30.8071818 L42.9923125,29.5344545 L42.9923125,28.8980909 L42.9923125,28.8769365 Z" id="Shape" stroke="url(#linearGradient-2)" stroke-width="0.2"></path>
                    <path d="M29.3080435,13.3888823 C31.4936534,13.3888823 33.2656765,11.6286465 33.2656765,9.45757502 C33.2656765,7.28650357 31.4936534,5.52626774 29.3080435,5.52626774 C27.1224336,5.52626774 25.3504105,7.28650357 25.3504105,9.45757502 C25.3504105,11.6286465 27.1224336,13.3888823 29.3080435,13.3888823 Z M29.3080435,6.89275761 C30.7311673,6.89275761 31.8893478,8.04323408 31.8893478,9.45689143 C31.8893478,10.8705488 30.7311673,12.0210253 29.3080435,12.0210253 C27.8849197,12.0210253 26.7267391,10.8705488 26.7267391,9.45689143 C26.7267391,8.04323408 27.8842315,6.89275761 29.3080435,6.89275761 Z" id="Shape"></path>
                    <path d="M36.1353217,18.6244731 C36.1353217,14.9611318 32.1102486,14.8941403 32.1102486,14.8941403 L26.5065265,14.8941403 C26.5065265,14.8941403 22.4814534,14.939257 22.4814534,18.6244731 C22.4814534,21.8291277 22.4814534,22.0895742 22.4814534,22.1046131 L36.1353217,22.1046131 C36.1353217,22.0827383 36.1353217,21.7874289 36.1353217,18.6244731 Z M34.758993,20.7374396 L23.8577821,20.7374396 L23.8577821,18.6244731 C23.8577821,18.2409809 23.9864688,16.3242037 26.5065265,16.2613137 L32.0971735,16.2613137 C32.413729,16.2681496 34.758993,16.3952967 34.758993,18.6244731 L34.758993,20.7374396 L34.758993,20.7374396 Z" id="Shape"></path>
                    <rect id="Rectangle-path" x="8.44771845" y="11.3914419" width="1.33572694" height="2.78083082"></rect>
                    <rect id="Rectangle-path" x="10.6188769" y="9.80210273" width="1.33572694" height="4.37085355"></rect>
                    <rect id="Rectangle-path" x="12.7893471" y="8.01383985" width="1.33572694" height="6.15843285"></rect>
                    <rect id="Rectangle-path" x="14.9605056" y="6.22626055" width="1.33572694" height="7.94669573"></rect>
                    <rect id="Rectangle-path" x="17.131664" y="5.03408529" width="1.33572694" height="9.1381874"></rect>
                    <polygon id="Shape" points="11.499039 19.0640193 14.9254092 22.7013843 18.0166433 19.038043 18.7337105 19.7886213 19.6214425 16.3201022 16.3058668 17.2497802 17.0621594 18.04069 14.8689797 20.6396867 11.4426096 17.0030053 7.24618355 21.9747316 8.30113945 22.8531406"></polygon>
                </g>
            </g>
        </g>
    </g>
</svg>