<?xml version="1.0" encoding="UTF-8"?>
<svg width="43px" height="43px" viewBox="0 0 43 43" version="1.1" xmlns="http://www.w3.org/2000/svg" xmlns:xlink="http://www.w3.org/1999/xlink">
    <!-- Generator: Sketch 47.1 (45422) - http://www.bohemiancoding.com/sketch -->
    <title>Artboard 2 Copy 6</title>
    <desc>Created with Sketch.</desc>
    <defs>
        <linearGradient x1="0%" y1="0%" x2="101.999998%" y2="100.999999%" id="linearGradient-1">
            <stop stop-color="#645F8C" offset="0%"></stop>
            <stop stop-color="#F3408A" offset="100%"></stop>
        </linearGradient>
        <linearGradient x1="4.08911612%" y1="2.82437194%" x2="50%" y2="100%" id="linearGradient-2">
            <stop stop-color="#725C8C" offset="0%"></stop>
            <stop stop-color="#ED418A" offset="100%"></stop>
        </linearGradient>
    </defs>
    <g id="desktop" stroke="none" stroke-width="1" fill="none" fill-rule="evenodd">
        <g id="Artboard-2-Copy-6" fill-rule="nonzero" fill="url(#linearGradient-1)">
            <g id="browser-(2)" transform="translate(2.000000, 2.000000)">
                <path d="M0,2.205495 L0,8.80570866 L0,36.794505 L-4.4408921e-16,36.794505 C-2.94919728e-16,38.0125663 0.987433746,39 2.205495,39 L36.794505,39 L36.794505,39 C38.0125663,39 39,38.0125663 39,36.794505 L39,8.80570866 L39,2.205495 L39,2.205495 C39,0.987433746 38.0125663,-6.67843432e-16 36.794505,-4.4408921e-16 L2.205495,0 L2.205495,-4.4408921e-16 C0.987433746,-2.20334987e-16 -1.0373479e-15,0.987433746 -8.8817842e-16,2.205495 Z M36.2706149,37.7409449 L2.72938512,37.7409449 L2.72938512,37.7409449 C1.91734428,37.7409449 1.25905512,37.0826557 1.25905512,36.2706149 L1.25905512,35.2228346 L11.3238189,35.2228346 L11.9533465,35.2228346 L15.7688976,35.2228346 L34.6316929,16.3600394 C35.8600394,15.1316929 35.8600394,13.1356299 34.6316929,11.9149606 C34.0405512,11.3238189 33.2498031,10.9937008 32.405315,10.9937008 C31.5685039,10.9937008 30.7777559,11.3238189 30.178937,11.9149606 L27.9525591,14.1413386 L26.6167323,12.8055118 L21.2811024,18.1411417 L22.1716535,19.0316929 L26.6167323,14.5866142 L27.0620079,15.0318898 L11.3238189,30.7777559 L11.3238189,33.9637795 L1.25905512,33.9637795 L1.25905512,8.80570866 L37.7409449,8.80570866 L37.7409449,36.2706149 L37.7409449,36.2706149 C37.7409449,37.0826557 37.0826557,37.7409449 36.2706149,37.7409449 Z M30.6318898,18.5864173 L15.9531496,33.2651575 L13.2814961,30.5935039 L27.9602362,15.9147638 L30.6318898,18.5864173 Z M28.8507874,15.0242126 L31.0771654,12.7978346 C31.7911417,12.0838583 33.0348425,12.0838583 33.7488189,12.7978346 C34.4858268,13.5348425 34.4858268,14.7324803 33.7488189,15.4694882 L31.5224409,17.6958661 L28.8507874,15.0242126 Z M14.8860236,33.9714567 L12.582874,33.9714567 L12.582874,31.6683071 L14.8860236,33.9714567 Z M37.7409449,7.54665354 L1.25905512,7.54665354 L1.25905512,2.72938512 L1.25905512,2.72938512 C1.25905512,1.91734428 1.91734428,1.25905512 2.72938512,1.25905512 L36.2706149,1.25905512 L36.2706149,1.25905512 C37.0826557,1.25905512 37.7409449,1.91734428 37.7409449,2.72938512 L37.7409449,7.54665354 Z" id="Shape" stroke="url(#linearGradient-2)" stroke-width="0.5"></path>
                <rect id="Rectangle-path" x="3" y="4" width="18" height="1"></rect>
                <rect id="Rectangle-path" x="30" y="4" width="1" height="1"></rect>
                <rect id="Rectangle-path" x="32" y="4" width="1" height="1"></rect>
                <rect id="Rectangle-path" x="35" y="4" width="1" height="1"></rect>
            </g>
        </g>
    </g>
</svg>