<?xml version="1.0" encoding="UTF-8"?>
<svg width="43px" height="43px" viewBox="0 0 43 43" version="1.1" xmlns="http://www.w3.org/2000/svg" xmlns:xlink="http://www.w3.org/1999/xlink">
    <!-- Generator: Sketch 47.1 (45422) - http://www.bohemiancoding.com/sketch -->
    <title>Artboard 2 Copy</title>
    <desc>Created with Sketch.</desc>
    <defs>
        <linearGradient x1="0%" y1="0%" x2="101.999998%" y2="100.999999%" id="linearGradient-1">
            <stop stop-color="#645F8C" offset="0%"></stop>
            <stop stop-color="#F3408A" offset="100%"></stop>
        </linearGradient>
        <linearGradient x1="4.08911612%" y1="2.82437194%" x2="50%" y2="100%" id="linearGradient-2">
            <stop stop-color="#725C8C" offset="0%"></stop>
            <stop stop-color="#ED418A" offset="100%"></stop>
        </linearGradient>
    </defs>
    <g id="desktop" stroke="none" stroke-width="1" fill="none" fill-rule="evenodd">
        <g id="Artboard-2-Copy" fill-rule="nonzero" fill="url(#linearGradient-1)">
            <g id="analytics-(1)" transform="translate(1.000000, 2.000000)">
                <path d="M39.359913,0.0320238854 L1.55303822,0.0320238854 C0.696651805,0.0320238854 0,0.736109475 0,1.60163416 L0,30.5643352 C0,31.4297719 0.696651805,32.1339455 1.55303822,32.1339455 L15.8122463,32.1339455 L15.8122463,37.1826342 L9.65449894,37.1826342 C9.29394268,37.1826342 9.0016327,37.4780633 9.0016327,37.842467 C9.0016327,38.2068706 9.29394268,38.5022998 9.65449894,38.5022998 L31.2584522,38.5022998 C31.6190955,38.5022998 31.9113185,38.2068706 31.9113185,37.842467 C31.9113185,37.4780633 31.6190955,37.1826342 31.2584522,37.1826342 L25.1007919,37.1826342 L25.1007919,32.1338575 L39.36,32.1338575 C40.2163864,32.1338575 40.9130382,31.4297719 40.9130382,30.5642472 L40.9130382,1.60163416 C40.9129512,0.736109475 40.2162994,0.0320238854 39.359913,0.0320238854 Z M23.7950594,37.1825462 L17.1179788,37.1825462 L17.1179788,32.1338575 L23.7950594,32.1338575 L23.7950594,37.1825462 Z M39.6072187,30.5642472 C39.6072187,30.6997329 39.4939682,30.8141919 39.359913,30.8141919 L1.55303822,30.8141919 C1.41898301,30.8141919 1.30573248,30.6997329 1.30573248,30.5642472 L1.30573248,1.60163416 C1.30573248,1.46614849 1.41898301,1.35168949 1.55303822,1.35168949 L39.359913,1.35168949 C39.4939682,1.35168949 39.6072187,1.46614849 39.6072187,1.60163416 L39.6072187,30.5642472 Z" id="Shape" stroke="url(#linearGradient-2)" stroke-width="0.5"></path>
                <path d="M15.449818,12 L12.4626914,12 C11.6378462,12 11,12.2278892 11,13.0119004 C11,13.7959115 11.6378462,14 12.4626914,14 L15.449818,14 C16.2746632,14 17,13.7959115 17,13.0119004 C17,12.2278892 16.2746632,12 15.449818,12 Z" id="Shape"></path>
                <path d="M15.5019205,18 L12.5169793,18 C11.6927375,18 11,18.2238271 11,19.014348 C11,19.8048688 11.6927375,20 12.5169793,20 L15.5019205,20 C16.3261622,20 17,19.8048688 17,19.014348 C17,18.2238271 16.3261622,18 15.5019205,18 Z" id="Shape"></path>
                <path d="M29.5869064,18 L26.5649329,18 C25.7304653,18 25,18.2210179 25,19.0162351 C25,19.8114524 25.5839342,20 26.4184018,20 L29.4403753,20 C30.2748429,20 31,19.8114524 31,19.0162351 C31,18.2210179 30.421374,18 29.5869064,18 Z" id="Shape"></path>
                <path d="M29.5736717,12 L26.5628485,12 C25.7314598,12 25,12.2222336 25,13.0153981 C25,13.8085625 25.7314598,14 26.5628485,14 L29.5736717,14 C30.4050603,14 31,13.8085625 31,13.0153981 C31,12.2222336 30.4050603,12 29.5736717,12 Z" id="Shape"></path>
                <path d="M31.7286473,7 L23.3071618,7 C22.2294924,7 21.2455822,7.39393333 20.5,8.04002381 C19.7544178,7.39393333 18.7705076,7 17.6928382,7 L9.27135265,7 C6.9495491,7 6,8.82644286 6,11.0714286 L6,21.9285714 C6,24.1735571 6.9495491,26 9.27135265,26 C10.2582572,26 30.7438014,26 31.7286473,26 C34.0504509,26 35,24.1735571 35,21.9285714 L35,11.0714286 C35,8.82644286 34.0504509,7 31.7286473,7 Z M19.4735741,24.1940243 L9.27135265,24.1940243 C8.49741813,24.1940243 7.86777173,23.58521 7.86777173,22.8368814 L7.86777173,10.1631186 C7.86777173,9.41479001 8.49741813,8.80597572 9.27135265,8.80597572 L17.6928382,8.80597572 C18.4667727,8.80597572 19.4735741,9.41479001 19.4735741,10.1631186 L19.4735741,24.1940243 Z M33.1322283,22.8368814 C33.1322283,23.58521 32.5025819,24.1940243 31.7286473,24.1940243 L21.6571516,24.1940243 L21.6571516,10.1631186 C21.6571516,9.41479001 22.5332273,8.80597572 23.3071618,8.80597572 L31.7286473,8.80597572 C32.5025819,8.80597572 33.1322283,9.41479001 33.1322283,10.1631186 L33.1322283,22.8368814 Z" id="Shape"></path>
            </g>
        </g>
    </g>
</svg>