<svg xmlns="http://www.w3.org/2000/svg" xmlns:xlink="http://www.w3.org/1999/xlink" width="69" height="72" viewBox="0 0 69 72"><defs><path id="fivca" d="M299.5 1864.68l10.5-3.24-7.05-23.97a2 2 0 0 0-2.56-1.38l-23.39 7.2 3.2 10.78a3.3 3.3 0 0 1 6.25 1.3c.08 1.29-.64 2.59-1.76 3.15a3.22 3.22 0 0 1-3.2-.08l3.2 10.77 10.5-3.24a3.33 3.33 0 0 0 3.04 5.02c2.16-.16 3.52-2.34 2.96-4.37a2.92 2.92 0 0 0-1.68-1.94z"/><path id="fivcb" d="M275.57 1857.1c-.99 0-1.8.4-2.46 1.06V1847h-25.06c-1.15 0-2.05.89-2.05 2.1v24.9h11.25a3.34 3.34 0 0 1 3.12-5.66 3.56 3.56 0 0 1 2.55 2.59 3.2 3.2 0 0 1-.99 3.07h11.26v-11.24a3.3 3.3 0 0 0 3.12.97 3.32 3.32 0 0 0 2.63-2.5 3.45 3.45 0 0 0-3.37-4.13z"/><path id="fivcc" d="M288.73 1874c.82.73 1.23 1.85.99 3.06a3.21 3.21 0 0 1-2.56 2.58 3.38 3.38 0 0 1-4.2-3.22c0-.97.42-1.86 1.08-2.42h-11.2v11.2c-.73-.8-1.88-1.2-3.12-.96a3.32 3.32 0 0 0-2.63 2.5 3.35 3.35 0 0 0 3.29 4.1c.99 0 1.81-.4 2.47-1.04v11.2h25.1c1.14 0 2.05-.89 2.05-2.1V1874z"/><path id="fivcd" d="M269.9 1884.05a3.48 3.48 0 0 1 3.1.98v-11.24h-11.2a3.24 3.24 0 0 0 .97-3.1 3.22 3.22 0 0 0-2.53-2.6 3.38 3.38 0 0 0-4.18 3.26c0 .97.41 1.87 1.07 2.44H246v25.1c0 1.13.9 2.11 2.05 2.11H273v-11.32a3.37 3.37 0 0 1-5.73-3.1 3.57 3.57 0 0 1 2.62-2.53z"/><path id="fivce" d="M295.5 1870.68l10.5-3.24-7.05-23.97a2 2 0 0 0-2.56-1.38l-23.39 7.2 3.2 10.78a3.3 3.3 0 0 1 6.25 1.3c.08 1.29-.64 2.59-1.76 3.15a3.22 3.22 0 0 1-3.2-.08l3.2 10.77 10.5-3.24a3.33 3.33 0 0 0 3.04 5.02c2.16-.16 3.52-2.34 2.96-4.37a2.92 2.92 0 0 0-1.68-1.94z"/><path id="fivcf" d="M271.57 1863.1c-.99 0-1.8.4-2.46 1.06V1853h-25.06c-1.15 0-2.05.89-2.05 2.1v24.9h11.25a3.34 3.34 0 0 1 3.12-5.66 3.56 3.56 0 0 1 2.55 2.59 3.2 3.2 0 0 1-.99 3.07h11.26v-11.24a3.3 3.3 0 0 0 3.12.97 3.32 3.32 0 0 0 2.63-2.5 3.45 3.45 0 0 0-3.37-4.13z"/><path id="fivcg" d="M284.73 1880c.82.73 1.23 1.85.99 3.06a3.21 3.21 0 0 1-2.56 2.58 3.38 3.38 0 0 1-4.2-3.22c0-.97.42-1.86 1.08-2.42h-11.2v11.2c-.73-.8-1.88-1.2-3.12-.96a3.32 3.32 0 0 0-2.63 2.5 3.35 3.35 0 0 0 3.29 4.1c.99 0 1.81-.4 2.47-1.04v11.2h25.1c1.14 0 2.05-.89 2.05-2.1V1880z"/><path id="fivch" d="M265.9 1890.05a3.48 3.48 0 0 1 3.1.98v-11.24h-11.2a3.24 3.24 0 0 0 .97-3.1 3.22 3.22 0 0 0-2.53-2.6 3.38 3.38 0 0 0-4.18 3.26c0 .97.41 1.87 1.07 2.44H242v25.1c0 1.13.9 2.11 2.05 2.11H269v-11.32a3.37 3.37 0 0 1-5.73-3.1 3.57 3.57 0 0 1 2.62-2.53z"/></defs><g><g transform="translate(-241 -1836)"><use fill="#ffeff0" xlink:href="#fivca"/></g><g transform="translate(-241 -1836)"><use fill="#ffeff0" xlink:href="#fivcb"/></g><g transform="translate(-241 -1836)"><use fill="#ffeff0" xlink:href="#fivcc"/></g><g transform="translate(-241 -1836)"><use fill="#ffeff0" xlink:href="#fivcd"/></g><g transform="translate(-241 -1836)"><use fill="#fff" fill-opacity="0" stroke="#859dba" stroke-miterlimit="50" stroke-width="2" xlink:href="#fivce"/></g><g transform="translate(-241 -1836)"><use fill="#fff" fill-opacity="0" stroke="#859dba" stroke-miterlimit="50" stroke-width="2" xlink:href="#fivcf"/></g><g transform="translate(-241 -1836)"><use fill="#fff" fill-opacity="0" stroke="#859dba" stroke-miterlimit="50" stroke-width="2" xlink:href="#fivcg"/></g><g transform="translate(-241 -1836)"><use fill="#fff" fill-opacity="0" stroke="#859dba" stroke-miterlimit="50" stroke-width="2" xlink:href="#fivch"/></g></g></svg>