<svg xmlns="http://www.w3.org/2000/svg" xmlns:xlink="http://www.w3.org/1999/xlink" width="76" height="72" viewBox="0 0 76 72"><defs><path id="hyyea" d="M272.58 1280.45h-8.87l15.28-14.98 15.2 14.9h-9v12.57l-.11.1c-3.44 3.29-5.38 5.32-5.76 6l-.26.46-.35-.39c-2.61-2.93-4.63-4.82-6.02-5.67l-.18-.1z"/><path id="hyyeb" d="M255.74 1309.48l-9.25-18.96 19.96-8.8-3.2 8.12c6.63 3.93 11.6 7.94 14.89 12.04l.17.22-.15.22c-3.3 4.93-5.23 8.92-5.79 11.95l-.18.96-.5-.83c-3.68-6-8-10.25-12.97-12.77z"/><path id="hyyec" d="M285.45 1329.53v.76h-13.88l.02-.77c.4-18.7 8.44-32 24.1-39.77l-2.3-7.09-.55-1.74 20.18 10.53-10.8 19.63-2.82-8.3c-9.45 5.68-14.1 14.56-13.95 26.75z"/><path id="hyyed" d="M260.08 1284.08l11.9-11.68 11.84 11.6h-7v13.35a84.59 84.59 0 0 0-4.9 4.95 33.1 33.1 0 0 0-5.03-4.71l.07-13.51zm4.8 14.61l.49.3c1.32.8 3.3 2.65 5.87 5.54l.94 1.05.68-1.23c.34-.6 2.28-2.63 5.65-5.84l.31-.3v-12.2h9.9L272 1269.6l-16.81 16.48h9.77z"/><path id="hyyee" d="M255.95 1290.33l-2.4 6.1.74.44c6.32 3.72 11.1 7.5 14.32 11.32-2.42 3.7-4.09 6.88-4.99 9.57-3.62-5.35-7.85-9.2-12.66-11.54l-.99-.48-2.38 6.28-7.23-14.81zm-4.9 18.19c4.61 2.5 8.64 6.56 12.1 12.2l1.37 2.23.47-2.56c.55-2.93 2.44-6.85 5.7-11.71l.4-.61-.46-.58c-3.27-4.06-8.13-8.03-14.6-11.9l3.56-9.05-21.94 9.68 10.16 20.83z"/><path id="hyyef" d="M266.37 1334.54c.66-17.75 8.52-30.2 23.67-37.5l.78-.38-.26-.83c-1.45-4.48-1.89-5.83-.52-4.74l10.03 5.23c2.97 1.55 3.57 1.86 3.21 2.5l-6.36 11.56-1.31 2.38-2.23-6.54-1.05.59c-10.28 5.81-15.5 15.1-15.63 27.73zm29.24-21.78c-.1.2-.1.19 0 0zm-3.34-3.6l2.9 8.54 11.2-20.35-20.95-10.93.75 2.32 2.22 6.88c-15.61 7.83-23.65 21.17-24.05 39.9l-.02 1.02h14.4l-.02-1.01c-.14-12 4.37-20.74 13.57-26.37z"/></defs><g><g transform="translate(-237 -1265)"><use fill="#ffeff0" xlink:href="#hyyea"/></g><g transform="translate(-237 -1265)"><use fill="#ffeff0" xlink:href="#hyyeb"/></g><g transform="translate(-237 -1265)"><use fill="#ffeff0" xlink:href="#hyyec"/></g><g transform="translate(-237 -1265)"><use fill="#859dba" xlink:href="#hyyed"/></g><g transform="translate(-237 -1265)"><use fill="#859dba" xlink:href="#hyyee"/></g><g transform="translate(-237 -1265)"><use fill="#859dba" xlink:href="#hyyef"/></g></g></svg>