<?xml version="1.0" encoding="UTF-8"?>
<svg width="43px" height="43px" viewBox="0 0 43 43" version="1.1" xmlns="http://www.w3.org/2000/svg" xmlns:xlink="http://www.w3.org/1999/xlink">
    <!-- Generator: Sketch 47.1 (45422) - http://www.bohemiancoding.com/sketch -->
    <title>Artboard 2 Copy 11</title>
    <desc>Created with Sketch.</desc>
    <defs>
        <linearGradient x1="0%" y1="0%" x2="101.999998%" y2="100.999999%" id="linearGradient-1">
            <stop stop-color="#645F8C" offset="0%"></stop>
            <stop stop-color="#F3408A" offset="100%"></stop>
        </linearGradient>
        <linearGradient x1="-4.8401788%" y1="0%" x2="72.6998618%" y2="83.0110634%" id="linearGradient-2">
            <stop stop-color="#7D5A8C" offset="0%"></stop>
            <stop stop-color="#E0448A" offset="100%"></stop>
        </linearGradient>
    </defs>
    <g id="desktop" stroke="none" stroke-width="1" fill="none" fill-rule="evenodd">
        <g id="Artboard-2-Copy-11" stroke="url(#linearGradient-2)" stroke-width="0.5" fill="url(#linearGradient-1)" fill-rule="nonzero">
            <path d="M37.1883571,16.6213659 L15.8207679,16.6213659 C15.949625,16.3305222 16.0215377,16.0071002 16.0215377,15.664294 L16.0215377,14.8439699 C16.0215377,13.5450693 14.9973512,12.5196642 13.699994,12.5196642 L8.78389881,12.5196642 C7.48654167,12.5196642 6.46235516,13.5450693 6.46235516,14.8439699 L6.46235516,15.664294 C6.46235516,16.0071002 6.53426786,16.3304408 6.663125,16.6213659 L5.09682738,16.6213659 L5.09682738,6.36723389 C5.09682738,5.61524303 4.48231548,5 3.73121825,5 L2.36560913,5 C1.6145119,5 1,5.61524303 1,6.36723389 L1,17.3050235 L1,36.446135 C1,37.1981259 1.6145119,37.8133689 2.36560913,37.8133689 L3.73121825,37.8133689 C4.48231548,37.8133689 5.09682738,37.1981259 5.09682738,36.446135 L5.09682738,27.5591555 L11.2420278,27.5591555 L37.8712024,27.5591555 L37.8712024,36.446135 C37.8712024,37.1981259 38.4857143,37.8133689 39.2368115,37.8133689 L40.6024206,37.8133689 C41.3535179,37.8133689 41.9680298,37.1981259 41.9680298,36.446135 L41.9680298,21.4066437 C41.9680298,18.7405906 39.8513234,16.6213659 37.1883571,16.6213659 Z M7.82796429,15.664294 L7.82796429,14.8439699 C7.82796429,14.2970601 8.23763889,13.8868981 8.78389881,13.8868981 L13.7000754,13.8868981 C14.2463353,13.8868981 14.6560099,14.2970601 14.6560099,14.8439699 L14.6560099,15.664294 C14.6560099,16.2112038 14.2463353,16.6213659 13.7000754,16.6213659 L11.2420278,16.6213659 L8.78389881,16.6213659 C8.23772024,16.6213659 7.82796429,16.2112038 7.82796429,15.664294 Z M2.36560913,6.36723389 L3.73121825,6.36723389 L3.73121825,16.6214473 L2.36560913,16.6214473 L2.36560913,6.36723389 Z M4.41398214,26.1919216 C4.00430754,26.1919216 3.73121825,26.4653358 3.73121825,26.8754978 L3.73121825,36.4460536 L2.36560913,36.4460536 L2.36560913,17.9885997 L4.41398214,17.9885997 L8.78389881,17.9885997 L10.5591825,17.9885997 L10.5591825,26.1919216 L4.41398214,26.1919216 Z M40.6024206,36.446135 L39.2368115,36.446135 L39.2368115,26.8755793 C39.2368115,26.4654172 38.9637222,26.192003 38.5540476,26.192003 L11.9247917,26.192003 L11.9247917,17.9885997 L13.7000754,17.9885997 L37.1883571,17.9885997 C39.1002262,17.9885997 40.6023393,19.4925814 40.6023393,21.4066437 L40.6023393,36.446135 L40.6024206,36.446135 Z" id="Shape"></path>
        </g>
    </g>
</svg>