<svg xmlns="http://www.w3.org/2000/svg" xmlns:xlink="http://www.w3.org/1999/xlink" width="80" height="61" viewBox="0 0 80 61"><defs><path id="l1mea" d="M792.4 1563H728.4a4.37 4.37 0 0 0-4.39 4.4v44.57c0 2.44 1.95 4.4 4.39 4.4h63.96a4.37 4.37 0 0 0 4.39-4.4v-44.57a4.33 4.33 0 0 0-4.33-4.4z"/><path id="l1meb" d="M786.54 1569.01h-64.02a4.37 4.37 0 0 0-4.39 4.4v44.57c0 2.44 1.95 4.4 4.39 4.4h63.96a4.37 4.37 0 0 0 4.39-4.4v-44.57a4.33 4.33 0 0 0-4.33-4.4z"/><path id="l1mec" d="M721 1576.12c0-1.1.9-2 2-2h63a2 2 0 0 1 2 2v41a2 2 0 0 1-2 2h-63a2 2 0 0 1-2-2z"/><path id="l1med" d="M783.72 1571.71a1.41 1.41 0 1 1 2.82 0 1.41 1.41 0 0 1-2.82 0z"/><path id="l1mee" d="M778.79 1571.71a1.41 1.41 0 1 1 2.82 0 1.41 1.41 0 0 1-2.82 0z"/><path id="l1mef" d="M773.86 1571.71a1.41 1.41 0 1 1 2.82 0 1.41 1.41 0 0 1-2.82 0z"/><path id="l1meg" d="M772.93 1595v3.43c0 .38-.25.71-.63.8l-3.25.89c-.33 1.4-.88 2.7-1.6 3.88l1.69 2.92c.2.34.12.76-.13 1.01l-2.4 2.41c-.25.26-.68.3-1.01.13l-2.91-1.7a13.68 13.68 0 0 1-3.88 1.61l-.89 3.26a.81.81 0 0 1-.8.63h-3.41a.81.81 0 0 1-.8-.63l-.89-3.26c-1.39-.33-2.7-.88-3.88-1.6l-2.9 1.69a.82.82 0 0 1-1.02-.13l-2.4-2.4c-.25-.26-.3-.68-.13-1.02l1.69-2.92a13.74 13.74 0 0 1-1.6-3.88l-3.25-.9a.81.81 0 0 1-.63-.8V1595c0-.38.25-.71.63-.8l3.25-.89c.34-1.39.88-2.7 1.6-3.88l-1.69-2.92a.83.83 0 0 1 .13-1.01l2.4-2.41c.26-.25.68-.3 1.02-.13l2.9 1.7a13.68 13.68 0 0 1 3.88-1.61l.89-3.26a.81.81 0 0 1 .8-.63h3.41c.38 0 .72.25.8.63l.89 3.26c1.4.34 2.7.88 3.88 1.6l2.9-1.69a.82.82 0 0 1 1.02.13l2.4 2.4c.25.26.3.68.13 1.02l-1.69 2.92c.72 1.18 1.27 2.49 1.6 3.88l3.25.9c.38.12.63.46.63.8zm-11.25 1.74a6.23 6.23 0 1 0-12.48 0 6.23 6.23 0 1 0 12.48 0z"/></defs><g><g transform="translate(-717 -1563)"><use fill="#ffeff0" xlink:href="#l1mea"/></g><g transform="translate(-717 -1563)"><use fill="#fff" fill-opacity="0" stroke="#859dba" stroke-miterlimit="50" stroke-width="2" xlink:href="#l1meb"/></g><g transform="translate(-717 -1563)"><use fill="#fff" fill-opacity="0" stroke="#859dba" stroke-miterlimit="50" stroke-width="2" xlink:href="#l1mec"/></g><g transform="translate(-717 -1563)"><use fill="#859dba" xlink:href="#l1med"/></g><g transform="translate(-717 -1563)"><use fill="#859dba" xlink:href="#l1mee"/></g><g transform="translate(-717 -1563)"><use fill="#859dba" xlink:href="#l1mef"/></g><g transform="translate(-717 -1563)"><use fill="#fff" fill-opacity="0" stroke="#859dba" stroke-miterlimit="50" stroke-width="2" xlink:href="#l1meg"/></g></g></svg>