<?xml version="1.0" encoding="UTF-8"?>
<svg width="43px" height="43px" viewBox="0 0 43 43" version="1.1" xmlns="http://www.w3.org/2000/svg" xmlns:xlink="http://www.w3.org/1999/xlink">
    <!-- Generator: Sketch 47.1 (45422) - http://www.bohemiancoding.com/sketch -->
    <title>Artboard 2 Copy 8</title>
    <desc>Created with Sketch.</desc>
    <defs>
        <linearGradient x1="0%" y1="0%" x2="101.999998%" y2="100.999999%" id="linearGradient-1">
            <stop stop-color="#645F8C" offset="0%"></stop>
            <stop stop-color="#F3408A" offset="100%"></stop>
        </linearGradient>
        <linearGradient x1="4.08911612%" y1="2.82437194%" x2="50%" y2="100%" id="linearGradient-2">
            <stop stop-color="#725C8C" offset="0%"></stop>
            <stop stop-color="#ED418A" offset="100%"></stop>
        </linearGradient>
    </defs>
    <g id="desktop" stroke="none" stroke-width="1" fill="none" fill-rule="evenodd">
        <g id="Artboard-2-Copy-8" fill-rule="nonzero" fill="url(#linearGradient-1)">
            <g id="analytics-(1)" transform="translate(1.000000, 2.000000)">
                <path d="M39.359913,0.0320238854 L1.55303822,0.0320238854 C0.696651805,0.0320238854 0,0.736109475 0,1.60163416 L0,30.5643352 C0,31.4297719 0.696651805,32.1339455 1.55303822,32.1339455 L15.8122463,32.1339455 L15.8122463,37.1826342 L9.65449894,37.1826342 C9.29394268,37.1826342 9.0016327,37.4780633 9.0016327,37.842467 C9.0016327,38.2068706 9.29394268,38.5022998 9.65449894,38.5022998 L31.2584522,38.5022998 C31.6190955,38.5022998 31.9113185,38.2068706 31.9113185,37.842467 C31.9113185,37.4780633 31.6190955,37.1826342 31.2584522,37.1826342 L25.1007919,37.1826342 L25.1007919,32.1338575 L39.36,32.1338575 C40.2163864,32.1338575 40.9130382,31.4297719 40.9130382,30.5642472 L40.9130382,1.60163416 C40.9129512,0.736109475 40.2162994,0.0320238854 39.359913,0.0320238854 Z M23.7950594,37.1825462 L17.1179788,37.1825462 L17.1179788,32.1338575 L23.7950594,32.1338575 L23.7950594,37.1825462 Z M39.6072187,30.5642472 C39.6072187,30.6997329 39.4939682,30.8141919 39.359913,30.8141919 L1.55303822,30.8141919 C1.41898301,30.8141919 1.30573248,30.6997329 1.30573248,30.5642472 L1.30573248,1.60163416 C1.30573248,1.46614849 1.41898301,1.35168949 1.55303822,1.35168949 L39.359913,1.35168949 C39.4939682,1.35168949 39.6072187,1.46614849 39.6072187,1.60163416 L39.6072187,30.5642472 Z" id="Shape" stroke="url(#linearGradient-2)" stroke-width="0.5"></path>
                <path d="M23.6999282,22 C23.4423969,22 23.1950609,21.8851803 23.0226597,21.6815497 L17.4166138,15.0371249 L13.5911631,19.7975971 C13.2729703,20.1936511 12.7057082,20.2469376 12.3237952,19.9169631 C11.9418823,19.5868828 11.8904984,18.9987225 12.2086912,18.6026684 L16.7086576,13.0027225 C16.8769807,12.7930655 17.1256422,12.6699991 17.3889847,12.6668272 C17.6754704,12.6545629 17.9040472,12.7798496 18.0771621,12.9852775 L23.4639088,19.3695077 L31.2824759,8.54240985 C31.4911721,8.07393271 32.0255036,7.87061934 32.476846,8.08577415 C32.9281884,8.30188051 33.1250581,8.85631386 32.9171776,9.3243681 L24.5171771,21.4575138 C24.389227,21.7446689 24.1300645,21.9451276 23.8280821,21.9901674 C23.78567,21.9968282 23.7425442,22 23.6999282,22 Z" id="Shape"></path>
                <circle id="Oval" cx="32" cy="9" r="2"></circle>
                <circle id="Oval" cx="24" cy="21" r="2"></circle>
                <circle id="Oval" cx="12" cy="20" r="2"></circle>
                <circle id="Oval" cx="17" cy="14" r="2"></circle>
            </g>
        </g>
    </g>
</svg>