<?xml version="1.0" encoding="UTF-8"?>
<svg width="43px" height="43px" viewBox="0 0 43 43" version="1.1" xmlns="http://www.w3.org/2000/svg" xmlns:xlink="http://www.w3.org/1999/xlink">
    <!-- Generator: Sketch 47.1 (45422) - http://www.bohemiancoding.com/sketch -->
    <title>Artboard 2 Copy 4</title>
    <desc>Created with Sketch.</desc>
    <defs>
        <linearGradient x1="0%" y1="0%" x2="101.999998%" y2="100.999999%" id="linearGradient-1">
            <stop stop-color="#645F8C" offset="0%"></stop>
            <stop stop-color="#F3408A" offset="100%"></stop>
        </linearGradient>
        <linearGradient x1="50%" y1="0%" x2="50%" y2="96.225287%" id="linearGradient-2">
            <stop stop-color="#8F568C" offset="0%"></stop>
            <stop stop-color="#EA428A" offset="100%"></stop>
        </linearGradient>
        <linearGradient x1="133.68279%" y1="-34.9638097%" x2="101.999998%" y2="100.999999%" id="linearGradient-3">
            <stop stop-color="#645F8C" offset="0%"></stop>
            <stop stop-color="#90568B" offset="49.047768%"></stop>
            <stop stop-color="#F3408A" offset="100%"></stop>
        </linearGradient>
    </defs>
    <g id="desktop" stroke="none" stroke-width="1" fill="none" fill-rule="evenodd">
        <g id="Artboard-2-Copy-4" fill-rule="nonzero">
            <g id="smartphone" transform="translate(9.000000, 1.000000)">
                <path d="M22.8905882,0 L3.10941176,0 C1.39552941,0 0,1.35095 0,3.01008333 L0,37.9892333 C0,39.64905 1.39552941,41 3.10941176,41 L22.8898824,41 C24.6044706,41 26,39.64905 26,37.9899167 L26,3.01008333 C26,1.35095 24.6044706,0 22.8905882,0 Z M1.41176471,5.46666667 L24.5882353,5.46666667 L24.5882353,31.4333333 L1.41176471,31.4333333 L1.41176471,5.46666667 Z M3.10941176,1.36666667 L22.8898824,1.36666667 C23.8265882,1.36666667 24.5882353,2.10398333 24.5882353,3.01008333 L24.5882353,4.1 L1.41176471,4.1 L1.41176471,3.01008333 C1.41176471,2.10398333 2.17341176,1.36666667 3.10941176,1.36666667 Z M22.8905882,39.6333333 L3.10941176,39.6333333 C2.17341176,39.6333333 1.41176471,38.8960167 1.41176471,37.9899167 L1.41176471,32.8 L24.5882353,32.8 L24.5882353,37.9899167 C24.5882353,38.8960167 23.8265882,39.6333333 22.8905882,39.6333333 Z" id="Shape" fill="url(#linearGradient-1)"></path>
                <g id="headphones" transform="translate(6.000000, 11.000000)" stroke="url(#linearGradient-2)" stroke-width="0.5" fill="url(#linearGradient-1)">
                    <path d="M12.952567,6.21417942 L12.952567,5.58589498 C12.952567,4.08213223 12.4335938,2.68480017 11.4927455,1.64795918 C10.5284598,0.583652211 9.20256696,-2.84217094e-14 7.75613839,-2.84217094e-14 L7.25055804,-2.84217094e-14 C5.80412946,-2.84217094e-14 4.47823661,0.583652211 3.51395089,1.64795918 C2.57310268,2.68480017 2.05412946,4.08213223 2.05412946,5.58589498 L2.05412946,6.21417942 C0.912388393,6.29314413 0.00502232143,7.26818665 0.00502232143,8.45952381 L0.00502232143,9.44143282 C0.00502232143,10.6808355 0.989397321,11.6902105 2.19810268,11.6902105 L3.43359375,11.6902105 C3.65457589,11.6902105 3.83537946,11.5048151 3.83537946,11.2782207 L3.83537946,6.61930272 C3.83537946,6.39270833 3.65457589,6.20731293 3.43359375,6.20731293 L2.85770089,6.20731293 L2.85770089,5.58589498 C2.85770089,2.87019558 4.74609375,0.823979592 7.24720982,0.823979592 L7.75279018,0.823979592 C10.2572545,0.823979592 12.1422991,2.87019558 12.1422991,5.58589498 L12.1422991,6.20731293 L11.5664063,6.20731293 C11.3454241,6.20731293 11.1646205,6.39270833 11.1646205,6.61930272 L11.1646205,11.2747874 C11.1646205,11.5013818 11.3454241,11.6867772 11.5664063,11.6867772 L12.1289063,11.6867772 C11.9648438,13.8359906 10.5217634,14.3338116 9.85212054,14.4471088 C9.66796875,13.8668899 9.13560268,13.4480336 8.50948661,13.4480336 L7.50502232,13.4480336 C6.72823661,13.4480336 6.09542411,14.0969175 6.09542411,14.8934311 C6.09542411,15.6899447 6.72823661,16.3422619 7.50502232,16.3422619 L8.51283482,16.3422619 C9.16238839,16.3422619 9.70814732,15.8890731 9.87220982,15.2779549 C10.2003348,15.2298895 10.719308,15.1097258 11.234933,14.8007334 C11.9614955,14.3647109 12.8219866,13.4754996 12.9358259,11.683344 C14.0842634,11.6112457 14.9949777,10.63277 14.9949777,9.43799957 L14.9949777,8.45609056 C14.9983259,7.26818665 14.094308,6.28971088 12.952567,6.21417942 Z M3.03850446,10.8627976 L2.20479911,10.8627976 C1.43805804,10.8627976 0.815290179,10.2242134 0.815290179,9.43799957 L0.815290179,8.45609056 C0.815290179,7.6698767 1.43805804,7.03129252 2.20479911,7.03129252 L3.03850446,7.03129252 L3.03850446,10.8627976 Z M8.51283482,15.5182823 L7.50502232,15.5182823 C7.17020089,15.5182823 6.89899554,15.2401892 6.89899554,14.8968644 C6.89899554,14.5535395 7.17020089,14.2754464 7.50502232,14.2754464 L8.51283482,14.2754464 C8.84765625,14.2754464 9.11886161,14.5535395 9.11886161,14.8968644 C9.11886161,15.2401892 8.84765625,15.5182823 8.51283482,15.5182823 Z M14.1947545,9.43799957 C14.1947545,10.2242134 13.5719866,10.8627976 12.8052455,10.8627976 L11.9715402,10.8627976 L11.9715402,7.03129252 L12.8052455,7.03129252 C13.5719866,7.03129252 14.1947545,7.6698767 14.1947545,8.45609056 L14.1947545,9.43799957 Z" id="Shape"></path>
                </g>
                <path d="M12,33 C10.3455,33 9,34.3455 9,36 C9,37.6545 10.3455,39 12,39 C13.6545,39 15,37.6545 15,36 C15,34.3455 13.6545,33 12,33 Z M12,37.5 C11.17275,37.5 10.5,36.82725 10.5,36 C10.5,35.17275 11.17275,34.5 12,34.5 C12.82725,34.5 13.5,35.17275 13.5,36 C13.5,36.82725 12.82725,37.5 12,37.5 Z" id="Shape" fill="url(#linearGradient-3)"></path>
                <path d="M9.66666667,3 L12.3333333,3 C12.702,3 13,2.7765 13,2.5 C13,2.2235 12.702,2 12.3333333,2 L9.66666667,2 C9.298,2 9,2.2235 9,2.5 C9,2.7765 9.298,3 9.66666667,3 Z" id="Shape" fill="url(#linearGradient-1)"></path>
                <path d="M14.6666667,3 L15.3333333,3 C15.702,3 16,2.7765 16,2.5 C16,2.2235 15.702,2 15.3333333,2 L14.6666667,2 C14.298,2 14,2.2235 14,2.5 C14,2.7765 14.298,3 14.6666667,3 Z" id="Shape" fill="url(#linearGradient-1)"></path>
            </g>
        </g>
    </g>
</svg>