<?xml version="1.0" encoding="UTF-8"?>
<svg width="43px" height="43px" viewBox="0 0 43 43" version="1.1" xmlns="http://www.w3.org/2000/svg" xmlns:xlink="http://www.w3.org/1999/xlink">
    <!-- Generator: Sketch 47.1 (45422) - http://www.bohemiancoding.com/sketch -->
    <title>Artboard 2 Copy 2</title>
    <desc>Created with Sketch.</desc>
    <defs>
        <linearGradient x1="0%" y1="0%" x2="101.999998%" y2="100.999999%" id="linearGradient-1">
            <stop stop-color="#645F8C" offset="0%"></stop>
            <stop stop-color="#F3408A" offset="100%"></stop>
        </linearGradient>
        <linearGradient x1="50%" y1="0%" x2="50%" y2="100%" id="linearGradient-2">
            <stop stop-color="#AC508B" offset="0%"></stop>
            <stop stop-color="#AA4F8B" offset="100%"></stop>
        </linearGradient>
    </defs>
    <g id="desktop" stroke="none" stroke-width="1" fill="none" fill-rule="evenodd">
        <g id="Artboard-2-Copy-2" stroke="url(#linearGradient-2)" stroke-width="0.2" fill="url(#linearGradient-1)" fill-rule="nonzero">
            <g id="puzzle-(2)" transform="translate(21.500000, 21.500000) scale(-1, 1) translate(-21.500000, -21.500000) translate(2.000000, 2.000000)">
                <path d="M36.6122449,0 L19.5,0 C19.0604939,0 18.7040816,0.356412245 18.7040816,0.795918367 L18.7040816,4.43867755 C16.2279,4.82262857 14.3265306,6.96898163 14.3265306,9.55102041 C14.3265306,12.1330592 16.2279,14.2794122 18.7040816,14.6633633 L18.7040816,18.7040816 L13.9285714,18.7040816 C13.4890653,18.7040816 13.1326531,19.0604939 13.1326531,19.5 C13.1326531,21.4749122 11.5259327,23.0816327 9.55102041,23.0816327 C7.57610816,23.0816327 5.96938776,21.4749122 5.96938776,19.5 C5.96938776,19.0604939 5.61297551,18.7040816 5.17346939,18.7040816 L0.795918367,18.7040816 C0.356412245,18.7040816 0,19.0604939 0,19.5 L0,36.6122449 C0,37.9288531 1.07114694,39 2.3877551,39 L19.5,39 L36.6122449,39 C37.9288531,39 39,37.9288531 39,36.6122449 L39,19.5 L39,2.3877551 C39,1.07114694 37.9288531,0 36.6122449,0 Z M18.7040816,37.4081633 L2.3877551,37.4081633 C1.94888571,37.4081633 1.59183673,37.0511143 1.59183673,36.6122449 L1.59183673,20.2959184 L4.43867755,20.2959184 C4.82262857,22.7721 6.96898163,24.6734694 9.55102041,24.6734694 C12.1330592,24.6734694 14.2794122,22.7721 14.6633633,20.2959184 L18.7040816,20.2959184 L18.7040816,23.9386776 C16.2279,24.3226286 14.3265306,26.4689816 14.3265306,29.0510204 C14.3265306,31.6330592 16.2279,33.7794122 18.7040816,34.1633633 L18.7040816,37.4081633 Z M37.4081633,36.6122449 C37.4081633,37.0511143 37.0511143,37.4081633 36.6122449,37.4081633 L20.2959184,37.4081633 L20.2959184,33.4285714 C20.2959184,32.9890653 19.9395061,32.6326531 19.5,32.6326531 C17.5250878,32.6326531 15.9183673,31.0259327 15.9183673,29.0510204 C15.9183673,27.0761082 17.5250878,25.4693878 19.5,25.4693878 C19.9395061,25.4693878 20.2959184,25.1129755 20.2959184,24.6734694 L20.2959184,20.2959184 L24.2755102,20.2959184 C24.7150163,20.2959184 25.0714286,19.9395061 25.0714286,19.5 C25.0714286,17.5250878 26.678149,15.9183673 28.6530612,15.9183673 C30.6279735,15.9183673 32.2346939,17.5250878 32.2346939,19.5 C32.2346939,19.9395061 32.5911061,20.2959184 33.0306122,20.2959184 L37.4081633,20.2959184 L37.4081633,36.6122449 Z M37.4081633,18.7040816 L33.7654041,18.7040816 C33.3814531,16.2279 31.2351,14.3265306 28.6530612,14.3265306 C26.0710224,14.3265306 23.9246694,16.2279 23.5407184,18.7040816 L20.2959184,18.7040816 L20.2959184,13.9285714 C20.2959184,13.4890653 19.9395061,13.1326531 19.5,13.1326531 C17.5250878,13.1326531 15.9183673,11.5259327 15.9183673,9.55102041 C15.9183673,7.57610816 17.5250878,5.96938776 19.5,5.96938776 C19.9395061,5.96938776 20.2959184,5.61297551 20.2959184,5.17346939 L20.2959184,1.59183673 L36.6122449,1.59183673 C37.0511143,1.59183673 37.4081633,1.94888571 37.4081633,2.3877551 L37.4081633,18.7040816 Z" id="Shape"></path>
            </g>
        </g>
    </g>
</svg>