<?xml version="1.0" encoding="UTF-8" standalone="no"?>
<svg width="52px" height="32px" viewBox="0 0 52 32" version="1.1" xmlns="http://www.w3.org/2000/svg" xmlns:xlink="http://www.w3.org/1999/xlink">
    <!-- Generator: Sketch 46.2 (44496) - http://www.bohemiancoding.com/sketch -->
    <title>Shape</title>
    <desc>Created with Sketch.</desc>
    <defs></defs>
    <g id="Page-1" stroke="none" stroke-width="1" fill="none" fill-rule="evenodd" opacity="0.300000012">
        <g id="DoQ" transform="translate(-462.000000, -1237.000000)" fill-rule="nonzero" fill="#000000">
            <g id="Group-14" transform="translate(298.000000, 1203.000000)">
                <g id="up-arrow" transform="translate(190.000000, 50.000000) rotate(-270.000000) translate(-190.000000, -50.000000) translate(174.000000, 24.000000)">
                    <path d="M31.6796765,15.2013769 L16.8040023,0.330464716 C16.6111695,0.137693632 16.3081465,0 16.0051235,0 C15.7021005,0 15.3990775,0.137693632 15.2062447,0.330464716 L0.330570538,15.2013769 C-0.110190179,15.6419966 -0.110190179,16.3580034 0.330570538,16.7986231 C0.550950896,17.0189329 0.826426344,17.1290878 1.12944934,17.1290878 C1.43247233,17.1290878 1.70794778,17.0189329 1.92832814,16.7986231 L14.8756742,3.85542169 L14.8756742,50.8709122 C14.8756742,51.5043029 15.37153,52 16.0051235,52 C16.6387171,52 17.1345729,51.5043029 17.1345729,50.8709122 L17.1345729,3.85542169 L30.0819189,16.7986231 C30.5226796,17.2392427 31.2389158,17.2392427 31.6796765,16.7986231 C32.1204372,16.3580034 32.0928897,15.6419966 31.6796765,15.2013769 Z" id="Shape"></path>
                </g>
            </g>
        </g>
    </g>
</svg>