<?xml version="1.0" encoding="UTF-8" standalone="no"?>
<svg width="104px" height="104px" viewBox="0 0 104 104" version="1.1" xmlns="http://www.w3.org/2000/svg" xmlns:xlink="http://www.w3.org/1999/xlink">
    <!-- Generator: Sketch 46.2 (44496) - http://www.bohemiancoding.com/sketch -->
    <title>Group 6</title>
    <desc>Created with Sketch.</desc>
    <defs></defs>
    <g id="Page-1" stroke="none" stroke-width="1" fill="none" fill-rule="evenodd">
        <g id="DoQ" transform="translate(-1036.000000, -1201.000000)">
            <g id="Group-14" transform="translate(298.000000, 1203.000000)">
                <g id="Group-12" transform="translate(740.000000, 0.000000)">
                    <g id="Group-6">
                        <circle id="Oval" stroke-opacity="0.0797101449" stroke="#000000" stroke-width="4" cx="50" cy="50" r="50"></circle>
                        <g id="cloud-computing-(13)" transform="translate(16.000000, 24.000000)" fill-rule="nonzero">
                            <path d="M59.7802762,18.9072 C59.8121686,18.4756 59.8288169,18.0396 59.8288169,17.6 C59.8288169,7.9176 51.957,0.0684 42.2464535,0.0684 C36.3301047,0.0684 31.0963343,2.9822 27.9094971,7.449 C26.9208314,7.2268 25.8940552,7.1058 24.8383953,7.1058 C18.0629564,7.1058 12.4206017,11.9324 11.1743895,18.3248 C4.80151744,19.5976 0,25.2068 0,31.9356 C0,39.6026 6.23346802,45.818 13.9227558,45.818 L54.963314,45.818 C62.6528023,45.818 68.8860698,39.6026 68.8860698,31.9356 C68.8860698,25.957 65.0954826,20.862 59.7802762,18.9072 Z" id="Shape" fill="#F96F74"></path>
                            <polygon id="Shape" fill="#FFFFFF" points="39.6433081 37.4956 39.6447122 22.4596 44.7483052 22.4598 35.2074506 12.9464 25.6665959 22.4596 30.7707907 22.4596 30.7707907 37.4956"></polygon>
                        </g>
                    </g>
                </g>
            </g>
        </g>
    </g>
</svg>