<?xml version="1.0" encoding="UTF-8" standalone="no"?>
<svg width="40px" height="25px" viewBox="0 0 40 25" version="1.1" xmlns="http://www.w3.org/2000/svg" xmlns:xlink="http://www.w3.org/1999/xlink">
    <!-- Generator: Sketch 46.2 (44496) - http://www.bohemiancoding.com/sketch -->
    <title>Shape</title>
    <desc>Created with Sketch.</desc>
    <defs></defs>
    <g id="Page-1" stroke="none" stroke-width="1" fill="none" fill-rule="evenodd">
        <g id="DoQ" transform="translate(-530.000000, -1919.000000)" fill-rule="nonzero" fill="#F26C27">
            <g id="Group-24" transform="translate(259.000000, 1741.000000)">
                <g id="Group-15" transform="translate(210.000000, 0.000000)">
                    <path d="M92.7597574,182.401033 L81.6030017,171.247849 C81.4583771,171.10327 81.2311099,171 81.0038426,171 C80.7765754,171 80.5493082,171.10327 80.4046835,171.247849 L69.2479279,182.401033 C68.9173574,182.731497 68.9173574,183.268503 69.2479279,183.598967 C69.4132132,183.7642 69.6198198,183.846816 69.847087,183.846816 C70.0743542,183.846816 70.2809608,183.7642 70.4462461,183.598967 L80.1567556,173.891566 L80.1567556,209.153184 C80.1567556,209.628227 80.5286475,210 81.0038426,210 C81.4790378,210 81.8509297,209.628227 81.8509297,209.153184 L81.8509297,173.891566 L91.5614392,183.598967 C91.8920097,183.929432 92.4291869,183.929432 92.7597574,183.598967 C93.0903279,183.268503 93.0696673,182.731497 92.7597574,182.401033 Z" id="Shape" transform="translate(81.000000, 190.500000) rotate(-270.000000) translate(-81.000000, -190.500000) "></path>
                </g>
            </g>
        </g>
    </g>
</svg>