<?xml version="1.0" encoding="UTF-8" standalone="no"?>
<svg width="49px" height="48px" viewBox="0 0 49 48" version="1.1" xmlns="http://www.w3.org/2000/svg" xmlns:xlink="http://www.w3.org/1999/xlink">
    <!-- Generator: Sketch 46.2 (44496) - http://www.bohemiancoding.com/sketch -->
    <title>settings (15)</title>
    <desc>Created with Sketch.</desc>
    <defs></defs>
    <g id="Page-1" stroke="none" stroke-width="1" fill="none" fill-rule="evenodd">
        <g id="DoQ" transform="translate(-566.000000, -1769.000000)" stroke="#FFFFFF" stroke-width="0.5" fill="#FFFFFF" fill-rule="nonzero">
            <g id="Group-24" transform="translate(259.000000, 1741.000000)">
                <g id="Group-15" transform="translate(210.000000, 0.000000)">
                    <g id="settings-(15)" transform="translate(98.000000, 29.000000)">
                        <path d="M23.945112,45.7965021 L26.2903259,44.840535 C27.5442974,44.3294239 28.13778,42.9002058 27.6208758,41.6697531 L27.0178208,40.23107 C28.1952138,39.3697531 29.2194501,38.3475309 30.1001018,37.1833333 L31.5550916,37.7796296 C32.1581466,38.0257202 32.8282077,38.0257202 33.4312627,37.7796296 C34.0343177,37.5335391 34.5129328,37.0602881 34.7618126,36.4639918 L35.7381874,34.1450617 C36.2550916,32.905144 35.661609,31.4853909 34.4076375,30.9742798 L32.2538697,30.0940329 C31.7656823,29.8952675 31.2200611,30.122428 31.0190428,30.605144 C30.8180244,31.0878601 31.0477597,31.6273663 31.535947,31.8261317 L33.6897149,32.7063786 C33.9768839,32.8199588 34.1108961,33.1512346 33.9960285,33.4351852 L33.0196538,35.7541152 C32.96222,35.8866255 32.8569246,36.0002058 32.7133401,36.0569959 C32.5793279,36.113786 32.4261711,36.113786 32.2825866,36.0569959 L30.1288187,35.176749 C29.7076375,35.0063786 29.2290224,35.1483539 28.9801426,35.5174897 C28.0133401,36.9561728 26.7880855,38.1676955 25.3330957,39.1236626 C24.959776,39.3697531 24.8066191,39.8524691 24.9789206,40.259465 L25.8691446,42.3890947 C25.9840122,42.6730453 25.85,42.994856 25.562831,43.1179012 L23.2176171,44.0738683 C23.0836049,44.1306584 22.9304481,44.1306584 22.7868635,44.0738683 C22.6528513,44.0170782 22.5379837,43.912963 22.4805499,43.7709877 L21.5903259,41.641358 C21.4180244,41.2248971 20.9776986,40.9882716 20.5278004,41.0829218 C18.8239308,41.4236626 17.0817719,41.4141975 15.3779022,41.0829218 C14.9375764,40.9977366 14.4876782,41.2343621 14.3153768,41.641358 L13.4251527,43.7709877 C13.3102851,44.0549383 12.9752546,44.1874486 12.6880855,44.0738683 L10.3428717,43.1084362 C10.2088595,43.0516461 10.0939919,42.9475309 10.036558,42.8055556 C9.97912424,42.6730453 9.97912424,42.5216049 10.036558,42.3796296 L10.9267821,40.25 C11.0990835,39.8335391 10.955499,39.3602881 10.5821792,39.1141975 C9.12718941,38.1582305 7.90193483,36.9467078 6.93513238,35.5080247 C6.68625255,35.1388889 6.19806517,34.9874486 5.78645621,35.1578189 L3.63268839,36.0380658 C3.48910387,36.094856 3.34551935,36.094856 3.20193483,36.0380658 C3.06792261,35.9812757 2.95305499,35.8771605 2.89562118,35.7351852 L1.92881874,33.4162551 C1.87138493,33.2837449 1.87138493,33.1323045 1.92881874,32.9903292 C1.98625255,32.8578189 2.09154786,32.7442387 2.23513238,32.6874486 L4.3889002,31.8072016 C4.81008147,31.6368313 5.0398167,31.2014403 4.95366599,30.7565844 C4.60906314,29.0718107 4.61863544,27.349177 4.95366599,25.6644033 C5.0398167,25.2290123 4.80050916,24.7841564 4.3889002,24.613786 L2.23513238,23.7335391 C1.94796334,23.6199588 1.81395112,23.2886831 1.92881874,23.0047325 L2.90519348,20.6858025 C3.0200611,20.4018519 3.35509165,20.2693416 3.64226069,20.3829218 L5.79602851,21.2631687 C6.21720978,21.4335391 6.69582485,21.2915638 6.94470468,20.922428 C7.91150713,19.4837449 9.13676171,18.2722222 10.5917515,17.3162551 C10.9650713,17.0701646 11.1182281,16.5874486 10.9459267,16.1804527 L10.0557026,14.050823 C9.99826884,13.9183128 9.99826884,13.7668724 10.0557026,13.6248971 C10.1131365,13.4923868 10.2184318,13.3788066 10.3620163,13.3220165 L12.7072301,12.3660494 C12.8412424,12.3092593 12.9943992,12.3092593 13.1379837,12.3660494 C13.2719959,12.4228395 13.3868635,12.5269547 13.4442974,12.66893 L14.3345214,14.7985597 C14.5355397,15.2812757 15.0907332,15.5084362 15.5693483,15.3096708 C16.0575356,15.1109053 16.2872709,14.5619342 16.0862525,14.0886831 L15.1960285,11.9590535 C14.9471487,11.3627572 14.4685336,10.8895062 13.8654786,10.6434156 C13.559165,10.5203704 13.243279,10.4541152 12.9273931,10.4541152 C12.6115071,10.4541152 12.2860489,10.5203704 11.9893075,10.6434156 L9.64409369,11.5993827 C9.0410387,11.8454733 8.56242363,12.3187243 8.31354379,12.9150206 C8.06466395,13.5113169 8.06466395,14.1738683 8.31354379,14.7701646 L8.91659878,16.2088477 C7.7392057,17.0701646 6.71496945,18.0923868 5.83431772,19.2565844 L4.3793279,18.6602881 C3.12535642,18.149177 1.6895112,18.7360082 1.17260692,19.9759259 L0.186659878,22.294856 C-0.330244399,23.5347737 0.263238289,24.9545267 1.51720978,25.4656379 L2.97219959,26.0619342 C2.76160896,27.4911523 2.76160896,28.9393004 2.97219959,30.3685185 L1.51720978,30.9648148 C0.914154786,31.2109053 0.435539715,31.6841564 0.186659878,32.2804527 C-0.0622199593,32.876749 -0.0622199593,33.5393004 0.186659878,34.1355967 L1.15346232,36.4545267 C1.40234216,37.050823 1.88095723,37.5240741 2.48401222,37.7701646 C3.08706721,38.0162551 3.75712831,38.0162551 4.3601833,37.7701646 L5.81517312,37.1738683 C6.68625255,38.3380658 7.7200611,39.350823 8.89745418,40.2216049 L8.29439919,41.6602881 C8.04551935,42.2565844 8.04551935,42.9191358 8.29439919,43.5154321 C8.54327902,44.1117284 9.02189409,44.5849794 9.62494908,44.83107 L11.9701629,45.7965021 C13.2241344,46.3076132 14.6599796,45.7207819 15.1768839,44.4808642 L15.7799389,43.0421811 C17.2253564,43.2504115 18.6899185,43.2504115 20.135336,43.0421811 L20.738391,44.4808642 C20.9872709,45.0771605 21.4658859,45.5504115 22.0689409,45.7965021 C22.6719959,46.0425926 23.342057,46.0425926 23.945112,45.7965021 Z" id="Shape"></path>
                        <path d="M10.256721,28.276749 C10.2854379,32.4602881 13.7410387,35.8393004 17.9624236,35.8393004 C17.9815682,35.8393004 18.0007128,35.8393004 18.0198574,35.8393004 C20.0779022,35.8203704 22.0115071,35.0158436 23.4569246,33.5676955 C24.9023422,32.1195473 25.6872709,30.1981481 25.6776986,28.1631687 C25.6776986,27.6520576 25.246945,27.2355967 24.7300407,27.2355967 L24.7204684,27.2355967 C24.1939919,27.2355967 23.7728106,27.6615226 23.7823829,28.1820988 C23.7919552,29.7154321 23.1984725,31.1635802 22.1072301,32.2615226 C21.0159878,33.359465 19.560998,33.9652263 18.0102851,33.9746914 C18.0007128,33.9746914 17.9815682,33.9746914 17.9719959,33.9746914 C14.7844196,33.9746914 12.1807536,31.4191358 12.161609,28.267284 C12.1424644,25.0965021 14.7269857,22.5030864 17.9337067,22.4746914 C18.4601833,22.4746914 18.8813646,22.0487654 18.8717923,21.5281893 C18.8717923,21.0170782 18.4410387,20.6006173 17.9241344,20.6006173 C17.9241344,20.6006173 17.9241344,20.6006173 17.9145621,20.6006173 C13.654888,20.6290123 10.2280041,24.0742798 10.256721,28.276749 Z" id="Shape"></path>
                        <path d="M33.9577393,0.0236625514 L32.1102851,0.0236625514 C30.9807536,0.0236625514 30.0618126,0.932304527 30.0618126,2.04917695 L30.0618126,2.98621399 C29.1428717,3.23230453 28.26222,3.59197531 27.439002,4.06522634 L26.7689409,3.4026749 C26.3860489,3.02407407 25.8691446,2.8063786 25.3235234,2.8063786 C24.7779022,2.8063786 24.260998,3.01460905 23.8781059,3.4026749 L22.5762729,4.6899177 C22.1933809,5.06851852 21.9732179,5.57962963 21.9732179,6.1191358 C21.9732179,6.65864198 22.1838086,7.16975309 22.5762729,7.54835391 L23.246334,8.21090535 C22.7677189,9.02489712 22.4039715,9.89567901 22.1550916,10.804321 L21.2074338,10.804321 C20.0779022,10.804321 19.1589613,11.712963 19.1589613,12.8298354 L19.1589613,14.6565844 C19.1589613,15.7734568 20.0779022,16.6820988 21.2074338,16.6820988 L22.1550916,16.6820988 C22.4039715,17.5907407 22.7677189,18.4615226 23.246334,19.2755144 L22.5762729,19.9380658 C22.1933809,20.3166667 21.9732179,20.8277778 21.9732179,21.367284 C21.9732179,21.9067901 22.1838086,22.4179012 22.5762729,22.7965021 L23.8781059,24.0837449 C24.260998,24.4623457 24.7779022,24.6800412 25.3235234,24.6800412 C25.8691446,24.6800412 26.3860489,24.4718107 26.7689409,24.0837449 L27.439002,23.4211934 C28.26222,23.8944444 29.1428717,24.2541152 30.0618126,24.5002058 L30.0618126,25.4372428 C30.0618126,26.5541152 30.9807536,27.4627572 32.1102851,27.4627572 L33.9577393,27.4627572 C35.0872709,27.4627572 36.0062118,26.5541152 36.0062118,25.4372428 L36.0062118,24.5002058 C36.9251527,24.2541152 37.8058045,23.8944444 38.6290224,23.4211934 L39.2990835,24.0837449 C39.6819756,24.4623457 40.1988798,24.6800412 40.744501,24.6800412 C41.2901222,24.6800412 41.8070265,24.4718107 42.1899185,24.0837449 L43.4917515,22.7965021 C44.2862525,22.0109053 44.2862525,20.7236626 43.4917515,19.9380658 L42.8216904,19.2755144 C43.3003055,18.4615226 43.664053,17.5907407 43.9129328,16.6820988 L44.8605906,16.6820988 C45.9901222,16.6820988 46.9090631,15.7734568 46.9090631,14.6565844 L46.9090631,12.8298354 C46.9090631,11.712963 45.9901222,10.804321 44.8605906,10.804321 L43.9129328,10.804321 C43.664053,9.89567901 43.3003055,9.02489712 42.8216904,8.21090535 L43.4917515,7.54835391 C44.2862525,6.7627572 44.2862525,5.4755144 43.4917515,4.6899177 L42.1899185,3.4026749 C41.8070265,3.02407407 41.2901222,2.8063786 40.744501,2.8063786 C40.1988798,2.8063786 39.6819756,3.01460905 39.2990835,3.4026749 L38.6290224,4.06522634 C37.8058045,3.59197531 36.9251527,3.23230453 36.0062118,2.98621399 L36.0062118,2.04917695 C35.9966395,0.932304527 35.0776986,0.0236625514 33.9577393,0.0236625514 Z M38.236558,6.0244856 C38.3992872,6.12860082 38.5811609,6.18539095 38.7630346,6.18539095 C39.0119145,6.18539095 39.251222,6.09074074 39.4330957,5.91090535 L40.6296334,4.72777778 C40.6679226,4.6899177 40.7062118,4.68045267 40.7349287,4.68045267 C40.7636456,4.68045267 40.8019348,4.6899177 40.840224,4.72777778 L42.142057,6.01502058 C42.1994908,6.0718107 42.1994908,6.16646091 42.142057,6.22325103 L40.9455193,7.4063786 C40.6296334,7.71872428 40.5721996,8.22037037 40.8306517,8.58950617 C41.5198574,9.60226337 41.9889002,10.7286008 42.2282077,11.9211934 C42.3143585,12.3565844 42.7068228,12.6783951 43.156721,12.6783951 L44.8510183,12.6783951 C44.937169,12.6783951 45.0041752,12.7446502 45.0041752,12.8298354 L45.0041752,14.6565844 C45.0041752,14.7417695 44.937169,14.8080247 44.8510183,14.8080247 L43.156721,14.8080247 C42.7068228,14.8080247 42.3143585,15.1203704 42.2282077,15.5652263 C41.9889002,16.7578189 41.5198574,17.8841564 40.8306517,18.8969136 C40.5817719,19.2660494 40.6296334,19.7676955 40.9455193,20.0800412 L42.142057,21.2631687 C42.1994908,21.3199588 42.1994908,21.4146091 42.142057,21.4713992 L40.840224,22.758642 C40.8019348,22.7965021 40.7636456,22.8059671 40.7349287,22.8059671 C40.7062118,22.8059671 40.6679226,22.7965021 40.6296334,22.758642 L39.4330957,21.5565844 C39.1172098,21.2442387 38.6098778,21.1874486 38.236558,21.4430041 C37.2123218,22.1244856 36.0732179,22.5882716 34.8671079,22.8248971 C34.4267821,22.9100823 34.1013238,23.2981481 34.1013238,23.7430041 L34.1013238,25.4183128 C34.1013238,25.5034979 34.0343177,25.5697531 33.948167,25.5697531 L32.1007128,25.5697531 C32.0145621,25.5697531 31.947556,25.5034979 31.947556,25.4183128 L31.947556,23.7430041 C31.947556,23.2981481 31.6316701,22.9100823 31.1817719,22.8248971 C29.9756619,22.5882716 28.836558,22.1244856 27.8123218,21.4430041 C27.439002,21.1969136 26.9316701,21.2442387 26.6157841,21.5565844 L25.4192464,22.7397119 C25.3809572,22.777572 25.342668,22.787037 25.3139511,22.787037 C25.2852342,22.787037 25.246945,22.777572 25.2086558,22.7397119 L23.9068228,21.4524691 C23.8685336,21.4146091 23.8589613,21.376749 23.8589613,21.3483539 C23.8589613,21.3199588 23.8685336,21.2820988 23.9068228,21.2442387 L25.1033605,20.0611111 C25.4192464,19.7487654 25.4766802,19.2471193 25.2182281,18.8779835 C24.5290224,17.8652263 24.0599796,16.7388889 23.8206721,15.5462963 C23.7345214,15.1109053 23.342057,14.7890947 22.8921589,14.7890947 L21.1978615,14.7890947 C21.1117108,14.7890947 21.0447047,14.7228395 21.0447047,14.6376543 L21.0447047,12.8109053 C21.0447047,12.7257202 21.1117108,12.659465 21.1978615,12.659465 L22.8921589,12.659465 C23.342057,12.659465 23.7345214,12.3471193 23.8206721,11.9022634 C24.0599796,10.7096708 24.5290224,9.58333333 25.2182281,8.57057613 C25.4671079,8.20144033 25.4192464,7.69979424 25.1033605,7.38744856 L23.9068228,6.20432099 C23.8685336,6.16646091 23.8589613,6.12860082 23.8589613,6.10020576 C23.8589613,6.0718107 23.8685336,6.03395062 23.9068228,5.99609053 L25.2086558,4.70884774 C25.246945,4.67098765 25.2852342,4.66152263 25.3139511,4.66152263 C25.342668,4.66152263 25.3809572,4.67098765 25.4192464,4.70884774 L26.6157841,5.89197531 C26.9316701,6.20432099 27.439002,6.26111111 27.8123218,6.00555556 C28.836558,5.32407407 29.9756619,4.86028807 31.1817719,4.62366255 C31.6220978,4.53847737 31.947556,4.15041152 31.947556,3.70555556 L31.947556,2.04917695 C31.947556,1.96399177 32.0145621,1.89773663 32.1007128,1.89773663 L33.948167,1.89773663 C34.0343177,1.89773663 34.1013238,1.96399177 34.1013238,2.04917695 L34.1013238,3.7244856 C34.1013238,4.16934156 34.4172098,4.55740741 34.8671079,4.64259259 C36.0732179,4.87921811 37.2123218,5.34300412 38.236558,6.0244856 Z" id="Shape"></path>
                        <path d="M27.4102851,13.7290123 C27.4102851,16.795679 29.9373727,19.2944444 33.0387984,19.2944444 C36.140224,19.2944444 38.6673116,16.795679 38.6673116,13.7290123 C38.6673116,10.6623457 36.140224,8.16358025 33.0387984,8.16358025 C29.9373727,8.16358025 27.4102851,10.6623457 27.4102851,13.7290123 Z M36.7624236,13.7290123 C36.7624236,15.7639918 35.0872709,17.4203704 33.0292261,17.4203704 C30.9711813,17.4203704 29.2960285,15.7639918 29.2960285,13.7290123 C29.2960285,11.6940329 30.9711813,10.0376543 33.0292261,10.0376543 C35.0872709,10.0376543 36.7624236,11.7034979 36.7624236,13.7290123 Z" id="Shape"></path>
                    </g>
                </g>
            </g>
        </g>
    </g>
</svg>