<?xml version="1.0" encoding="UTF-8" standalone="no"?>
<svg width="47px" height="46px" viewBox="0 0 47 46" version="1.1" xmlns="http://www.w3.org/2000/svg" xmlns:xlink="http://www.w3.org/1999/xlink">
    <!-- Generator: Sketch 46.2 (44496) - http://www.bohemiancoding.com/sketch -->
    <title>processing-file</title>
    <desc>Created with Sketch.</desc>
    <defs></defs>
    <g id="Page-1" stroke="none" stroke-width="1" fill="none" fill-rule="evenodd">
        <g id="DoQ" transform="translate(-395.000000, -1771.000000)" fill-rule="nonzero" fill="#FFFFFF">
            <g id="Group-24" transform="translate(259.000000, 1741.000000)">
                <g id="Group-15" transform="translate(39.000000, 0.000000)">
                    <g id="processing-file" transform="translate(98.000000, 30.000000)">
                        <path d="M34.8484848,0 L15.3333333,0 L15.3333333,16.4631579 L17.2848485,16.4631579 L17.8424242,18.3838596 L18.1212121,18.6582456 L18.1212121,2.74385965 L32.0606061,2.74385965 L32.0606061,13.7192982 L43.2121212,13.7192982 L43.2121212,38.4140351 L26.4848485,38.4140351 L27.3212121,39.7859649 L25.9272727,41.1578947 L46,41.1578947 L46,10.9754386 L34.8484848,0 Z M34.8484848,10.9754386 L34.8484848,2.74385965 L43.2121212,10.9754386 L34.8484848,10.9754386 Z" id="Shape"></path>
                        <path d="M14.9921178,17.754386 L13.1205274,17.754386 C11.976239,17.754386 11.0452925,18.678969 11.0452925,19.8154357 L11.0452925,20.768912 C10.1143459,21.0193199 9.22218887,21.3853007 8.38821596,21.8668544 L7.70940079,21.1926792 C7.32150641,20.8074363 6.797849,20.5859216 6.24509951,20.5859216 C5.69235002,20.5859216 5.16869261,20.7978052 4.78079823,21.1926792 L3.46195734,22.5025052 C3.07406296,22.8877482 2.85102369,23.4078261 2.85102369,23.9567973 C2.85102369,24.5057685 3.0643656,25.0258465 3.46195734,25.4110895 L4.1407725,26.0852646 C3.65590453,26.9135369 3.28740487,27.7995957 3.03527352,28.7241788 L2.07523493,28.7241788 C0.930946511,28.7241788 0,29.6487618 0,30.7852285 L0,32.6440257 C0,33.7804924 0.930946511,34.7050754 2.07523493,34.7050754 L3.03527352,34.7050754 C3.28740487,35.6296585 3.65590453,36.5157173 4.1407725,37.3439896 L3.46195734,38.0181648 C3.07406296,38.4034077 2.85102369,38.9234857 2.85102369,39.4724569 C2.85102369,40.0214281 3.0643656,40.541506 3.46195734,40.926749 L4.78079823,42.236575 C5.16869261,42.6218179 5.69235002,42.8433326 6.24509951,42.8433326 C6.797849,42.8433326 7.32150641,42.631449 7.70940079,42.236575 L8.38821596,41.5623998 C9.22218887,42.0439535 10.1143459,42.4099343 11.0452925,42.6603422 L11.0452925,43.6138185 C11.0452925,44.7502852 11.976239,45.6748682 13.1205274,45.6748682 L14.9921178,45.6748682 C16.1364062,45.6748682 17.0673527,44.7502852 17.0673527,43.6138185 L17.0673527,42.6603422 C17.9982992,42.4099343 18.8904563,42.0439535 19.7244292,41.5623998 L20.4032444,42.236575 C20.7911387,42.6218179 21.3147962,42.8433326 21.8675456,42.8433326 C22.4202951,42.8433326 22.9439525,42.631449 23.3318469,42.236575 L24.6506878,40.926749 C25.4555687,40.1273699 25.4555687,38.8175439 24.6506878,38.0181648 L23.9718727,37.3439896 C24.4567406,36.5157173 24.8252403,35.6296585 25.0773716,34.7050754 L26.0374102,34.7050754 C27.1816986,34.7050754 28.1126452,33.7804924 28.1126452,32.6440257 L28.1126452,30.7852285 C28.1126452,29.6487618 27.1816986,28.7241788 26.0374102,28.7241788 L25.0773716,28.7241788 C24.8252403,27.7995957 24.4567406,26.9135369 23.9718727,26.0852646 L24.6506878,25.4110895 C25.4555687,24.6117103 25.4555687,23.3018843 24.6506878,22.5025052 L23.3318469,21.1926792 C22.9439525,20.8074363 22.4202951,20.5859216 21.8675456,20.5859216 C21.3147962,20.5859216 20.7911387,20.7978052 20.4032444,21.1926792 L19.7244292,21.8668544 C18.8904563,21.3853007 17.9982992,21.0193199 17.0673527,20.768912 L17.0673527,19.8154357 C17.0576553,18.678969 16.1267088,17.754386 14.9921178,17.754386 Z M19.3268375,23.8604866 C19.4916926,23.9664284 19.6759424,24.0242149 19.8601922,24.0242149 C20.1123236,24.0242149 20.3547576,23.9279041 20.5390074,23.7449137 L21.7511773,22.5410295 C21.7899668,22.5025052 21.8287562,22.4928742 21.8578483,22.4928742 C21.8869404,22.4928742 21.9257298,22.5025052 21.9645192,22.5410295 L23.2833601,23.8508555 C23.3415443,23.908642 23.3415443,24.0049527 23.2833601,24.0627392 L22.0711902,25.2666233 C21.7511773,25.5844488 21.6929932,26.0948957 21.9548219,26.4705075 C22.6530318,27.5010324 23.1282024,28.6471302 23.3706364,29.8606454 C23.4579126,30.3036748 23.8555043,30.6311313 24.3112802,30.6311313 L26.0277129,30.6311313 C26.1149891,30.6311313 26.1828706,30.6985488 26.1828706,30.7852285 L26.1828706,32.6440257 C26.1828706,32.7307054 26.1149891,32.7981229 26.0277129,32.7981229 L24.3112802,32.7981229 C23.8555043,32.7981229 23.4579126,33.1159483 23.3706364,33.5686088 C23.1282024,34.782124 22.6530318,35.9282218 21.9548219,36.9587467 C21.7026905,37.3343585 21.7511773,37.8448054 22.0711902,38.1626309 L23.2833601,39.3665151 C23.3415443,39.4243015 23.3415443,39.5206122 23.2833601,39.5783987 L21.9645192,40.8882247 C21.9257298,40.926749 21.8869404,40.93638 21.8578483,40.93638 C21.8287562,40.93638 21.7899668,40.926749 21.7511773,40.8882247 L20.5390074,39.6650783 C20.2189945,39.3472529 19.7050345,39.2894665 19.3268375,39.5495055 C18.28922,40.2429427 17.1352342,40.7148654 15.9133669,40.9556422 C15.4672884,41.0423219 15.1375782,41.4371959 15.1375782,41.8898563 L15.1375782,43.5945563 C15.1375782,43.681236 15.0696966,43.7486535 14.9824204,43.7486535 L13.11083,43.7486535 C13.0235538,43.7486535 12.9556723,43.681236 12.9556723,43.5945563 L12.9556723,41.8898563 C12.9556723,41.4371959 12.6356594,41.0423219 12.1798835,40.9556422 C10.9580162,40.7148654 9.80403044,40.2429427 8.76641298,39.5495055 C8.38821596,39.2990975 7.8742559,39.3472529 7.55424304,39.6650783 L6.34207311,40.8689625 C6.30328367,40.9074868 6.26449423,40.9171179 6.23540215,40.9171179 C6.20631007,40.9171179 6.16752063,40.9074868 6.1287312,40.8689625 L4.80989031,39.5591365 C4.77110087,39.5206122 4.76140351,39.4820879 4.76140351,39.4531947 C4.76140351,39.4243015 4.77110087,39.3857772 4.80989031,39.3472529 L6.02206024,38.1433687 C6.34207311,37.8255433 6.40025726,37.3150964 6.13842856,36.9394845 C5.44021867,35.9089596 4.96504806,34.7628619 4.72261407,33.5493466 C4.63533784,33.1063172 4.2377461,32.7788607 3.7819702,32.7788607 L2.06553757,32.7788607 C1.97826134,32.7788607 1.91037982,32.7114432 1.91037982,32.6247636 L1.91037982,30.7659664 C1.91037982,30.6792867 1.97826134,30.6118692 2.06553757,30.6118692 L3.7819702,30.6118692 C4.2377461,30.6118692 4.63533784,30.2940438 4.72261407,29.8413833 C4.96504806,28.627868 5.44021867,27.4817703 6.13842856,26.4512454 C6.3905599,26.0756335 6.34207311,25.5651866 6.02206024,25.2473612 L4.80989031,24.043477 C4.77110087,24.0049527 4.76140351,23.9664284 4.76140351,23.9375352 C4.76140351,23.908642 4.77110087,23.8701177 4.80989031,23.8315934 L6.1287312,22.5217674 C6.16752063,22.4832431 6.20631007,22.473612 6.23540215,22.473612 C6.26449423,22.473612 6.30328367,22.4832431 6.34207311,22.5217674 L7.55424304,23.7256516 C7.8742559,24.043477 8.38821596,24.1012634 8.76641298,23.8412245 C9.80403044,23.1477872 10.9580162,22.6758646 12.1798835,22.4350877 C12.6259621,22.3484081 12.9556723,21.953534 12.9556723,21.5008736 L12.9556723,19.8154357 C12.9556723,19.728756 13.0235538,19.6613385 13.11083,19.6613385 L14.9824204,19.6613385 C15.0696966,19.6613385 15.1375782,19.728756 15.1375782,19.8154357 L15.1375782,21.5201357 C15.1375782,21.9727962 15.457591,22.3676702 15.9133669,22.4543499 C17.1352342,22.6951267 18.28922,23.1670493 19.3268375,23.8604866 Z" id="Shape" stroke="#FFFFFF" stroke-width="0.5"></path>
                        <path d="M8.07017544,31.4876327 C8.07017544,34.6081005 10.6302783,37.1507039 13.7722228,37.1507039 C16.9141673,37.1507039 19.4742702,34.6081005 19.4742702,31.4876327 C19.4742702,28.3671648 16.9141673,25.8245614 13.7722228,25.8245614 C10.6302783,25.8245614 8.07017544,28.3671648 8.07017544,31.4876327 Z M17.5444957,31.4876327 C17.5444957,33.5583135 15.8474577,35.2437514 13.7625255,35.2437514 C11.6775932,35.2437514 9.98055526,33.5583135 9.98055526,31.4876327 C9.98055526,29.4169518 11.6775932,27.731514 13.7625255,27.731514 C15.8474577,27.731514 17.5444957,29.4265829 17.5444957,31.4876327 Z" id="Shape" stroke="#FFFFFF" stroke-width="0.5"></path>
                    </g>
                </g>
            </g>
        </g>
    </g>
</svg>