<?xml version="1.0" encoding="UTF-8" standalone="no"?>
<svg width="40px" height="25px" viewBox="0 0 40 25" version="1.1" xmlns="http://www.w3.org/2000/svg" xmlns:xlink="http://www.w3.org/1999/xlink">
    <!-- Generator: Sketch 46.2 (44496) - http://www.bohemiancoding.com/sketch -->
    <title>Shape</title>
    <desc>Created with Sketch.</desc>
    <defs></defs>
    <g id="Page-1" stroke="none" stroke-width="1" fill="none" fill-rule="evenodd">
        <g id="DoQ" transform="translate(-871.000000, -1919.000000)" fill-rule="nonzero" fill="#8FD8E3">
            <g id="Group-24" transform="translate(259.000000, 1741.000000)">
                <g id="Group-15" transform="translate(552.000000, 0.000000)">
                    <path d="M91.7597574,182.401033 L80.6030017,171.247849 C80.4583771,171.10327 80.2311099,171 80.0038426,171 C79.7765754,171 79.5493082,171.10327 79.4046835,171.247849 L68.2479279,182.401033 C67.9173574,182.731497 67.9173574,183.268503 68.2479279,183.598967 C68.4132132,183.7642 68.6198198,183.846816 68.847087,183.846816 C69.0743542,183.846816 69.2809608,183.7642 69.4462461,183.598967 L79.1567556,173.891566 L79.1567556,209.153184 C79.1567556,209.628227 79.5286475,210 80.0038426,210 C80.4790378,210 80.8509297,209.628227 80.8509297,209.153184 L80.8509297,173.891566 L90.5614392,183.598967 C90.8920097,183.929432 91.4291869,183.929432 91.7597574,183.598967 C92.0903279,183.268503 92.0696673,182.731497 91.7597574,182.401033 Z" id="Shape" transform="translate(80.000000, 190.500000) rotate(-270.000000) translate(-80.000000, -190.500000) "></path>
                </g>
            </g>
        </g>
    </g>
</svg>