<?xml version="1.0" encoding="UTF-8" standalone="no"?>
<svg width="80px" height="80px" viewBox="0 0 80 80" version="1.1" xmlns="http://www.w3.org/2000/svg" xmlns:xlink="http://www.w3.org/1999/xlink">
    <!-- Generator: Sketch 46.2 (44496) - http://www.bohemiancoding.com/sketch -->
    <title>hcm_server</title>
    <desc>Created with Sketch.</desc>
    <defs></defs>
    <g id="Page-1" stroke="none" stroke-width="1" fill="none" fill-rule="evenodd">
        <g id="Artboard" transform="translate(-729.000000, -208.000000)">
            <g id="Group-24" transform="translate(51.000000, 53.000000)">
                <g id="hcm_server" transform="translate(679.000000, 156.000000)">
                    <circle id="Oval-13" stroke="#72419F" stroke-width="2" fill="#FFFFFF" cx="39" cy="39" r="39"></circle>
                    <path d="M31.532959,35 L29.2697754,35 L29.2697754,30.378418 L25.0290527,30.378418 L25.0290527,35 L22.7585449,35 L22.7585449,24.2919922 L25.0290527,24.2919922 L25.0290527,28.4887695 L29.2697754,28.4887695 L29.2697754,24.2919922 L31.532959,24.2919922 L31.532959,35 Z M38.7839355,26.027832 C37.9294391,26.027832 37.2678246,26.3488737 36.7990723,26.9909668 C36.3303199,27.6330599 36.0959473,28.5278263 36.0959473,29.675293 C36.0959473,32.0630002 36.9919344,33.2568359 38.7839355,33.2568359 C39.5358924,33.2568359 40.4465279,33.0688495 41.5158691,32.6928711 L41.5158691,34.597168 C40.6369585,34.9633807 39.655523,35.1464844 38.5715332,35.1464844 C37.0139082,35.1464844 35.8225139,34.674077 34.9973145,33.729248 C34.172115,32.7844191 33.7595215,31.4282315 33.7595215,29.6606445 C33.7595215,28.5473577 33.9621562,27.5720257 34.3674316,26.7346191 C34.7727071,25.8972126 35.3549767,25.2551292 36.1142578,24.8083496 C36.873539,24.36157 37.7634226,24.1381836 38.7839355,24.1381836 C39.8239798,24.1381836 40.8688912,24.3896459 41.9187012,24.8925781 L41.1862793,26.7382812 C40.7858867,26.5478506 40.3830587,26.3818366 39.9777832,26.2402344 C39.5725077,26.0986321 39.1745625,26.027832 38.7839355,26.027832 Z M48.3273926,35 L45.7492676,26.5991211 L45.6833496,26.5991211 C45.7761235,28.308114 45.8225098,29.4482393 45.8225098,30.0195312 L45.8225098,35 L43.7937012,35 L43.7937012,24.2919922 L46.8845215,24.2919922 L49.4187012,32.4804688 L49.4626465,32.4804688 L52.1506348,24.2919922 L55.2414551,24.2919922 L55.2414551,35 L53.1247559,35 L53.1247559,29.9316406 C53.1247559,29.6923816 53.1284179,29.4165055 53.1357422,29.1040039 C53.1430664,28.7915023 53.1760251,27.9614325 53.2346191,26.6137695 L53.1687012,26.6137695 L50.4074707,35 L48.3273926,35 Z M22.5974121,52.0263672 C22.5974121,52.9931689 22.2495152,53.75488 21.5537109,54.3115234 C20.8579067,54.8681668 19.8898988,55.1464844 18.6496582,55.1464844 C17.5070744,55.1464844 16.4963423,54.9316428 15.6174316,54.5019531 L15.6174316,52.3925781 C16.3400915,52.7148454 16.9516577,52.9418939 17.4521484,53.0737305 C17.9526392,53.2055671 18.4103983,53.2714844 18.8254395,53.2714844 C19.3234888,53.2714844 19.7055651,53.1762705 19.9716797,52.9858398 C20.2377943,52.7954092 20.3708496,52.5122089 20.3708496,52.1362305 C20.3708496,51.9262685 20.3122564,51.7395028 20.1950684,51.5759277 C20.0778803,51.4123527 19.9057629,51.2548836 19.6787109,51.1035156 C19.451659,50.9521477 18.9890172,50.7104509 18.2907715,50.378418 C17.6364713,50.0707992 17.1457536,49.775392 16.8186035,49.4921875 C16.4914534,49.208983 16.2302256,48.8793964 16.0349121,48.503418 C15.8395986,48.1274395 15.7419434,47.6879908 15.7419434,47.1850586 C15.7419434,46.2377882 16.0629851,45.4931668 16.7050781,44.9511719 C17.3471712,44.409177 18.2346135,44.1381836 19.3674316,44.1381836 C19.924075,44.1381836 20.4550756,44.2041009 20.9604492,44.3359375 C21.4658228,44.4677741 21.994382,44.6533191 22.5461426,44.8925781 L21.8137207,46.6577148 C21.2424288,46.4233387 20.7700214,46.2597661 20.3964844,46.1669922 C20.0229474,46.0742183 19.6555194,46.027832 19.2941895,46.027832 C18.8644998,46.027832 18.5349133,46.1279287 18.3054199,46.328125 C18.0759266,46.5283213 17.9611816,46.7895492 17.9611816,47.1118164 C17.9611816,47.3120127 18.0075679,47.4865715 18.1003418,47.635498 C18.1931157,47.7844246 18.3408193,47.9284661 18.543457,48.067627 C18.7460948,48.2067878 19.2258263,48.4570294 19.982666,48.8183594 C20.9836476,49.2968774 21.6696759,49.7766089 22.0407715,50.2575684 C22.4118671,50.7385278 22.5974121,51.3281215 22.5974121,52.0263672 Z M27.7536621,48.2470703 C27.2800269,48.2470703 26.9089369,48.3972153 26.6403809,48.6975098 C26.3718248,48.9978042 26.2180178,49.4238254 26.1789551,49.9755859 L29.3137207,49.9755859 C29.303955,49.4238254 29.1599135,48.9978042 28.8815918,48.6975098 C28.6032701,48.3972153 28.2272973,48.2470703 27.7536621,48.2470703 Z M28.0686035,55.1464844 C26.7502375,55.1464844 25.7199744,54.7827185 24.9777832,54.0551758 C24.235592,53.3276331 23.864502,52.2973699 23.864502,50.9643555 C23.864502,49.5922783 24.2075161,48.5314979 24.8935547,47.7819824 C25.5795933,47.032467 26.5280701,46.6577148 27.7390137,46.6577148 C28.896246,46.6577148 29.7971159,46.9873014 30.4416504,47.6464844 C31.0861849,48.3056674 31.4084473,49.2163028 31.4084473,50.378418 L31.4084473,51.4624023 L26.1276855,51.4624023 C26.1520997,52.0971711 26.3400861,52.5927717 26.6916504,52.9492188 C27.0432146,53.3056658 27.5363738,53.4838867 28.1711426,53.4838867 C28.6643091,53.4838867 29.130613,53.4326177 29.5700684,53.3300781 C30.0095237,53.2275385 30.4685035,53.063966 30.9470215,52.8393555 L30.9470215,54.5678711 C30.5563945,54.7631846 30.1389182,54.9084468 29.6945801,55.0036621 C29.2502419,55.0988774 28.7082552,55.1464844 28.0686035,55.1464844 Z M37.795166,46.6577148 C38.0979019,46.6577148 38.3493642,46.6796873 38.5495605,46.7236328 L38.3811035,48.8183594 C38.2004385,48.769531 37.9807142,48.7451172 37.7219238,48.7451172 C37.0090296,48.7451172 36.4536153,48.9282208 36.0556641,49.2944336 C35.6577129,49.6606464 35.4587402,50.1733365 35.4587402,50.8325195 L35.4587402,55 L33.2248535,55 L33.2248535,46.8115234 L34.916748,46.8115234 L35.2463379,48.1884766 L35.3562012,48.1884766 C35.6101087,47.7294899 35.9531228,47.3596205 36.3852539,47.0788574 C36.817385,46.7980943 37.287351,46.6577148 37.795166,46.6577148 Z M41.9846191,55 L38.864502,46.8115234 L41.2009277,46.8115234 L42.782959,51.4770508 C42.9587411,52.067874 43.0686033,52.6269505 43.1125488,53.1542969 L43.1564941,53.1542969 C43.1809083,52.6855445 43.2907705,52.1264681 43.486084,51.4770508 L45.060791,46.8115234 L47.3972168,46.8115234 L44.2770996,55 L41.9846191,55 Z M51.9602051,48.2470703 C51.4865699,48.2470703 51.1154799,48.3972153 50.8469238,48.6975098 C50.5783678,48.9978042 50.4245607,49.4238254 50.385498,49.9755859 L53.5202637,49.9755859 C53.510498,49.4238254 53.3664565,48.9978042 53.0881348,48.6975098 C52.8098131,48.3972153 52.4338403,48.2470703 51.9602051,48.2470703 Z M52.2751465,55.1464844 C50.9567805,55.1464844 49.9265174,54.7827185 49.1843262,54.0551758 C48.442135,53.3276331 48.0710449,52.2973699 48.0710449,50.9643555 C48.0710449,49.5922783 48.4140591,48.5314979 49.1000977,47.7819824 C49.7861362,47.032467 50.7346131,46.6577148 51.9455566,46.6577148 C53.102789,46.6577148 54.0036589,46.9873014 54.6481934,47.6464844 C55.2927278,48.3056674 55.6149902,49.2163028 55.6149902,50.378418 L55.6149902,51.4624023 L50.3342285,51.4624023 C50.3586427,52.0971711 50.5466291,52.5927717 50.8981934,52.9492188 C51.2497576,53.3056658 51.7429167,53.4838867 52.3776855,53.4838867 C52.8708521,53.4838867 53.337156,53.4326177 53.7766113,53.3300781 C54.2160667,53.2275385 54.6750464,53.063966 55.1535645,52.8393555 L55.1535645,54.5678711 C54.7629375,54.7631846 54.3454612,54.9084468 53.901123,55.0036621 C53.4567849,55.0988774 52.9147981,55.1464844 52.2751465,55.1464844 Z M62.001709,46.6577148 C62.3044449,46.6577148 62.5559072,46.6796873 62.7561035,46.7236328 L62.5876465,48.8183594 C62.4069815,48.769531 62.1872572,48.7451172 61.9284668,48.7451172 C61.2155726,48.7451172 60.6601582,48.9282208 60.262207,49.2944336 C59.8642558,49.6606464 59.6652832,50.1733365 59.6652832,50.8325195 L59.6652832,55 L57.4313965,55 L57.4313965,46.8115234 L59.123291,46.8115234 L59.4528809,48.1884766 L59.5627441,48.1884766 C59.8166517,47.7294899 60.1596658,47.3596205 60.5917969,47.0788574 C61.0239279,46.7980943 61.4938939,46.6577148 62.001709,46.6577148 Z" id="HCM-Server" fill="#565553"></path>
                </g>
            </g>
        </g>
    </g>
</svg>