<?xml version="1.0" encoding="UTF-8" standalone="no"?>
<svg width="80px" height="80px" viewBox="0 0 80 80" version="1.1" xmlns="http://www.w3.org/2000/svg" xmlns:xlink="http://www.w3.org/1999/xlink">
    <!-- Generator: Sketch 46.2 (44496) - http://www.bohemiancoding.com/sketch -->
    <title>person_record</title>
    <desc>Created with Sketch.</desc>
    <defs></defs>
    <g id="Page-1" stroke="none" stroke-width="1" fill="none" fill-rule="evenodd">
        <g id="Artboard" transform="translate(-895.000000, -208.000000)">
            <g id="Group-24" transform="translate(51.000000, 53.000000)">
                <g id="person_record" transform="translate(845.000000, 156.000000)">
                    <circle id="Oval-13" stroke="#B748CD" stroke-width="2" fill="#FFFFFF" cx="39" cy="39" r="39"></circle>
                    <path d="M16.7709961,29.3310547 L17.5180664,29.3310547 C18.2163121,29.3310547 18.7387678,29.1931166 19.0854492,28.9172363 C19.4321306,28.641356 19.6054688,28.2397487 19.6054688,27.7124023 C19.6054688,27.1801731 19.4602065,26.7871106 19.1696777,26.5332031 C18.8791489,26.2792956 18.4238312,26.1523438 17.8037109,26.1523438 L16.7709961,26.1523438 L16.7709961,29.3310547 Z M21.8979492,27.6318359 C21.8979492,28.7841854 21.5378454,29.6655243 20.817627,30.2758789 C20.0974085,30.8862335 19.0732488,31.1914062 17.7451172,31.1914062 L16.7709961,31.1914062 L16.7709961,35 L14.5004883,35 L14.5004883,24.2919922 L17.9208984,24.2919922 C19.2197331,24.2919922 20.207272,24.5715304 20.8835449,25.1306152 C21.5598178,25.6897001 21.8979492,26.523432 21.8979492,27.6318359 Z M27.1347656,28.2470703 C26.6611304,28.2470703 26.2900404,28.3972153 26.0214844,28.6975098 C25.7529283,28.9978042 25.5991213,29.4238254 25.5600586,29.9755859 L28.6948242,29.9755859 C28.6850585,29.4238254 28.541017,28.9978042 28.2626953,28.6975098 C27.9843736,28.3972153 27.6084008,28.2470703 27.1347656,28.2470703 Z M27.449707,35.1464844 C26.1313411,35.1464844 25.1010779,34.7827185 24.3588867,34.0551758 C23.6166955,33.3276331 23.2456055,32.2973699 23.2456055,30.9643555 C23.2456055,29.5922783 23.5886196,28.5314979 24.2746582,27.7819824 C24.9606968,27.032467 25.9091736,26.6577148 27.1201172,26.6577148 C28.2773495,26.6577148 29.1782194,26.9873014 29.8227539,27.6464844 C30.4672884,28.3056674 30.7895508,29.2163028 30.7895508,30.378418 L30.7895508,31.4624023 L25.5087891,31.4624023 C25.5332032,32.0971711 25.7211896,32.5927717 26.0727539,32.9492188 C26.4243182,33.3056658 26.9174773,33.4838867 27.5522461,33.4838867 C28.0454126,33.4838867 28.5117166,33.4326177 28.9511719,33.3300781 C29.3906272,33.2275385 29.849607,33.063966 30.328125,32.8393555 L30.328125,34.5678711 C29.937498,34.7631846 29.5200218,34.9084468 29.0756836,35.0036621 C28.6313454,35.0988774 28.0893587,35.1464844 27.449707,35.1464844 Z M37.1762695,26.6577148 C37.4790054,26.6577148 37.7304677,26.6796873 37.9306641,26.7236328 L37.762207,28.8183594 C37.5815421,28.769531 37.3618177,28.7451172 37.1030273,28.7451172 C36.3901332,28.7451172 35.8347188,28.9282208 35.4367676,29.2944336 C35.0388164,29.6606464 34.8398438,30.1733365 34.8398438,30.8325195 L34.8398438,35 L32.605957,35 L32.605957,26.8115234 L34.2978516,26.8115234 L34.6274414,28.1884766 L34.7373047,28.1884766 C34.9912122,27.7294899 35.3342264,27.3596205 35.7663574,27.0788574 C36.1984885,26.7980943 36.6684545,26.6577148 37.1762695,26.6577148 Z M45.1303711,32.5683594 C45.1303711,33.4082073 44.838626,34.0478494 44.255127,34.4873047 C43.6716279,34.92676 42.7988339,35.1464844 41.6367188,35.1464844 C41.0410126,35.1464844 40.5332052,35.1062016 40.1132812,35.0256348 C39.6933573,34.945068 39.3002948,34.8266609 38.934082,34.6704102 L38.934082,32.824707 C39.3491232,33.0200205 39.8166478,33.1835931 40.3366699,33.3154297 C40.8566921,33.4472663 41.3144511,33.5131836 41.7099609,33.5131836 C42.5205119,33.5131836 42.9257812,33.2788109 42.9257812,32.8100586 C42.9257812,32.6342765 42.8720708,32.4914556 42.7646484,32.3815918 C42.657226,32.271728 42.471681,32.1472175 42.2080078,32.0080566 C41.9443346,31.8688958 41.5927756,31.7065439 41.1533203,31.5209961 C40.5234344,31.2573229 40.0607925,31.0131847 39.7653809,30.7885742 C39.4699692,30.5639637 39.2551276,30.3063979 39.1208496,30.0158691 C38.9865716,29.7253403 38.9194336,29.3676779 38.9194336,28.9428711 C38.9194336,28.2153284 39.2014132,27.6525899 39.7653809,27.2546387 C40.3293485,26.8566875 41.1289011,26.6577148 42.1640625,26.6577148 C43.1503956,26.6577148 44.1098586,26.8725564 45.0424805,27.3022461 L44.3686523,28.9135742 C43.958494,28.7377921 43.5751971,28.5937506 43.21875,28.4814453 C42.8623029,28.3691401 42.498537,28.3129883 42.1274414,28.3129883 C41.4682584,28.3129883 41.1386719,28.4912092 41.1386719,28.8476562 C41.1386719,29.0478526 41.244872,29.2211907 41.4572754,29.3676758 C41.6696788,29.5141609 42.134762,29.7314439 42.8525391,30.0195312 C43.4921907,30.2783216 43.960936,30.5200184 44.2587891,30.7446289 C44.5566421,30.9692394 44.7763665,31.2280259 44.9179688,31.5209961 C45.059571,31.8139663 45.1303711,32.1630839 45.1303711,32.5683594 Z M48.6533203,30.8911133 C48.6533203,31.7016642 48.7863756,32.314451 49.0524902,32.7294922 C49.3186048,33.1445333 49.7519501,33.3520508 50.3525391,33.3520508 C50.9482452,33.3520508 51.3767077,33.145754 51.6379395,32.7331543 C51.8991712,32.3205546 52.0297852,31.706547 52.0297852,30.8911133 C52.0297852,30.0805624 51.8979505,29.4726583 51.6342773,29.0673828 C51.3706042,28.6621073 50.9384796,28.4594727 50.3378906,28.4594727 C49.7421845,28.4594727 49.3125013,28.6608867 49.0488281,29.0637207 C48.7851549,29.4665547 48.6533203,30.0756795 48.6533203,30.8911133 Z M54.3149414,30.8911133 C54.3149414,32.2241278 53.9633824,33.2665978 53.2602539,34.0185547 C52.5571254,34.7705116 51.5781313,35.1464844 50.3232422,35.1464844 C49.5371054,35.1464844 48.843753,34.974367 48.2431641,34.630127 C47.6425751,34.285887 47.181154,33.7915071 46.8588867,33.1469727 C46.5366195,32.5024382 46.3754883,31.7504926 46.3754883,30.8911133 C46.3754883,29.553216 46.7246059,28.5131873 47.4228516,27.7709961 C48.1210972,27.0288049 49.1025327,26.6577148 50.3671875,26.6577148 C51.1533242,26.6577148 51.8466767,26.8286116 52.4472656,27.1704102 C53.0478546,27.5122087 53.5092757,28.0029265 53.831543,28.6425781 C54.1538102,29.2822298 54.3149414,30.031734 54.3149414,30.8911133 Z M63.7192383,35 L61.4853516,35 L61.4853516,30.2172852 C61.4853516,29.6264619 61.3803721,29.1833511 61.1704102,28.8879395 C60.9604482,28.5925278 60.6259789,28.4448242 60.1669922,28.4448242 C59.5419891,28.4448242 59.0903334,28.6535624 58.8120117,29.0710449 C58.53369,29.4885275 58.3945312,30.1806592 58.3945312,31.1474609 L58.3945312,35 L56.1606445,35 L56.1606445,26.8115234 L57.8671875,26.8115234 L58.1674805,27.8588867 L58.2919922,27.8588867 C58.5410169,27.4633769 58.884031,27.1643077 59.3210449,26.9616699 C59.7580588,26.7590322 60.25488,26.6577148 60.8115234,26.6577148 C61.7636766,26.6577148 62.4863257,26.9152806 62.9794922,27.4304199 C63.4726587,27.9455592 63.7192383,28.68896 63.7192383,29.6606445 L63.7192383,35 Z M16.734375,49.0454102 L17.4667969,49.0454102 C18.1845739,49.0454102 18.7143538,48.9257824 19.0561523,48.6865234 C19.3979509,48.4472644 19.5688477,48.0712916 19.5688477,47.5585938 C19.5688477,47.0507787 19.3942889,46.6894542 19.045166,46.4746094 C18.6960432,46.2597646 18.1552771,46.1523438 17.4228516,46.1523438 L16.734375,46.1523438 L16.734375,49.0454102 Z M16.734375,50.8911133 L16.734375,55 L14.4638672,55 L14.4638672,44.2919922 L17.5839844,44.2919922 C19.0390698,44.2919922 20.1157192,44.5568821 20.8139648,45.0866699 C21.5122105,45.6164577 21.8613281,46.420893 21.8613281,47.5 C21.8613281,48.129886 21.68799,48.6901831 21.3413086,49.1809082 C20.9946272,49.6716333 20.5039094,50.056151 19.8691406,50.3344727 C21.4804768,52.7417113 22.530271,54.2968715 23.0185547,55 L20.4990234,55 L17.9428711,50.8911133 L16.734375,50.8911133 Z M27.581543,48.2470703 C27.1079078,48.2470703 26.7368177,48.3972153 26.4682617,48.6975098 C26.1997057,48.9978042 26.0458986,49.4238254 26.0068359,49.9755859 L29.1416016,49.9755859 C29.1318359,49.4238254 28.9877944,48.9978042 28.7094727,48.6975098 C28.431151,48.3972153 28.0551781,48.2470703 27.581543,48.2470703 Z M27.8964844,55.1464844 C26.5781184,55.1464844 25.5478553,54.7827185 24.8056641,54.0551758 C24.0634729,53.3276331 23.6923828,52.2973699 23.6923828,50.9643555 C23.6923828,49.5922783 24.035397,48.5314979 24.7214355,47.7819824 C25.4074741,47.032467 26.355951,46.6577148 27.5668945,46.6577148 C28.7241269,46.6577148 29.6249968,46.9873014 30.2695312,47.6464844 C30.9140657,48.3056674 31.2363281,49.2163028 31.2363281,50.378418 L31.2363281,51.4624023 L25.9555664,51.4624023 C25.9799806,52.0971711 26.167967,52.5927717 26.5195312,52.9492188 C26.8710955,53.3056658 27.3642546,53.4838867 27.9990234,53.4838867 C28.49219,53.4838867 28.9584939,53.4326177 29.3979492,53.3300781 C29.8374045,53.2275385 30.2963843,53.063966 30.7749023,52.8393555 L30.7749023,54.5678711 C30.3842754,54.7631846 29.9667991,54.9084468 29.5224609,55.0036621 C29.0781228,55.0988774 28.536136,55.1464844 27.8964844,55.1464844 Z M36.3779297,55.1464844 C33.8290888,55.1464844 32.5546875,53.7475726 32.5546875,50.949707 C32.5546875,49.5580985 32.9013637,48.4948767 33.5947266,47.7600098 C34.2880894,47.0251428 35.2817318,46.6577148 36.5756836,46.6577148 C37.522954,46.6577148 38.3725548,46.8432599 39.1245117,47.2143555 L38.465332,48.9428711 C38.1137678,48.8012688 37.7866226,48.6853032 37.4838867,48.5949707 C37.1811508,48.5046382 36.8784195,48.4594727 36.5756836,48.4594727 C35.4135684,48.4594727 34.8325195,49.2846597 34.8325195,50.9350586 C34.8325195,52.5366291 35.4135684,53.3374023 36.5756836,53.3374023 C37.0053732,53.3374023 37.4033185,53.2800299 37.7695312,53.1652832 C38.135744,53.0505365 38.5019513,52.871095 38.8681641,52.6269531 L38.8681641,54.5385742 C38.5068341,54.7680676 38.1418475,54.9267574 37.7731934,55.0146484 C37.4045392,55.1025395 36.9394559,55.1464844 36.3779297,55.1464844 Z M42.5449219,50.8911133 C42.5449219,51.7016642 42.6779772,52.314451 42.9440918,52.7294922 C43.2102064,53.1445333 43.6435517,53.3520508 44.2441406,53.3520508 C44.8398467,53.3520508 45.2683092,53.145754 45.529541,52.7331543 C45.7907728,52.3205546 45.9213867,51.706547 45.9213867,50.8911133 C45.9213867,50.0805624 45.7895521,49.4726583 45.5258789,49.0673828 C45.2622057,48.6621073 44.8300811,48.4594727 44.2294922,48.4594727 C43.6337861,48.4594727 43.2041029,48.6608867 42.9404297,49.0637207 C42.6767565,49.4665547 42.5449219,50.0756795 42.5449219,50.8911133 Z M48.206543,50.8911133 C48.206543,52.2241278 47.854984,53.2665978 47.1518555,54.0185547 C46.448727,54.7705116 45.4697328,55.1464844 44.2148438,55.1464844 C43.428707,55.1464844 42.7353546,54.974367 42.1347656,54.630127 C41.5341767,54.285887 41.0727555,53.7915071 40.7504883,53.1469727 C40.428221,52.5024382 40.2670898,51.7504926 40.2670898,50.8911133 C40.2670898,49.553216 40.6162074,48.5131873 41.3144531,47.7709961 C42.0126988,47.0288049 42.9941343,46.6577148 44.2587891,46.6577148 C45.0449258,46.6577148 45.7382782,46.8286116 46.3388672,47.1704102 C46.9394561,47.5122087 47.4008773,48.0029265 47.7231445,48.6425781 C48.0454118,49.2822298 48.206543,50.031734 48.206543,50.8911133 Z M54.6225586,46.6577148 C54.9252945,46.6577148 55.1767568,46.6796873 55.3769531,46.7236328 L55.2084961,48.8183594 C55.0278311,48.769531 54.8081068,48.7451172 54.5493164,48.7451172 C53.8364222,48.7451172 53.2810078,48.9282208 52.8830566,49.2944336 C52.4851054,49.6606464 52.2861328,50.1733365 52.2861328,50.8325195 L52.2861328,55 L50.0522461,55 L50.0522461,46.8115234 L51.7441406,46.8115234 L52.0737305,48.1884766 L52.1835938,48.1884766 C52.4375013,47.7294899 52.7805154,47.3596205 53.2126465,47.0788574 C53.6447776,46.7980943 54.1147436,46.6577148 54.6225586,46.6577148 Z M59.15625,55.1464844 C58.1943311,55.1464844 57.4387234,54.772953 56.8894043,54.0258789 C56.3400851,53.2788049 56.0654297,52.243659 56.0654297,50.9204102 C56.0654297,49.57763 56.3449679,48.5314979 56.9040527,47.7819824 C57.4631376,47.032467 58.2333935,46.6577148 59.2148438,46.6577148 C60.2451223,46.6577148 61.0312473,47.0581015 61.5732422,47.8588867 L61.6464844,47.8588867 C61.5341791,47.2485321 61.4780273,46.704104 61.4780273,46.2255859 L61.4780273,43.6035156 L63.7192383,43.6035156 L63.7192383,55 L62.0053711,55 L61.5732422,53.9379883 L61.4780273,53.9379883 C60.9702123,54.7436564 60.1962943,55.1464844 59.15625,55.1464844 Z M59.9399414,53.3666992 C60.5112333,53.3666992 60.9299303,53.2006853 61.1960449,52.8686523 C61.4621595,52.5366194 61.6074218,51.9726602 61.6318359,51.1767578 L61.6318359,50.9350586 C61.6318359,50.0561479 61.4963392,49.4262714 61.2253418,49.0454102 C60.9543443,48.6645489 60.5136749,48.4741211 59.9033203,48.4741211 C59.4052709,48.4741211 59.0183119,48.6853006 58.7424316,49.107666 C58.4665514,49.5300314 58.3286133,50.1440389 58.3286133,50.949707 C58.3286133,51.7553751 58.467772,52.3596171 58.7460938,52.7624512 C59.0244155,53.1652852 59.4223607,53.3666992 59.9399414,53.3666992 Z" id="Person-Record" fill="#565553"></path>
                </g>
            </g>
        </g>
    </g>
</svg>