<?xml version="1.0" encoding="UTF-8" standalone="no"?>
<svg width="44px" height="41px" viewBox="0 0 44 41" version="1.1" xmlns="http://www.w3.org/2000/svg" xmlns:xlink="http://www.w3.org/1999/xlink">
    <!-- Generator: Sketch 46.2 (44496) - http://www.bohemiancoding.com/sketch -->
    <title>update-arrows</title>
    <desc>Created with Sketch.</desc>
    <defs></defs>
    <g id="Page-1" stroke="none" stroke-width="1" fill="none" fill-rule="evenodd">
        <g id="DoQ" transform="translate(-1081.000000, -1772.000000)" stroke="#FFFFFF" stroke-width="1.2" fill="#FFFFFF" fill-rule="nonzero">
            <g id="Group-24" transform="translate(259.000000, 1741.000000)">
                <g id="Group-15" transform="translate(723.000000, 0.000000)">
                    <g id="update-arrows" transform="translate(100.000000, 32.000000)">
                        <path d="M40.719913,3.39466972 C39.8978087,3.22185321 39.0890957,3.73493578 38.9130609,4.53998165 L37.8071826,9.59578899 C34.2862435,3.71120183 27.8236,0.0184862385 20.7404522,0.0184862385 C9.83226087,0.0184862385 0.957843478,8.71250459 0.957843478,19.3992202 C0.957843478,20.2225138 1.63909565,20.8900459 2.47958261,20.8900459 C3.31994783,20.8900459 4.00132174,20.2225138 4.00132174,19.3992202 C4.00132174,10.3567064 11.5104348,3.00013761 20.7404522,3.00013761 C26.7578957,3.00013761 32.2466261,6.14911927 35.2182783,11.1630642 L30.1449217,10.0978991 C29.3229391,9.9253211 28.5141043,10.4382844 28.3381913,11.2433303 C28.1621565,12.0483761 28.6856348,12.8410183 29.5073739,13.0134771 L38.2161043,14.8418257 C38.3640174,14.8729541 38.5142435,14.8818991 38.6624,14.8697339 C38.9091652,14.8493394 39.1497217,14.7700275 39.3615478,14.6357339 C39.7004696,14.4209358 39.9383478,14.083055 40.0229565,13.6965138 L41.8893391,5.16469725 C42.0651304,4.35977064 41.5416522,3.56736697 40.719913,3.39466972 Z" id="Shape"></path>
                        <path d="M39.1886783,17.4451651 C38.3488,17.4723578 37.6901913,18.1614771 37.7179478,18.9842936 C37.8654957,23.3623119 36.2641391,27.5343578 33.208487,30.7324771 C30.1529565,33.9302385 26.0092,35.7712294 21.5405217,35.9157798 C21.3542609,35.9217431 21.1689739,35.9247248 20.9834435,35.9247248 C15.1526261,35.9244862 9.78125217,32.9577431 6.74775652,28.1509633 L12.0369565,29.5404128 C12.848713,29.7535413 13.6832348,29.281844 13.9009043,28.4864587 C14.1185739,27.6911927 13.6369739,26.8737431 12.8252174,26.6602569 L4.22264348,24.4006422 C3.83283478,24.2984312 3.41733913,24.3518624 3.06794783,24.549367 C2.71831304,24.7468716 2.46326957,25.0725872 2.35869565,25.4544771 L0.0523478261,33.8825321 C-0.165321739,34.6777982 0.316278261,35.4952477 1.12803478,35.7086147 C1.26012174,35.7433211 1.39257391,35.7600183 1.52307826,35.7600183 C2.19483478,35.7600183 2.80973913,35.3206422 2.99198261,34.6547798 L4.28838261,29.9178899 C7.89478261,35.4812936 14.1722609,38.9066147 20.982713,38.9063761 C21.2014783,38.9063761 21.4214609,38.9029174 21.6410783,38.8957615 C26.9222435,38.7247339 31.8194435,36.5493211 35.4305913,32.7700183 C39.0417391,28.9907156 40.9342957,24.0598991 40.7598435,18.8858991 C40.7322087,18.0632018 40.0284348,17.415945 39.1886783,17.4451651 Z" id="Shape"></path>
                    </g>
                </g>
            </g>
        </g>
    </g>
</svg>