<?xml version="1.0" encoding="UTF-8" standalone="no"?>
<svg width="104px" height="104px" viewBox="0 0 104 104" version="1.1" xmlns="http://www.w3.org/2000/svg" xmlns:xlink="http://www.w3.org/1999/xlink">
    <!-- Generator: Sketch 46.2 (44496) - http://www.bohemiancoding.com/sketch -->
    <title>Group 5</title>
    <desc>Created with Sketch.</desc>
    <defs></defs>
    <g id="Page-1" stroke="none" stroke-width="1" fill="none" fill-rule="evenodd">
        <g id="DoQ" transform="translate(-816.000000, -1201.000000)">
            <g id="Group-14" transform="translate(298.000000, 1203.000000)">
                <g id="Group-10" transform="translate(501.000000, 0.000000)">
                    <g id="Group-5" transform="translate(19.000000, 0.000000)">
                        <circle id="Oval" stroke-opacity="0.0797101449" stroke="#000000" stroke-width="4" cx="50" cy="50" r="50"></circle>
                        <g id="folder-(4)" transform="translate(15.000000, 24.000000)" fill-rule="nonzero">
                            <path d="M55.981,51.5 L2.019,51.5 C0.904,51.5 0,50.596 0,49.481 L0,17.5 L58,17.5 L58,49.481 C58,50.596 57.096,51.5 55.981,51.5 Z" id="Shape" fill="#F96F74"></path>
                            <path d="M26.019,8.5 L26.019,2.519 C26.019,1.404 25.115,0.5 24,0.5 L2.019,0.5 C0.904,0.5 0,1.404 0,2.519 L0,7.5 L0,17.5 L58,17.5 L58,10.519 C58,9.404 57.096,8.5 55.981,8.5 L26.019,8.5 Z" id="Shape" fill="#EC555B"></path>
                            <g id="Group" transform="translate(17.000000, 27.000000)" fill="#FFFFFF">
                                <path d="M1,2.5 L15,2.5 C15.552,2.5 16,2.053 16,1.5 C16,0.947 15.552,0.5 15,0.5 L1,0.5 C0.448,0.5 0,0.947 0,1.5 C0,2.053 0.448,2.5 1,2.5 Z" id="Shape"></path>
                                <path d="M1,8.5 L23,8.5 C23.552,8.5 24,8.053 24,7.5 C24,6.947 23.552,6.5 23,6.5 L1,6.5 C0.448,6.5 0,6.947 0,7.5 C0,8.053 0.448,8.5 1,8.5 Z" id="Shape"></path>
                                <path d="M23,12.5 L1,12.5 C0.448,12.5 0,12.947 0,13.5 C0,14.053 0.448,14.5 1,14.5 L23,14.5 C23.552,14.5 24,14.053 24,13.5 C24,12.947 23.552,12.5 23,12.5 Z" id="Shape"></path>
                            </g>
                        </g>
                        <path d="M82.5502853,32.83534 L85.0994442,31.8834054 L83.570023,27.7876658 L81.0208641,28.7396004 C79.6215768,29.2620838 78.2890725,27.8320022 78.9089476,26.473063 L80.0383207,23.997458 L76.0607497,22.1829109 L74.9313767,24.6586087 C74.3114088,26.017548 72.3579162,25.9486317 71.8354327,24.5491589 L70.8834982,22 L66.7877586,23.5294212 L67.7396932,26.0785801 C68.2621766,27.4778674 66.832095,28.8103717 65.4731557,28.1904966 L62.9975507,27.0610308 L62.5092935,28.1314122 L61.6684783,29.974342 L61.1829109,31.0386945 L63.6585159,32.1680675 C65.0174552,32.7880354 64.9484462,34.741528 63.5491589,35.2641042 L61,36.2160388 L62.5294212,40.3116856 L65.0785801,39.359751 C66.4778674,38.8372676 67.8103717,40.2673492 67.1904966,41.6261957 L66.0611235,44.1018007 L70.0386945,45.9163477 L71.1680675,43.4407428 C71.7880354,42.0818035 73.741528,42.1507197 74.2640115,43.5501925 L75.215946,46.0993514 L79.3116856,44.5698375 L78.359751,42.0206786 C77.8372676,40.6213913 79.2673492,39.288887 80.6262885,39.9087621 L83.1018935,41.0382279 L84.9165333,37.0605642 L82.4409283,35.9311912 C81.081989,35.3114088 81.1509052,33.3578234 82.5502853,32.83534 Z M74.126179,36.9323781 C72.5340561,37.5269315 70.7615266,36.7182091 70.1669733,35.126179 C69.5725127,33.5340561 70.3811423,31.7615266 71.9732652,31.1669733 C73.5653881,30.5725127 75.3379176,31.3811423 75.9324709,32.9732652 C76.5269315,34.5652026 75.7183018,36.3378248 74.126179,36.9323781 Z" id="Shape" fill="#C1CACF" fill-rule="nonzero"></path>
                        <path d="M64.3964711,21.2384498 L66.0994134,20.6025186 L65.0776976,17.8663972 L63.3747553,18.5023284 C62.4399742,18.8513687 61.5498068,17.8960158 61.9639088,16.9881888 L62.7183761,15.3343835 L60.0611962,14.122192 L59.3067288,15.7760592 C58.8925649,16.6838862 57.5875521,16.6378473 57.2385118,15.7029423 L56.6025806,14 L53.8664592,15.0217158 L54.5023904,16.7246582 C54.8514307,17.6594392 53.8960777,18.5496066 52.9882508,18.1355046 L51.3344455,17.3809753 L51.0082698,18.0960339 L50.4465708,19.3271863 L50.122192,20.0382172 L51.7759973,20.7926846 C52.6838242,21.2068485 52.6377234,22.5118613 51.7029423,22.8609636 L50,23.4968948 L51.0217158,26.2329542 L52.7246582,25.597023 C53.6594392,25.2479827 54.5496066,26.2033357 54.1355046,27.1111006 L53.3810373,28.7649059 L56.0382172,29.9770975 L56.7926846,28.3232922 C57.2068485,27.4154653 58.5118613,27.4615041 58.8609016,28.3964091 L59.4968328,30.0993514 L62.2329542,29.0775737 L61.597023,27.3746313 C61.2479827,26.4398503 62.2033357,25.5496829 63.1111626,25.9637848 L64.7649679,26.7183141 L65.9772214,24.0610723 L64.3234161,23.3066049 C63.4155892,22.8925649 63.4616281,21.5874901 64.3964711,21.2384498 Z M58.7688239,23.9754387 C57.7052207,24.3726246 56.5210986,23.8323651 56.1239127,22.7688239 C55.7267888,21.7052207 56.2669864,20.5210986 57.3305895,20.1239127 C58.3941927,19.7267888 59.5783148,20.2669864 59.9755007,21.3305895 C60.3726246,22.3940687 59.832427,23.5782528 58.7688239,23.9754387 Z" id="Shape" fill="#8E9AA5" fill-rule="nonzero"></path>
                    </g>
                </g>
            </g>
        </g>
    </g>
</svg>