<?xml version="1.0" encoding="UTF-8" standalone="no"?>
<svg width="104px" height="104px" viewBox="0 0 104 104" version="1.1" xmlns="http://www.w3.org/2000/svg" xmlns:xlink="http://www.w3.org/1999/xlink">
    <!-- Generator: Sketch 46.2 (44496) - http://www.bohemiancoding.com/sketch -->
    <title>Group 2</title>
    <desc>Created with Sketch.</desc>
    <defs></defs>
    <g id="Page-1" stroke="none" stroke-width="1" fill="none" fill-rule="evenodd">
        <g id="DoQ" transform="translate(-311.000000, -1201.000000)">
            <g id="Group-14" transform="translate(298.000000, 1203.000000)">
                <g id="Group-7">
                    <g id="Group-2" transform="translate(15.000000, 0.000000)">
                        <circle id="Oval" stroke-opacity="0.0797101449" stroke="#000000" stroke-width="4" cx="50" cy="50" r="50"></circle>
                        <g id="folder-(4)" transform="translate(21.000000, 24.000000)" fill-rule="nonzero">
                            <path d="M55.981,51.5 L2.019,51.5 C0.904,51.5 0,50.596 0,49.481 L0,17.5 L58,17.5 L58,49.481 C58,50.596 57.096,51.5 55.981,51.5 Z" id="Shape" fill="#F96F74"></path>
                            <path d="M26.019,8.5 L26.019,2.519 C26.019,1.404 25.115,0.5 24,0.5 L2.019,0.5 C0.904,0.5 0,1.404 0,2.519 L0,7.5 L0,17.5 L58,17.5 L58,10.519 C58,9.404 57.096,8.5 55.981,8.5 L26.019,8.5 Z" id="Shape" fill="#EC555B"></path>
                            <g id="Group" transform="translate(17.000000, 27.000000)" fill="#FFFFFF">
                                <path d="M1,2.5 L15,2.5 C15.552,2.5 16,2.053 16,1.5 C16,0.947 15.552,0.5 15,0.5 L1,0.5 C0.448,0.5 0,0.947 0,1.5 C0,2.053 0.448,2.5 1,2.5 Z" id="Shape"></path>
                                <path d="M1,8.5 L23,8.5 C23.552,8.5 24,8.053 24,7.5 C24,6.947 23.552,6.5 23,6.5 L1,6.5 C0.448,6.5 0,6.947 0,7.5 C0,8.053 0.448,8.5 1,8.5 Z" id="Shape"></path>
                                <path d="M23,12.5 L1,12.5 C0.448,12.5 0,12.947 0,13.5 C0,14.053 0.448,14.5 1,14.5 L23,14.5 C23.552,14.5 24,14.053 24,13.5 C24,12.947 23.552,12.5 23,12.5 Z" id="Shape"></path>
                            </g>
                        </g>
                    </g>
                </g>
            </g>
        </g>
    </g>
</svg>