<?xml version="1.0" encoding="UTF-8" standalone="no"?>
<svg width="987px" height="391px" viewBox="0 0 987 391" version="1.1" xmlns="http://www.w3.org/2000/svg" xmlns:xlink="http://www.w3.org/1999/xlink">
    <!-- Generator: Sketch 42 (36781) - http://www.bohemiancoding.com/sketch -->
    <title>infographics</title>
    <desc>Created with Sketch.</desc>
    <defs>
        <rect id="path-1" x="0" y="0" width="564" height="161" rx="8"></rect>
        <mask id="mask-2" maskContentUnits="userSpaceOnUse" maskUnits="objectBoundingBox" x="0" y="0" width="564" height="161" fill="white">
            <use xlink:href="#path-1"></use>
        </mask>
        <rect id="path-3" x="0" y="0" width="564" height="161" rx="8"></rect>
        <mask id="mask-4" maskContentUnits="userSpaceOnUse" maskUnits="objectBoundingBox" x="0" y="0" width="564" height="161" fill="white">
            <use xlink:href="#path-3"></use>
        </mask>
        <polygon id="path-5" points="64.8228135 0 128.932814 37.0139261 128.932814 111.041778 64.8228135 148.055704 0.712812921 111.041778 0.712812921 37.0139261"></polygon>
        <mask id="mask-6" maskContentUnits="userSpaceOnUse" maskUnits="objectBoundingBox" x="-3" y="-3" width="134.220001" height="154.055704">
            <rect x="-2.28718708" y="-3" width="134.220001" height="154.055704" fill="white"></rect>
            <use xlink:href="#path-5" fill="black"></use>
        </mask>
        <polygon id="path-7" points="64.6569094 0.5 128.742789 37.5 128.742789 111.5 64.6569094 148.5 0.571029543 111.5 0.571029543 37.5"></polygon>
        <mask id="mask-8" maskContentUnits="userSpaceOnUse" maskUnits="objectBoundingBox" x="-3" y="-3" width="134.17176" height="154">
            <rect x="-2.42897046" y="-2.5" width="134.17176" height="154" fill="white"></rect>
            <use xlink:href="#path-7" fill="black"></use>
        </mask>
    </defs>
    <g id="Page-1" stroke="none" stroke-width="1" fill="none" fill-rule="evenodd">
        <g id="Large-Device-Desktops" transform="translate(-156.000000, -1748.000000)">
            <g id="infographics" transform="translate(159.000000, 1748.000000)">
                <g id="Group-4" transform="translate(218.000000, 0.000000)">
                    <use id="Rectangle-3" stroke="#E0E0E0" mask="url(#mask-2)" stroke-width="6" fill="#FFFFFF" xlink:href="#path-1"></use>
                    <g id="Group-3" transform="translate(225.000000, 21.000000)">
                        <g id="settings-(1)" transform="translate(39.479026, 22.574838) rotate(24.000000) translate(-39.479026, -22.574838) translate(22.479026, 6.074838)" fill="#DC463A">
                            <g id="Capa_1" transform="translate(0.000000, 0.000000)">
                                <path d="M2.22329738,18.570508 L4.33024572,18.5836354 C4.64530341,20.2048698 5.2688551,21.7801583 6.21402819,23.2110453 L4.71750414,24.694442 C4.17928057,25.2261018 4.17928057,26.0859468 4.70437673,26.6241704 L6.31904743,28.2585322 C6.85070729,28.7967557 7.71055225,28.7967557 8.24877581,28.2716596 L9.74529987,26.7882629 C11.1630595,27.7465634 12.7317843,28.3963699 14.3530187,28.724555 L14.3398913,30.8315034 C14.3333276,31.5863291 14.9437519,32.1967534 15.6985776,32.2033171 L17.9958733,32.2164445 C18.750699,32.2230082 19.3611233,31.6125839 19.367687,30.8577582 L19.3808144,28.7508098 C21.0020488,28.4357521 22.5773373,27.8122004 24.0082243,26.8670273 L25.491621,28.3635514 C26.0232808,28.901775 26.8831258,28.901775 27.4213494,28.3766788 L29.0557112,26.7620081 C29.5939347,26.2303483 29.5939347,25.3705033 29.0688386,24.8322797 L27.5854419,23.3357557 C28.5437424,21.917996 29.1935489,20.3492713 29.521734,18.7280369 L31.6286824,18.7411643 C32.3835081,18.747728 32.9939324,18.1373037 33.0004961,17.382478 L33.0136235,15.0851823 C33.0201872,14.3303565 32.4097629,13.7199322 31.6549372,13.7133685 L29.5479888,13.7002411 C29.2329311,12.0790067 28.6093794,10.5037183 27.6642063,9.07283122 L29.1607304,7.58943456 C29.698954,7.0577747 29.698954,6.19792974 29.1738578,5.65970617 L27.5591871,4.02534438 C27.0275272,3.48712081 26.1676823,3.48712081 25.6294587,4.01221697 L24.1329347,5.49561362 C22.715175,4.53731313 21.1464503,3.88750663 19.5252159,3.55932153 L19.5383433,1.45237319 C19.544907,0.69754746 18.9344827,0.0871231738 18.1796569,0.0805594718 L15.8823612,0.0674320678 C15.1275355,0.0608683658 14.5171112,0.671292652 14.5105475,1.42611838 L14.4908564,3.53306673 C12.8630583,3.84812442 11.2877698,4.47167611 9.86344651,5.4168492 L8.38004985,3.92032514 C7.84838999,3.38210158 6.98854503,3.38210158 6.45032147,3.90719774 L4.82252337,5.52186843 C4.2842998,6.05352829 4.2842998,6.91337326 4.80939596,7.45159682 L6.29279262,8.94812088 C5.33449212,10.3658805 4.68468563,11.9346053 4.35650053,13.5558397 L2.24955218,13.5427123 C1.49472645,13.5361486 0.884302167,14.1465729 0.877738465,14.9013986 L0.864611061,17.1986943 C0.858047359,17.9469563 1.46847164,18.5639443 2.22329738,18.570508 Z M11.6428629,10.7891528 C14.598629,7.8656902 19.3553127,7.88991779 22.2787753,10.8456839 C25.2022379,13.80145 25.1780103,18.5581337 22.2222443,21.4815963 C19.2664782,24.4050589 14.5097945,24.3808314 11.5863318,21.4250653 C8.66286919,18.4692992 8.68709678,13.7126155 11.6428629,10.7891528 Z" id="Shape"></path>
                            </g>
                        </g>
                        <g id="settings-(1)-copy" transform="translate(17.024310, 37.103995) rotate(24.000000) translate(-17.024310, -37.103995) translate(5.024310, 24.603995)" fill="#4D90F6">
                            <g id="Capa_1" transform="translate(0.000000, -0.000000)">
                                <path d="M1.13300621,14.5170403 L2.67985938,14.526678 C2.91116453,15.7169357 3.36895597,16.8734615 4.06287141,17.9239723 L2.96417196,19.0130341 C2.56902567,19.4033615 2.56902567,20.0346318 2.95453424,20.4297781 L4.13997312,21.6296736 C4.53030056,22.0248198 5.16157085,22.0248198 5.55671715,21.6393113 L6.6554166,20.5502495 C7.69628976,21.2538027 8.84799663,21.7308696 10.0382544,21.9718124 L10.0286167,23.5186656 C10.0237978,24.0728342 10.4719515,24.5209879 11.0261201,24.5258067 L12.7127201,24.5354445 C13.2668887,24.5402633 13.7150424,24.0921096 13.7198613,23.537941 L13.729499,21.9910878 C14.9197567,21.7597827 16.0762825,21.3019913 17.1267934,20.6080758 L18.2158551,21.7067753 C18.6061825,22.1019216 19.2374528,22.1019216 19.6325991,21.716413 L20.8324946,20.5309741 C21.2276409,20.1406467 21.2276409,19.5093764 20.8421323,19.1142301 L19.7530705,18.0155306 C20.4566237,16.9746575 20.9336906,15.8229506 21.1746334,14.6326929 L22.7214866,14.6423306 C23.2756552,14.6471494 23.7238089,14.1989957 23.7286278,13.6448271 L23.7382655,11.9582271 C23.7430843,11.4040585 23.2949306,10.9559048 22.740762,10.9510859 L21.1939089,10.9414482 C20.9626037,9.75119049 20.5048123,8.59466475 19.8108968,7.54415388 L20.9095963,6.45509214 C21.3047426,6.06476471 21.3047426,5.43349441 20.919234,5.03834812 L19.7337951,3.83845267 C19.3434677,3.44330637 18.7121974,3.44330637 18.3170511,3.82881495 L17.2183516,4.91787669 C16.1774785,4.21432353 15.0257716,3.73725666 13.8355139,3.4963138 L13.8451516,1.94946063 C13.8499704,1.39529205 13.4018167,0.94713833 12.8476481,0.942319472 L11.1610481,0.932681758 C10.6068795,0.927862901 10.1587258,1.37601662 10.1539069,1.9301852 L10.1394504,3.47703837 C8.94437378,3.70834352 7.78784804,4.16613496 6.74215603,4.8600504 L5.65309429,3.76135095 C5.26276686,3.36620466 4.63149656,3.36620466 4.23635027,3.75171324 L3.04127367,4.93715211 C2.64612738,5.32747955 2.64612738,5.95874985 3.03163596,6.35389614 L4.12069769,7.45259559 C3.41714454,8.49346875 2.94007767,9.64517563 2.69913481,10.8354334 L1.15228164,10.8257956 C0.598113059,10.8209768 0.149959337,11.2691305 0.145140479,11.8232991 L0.135502765,13.5098991 C0.130683908,14.0592488 0.57883763,14.5122214 1.13300621,14.5170403 Z M8.17478236,8.93180718 C10.2742717,6.85526305 13.6529582,6.87247198 15.7295023,8.97196135 C17.8060465,11.0714507 17.7888375,14.4501372 15.6893482,16.5266813 C13.5898588,18.6032255 10.2111723,18.5860165 8.13462819,16.4865272 C6.05808405,14.3870378 6.07529298,11.0083513 8.17478236,8.93180718 Z" id="Shape"></path>
                            </g>
                        </g>
                        <g id="Group-2" transform="translate(5.000000, 35.000000)" fill="#03A664">
                            <rect id="Rectangle-4" x="0" y="37" width="64" height="6"></rect>
                            <rect id="Rectangle-5" x="43" y="0" width="16" height="41" rx="4"></rect>
                            <rect id="Rectangle-5-Copy" x="24" y="8" width="16" height="35" rx="4"></rect>
                            <rect id="Rectangle-5-Copy" x="5" y="19" width="16" height="24" rx="4"></rect>
                        </g>
                    </g>
                    <text id="All-Data-HDFS/S3" font-family="OpenSans-Bold, Open Sans" font-size="13" font-weight="bold" line-spacing="19" fill="#3F3F3F">
                        <tspan x="52.3745117" y="117">All Data</tspan>
                        <tspan x="54.7727051" y="136" font-family="ArialMT, Arial" font-size="11" font-weight="normal" line-spacing="46">HDFS/S3</tspan>
                    </text>
                    <text id="Batch-Processing-(Sp" font-family="OpenSans-Bold, Open Sans" font-size="13" font-weight="bold" line-spacing="19" fill="#3F3F3F">
                        <tspan x="204.583252" y="117">Batch Processing</tspan>
                        <tspan x="314.416748" y="117" font-family="ArialMT, Arial" font-size="15" font-weight="normal"></tspan>
                        <tspan x="210.284668" y="136" font-family="ArialMT, Arial" font-size="11" font-weight="normal" line-spacing="46">(Spark/MapReduce)</tspan>
                    </text>
                    <text id="Aggregate-View-(Cass" font-family="OpenSans-Bold, Open Sans" font-size="13" font-weight="bold" line-spacing="19" fill="#3F3F3F">
                        <tspan x="413.578857" y="117">Aggregate View</tspan>
                        <tspan x="415.203125" y="136" font-family="ArialMT, Arial" font-size="11" font-weight="normal">(Cassandra/HBase)</tspan>
                    </text>
                    <g id="folder" transform="translate(45.500000, 38.500000)">
                        <g id="Capa_1">
                            <path d="M58.9539,60.4508 L5.80224545,60.4508 C5.65240909,60.4508 5.52493636,60.3412182 5.50257273,60.1936182 L0.00335454545,23.8996727 C-0.0246,23.7162909 0.117409091,23.5508 0.303027273,23.5508 L64.4531182,23.5508 C64.6387364,23.5508 64.7807455,23.7162909 64.7527909,23.8996727 L59.2535727,60.1936182 C59.2312091,60.3412182 59.1037364,60.4508 58.9539,60.4508 Z" id="Shape" fill="#E7C158"></path>
                            <path d="M60.3818182,23.5508 L60.3818182,6.51865455 C60.3818182,6.04454545 59.9971636,5.65989091 59.5230545,5.65989091 L25.0864091,5.65989091 C24.7845,5.65989091 24.5049545,5.50222727 24.3506455,5.24280909 L21.4959273,0.484945455 C21.3405,0.226645455 21.0609545,0.0678636364 20.7601636,0.0678636364 L5.33149091,0.0678636364 C4.85738182,0.0689818182 4.47272727,0.453636364 4.47272727,0.927745455 L4.47272727,23.5508 L60.3818182,23.5508 Z" id="Shape" fill="#B5885B"></path>
                            <rect id="Rectangle-path" fill="#FFFFFF" x="7.82727273" y="19.0780727" width="49.2" height="4.47272727"></rect>
                            <rect id="Rectangle-path" fill="#E7ECED" x="8.94545455" y="15.7235273" width="46.9636364" height="3.35454545"></rect>
                            <rect id="Rectangle-path" fill="#B3B6B3" x="11.1818182" y="10.17455" width="42.4909091" height="3.27068182"></rect>
                            <rect id="Rectangle-path" fill="#C7CAC7" x="10.0636364" y="12.3689818" width="44.7272727" height="3.35454545"></rect>
                        </g>
                    </g>
                    <g id="graph" transform="translate(434.500000, 37.000000)">
                        <g id="Capa_1">
                            <g id="Group">
                                <g transform="translate(11.433333, 21.000000)" id="Shape" fill="#9777A8">
                                    <path d="M10.4828667,0.389333333 L0.302766667,23.5694333 C-0.101266667,23.9734667 -0.101266667,24.6265333 0.302766667,25.0305667 C0.504266667,25.2320667 0.7688,25.3333333 1.03333333,25.3333333 C1.29786667,25.3333333 1.5624,25.2320667 1.7639,25.0305667 L11.944,1.85046667 C12.3480333,1.44643333 12.3480333,0.793366667 11.944,0.389333333 C11.5399667,-0.0147 10.8858667,-0.0136666667 10.4828667,0.389333333 Z"></path>
                                    <path d="M14.1838,1.38933333 C13.7797667,0.9853 13.1267,0.9853 12.7226667,1.38933333 C12.3186333,1.79336667 12.3186333,2.44643333 12.7226667,2.85046667 L24.9485,18.0763 C25.15,18.2778 25.4145333,18.3790667 25.6790667,18.3790667 C25.9436,18.3790667 26.2081333,18.2778 26.4096333,18.0763 C26.8136667,17.6722667 26.8136667,17.0192 26.4096333,16.6151667 L14.1838,1.38933333 Z"></path>
                                    <path d="M40.0974917,3.303025 C39.6934583,2.89899167 39.0403917,2.89899167 38.6363583,3.303025 L28.303025,16.6363583 C27.8989917,17.0403917 27.8989917,17.6934583 28.303025,18.0974917 C28.504525,18.2989917 28.7690583,18.4002583 29.0335917,18.4002583 C29.298125,18.4002583 29.5626583,18.2989917 29.7641583,18.0974917 L40.0974917,4.76415833 C40.501525,4.360125 40.501525,3.70705833 40.0974917,3.303025 Z"></path>
                                </g>
                                <path d="M2.0938,60 C0.947504733,60 0.0209333333,59.9338624 0.0209333333,59.9338624 L0.0209333333,1.06613757 C0.0209333333,0.476563492 0.947504733,0 2.0938,0 C3.24009527,0 4.16666667,0.476563492 4.16666667,1.06613757 L4.16666667,59.9338624 C4.16666667,59.9338624 3.24009527,60 2.0938,60 Z" id="Shape" fill="#556080"></path>
                                <path d="M59.9502646,62 L0.0497354497,62 C0.0497354497,62 -4.26325641e-14,61.106 -4.26325641e-14,60 C-4.26325641e-14,58.894 0.0497354497,58 0.0497354497,58 L59.9502646,58 C60.5307683,58 61,58.894 61,60 C61,61.106 60.5307683,62 59.9502646,62 Z" id="Shape" fill="#556080"></path>
                                <path d="M9.78114014,29.9666667 L7.39371338,29.9666667 C6.73358988,29.9666667 6.2,29.5047667 6.2,28.9333333 C6.2,28.3619 6.73358988,27.9 7.39371338,27.9 L9.78114014,27.9 C10.4412636,27.9 10.9748535,28.3619 10.9748535,28.9333333 C10.9748535,29.5047667 10.4412636,29.9666667 9.78114014,29.9666667 Z" id="Shape" fill="#BDC3C7"></path>
                                <path d="M9.78114014,25.8333333 L7.39371338,25.8333333 C6.73358988,25.8333333 6.2,25.3714333 6.2,24.8 C6.2,24.2285667 6.73358988,23.7666667 7.39371338,23.7666667 L9.78114014,23.7666667 C10.4412636,23.7666667 10.9748535,24.2285667 10.9748535,24.8 C10.9748535,25.3714333 10.4412636,25.8333333 9.78114014,25.8333333 Z" id="Shape" fill="#BDC3C7"></path>
                                <path d="M9.78114014,21.7 L7.39371338,21.7 C6.73358988,21.7 6.2,21.2381 6.2,20.6666667 C6.2,20.0952333 6.73358988,19.6333333 7.39371338,19.6333333 L9.78114014,19.6333333 C10.4412636,19.6333333 10.9748535,20.0952333 10.9748535,20.6666667 C10.9748535,21.2381 10.4412636,21.7 9.78114014,21.7 Z" id="Shape" fill="#BDC3C7"></path>
                                <path d="M9.78114014,17.5666667 L7.39371338,17.5666667 C6.73358988,17.5666667 6.2,17.1047667 6.2,16.5333333 C6.2,15.9619 6.73358988,15.5 7.39371338,15.5 L9.78114014,15.5 C10.4412636,15.5 10.9748535,15.9619 10.9748535,16.5333333 C10.9748535,17.1047667 10.4412636,17.5666667 9.78114014,17.5666667 Z" id="Shape" fill="#BDC3C7"></path>
                                <path d="M9.78114014,13.4333333 L7.39371338,13.4333333 C6.73358988,13.4333333 6.2,12.9714333 6.2,12.4 C6.2,11.8285667 6.73358988,11.3666667 7.39371338,11.3666667 L9.78114014,11.3666667 C10.4412636,11.3666667 10.9748535,11.8285667 10.9748535,12.4 C10.9748535,12.9714333 10.4412636,13.4333333 9.78114014,13.4333333 Z" id="Shape" fill="#BDC3C7"></path>
                                <path d="M9.78114014,9.3 L7.39371338,9.3 C6.73358988,9.3 6.2,8.8381 6.2,8.26666667 C6.2,7.69523333 6.73358988,7.23333333 7.39371338,7.23333333 L9.78114014,7.23333333 C10.4412636,7.23333333 10.9748535,7.69523333 10.9748535,8.26666667 C10.9748535,8.8381 10.4412636,9.3 9.78114014,9.3 Z" id="Shape" fill="#BDC3C7"></path>
                                <path d="M9.78114014,5.16666667 L7.39371338,5.16666667 C6.73358988,5.16666667 6.2,4.70476667 6.2,4.13333333 C6.2,3.5619 6.73358988,3.1 7.39371338,3.1 L9.78114014,3.1 C10.4412636,3.1 10.9748535,3.5619 10.9748535,4.13333333 C10.9748535,4.70476667 10.4412636,5.16666667 9.78114014,5.16666667 Z" id="Shape" fill="#BDC3C7"></path>
                                <ellipse id="Oval" fill="#E1B125" cx="11.3790667" cy="48.4209333" rx="5.16666667" ry="5.16666667"></ellipse>
                                <ellipse id="Oval" fill="#03A664" cx="23.7666667" cy="20.0333333" rx="5.16666667" ry="5.16666667"></ellipse>
                                <ellipse id="Oval" fill="#03A664" cx="54.1666667" cy="22.1666667" rx="5.16666667" ry="5.16666667"></ellipse>
                                <circle id="Oval" fill="#E1B125" cx="38.2" cy="40.4666667" r="5.16666667"></circle>
                            </g>
                        </g>
                    </g>
                    <path d="M157,18 L157,142.641653" id="Line" stroke="#E0E0E0" stroke-width="2" stroke-linecap="square"></path>
                    <path d="M361,18 L361,142.641653" id="Line" stroke="#E0E0E0" stroke-width="2" stroke-linecap="square"></path>
                </g>
                <g id="Group-4" transform="translate(218.000000, 196.000000)">
                    <use id="Rectangle-3" stroke="#E0E0E0" mask="url(#mask-4)" stroke-width="6" fill="#FFFFFF" xlink:href="#path-3"></use>
                    <g id="Group-3" transform="translate(110.000000, 41.000000)">
                        <g id="cloud-computing-(4)" transform="translate(0.934153, 0.806302)">
                            <g id="Layer_1">
                                <g id="Group" transform="translate(8.033363, 32.765223)" fill="#C7E7EB">
                                    <rect id="Rectangle-path" x="13.6619649" y="0.0844711391" width="1.80793503" height="17.9841885"></rect>
                                    <rect id="Rectangle-path" x="23.3043565" y="0.0844711391" width="1.80793503" height="17.9841885"></rect>
                                    <path d="M38.6719649,14.7001553 L33.8507691,14.7001553 C33.3514153,14.7001553 32.946748,14.2889028 32.946748,13.7814228 L32.946748,0.0839268663 L34.7546831,0.0839268663 L34.7546831,12.8627992 L38.6718578,12.8627992 L38.6718578,14.7001553 L38.6719649,14.7001553 Z" id="Shape"></path>
                                    <path d="M4.92359438,14.7001553 L0.102398595,14.7001553 L0.102398595,12.8627992 L4.01957331,12.8627992 L4.01957331,0.0839268663 L5.82750834,0.0839268663 L5.82750834,13.7815317 C5.82761545,14.2889028 5.4229482,14.7001553 4.92359438,14.7001553 Z" id="Shape"></path>
                                </g>
                                <g id="Group" transform="translate(19.494293, 43.432970)">
                                    <ellipse id="Oval" fill="#DC463A" cx="3.10505531" cy="9.23826886" rx="3.01326076" ry="3.0622965"></ellipse>
                                    <ellipse id="Oval" fill="#E1B125" cx="12.7474469" cy="9.23826886" rx="3.01326076" ry="3.0622965"></ellipse>
                                    <ellipse id="Oval" fill="#03A664" cx="29.0189693" cy="3.11367586" rx="3.01326076" ry="3.0622965"></ellipse>
                                </g>
                                <path d="M47.9937717,16.320782 C47.9141879,7.29314672 40.688446,0 31.7873731,0 C31.6848674,0 31.5824688,0.00119740017 31.4800702,0.0025036549 L43.5426462,34.0734369 L45.9918578,34.0734369 C50.8793556,34.0734369 54.8411958,30.0471244 54.8411958,25.0800908 C54.8410887,20.813754 51.9158736,17.2431067 47.9937717,16.320782 Z" id="Shape" fill="#3473D3"></path>
                                <path d="M45.2806374,16.320782 C45.2131572,7.39851793 39.0842371,0.169051133 31.4799631,0.0025036549 C25.4968218,0.11647438 20.3068411,3.5241664 17.5925285,8.51438603 C17.0115558,8.25955751 16.3908446,8.08321312 15.7412133,7.99743572 C15.450727,7.95944548 15.1542423,7.93985166 14.8529377,7.93985166 C11.3442862,7.93985166 8.44916945,10.5978623 8.00562072,14.0399524 C3.4411712,14.9598823 0,19.0510721 0,23.9593242 C0,29.5461757 4.45594557,34.0734369 9.95215803,34.0734369 L12.2552695,34.0734369 L43.5426462,34.0734369 C47.7853327,34.0734369 51.2252186,30.0471244 51.2252186,25.0800908 C51.2252186,20.813754 48.6856049,17.2431067 45.2806374,16.320782 Z" id="Shape" fill="#4D90F6"></path>
                                <ellipse id="Oval" fill="#03A664" cx="6.32782616" cy="46.5466456" rx="3.01326076" ry="3.0622965"></ellipse>
                            </g>
                        </g>
                    </g>
                    <text id="Stream-Processing-(S" font-family="OpenSans-Bold, Open Sans" font-size="13" font-weight="bold" line-spacing="19" fill="#3F3F3F">
                        <tspan x="81.1899414" y="117">Stream Processing</tspan>
                        <tspan x="200.310059" y="117" font-family="ArialMT, Arial" font-size="15" font-weight="normal"></tspan>
                        <tspan x="79.9277344" y="136" font-family="ArialMT, Arial" font-size="11" font-weight="normal" line-spacing="46">(Spark Streaming/Storm)</tspan>
                    </text>
                    <text id="Incremental-View-(Ca" font-family="OpenSans-Bold, Open Sans" font-size="13" font-weight="bold" line-spacing="19" fill="#3F3F3F">
                        <tspan x="366.925781" y="117">Incremental View</tspan>
                        <tspan x="375.453125" y="136" font-family="ArialMT, Arial" font-size="11" font-weight="normal">(Cassandra/HBase)</tspan>
                    </text>
                    <path d="M282,18 L282,142.641653" id="Line" stroke="#E0E0E0" stroke-width="2" stroke-linecap="square"></path>
                    <g id="progress-report-(1)" transform="translate(398.250000, 51.000000)">
                        <g id="Capa_1">
                            <g id="Group">
                                <path d="M12.9914093,35.8779217 C12.5461401,36.318247 12.1861978,37.1786687 12.1861978,37.8003614 L12.1861978,45.8980241 L16.9399863,45.8980241 L16.9399863,33.0993554 C16.9399863,32.4776627 16.580044,32.328994 16.1347747,32.7693193 L12.9914093,35.8779217 Z" id="Shape" fill="#E1B125"></path>
                                <path d="M33.8718462,28.2058976 C33.4276978,28.6462229 33.0666346,29.5067831 33.0666346,30.1295843 L33.0666346,45.8992711 L37.8204231,45.8992711 L37.8204231,25.4228976 C37.8204231,24.8012048 37.4604808,24.6536446 37.0152115,25.0939699 L33.8718462,28.2058976 Z" id="Shape" fill="#E1B125"></path>
                                <path d="M40.830544,21.3143494 C40.3852747,21.7535663 40.0242115,22.613988 40.0242115,23.2356807 L40.0242115,45.8980241 L44.4442582,45.8980241 L44.4442582,18.872747 C44.4442582,18.2510542 44.0831951,18.1023855 43.6379258,18.5427108 L40.830544,21.3143494 Z" id="Shape" fill="#E1B125"></path>
                                <path d="M27.0521374,34.9487771 C27.0521374,34.9487771 26.8402912,35.1593795 26.5784258,35.4184759 C26.3176813,35.6775723 26.1058352,36.3926506 26.1058352,37.0143434 L26.1058352,45.8981627 L30.8596236,45.8981627 L30.8596236,32.3133373 C30.8596236,31.6916446 30.4985604,31.5429759 30.0532912,31.9833012 L27.0521374,34.9487771 Z" id="Shape" fill="#DC463A"></path>
                                <path d="M19.9523489,32.5599639 C19.5070797,32.120747 19.1460165,32.2683072 19.1460165,32.89 L19.1460165,45.8981627 L23.8998049,45.8981627 L23.8998049,37.580753 C23.8998049,36.9590602 23.5580769,36.117759 23.1356456,35.7022349 L22.3714863,34.9498855 L19.9523489,32.5599639 Z" id="Shape" fill="#DC463A"></path>
                                <path d="M7.00871703,41.797512 L5.47353297,43.318006 C5.02938462,43.7583313 4.66944231,44.5141446 4.66944231,45.0073976 L4.66944231,45.8994096 L9.97554396,45.8994096 L9.97554396,39.9853614 C9.97554396,39.3636687 9.61560165,39.2161084 9.17033242,39.6564337 L7.00871703,41.797512 Z" id="Shape" fill="#E1B125"></path>
                                <path d="M50.176294,18.6665783 C50.6204423,19.1069036 50.9815055,18.9582349 50.9815055,18.3365422 L50.9815055,2.24360843 C50.9815055,1.09139157 49.8653901,0.0823012048 48.7071016,0.0823012048 L32.5279121,0.0823012048 C31.899239,0.0823012048 31.7489011,0.439355422 32.1941703,0.879680723 L37.949044,6.57509036 L35.601783,8.8861747 L24.7151044,19.6620904 L18.9568681,13.9690361 C18.5115989,13.5287108 17.7917143,13.5298193 17.3464451,13.9690361 L1.33370604,29.8153434 C-0.445269231,31.5756747 -0.444148352,34.428506 1.33482692,36.1875904 L1.44649451,36.2991265 C3.22546978,38.0583494 6.11033242,38.0583494 7.8880467,36.2980181 L18.1506758,26.1437952 L23.9089121,31.8324157 C24.3541813,32.2716325 25.0751868,32.2716325 25.520456,31.8324157 L44.5024038,13.0579036 L50.176294,18.6665783 Z" id="Shape" fill="#03A664"></path>
                            </g>
                        </g>
                    </g>
                </g>
                <g id="laptop-(1)" transform="translate(872.000000, 308.000000)">
                    <g id="Layer_1">
                        <g id="Group">
                            <path d="M32.5861523,53.066474 L32.5861523,56.1790607 L57.4136719,56.1790607 L57.4136719,53.066474 L83.7931641,53.066474 L83.7931641,3.2645578 C83.7931641,1.54492197 82.4043164,0.151971098 80.6897461,0.151971098 L9.31042969,0.151971098 C7.59585937,0.151971098 6.20701172,1.54492197 6.20701172,3.2645578 L6.20701172,53.066474 L32.5861523,53.066474 Z" id="Shape" fill="#38454F"></path>
                            <path d="M57.4138477,53.066474 L57.4138477,56.1790607 L32.5861523,56.1790607 L32.5861523,53.066474 L0,53.066474 L0,57.7354422 C0,59.455078 1.38884766,60.8480289 3.10341797,60.8480289 L86.896582,60.8480289 C88.6111523,60.8480289 90,59.455078 90,57.7354422 L90,53.066474 L57.4138477,53.066474 Z" id="Shape" fill="#B0B6BB"></path>
                            <polygon id="Shape" fill="#E4F0F8" points="9.31042969 49.9538873 80.6895703 49.9538873 80.6895703 3.2645578 9.31042969 3.2645578"></polygon>
                            <g transform="translate(12.304688, 6.346821)" id="Shape" fill="#C5C5C5">
                                <path d="M63.7298437,40.4944798 L40.4539453,40.4944798 C39.5957812,40.4944798 38.9021484,39.797211 38.9021484,38.9380983 C38.9021484,38.0789855 39.5957812,37.3817168 40.4539453,37.3817168 L63.7298437,37.3817168 C64.5880078,37.3817168 65.2816406,38.0789855 65.2816406,38.9380983 C65.2816406,39.797211 64.587832,40.4944798 63.7298437,40.4944798"></path>
                                <path d="M17.1780469,31.1565434 L1.66078125,31.1565434 C0.802617187,31.1565434 0.108984375,30.4592746 0.108984375,29.6001618 C0.108984375,28.7410491 0.802617187,28.0437803 1.66078125,28.0437803 L17.1780469,28.0437803 C18.0362109,28.0437803 18.7298437,28.7410491 18.7298437,29.6001618 C18.7298437,30.4592746 18.0362109,31.1565434 17.1780469,31.1565434"></path>
                                <path d="M55.9712109,31.1565434 L32.6953125,31.1565434 C31.8371484,31.1565434 31.1435156,30.4592746 31.1435156,29.6001618 C31.1435156,28.7410491 31.8371484,28.0437803 32.6953125,28.0437803 L55.9712109,28.0437803 C56.829375,28.0437803 57.5230078,28.7410491 57.5230078,29.6001618 C57.5230078,30.4592746 56.8291992,31.1565434 55.9712109,31.1565434"></path>
                                <path d="M24.9366797,31.1565434 C24.5332617,31.1565434 24.1282617,30.9853555 23.8348828,30.7052139 C23.5539844,30.4095578 23.3848828,30.004948 23.3848828,29.6001618 C23.3848828,29.3977688 23.4314648,29.195552 23.5089844,29.0088497 C23.5865039,28.8064566 23.6951367,28.6352688 23.8348828,28.4952861 C24.4089844,27.9194884 25.4487305,27.9194884 26.0383008,28.4952861 C26.3176172,28.7909422 26.4883008,29.195552 26.4883008,29.6003382 C26.4883008,30.0051243 26.3176172,30.4095578 26.0383008,30.7053902 C25.9607813,30.7676243 25.8815039,30.8453728 25.7900977,30.8920925 C25.7125781,30.9543266 25.617832,31.0010462 25.52625,31.0320751 C25.4316797,31.0787948 25.3400977,31.1098237 25.2298828,31.1255145 C25.1384766,31.1410289 25.0298438,31.1565434 24.9366797,31.1565434"></path>
                                <path d="M32.6953125,40.4944798 L9.41941406,40.4944798 C8.56125,40.4944798 7.86761719,39.797211 7.86761719,38.9380983 C7.86761719,38.0789855 8.56125,37.3817168 9.41941406,37.3817168 L32.6953125,37.3817168 C33.5534766,37.3817168 34.2471094,38.0789855 34.2471094,38.9380983 C34.2471094,39.797211 33.5534766,40.4944798 32.6953125,40.4944798"></path>
                                <path d="M1.66078125,40.4944798 C1.45898438,40.4944798 1.25736328,40.4477601 1.07121094,40.3700116 C0.885058594,40.292263 0.714375,40.1833092 0.559160156,40.0431503 C0.278261719,39.7474942 0.109160156,39.3583988 0.109160156,38.9380983 C0.109160156,38.7357052 0.155742188,38.5334884 0.233261719,38.3467861 C0.31078125,38.1443931 0.419414063,37.988896 0.559160156,37.8332225 C0.931640625,37.4753324 1.45916016,37.319659 1.95416016,37.4130983 C2.064375,37.4286127 2.15595703,37.4598179 2.25052734,37.5065376 C2.34210938,37.5377428 2.43667969,37.5842861 2.514375,37.6465202 C2.60595703,37.7087543 2.68505859,37.7709884 2.76257813,37.8332225 C2.90214844,37.988896 3.01078125,38.1445694 3.08847656,38.3467861 C3.16599609,38.5334884 3.21257813,38.7358815 3.21257813,38.9380983 C3.21257813,39.3582225 3.04189453,39.7473179 2.76257813,40.0431503 C2.68505859,40.1053844 2.60578125,40.1676185 2.514375,40.2298526 C2.43685547,40.2920867 2.34210938,40.3388064 2.25052734,40.3698353 C2.15595703,40.4165549 2.064375,40.4475838 1.95416016,40.4632746 C1.86257813,40.478789 1.75394531,40.4944798 1.66078125,40.4944798"></path>
                                <path d="M63.7298438,31.1565434 C63.6352734,31.1565434 63.5280469,31.1410289 63.4350586,31.1253382 C63.3264258,31.1098237 63.2332617,31.0786185 63.1402734,31.0318988 C63.0471094,31.0006936 62.9541211,30.9541503 62.859375,30.8919162 C62.7832617,30.8296821 62.7057422,30.767448 62.6282227,30.7052139 C62.3473242,30.4095578 62.1782227,30.004948 62.1782227,29.6001618 C62.1782227,29.1953757 62.3473242,28.7909422 62.6282227,28.4951098 L62.859375,28.3084075 C62.9541211,28.2461734 63.0471094,28.1994538 63.1402734,28.1684249 C63.2334375,28.1217052 63.3264258,28.0906763 63.4350586,28.0749855 C63.9316406,27.9660318 64.4732227,28.1372197 64.8316406,28.4951098 C64.8936914,28.5728584 64.9557422,28.6507832 65.017793,28.7440462 C65.0798438,28.8217948 65.1248438,28.9152341 65.1573633,29.0086734 C65.2039453,29.1021127 65.2348828,29.1953757 65.2489453,29.3043295 C65.2659961,29.3977688 65.2814648,29.5067225 65.2814648,29.5999855 C65.2814648,29.6934249 65.2659961,29.8023786 65.2489453,29.9113324 C65.2350586,30.0047717 65.2039453,30.0980347 65.1573633,30.191474 C65.1248438,30.2849133 65.0798438,30.3781763 65.017793,30.4716156 C64.9557422,30.5493642 64.8936914,30.627289 64.8316406,30.7050376 C64.7541211,30.7672717 64.6748438,30.8295058 64.5989062,30.8917399 C64.5057422,30.953974 64.4111719,31.0006936 64.3195898,31.0317225 C64.2250195,31.0784422 64.1334375,31.1094711 64.0232227,31.1251618 C63.9314648,31.1410289 63.822832,31.1565434 63.7298438,31.1565434"></path>
                                <path d="M63.7298437,12.4808468 L40.4539453,12.4808468 C39.5957812,12.4808468 38.9021484,11.783578 38.9021484,10.9244653 C38.9021484,10.0653526 39.5957812,9.36808382 40.4539453,9.36808382 L63.7298437,9.36808382 C64.5880078,9.36808382 65.2816406,10.0653526 65.2816406,10.9244653 C65.2816406,11.783578 64.587832,12.4808468 63.7298437,12.4808468"></path>
                                <path d="M63.7298437,21.8187832 L48.2125781,21.8187832 C47.3544141,21.8187832 46.6607812,21.1215145 46.6607812,20.2624017 C46.6607812,19.403289 47.3544141,18.7060202 48.2125781,18.7060202 L63.7298437,18.7060202 C64.5880078,18.7060202 65.2816406,19.403289 65.2816406,20.2624017 C65.2814648,21.1215145 64.587832,21.8187832 63.7298437,21.8187832"></path>
                                <path d="M35.7987305,21.8187832 L32.6953125,21.8187832 C31.8371484,21.8187832 31.1435156,21.1215145 31.1435156,20.2624017 C31.1435156,19.403289 31.8371484,18.7060202 32.6953125,18.7060202 L35.7987305,18.7060202 C36.6568945,18.7060202 37.3505273,19.403289 37.3505273,20.2624017 C37.3505273,21.1215145 36.6568945,21.8187832 35.7987305,21.8187832"></path>
                                <path d="M55.9712109,3.14308671 L32.6953125,3.14308671 C31.8371484,3.14308671 31.1435156,2.44581792 31.1435156,1.5867052 C31.1435156,0.727592486 31.8371484,0.0303236994 32.6953125,0.0303236994 L55.9712109,0.0303236994 C56.829375,0.0303236994 57.5230078,0.727592486 57.5230078,1.5867052 C57.522832,2.44581792 56.8291992,3.14308671 55.9712109,3.14308671"></path>
                                <path d="M63.7298438,3.14308671 C63.6352734,3.14308671 63.5280469,3.12757225 63.4350586,3.1118815 C63.3264258,3.09636705 63.2332617,3.06516185 63.1402734,3.0184422 C63.0471094,2.98723699 62.9541211,2.94069364 62.859375,2.87845954 C62.7832617,2.81622543 62.7057422,2.75399133 62.6282227,2.69175723 C62.3473242,2.39610116 62.1782227,1.99149133 62.1782227,1.5867052 C62.1782227,1.18209538 62.3473242,0.777485549 62.6282227,0.481653179 L62.859375,0.294950867 C62.9541211,0.232716763 63.0471094,0.18599711 63.1402734,0.154968208 C63.2334375,0.108248555 63.3264258,0.0772196532 63.4350586,0.0615289017 C63.9316406,-0.0474248555 64.4732227,0.123763006 64.8316406,0.481653179 C64.8936914,0.559401734 64.9557422,0.63732659 65.017793,0.730589595 C65.0798438,0.80833815 65.1248438,0.901777457 65.1573633,0.995216763 C65.2039453,1.08865607 65.2348828,1.18191908 65.2489453,1.29087283 C65.2659961,1.38431214 65.2814648,1.4932659 65.2814648,1.5865289 C65.2814648,1.67996821 65.2659961,1.78892197 65.2489453,1.89787572 C65.2350586,1.99131503 65.2039453,2.08457803 65.1573633,2.17801734 C65.1248438,2.27145665 65.0798438,2.36471965 65.017793,2.45815896 C64.9557422,2.53590751 64.8936914,2.61383237 64.8316406,2.69158092 C64.7541211,2.75381503 64.6748438,2.81604913 64.5989062,2.87828324 C64.5057422,2.94051734 64.4111719,2.98723699 64.3195898,3.0182659 C64.2250195,3.06498555 64.1334375,3.09601445 64.0232227,3.1117052 C63.9314648,3.12739595 63.822832,3.14308671 63.7298438,3.14308671"></path>
                                <path d="M34.2471094,12.4808468 C33.8266406,12.4808468 33.4386914,12.309659 33.1453125,12.0295173 C32.8644141,11.7338613 32.6953125,11.3447659 32.6953125,10.9244653 C32.6953125,10.5198555 32.8644141,10.1152457 33.1453125,9.81941329 C33.5021484,9.46152312 34.0453125,9.29033526 34.5403125,9.39928902 C34.6505273,9.41480347 34.7421094,9.44600867 34.8366797,9.49272832 C34.9282617,9.52393353 35.022832,9.57047688 35.1005273,9.63271098 C35.1921094,9.67943064 35.2712109,9.75717919 35.3332617,9.81941329 C35.6280469,10.1150694 35.7987305,10.5196792 35.7987305,10.9244653 C35.7987305,11.3445896 35.6280469,11.733685 35.3332617,12.0295173 C35.0539453,12.309659 34.6659961,12.4808468 34.2471094,12.4808468"></path>
                                <path d="M42.0057422,21.8187832 C41.8971094,21.8187832 41.8039453,21.8032688 41.6953125,21.787578 C41.6021484,21.7720636 41.5091602,21.7408584 41.4159961,21.6941387 C41.322832,21.6629335 41.2298437,21.6163902 41.1350977,21.5541561 C41.0589844,21.491922 40.9814648,21.4296879 40.9039453,21.3674538 C40.6230469,21.0717977 40.4539453,20.6827023 40.4539453,20.2624017 C40.4539453,19.8577919 40.6230469,19.4531821 40.9039453,19.1573497 C41.4780469,18.581552 42.5332617,18.581552 43.1073633,19.1573497 C43.3866797,19.4530058 43.5573633,19.8576156 43.5573633,20.2624017 C43.5573633,20.3713555 43.5418945,20.4647948 43.5248437,20.5737486 C43.510957,20.6671879 43.4798437,20.7604509 43.4332617,20.8538902 C43.4007422,20.9473295 43.3557422,21.0405925 43.2936914,21.1340318 C43.2316406,21.2117803 43.1695898,21.2897052 43.1075391,21.3674538 C42.8125781,21.6475954 42.4091602,21.8187832 42.0057422,21.8187832"></path>
                            </g>
                            <polygon id="Shape" fill="#4D90F6" points="13.9654687 28.165604 35.6895703 28.165604 35.6895703 6.37714451 13.9654687 6.37714451"></polygon>
                        </g>
                    </g>
                </g>
                <g id="right-arrow-forward" transform="translate(178.016660, 245.320508) rotate(30.000000) translate(-178.016660, -245.320508) translate(152.016660, 225.320508)" fill="#9C9C9C">
                    <g id="Capa_1" transform="translate(0.000000, -0.000000)">
                        <g id="arrow-forward" transform="translate(0.000000, 0.000000)">
                            <polygon id="Shape" points="34.5864085 0.89711591 24.3084109 1.00574654 37.0638438 15.7118004 0.850238385 15.6710543 0.47355262 23.4160764 36.8438005 23.4165647 24.3354263 39.0455805 34.9844281 37.5873607 51.0852445 19.2002566"></polygon>
                        </g>
                    </g>
                </g>
                <g id="right-arrow-forward" transform="translate(177.647636, 98.738863) rotate(-30.000000) translate(-177.647636, -98.738863) translate(151.647636, 78.738863)" fill="#9C9C9C">
                    <g id="Capa_1" transform="translate(0.000000, -0.000000)">
                        <g id="arrow-forward" transform="translate(0.000000, 0.000000)">
                            <polygon id="Shape" points="34.5864085 0.89711591 24.3084109 1.00574654 37.0638438 15.7118004 0.850238385 15.6710543 0.47355262 23.4160764 36.8438005 23.4165647 24.3354263 39.0455805 34.9844281 37.5873607 51.0852445 19.2002566"></polygon>
                        </g>
                    </g>
                </g>
                <g id="right-arrow-forward" transform="translate(822.016660, 95.320508) rotate(30.000000) translate(-822.016660, -95.320508) translate(796.016660, 75.320508)" fill="#9C9C9C">
                    <g id="Capa_1" transform="translate(0.000000, -0.000000)">
                        <g id="arrow-forward" transform="translate(0.000000, 0.000000)">
                            <polygon id="Shape" points="34.5864085 0.89711591 24.3084109 1.00574654 37.0638438 15.7118004 0.850238385 15.6710543 0.47355262 23.4160764 36.8438005 23.4165647 24.3354263 39.0455805 34.9844281 37.5873607 51.0852445 19.2002566"></polygon>
                        </g>
                    </g>
                </g>
                <g id="right-arrow-forward" transform="translate(821.647636, 247.738863) rotate(-30.000000) translate(-821.647636, -247.738863) translate(795.647636, 227.738863)" fill="#9C9C9C">
                    <g id="Capa_1" transform="translate(0.000000, -0.000000)">
                        <g id="arrow-forward" transform="translate(0.000000, 0.000000)">
                            <polygon id="Shape" points="34.5864085 0.89711591 24.3084109 1.00574654 37.0638438 15.7118004 0.850238385 15.6710543 0.47355262 23.4160764 36.8438005 23.4165647 24.3354263 39.0455805 34.9844281 37.5873607 51.0852445 19.2002566"></polygon>
                        </g>
                    </g>
                </g>
                <g id="new_data" transform="translate(0.000000, 99.000000)">
                    <g id="Polygon">
                        <use fill="#FFFFFF" fill-rule="evenodd" xlink:href="#path-5"></use>
                        <use stroke="#E0E0E0" mask="url(#mask-6)" stroke-width="6" xlink:href="#path-5"></use>
                    </g>
                    <text id="New-Data" font-family="OpenSans-Bold, Open Sans" font-size="13" font-weight="bold" fill="#3F3F3F">
                        <tspan x="33" y="118">New Data</tspan>
                    </text>
                    <g id="new_data_icon" transform="translate(15.000000, 20.000000)">
                        <g id="Group-5" transform="translate(37.522610, 38.801944) rotate(-37.000000) translate(-37.522610, -38.801944) translate(13.522610, 8.301944)">
                            <rect id="Rectangle-6" fill="#E1B124" x="1.77635684e-14" y="9.23705556e-14" width="48" height="61"></rect>
                            <rect id="Rectangle-7" fill="#FFFFFF" x="4" y="5" width="10" height="10"></rect>
                            <rect id="Rectangle-7" fill="#FFFFFF" x="4" y="19" width="10" height="10"></rect>
                            <rect id="Rectangle-7" fill="#FFFFFF" x="4" y="33" width="10" height="10"></rect>
                            <rect id="Rectangle-7" fill="#FFFFFF" x="4" y="47" width="10" height="10"></rect>
                            <rect id="Rectangle-8" fill="#FFFFFF" x="19" y="5" width="24" height="4"></rect>
                            <rect id="Rectangle-8" fill="#FFFFFF" x="19" y="11" width="24" height="4"></rect>
                            <rect id="Rectangle-8" fill="#FFFFFF" x="19" y="19" width="24" height="4"></rect>
                            <rect id="Rectangle-8" fill="#FFFFFF" x="19" y="25" width="24" height="4"></rect>
                            <rect id="Rectangle-8" fill="#FFFFFF" x="19" y="33" width="24" height="4"></rect>
                            <rect id="Rectangle-8" fill="#FFFFFF" x="19" y="39" width="24" height="4"></rect>
                            <rect id="Rectangle-8" fill="#FFFFFF" x="19" y="46" width="24" height="4"></rect>
                            <rect id="Rectangle-8" fill="#FFFFFF" x="19" y="52" width="24" height="4"></rect>
                        </g>
                        <g id="Group-5" transform="translate(49.622275, 41.348048) rotate(-19.000000) translate(-49.622275, -41.348048) translate(25.622275, 10.848048)">
                            <rect id="Rectangle-6" fill="#03A664" x="-8.17124146e-14" y="8.52651283e-14" width="48" height="61"></rect>
                            <rect id="Rectangle-7" fill="#FFFFFF" x="4" y="5" width="10" height="10"></rect>
                            <rect id="Rectangle-7" fill="#FFFFFF" x="4" y="19" width="10" height="10"></rect>
                            <rect id="Rectangle-7" fill="#FFFFFF" x="4" y="33" width="10" height="10"></rect>
                            <rect id="Rectangle-7" fill="#FFFFFF" x="4" y="47" width="10" height="10"></rect>
                            <rect id="Rectangle-8" fill="#FFFFFF" x="19" y="5" width="24" height="4"></rect>
                            <rect id="Rectangle-8" fill="#FFFFFF" x="19" y="11" width="24" height="4"></rect>
                            <rect id="Rectangle-8" fill="#FFFFFF" x="19" y="19" width="24" height="4"></rect>
                            <rect id="Rectangle-8" fill="#FFFFFF" x="19" y="25" width="24" height="4"></rect>
                            <rect id="Rectangle-8" fill="#FFFFFF" x="19" y="33" width="24" height="4"></rect>
                            <rect id="Rectangle-8" fill="#FFFFFF" x="19" y="39" width="24" height="4"></rect>
                            <rect id="Rectangle-8" fill="#FFFFFF" x="19" y="46" width="24" height="4"></rect>
                            <rect id="Rectangle-8" fill="#FFFFFF" x="19" y="52" width="24" height="4"></rect>
                        </g>
                        <g id="Group-5" transform="translate(37.000000, 17.000000)">
                            <rect id="Rectangle-6" fill="#DC463A" x="0" y="0" width="48" height="61"></rect>
                            <rect id="Rectangle-7" fill="#FFFFFF" x="4" y="5" width="10" height="10"></rect>
                            <rect id="Rectangle-7" fill="#FFFFFF" x="4" y="19" width="10" height="10"></rect>
                            <rect id="Rectangle-7" fill="#FFFFFF" x="4" y="33" width="10" height="10"></rect>
                            <rect id="Rectangle-7" fill="#FFFFFF" x="4" y="47" width="10" height="10"></rect>
                            <rect id="Rectangle-8" fill="#FFFFFF" x="19" y="5" width="24" height="4"></rect>
                            <rect id="Rectangle-8" fill="#FFFFFF" x="19" y="11" width="24" height="4"></rect>
                            <rect id="Rectangle-8" fill="#FFFFFF" x="19" y="19" width="24" height="4"></rect>
                            <rect id="Rectangle-8" fill="#FFFFFF" x="19" y="25" width="24" height="4"></rect>
                            <rect id="Rectangle-8" fill="#FFFFFF" x="19" y="33" width="24" height="4"></rect>
                            <rect id="Rectangle-8" fill="#FFFFFF" x="19" y="39" width="24" height="4"></rect>
                            <rect id="Rectangle-8" fill="#FFFFFF" x="19" y="46" width="24" height="4"></rect>
                            <rect id="Rectangle-8" fill="#FFFFFF" x="19" y="52" width="24" height="4"></rect>
                        </g>
                    </g>
                </g>
                <g id="merged_view" transform="translate(852.000000, 99.000000)">
                    <g id="Polygon">
                        <use fill="#FFFFFF" fill-rule="evenodd" xlink:href="#path-7"></use>
                        <use stroke="#E0E0E0" mask="url(#mask-8)" stroke-width="6" xlink:href="#path-7"></use>
                    </g>
                    <g id="merged_graph" transform="translate(10.000000, 29.000000)">
                        <g id="progress-report-(1)" transform="translate(37.000000, 17.000000)">
                            <g id="Capa_1">
                                <g id="Group">
                                    <path d="M8.80521154,17.2807534 C8.35994231,17.7104496 8,18.5501014 8,19.156787 L8,27.0589785 L12.7537885,27.0589785 L12.7537885,14.5692595 C12.7537885,13.9625739 12.3938462,13.817494 11.9485769,14.2471902 L8.80521154,17.2807534 Z" id="Shape" fill="#E1B125"></path>
                                    <path d="M29.8052115,9.36560503 C29.3610632,9.80593033 29,10.6664906 29,11.2892918 L29,27.0589785 L33.7537885,27.0589785 L33.7537885,6.58260503 C33.7537885,5.96091226 33.3938462,5.81335202 32.9485769,6.25367732 L29.8052115,9.36560503 Z" id="Shape" fill="#E1B125"></path>
                                    <path d="M36.8063324,2.96472197 C36.3610632,3.3951948 36,4.23848699 36,4.84780294 L36,27.0589785 L40.4200467,27.0589785 L40.4200467,0.571727615 C40.4200467,-0.0375883358 40.0589835,-0.183297276 39.6137143,0.248261915 L36.8063324,2.96472197 Z" id="Shape" fill="#E1B125"></path>
                                    <path d="M22.9463022,16.2187807 C22.9463022,16.2187807 22.734456,16.4293831 22.4725907,16.6884795 C22.2118462,16.9475759 22,17.6626542 22,18.2843469 L22,27.1681662 L26.7537885,27.1681662 L26.7537885,13.5833409 C26.7537885,12.9616481 26.3927253,12.8129795 25.947456,13.2533048 L22.9463022,16.2187807 Z" id="Shape" fill="#DC463A"></path>
                                    <path d="M15.8063324,14.2429247 C15.3610632,13.8209016 15,13.9626854 15,14.560041 L15,27.0589785 L19.7537885,27.0589785 L19.7537885,19.0671671 C19.7537885,18.4698114 19.4120604,17.6614443 18.9896291,17.2621866 L18.2254698,16.5392891 L15.8063324,14.2429247 Z" id="Shape" fill="#DC463A"></path>
                                    <path d="M2.33927473,23.2334227 L0.804090659,24.6514822 C0.359942308,25.0621431 0,25.7670377 0,26.2270607 L0,27.0589785 L5.30610165,27.0589785 L5.30610165,21.5433554 C5.30610165,20.9635456 4.94615934,20.8259264 4.50089011,21.2365873 L2.33927473,23.2334227 Z" id="Shape" fill="#E1B125"></path>
                                </g>
                            </g>
                        </g>
                        <g id="graph" transform="translate(25.000000, 0.000000)">
                            <g id="Capa_1">
                                <g id="Group">
                                    <g transform="translate(9.433333, 12.000000)" id="Shape" fill="#9777A8">
                                        <path d="M13.483125,11.3026376 L0.303025,23.4827376 C-0.101008333,23.886771 -0.101008333,24.5398376 0.303025,24.943871 C0.504525,25.145371 0.769058333,25.2466376 1.03359167,25.2466376 C1.298125,25.2466376 1.56265833,25.145371 1.76415833,24.943871 L14.9442583,12.763771 C15.3482917,12.3597376 15.3482917,11.706671 14.9442583,11.3026376 C14.540225,10.8986043 13.886125,10.8996376 13.483125,11.3026376 Z"></path>
                                        <path d="M16.7641583,11.303025 C16.360125,10.8989917 15.7070583,10.8989917 15.303025,11.303025 C14.8989917,11.7070583 14.8989917,12.360125 15.303025,12.7641583 L21.5288583,16.9899917 C21.7303583,17.1914917 21.9948917,17.2927583 22.259425,17.2927583 C22.5239583,17.2927583 22.7884917,17.1914917 22.9899917,16.9899917 C23.394025,16.5859583 23.394025,15.9328917 22.9899917,15.5288583 L16.7641583,11.303025 Z"></path>
                                        <path d="M40.0974917,0.303025 C39.6934583,-0.101008333 39.0403917,-0.101008333 38.6363583,0.303025 L23.303025,15.6363583 C22.8989917,16.0403917 22.8989917,16.6934583 23.303025,17.0974917 C23.504525,17.2989917 23.7690583,17.4002583 24.0335917,17.4002583 C24.298125,17.4002583 24.5626583,17.2989917 24.7641583,17.0974917 C24.7641583,17.0974917 33.3200381,8.15060499 38.5979779,3.17716165 C39.0978159,2.70616054 40.0974917,1.76415833 40.0974917,1.76415833 C40.501525,1.360125 40.501525,0.707058333 40.0974917,0.303025 Z"></path>
                                    </g>
                                    <path d="M1.99804688,48.0217285 C0.851751608,48.0217285 0.0209333333,47.9338624 0.0209333333,47.9338624 L0.0209333333,1.06613757 C0.0209333333,0.476563492 0.947504733,0 2.0938,0 C3.24009527,0 4.16666667,0.476563492 4.16666667,1.06613757 L4.16666667,47.9338624 C4.16666667,47.9338624 3.14434214,48.0217285 1.99804688,48.0217285 Z" id="Shape" fill="#556080"></path>
                                    <path d="M59.9502646,51 L0.0497354497,51 C0.0497354497,51 0,50.106 0,49 C0,47.894 0.0497354497,47 0.0497354497,47 L59.9502646,47 C60.5307683,47 61,47.894 61,49 C61,50.106 59.9502646,51 59.9502646,51 Z" id="Shape" fill="#556080"></path>
                                    <ellipse id="Oval" fill="#E1B125" cx="9.45815696" cy="37.458157" rx="3.45815696" ry="3.45815696"></ellipse>
                                    <ellipse id="Oval" fill="#03A664" cx="24.5409399" cy="23.5409399" rx="3.5409399" ry="3.5409399"></ellipse>
                                    <ellipse id="Oval" fill="#03A664" cx="48.5409399" cy="12.5409399" rx="3.5409399" ry="3.5409399"></ellipse>
                                    <circle id="Oval" fill="#E1B125" cx="32.458157" cy="28.458157" r="3.45815696"></circle>
                                </g>
                            </g>
                        </g>
                        <text id="Merged-View-(Cassand" font-family="OpenSans-Bold, Open Sans" font-size="13" font-weight="bold" line-spacing="19" fill="#3F3F3F">
                            <tspan x="13.3466797" y="68">Merged View</tspan>
                            <tspan x="24.7392578" y="87" font-family="ArialMT, Arial" font-size="11" font-weight="normal">(Cassandra)</tspan>
                        </text>
                    </g>
                </g>
                <g id="right-arrow-(1)" transform="translate(916.000000, 278.500000) rotate(90.000000) translate(-916.000000, -278.500000) translate(894.500000, 267.500000)" fill="#03A664">
                    <g id="Layer_1" transform="translate(16.166667, 0.681818)">
                        <g id="Group">
                            <polygon id="Shape" points="25.5 10.3110639 15.8620199 0.866521662 15.8620199 6.31628973 10.8737386 6.31628973 10.8737386 14.3143366 15.8620199 14.3143366 15.8620199 19.7254084"></polygon>
                            <path d="M7.88435872,8.33124334 L7.88435872,12.2902277 C7.88435872,12.8585406 8.39530599,13.3158625 8.85994466,13.3158625 C9.32458333,13.3158625 9.8355306,12.8585406 9.8355306,12.2902277 L9.8355306,8.33124334 C9.8355306,7.76293045 9.26172917,7.33472235 8.79709049,7.33472235 C8.33245182,7.33472235 7.88435872,7.76293045 7.88435872,8.33124334 Z" id="Shape"></path>
                            <path d="M5.31099447,7.37463934 C4.84635579,7.37463934 4.89046224,7.77641922 4.89046224,8.34473211 L4.89046224,12.3223322 C4.89046224,12.8906451 4.84635579,13.2898005 5.31099447,13.2898005 C5.77563314,13.2898005 5.7808431,12.8906451 5.7808431,12.3223322 L5.7808431,8.34473211 C5.7808431,7.77641922 5.6887832,7.37463934 5.22414453,7.37463934 L5.31099447,7.29480533" id="Shape"></path>
                            <path d="M0.84181722,8.30762274 L0.84181722,12.2728937 C0.84181722,12.8412066 1.37415731,13.2832697 1.83879598,13.2832697 C2.30343465,13.2832697 2.83577474,12.8412066 2.83577474,12.2728937 L2.83577474,8.30762274 C2.83577474,7.73930984 2.30950586,7.31738836 1.84481934,7.31738836 C1.38018066,7.31738836 0.84181722,7.73930984 0.84181722,8.30762274 Z" id="Shape"></path>
                        </g>
                    </g>
                    <g id="Layer_1" transform="translate(8.333333, 10.818182) scale(-1, -1) translate(-8.333333, -10.818182) translate(0.333333, 0.318182)">
                        <g id="Group">
                            <polygon id="Shape" points="15.5 10.5182919 6.30354818 0.98700506 6.30354818 6.34723455 0.324605306 6.34723455 0.324605306 14.3087824 6.30354818 14.3087824 6.30354818 20.0117243"></polygon>
                        </g>
                    </g>
                </g>
                <text id="Application" font-family="OpenSans-Bold, Open Sans" font-size="13" font-weight="bold" fill="#3F3F3F">
                    <tspan x="879.951904" y="387">Application</tspan>
                </text>
            </g>
        </g>
    </g>
</svg>