<?xml version="1.0" encoding="UTF-8"?>
<svg version="1.1" viewBox="0 0 71 71" xmlns="http://www.w3.org/2000/svg">
<title>wallet (1)</title>
<desc>Created with Sketch.</desc>
<g fill="none" fill-rule="evenodd">
<g transform="translate(-905 -1405)" fill-rule="nonzero">
<g transform="translate(241 1343)">
<g transform="translate(664 62)">
<polygon points="65.834 39.772 65.834 25.323 8.7782 25.323 8.7782 69.593 65.834 69.593 65.834 55.024 42.842 55.024 42.842 39.772" fill="#947C6B"/>
<polygon points="60.09 25.323 62.827 23.326 46.918 1.4072 34.226 10.665 28.025 15.214 14.167 25.323" fill="#67B475"/>
<path d="m28.025 15.214l6.2013-4.5493 6.9398-5.0621-3.0454-4.1957-12.692 9.2579-6.2013 4.5493-13.906 10.142c0.18138-0.022326 0.36554-0.033975 0.55288-0.033975h2.9041 5.3884l13.858-10.108z" fill="#8DE0A8"/>
<path d="m49.768 25.323c-1.211-1.9927-1.0625-4.5652 0.37164-6.4064l0.27887-0.35791-2.7651-3.7907-0.426 0.15628c-2.196 0.80499-4.6972 0.15642-6.2239-1.6141l-0.36235-0.42018-3.6077 2.6316-5.8942 4.2994-7.5431 5.5021h26.172z" fill="#C6D555"/>
<g transform="translate(1.3867 25.238)" fill="#C7A87E">
<path d="m4.4874 0.084451c-2.4783 0-4.4874 2.0091-4.4874 4.4874v35.295c0 2.4783 2.0091 4.4874 4.4874 4.4874h2.9041v-44.27h-2.9041z"/>
<rect x="41.455" y="14.534" width="26.772" height="15.251"/>
</g>
<circle cx="51.714" cy="47.398" r="4.126" fill="#EE4A4D"/>
<path d="m51.714 52.911c-3.0397 0-5.5128-2.4731-5.5128-5.5128 0-3.0398 2.4731-5.5129 5.5128-5.5129s5.5128 2.4731 5.5128 5.5129c0 3.0397-2.4731 5.5128-5.5128 5.5128zm0-8.2522c-1.5106 0-2.7393 1.2289-2.7393 2.7395 0 1.5106 1.2288 2.7393 2.7393 2.7393 1.5106 0 2.7393-1.2288 2.7393-2.7393 0-1.5106-1.2289-2.7395-2.7393-2.7395z" fill="#000"/>
<path d="m57.28 64.266c-0.36471 0-0.72109-0.14824-0.98027-0.40631-0.063789-0.063789-0.12217-0.13451-0.17195-0.21078-0.049922-0.074883-0.09291-0.15531-0.12758-0.23865-0.034668-0.084451-0.061016-0.17181-0.079043-0.2607-0.018027-0.08875-0.027734-0.18027-0.027734-0.27041 0-0.089998 0.009707-0.18166 0.027734-0.27027 0.018027-0.088889 0.044375-0.17625 0.079043-0.26084 0.034668-0.083203 0.077656-0.16363 0.12758-0.23852 0.049783-0.07627 0.10816-0.14685 0.17195-0.21078 0.25918-0.25793 0.6157-0.40645 0.98027-0.40645 0.36471 0 0.72248 0.14838 0.98041 0.40645 0.065176 0.063789 0.12203 0.13451 0.17334 0.21078 0.049922 0.074883 0.09291 0.15531 0.12758 0.23852 0.034668 0.08459 0.061016 0.17195 0.079043 0.26084 0.018027 0.08875 0.026209 0.18027 0.026209 0.27027 0 0.090137-0.0083203 0.1818-0.026209 0.27041-0.018027 0.088889-0.044375 0.17625-0.079043 0.2607-0.034668 0.083342-0.077656 0.16377-0.12758 0.23865-0.051309 0.07627-0.10816 0.14699-0.17334 0.21078-0.25807 0.25793-0.6157 0.40631-0.98041 0.40631z" fill="#000"/>
<path d="m69.613 38.386h-2.3926v-13.063c0-0.76575-0.62097-1.3867-1.3867-1.3867h-1.762c0.21827-0.44625 0.18943-0.99483-0.12259-1.4246l-15.909-21.919c-0.21647-0.29801-0.54248-0.49783-0.90622-0.55524-0.3636-0.057549-0.73552 0.032311-1.0331 0.24947l-4.6293 3.3765-2.229-3.0707c-0.21647-0.29801-0.54248-0.49783-0.90622-0.55524-0.3636-0.057549-0.73552 0.032311-1.0332 0.24947l-32.532 23.754c-2.7135 0.51766-4.7714 2.9068-4.7714 5.7689v35.295c0 3.239 2.635 5.8741 5.874 5.8741h2.9041 57.056c0.76575 0 1.3867-0.62097 1.3867-1.3867v-13.182h2.3926c0.76575 0 1.3867-0.62083 1.3867-1.3867v-15.252c2.773e-4 -0.76602-0.6207-1.3869-1.3864-1.3869zm-23.001-35.039l14.28 19.674-1.2547 0.91523h-9.0098c-0.53375-1.3791-0.32116-2.9767 0.60613-4.1674l0.27887-0.35791c0.38038-0.48812 0.39105-1.1694 0.026348-1.6693l-2.7651-3.7909c-0.36485-0.50005-1.017-0.69752-1.5976-0.4848l-0.42614 0.15628c-1.6566 0.60724-3.5443 0.11815-4.6963-1.2177l-0.36221-0.42004c-0.47162-0.54692-1.2841-0.64011-1.8674-0.2148l-16.68 12.167h-4.7233l6.3514-4.6329 4.0724-2.9705 6.1982-4.5471 6.9398-5.0621c1.386e-4 -1.3867e-4 4.16e-4 -2.7734e-4 5.546e-4 -4.1602e-4l4.6287-3.3764zm1.1245 20.589h-19.886l12.606-9.1953c1.7738 1.6667 4.3223 2.3063 6.6765 1.667l1.5646 2.145c-1.0378 1.601-1.3677 3.556-0.96141 5.3834zm-27.689-7.6035l6.1982-4.5471 11.569-8.4386 1.4163 1.951-5.8252 4.249-6.1982 4.5471-13.493 9.8421h-4.0921l10.425-7.6035zm-14.53 10.398c0.043543-0.0049922 0.087225-0.008875 0.13077-0.012064 0.015531-0.0011093 0.030924-0.0026347 0.046455-0.0034668 0.060184-0.0034668 0.12009-0.0055468 0.17944-0.0055468h1.5173v34.783h-4.6178v-31.683c0-1.589 1.2017-2.902 2.7438-3.0796zm-2.7438 38.375v-0.83883h4.6181v3.9395h-1.5175c-1.7097 0-3.1006-1.391-3.1006-3.1007zm61.674 3.1007h-54.282v-3.9395h42.595c0.76575 0 1.3867-0.62097 1.3867-1.3867 0-0.76575-0.62097-1.3867-1.3867-1.3867h-42.595v-34.783h54.282v3.3692h-44.722c-0.76575 0-1.3867 0.62083-1.3867 1.3867 0 0.76575 0.62097 1.3867 1.3867 1.3867h44.722v5.5336h-21.605c-0.76575 0-1.3867 0.62097-1.3867 1.3867v15.252 1.387e-4c0 0.76588 0.62097 1.3867 1.3867 1.3867h21.605v11.795h1.387e-4zm3.7794-14.568h-2.3901c-8.321e-4 0-0.0016641-1.387e-4 -0.0024961-1.387e-4h-21.605v-12.478h21.605 2.3926v12.478z" fill="#000"/>
<path d="m15.206 32.852c-0.76575 0-1.3867-0.62097-1.3867-1.3867v-0.14852c0-0.76588 0.62097-1.3867 1.3867-1.3867s1.3867 0.62083 1.3867 1.3867v0.14852c0 0.76575-0.62083 1.3867-1.3867 1.3867z" fill="#000"/>
</g>
</g>
</g>
</g>
</svg>
