<?xml version="1.0" encoding="UTF-8" standalone="no"?>
<svg width="130px" height="38px" viewBox="0 0 130 38" version="1.1" xmlns="http://www.w3.org/2000/svg" xmlns:xlink="http://www.w3.org/1999/xlink">
    <!-- Generator: Sketch 44.1 (41455) - http://www.bohemiancoding.com/sketch -->
    <title>2015_sfdc_dev_user_official_badge_Registered_Consulting_Partner_light_RGB_1.0</title>
    <desc>Created with Sketch.</desc>
    <defs></defs>
    <g id="Page-1" stroke="none" stroke-width="1" fill="none" fill-rule="evenodd">
        <g id="Artboard" transform="translate(-13.000000, -17.000000)">
            <g id="2015_sfdc_dev_user_official_badge_Registered_Consulting_Partner_light_RGB_1.0" transform="translate(13.000000, 17.000000)">
                <path d="M127.184332,37.8942935 L3.17511521,37.8942935 C1.67741935,37.8942935 0.479262673,36.6932065 0.479262673,35.1918478 L0.479262673,2.7625 C0.479262673,1.2611413 1.67741935,0.0600543478 3.17511521,0.0600543478 L127.184332,0.0600543478 C128.682028,0.0600543478 129.880184,1.2611413 129.880184,2.7625 L129.880184,35.1918478 C129.880184,36.6932065 128.682028,37.8942935 127.184332,37.8942935 Z" id="Shape" fill="#003C4D" fill-rule="nonzero"></path>
                <g id="Group" transform="translate(10.783410, 4.203804)">
                    <path d="M17.4331797,3.72336957 C18.8110599,2.28206522 20.6682028,1.44130435 22.764977,1.44130435 C25.5207373,1.44130435 27.9769585,3.00271739 29.235023,5.28478261 C30.3732719,4.80434783 31.5714286,4.50407609 32.8894009,4.50407609 C37.8617512,4.50407609 41.9354839,8.58777174 41.9354839,13.632337 C41.9354839,18.6769022 37.8617512,22.7605978 32.8894009,22.7605978 C32.2903226,22.7605978 31.6912442,22.7005435 31.0921659,22.5804348 C29.9539171,24.6222826 27.797235,26.0035326 25.3410138,26.0035326 C24.3225806,26.0035326 23.3041475,25.7633152 22.4654378,25.3429348 C21.3271889,28.0453804 18.6313364,29.9671196 15.516129,29.9671196 C12.281106,29.9671196 9.52534562,27.9252717 8.44700461,25.042663 C7.96774194,25.1627717 7.48847926,25.2228261 7.00921659,25.2228261 C3.11520737,25.2228261 0,22.0399457 0,18.136413 C0,15.4940217 1.37788018,13.2119565 3.47465438,12.0108696 C3.05529954,10.9899457 2.8156682,9.90896739 2.8156682,8.76793478 C2.8156682,4.2638587 6.47004608,0.600543478 10.9631336,0.600543478 C13.5990783,0.480434783 15.9354839,1.74157609 17.4331797,3.72336957 Z" id="Shape" fill="#00A1E0" fill-rule="nonzero"></path>
                    <g transform="translate(5.990783, 10.809783)" id="Shape" fill="#FFFFFF">
                        <path d="M0.0599078341,4.98451087 C0.0599078341,5.04456522 0.0599078341,5.04456522 0.0599078341,5.10461957 C0.119815668,5.16467391 0.239631336,5.22472826 0.299539171,5.22472826 C0.718894009,5.46494565 1.13824885,5.525 1.55760369,5.525 C2.39631336,5.525 2.93548387,5.04456522 2.93548387,4.32391304 L2.93548387,4.32391304 C2.93548387,3.66331522 2.33640553,3.42309783 1.73732719,3.24293478 L1.67741935,3.24293478 C1.25806452,3.12282609 0.898617512,3.00271739 0.898617512,2.70244565 L0.898617512,2.70244565 C0.898617512,2.46222826 1.13824885,2.28206522 1.43778802,2.28206522 C1.79723502,2.28206522 2.2764977,2.40217391 2.51612903,2.58233696 C2.51612903,2.58233696 2.57603687,2.6423913 2.6359447,2.58233696 C2.6359447,2.52228261 2.8156682,2.16195652 2.8156682,2.10190217 C2.8156682,2.04184783 2.8156682,2.04184783 2.75576037,1.98179348 C2.4562212,1.80163043 1.97695853,1.62146739 1.49769585,1.62146739 L1.43778802,1.62146739 C0.658986175,1.62146739 0.119815668,2.10190217 0.119815668,2.7625 L0.119815668,2.7625 C0.119815668,3.48315217 0.718894009,3.72336957 1.31797235,3.90353261 L1.43778802,3.90353261 C1.85714286,4.0236413 2.21658986,4.14375 2.21658986,4.44402174 L2.21658986,4.44402174 C2.21658986,4.68423913 1.97695853,4.92445652 1.61751152,4.92445652 C1.49769585,4.92445652 1.01843318,4.92445652 0.539170507,4.62418478 C0.479262673,4.56413043 0.419354839,4.56413043 0.419354839,4.56413043 C0.419354839,4.56413043 0.359447005,4.50407609 0.299539171,4.62418478 L0.0599078341,4.98451087 Z" fill-rule="nonzero"></path>
                        <path d="M12.640553,4.98451087 C12.640553,5.04456522 12.640553,5.04456522 12.640553,5.10461957 C12.7004608,5.16467391 12.8202765,5.22472826 12.8801843,5.22472826 C13.2995392,5.46494565 13.718894,5.525 14.1382488,5.525 C14.9769585,5.525 15.516129,5.04456522 15.516129,4.32391304 L15.516129,4.32391304 C15.516129,3.66331522 14.9170507,3.42309783 14.3179724,3.24293478 L14.2580645,3.24293478 C13.8387097,3.12282609 13.4792627,3.00271739 13.4792627,2.70244565 L13.4792627,2.70244565 C13.4792627,2.46222826 13.718894,2.28206522 14.0184332,2.28206522 C14.3778802,2.28206522 14.8571429,2.40217391 15.0967742,2.58233696 C15.0967742,2.58233696 15.156682,2.6423913 15.2165899,2.58233696 C15.2165899,2.52228261 15.3963134,2.16195652 15.3963134,2.10190217 C15.3963134,2.04184783 15.3963134,2.04184783 15.3364055,1.98179348 C15.0368664,1.80163043 14.5576037,1.62146739 14.078341,1.62146739 L14.0184332,1.62146739 C13.2396313,1.62146739 12.7004608,2.10190217 12.7004608,2.7625 L12.7004608,2.7625 C12.7004608,3.48315217 13.2995392,3.72336957 13.8986175,3.90353261 L14.0184332,3.90353261 C14.437788,4.0236413 14.797235,4.14375 14.797235,4.44402174 L14.797235,4.44402174 C14.797235,4.68423913 14.5576037,4.92445652 14.1981567,4.92445652 C14.078341,4.92445652 13.5990783,4.92445652 13.1198157,4.62418478 C13.0599078,4.56413043 13,4.56413043 13,4.56413043 C13,4.56413043 12.9400922,4.50407609 12.8801843,4.62418478 L12.640553,4.98451087 Z" fill-rule="nonzero"></path>
                        <path d="M21.9262673,2.7625 C21.8663594,2.52228261 21.7465438,2.34211957 21.6267281,2.16195652 C21.5069124,1.98179348 21.2672811,1.86168478 21.0875576,1.74157609 C20.8479263,1.62146739 20.6082949,1.56141304 20.3087558,1.56141304 C20.0092166,1.56141304 19.7695853,1.62146739 19.5299539,1.74157609 C19.2903226,1.86168478 19.1105991,1.98179348 18.9907834,2.16195652 C18.8709677,2.34211957 18.7511521,2.52228261 18.6912442,2.7625 C18.6313364,3.00271739 18.5714286,3.24293478 18.5714286,3.54320652 C18.5714286,3.84347826 18.6313364,4.08369565 18.6912442,4.32391304 C18.7511521,4.56413043 18.8709677,4.74429348 18.9907834,4.92445652 C19.1105991,5.10461957 19.3502304,5.22472826 19.5299539,5.34483696 C19.7695853,5.46494565 20.0092166,5.525 20.3087558,5.525 C20.6082949,5.525 20.8479263,5.46494565 21.0875576,5.34483696 C21.3271889,5.22472826 21.5069124,5.10461957 21.6267281,4.92445652 C21.7465438,4.74429348 21.8663594,4.56413043 21.9262673,4.32391304 C21.9861751,4.08369565 22.0460829,3.84347826 22.0460829,3.54320652 C22.0460829,3.24293478 22.0460829,2.94266304 21.9262673,2.7625 M21.2073733,3.48315217 C21.2073733,3.90353261 21.1474654,4.20380435 20.9677419,4.44402174 C20.7880184,4.68423913 20.6082949,4.80434783 20.2488479,4.80434783 C19.9493088,4.80434783 19.7096774,4.68423913 19.5299539,4.44402174 C19.3502304,4.20380435 19.2903226,3.90353261 19.2903226,3.48315217 C19.2903226,3.06277174 19.3502304,2.7625 19.5299539,2.52228261 C19.6497696,2.28206522 19.8894009,2.16195652 20.2488479,2.16195652 C20.5483871,2.16195652 20.7880184,2.28206522 20.9677419,2.52228261 C21.1474654,2.7625 21.2073733,3.06277174 21.2073733,3.48315217" fill-rule="nonzero"></path>
                        <path d="M27.8571429,4.74429348 C27.8571429,4.68423913 27.7373272,4.68423913 27.7373272,4.68423913 C27.6175115,4.74429348 27.4976959,4.74429348 27.3778802,4.80434783 C27.2580645,4.80434783 27.1382488,4.80434783 26.9585253,4.80434783 C26.5990783,4.80434783 26.359447,4.68423913 26.1198157,4.50407609 C25.9400922,4.32391304 25.8202765,3.96358696 25.8202765,3.54320652 C25.8202765,3.12282609 25.9400922,2.82255435 26.1198157,2.58233696 C26.2995392,2.34211957 26.5391705,2.22201087 26.8986175,2.22201087 C27.1981567,2.22201087 27.437788,2.28206522 27.6774194,2.34211957 C27.6774194,2.34211957 27.7373272,2.34211957 27.7373272,2.28206522 C27.797235,2.10190217 27.8571429,1.98179348 27.9170507,1.80163043 C27.9170507,1.74157609 27.9170507,1.74157609 27.8571429,1.74157609 C27.7373272,1.68152174 27.5576037,1.62146739 27.3778802,1.62146739 C27.1981567,1.62146739 27.0184332,1.56141304 26.8387097,1.56141304 C26.5391705,1.56141304 26.2396313,1.62146739 26.0599078,1.74157609 C25.8202765,1.86168478 25.640553,1.98179348 25.4608295,2.16195652 C25.281106,2.34211957 25.1612903,2.52228261 25.1013825,2.7625 C25.0414747,3.00271739 24.9815668,3.24293478 24.9815668,3.54320652 C24.9815668,4.14375 25.1612903,4.62418478 25.4608295,4.98451087 C25.7603687,5.34483696 26.2396313,5.525 26.8986175,5.525 C27.2580645,5.525 27.6175115,5.46494565 27.9170507,5.34483696 C27.9170507,5.34483696 27.9769585,5.34483696 27.9170507,5.28478261 L27.8571429,4.74429348 Z"></path>
                        <path d="M31.5115207,2.58233696 C31.4516129,2.34211957 31.2718894,2.10190217 31.2119816,2.04184783 C31.0322581,1.86168478 30.9124424,1.74157609 30.7327189,1.68152174 C30.5529954,1.62146739 30.3133641,1.56141304 30.0138249,1.56141304 C29.7142857,1.56141304 29.4147465,1.62146739 29.235023,1.74157609 C28.9953917,1.86168478 28.8156682,1.98179348 28.6958525,2.16195652 C28.5760369,2.34211957 28.4562212,2.58233696 28.3963134,2.82255435 C28.3364055,3.06277174 28.2764977,3.30298913 28.2764977,3.60326087 C28.2764977,3.90353261 28.3364055,4.14375 28.3963134,4.38396739 C28.4562212,4.62418478 28.5760369,4.80434783 28.7557604,4.98451087 C28.9354839,5.16467391 29.1152074,5.28478261 29.3548387,5.4048913 C29.59447,5.525 29.8940092,5.525 30.2534562,5.525 C30.9723502,5.525 31.3317972,5.34483696 31.4516129,5.28478261 C31.4516129,5.28478261 31.5115207,5.22472826 31.4516129,5.16467391 L31.2718894,4.74429348 C31.2718894,4.68423913 31.1520737,4.68423913 31.1520737,4.68423913 C30.9723502,4.74429348 30.7327189,4.86440217 30.1336406,4.86440217 C29.7741935,4.86440217 29.4746544,4.74429348 29.2949309,4.56413043 C29.1152074,4.38396739 29.0552995,4.14375 28.9953917,3.78342391 L31.4516129,3.78342391 C31.4516129,3.78342391 31.5115207,3.78342391 31.5115207,3.72336957 C31.5714286,3.60326087 31.6912442,3.12282609 31.5115207,2.58233696 Z M29.1152074,3.12282609 C29.1751152,2.8826087 29.235023,2.70244565 29.2949309,2.52228261 C29.4147465,2.28206522 29.6543779,2.16195652 30.0138249,2.16195652 C30.3133641,2.16195652 30.5529954,2.28206522 30.6728111,2.52228261 C30.7926267,2.70244565 30.7926267,2.8826087 30.8525346,3.12282609 L29.1152074,3.12282609 Z"></path>
                        <path d="M12.0414747,2.58233696 C11.9815668,2.34211957 11.8018433,2.10190217 11.7419355,2.04184783 C11.562212,1.86168478 11.4423963,1.74157609 11.2626728,1.68152174 C11.0829493,1.62146739 10.843318,1.56141304 10.5437788,1.56141304 C10.2442396,1.56141304 9.94470046,1.62146739 9.76497696,1.74157609 C9.52534562,1.86168478 9.34562212,1.98179348 9.22580645,2.16195652 C9.10599078,2.34211957 8.98617512,2.58233696 8.92626728,2.82255435 C8.86635945,3.06277174 8.80645161,3.30298913 8.80645161,3.60326087 C8.80645161,3.90353261 8.86635945,4.14375 8.92626728,4.38396739 C8.98617512,4.62418478 9.10599078,4.80434783 9.28571429,4.98451087 C9.46543779,5.16467391 9.64516129,5.28478261 9.88479263,5.4048913 C10.124424,5.525 10.4239631,5.525 10.7834101,5.525 C11.5023041,5.525 11.8617512,5.34483696 11.9815668,5.28478261 C11.9815668,5.28478261 12.0414747,5.22472826 11.9815668,5.16467391 L11.8018433,4.74429348 C11.8018433,4.68423913 11.6820276,4.68423913 11.6820276,4.68423913 C11.5023041,4.74429348 11.2626728,4.86440217 10.6635945,4.86440217 C10.3041475,4.86440217 10.0046083,4.74429348 9.82488479,4.56413043 C9.64516129,4.38396739 9.58525346,4.14375 9.52534562,3.78342391 L11.9815668,3.78342391 C11.9815668,3.78342391 12.0414747,3.78342391 12.0414747,3.72336957 C12.1013825,3.60326087 12.2211982,3.12282609 12.0414747,2.58233696 Z M9.64516129,3.12282609 C9.70506912,2.8826087 9.76497696,2.70244565 9.82488479,2.52228261 C9.94470046,2.28206522 10.1843318,2.16195652 10.5437788,2.16195652 C10.843318,2.16195652 11.0829493,2.28206522 11.202765,2.52228261 C11.3225806,2.70244565 11.3225806,2.8826087 11.3824885,3.12282609 L9.64516129,3.12282609 Z"></path>
                        <path d="M5.33179724,3.00271739 C5.21198157,3.00271739 5.0921659,3.00271739 4.97235023,3.00271739 C4.79262673,3.00271739 4.55299539,3.00271739 4.37327189,3.06277174 C4.19354839,3.12282609 4.01382488,3.18288043 3.89400922,3.30298913 C3.77419355,3.42309783 3.65437788,3.54320652 3.53456221,3.72336957 C3.47465438,3.90353261 3.41474654,4.08369565 3.41474654,4.2638587 C3.41474654,4.50407609 3.47465438,4.68423913 3.53456221,4.80434783 C3.59447005,4.98451087 3.71428571,5.10461957 3.83410138,5.16467391 C3.95391705,5.28478261 4.13364055,5.34483696 4.31336406,5.4048913 C4.49308756,5.46494565 4.73271889,5.46494565 4.97235023,5.46494565 C5.21198157,5.46494565 5.4516129,5.46494565 5.69124424,5.4048913 C5.93087558,5.34483696 6.23041475,5.28478261 6.29032258,5.28478261 C6.35023041,5.28478261 6.47004608,5.22472826 6.47004608,5.22472826 C6.52995392,5.22472826 6.52995392,5.16467391 6.52995392,5.16467391 L6.52995392,2.94266304 C6.52995392,2.46222826 6.41013825,2.10190217 6.17050691,1.86168478 C5.93087558,1.62146739 5.51152074,1.5013587 5.03225806,1.5013587 C4.85253456,1.5013587 4.55299539,1.5013587 4.37327189,1.56141304 C4.37327189,1.56141304 3.83410138,1.68152174 3.59447005,1.86168478 C3.59447005,1.86168478 3.53456221,1.86168478 3.59447005,1.98179348 L3.77419355,2.46222826 C3.77419355,2.52228261 3.83410138,2.52228261 3.83410138,2.52228261 C3.83410138,2.52228261 3.83410138,2.52228261 3.89400922,2.52228261 C4.37327189,2.28206522 4.97235023,2.28206522 4.97235023,2.28206522 C5.21198157,2.28206522 5.4516129,2.34211957 5.57142857,2.46222826 C5.69124424,2.58233696 5.75115207,2.70244565 5.75115207,3.06277174 L5.75115207,3.18288043 C5.51152074,3.00271739 5.33179724,3.00271739 5.33179724,3.00271739 Z M4.37327189,4.68423913 C4.25345622,4.62418478 4.25345622,4.56413043 4.25345622,4.56413043 C4.19354839,4.50407609 4.19354839,4.38396739 4.19354839,4.2638587 C4.19354839,4.0236413 4.25345622,3.90353261 4.43317972,3.78342391 C4.43317972,3.78342391 4.61290323,3.60326087 5.15207373,3.60326087 C5.51152074,3.60326087 5.81105991,3.66331522 5.81105991,3.66331522 L5.81105991,4.74429348 L5.81105991,4.74429348 C5.81105991,4.74429348 5.51152074,4.80434783 5.15207373,4.80434783 C4.61290323,4.86440217 4.37327189,4.68423913 4.37327189,4.68423913 Z" fill-rule="nonzero"></path>
                        <path d="M24.921659,1.74157609 C24.921659,1.68152174 24.921659,1.68152174 24.8617512,1.68152174 C24.8018433,1.68152174 24.6221198,1.62146739 24.4423963,1.62146739 C24.1428571,1.62146739 23.9631336,1.68152174 23.843318,1.74157609 C23.6635945,1.80163043 23.5437788,1.92173913 23.4239631,2.04184783 L23.4239631,1.74157609 C23.4239631,1.68152174 23.4239631,1.68152174 23.3640553,1.68152174 L22.764977,1.68152174 C22.7050691,1.68152174 22.7050691,1.74157609 22.7050691,1.74157609 L22.7050691,5.4048913 C22.7050691,5.46494565 22.764977,5.46494565 22.764977,5.46494565 L23.4239631,5.46494565 C23.483871,5.46494565 23.483871,5.4048913 23.483871,5.4048913 L23.483871,3.60326087 C23.483871,3.36304348 23.483871,3.12282609 23.5437788,2.94266304 C23.6036866,2.7625 23.6635945,2.6423913 23.7834101,2.58233696 C23.843318,2.52228261 23.9631336,2.46222826 24.0829493,2.40217391 C24.202765,2.34211957 24.3225806,2.34211957 24.3824885,2.34211957 C24.5023041,2.34211957 24.6221198,2.40217391 24.6221198,2.40217391 C24.6820276,2.40217391 24.6820276,2.40217391 24.6820276,2.34211957 C24.8018433,2.16195652 24.921659,1.80163043 24.921659,1.74157609 Z"></path>
                        <path d="M18.9308756,0.0600543478 C18.8709677,0.0600543478 18.8110599,0 18.6912442,0 C18.5714286,0 18.5115207,0 18.3317972,0 C17.9124424,0 17.5529954,0.120108696 17.3133641,0.360326087 C17.0737327,0.600543478 16.8940092,0.960869565 16.8341014,1.44130435 L16.8341014,1.62146739 L16.2949309,1.62146739 C16.2949309,1.62146739 16.235023,1.62146739 16.235023,1.68152174 L16.1152074,2.16195652 C16.1152074,2.22201087 16.1152074,2.22201087 16.1751152,2.22201087 L16.7142857,2.22201087 L16.1751152,5.28478261 C16.1152074,5.525 16.0552995,5.70516304 16.0552995,5.88532609 C15.9953917,6.06548913 15.9354839,6.12554348 15.875576,6.24565217 C15.8156682,6.30570652 15.7557604,6.36576087 15.6359447,6.42581522 C15.5760369,6.42581522 15.4562212,6.48586957 15.3364055,6.48586957 C15.2764977,6.48586957 15.2165899,6.48586957 15.156682,6.48586957 C15.0967742,6.48586957 15.0967742,6.48586957 15.0368664,6.42581522 C15.0368664,6.42581522 14.9769585,6.42581522 14.9769585,6.48586957 C14.9769585,6.54592391 14.797235,6.90625 14.797235,6.96630435 C14.797235,7.0263587 14.797235,7.0263587 14.8571429,7.08641304 C14.9170507,7.08641304 14.9769585,7.14646739 15.0967742,7.14646739 C15.2165899,7.20652174 15.3364055,7.20652174 15.4562212,7.20652174 C15.6958525,7.20652174 15.875576,7.14646739 16.0552995,7.08641304 C16.235023,7.0263587 16.3548387,6.90625 16.4746544,6.7861413 C16.59447,6.60597826 16.7142857,6.48586957 16.7741935,6.24565217 C16.8341014,6.00543478 16.9539171,5.76521739 17.0138249,5.4048913 L17.5529954,2.28206522 L18.3317972,2.28206522 C18.3317972,2.28206522 18.3917051,2.28206522 18.3917051,2.22201087 L18.5115207,1.74157609 C18.5115207,1.68152174 18.5115207,1.68152174 18.4516129,1.68152174 L17.6728111,1.68152174 C17.6728111,1.68152174 17.7327189,1.38125 17.7926267,1.14103261 C17.8525346,1.02092391 17.9124424,0.960869565 17.9723502,0.900815217 C18.0322581,0.84076087 18.0921659,0.780706522 18.1520737,0.780706522 C18.2119816,0.780706522 18.3317972,0.720652174 18.3917051,0.720652174 C18.4516129,0.720652174 18.5115207,0.720652174 18.5714286,0.720652174 C18.6313364,0.720652174 18.6912442,0.720652174 18.6912442,0.780706522 C18.7511521,0.780706522 18.8110599,0.780706522 18.8110599,0.720652174 L18.9907834,0.180163043 C18.9907834,0.0600543478 18.9907834,0.0600543478 18.9308756,0.0600543478 Z"></path>
                        <path d="M8.0875576,5.34483696 C8.0875576,5.4048913 8.0875576,5.4048913 8.02764977,5.4048913 L7.36866359,5.4048913 C7.30875576,5.4048913 7.30875576,5.34483696 7.30875576,5.34483696 L7.30875576,0.120108696 C7.30875576,0.0600543478 7.30875576,0.0600543478 7.36866359,0.0600543478 L8.02764977,0.0600543478 C8.0875576,0.0600543478 8.0875576,0.120108696 8.0875576,0.120108696 L8.0875576,5.34483696 Z"></path>
                    </g>
                </g>
                <path d="M62.1455078,8.45800781 C62.2999682,8.45800781 62.4385573,8.470703 62.5612793,8.49609375 L62.4882812,8.98486328 C62.3444003,8.95312484 62.2174485,8.93725586 62.1074219,8.93725586 C61.8260077,8.93725586 61.5853281,9.05151253 61.385376,9.2800293 C61.1854238,9.50854606 61.0854492,9.79312981 61.0854492,10.1337891 L61.0854492,12 L60.5585938,12 L60.5585938,8.52148438 L60.9934082,8.52148438 L61.0537109,9.16577148 L61.0791016,9.16577148 C61.2081712,8.93937061 61.3636872,8.76481181 61.5456543,8.64208984 C61.7276214,8.51936788 61.9275705,8.45800781 62.1455078,8.45800781 Z M64.4512695,12.0634766 C63.9371068,12.0634766 63.5313898,11.9069026 63.2341064,11.59375 C62.9368231,11.2805974 62.7881836,10.8457873 62.7881836,10.2893066 C62.7881836,9.7285942 62.9262437,9.28320478 63.2023682,8.953125 C63.4784926,8.62304522 63.8492978,8.45800781 64.3147949,8.45800781 C64.7506695,8.45800781 65.0955554,8.60135762 65.3494629,8.88806152 C65.6033704,9.17476543 65.7303223,9.55297617 65.7303223,10.0227051 L65.7303223,10.355957 L63.334082,10.355957 C63.3446615,10.764325 63.4478099,11.0742991 63.6435303,11.2858887 C63.8392507,11.4974783 64.114842,11.6032715 64.4703125,11.6032715 C64.8448261,11.6032715 65.2151023,11.5249845 65.5811523,11.3684082 L65.5811523,11.8381348 C65.3949535,11.9185388 65.2188078,11.9761961 65.05271,12.0111084 C64.8866121,12.0460207 64.686134,12.0634766 64.4512695,12.0634766 Z M64.3084473,8.89916992 C64.029149,8.89916992 63.8064543,8.99015208 63.6403564,9.17211914 C63.4742586,9.3540862 63.3763999,9.60587404 63.3467773,9.92749023 L65.1653809,9.92749023 C65.1653809,9.59529456 65.0913256,9.34086189 64.9432129,9.16418457 C64.7951002,8.98750725 64.5835137,8.89916992 64.3084473,8.89916992 Z M69.3754395,8.52148438 L69.3754395,8.85473633 L68.7311523,8.9309082 C68.7903974,9.00496456 68.843294,9.10176535 68.8898437,9.22131348 C68.9363935,9.3408616 68.959668,9.47574795 68.959668,9.62597656 C68.959668,9.96663582 68.8432954,10.2385244 68.6105469,10.4416504 C68.3777983,10.6447764 68.0583028,10.7463379 67.6520508,10.7463379 C67.5483719,10.7463379 67.4510421,10.7378744 67.3600586,10.7209473 C67.1357736,10.8394374 67.0236328,10.9886059 67.0236328,11.168457 C67.0236328,11.2636724 67.0627763,11.3340248 67.1410645,11.3795166 C67.2193526,11.4250084 67.35371,11.4477539 67.5441406,11.4477539 L68.1598633,11.4477539 C68.5364928,11.4477539 68.8258372,11.5270988 69.0279053,11.685791 C69.2299733,11.8444832 69.3310059,12.0751124 69.3310059,12.3776855 C69.3310059,12.7627786 69.1765478,13.0563548 68.867627,13.2584229 C68.5587061,13.4604909 68.108027,13.5615234 67.5155762,13.5615234 C67.0606585,13.5615234 66.709954,13.4768889 66.4634521,13.3076172 C66.2169503,13.1383455 66.0937012,12.8992528 66.0937012,12.590332 C66.0937012,12.3787424 66.1614088,12.1957202 66.2968262,12.0412598 C66.4322435,11.8867994 66.6226713,11.7820641 66.8681152,11.7270508 C66.7792476,11.6868488 66.7046634,11.6244308 66.6443603,11.5397949 C66.5840573,11.4551591 66.5539062,11.3567714 66.5539062,11.2446289 C66.5539062,11.1176751 66.5877601,11.0065923 66.6554687,10.911377 C66.7231774,10.8161616 66.8300286,10.7241215 66.9760254,10.6352539 C66.7961742,10.5611975 66.6496506,10.4353036 66.5364502,10.2575684 C66.4232498,10.0798331 66.3666504,9.87671013 66.3666504,9.64819336 C66.3666504,9.26733208 66.4809071,8.97375591 66.7094238,8.76745605 C66.9379406,8.5611562 67.2616678,8.45800781 67.6806152,8.45800781 C67.8625823,8.45800781 68.0265618,8.47916646 68.1725586,8.52148438 L69.3754395,8.52148438 Z M66.6015137,12.5839844 C66.6015137,12.7722991 66.6808586,12.91512 66.8395508,13.0124512 C66.998243,13.1097824 67.2256984,13.1584473 67.5219238,13.1584473 C67.9641461,13.1584473 68.2915761,13.0923265 68.5042236,12.960083 C68.7168712,12.8278395 68.8231934,12.64852 68.8231934,12.4221191 C68.8231934,12.2338044 68.7650071,12.1031498 68.6486328,12.0301514 C68.5322585,11.957153 68.3132666,11.9206543 67.9916504,11.9206543 L67.3600586,11.9206543 C67.1209623,11.9206543 66.9347663,11.9777826 66.8014648,12.092041 C66.6681634,12.2062994 66.6015137,12.3702789 66.6015137,12.5839844 Z M66.8871582,9.63549805 C66.8871582,9.87882609 66.9559238,10.0629063 67.093457,10.1877441 C67.2309903,10.312582 67.422476,10.375 67.6679199,10.375 C68.1820826,10.375 68.4391602,10.125328 68.4391602,9.62597656 C68.4391602,9.10335025 68.1789088,8.84204102 67.6583984,8.84204102 C67.4108386,8.84204102 67.2204108,8.90869074 67.0871094,9.04199219 C66.9538079,9.17529364 66.8871582,9.37312694 66.8871582,9.63549805 Z M70.5164062,12 L69.9895508,12 L69.9895508,8.52148438 L70.5164062,8.52148438 L70.5164062,12 Z M69.9451172,7.57885742 C69.9451172,7.45825135 69.9747393,7.36991402 70.0339844,7.31384277 C70.0932295,7.25777153 70.1672847,7.22973633 70.2561523,7.22973633 C70.3407882,7.22973633 70.4137855,7.2583005 70.4751465,7.31542969 C70.5365075,7.37255888 70.5671875,7.46036725 70.5671875,7.57885742 C70.5671875,7.6973476 70.5365075,7.78568493 70.4751465,7.84387207 C70.4137855,7.90205921 70.3407882,7.93115234 70.2561523,7.93115234 C70.1672847,7.93115234 70.0932295,7.90205921 70.0339844,7.84387207 C69.9747393,7.78568493 69.9451172,7.6973476 69.9451172,7.57885742 Z M73.7774902,11.0510254 C73.7774902,11.3747575 73.656886,11.6244295 73.4156738,11.8000488 C73.1744617,11.9756682 72.8359234,12.0634766 72.4000488,12.0634766 C71.9387835,12.0634766 71.5790866,11.9904792 71.3209473,11.8444824 L71.3209473,11.3557129 C71.488103,11.4403487 71.6674225,11.5069985 71.8589111,11.5556641 C72.0503997,11.6043297 72.2350089,11.6286621 72.4127441,11.6286621 C72.6878106,11.6286621 72.899397,11.5847579 73.0475098,11.4969482 C73.1956225,11.4091386 73.2696777,11.2753101 73.2696777,11.095459 C73.2696777,10.9600416 73.2109625,10.8441981 73.0935303,10.7479248 C72.976098,10.6516515 72.7470557,10.5379238 72.4063965,10.4067383 C72.0826644,10.2861322 71.8525642,10.180868 71.7160889,10.0909424 C71.5796136,10.0010168 71.4780521,9.89892635 71.4114014,9.78466797 C71.3447506,9.67040958 71.3114258,9.53393634 71.3114258,9.37524414 C71.3114258,9.09171408 71.4267404,8.86796143 71.657373,8.70397949 C71.8880057,8.53999755 72.2043274,8.45800781 72.6063477,8.45800781 C72.9808612,8.45800781 73.3469058,8.53417893 73.7044922,8.68652344 L73.5172363,9.11499023 C73.1681135,8.97110931 72.8517918,8.89916992 72.5682617,8.89916992 C72.318586,8.89916992 72.1302741,8.93831341 72.0033203,9.01660156 C71.8763665,9.09488971 71.8128906,9.20279879 71.8128906,9.34033203 C71.8128906,9.43343146 71.8366941,9.51277636 71.8843018,9.57836914 C71.9319094,9.64396192 72.0086095,9.70637991 72.1144043,9.765625 C72.2201991,9.82487009 72.4233221,9.91056259 72.7237793,10.0227051 C73.136379,10.1729337 73.4151441,10.324218 73.560083,10.4765625 C73.7050219,10.628907 73.7774902,10.8203927 73.7774902,11.0510254 Z M75.657959,11.6286621 C75.7510584,11.6286621 75.8409826,11.6217856 75.9277344,11.6080322 C76.0144861,11.5942789 76.0832517,11.5799968 76.1340332,11.5651855 L76.1340332,11.9682617 C76.076904,11.9957684 75.9927984,12.0185139 75.8817139,12.036499 C75.7706293,12.0544841 75.6706547,12.0634766 75.5817871,12.0634766 C74.9089322,12.0634766 74.5725098,11.7090693 74.5725098,11.0002441 L74.5725098,8.9309082 L74.0742187,8.9309082 L74.0742187,8.67700195 L74.5725098,8.45800781 L74.7946777,7.71533203 L75.0993652,7.71533203 L75.0993652,8.52148438 L76.1086426,8.52148438 L76.1086426,8.9309082 L75.0993652,8.9309082 L75.0993652,10.9780273 C75.0993652,11.187501 75.149088,11.3483067 75.2485351,11.4604492 C75.3479823,11.5725917 75.4844555,11.6286621 75.657959,11.6286621 Z M78.198584,12.0634766 C77.6844212,12.0634766 77.2787043,11.9069026 76.9814209,11.59375 C76.6841375,11.2805974 76.535498,10.8457873 76.535498,10.2893066 C76.535498,9.7285942 76.6735582,9.28320478 76.9496826,8.953125 C77.225807,8.62304522 77.5966122,8.45800781 78.0621094,8.45800781 C78.4979839,8.45800781 78.8428698,8.60135762 79.0967773,8.88806152 C79.3506849,9.17476543 79.4776367,9.55297617 79.4776367,10.0227051 L79.4776367,10.355957 L77.0813965,10.355957 C77.091976,10.764325 77.1951243,11.0742991 77.3908447,11.2858887 C77.5865651,11.4974783 77.8621564,11.6032715 78.2176269,11.6032715 C78.5921405,11.6032715 78.9624168,11.5249845 79.3284668,11.3684082 L79.3284668,11.8381348 C79.1422679,11.9185388 78.9661222,11.9761961 78.8000244,12.0111084 C78.6339266,12.0460207 78.4334484,12.0634766 78.198584,12.0634766 Z M78.0557617,8.89916992 C77.7764634,8.89916992 77.5537687,8.99015208 77.3876709,9.17211914 C77.2215731,9.3540862 77.1237143,9.60587404 77.0940918,9.92749023 L78.9126953,9.92749023 C78.9126953,9.59529456 78.8386401,9.34086189 78.6905273,9.16418457 C78.5424146,8.98750725 78.3308282,8.89916992 78.0557617,8.89916992 Z M81.8627441,8.45800781 C82.0172045,8.45800781 82.1557936,8.470703 82.2785156,8.49609375 L82.2055176,8.98486328 C82.0616366,8.95312484 81.9346848,8.93725586 81.8246582,8.93725586 C81.543244,8.93725586 81.3025645,9.05151253 81.1026123,9.2800293 C80.9026601,9.50854606 80.8026855,9.79312981 80.8026855,10.1337891 L80.8026855,12 L80.2758301,12 L80.2758301,8.52148438 L80.7106445,8.52148438 L80.7709473,9.16577148 L80.7963379,9.16577148 C80.9254075,8.93937061 81.0809236,8.76481181 81.2628906,8.64208984 C81.4448577,8.51936788 81.6448068,8.45800781 81.8627441,8.45800781 Z M84.1685058,12.0634766 C83.6543431,12.0634766 83.2486261,11.9069026 82.9513428,11.59375 C82.6540594,11.2805974 82.5054199,10.8457873 82.5054199,10.2893066 C82.5054199,9.7285942 82.6434801,9.28320478 82.9196045,8.953125 C83.1957289,8.62304522 83.5665341,8.45800781 84.0320312,8.45800781 C84.4679058,8.45800781 84.8127917,8.60135762 85.0666992,8.88806152 C85.3206067,9.17476543 85.4475586,9.55297617 85.4475586,10.0227051 L85.4475586,10.355957 L83.0513183,10.355957 C83.0618978,10.764325 83.1650462,11.0742991 83.3607666,11.2858887 C83.556487,11.4974783 83.8320783,11.6032715 84.1875488,11.6032715 C84.5620624,11.6032715 84.9323387,11.5249845 85.2983887,11.3684082 L85.2983887,11.8381348 C85.1121898,11.9185388 84.9360441,11.9761961 84.7699463,12.0111084 C84.6038484,12.0460207 84.4033703,12.0634766 84.1685058,12.0634766 Z M84.0256836,8.89916992 C83.7463853,8.89916992 83.5236906,8.99015208 83.3575928,9.17211914 C83.1914949,9.3540862 83.0936362,9.60587404 83.0640137,9.92749023 L84.8826172,9.92749023 C84.8826172,9.59529456 84.8085619,9.34086189 84.6604492,9.16418457 C84.5123365,8.98750725 84.3007501,8.89916992 84.0256836,8.89916992 Z M88.6134277,11.5334473 L88.5848633,11.5334473 C88.3415352,11.8868019 87.9776066,12.0634766 87.4930664,12.0634766 C87.0381488,12.0634766 86.6842705,11.9079605 86.4314209,11.5969238 C86.1785713,11.2858871 86.0521484,10.8436715 86.0521484,10.2702637 C86.0521484,9.69685586 86.1791003,9.25146643 86.4330078,8.93408203 C86.6869153,8.61669763 87.0402646,8.45800781 87.4930664,8.45800781 C87.9649112,8.45800781 88.326724,8.62939282 88.5785156,8.97216797 L88.6197754,8.97216797 L88.5975586,8.72143555 L88.5848633,8.47705078 L88.5848633,7.06152344 L89.1117187,7.06152344 L89.1117187,12 L88.6832519,12 L88.6134277,11.5334473 Z M87.5597168,11.6223145 C87.9194191,11.6223145 88.1801994,11.5244557 88.3420654,11.3287354 C88.5039315,11.133015 88.5848633,10.8172222 88.5848633,10.3813477 L88.5848633,10.2702637 C88.5848633,9.7772599 88.5028735,9.42549747 88.3388916,9.21496582 C88.1749096,9.00443417 87.9130714,8.89916992 87.5533691,8.89916992 C87.2444483,8.89916992 87.0080005,9.01924522 86.8440185,9.25939941 C86.6800366,9.49955361 86.5980469,9.83862086 86.5980469,10.2766113 C86.5980469,10.7209495 86.6795076,11.056314 86.8424316,11.2827148 C87.0053556,11.5091157 87.2444483,11.6223145 87.5597168,11.6223145 Z M93.1075195,12.0634766 C92.6039363,12.0634766 92.2140883,11.9084895 91.9379639,11.5985107 C91.6618394,11.288532 91.5237793,10.8500191 91.5237793,10.282959 C91.5237793,9.70108759 91.6639553,9.25146643 91.9443115,8.93408203 C92.2246677,8.61669763 92.6240371,8.45800781 93.1424316,8.45800781 C93.3095874,8.45800781 93.4767407,8.47599266 93.6438965,8.51196289 C93.8110523,8.54793312 93.9422358,8.59025041 94.0374512,8.63891602 L93.8755859,9.08642578 C93.7592116,9.03987607 93.6322598,9.00126155 93.4947265,8.97058105 C93.3571933,8.93990056 93.2355311,8.92456055 93.1297363,8.92456055 C92.423027,8.92456055 92.0696777,9.37523963 92.0696777,10.2766113 C92.0696777,10.7040223 92.1558992,11.0319813 92.3283447,11.260498 C92.5007902,11.4890148 92.7562808,11.6032715 93.0948242,11.6032715 C93.384702,11.6032715 93.6819809,11.5408535 93.9866699,11.4160156 L93.9866699,11.8825684 C93.7539213,12.0031744 93.4608741,12.0634766 93.1075195,12.0634766 Z M97.7143066,10.2575684 C97.7143066,10.8246285 97.5714858,11.2673731 97.2858398,11.5858154 C97.0001939,11.9042578 96.6055852,12.0634766 96.1020019,12.0634766 C95.7909652,12.0634766 95.5148449,11.9904792 95.2736328,11.8444824 C95.0324207,11.6984856 94.8462246,11.489015 94.715039,11.2160645 C94.5838535,10.9431139 94.5182617,10.6236184 94.5182617,10.2575684 C94.5182617,9.69050823 94.6600246,9.24882157 94.9435547,8.93249512 C95.2270847,8.61616867 95.6206355,8.45800781 96.1242187,8.45800781 C96.6108748,8.45800781 96.997549,8.61987143 97.2842529,8.94360352 C97.5709568,9.2673356 97.7143066,9.7053195 97.7143066,10.2575684 Z M95.0641601,10.2575684 C95.0641601,10.7019065 95.1530264,11.0404448 95.3307617,11.2731934 C95.508497,11.5059419 95.7698062,11.6223145 96.1146972,11.6223145 C96.4595883,11.6223145 96.7214265,11.5064709 96.9002197,11.2747803 C97.0790129,11.0430897 97.1684082,10.7040224 97.1684082,10.2575684 C97.1684082,9.8153461 97.0790129,9.47945265 96.9002197,9.24987793 C96.7214265,9.02030321 96.4574724,8.90551758 96.1083496,8.90551758 C95.7634585,8.90551758 95.5032072,9.01871632 95.3275879,9.24511719 C95.1519685,9.47151806 95.0641601,9.80899841 95.0641601,10.2575684 Z M100.918262,12 L100.918262,9.74975586 C100.918262,9.4662258 100.853728,9.25463937 100.724658,9.11499023 C100.595589,8.9753411 100.393523,8.90551758 100.118457,8.90551758 C99.7545229,8.90551758 99.487924,9.00390527 99.3186523,9.20068359 C99.1493806,9.39746192 99.0647461,9.72224708 99.0647461,10.1750488 L99.0647461,12 L98.5378906,12 L98.5378906,8.52148438 L98.9663574,8.52148438 L99.0520508,8.99755859 L99.0774414,8.99755859 C99.1853521,8.82617102 99.3366364,8.69340054 99.5312988,8.59924316 C99.7259612,8.50508579 99.9428373,8.45800781 100.181934,8.45800781 C100.600881,8.45800781 100.916145,8.55904033 101.127734,8.7611084 C101.339324,8.96317647 101.445117,9.28637473 101.445117,9.73071289 L101.445117,12 L100.918262,12 Z M104.671289,11.0510254 C104.671289,11.3747575 104.550685,11.6244295 104.309473,11.8000488 C104.06826,11.9756682 103.729722,12.0634766 103.293848,12.0634766 C102.832582,12.0634766 102.472885,11.9904792 102.214746,11.8444824 L102.214746,11.3557129 C102.381902,11.4403487 102.561221,11.5069985 102.75271,11.5556641 C102.944199,11.6043297 103.128808,11.6286621 103.306543,11.6286621 C103.581609,11.6286621 103.793196,11.5847579 103.941309,11.4969482 C104.089421,11.4091386 104.163477,11.2753101 104.163477,11.095459 C104.163477,10.9600416 104.104761,10.8441981 103.987329,10.7479248 C103.869897,10.6516515 103.640855,10.5379238 103.300195,10.4067383 C102.976463,10.2861322 102.746363,10.180868 102.609888,10.0909424 C102.473412,10.0010168 102.371851,9.89892635 102.3052,9.78466797 C102.238549,9.67040958 102.205225,9.53393634 102.205225,9.37524414 C102.205225,9.09171408 102.320539,8.86796143 102.551172,8.70397949 C102.781805,8.53999755 103.098126,8.45800781 103.500146,8.45800781 C103.87466,8.45800781 104.240705,8.53417893 104.598291,8.68652344 L104.411035,9.11499023 C104.061912,8.97110931 103.745591,8.89916992 103.462061,8.89916992 C103.212385,8.89916992 103.024073,8.93831341 102.897119,9.01660156 C102.770165,9.09488971 102.706689,9.20279879 102.706689,9.34033203 C102.706689,9.43343146 102.730493,9.51277636 102.778101,9.57836914 C102.825708,9.64396192 102.902408,9.70637991 103.008203,9.765625 C103.113998,9.82487009 103.317121,9.91056259 103.617578,10.0227051 C104.030178,10.1729337 104.308943,10.324218 104.453882,10.4765625 C104.598821,10.628907 104.671289,10.8203927 104.671289,11.0510254 Z M105.92334,8.52148438 L105.92334,10.7780762 C105.92334,11.0616062 105.987874,11.2731927 106.116943,11.4128418 C106.246013,11.5524909 106.448078,11.6223145 106.723145,11.6223145 C107.087079,11.6223145 107.353149,11.5228688 107.521362,11.3239746 C107.689576,11.1250804 107.773682,10.8002952 107.773682,10.3496094 L107.773682,8.52148438 L108.300537,8.52148438 L108.300537,12 L107.865723,12 L107.789551,11.5334473 L107.760986,11.5334473 C107.653076,11.7048348 107.503378,11.8360184 107.31189,11.927002 C107.120401,12.0179855 106.901938,12.0634766 106.656494,12.0634766 C106.233315,12.0634766 105.916464,11.962973 105.705933,11.7619629 C105.495401,11.5609528 105.390137,11.2393414 105.390137,10.7971191 L105.390137,8.52148438 L105.92334,8.52148438 Z M109.84458,12 L109.317725,12 L109.317725,7.06152344 L109.84458,7.06152344 L109.84458,12 Z M111.985303,11.6286621 C112.078402,11.6286621 112.168326,11.6217856 112.255078,11.6080322 C112.34183,11.5942789 112.410595,11.5799968 112.461377,11.5651855 L112.461377,11.9682617 C112.404248,11.9957684 112.320142,12.0185139 112.209058,12.036499 C112.097973,12.0544841 111.997998,12.0634766 111.909131,12.0634766 C111.236276,12.0634766 110.899853,11.7090693 110.899853,11.0002441 L110.899853,8.9309082 L110.401562,8.9309082 L110.401562,8.67700195 L110.899853,8.45800781 L111.122021,7.71533203 L111.426709,7.71533203 L111.426709,8.52148438 L112.435986,8.52148438 L112.435986,8.9309082 L111.426709,8.9309082 L111.426709,10.9780273 C111.426709,11.187501 111.476432,11.3483067 111.575879,11.4604492 C111.675326,11.5725917 111.811799,11.6286621 111.985303,11.6286621 Z M113.583301,12 L113.056445,12 L113.056445,8.52148438 L113.583301,8.52148438 L113.583301,12 Z M113.012012,7.57885742 C113.012012,7.45825135 113.041634,7.36991402 113.100879,7.31384277 C113.160124,7.25777153 113.234179,7.22973633 113.323047,7.22973633 C113.407683,7.22973633 113.48068,7.2583005 113.542041,7.31542969 C113.603402,7.37255888 113.634082,7.46036725 113.634082,7.57885742 C113.634082,7.6973476 113.603402,7.78568493 113.542041,7.84387207 C113.48068,7.90205921 113.407683,7.93115234 113.323047,7.93115234 C113.234179,7.93115234 113.160124,7.90205921 113.100879,7.84387207 C113.041634,7.78568493 113.012012,7.6973476 113.012012,7.57885742 Z M116.980859,12 L116.980859,9.74975586 C116.980859,9.4662258 116.916325,9.25463937 116.787256,9.11499023 C116.658186,8.9753411 116.456121,8.90551758 116.181055,8.90551758 C115.817121,8.90551758 115.550522,9.00390527 115.38125,9.20068359 C115.211978,9.39746192 115.127344,9.72224708 115.127344,10.1750488 L115.127344,12 L114.600488,12 L114.600488,8.52148438 L115.028955,8.52148438 L115.114648,8.99755859 L115.140039,8.99755859 C115.24795,8.82617102 115.399234,8.69340054 115.593896,8.59924316 C115.788559,8.50508579 116.005435,8.45800781 116.244531,8.45800781 C116.663479,8.45800781 116.978742,8.55904033 117.190332,8.7611084 C117.401922,8.96317647 117.507715,9.28637473 117.507715,9.73071289 L117.507715,12 L116.980859,12 Z M121.336914,8.52148438 L121.336914,8.85473633 L120.692627,8.9309082 C120.751872,9.00496456 120.804769,9.10176535 120.851318,9.22131348 C120.897868,9.3408616 120.921143,9.47574795 120.921143,9.62597656 C120.921143,9.96663582 120.80477,10.2385244 120.572021,10.4416504 C120.339273,10.6447764 120.019777,10.7463379 119.613525,10.7463379 C119.509846,10.7463379 119.412517,10.7378744 119.321533,10.7209473 C119.097248,10.8394374 118.985107,10.9886059 118.985107,11.168457 C118.985107,11.2636724 119.024251,11.3340248 119.102539,11.3795166 C119.180827,11.4250084 119.315185,11.4477539 119.505615,11.4477539 L120.121338,11.4477539 C120.497967,11.4477539 120.787312,11.5270988 120.98938,11.685791 C121.191448,11.8444832 121.29248,12.0751124 121.29248,12.3776855 C121.29248,12.7627786 121.138022,13.0563548 120.829102,13.2584229 C120.520181,13.4604909 120.069502,13.5615234 119.477051,13.5615234 C119.022133,13.5615234 118.671429,13.4768889 118.424927,13.3076172 C118.178425,13.1383455 118.055176,12.8992528 118.055176,12.590332 C118.055176,12.3787424 118.122883,12.1957202 118.258301,12.0412598 C118.393718,11.8867994 118.584146,11.7820641 118.82959,11.7270508 C118.740722,11.6868488 118.666138,11.6244308 118.605835,11.5397949 C118.545532,11.4551591 118.515381,11.3567714 118.515381,11.2446289 C118.515381,11.1176751 118.549235,11.0065923 118.616943,10.911377 C118.684652,10.8161616 118.791503,10.7241215 118.9375,10.6352539 C118.757649,10.5611975 118.611125,10.4353036 118.497925,10.2575684 C118.384724,10.0798331 118.328125,9.87671013 118.328125,9.64819336 C118.328125,9.26733208 118.442382,8.97375591 118.670898,8.76745605 C118.899415,8.5611562 119.223142,8.45800781 119.64209,8.45800781 C119.824057,8.45800781 119.988036,8.47916646 120.134033,8.52148438 L121.336914,8.52148438 Z M118.562988,12.5839844 C118.562988,12.7722991 118.642333,12.91512 118.801025,13.0124512 C118.959718,13.1097824 119.187173,13.1584473 119.483398,13.1584473 C119.925621,13.1584473 120.253051,13.0923265 120.465698,12.960083 C120.678346,12.8278395 120.784668,12.64852 120.784668,12.4221191 C120.784668,12.2338044 120.726482,12.1031498 120.610107,12.0301514 C120.493733,11.957153 120.274741,11.9206543 119.953125,11.9206543 L119.321533,11.9206543 C119.082437,11.9206543 118.896241,11.9777826 118.762939,12.092041 C118.629638,12.2062994 118.562988,12.3702789 118.562988,12.5839844 Z M118.848633,9.63549805 C118.848633,9.87882609 118.917398,10.0629063 119.054932,10.1877441 C119.192465,10.312582 119.383951,10.375 119.629395,10.375 C120.143557,10.375 120.400635,10.125328 120.400635,9.62597656 C120.400635,9.10335025 120.140383,8.84204102 119.619873,8.84204102 C119.372313,8.84204102 119.181885,8.90869074 119.048584,9.04199219 C118.915283,9.17529364 118.848633,9.37312694 118.848633,9.63549805 Z" id="registered-consultin" fill="#FFFFFF"></path>
                <path d="M64.3544922,23.1269531 C63.9016904,23.1269531 63.488039,23.0433765 63.1135254,22.8762207 C62.7390118,22.7090649 62.424806,22.4519874 62.1708984,22.1049805 L62.0947266,22.1049805 C62.1455081,22.5112325 62.1708984,22.8963198 62.1708984,23.2602539 L62.1708984,26.1230469 L61.1171875,26.1230469 L61.1171875,16.0429688 L61.9741211,16.0429688 L62.1201172,16.9951172 L62.1708984,16.9951172 C62.4417331,16.6142559 62.7569969,16.3391936 63.1166992,16.1699219 C63.4764015,16.0006502 63.8889951,15.9160156 64.3544922,15.9160156 C65.2770228,15.9160156 65.9890112,16.2312794 66.4904785,16.8618164 C66.9919459,17.4923534 67.2426758,18.3767847 67.2426758,19.5151367 C67.2426758,20.6577206 66.9877141,21.5453256 66.4777832,22.1779785 C65.9678523,22.8106314 65.2600957,23.1269531 64.3544922,23.1269531 Z M64.2021484,16.8110352 C63.4912074,16.8110352 62.9770524,17.0078105 62.659668,17.4013672 C62.3422836,17.7949238 62.179362,18.4212197 62.1708984,19.2802734 L62.1708984,19.5151367 C62.1708984,20.4926807 62.33382,21.1919738 62.659668,21.6130371 C62.985516,22.0341004 63.5081344,22.2446289 64.2275391,22.2446289 C64.8284535,22.2446289 65.2992333,22.0013045 65.6398926,21.5146484 C65.9805518,21.0279924 66.1508789,20.3572634 66.1508789,19.5024414 C66.1508789,18.634924 65.9805518,17.9694847 65.6398926,17.5061035 C65.2992333,17.0427223 64.8199901,16.8110352 64.2021484,16.8110352 Z M73.0618164,23 L72.8523437,22.0097656 L72.8015625,22.0097656 C72.4545555,22.4456402 72.1086117,22.7408033 71.7637207,22.8952637 C71.4188296,23.0497241 70.9882513,23.1269531 70.4719726,23.1269531 C69.7821905,23.1269531 69.2415872,22.9492205 68.8501465,22.59375 C68.4587057,22.2382795 68.2629883,21.7325879 68.2629883,21.0766602 C68.2629883,19.6717052 69.3865122,18.9353845 71.6335937,18.8676758 L72.8142578,18.8295898 L72.8142578,18.3979492 C72.8142578,17.8520481 72.6968273,17.4489759 72.4619629,17.1887207 C72.2270984,16.9284655 71.8515325,16.7983398 71.3352539,16.7983398 C70.7554984,16.7983398 70.0995805,16.9760724 69.3674805,17.331543 L69.04375,16.5253906 C69.3865251,16.3391918 69.762091,16.1931971 70.170459,16.0874023 C70.5788269,15.9816075 70.9882466,15.9287109 71.3987305,15.9287109 C72.2281617,15.9287109 72.8428203,16.1127911 73.2427246,16.480957 C73.6426289,16.8491229 73.8425781,17.4394491 73.8425781,18.2519531 L73.8425781,23 L73.0618164,23 Z M70.6814453,22.2573242 C71.3373731,22.2573242 71.852586,22.0774758 72.2270996,21.7177734 C72.6016132,21.3580711 72.7888672,20.8544954 72.7888672,20.2070312 L72.7888672,19.5786133 L71.7351562,19.6230469 C70.8972614,19.6526694 70.2931822,19.7827951 69.9229004,20.0134277 C69.5526186,20.2440604 69.3674805,20.6026994 69.3674805,21.0893555 C69.3674805,21.4702167 69.4827951,21.7600902 69.7134277,21.9589844 C69.9440604,22.1578786 70.2667297,22.2573242 70.6814453,22.2573242 Z M78.8873047,15.9160156 C79.1962255,15.9160156 79.4734037,15.941406 79.7188476,15.9921875 L79.5728515,16.9697266 C79.2850897,16.9062497 79.031186,16.8745117 78.8111328,16.8745117 C78.2483045,16.8745117 77.7669453,17.1030251 77.367041,17.5600586 C76.9671366,18.0170921 76.7671875,18.5862596 76.7671875,19.2675781 L76.7671875,23 L75.7134765,23 L75.7134765,16.0429688 L76.5831054,16.0429688 L76.7037109,17.331543 L76.7544922,17.331543 C77.0126315,16.8787412 77.3236635,16.5296236 77.6875976,16.2841797 C78.0515317,16.0387358 78.4514301,15.9160156 78.8873047,15.9160156 Z M82.9671875,22.2573242 C83.1533863,22.2573242 83.3332348,22.2435711 83.5067382,22.2160645 C83.6802417,22.1885578 83.8177729,22.1599936 83.9193359,22.1303711 L83.9193359,22.9365234 C83.8050775,22.9915367 83.6368663,23.0370278 83.4146972,23.072998 C83.1925282,23.1089683 82.992579,23.1269531 82.8148437,23.1269531 C81.4691339,23.1269531 80.796289,22.4181386 80.796289,21.0004883 L80.796289,16.8618164 L79.799707,16.8618164 L79.799707,16.3540039 L80.796289,15.9160156 L81.240625,14.4306641 L81.85,14.4306641 L81.85,16.0429688 L83.8685547,16.0429688 L83.8685547,16.8618164 L81.85,16.8618164 L81.85,20.9560547 C81.85,21.3750021 81.9494456,21.6966135 82.1483398,21.9208984 C82.347234,22.1451834 82.6201805,22.2573242 82.9671875,22.2573242 Z M89.7702148,23 L89.7702148,18.4995117 C89.7702148,17.9324516 89.6411471,17.5092787 89.3830078,17.2299805 C89.1248685,16.9506822 88.7207384,16.8110352 88.1706054,16.8110352 C87.4427372,16.8110352 86.9095394,17.0078105 86.570996,17.4013672 C86.2324527,17.7949238 86.0631835,18.4444942 86.0631835,19.3500977 L86.0631835,23 L85.0094726,23 L85.0094726,16.0429688 L85.8664062,16.0429688 L86.0377929,16.9951172 L86.0885742,16.9951172 C86.3043956,16.652342 86.6069642,16.3868011 86.996289,16.1984863 C87.3856139,16.0101716 87.8193661,15.9160156 88.2975585,15.9160156 C89.1354534,15.9160156 89.7659809,16.1180807 90.1891601,16.5222168 C90.6123393,16.9263529 90.8239257,17.5727495 90.8239257,18.4614258 L90.8239257,23 L89.7702148,23 Z M95.6274413,23.1269531 C94.5991159,23.1269531 93.7876819,22.8138052 93.1931152,22.1875 C92.5985484,21.5611948 92.3012695,20.6915746 92.3012695,19.5786133 C92.3012695,18.4571884 92.5773898,17.5664096 93.1296386,16.90625 C93.6818875,16.2460904 94.4234979,15.9160156 95.3544921,15.9160156 C96.2262413,15.9160156 96.916013,16.2027152 97.4238281,16.776123 C97.9316431,17.3495309 98.1855468,18.1059523 98.1855468,19.0454102 L98.1855468,19.7119141 L93.3930663,19.7119141 C93.4142253,20.5286499 93.6205221,21.1485981 94.0119628,21.5717773 C94.4034036,21.9949565 94.9545862,22.206543 95.6655273,22.206543 C96.4145545,22.206543 97.155107,22.049969 97.887207,21.7368164 L97.887207,22.6762695 C97.5148093,22.8370776 97.1625179,22.9523922 96.8303222,23.0222168 C96.4981265,23.0920414 96.0971703,23.1269531 95.6274413,23.1269531 Z M95.3417968,16.7983398 C94.7832003,16.7983398 94.3378108,16.9803042 94.0056152,17.3442383 C93.6734195,17.7081724 93.4777021,18.2117481 93.418457,18.8549805 L97.055664,18.8549805 C97.055664,18.1905891 96.9075535,17.6817238 96.6113281,17.3283691 C96.3151026,16.9750145 95.8919298,16.7983398 95.3417968,16.7983398 Z M102.855762,15.9160156 C103.164682,15.9160156 103.441861,15.941406 103.687305,15.9921875 L103.541309,16.9697266 C103.253547,16.9062497 102.999643,16.8745117 102.77959,16.8745117 C102.216761,16.8745117 101.735402,17.1030251 101.335498,17.5600586 C100.935594,18.0170921 100.735644,18.5862596 100.735644,19.2675781 L100.735644,23 L99.6819335,23 L99.6819335,16.0429688 L100.551562,16.0429688 L100.672168,17.331543 L100.722949,17.331543 C100.981088,16.8787412 101.292121,16.5296236 101.656055,16.2841797 C102.019989,16.0387358 102.419887,15.9160156 102.855762,15.9160156 Z" id="partner" fill="#FFFFFF"></path>
            </g>
        </g>
    </g>
</svg>