<?xml version="1.0" encoding="UTF-8" standalone="no"?>
<svg width="640px" height="115px" viewBox="0 0 640 115" version="1.1" xmlns="http://www.w3.org/2000/svg" xmlns:xlink="http://www.w3.org/1999/xlink">
    <!-- Generator: Sketch 41.2 (35397) - http://www.bohemiancoding.com/sketch -->
    <title>Artboard</title>
    <desc>Created with Sketch.</desc>
    <defs></defs>
    <g id="Page-1" stroke="none" stroke-width="1" fill="none" fill-rule="evenodd">
        <g id="Artboard">
            <g id="male-silhouette-talking" transform="translate(45.000000, 28.000000)">
                <g id="Capa_1">
                    <g id="Group">
                        <path d="M44.1901324,0.0402253521 C36.5418529,0.0402253521 29.9484265,4.04948357 27.0252794,9.78422535 C26.4555,9.702723 25.8967059,9.68668545 25.5490147,9.68668545 C24.2862353,9.68668545 20.9944853,9.90647887 17.70525,11.9416714 C15.8992941,13.0590423 15.0554118,14.6472864 14.9684559,17.0913052 C14.9681912,17.0986667 14.9705735,21.2140094 14.9705735,21.2140094 C14.4557206,21.4369577 14.2315147,21.350723 14.1783088,22.2440939 C14.1175588,23.2616901 14.2957059,25.9498216 15.4009853,26.620507 C15.5664265,26.7891643 15.6754853,27.2499155 15.7408676,27.7624601 C15.8634265,28.7215587 16.002,29.8089577 16.5468971,30.5206573 C17.7871765,32.141108 17.4614559,34.6488826 17.4337941,34.8436995 C16.6510588,35.1948169 16.4504118,35.8587981 16.3036324,36.344 L16.2284559,36.5849577 C16.0307206,37.2181784 15.8435735,37.8168263 15.5858824,38.385108 C15.5512059,38.4345352 15.4017794,38.5520563 15.2081471,38.6246197 L14.6432647,38.8395493 C11.0730441,40.1991925 7.38119118,41.6047136 3.95272059,43.4870235 C0.711529412,45.2664038 0.0300441176,54.9030047 0.00264705882,55.20877 C-0.0138970588,55.3922817 0.0481764706,55.5746103 0.173514706,55.7106667 C0.298852941,55.846723 0.475941176,55.9242817 0.661764706,55.9242817 L24.3095294,55.9242817 L47.9571618,55.9242817 C48.1429853,55.9242817 48.3200735,55.846723 48.4454118,55.7106667 C48.57075,55.5746103 48.6328235,55.3922817 48.6162794,55.20877 C48.5888824,54.9030047 47.9075294,45.2662723 44.6666029,43.4870235 C41.2378676,41.6047136 37.54575,40.1989296 33.9757941,38.8395493 L33.4107794,38.6246197 C33.2171471,38.5517934 33.0677206,38.4344038 33.0330441,38.385108 C32.7753529,37.8168263 32.5884706,37.2181784 32.3904706,36.5849577 L32.3154265,36.344 C32.1689118,35.8587981 31.968,35.1948169 31.2036618,34.8538216 C31.1578676,34.6490141 30.2413986,32.141108 31.4819427,30.5206573 C31.7414868,30.1816338 31.5325259,28.4370892 31.6496582,27.9822535 C33.4107794,30.2960205 38.2363676,32.2268169 41.6076618,32.6306479 L41.6076618,38.385108 C41.6076618,39.0203005 42.0154662,39.4701486 42.6098633,39.7053223 C42.7975398,39.7793317 42.989432,39.7053223 43.1835938,39.7053223 C43.6048732,39.7053223 44.3656324,39.4082852 44.6666029,39.0925293 L52.5228088,31.0895962 C55.5360882,29.7879249 58.0930147,27.8055775 59.9329853,25.3410516 C61.9158971,22.6855211 62.9638676,19.5981596 62.9638676,16.4128638 C62.9642647,7.38490141 54.5423824,0.0402253521 44.1901324,0.0402253521 Z M31.9290771,27.362793 C32.0728197,27.1608695 32.5220702,26.9947684 32.6496582,26.727417 C32.7772462,26.4600656 33.3322789,23.5821342 33.2838018,22.7635952 C33.2239623,21.7436751 32.8747741,21.4214863 32.3921782,21.203125 C32.36099,21.1890178 32.3921782,21.0716553 32.3921782,21.0716553 L32.3921782,16.9070087 C32.3890444,14.5251441 31.8145254,12.9229271 30.6341501,12.0091111 C30.1118601,11.6046549 26.9881592,9.83422852 26.9881592,9.83422852 C27.3110187,9.64622323 31.3385361,11.7783779 32.1936035,14.5707397 C32.7216581,16.295188 32.1493593,19.219469 32.3921782,21.203125 C32.4976887,22.0650704 33.1324351,21.5605322 33.2838018,22.7635952 C33.4351686,23.9666582 32.6579075,27.9347205 31.9290771,27.362793 Z M17.4326782,34.8441772 L24.9713135,40.02948 L31.09021,34.5214844 L32.3223877,36.3532715 L32.8894653,38.0562134 L24.9713135,40.5978394 L15.5765991,38.4494629 L16.1352539,36.921875 L17.4326782,34.8441772 Z M27.9855957,39.6414795 L24.9908447,43.0481567 L27.9855957,55.0360107 L19.9812012,55.0360107 L24.0528564,43.0481567 L21.0377197,39.7046509 L24.9908447,40.6052246 L27.9855957,39.6414795 Z" id="Shape" stroke="#434343" stroke-width="1.5"></path>
                        <ellipse id="Oval" fill="#434343" cx="37.8573088" cy="16.2052958" rx="1.97020588" ry="1.95684507"></ellipse>
                        <ellipse id="Oval" fill="#434343" cx="44.1898676" cy="16.2052958" rx="1.97020588" ry="1.95684507"></ellipse>
                        <ellipse id="Oval" fill="#434343" cx="50.5226912" cy="16.2052958" rx="1.97020588" ry="1.95684507"></ellipse>
                    </g>
                </g>
            </g>
            <g id="cogwheels" transform="translate(158.000000, 28.000000)" fill="#434343">
                <g id="Layer_1">
                    <g id="Group">
                        <g id="Shape">
                            <g>
                                <path d="M18.9999609,9 C13.5,9 9,13.5 9,18.9999609 C9,24.4999219 13.5,28.9999219 18.9999609,28.9999219 C24.4999219,28.9999219 28.9999219,24.4999219 28.9999219,18.9999609 C29.0000391,13.5 24.5000391,9 18.9999609,9 Z M18.9999609,27 C14.5999219,27 10.9999219,23.4 10.9999219,18.9999609 C10.9999219,14.5999219 14.5999219,10.9999219 18.9999609,10.9999219 C23.4,10.9999219 27,14.5999219 27,18.9999609 C27,23.4 23.4,27 18.9999609,27 Z"></path>
                                <path d="M59.0000391,41.0000391 L56.9000391,41.0000391 C56.5000781,41.0000391 56.2000781,40.8 56.0000391,40.4000391 C55.9000781,40.1000391 55.9000781,39.7000781 56.2000781,39.4000781 L57.7000781,37.9000781 C58.1000391,37.5001172 58.1000391,36.9001172 57.7000781,36.5000391 L53.5000781,32.3000391 C53.1001172,31.9000781 52.5001172,31.9000781 52.1000391,32.3000391 L50.6000391,33.8000391 C50.4,34.0000781 50.0000391,34.1000391 49.7000391,34.0000781 L49.6000781,34.0000781 C49.2001172,33.8000391 49.0000781,33.5000391 49.0000781,33.1000781 L49.0000781,31.0000781 C49.0000781,30.4000781 48.6001172,30.0001172 48.0001172,30.0001172 L42.0001172,30.0001172 C41.4001172,30.0001172 41.0001563,30.4000781 41.0001563,31.0000781 L41.0001563,33.1000781 C41.0001563,33.5000391 40.8001172,33.8000391 40.4001563,34.0000781 C40.1001563,34.1000391 39.7001953,34.1000391 39.4001953,33.8000391 L37.9001953,32.3000391 C37.5002344,31.9000781 36.9002344,31.9000781 36.5001563,32.3000391 L32.3001563,36.5000391 C31.9001953,36.9 31.9001953,37.5 32.3001563,37.9000781 L33.8001563,39.4000781 C34.0001953,39.6001172 34.1001563,40.0000781 34.0001953,40.3000781 L34.0001953,40.4000391 C33.8001563,40.8 33.5001563,41.0000391 33.1001953,41.0000391 L31.0001953,41.0000391 C30.4001953,41.0000391 30.0002344,41.4 30.0002344,42 L30.0002344,48 C30.0002344,48.6 30.4001953,48.9999609 31.0001953,48.9999609 L33.1001953,48.9999609 C33.5001563,48.9999609 33.8001563,49.2 34.0001953,49.5999609 C34.1001563,49.8999609 34.1001563,50.2999219 33.8001563,50.5999219 L32.3001563,52.0999219 C31.9001953,52.4998828 31.9001953,53.0998828 32.3001563,53.4999609 L36.5001563,57.6999609 C36.9001172,58.0999219 37.5001172,58.0999219 37.9001953,57.6999609 L39.4001953,56.1999609 C39.6002344,55.9999219 40.0001953,55.8999609 40.3001953,55.9999219 L40.4001563,55.9999219 C40.8001172,56.1999609 41.0001563,56.4999609 41.0001563,56.8999219 L41.0001563,58.9999219 C41.0001563,59.5999219 41.4001172,59.9998828 42.0001172,59.9998828 L48.0001172,59.9998828 C48.6001172,59.9998828 49.0000781,59.5999219 49.0000781,58.9999219 L49.0000781,56.8999219 C49.0000781,56.4999609 49.2001172,56.1999609 49.6000781,55.9999219 C49.9000781,55.8999609 50.3000391,55.8999609 50.6000391,56.1999609 L52.1000391,57.6999609 C52.5,58.0999219 53.1,58.0999219 53.5000781,57.6999609 L57.7000781,53.4999609 C58.1000391,53.1 58.1000391,52.5 57.7000781,52.0999219 L56.2000781,50.5999219 C56.0000391,50.3998828 55.9000781,49.9999219 56.0000391,49.6999219 L56.0000391,49.5999609 C56.2000781,49.2 56.5000781,48.9999609 56.9000391,48.9999609 L59.0000391,48.9999609 C59.6000391,48.9999609 60,48.6 60,48 L60,42 C60,41.4 59.6000391,41.0000391 59.0000391,41.0000391 Z M57.9999609,47.0000391 L57,47.0000391 C55.8,47.0000391 54.8000391,47.7 54.3,48.8000391 C53.7999609,49.9000781 54.0999609,51.2000391 54.9,52.0000781 L55.5,52.7000391 L52.7000391,55.5 L52.0000781,54.8000391 C51.2000391,54 49.9000781,53.7 48.8000391,54.2000391 C47.7,54.6 47.0000391,55.7000391 47.0000391,56.9000391 L47.0000391,58.0000781 L43.1000391,58.0000781 L43.1000391,56.9000391 C43.1000391,55.7000391 42.4000781,54.7000781 41.3000391,54.2000391 C40.2,53.7 38.9000391,54 38.1,54.8000391 L37.2999609,55.6000781 L34.5,52.8 L35.1999609,52.1000391 C36,51.3 36.3,50.0000391 35.7999609,48.9 C35.4,47.7999609 34.2999609,47.1 33.0999609,47.1 L31.9999219,47.1 L31.9999219,43.1000391 L33.1999219,43.1000391 C34.3999219,43.1000391 35.3998828,42.4000781 35.8999219,41.3000391 C36.3999609,40.2 36.0999609,38.9000391 35.2999219,38.1 L34.4998828,37.2999609 L37.2998437,34.5 L37.9998047,35.1999609 C38.7998437,36 40.0998047,36.3 41.1998437,35.7999609 C42.2998828,35.4 42.9998437,34.2999609 42.9998437,33.0999609 L42.9998437,31.9999219 L46.9998047,31.9999219 L46.9998047,32.9998828 C46.9998047,34.1998828 47.6997656,35.1998437 48.7998047,35.6998828 C49.8998437,36.1999219 51.1998047,35.8999219 51.9998437,35.0998828 L52.6998047,34.4998828 L55.4997656,37.2998437 L54.7998047,37.9998047 C53.9997656,38.7998437 53.6997656,40.0998047 54.1998047,41.1998437 C54.5997656,42.2998828 55.6998047,42.9998437 56.8998047,42.9998437 L57.9998437,42.9998437 L57.9998437,47.0000391 L57.9999609,47.0000391 Z"></path>
                                <path d="M45,38.0000391 C41.1,38.0000391 38.0000391,41.1 38.0000391,45 C38.0000391,48.9 41.1,51.9999609 45,51.9999609 C48.9,51.9999609 51.9999609,48.9 51.9999609,45 C51.9999609,41.1 48.9,38.0000391 45,38.0000391 Z M45,50.0000391 C42.2000391,50.0000391 39.9999609,47.8000781 39.9999609,45 C39.9999609,42.2000391 42.1999219,39.9999609 45,39.9999609 C47.7999609,39.9999609 50.0000391,42.1999219 50.0000391,45 C50.0000391,47.7999609 47.7999609,50.0000391 45,50.0000391 Z"></path>
                                <path d="M34.5999609,30.3 C34.9999219,29.9000391 34.9999219,29.3000391 34.5999609,28.8999609 L34.3999219,28.6999219 C33.4999219,27.7999219 33.1999219,26.2999219 33.7999219,24.9999609 C34.2999609,23.7 35.4999609,22.8999609 36.7999219,22.8999609 L36.9999609,22.8999609 C37.5999609,22.8999609 37.9999219,22.5 37.9999219,21.9 L37.9999219,15.9 C37.9999219,15.3 37.5999609,14.9000391 36.9999609,14.9000391 L36.6999609,14.9000391 C35.4,14.9000391 34.2,14.1 33.6999609,12.8000391 C33.0999609,11.5000781 33.3999609,10.1000391 34.2999609,9.20003906 L34.5,9 C34.8999609,8.60003906 34.8999609,8.00003906 34.5,7.59996094 L30.3,3.39996094 C29.9000391,3 29.3000391,3 28.8999609,3.39996094 L28.6999219,3.6 C27.7999219,4.5 26.2999219,4.8 24.9999609,4.2 C23.7,3.69996094 22.8999609,2.49996094 22.8999609,1.2 L22.8999609,0.999960938 C22.8999609,0.399960938 22.5,0 21.9,0 L15.9,0 C15.3,0 14.9000391,0.399960938 14.9000391,0.999960937 L14.9000391,1.29996094 C14.9000391,2.59992188 14.1,3.79992188 12.8000391,4.29996094 C11.5000781,4.89996094 10.1000391,4.59996094 9.20003906,3.69996094 L9,3.50003906 C8.60003906,3.10007813 8.00003906,3.10007813 7.59996094,3.50003906 L3.39996094,7.70003906 C3,8.1 3,8.7 3.39996094,9.10007813 L3.6,9.30011719 C4.5,10.2001172 4.8,11.7001172 4.2,13.0000781 C3.69996094,14.3000391 2.49996094,15.1000781 1.2,15.1000781 L0.999960937,15.1000781 C0.399960938,15.1000781 1.43982049e-16,15.5000391 1.43982049e-16,16.1000391 L1.43982049e-16,22.1000391 C1.43982049e-16,22.7000391 0.399960938,23.1 0.999960937,23.1 L1.2,23.1 C2.49996094,23.1 3.69996094,23.9000391 4.2,25.2 C4.8,26.4999609 4.5,27.9 3.6,28.8 L3.39996094,29.0000391 C3,29.4 3,30 3.39996094,30.4000781 L7.59996094,34.6000781 C7.99992188,35.0000391 8.59992187,35.0000391 9,34.6000781 L9.20003906,34.4000391 C10.1000391,33.5000391 11.6000391,33.2000391 12.9,33.8000391 C14.1999609,34.3000781 15,35.5000781 15,36.8000391 L15,37.0000781 C15,37.6000781 15.3999609,38.0000391 15.9999609,38.0000391 L21.9999609,38.0000391 C22.5999609,38.0000391 22.9999219,37.6000781 23.1,37.0000781 L23.1,36.7000781 C23.1,35.4001172 23.9000391,34.2001172 25.2,33.7000781 C26.4999609,33.1000781 27.9,33.4000781 28.8,34.3000781 L29.0000391,34.5001172 C29.4,34.9000781 30,34.9000781 30.4000781,34.5001172 L34.5999609,30.3 Z M29.4999609,32.4999609 C28.0999219,31.5 26.1,31.2 24.3,31.9999219 C22.5,32.7 21.3,34.2 21,36 L16.8999609,36 C16.6999219,34.2 15.3999609,32.7 13.5999609,31.8 C11.7999609,31.1000391 9.9,31.2999609 8.4,32.4 L5.49996094,29.4999609 C6.49992188,28.0999219 6.79992188,26.1 6,24.3 C5.30003906,22.5 3.80003906,21.3 2.00003906,21 L2.00003906,16.8999609 C3.80003906,16.5999609 5.4,15.3999609 6.10007813,13.5999609 C6.80015625,11.7999609 6.60011719,9.9 5.50007813,8.4 L8.4,5.60003906 C9.80003906,6.6 11.7999609,6.9 13.5999609,6.10007813 C15.3999609,5.40011719 16.5999609,3.90011719 16.8999609,2.10011719 L21,2.10011719 C21.3,3.90011719 22.5,5.50007813 24.3,6.20015625 C26.1,6.90023438 27.9999609,6.70019531 29.4999609,5.60015625 L32.4,8.50019531 C31.4000391,9.90023438 31.1000391,11.9001563 31.8999609,13.7001563 C32.5999219,15.5001563 34.0999219,16.7001563 35.8999219,17.0001563 L35.8999219,21.1001953 C34.0999219,21.4001953 32.4999609,22.6001953 31.7998828,24.4001953 C31.0999219,26.2001953 31.2998438,28.1001563 32.3998828,29.6001563 L29.4999609,32.4999609 Z"></path>
                            </g>
                        </g>
                    </g>
                </g>
            </g>
            <g id="send-(2)" transform="translate(268.000000, 32.000000)" fill="#3F3F3F">
                <g id="Layer_1">
                    <g id="Group">
                        <path d="M56.5318912,0.288526271 C56.177487,-0.00130423729 55.7049482,-0.059270339 55.2914767,0.114627966 L1.36297927,23.3010686 C0.476968912,23.6488653 -0.0546373057,24.5183568 0.00443005181,25.5037805 C0.0634974093,26.4892042 0.654170984,27.3007297 1.5992487,27.6485263 L17.3702332,32.7495432 L17.3702332,46.6614076 C17.3702332,47.9366619 18.1971762,49.0380178 19.4375907,49.3858144 C20.6780052,49.7915771 22.0365544,49.3278483 22.8044301,48.2844585 L29.4199741,38.89395 L43.4189378,50.7190347 C43.8324093,51.0668314 44.3640155,51.2407297 44.9546891,51.2407297 C45.2500259,51.2407297 45.4862953,51.1827636 45.7225648,51.1247975 C46.5495078,50.8349669 47.1401813,50.1973398 47.2583161,49.3858144 L56.9453627,1.44784831 C57.0044301,1.04208559 56.827228,0.57835678 56.5318912,0.288526271 Z M28.2386269,36.4593737 L20.8552073,46.9512381 C20.6189378,47.2990347 20.323601,47.2410686 20.146399,47.1831025 C20.0282642,47.1831025 19.7329275,47.0092042 19.7329275,46.6614076 L19.7329275,31.9380178 C19.7329275,31.4163229 19.4375907,31.0105602 18.9059845,30.8366619 L2.30805699,25.3878483 L50.2707513,4.8098822 L26.6438083,23.8807297 C26.1122021,24.2864924 26.0531347,25.0400517 26.4666062,25.5037805 C26.7028756,25.793611 27.0572798,25.9095432 27.3526166,25.9095432 C27.588886,25.9095432 27.8842228,25.8515771 28.1204922,25.6197127 L48.6168653,9.09937373 L28.2386269,36.4593737 Z M44.9546891,48.9220856 L30.7785233,36.9810686 L53.4603886,6.60683136 L44.9546891,48.9220856 Z" id="Shape"></path>
                        <path d="M23.454171,26.4312381 L21.5640155,27.9383568 C21.0324093,28.3441195 20.973342,29.0976788 21.3868135,29.5614076 C21.6230829,29.8512381 21.977487,29.9671703 22.3318912,29.9671703 C22.5681606,29.9671703 22.8634974,29.9092042 23.0997668,29.7353059 L24.9899223,28.2281873 C25.5215285,27.8224246 25.5805959,27.0688653 25.1671244,26.6051364 C24.7536528,26.1414076 23.9857772,26.0834415 23.454171,26.4312381 Z" id="Shape"></path>
                    </g>
                </g>
            </g>
            <g id="integrated-circuit" transform="translate(375.000000, 28.000000)" fill="#474747">
                <g id="Capa_1">
                    <g id="Group">
                        <path d="M52.7993317,19.5599351 L52.7993317,17.3446378 L60.948196,16.9641243 L60.948196,12.8545784 L52.7993317,12.4740649 L52.7993317,10.7693027 L46.4277437,10.7693027 L46.4277437,3.25238919 C46.4277437,1.54885946 45.0486533,0.161448649 43.3559799,0.161448649 L17.5897638,0.161448649 C15.8949447,0.161448649 14.5158543,1.54855135 14.5158543,3.25238919 L14.5158543,10.7693027 L8.14671859,10.7693027 L8.14671859,12.4740649 L0,12.8545784 L0,16.9641243 L8.14671859,17.3446378 L8.14671859,19.5599351 L14.5161608,19.5599351 L14.5161608,24.3356108 L8.14671859,24.3356108 L8.14671859,26.0369838 L0,26.4184216 L0,30.5258108 L8.14671859,30.9084811 L8.14671859,33.1237784 L14.5161608,33.1237784 L14.5161608,38.4112216 L8.14671859,38.4112216 L8.14671859,40.1159838 L0,40.4974216 L0,44.6060432 L8.14671859,44.9874811 L8.14671859,47.2027784 L14.5161608,47.2027784 L14.5161608,53.6986216 C14.5161608,55.4033838 15.8952513,56.786173 17.5900704,56.786173 L43.3559799,56.786173 C45.0486533,56.786173 46.4277437,55.4033838 46.4277437,53.6986216 L46.4277437,47.2027784 L52.7993317,47.2027784 L52.7993317,44.9874811 L60.948196,44.6060432 L60.948196,40.4974216 L52.7993317,40.1159838 L52.7993317,38.4112216 L46.4277437,38.4112216 L46.4277437,33.1237784 L52.7993317,33.1237784 L52.7993317,30.9084811 L60.948196,30.5258108 L60.948196,26.4184216 L52.7993317,26.0369838 L52.7993317,24.3356108 L46.4277437,24.3356108 L46.4277437,19.5599351 L52.7993317,19.5599351 Z M59.3321558,42.0456649 L59.3321558,43.0534865 L51.1832915,43.4349243 L51.1832915,45.5753514 L46.6821658,45.5753514 L46.6821658,40.0343351 L51.1832915,40.0343351 L51.1832915,41.6651514 L59.3321558,42.0456649 Z M51.1832915,29.363627 L51.1832915,31.5006649 L46.6821658,31.5006649 L46.6821658,25.9587243 L51.1832915,25.9587243 L51.1832915,27.590773 L59.3321558,27.9722108 L59.3321558,28.9834216 L51.1832915,29.363627 Z M59.3321558,14.4059027 L59.3321558,15.4149568 L51.1832915,15.7963946 L51.1832915,17.9355892 L46.6821658,17.9355892 L46.6821658,12.3924162 L51.1832915,12.3924162 L51.1832915,14.0232324 L59.3321558,14.4059027 Z M43.3559799,55.1596703 L17.5897638,55.1596703 C16.7857286,55.1596703 16.1318945,54.5024757 16.1318945,53.6964649 L16.1318945,3.25238919 C16.1318945,2.44206486 16.7857286,1.78487027 17.5897638,1.78487027 L43.3556734,1.78487027 C44.1575628,1.78487027 44.811397,2.44206486 44.811397,3.25238919 L44.811397,53.6964649 C44.8117035,54.5024757 44.1587889,55.1596703 43.3559799,55.1596703 Z M1.61358794,43.0534865 L1.61358794,42.0456649 L9.76245226,41.664227 L9.76245226,40.0334108 L14.264804,40.0334108 L14.264804,45.574427 L9.76245226,45.574427 L9.76245226,43.434 L1.61358794,43.0534865 Z M1.61358794,28.9809568 L1.61358794,27.9700541 L9.76245226,27.5886162 L9.76245226,25.9565676 L14.264804,25.9565676 L14.264804,31.4985081 L9.76245226,31.4985081 L9.76245226,29.3614703 L1.61358794,28.9809568 Z M1.61358794,15.4149568 L1.61358794,14.4059027 L9.76245226,14.0244649 L9.76245226,12.3936486 L14.264804,12.3936486 L14.264804,17.9368216 L9.76245226,17.9368216 L9.76245226,15.797627 L1.61358794,15.4149568 Z" id="Shape"></path>
                        <ellipse id="Oval" cx="20.1655578" cy="6.20745405" rx="1.99552764" ry="2.00578378"></ellipse>
                    </g>
                </g>
            </g>
            <g id="smartphone-(1)" transform="translate(486.000000, 27.000000)">
                <g id="Capa_1">
                    <g id="Group">
                        <path d="M29.595,0 L4.405,0 C1.976,0 0,1.977 0,4.405 L0,55.594 C0,58.023 1.976,60 4.405,60 L29.594,60 C32.024,60 34,58.023 34,55.595 L34,4.405 C34,1.977 32.024,0 29.595,0 Z M2,8 L32,8 L32,46 L2,46 L2,8 Z M4.405,2 L29.594,2 C30.921,2 32,3.079 32,4.405 L32,6 L2,6 L2,4.405 C2,3.079 3.079,2 4.405,2 Z M29.595,58 L4.405,58 C3.079,58 2,56.921 2,55.595 L2,48 L32,48 L32,55.595 C32,56.921 30.921,58 29.595,58 Z" id="Shape" fill="#434343"></path>
                        <path d="M17,49 C14.794,49 13,50.794 13,53 C13,55.206 14.794,57 17,57 C19.206,57 21,55.206 21,53 C21,50.794 19.206,49 17,49 Z M17,55 C15.897,55 15,54.103 15,53 C15,51.897 15.897,51 17,51 C18.103,51 19,51.897 19,53 C19,54.103 18.103,55 17,55 Z" id="Shape" fill="#454545"></path>
                        <path d="M13,5 L17,5 C17.552,5 18,4.553 18,4 C18,3.447 17.552,3 17,3 L13,3 C12.448,3 12,3.447 12,4 C12,4.553 12.448,5 13,5 Z" id="Shape" fill="#434343"></path>
                        <path d="M20,5 L21,5 C21.552,5 22,4.553 22,4 C22,3.447 21.552,3 21,3 L20,3 C19.448,3 19,3.447 19,4 C19,4.553 19.448,5 20,5 Z" id="Shape" fill="#434343"></path>
                        <path d="M18.962,11.02 L15.038,11.02 C13.914,11.02 13,11.934 13,13.058 L13,16.982 C13,18.106 13.914,19.02 15.038,19.02 L18.962,19.02 C20.086,19.02 21,18.106 21,16.982 L21,13.058 C21,11.934 20.086,11.02 18.962,11.02 Z M19,16.981 C19,17.002 18.983,17.019 18.962,17.019 L15,16.981 L15.038,13.019 L19,13.058 L19,16.981 Z" id="Shape" fill="#454545"></path>
                        <path d="M9.962,11.02 L6.038,11.02 C4.914,11.02 4,11.934 4,13.058 L4,16.982 C4,18.106 4.914,19.02 6.038,19.02 L9.962,19.02 C11.086,19.02 12,18.106 12,16.982 L12,13.058 C12,11.934 11.086,11.02 9.962,11.02 Z M10,16.981 C10,17.002 9.983,17.019 9.962,17.019 L6,16.981 L6.038,13.019 L10,13.058 L10,16.981 Z" id="Shape" fill="#454545"></path>
                        <path d="M27.962,11.02 L24.038,11.02 C22.914,11.02 22,11.934 22,13.058 L22,16.982 C22,18.106 22.914,19.02 24.038,19.02 L27.962,19.02 C29.086,19.02 30,18.106 30,16.982 L30,13.058 C30,11.934 29.086,11.02 27.962,11.02 Z M28,16.981 C28,17.002 27.983,17.019 27.962,17.019 L24,16.981 L24.038,13.019 L28,13.058 L28,16.981 Z" id="Shape" fill="#454545"></path>
                        <path d="M18.962,20 L15.038,20 C13.914,20 13,20.914 13,22.038 L13,25.962 C13,27.086 13.914,28 15.038,28 L18.962,28 C20.086,28 21,27.086 21,25.962 L21,22.038 C21,20.914 20.086,20 18.962,20 Z M19,25.962 C19,25.982 18.983,26 18.962,26 L15,25.962 L15.038,22 L19,22.038 L19,25.962 Z" id="Shape" fill="#434343"></path>
                        <path d="M9.962,20 L6.038,20 C4.914,20 4,20.914 4,22.038 L4,25.962 C4,27.086 4.914,28 6.038,28 L9.962,28 C11.086,28 12,27.086 12,25.962 L12,22.038 C12,20.914 11.086,20 9.962,20 Z M10,25.962 C10,25.982 9.983,26 9.962,26 L6,25.962 L6.038,22 L10,22.038 L10,25.962 Z" id="Shape" fill="#454545"></path>
                        <path d="M27.962,20 L24.038,20 C22.914,20 22,20.914 22,22.038 L22,25.962 C22,27.086 22.914,28 24.038,28 L27.962,28 C29.086,28 30,27.086 30,25.962 L30,22.038 C30,20.914 29.086,20 27.962,20 Z M28,25.962 C28,25.982 27.983,26 27.962,26 L24,25.962 L24.038,22 L28,22.038 L28,25.962 Z" id="Shape" fill="#454545"></path>
                        <path d="M18.962,29 L15.038,29 C13.914,29 13,29.914 13,31.038 L13,34.962 C13,36.086 13.914,37 15.038,37 L18.962,37 C20.086,37 21,36.086 21,34.962 L21,31.038 C21,29.914 20.086,29 18.962,29 Z M19,34.962 C19,34.982 18.983,35 18.962,35 L15,34.962 L15.038,31 L19,31.038 L19,34.962 Z" id="Shape" fill="#454545"></path>
                        <path d="M9.962,29 L6.038,29 C4.914,29 4,29.914 4,31.038 L4,34.962 C4,36.086 4.914,37 6.038,37 L9.962,37 C11.086,37 12,36.086 12,34.962 L12,31.038 C12,29.914 11.086,29 9.962,29 Z M10,34.962 C10,34.982 9.983,35 9.962,35 L6,34.962 L6.038,31 L10,31.038 L10,34.962 Z" id="Shape" fill="#454545"></path>
                        <path d="M27.962,29 L24.038,29 C22.914,29 22,29.914 22,31.038 L22,34.962 C22,36.086 22.914,37 24.038,37 L27.962,37 C29.086,37 30,36.086 30,34.962 L30,31.038 C30,29.914 29.086,29 27.962,29 Z M28,34.962 C28,34.982 27.983,35 27.962,35 L24,34.962 L24.038,31 L28,31.038 L28,34.962 Z" id="Shape" fill="#454545"></path>
                    </g>
                </g>
            </g>
            <g id="lightning" transform="translate(570.000000, 29.000000)" fill="#3F3F3F">
                <g id="Layer_1">
                    <path d="M30.8264519,0.490293976 C30.6530335,0.186983133 30.3312301,0 29.9827071,0 L9.92972803,0 C9.51233054,0 9.1413682,0.267137349 9.00789958,0.663874699 L0.41376569,26.2089976 C0.313631799,26.5068434 0.362661088,26.8348771 0.545288703,27.0901735 C0.728046025,27.3454699 1.02222176,27.4969301 1.33559414,27.4969301 L9.48275732,27.4969301 L0.105970711,52.6826602 C-0.0597949791,53.1279325 0.118422594,53.6283759 0.528037657,53.8675373 C0.68109205,53.9568 0.849711297,54 1.01690377,54 C1.29707113,54 1.57295816,53.8787277 1.76349791,53.6503663 L27.8642008,22.3576916 C28.1066234,22.0670024 28.1594142,21.6618072 27.9994854,21.3184193 C27.8396862,20.9750313 27.4959623,20.7555181 27.1181255,20.7555181 L19.5829205,20.7555181 L30.8225607,1.46853976 C30.9984435,1.16666024 31,0.793604819 30.8264519,0.490293976 Z M17.0472762,21.2386554 C16.8713933,21.5405349 16.8698368,21.9135904 17.0433849,22.2169012 C17.2168033,22.520212 17.5386067,22.7071952 17.8871297,22.7071952 L25.0354184,22.7071952 L3.91572803,48.0283807 L11.795954,26.8624627 C11.9075021,26.5629253 11.8656067,26.2274747 11.6837573,25.9646313 C11.5020377,25.7019181 11.2034519,25.5451229 10.8846318,25.5451229 L2.69064435,25.5451229 L10.6280711,1.95180723 L28.287046,1.95180723 L17.0472762,21.2386554 Z" id="Shape"></path>
                </g>
            </g>
        </g>
    </g>
</svg>