<svg xmlns="http://www.w3.org/2000/svg" xmlns:xlink="http://www.w3.org/1999/xlink" width="97" height="90" viewBox="0 0 97 90"><defs><path id="pavna" d="M385.68 1739.92c-1.1-6.65-16.76-11.92-35.93-11.92-19.17 0-34.84 5.27-35.93 11.92h-.07V1795.08h.07c1.1 6.64 16.76 11.92 35.93 11.92 19.17 0 34.84-5.28 35.93-11.92h.07v-55.16z"/><path id="pavnb" d="M349.75 1789.11c-19.88 0-36-5.67-36-12.67v18.63h.07c1.1 6.65 16.76 11.93 35.93 11.93 19.17 0 34.84-5.28 35.93-11.93h.07v-18.63c0 7-16.12 12.67-36 12.67z"/><path id="pavnc" d="M313.75 1775.7v.75c0-.26.03-.5.07-.75z"/><path id="pavnd" d="M385.68 1775.7c.04.25.07.5.07.75v-.75z"/><path id="pavne" d="M349.75 1771.23c-19.88 0-36-5.67-36-12.67v18.63h.07c1.1 6.65 16.76 11.93 35.93 11.93 19.17 0 34.84-5.28 35.93-11.93h.07v-18.63c0 7-16.12 12.67-36 12.67z"/><path id="pavnf" d="M313.75 1757.81v.75c0-.26.03-.5.07-.75z"/><path id="pavng" d="M385.68 1757.81c.04.25.07.5.07.75v-.75z"/><path id="pavnh" d="M313.75 1740.67c0-7 16.12-12.67 36-12.67s36 5.67 36 12.67-16.12 12.67-36 12.67-36-5.67-36-12.67z"/><path id="pavni" d="M349.75 1753.34c-19.88 0-36-5.67-36-12.67v18.63h.07c1.1 6.65 16.76 11.93 35.93 11.93 19.17 0 34.84-5.28 35.93-11.93h.07v-18.63c0 7-16.12 12.67-36 12.67z"/><path id="pavnj" d="M313.75 1739.92v.75c0-.26.03-.5.07-.75z"/><path id="pavnk" d="M385.68 1739.92c.04.25.07.5.07.75v-.75z"/><path id="pavnl" d="M393 1793.45v6.21c0 .23-.07.44-.22.65a.85.85 0 0 1-.56.36l-5.18.78c-.36 1.01-.72 1.86-1.1 2.55.66.94 1.66 2.22 3 3.87.19.22.28.45.28.7 0 .24-.08.45-.25.64-.5.69-1.43 1.7-2.77 3.02-1.35 1.33-2.22 2-2.63 2-.23 0-.47-.1-.73-.26l-3.86-3.02c-.83.42-1.67.78-2.55 1.06-.3 2.54-.57 4.27-.81 5.2-.13.53-.47.79-1.01.79h-6.22c-.26 0-.49-.08-.68-.24a.83.83 0 0 1-.32-.6l-.79-5.15c-.91-.3-1.75-.64-2.52-1.04l-3.95 3a1 1 0 0 1-.7.25c-.26 0-.49-.1-.7-.3-2.35-2.13-3.89-3.7-4.61-4.71a1.1 1.1 0 0 1 .02-1.29c.28-.39.76-1.01 1.43-1.86.67-.85 1.18-1.5 1.51-1.97-.5-.94-.88-1.86-1.14-2.77l-5.13-.76a.88.88 0 0 1-.59-.35c-.15-.2-.22-.42-.22-.66v-6.21c0-.23.07-.44.22-.65.15-.2.33-.32.54-.36l5.2-.78c.26-.86.63-1.72 1.1-2.58a63.74 63.74 0 0 0-3-3.86 1.05 1.05 0 0 1-.28-.68c0-.18.08-.4.25-.64a27.9 27.9 0 0 1 2.76-3c1.35-1.34 2.23-2.01 2.64-2.01.25 0 .49.1.73.28l3.87 3c.82-.43 1.67-.79 2.54-1.07.3-2.54.57-4.27.81-5.2.14-.53.47-.79 1.01-.79h6.22c.26 0 .49.08.68.24.2.16.3.36.33.6l.78 5.15c.91.3 1.75.64 2.52 1.04l3.97-3a.9.9 0 0 1 .68-.25c.24 0 .47.1.7.28 2.4 2.22 3.94 3.8 4.61 4.76.14.15.2.35.2.61 0 .23-.07.44-.22.65-.28.39-.76 1.01-1.43 1.86-.67.85-1.18 1.5-1.51 1.97.48.94.87 1.85 1.15 2.75l5.12.78c.24.04.44.15.59.35.15.2.22.42.22.66zm-14.33 3.05a6.9 6.9 0 0 0-2.1-5.07 6.9 6.9 0 0 0-5.07-2.1 6.9 6.9 0 0 0-5.07 2.1 6.9 6.9 0 0 0-2.1 5.07c0 1.98.7 3.67 2.1 5.07a6.9 6.9 0 0 0 5.07 2.1 6.9 6.9 0 0 0 5.07-2.1 6.9 6.9 0 0 0 2.1-5.07z"/><path id="pavnm" d="M364 1797a8 8 0 1 1 16 0 8 8 0 0 1-16 0z"/><path id="pavnn" d="M410 1767.15v3.76c0 .14-.04.27-.14.4-.09.12-.2.19-.33.21l-3.14.48c-.2.6-.43 1.12-.66 1.54.4.56 1 1.34 1.82 2.33.1.14.17.28.17.43 0 .14-.06.27-.16.38-.3.42-.86 1.03-1.67 1.83-.82.8-1.35 1.2-1.6 1.2a.83.83 0 0 1-.43-.15l-2.34-1.83c-.5.26-1.01.48-1.54.65a27.74 27.74 0 0 1-.5 3.15c-.07.31-.27.47-.6.47h-3.76a.64.64 0 0 1-.41-.14.5.5 0 0 1-.2-.37l-.47-3.11a10.5 10.5 0 0 1-1.53-.63l-2.38 1.81a.6.6 0 0 1-.43.15.58.58 0 0 1-.42-.18 22.3 22.3 0 0 1-2.8-2.85.66.66 0 0 1 .03-.77c.16-.24.45-.62.86-1.13.4-.51.71-.91.91-1.2a8.36 8.36 0 0 1-.7-1.67l-3.09-.46a.53.53 0 0 1-.35-.2.64.64 0 0 1-.14-.4v-3.76c0-.14.05-.27.14-.4.09-.12.2-.19.32-.21l3.15-.48c.15-.52.37-1.03.66-1.55a38.55 38.55 0 0 0-1.82-2.34.64.64 0 0 1-.16-.4c0-.12.05-.25.15-.4.3-.4.85-1 1.66-1.81.82-.81 1.36-1.21 1.6-1.21.15 0 .3.05.44.16l2.34 1.82c.5-.26 1.01-.48 1.54-.65.18-1.53.35-2.58.5-3.15.07-.31.27-.47.6-.47h3.76c.16 0 .3.05.41.14.12.1.19.22.2.37l.47 3.11c.56.18 1.06.4 1.53.63l2.4-1.81c.1-.1.24-.15.4-.15.15 0 .3.05.43.16a23.13 23.13 0 0 1 2.8 2.88.65.65 0 0 1-.02.76c-.17.24-.46.62-.87 1.13-.4.51-.7.91-.91 1.2.3.56.52 1.11.7 1.65l3.09.48c.15.02.26.09.35.2.1.13.14.26.14.4zm-8.67 1.85c0-1.2-.42-2.22-1.27-3.06a4.17 4.17 0 0 0-3.06-1.27c-1.2 0-2.22.42-3.06 1.27a4.18 4.18 0 0 0-1.27 3.06c0 1.2.42 2.22 1.27 3.06a4.18 4.18 0 0 0 3.06 1.27c1.2 0 2.22-.42 3.06-1.27a4.17 4.17 0 0 0 1.27-3.06z"/><path id="pavno" d="M392 1769a5 5 0 1 1 10 0 5 5 0 0 1-10 0z"/></defs><g><g transform="translate(-313 -1728)"><use fill="#545e73" xlink:href="#pavna"/></g><g transform="translate(-313 -1728)"><use fill="#374c60" xlink:href="#pavnb"/></g><g transform="translate(-313 -1728)"><use fill="#38454f" xlink:href="#pavnc"/></g><g transform="translate(-313 -1728)"><use fill="#38454f" xlink:href="#pavnd"/></g><g transform="translate(-313 -1728)"><use fill="#516c86" xlink:href="#pavne"/></g><g transform="translate(-313 -1728)"><use fill="#556080" xlink:href="#pavnf"/></g><g transform="translate(-313 -1728)"><use fill="#556080" xlink:href="#pavng"/></g><g transform="translate(-313 -1728)"><use fill="#7298bc" xlink:href="#pavnh"/></g><g transform="translate(-313 -1728)"><use fill="#6785a1" xlink:href="#pavni"/></g><g transform="translate(-313 -1728)"><use fill="#8697cb" xlink:href="#pavnj"/></g><g transform="translate(-313 -1728)"><use fill="#8697cb" xlink:href="#pavnk"/></g><g transform="translate(-313 -1728)"><use fill="#f05244" xlink:href="#pavnl"/></g><g transform="translate(-313 -1728)"><use fill="#fff" xlink:href="#pavnm"/></g><g transform="translate(-313 -1728)"><use fill="#f9a53d" xlink:href="#pavnn"/></g><g transform="translate(-313 -1728)"><use fill="#fff" xlink:href="#pavno"/></g></g></svg>