<?xml version="1.0" encoding="utf-8"?>
<!-- Generator: Adobe Illustrator 19.1.0, SVG Export Plug-In . SVG Version: 6.00 Build 0)  -->
<svg version="1.1" id="Layer_1" xmlns="http://www.w3.org/2000/svg" xmlns:xlink="http://www.w3.org/1999/xlink" x="0px" y="0px"
	 viewBox="0 0 157 66" style="enable-background:new 0 0 157 66;" xml:space="preserve">
<style type="text/css">
	.st0{fill:#1D1D1B;}
</style>
<g>
	<path d="M140.3,49.7c-0.4,0-0.7-0.1-0.9-0.4l-16.3-15.2c-0.5-0.5-0.5-1.5-0.1-2c0.5-0.5,1.5-0.5,2,0l16.3,15.2c0.5,0.5,0.5,1.5,0,2
		C141.1,49.6,140.7,49.7,140.3,49.7L140.3,49.7z"/>
	<path d="M86,49.7c-0.4,0-0.8-0.1-1.1-0.4c-0.5-0.5-0.5-1.5,0-2l16.3-15.2c0.5-0.5,1.5-0.5,2,0c0.5,0.5,0.5,1.5,0,2L87,49.3
		C86.7,49.6,86.5,49.7,86,49.7L86,49.7z"/>
	<path d="M149.9,63.9H76.4c-3.9,0-7.1-3.2-7.1-7.1V8.7c0-3.9,3.2-7.1,7.1-7.1h73.5c3.9,0,7.1,3.2,7.1,7.1v48.1
		C157,60.7,153.8,63.9,149.9,63.9L149.9,63.9z M76.4,4.4c-2.3,0-4.3,1.9-4.3,4.3v48.1c0,2.4,1.9,4.3,4.3,4.3h73.5
		c2.4,0,4.3-1.9,4.3-4.3V8.7c0-2.3-1.9-4.3-4.3-4.3C149.9,4.4,76.4,4.4,76.4,4.4z"/>
	<path d="M113.2,39.8c-1.9,0-3.7-0.7-5.2-1.9L71.8,6.3c-0.5-0.5-0.7-1.5-0.1-2s1.5-0.7,2-0.1l36.2,31.7c1.9,1.6,4.8,1.6,6.7,0
		l36.2-31.5c0.5-0.5,1.5-0.4,2,0.1s0.4,1.5-0.1,2l-36.2,31.5C116.9,39.1,115,39.8,113.2,39.8L113.2,39.8z"/>
</g>
<rect x="0" y="11" class="st0" width="64" height="2.7"/>
<rect x="10.7" y="32.3" class="st0" width="53.3" height="2.7"/>
<rect x="32.1" y="53.6" class="st0" width="32.1" height="2.7"/>
<path class="st0" d="M5.3-9.8L5.3-9.8L5.3-9.8z"/>
<ellipse class="st0" cx="2.7" cy="-9.8" rx="0" ry="2.7"/>
</svg>
