<?xml version="1.0" encoding="UTF-8" standalone="no"?>
<svg xmlns="http://www.w3.org/2000/svg" height="26px" width="247px" version="1.1" xmlns:xlink="http://www.w3.org/1999/xlink" viewBox="0 0 247 26"><!-- Generator: Sketch 44 (41411) - http://www.bohemiancoding.com/sketch -->
 <title>bajaj-allianz-life-insurance-seeklogo.com</title>
 <desc>Created with Sketch.</desc>
 <defs>
  <polygon id="path-1" points="0.018364 25.037 246.86 25.037 246.86 0.03206 0.018364 0.03206"/>
 </defs>
 <g id="Page-1" fill-rule="evenodd" fill="none">
  <g id="sharepoint_ad_landing_opt3" transform="translate(-744 -2092)">
   <g id="Group-14" transform="translate(201 1758)">
    <g id="bajaj-allianz-life-insurance-seeklogo.com" transform="translate(543 334)">
     <g id="Group-6">
      <mask id="mask-2" fill="white">
       <use xlink:href="#path-1"/>
      </mask>
      <path id="Fill-1" fill="#027CC4" mask="url(#mask-2)" d="m240.64 7.7453c-0.29-0.2998-0.71-0.4156-1.26-0.414h-2.07v11.859h3.7v-0.069h0.07v-9.8887c0-0.2883-0.03-0.5463-0.11-0.7744-0.05-0.2769-0.15-0.5199-0.33-0.7126zm-4.91-3.1336c-0.3-0.2916-0.73-0.3743-1.26-0.3753h-3.19v1.8876h0.07v0.2717h0.51c0.33-0.003 0.48 0.0516 0.51 0.0953l0.02 0.0253c0 0.0599 0.01 0.1277 0.01 0.2083v12.465h3.45v-0.069h0.07v-0.187h0.18v-0.07h0.07v-12.725c0-0.3139-0.03-0.5823-0.12-0.8162-0.04-0.283-0.14-0.5239-0.32-0.7111zm-4.54 2.7196h-2.07c-0.51-0.0016-0.93 0.1151-1.23 0.4076-0.29 0.2959-0.4 0.7166-0.4 1.225v10.226h3.7v-0.069h0.07v-11.52l-0.07-0.0001v-0.2696zm10.22 12.417c-1.77 1.763-4.25 2.812-7.13 2.816-5.73-0.009-9.82-4.251-9.83-10.058 0-2.9382 1.02-5.4422 2.75-7.2192 1.73-1.7499 4.17-2.7752 7.01-2.7797 5.82 0.0097 9.99 4.1708 10 10.067-0.01 2.888-1.04 5.388-2.8 7.174zm1.86-16.178c-2.25-2.2203-5.39-3.5363-8.99-3.5363-3.56-0.000003-6.67 1.316-8.88 3.5363l-0.03 0.0339-0.04 0.0357c-2.22 2.2219-3.54 5.3439-3.54 8.9339 0 3.545 1.32 6.665 3.55 8.897 2.23 2.23 5.35 3.568 8.95 3.566h0.01c3.55 0 6.68-1.338 8.91-3.566l0.03-0.032 0.04-0.038c2.24-2.23 3.58-5.35 3.58-8.895 0-3.5928-1.34-6.716-3.59-8.9355zm-27.12 13.114h-4.99l5.07-7.0625v-2.8747h-8.11c-0.49 0-0.9 0.0992-1.18 0.3829-0.28 0.2861-0.38 0.694-0.38 1.1898v2.5105h1.83v-0.542c0-0.2974 0.06-0.4427 0.15-0.5239 0.08-0.0834 0.27-0.1512 0.61-0.1503h2.39l-5.08 7.0582v2.972h9.96v-2.7h-0.27v-0.26zm-28.73-0.972c-0.69 0.67-1.35 0.972-1.98 0.972-0.39-0.002-0.57-0.082-0.67-0.209-0.11-0.127-0.19-0.396-0.19-0.846 0.03-0.891 0.2-1.166 0.86-1.443 0.57-0.241 1.06-0.34 1.98-0.495v2.021zm4.16 1.938c-0.11-0.093-0.18-0.233-0.18-0.518v-6.092c0-1.5706-0.26-2.7015-0.97-3.4517-0.73-0.7463-1.84-1.0299-3.4-1.0299-1.02 0-2.01 0.1078-2.97 0.3859-0.7 0.1994-1.42 0.3814-2.56 0.9545l-0.22 0.1059 1.08 2.7783 0.25-0.111 0.33-0.147c0.92-0.366 1.45-0.5368 2.08-0.6385 0.55-0.0824 0.8-0.0876 1.08-0.0876 0.53-0.001 0.86 0.0943 1.03 0.2601 0.18 0.161 0.29 0.447 0.29 0.981v0.056c-1.6 0.254-2.07 0.355-2.88 0.53-0.58 0.1-1.06 0.293-1.53 0.479-1.59 0.683-2.33 1.973-2.31 3.903 0 1.203 0.23 2.137 0.78 2.784 0.55 0.644 1.39 0.949 2.45 0.949h0.02c0.88-0.002 1.76-0.197 2.46-0.601 0.37-0.226 0.65-0.401 1.11-0.786 0.02 0.372 0.13 0.679 0.33 0.907 0.23 0.269 0.58 0.383 0.95 0.383h3.72v-1.835h-0.36c-0.29 0-0.48-0.066-0.58-0.159zm10.2-10.999c-1.33-0.0049-2.46 0.4241-3.85 1.57v-0.0891c0-0.4034-0.07-0.7511-0.29-1.0134-0.23-0.2641-0.58-0.3741-1-0.3719h-3.9v1.8347h0.45c0.33 0.0018 0.5 0.0803 0.6 0.186 0.1 0.1065 0.17 0.2906 0.17 0.5853v10.291h3.9v-0.262h0.26v-8.319c0.78-0.675 1.23-0.88 1.98-0.888 0.39 0.007 0.55 0.079 0.66 0.23 0.12 0.157 0.2 0.51 0.2 1.103v8.136h4.07v-8.7c0-1.7854-0.2-2.5377-0.7-3.2461-0.63-0.7377-1.48-1.0507-2.55-1.0467zm-37.34-4.0306h-3.91v1.9296h0.45c0.34 0 0.53 0.0678 0.62 0.1512 0.08 0.0815 0.15 0.2275 0.15 0.5255v14.417h3.9v-0.262h0.26v-15.279c0-0.4162-0.1-0.7945-0.36-1.0702-0.26-0.277-0.65-0.4135-1.11-0.4122zm-12.91 9.8454l1.6-5.3455 1.44 5.3455h-3.04zm3.1-9.8454h-6.23v1.9296h0.73c0.4-0.003 0.63 0.0544 0.72 0.1194 0.09 0.0605 0.13 0.1215 0.14 0.3713-0.01 0.2727 0 0.4882-0.28 1.3218l-4.4 13.281h4.29l0.06-0.188 1.16-3.843h4.45l1.12 4.031h4.66l-4.39-15.522c-0.26-1.1021-0.96-1.5405-2.03-1.5014zm16.43 0.0009h-3.9v1.9287h0.45c0.59 0.0403 0.73 0.1399 0.76 0.6757v14.418h3.91v-0.262h0.26v-15.279c0-0.4266-0.14-0.808-0.41-1.0745-0.26-0.2684-0.64-0.4079-1.07-0.407zm5.79-0.2791c-0.69 0-1.29 0.1734-1.73 0.5273-0.44 0.3499-0.68 0.887-0.68 1.5148-0.01 0.6247 0.25 1.1468 0.69 1.4713 0.44 0.3286 1.03 0.4745 1.72 0.4745 0.73-0.0012 1.33-0.1447 1.76-0.4766 0.43-0.3331 0.65-0.8531 0.65-1.4692 0-0.6183-0.21-1.1551-0.64-1.5136-0.43-0.356-1.03-0.5285-1.77-0.5285zm0.94 4.4044h-4v1.8347h0.45c0.33 0.0018 0.5 0.0803 0.6 0.186 0.1 0.1059 0.16 0.2894 0.16 0.5844v10.292h4.17v-11.423c0-0.426-0.14-0.8013-0.39-1.0651-0.25-0.2668-0.61-0.4103-0.99-0.4091z"/>
      <path id="Fill-3" fill="#027CC4" mask="url(#mask-2)" d="m126.04 16.186c1.13 0 2.06-0.547 2.06-1.65v-10.363l4.99-0.0001v10.827c0 3.285-2.19 4.384-5.07 4.384h-8.32c-0.62 0-1.32-0.354-1.61-0.856l-1.45-2.342h9.4zm-40.844 0c1.135 0 2.056-0.547 2.056-1.65v-10.363l4.998-0.0001v10.827c0 3.285-2.192 4.384-5.072 4.384h-8.314c-0.62 0-1.321-0.354-1.618-0.856l-1.445-2.342h9.395zm19.154-8.3506l-6.746 11.549h-5.874l9.4-15.211 6.43-0.0001 9.39 15.211h-5.86l-1.58-2.711h-8.7l1.45-2.334c0.29-0.507 0.99-0.859 1.61-0.859h3.78l-3.3-5.6446zm-40.85 0l-6.747 11.549h-5.873l9.405-15.211 6.429-0.0001 9.399 15.211h-5.875l-1.575-2.711h-8.703l1.443-2.334c0.297-0.507 0.999-0.859 1.621-0.859h3.771l-3.295-5.6446zm-28.013 5.1416v6.406l1.443-2.341c0.301-0.503 0.998-0.856 1.62-0.856h5.489c1.04 0.015 1.864-0.71 1.864-1.602 0-0.896-0.805-1.607-1.864-1.607h-8.552zl1.443-2.334c0.301-0.506 0.998-0.8578 1.62-0.8578h5.55c0.994 0 1.803-0.447 1.803-1.2091 0-0.7612-0.797-1.21-1.803-1.21h-8.613v5.6109zm-4.995 6.407v-15.211l13.608-0.0001c2.807 0 7.322 0.3753 7.322 3.9898 0 1.7779-1.579 3.0323-3.412 3.4833 2.275 0.679 3.412 1.93 3.412 3.638 0 3.731-4.294 4.086-7.322 4.099l-13.608 0.001z"/>
      <path id="Fill-4" fill="#107DC2" mask="url(#mask-2)" d="m3.6383 4.0114c4.6743-4.8608 12.444-5.0214 17.316-0.3542 4.872 4.6633 5.029 12.415 0.355 17.279-4.68 4.86-12.445 5.02-17.321 0.353-4.8673-4.667-5.0283-12.418-0.3497-17.278"/>
      <path id="Fill-5" fill="#107DC3" mask="url(#mask-2)" d="m0.45788 12.464c0 3.164 1.238 6.306 3.6921 8.66 2.3277 2.228 5.3202 3.334 8.321 3.334 3.159 0 6.316-1.231 8.672-3.683 2.229-2.323 3.342-5.307 3.342-8.302 0-3.1498-1.234-6.2959-3.693-8.6497-2.323-2.2289-5.324-3.3305-8.317-3.3345-3.1622 0.004-6.3156 1.2354-8.6751 3.6832-2.2346 2.3233-3.342 5.3122-3.342 8.292zm12.013 12.45c-3.1132 0-6.2265-1.15-8.6399-3.46-2.548-2.437-3.8311-5.709-3.8311-8.99 0-3.0922 1.1527-6.2026 3.4724-8.6101 2.44-2.5462 5.7199-3.8218 9.0026-3.8218 3.104-0.00004 6.223 1.1456 8.636 3.4603 2.548 2.4426 3.831 5.7093 3.831 8.9806 0 3.111-1.152 6.212-3.472 8.619-2.445 2.541-5.72 3.822-8.999 3.822z"/>
     </g>
     <path id="Fill-24" fill="#006DB2" d="m17.494 12.493l-0.066 0.021 0.066 0.023v-0.044zm-0.066 0.021c1.599-0.402 2.968-1.529 2.968-3.1166 0-3.2322-3.93-3.5638-6.368-3.5638h-8.1946v13.595h3.0516v-10.762c0 0.0001-0.0104-0.0411 0.041-0.0411h7.496l0.043 0.0412v2.1609s0.011 0.041-0.043 0.041h-4.8v3.191h4.519s0.041-0.004 0.041 0.04v2.162s0.007 0.037-0.041 0.037h-4.519v3.13h2.406c2.639-0.011 6.368-0.334 6.368-3.668 0-1.526-0.985-2.64-2.968-3.247z"/>
     <path id="Fill-25" fill="#fff" d="m17.216 12.216l-0.066 0.018 0.066 0.022v-0.04zm-0.066 0.018c1.598-0.405 2.968-1.524 2.968-3.119 0-3.2243-3.927-3.5629-6.369-3.5629h-8.195v13.6h3.0558v-10.761c0 0.0001-0.0168-0.0463 0.0367-0.0463h7.4985s0.043-0.0034 0.043 0.0464v2.1559s0.01 0.041-0.043 0.041h-4.806v3.191h4.52s0.041 0 0.041 0.044v2.156s0.009 0.04-0.041 0.04h-4.52v3.129h2.41c2.639-0.013 6.369-0.334 6.369-3.665 0-1.529-0.987-2.643-2.968-3.249z"/>
     <polygon id="Fill-26" points="139.35 24.904 140.73 24.904 140.73 0.12824 139.35 0.12824" fill="#027CC4"/>
    </g>
   </g>
  </g>
 </g>
</svg>
