<?xml version="1.0" encoding="UTF-8" standalone="no"?>
<svg width="140px" height="35px" viewBox="0 0 140 35" version="1.1" xmlns="http://www.w3.org/2000/svg" xmlns:xlink="http://www.w3.org/1999/xlink">
    <!-- Generator: Sketch 44.1 (41455) - http://www.bohemiancoding.com/sketch -->
    <title>astra_zeneca_logo (1)</title>
    <desc>Created with Sketch.</desc>
    <defs>
        <polygon id="path-1" points="139.73606 0.129647887 0.0295774648 0.129647887 0.0295774648 34.0136856 139.73606 34.0136856"></polygon>
    </defs>
    <g id="Page-1" stroke="none" stroke-width="1" fill="none" fill-rule="evenodd">
        <g id="z" transform="translate(-35.000000, -82.000000)">
            <g id="astra_zeneca_logo-(1)" transform="translate(35.000000, 82.000000)">
                <mask id="mask-2" fill="white">
                    <use xlink:href="#path-1"></use>
                </mask>
                <g id="Clip-2"></g>
                <path d="M44.4011972,30.4564085 C44.6900704,29.8273944 44.7161972,29.5651408 44.7161972,27.895493 C43.9678873,28.0147887 42.9602817,28.1616901 41.7249296,28.4249296 C39.6002817,28.8873239 39.2374648,29.6829577 39.2374648,30.4820423 C39.2374648,31.3999296 39.9626056,32.1743662 41.3877465,32.1743662 C42.7133099,32.1743662 43.8495775,31.6409859 44.4011972,30.4564085 Z M47.0266901,33.6088732 L45.0307042,33.6182394 C45.0307042,33.6182394 44.8571831,32.8097887 44.8024648,31.9333099 C44.2217606,32.5327465 43.1466197,33.7779577 40.9771127,33.7779577 C38.756338,33.7779577 37.1064085,32.4592958 37.1064085,30.5303521 C37.1064085,29.9235211 37.2764789,29.3206338 37.613169,28.8138732 C38.2678169,27.8471831 39.4814789,27.0747183 42.8833803,26.8075352 L44.6900704,26.6630986 L44.6900704,26.3742254 C44.6900704,25.1901408 44.6900704,23.2099296 42.1419718,23.2099296 C40.5373944,23.2099296 39.9951408,23.986338 39.8053521,24.6892958 L38.0405634,23.951338 C38.0696479,23.8902113 38.1011972,23.8261268 38.1332394,23.765 C38.8140141,22.5109155 40.1425352,21.7369718 42.0714789,21.7369718 C43.1273944,21.7369718 44.4978169,22.003169 45.3930282,22.703662 C46.6638732,23.6688732 46.6382394,25.5687324 46.6382394,25.5687324 L46.7121831,31.4290141 C46.7121831,31.4290141 46.7826761,33.1297183 47.0266901,33.6088732 Z M110.789296,30.4564085 C111.078169,29.8273944 111.101338,29.5651408 111.101338,27.895493 C110.356479,28.0147887 109.34493,28.1616901 108.11007,28.4249296 C105.988873,28.8873239 105.626549,29.6829577 105.626549,30.4820423 C105.626549,31.3999296 106.351197,32.1743662 107.772887,32.1743662 C109.101901,32.1743662 110.234718,31.6409859 110.789296,30.4564085 Z M113.411831,33.6088732 L111.415352,33.6182394 C111.415352,33.6182394 111.242324,32.8097887 111.188099,31.9333099 C110.610352,32.5327465 109.535211,33.7779577 107.362254,33.7779577 C105.141972,33.7779577 103.495,32.4592958 103.495,30.5303521 C103.495,29.9235211 103.66507,29.3206338 104.002254,28.8138732 C104.656901,27.8471831 105.867113,27.0747183 109.268028,26.8075352 L111.078169,26.6630986 L111.078169,26.3742254 C111.078169,25.1901408 111.078169,23.2099296 108.52662,23.2099296 C106.925986,23.2099296 106.376831,23.986338 106.193944,24.6892958 L104.429155,23.951338 C104.454296,23.8902113 104.486831,23.8261268 104.521338,23.765 C105.199155,22.5109155 106.530634,21.7369718 108.457113,21.7369718 C109.515493,21.7369718 110.885423,22.003169 111.781127,22.703662 C113.051972,23.6688732 113.020915,25.5687324 113.020915,25.5687324 L113.100282,31.4290141 C113.100282,31.4290141 113.164859,33.1297183 113.411831,33.6088732 Z M91.6201408,31.4191549 C90.965,32.5327465 89.7040141,33.8070423 87.2145775,33.8070423 C83.8402817,33.8070423 81.9029577,31.5157746 81.9029577,27.6707042 C81.9029577,23.38 84.7335211,21.7369718 87.1426056,21.7369718 C89.2416197,21.7369718 91.2484507,22.8959155 91.9247887,25.7654225 C92.1402113,26.7306338 92.1402113,27.6002113 92.1402113,28.0823239 L83.9309859,28.0823239 C83.883169,29.9910563 84.6847183,32.4075352 87.383662,32.3626761 C88.4849296,32.3434507 89.2608451,31.8430986 89.7557746,31.0597887 L91.6201408,31.4191549 Z M83.9817606,26.705 L90.0407042,26.705 C89.8716197,23.7166901 88.1477465,23.2099296 86.998662,23.2099296 C85.3590845,23.2099296 84.1971831,24.4132394 83.9817606,26.705 Z M69.8161268,31.4191549 C69.1614789,32.5327465 67.9,33.8070423 65.4130282,33.8070423 C62.0372535,33.8070423 60.095,31.5157746 60.095,27.6707042 C60.095,23.38 62.9290141,21.7369718 65.3395775,21.7369718 C67.4351408,21.7369718 69.4444366,22.8959155 70.1212676,25.7654225 C70.3361972,26.7306338 70.3361972,27.6002113 70.3361972,28.0823239 L62.1299296,28.0823239 C62.078662,29.9910563 62.8811972,32.4075352 65.5801408,32.3626761 C66.6814085,32.3434507 67.4573239,31.8430986 67.9522535,31.0597887 L69.8161268,31.4191549 Z M62.1782394,26.705 L68.2371831,26.705 C68.0676056,23.7166901 66.3442254,23.2099296 65.1951408,23.2099296 C63.5550704,23.2099296 62.393169,24.4132394 62.1782394,26.705 Z M101.232817,30.8419014 C100.831056,31.6252113 100.077324,32.3340845 98.594507,32.3340845 C97.3044366,32.3340845 95.1398592,31.5216901 95.1398592,27.754507 C95.1398592,26.74 95.3227465,23.1488028 98.4752113,23.1488028 C100.067465,23.1488028 100.799507,24.0154225 101.139155,24.7637324 L102.936479,24.0129577 C101.829296,22.1702817 99.8328169,21.7404225 98.4047183,21.7404225 C94.7647183,21.7404225 93.006831,24.6676056 93.006831,27.8989437 C93.006831,30.6940141 94.5315493,33.8070423 98.571338,33.8070423 C100.910915,33.8070423 102.215282,32.6771831 102.927606,31.5507746 L101.232817,30.8419014 Z M71.4404225,22.1761972 L71.4404225,33.6088732 L73.3585211,33.6088732 L73.3585211,27.125 C73.3585211,26.2780986 73.3585211,25.4114789 74.2059155,24.5675352 C74.8127465,23.9646479 75.541338,23.7009155 76.3882394,23.7009155 C77.431338,23.7009155 78.4995775,24.1825352 78.8367606,25.2670423 C78.959507,25.6520423 78.959507,25.9892254 78.959507,27.1476761 L78.959507,33.6088732 L80.8721831,33.6088732 L80.8721831,26.8341549 C80.8721831,25.8674648 80.8721831,25.1709155 80.6759859,24.4945775 C80.1214085,22.609507 78.3783099,21.8814085 76.9206338,21.8814085 C76.2442958,21.8814085 74.4247887,22.0509859 73.3585211,23.916831 L73.3585211,22.1761972 L71.4404225,22.1761972 Z M48.3842958,18.5790845 L48.3842958,20.4306338 L56.9272535,20.4306338 L48.3778873,31.6542958 L48.3778873,33.6088732 L59.4211268,33.6088732 L59.4211268,31.8046479 L50.6982394,31.8046479 L59.2061972,20.4528169 L59.2061972,18.5790845 L48.3842958,18.5790845 Z M31.2076761,22.1761972 L31.2076761,33.6088732 L33.1233099,33.6088732 L33.1233099,28.3519718 C33.1233099,27.3719718 33.098169,26.2105634 33.6083803,25.3823944 C34.230493,24.3693662 35.1552817,23.9838732 37.0354225,23.9705634 L37.0354225,21.9903521 C36.2624648,22.0159859 34.2112676,22.0642958 33.1233099,24.2209859 L33.1233099,22.1761972 L31.2076761,22.1761972 Z M27.3985915,18.5756338 L25.4208451,19.4008451 L25.4208451,22.1761972 L23.6077465,22.1761972 L23.6077465,23.7748592 L25.4208451,23.7748592 L25.4208451,31.115 C25.3957042,32.6071831 25.3957042,33.6857746 27.6159859,33.6857746 C28.3421127,33.6857746 29.1372535,33.541338 29.4744366,33.4930282 L29.4744366,31.9101408 C29.0894366,32.0299296 28.5826761,32.1743662 28.2198592,32.1743662 C27.3985915,32.1743662 27.3985915,31.5966197 27.3985915,30.2483803 L27.3985915,23.7748592 L29.4744366,23.7748592 L29.4744366,22.1761972 L27.3985915,22.1761972 L27.3985915,18.5756338 Z M21.1814085,30.4243662 C21.1814085,31.6503521 20.1866197,32.3015493 18.4888732,32.3015493 C17.1184507,32.3015493 16.1976056,31.9165493 15.6873944,31.0307042 L13.6588732,31.3871127 C14.4485915,33.0020423 16.0916197,33.775 18.4055634,33.775 C21.5471831,33.775 23.1877465,32.0353521 23.1877465,30.1838028 C23.1877465,27.8023239 20.9926056,27.1575352 18.4661972,26.6473239 C17.2471127,26.4033099 15.8155634,25.9507746 15.8155634,24.8697183 C15.8155634,24.0997183 16.566338,23.2099296 18.071831,23.2099296 C19.6088732,23.2099296 20.5267606,24.2559859 20.6682394,24.6700704 L22.4492958,23.928662 C21.6339437,22.3723944 20.0007746,21.7369718 18.2902113,21.7369718 C15.6489437,21.7369718 13.8964789,23.0403521 13.8964789,25.1107746 C13.8964789,27.4656338 15.9151408,27.9275352 17.8692254,28.3519718 C19.5511972,28.7138028 21.1814085,29.1278873 21.1814085,30.4243662 Z M11.1748592,33.6088732 L13.2832394,33.6088732 L7.81140845,18.5756338 L5.72521127,18.5756338 L0,33.6088732 L2.12711268,33.6088732 L3.80957746,28.9992254 L9.53823944,28.9992254 L11.1748592,33.6088732 Z M4.44795775,27.3152817 L6.74908451,21.0690141 L8.94126761,27.3152817 L4.44795775,27.3152817 L4.44795775,27.3152817 Z" id="Fill-1" fill="#710C45" mask="url(#mask-2)"></path>
                <path d="M134.856972,14.2178873 C132.60662,13.4350704 127.039155,11.3602113 121.165563,10.5872535 C119.146408,10.3225352 118.332535,11.0397887 119.166127,12.9652817 C119.983944,14.8646479 122.112042,18.0491549 124.340211,20.4370423 C126.566901,22.8249296 128.98338,23.4667606 129.750915,19.7888028 C129.78,19.6571831 129.804648,19.5255634 129.830775,19.3973944 C130.01662,18.4504225 130.155141,17.5335211 130.225634,16.7309859 C129.237254,16.2819014 128.13007,15.8037324 127.022887,15.3364085 C127.084507,16.1808451 127.183099,17.6375352 127.234366,18.7585211 C127.240775,18.9029577 127.247676,19.0409859 127.251127,19.1755634 C127.317676,20.9921127 126.699014,20.9857042 125.665282,20.2442958 C124.461479,19.3840845 120.777606,14.5161268 120.353662,12.366338 C120.33493,12.2248592 120.401972,12.2199296 120.475423,12.2430986 C120.501549,12.2534507 120.530634,12.2652817 120.565634,12.2795775 C120.569085,12.2795775 120.571549,12.2815493 120.575493,12.2815493 C121.40662,12.6088732 124.176056,13.7017606 126.990352,14.886831 C128.114296,15.3605634 129.241197,15.8471127 130.254225,16.3060563 C131.252465,16.7566197 132.141761,17.1785915 132.806268,17.5335211 C134.021901,18.1842254 134.493662,18.6269014 133.983944,19.1469718 C131.451127,21.7177465 122.612887,25.3730282 119.560986,29.8924648 C119.560986,29.8924648 119.548662,29.9077465 119.528944,29.936831 C119.492958,29.9846479 119.461408,30.0393662 119.429366,30.0970423 C119.42,30.1138028 119.413099,30.1330282 119.403732,30.1483099 C119.252887,30.4243662 119.037958,30.905493 118.961056,31.4906338 C118.832887,32.4785211 119.346056,33.3801408 120.764296,33.7626761 C121.120211,33.868662 121.524437,33.9455634 121.968099,33.9899296 C122.044507,33.996338 122.131268,34.0032394 122.218028,34.0057042 C124.942606,34.1383099 132.016549,32.5879577 134.169296,31.6311268 C136.393521,30.6432394 135.729014,29.6612676 135.083732,29.1510563 C134.602606,28.7660563 132.125,27.3852817 130.924648,26.7207746 C130.603732,26.926338 130.350845,27.0865493 130.03338,27.2921127 C132.077183,28.5407746 132.885634,29.1604225 133.364296,29.5266901 C133.547183,29.6711268 133.447113,29.8402113 133.174507,29.8594366 C133.101056,29.8658451 133.03993,29.8692958 132.956127,29.8757042 C131.014859,30.0102817 127.337394,30.2676056 125.611056,30.3602817 C125.357183,30.3760563 125.071761,30.3893662 124.913521,30.3952817 C125.341408,29.994507 125.822535,29.6321831 126.059648,29.4650704 C129.750915,26.868662 135.906479,23.2197887 137.719085,21.6502113 C139.054507,20.4947183 142.69993,16.9562676 134.856972,14.2178873 Z M125.899437,23.986338 C125.60169,24.1766197 125.302958,24.3654225 125.007183,24.5616197 C121.563873,22.6479577 114.163099,18.9606338 113.520775,18.6269014 C112.834577,18.2709859 111.63669,17.7903521 111.788521,16.6506338 C112,15.050493 114.775352,11.55 115.954014,10.1115493 C122.337817,2.30507042 125.196972,-0.103521127 127.09338,0.146901408 C129.115986,0.411619718 130.237958,2.50077465 130.373028,12.2864789 C129.24662,11.9379577 127.998451,11.5785915 126.672887,11.2473239 C126.563944,9.82661972 126.300211,7.68028169 126.198169,6.93887324 C126.085282,6.10330986 125.922113,5.78535211 125.585423,5.74049296 C125.202887,5.69119718 124.272676,6.58443662 123.428732,7.44908451 C123.043239,7.84098592 121.957746,8.93880282 120.761338,10.1450704 C119.760141,10.079507 119.092676,10.2885211 118.722958,10.7755634 C118.428169,11.1694366 118.363592,11.7067606 118.54007,12.3826056 C117.891831,13.0288732 117.336268,13.5873944 116.984296,13.9383803 C115.651831,15.2664085 114.245915,16.3637324 114.172958,16.9030282 C114.114789,17.3422535 114.789155,17.7987324 115.747958,18.3705634 C118.091479,19.7695775 123.858592,22.8890141 125.899437,23.986338 L125.899437,23.986338 Z" id="Fill-3" fill="#F0A92C" mask="url(#mask-2)"></path>
            </g>
        </g>
    </g>
</svg>