<?xml version="1.0" encoding="UTF-8" standalone="no"?>
<svg width="86px" height="28px" viewBox="0 0 86 28" version="1.1" xmlns="http://www.w3.org/2000/svg" xmlns:xlink="http://www.w3.org/1999/xlink">
    <!-- Generator: Sketch 44.1 (41455) - http://www.bohemiancoding.com/sketch -->
    <title>webs_logo</title>
    <desc>Created with Sketch.</desc>
    <defs></defs>
    <g id="Page-1" stroke="none" stroke-width="1" fill="none" fill-rule="evenodd">
        <g id="z" transform="translate(-35.000000, -150.000000)" fill-rule="nonzero" fill="#222222">
            <g id="webs_logo" transform="translate(35.000000, 150.000000)">
                <path d="M29.5592851,8.57948718 C29.5592851,8.35333333 29.5202619,8.13723077 29.4400478,7.94051282 C29.2962404,7.56789744 28.9804422,7.27712821 28.5909337,7.12205128 C28.4211109,7.05025641 28.2382804,7.01507692 28.0554499,7.01507692 C27.6312542,7.01507692 27.2424684,7.20317949 26.9288382,7.48676923 C26.6094268,7.77323077 26.3499954,8.16164103 26.1548798,8.63046154 L26.5617319,8.78482051 L26.1548798,8.63117949 C26.1512666,8.63835897 24.9263744,11.6085128 23.6429476,14.714359 C22.7114515,16.9723077 21.751772,19.3006154 21.2170108,20.594359 C19.9205763,17.6112821 16.2365054,9.156 16.2365054,9.15528205 L16.1620724,8.97292308 C16.0522296,8.72451282 15.9503359,8.46030769 15.7472712,8.21692308 C15.551433,7.96923077 15.1922758,7.77394872 14.789037,7.78328205 C14.7586857,7.78328205 14.7239985,7.784 14.6864206,7.78615385 C14.2073035,7.80912821 13.8358613,8.06902564 13.6306287,8.34615385 C13.4181695,8.624 13.3177211,8.91835897 13.2418428,9.12153846 L13.1739137,9.2974359 C11.9909353,12.1706667 9.46816333,17.8998974 8.25700154,20.6309744 C7.12894453,17.6866667 4.6827735,11.3486154 3.51786133,8.5385641 C3.29239445,7.99364103 2.98454545,7.62174359 2.63839599,7.39774359 C2.29441448,7.17087179 1.92875347,7.10123077 1.64330663,7.10194872 C1.38748844,7.10266667 1.18514638,7.15005128 1.06229584,7.18810256 C0.650385208,7.31446154 0.328805855,7.62461538 0.158260401,8.01230769 C0.0513081664,8.25210256 0,8.51271795 0,8.78266667 C0,9.09425641 0.0679291217,9.41517949 0.195838213,9.73394872 L1.78928197,13.7731282 C3.38561633,17.8173333 5.56874268,23.3555897 6.71631125,26.1290256 C6.84783359,26.4434872 7.01837904,26.7105641 7.23156086,26.9158974 C7.44257473,27.1205128 7.71140062,27.2784615 8.04454237,27.2827692 C8.08645609,27.2827692 8.1254792,27.2806154 8.16016641,27.2763077 C8.35311402,27.2518974 8.59953775,27.1958974 8.83078582,27.0379487 C9.06420185,26.8821538 9.26293066,26.6351795 9.40529276,26.2991795 C9.40601541,26.2977436 10.5427442,23.604 11.813886,20.5893333 C12.8393267,18.1597949 13.9529307,15.5213333 14.6286086,13.9181538 C15.1872173,15.232 16.2039861,17.6177436 17.1911263,19.936 C18.5403143,23.1093333 19.8367488,26.1570256 19.8367488,26.1570256 C19.9783883,26.4772308 20.1308675,26.7364103 20.3635609,26.9338462 C20.5948089,27.1355897 20.9098844,27.2310769 21.2076163,27.2246154 C21.4114037,27.2246154 21.6838428,27.1987692 21.9425516,27.0415385 C22.2005378,26.8843077 22.4079384,26.6258462 22.5568043,26.2690256 C24.1863806,22.4222564 27.8603344,13.4636923 29.2564946,9.89835897 C29.4487196,9.40225641 29.5563945,8.97435897 29.5592851,8.57948718 Z" id="w"></path>
                <path d="M44.5166995,8.33538462 C43.0995824,7.5334359 41.4302604,7.13282051 39.586057,7.13282051 C36.6672727,7.13066667 34.1452234,8.10133333 32.1767242,10.0010256 C30.2038891,11.8971282 29.195792,14.3324103 29.2001279,17.1517949 C29.1965146,19.9704615 30.193772,22.4129231 32.154322,24.3276923 C34.1076456,26.2417436 36.6318629,27.2246154 39.5687134,27.2246154 L39.5867797,27.2246154 C40.9280185,27.2246154 42.241074,27.0027692 43.4948721,26.5662564 C44.5008012,26.2137436 45.6982327,25.7384615 46.7337904,24.892 L46.7417396,24.8848205 L46.7489661,24.878359 C47.2071263,24.4547692 47.4152496,23.8509744 47.4195855,23.2758974 C47.4181402,22.9169231 47.3350354,22.5565128 47.1117365,22.2585641 C46.9758783,22.0654359 46.608772,21.7373333 46.0263159,21.741641 C45.7134083,21.741641 45.3614777,21.8306667 44.9705239,22.0352821 L44.9156025,22.0647179 L44.9047627,22.0747692 C44.8418921,22.1099487 44.7212096,22.1795897 44.7212096,22.1795897 C44.102621,22.5349744 43.7297334,22.7460513 42.7418706,23.1595897 C41.6918598,23.5968205 40.6346225,23.8114872 39.5824438,23.8114872 C38.2527673,23.8114872 37.0589492,23.4934359 36.0067704,22.8630769 C35.1222465,22.3353846 34.3902018,21.6037949 33.8063005,20.6819487 C34.7876595,20.1140513 37.5402342,18.5137436 40.2566764,16.9392821 C43.5338952,15.0374359 46.7569153,13.1664615 46.7569153,13.1664615 L46.9267381,13.0666667 C47.1110139,12.9604103 47.2490401,12.8871795 47.3928475,12.7593846 C47.5381002,12.6315897 47.6371032,12.4341538 47.6732357,12.264 C47.6949153,12.1670769 47.6949153,12.0895385 47.6949153,12.0313846 C47.6862435,11.6357949 47.5294284,11.2660513 47.3458752,10.9738462 C46.6109399,9.87179487 45.6548737,8.98082051 44.5166995,8.33538462 Z M39.5752173,10.4404103 C40.4915378,10.4404103 41.2972928,10.5875897 41.9823652,10.8647179 C42.3978891,11.0334359 42.765718,11.2538462 43.0916333,11.5252308 C41.2568243,12.5985641 34.8519753,16.3412308 32.7584576,17.5653333 L32.7490632,17.1302564 C32.7533991,15.2384615 33.4124561,13.6675897 34.7363513,12.3738462 C36.0609692,11.0858462 37.6609168,10.444 39.5752173,10.4404103 Z" id="e"></path>
                <path d="M60.1230539,7.00574359 C58.4862512,7.00574359 56.9433929,7.37476923 55.548678,8.10205128 C54.6945054,8.54574359 53.9147658,9.12512821 53.2101818,9.81364103 L53.2101818,1.70728205 C53.2101818,1.20687179 53.0222928,0.728 52.6472373,0.394871795 C52.3588998,0.136410256 51.9708367,-0.00215384615 51.5704884,-7.97193529e-17 C51.5256841,-7.97193529e-17 51.4801572,0.00215384615 51.4310169,0.00574358974 L51.4310169,0.00574358974 C50.943228,0.0409230769 50.5031341,0.233333333 50.2017889,0.561435897 C49.8989985,0.889538462 49.7472419,1.32892308 49.7472419,1.80492308 L49.7472419,16.8028718 C49.7443513,19.8304615 50.7192065,22.3827692 52.6559091,24.3104615 C54.5868305,26.2446154 57.1348952,27.2282051 60.1295578,27.2231795 L60.1447334,27.2231795 C63.0685763,27.2231795 65.5985747,26.2331282 67.5721325,24.3018462 C69.5536394,22.3705641 70.5696857,19.9166154 70.5660724,17.0878974 C70.5704083,14.2606154 69.5543621,11.8124103 67.5685193,9.90051282 C65.5812311,7.98287179 63.05051,7.00430769 60.1230539,7.00574359 Z M55.2169815,21.9476923 C53.8808012,20.6474872 53.2130724,19.0385641 53.2101818,17.0972308 C53.2130724,15.2190769 53.8858598,13.6295385 55.240829,12.2898462 C56.5943529,10.9573333 58.2094761,10.3025641 60.1237766,10.2968205 C62.0387997,10.3011282 63.6495871,10.9537436 65.0074468,12.2805128 C66.3580801,13.6115897 67.0294222,15.2090256 67.0337581,17.0965128 C67.0294222,18.9875897 66.3588028,20.5821538 65.0074468,21.9168205 C63.6481418,23.2414359 62.0395223,23.898359 60.1237766,23.9005128 C58.1834607,23.8990769 56.5632789,23.2522051 55.2169815,21.9476923 L55.2169815,21.9476923 Z" id="b"></path>
                <path d="M83.9394376,17.4547692 C83.0643082,16.5164103 81.7787134,15.8243077 80.1419106,15.3655385 L78.93653,15.0611282 C77.7802897,14.7890256 76.9420154,14.4257436 76.4224299,14.0208205 C75.903567,13.6115897 75.6925532,13.2002051 75.6882173,12.6926154 C75.6939985,11.9172308 75.9404222,11.3967179 76.4889137,10.9350769 C77.0402958,10.4827692 77.79402,10.2401026 78.7963359,10.2379487 C79.3759014,10.2379487 79.9850955,10.3664615 80.6094653,10.6285128 L81.238171,10.9566154 L81.6818783,11.2007179 C82.0511525,11.3909744 82.4240401,11.4922051 82.7875331,11.4922051 C83.2680955,11.493641 83.7414314,11.3019487 84.0463898,10.9278974 C84.3007627,10.6198974 84.4250586,10.2329231 84.4250586,9.83589744 C84.4250586,9.72174359 84.4127735,9.604 84.3918166,9.4905641 C84.3159384,9.07487179 84.1251587,8.69866667 83.7645562,8.46892308 C83.1170616,8.07261538 82.558453,7.79261538 82.0085162,7.59230769 C81.0177627,7.22471795 79.9460724,7.04092308 78.8360817,7.04164103 C76.9564684,7.04092308 75.3261695,7.588 74.0694807,8.67282051 L74.3635994,8.98512821 L74.3635994,8.98512821 L74.0694807,8.67425641 C72.8070108,9.75979487 72.1428952,11.1698462 72.1479538,12.768 C72.1428952,14.2670769 72.6306841,15.5292308 73.6084299,16.4288205 C74.5890663,17.3219487 76.2106934,17.990359 78.5903806,18.5790769 C79.8485146,18.8820513 80.6961834,19.278359 81.0777427,19.6516923 C81.4520755,20.0135385 81.6573082,20.5218462 81.6594761,21.2534359 C81.6529723,22.077641 81.3920955,22.6598974 80.8168659,23.1624615 C80.2466949,23.6607179 79.5001972,23.9198974 78.515225,23.9220513 C77.7166965,23.9220513 76.97598,23.757641 76.2822357,23.4273846 C75.9534299,23.2723077 75.6260693,23.0698462 75.2719707,22.8042051 C74.7119168,22.3834872 74.1634253,22.1314872 73.5997581,22.1300513 C73.1170277,22.1257436 72.6632034,22.3404103 72.3300616,22.693641 C72.0670169,22.9664615 71.9087565,23.3161026 71.9109245,23.6829744 C71.9109245,23.6994872 71.9109245,23.7253333 71.9130924,23.7540513 C71.9456117,24.3722051 72.3423467,24.905641 72.9847827,25.4728205 C73.4241541,25.8526154 73.9545794,26.1756923 74.6345932,26.4858462 C75.7554237,27.0013333 77.0164484,27.258359 78.3692496,27.257641 L78.3822573,27.257641 C80.3102881,27.257641 81.9868367,26.6574359 83.2868844,25.4792821 C84.5970493,24.2996923 85.2756179,22.7539487 85.2705593,20.9813333 C85.2741726,19.6129231 84.8261294,18.4053333 83.9394376,17.4547692 Z" id="s"></path>
            </g>
        </g>
    </g>
</svg>