<?xml version="1.0" encoding="UTF-8" standalone="no"?>
<svg width="128px" height="128px" viewBox="0 0 128 128" version="1.1" xmlns="http://www.w3.org/2000/svg" xmlns:xlink="http://www.w3.org/1999/xlink">
    <!-- Generator: Sketch 44.1 (41455) - http://www.bohemiancoding.com/sketch -->
    <title>megaphone (2)</title>
    <desc>Created with Sketch.</desc>
    <defs></defs>
    <g id="Page-1" stroke="none" stroke-width="1" fill="none" fill-rule="evenodd">
        <g id="Desktop-HD" transform="translate(-352.000000, -1205.000000)" fill-rule="nonzero">
            <g id="Group-6" transform="translate(341.000000, 667.000000)">
                <g id="Group-9" transform="translate(0.000000, 83.000000)">
                    <g id="Group-25">
                        <g id="Group-12" transform="translate(11.000000, 455.000000)">
                            <g id="megaphone-(2)">
                                <path d="M46.57075,113.719142 C46.57075,121.703548 40.17075,127.824842 32.4375,127.824842 C24.70425,127.824842 18.30425,121.437318 18.30425,113.719142 L14.57075,84.4430721 L12.97075,70.8695828 L41.504,70.8695828 L43.37075,86.0399532 L46.57075,113.719142 Z" id="Shape" fill="#395368"></path>
                                <path d="M43.104,86.0399532 L24.17075,86.0399532 C20.704,86.0399532 17.504,85.5077427 14.57075,84.4430721 L12.97075,70.8695828 L41.504,70.8695828 L43.104,86.0399532 Z" id="Shape" fill="#334A5E"></path>
                                <path d="M47.63725,82.0477505 L24.17075,82.0477505 C10.8375,82.0477505 0.17075,71.4017934 0.17075,58.0945341 L0.17075,58.0945341 C0.17075,44.7872749 10.8375,34.1413177 24.17075,34.1413177 L47.6375,34.1413177 L47.63725,82.0477505 L47.63725,82.0477505 Z" id="Shape" fill="#F05244"></path>
                                <path d="M127.904,58.0945341 C127.904,65.280499 124.17075,71.4017934 118.304,74.8617856 C115.37075,76.7248967 111.904,77.5233372 108.43725,77.5233372 C106.304,77.5233372 104.43725,77.2571072 102.5705,76.7248967 C94.5705,74.329575 88.9705,66.8773801 88.9705,58.0945341 C88.9705,49.3116881 94.5705,41.8594932 102.5705,39.4641715 C104.43725,38.931961 106.30375,38.665731 108.43725,38.665731 C112.1705,38.665731 115.63725,39.7304016 118.304,41.3272827 C124.17075,44.7872749 127.904,50.9085692 127.904,58.0945341 Z" id="Shape" fill="#F9A53D"></path>
                                <path d="M118.304,41.3272827 L118.304,74.5955556 C115.37075,76.4586667 111.904,77.2571072 108.43725,77.2571072 C106.304,77.2571072 104.43725,76.9908772 102.5705,76.4586667 L102.5705,39.4641715 C104.43725,38.931961 106.30375,38.665731 108.43725,38.665731 C111.904,38.665731 115.37075,39.7304016 118.304,41.3272827 Z" id="Shape" fill="#F8B64C"></path>
                                <path d="M106.57075,115.316023 L47.63725,82.0477505 L47.63725,33.8750877 L106.57075,0.606814815 C110.0375,-1.2562963 114.304,1.40525536 114.304,5.39745809 L114.304,110.79161 C114.304,114.783813 110.03725,117.179135 106.57075,115.316023 Z" id="Shape" fill="#EEF2F3"></path>
                                <path d="M106.57075,115.316023 L106.57075,0.606814815 C110.0375,-1.2562963 114.304,1.40525536 114.304,5.39745809 L114.304,110.79161 C114.304,114.783813 110.03725,117.179135 106.57075,115.316023 Z" id="Shape" fill="#F05244"></path>
                                <g id="Group" transform="translate(12.250000, 44.163743)" fill="#FF7058">
                                    <path d="M20.18725,27.7705107 L2.854,27.7705107 C1.254,27.7705107 0.18725,26.4398596 0.18725,25.1089591 L0.18725,25.1089591 C0.18725,23.512078 1.5205,22.4474074 2.854,22.4474074 L19.92075,22.4474074 C21.52075,22.4474074 22.5875,23.7780585 22.5875,25.1089591 L22.5875,25.1089591 C22.854,26.7058402 21.52075,27.7705107 20.18725,27.7705107 Z" id="Shape"></path>
                                    <path d="M20.18725,16.5923431 L2.854,16.5923431 C1.254,16.5923431 0.18725,15.261692 0.18725,13.9307914 L0.18725,13.9307914 C0.18725,12.3339103 1.5205,11.2692398 2.854,11.2692398 L19.92075,11.2692398 C21.52075,11.2692398 22.5875,12.5998908 22.5875,13.9307914 L22.5875,13.9307914 C22.854,15.2614425 21.52075,16.5923431 20.18725,16.5923431 Z" id="Shape"></path>
                                    <path d="M20.18725,5.41417544 L2.854,5.41417544 C1.254,5.41417544 0.18725,4.08352437 0.18725,2.75262378 L0.18725,2.75262378 C0.18725,1.15574269 1.5205,0.0910721248 2.854,0.0910721248 L19.92075,0.0910721248 C21.52075,0.0910721248 22.5875,1.4217232 22.5875,2.75262378 L22.5875,2.75262378 C22.854,4.08327485 21.52075,5.41417544 20.18725,5.41417544 Z" id="Shape"></path>
                                </g>
                            </g>
                        </g>
                    </g>
                </g>
            </g>
        </g>
    </g>
</svg>