<?xml version="1.0" encoding="UTF-8" standalone="no"?>
<svg width="146px" height="42px" viewBox="0 0 146 42" version="1.1" xmlns="http://www.w3.org/2000/svg" xmlns:xlink="http://www.w3.org/1999/xlink">
    <!-- Generator: Sketch 44.1 (41455) - http://www.bohemiancoding.com/sketch -->
    <title>Group 35</title>
    <desc>Created with Sketch.</desc>
    <defs></defs>
    <g id="Page-1" stroke="none" stroke-width="1" fill="none" fill-rule="evenodd">
        <g id="Desktop-HD" transform="translate(-548.000000, -2600.000000)" fill-rule="nonzero">
            <g id="Group-38" transform="translate(240.000000, 1801.000000)">
                <g id="Group-30" transform="translate(93.000000, 63.000000)">
                    <g id="Group-37" transform="translate(0.000000, 83.000000)">
                        <g id="Group-5" transform="translate(44.000000, 653.000000)">
                            <g id="Group-35" transform="translate(172.000000, 0.000000)">
                                <g id="Group-15" transform="translate(3.000000, 1.000000)" fill="#FFEFF0">
                                    <g id="star" transform="translate(122.953484, 10.076172)">
                                        <polygon id="Shape" points="9.15741021 9.85507181 9.15741021 0.0292435365 11.2941273 6.81374401"></polygon>
                                        <g id="Group" transform="translate(7.011142, 0.000000)">
                                            <polygon id="Shape" points="2.14626802 9.85507181 2.14626802 0.0292435365 0.00955089268 6.81374401"></polygon>
                                            <polygon id="Shape" points="2.14626802 9.85507181 11.3036782 6.77474044 4.28298514 6.81374401"></polygon>
                                        </g>
                                        <g id="Group" transform="translate(9.157410, 6.762568)">
                                            <polygon id="Shape" points="0 3.09250399 9.15741021 0.0121726221 3.47219663 4.22324188"></polygon>
                                            <polygon id="Shape" points="0 3.09250399 5.64708155 11.0467459 0 6.83567666"></polygon>
                                        </g>
                                        <polygon id="Shape" points="9.15741021 9.85507181 14.8044918 17.8093137 12.6296068 10.9858097"></polygon>
                                        <polygon id="Shape" points="9.15741021 9.85507181 0 6.77474044 7.02069308 6.81374401"></polygon>
                                        <g id="Group" transform="translate(0.000000, 6.762568)">
                                            <polygon id="Shape" points="9.15741021 3.09250399 0 0.0121726221 5.68521358 4.22324188"></polygon>
                                            <polygon id="Shape" points="9.15741021 3.09250399 3.51032866 11.0467459 9.15741021 6.83567666"></polygon>
                                        </g>
                                        <polygon id="Shape" points="9.15741021 9.85507181 3.51032866 17.8093137 5.68521358 10.9858097"></polygon>
                                    </g>
                                    <g id="star" transform="translate(93.491945, 4.076172)">
                                        <polygon id="Shape" points="15.2111146 16.3699805 15.2111146 0.0485756097 18.7603548 11.3181171"></polygon>
                                        <g id="Group" transform="translate(11.646010, 0.000000)">
                                            <polygon id="Shape" points="3.56510498 16.3699805 3.56510498 0.0485756097 0.0158647171 11.3181171"></polygon>
                                            <polygon id="Shape" points="3.56510498 16.3699805 18.7762195 11.2533293 7.11434524 11.3181171"></polygon>
                                        </g>
                                        <g id="Group" transform="translate(15.211115, 11.233110)">
                                            <polygon id="Shape" points="0 5.13687073 15.2111146 0.0202195975 5.76756741 7.0151074"></polygon>
                                            <polygon id="Shape" points="0 5.13687073 9.38020712 18.3494366 0 11.3545488"></polygon>
                                        </g>
                                        <polygon id="Shape" points="15.2111146 16.3699805 24.5913217 29.5825463 20.978682 18.2482171"></polygon>
                                        <polygon id="Shape" points="15.2111146 16.3699805 0 11.2533293 11.6618743 11.3181171"></polygon>
                                        <g id="Group" transform="translate(0.000000, 11.233110)">
                                            <polygon id="Shape" points="15.2111146 5.13687073 0 0.0202195975 9.44354716 7.0151074"></polygon>
                                            <polygon id="Shape" points="15.2111146 5.13687073 5.83090745 18.3494366 15.2111146 11.3545488"></polygon>
                                        </g>
                                        <polygon id="Shape" points="15.2111146 16.3699805 5.83090745 29.5825463 9.44354716 18.2482171"></polygon>
                                    </g>
                                    <g id="star" transform="translate(52.591734, 0.454547)">
                                        <polygon id="Shape" points="18.8651555 20.3024063 18.8651555 0.060244529 23.2670006 14.0369752"></polygon>
                                        <g id="Group" transform="translate(14.443635, 0.000000)">
                                            <polygon id="Shape" points="4.42152083 20.3024063 4.42152083 0.060244529 0.0196757677 14.0369752"></polygon>
                                            <polygon id="Shape" points="4.42152083 20.3024063 23.2866764 13.9566241 8.82336589 14.0369752"></polygon>
                                        </g>
                                        <g id="Group" transform="translate(18.865156, 13.931547)">
                                            <polygon id="Shape" points="0 6.37085894 18.8651555 0.0250767852 7.1530627 8.70028896"></polygon>
                                            <polygon id="Shape" points="0 6.37085894 11.6335371 22.7573708 0 14.0821586"></polygon>
                                        </g>
                                        <polygon id="Shape" points="18.8651555 20.3024063 30.4986927 36.6889181 26.0182182 22.6318363"></polygon>
                                        <polygon id="Shape" points="18.8651555 20.3024063 0 13.9566241 14.4633105 14.0369752"></polygon>
                                        <g id="Group" transform="translate(0.000000, 13.931547)">
                                            <polygon id="Shape" points="18.8651555 6.37085894 0 0.0250767852 11.7120928 8.70028896"></polygon>
                                            <polygon id="Shape" points="18.8651555 6.37085894 7.23161839 22.7573708 18.8651555 14.0821586"></polygon>
                                        </g>
                                        <polygon id="Shape" points="18.8651555 20.3024063 7.23161839 36.6889181 11.7120928 22.6318363"></polygon>
                                    </g>
                                    <g id="star" transform="translate(21.030407, 4.576172)">
                                        <polygon id="Shape" points="14.7066392 15.8270714 14.7066392 0.0469646036 18.1381692 10.9427526"></polygon>
                                        <g id="Group" transform="translate(11.259771, 0.000000)">
                                            <polygon id="Shape" points="3.44686856 15.8270714 3.44686856 0.0469646036 0.0153385651 10.9427526"></polygon>
                                            <polygon id="Shape" points="3.44686856 15.8270714 18.1535078 10.8801136 6.87839856 10.9427526"></polygon>
                                        </g>
                                        <g id="Group" transform="translate(14.706639, 10.860565)">
                                            <polygon id="Shape" points="0 4.96650683 14.7066392 0.0195490163 5.57628651 6.78245194"></polygon>
                                            <polygon id="Shape" points="0 4.96650683 9.06911333 17.740879 0 10.9779761"></polygon>
                                        </g>
                                        <polygon id="Shape" points="14.7066392 15.8270714 23.7757525 28.6014436 20.2829257 17.6430165"></polygon>
                                        <polygon id="Shape" points="14.7066392 15.8270714 0 10.8801136 11.2751092 10.9427526"></polygon>
                                        <g id="Group" transform="translate(0.000000, 10.860565)">
                                            <polygon id="Shape" points="14.7066392 4.96650683 0 0.0195490163 9.13035269 6.78245194"></polygon>
                                            <polygon id="Shape" points="14.7066392 4.96650683 5.63752588 17.740879 14.7066392 10.9779761"></polygon>
                                        </g>
                                        <polygon id="Shape" points="14.7066392 15.8270714 5.63752588 28.6014436 9.13035269 17.6430165"></polygon>
                                    </g>
                                    <g id="star" transform="translate(0.415022, 9.576172)">
                                        <polygon id="Shape" points="9.66188557 10.3979809 9.66188557 0.0308545426 11.916313 7.18910843"></polygon>
                                        <g id="Group" transform="translate(7.397381, 0.000000)">
                                            <polygon id="Shape" points="2.26450443 10.3979809 2.26450443 0.0308545426 0.0100770447 7.18910843"></polygon>
                                            <polygon id="Shape" points="2.26450443 10.3979809 11.92639 7.14795618 4.51893182 7.18910843"></polygon>
                                        </g>
                                        <g id="Group" transform="translate(9.661886, 7.135113)">
                                            <polygon id="Shape" points="0 3.26286788 9.66188557 0.0128432034 3.66347753 4.45589734"></polygon>
                                            <polygon id="Shape" points="0 3.26286788 5.95817535 11.6553035 0 7.21224934"></polygon>
                                        </g>
                                        <polygon id="Shape" points="9.66188557 10.3979809 15.6200609 18.7904165 13.3253631 11.5910103"></polygon>
                                        <polygon id="Shape" points="9.66188557 10.3979809 0 7.14795618 7.40745819 7.18910843"></polygon>
                                        <g id="Group" transform="translate(0.000000, 7.135113)">
                                            <polygon id="Shape" points="9.66188557 3.26286788 0 0.0128432034 5.99840805 4.45589734"></polygon>
                                            <polygon id="Shape" points="9.66188557 3.26286788 3.70371022 11.6553035 9.66188557 7.21224934"></polygon>
                                        </g>
                                        <polygon id="Shape" points="9.66188557 10.3979809 3.70371022 18.7904165 5.99840805 11.5910103"></polygon>
                                    </g>
                                </g>
                                <g id="Group-18" fill="#859DBA">
                                    <g id="star-(1)" transform="translate(0.000000, 12.000000)" stroke="#859DBA" stroke-width="0.5">
                                        <path d="M10.1582803,0.354186086 L12.1975373,6.72213774 L18.8556781,6.71493366 C19.1328022,6.71493366 19.3602319,6.93645896 19.3602319,7.21516659 C19.3602319,7.37950954 19.2751696,7.52944434 19.1542916,7.62264706 L19.1542916,7.62264706 L13.7608931,11.5461662 L15.8288028,17.9136676 C15.9138651,18.177967 15.7719453,18.4566747 15.5091476,18.5426733 C15.3385752,18.5998557 15.1536766,18.5570815 15.0260831,18.4499209 L9.68193129,14.5259515 L4.3028591,18.4710828 C4.07542934,18.6354258 3.76293725,18.5854475 3.60669121,18.3639222 C3.50730261,18.2279453 3.48581318,18.0563983 3.53550748,17.9136676 L3.52834434,17.9136676 L5.60341713,11.5461662 L0.210018665,7.6221968 C-0.0174111036,7.45785385 -0.0671054034,7.1435761 0.0963037806,6.92160055 C0.202855523,6.77166575 0.366264707,6.70007526 0.536837033,6.71448341 L7.1596098,6.72168748 L9.20603002,0.353735831 C9.29109233,0.0894363458 9.5682164,-0.0537446361 9.83146188,0.0250499294 C9.99487107,0.0826825259 10.1081383,0.203801029 10.1582803,0.354186086 L10.1582803,0.354186086 Z M11.359002,7.37905929 L9.68193129,2.14079658 L7.99769745,7.37950954 L7.99769745,7.37950954 C7.93367687,7.58662669 7.74206281,7.72980767 7.52179618,7.72980767 L2.05005085,7.72215334 L6.48403594,10.9455264 L6.48403594,10.9455264 C6.65460827,11.0742993 6.73295513,11.2958246 6.66177141,11.5101458 L4.96365898,16.7416547 L9.37660235,13.5043237 C9.54717467,13.3755508 9.78893072,13.3683468 9.97338164,13.4971196 L14.3930404,16.7416547 L12.7016435,11.531758 C12.6232966,11.3246409 12.6873172,11.0815034 12.8722158,10.9455264 L17.313364,7.72215334 L11.855945,7.72935741 C11.636126,7.74376556 11.4301857,7.60058458 11.359002,7.37905929 L11.359002,7.37905929 Z" id="Shape"></path>
                                    </g>
                                    <g id="star-(1)" transform="translate(19.000000, 5.000000)" stroke="#859DBA" stroke-width="0.5">
                                        <path d="M16.5311077,1.52284155 L19.7871745,11.6905031 L30.4181789,11.6790004 C30.8606608,11.6790004 31.2237963,12.0327082 31.2237963,12.4777186 C31.2237963,12.7401238 31.0879779,12.9795236 30.8949729,13.1283397 L30.8949729,13.1283397 L22.2833732,19.3929938 L25.5851893,29.5599364 C25.7210077,29.9819414 25.4944055,30.4269519 25.0747982,30.5642653 C24.8024466,30.6555679 24.5072204,30.5872706 24.3034928,30.4161681 L15.7705248,24.1507951 L7.18179989,30.4499572 C6.81866445,30.7123624 6.31971064,30.6325625 6.07023374,30.2788547 C5.91154069,30.0617414 5.87722868,29.7878335 5.9565752,29.5599364 L5.94513787,29.5599364 L9.25839132,19.3929938 L0.64679168,13.1276208 C0.283656243,12.8652156 0.20430972,12.3634106 0.465223962,12.0089839 C0.635354344,11.7695841 0.896268585,11.6552761 1.16862016,11.6782815 L11.7431527,11.6897842 L15.0106568,1.52212263 C15.1464752,1.10011759 15.5889571,0.871501569 16.0092793,0.997312271 C16.2701935,1.08933381 16.4510464,1.28272284 16.5311077,1.52284155 L16.5311077,1.52284155 Z M18.4482913,12.7394049 L15.7705248,4.37550937 L13.0813211,12.7401238 L13.0813211,12.7401238 C12.9790999,13.0708262 12.6731511,13.2994422 12.321453,13.2994422 L3.58475752,13.2872206 L10.6644689,18.4339568 L10.6644689,18.4339568 C10.9368205,18.6395674 11.0619163,18.9932752 10.9482578,19.3354803 L8.23689419,27.688592 L15.2830084,22.5195695 C15.55536,22.3139588 15.9413701,22.3024561 16.2358815,22.5080668 L23.2927182,27.688592 L20.5920771,19.3699884 C20.4669812,19.039286 20.5692024,18.6510701 20.8644286,18.4339568 L27.9555773,13.2872206 L19.2417565,13.2987233 C18.8907732,13.3217287 18.5619498,13.0931127 18.4482913,12.7394049 L18.4482913,12.7394049 Z" id="Shape"></path>
                                    </g>
                                    <g id="star-(1)" transform="translate(48.000000, 0.000000)">
                                        <path d="M23.3400757,1.07779102 L27.8393489,15.1275909 L42.5294016,15.1116963 C43.1408286,15.1116963 43.6426136,15.6004541 43.6426136,16.215375 C43.6426136,16.5779697 43.4549381,16.9087753 43.1882414,17.1144112 L43.1882414,17.1144112 L31.288627,25.7709874 L35.8511171,39.8197938 C36.0387926,40.4029256 35.7256709,41.0178465 35.1458524,41.2075878 C34.7695136,41.3337509 34.3615663,41.239377 34.0800531,41.0029453 L22.2890929,32.3453758 L10.421087,41.0496356 C9.91930201,41.4122303 9.22984149,41.3019618 8.88511123,40.813204 C8.66582723,40.5131941 8.61841447,40.1347049 8.72805647,39.8197938 L8.71225222,39.8197938 L13.2905466,25.7709874 L1.39093223,17.1134178 C0.889147209,16.7508231 0.779505207,16.0574228 1.14003972,15.5676716 C1.37512798,15.236866 1.73566249,15.0789138 2.11200125,15.1107029 L16.7240205,15.1265975 L21.2390979,1.07679761 C21.4267734,0.493665846 22.0382004,0.177761415 22.6190067,0.351608193 C22.9795412,0.478764694 23.2294459,0.745992027 23.3400757,1.07779102 L23.3400757,1.07779102 Z M25.9892635,16.5769763 L22.2890929,5.01964253 L18.573118,16.5779697 L18.573118,16.5779697 C18.4318675,17.0349384 18.0091038,17.3508428 17.523123,17.3508428 L5.4506496,17.3339549 L15.2334819,24.4457782 L15.2334819,24.4457782 C15.6098207,24.7298935 15.7826797,25.2186513 15.6256249,25.6915146 L11.8790293,37.2339472 L21.6154367,30.0913281 C21.9917754,29.8072128 22.5251689,29.7913183 22.9321284,30.0754336 L32.6833523,37.2339472 L28.9515731,25.7391982 C28.7787141,25.2822296 28.9199646,24.7457881 29.3279119,24.4457782 L39.1265485,17.3339549 L27.0856836,17.3498494 C26.6006906,17.3816386 26.1463183,17.0657341 25.9892635,16.5769763 L25.9892635,16.5769763 Z" id="Shape"></path>
                                    </g>
                                    <g id="star-(1)" transform="translate(92.000000, 5.000000)" stroke="#859DBA" stroke-width="0.5">
                                        <path d="M16.5661715,1.52284155 L19.8222383,11.6905031 L30.4532427,11.6790004 C30.8957246,11.6790004 31.2588601,12.0327082 31.2588601,12.4777186 C31.2588601,12.7401238 31.1230417,12.9795236 30.9300367,13.1283397 L30.9300367,13.1283397 L22.318437,19.3929938 L25.6202531,29.5599364 C25.7560715,29.9819414 25.5294693,30.4269519 25.109862,30.5642653 C24.8375104,30.6555679 24.5422842,30.5872706 24.3385566,30.4161681 L15.8055887,24.1507951 L7.21686369,30.4499572 C6.85372826,30.7123624 6.35477445,30.6325625 6.10529754,30.2788547 C5.9466045,30.0617414 5.91229249,29.7878335 5.99163901,29.5599364 L5.98020167,29.5599364 L9.29345512,19.3929938 L0.681855486,13.1276208 C0.318720048,12.8652156 0.239373526,12.3634106 0.500287767,12.0089839 C0.670418149,11.7695841 0.931332391,11.6552761 1.20368397,11.6782815 L11.7782165,11.6897842 L15.0457206,1.52212263 C15.181539,1.10011759 15.6240209,0.871501569 16.0443431,0.997312271 C16.3052573,1.08933381 16.4861102,1.28272284 16.5661715,1.52284155 L16.5661715,1.52284155 Z M18.4833551,12.7394049 L15.8055887,4.37550937 L13.1163849,12.7401238 L13.1163849,12.7401238 C13.0141637,13.0708262 12.7082149,13.2994422 12.3565168,13.2994422 L3.61982133,13.2872206 L10.6995327,18.4339568 L10.6995327,18.4339568 C10.9718843,18.6395674 11.0969801,18.9932752 10.9833216,19.3354803 L8.271958,27.688592 L15.3180722,22.5195695 C15.5904238,22.3139588 15.9764339,22.3024561 16.2709453,22.5080668 L23.327782,27.688592 L20.6271409,19.3699884 C20.502045,19.039286 20.6042662,18.6510701 20.8994924,18.4339568 L27.9906411,13.2872206 L19.2768203,13.2987233 C18.925837,13.3217287 18.5970136,13.0931127 18.4833551,12.7394049 L18.4833551,12.7394049 Z" id="Shape"></path>
                                    </g>
                                    <g id="star-(1)" transform="translate(121.000000, 11.000000)" stroke="#859DBA" stroke-width="0.5">
                                        <path d="M10.7633827,0.85244378 L12.8026021,7.22027772 L19.4606198,7.21307378 C19.7377388,7.21307378 19.9651643,7.43459498 19.9651643,7.71329746 C19.9651643,7.87763738 19.8801036,8.02756941 19.7592278,8.1207704 L19.7592278,8.1207704 L14.365929,12.044217 L16.4338004,18.4116007 C16.5188612,18.6758953 16.376944,18.9545978 16.1141511,19.0405948 C15.9435819,19.0977761 15.7586867,19.0550027 15.6310956,18.9478441 L10.2870426,15.0239472 L4.9080698,18.9690056 C4.68064424,19.1333456 4.36815793,19.0833682 4.21191478,18.861847 C4.11252801,18.7258726 4.09103898,18.5543288 4.14073237,18.4116007 L4.13356936,18.4116007 L6.20860379,12.044217 L0.815305016,8.12032015 C0.587879451,7.95598024 0.53818607,7.6417083 0.701592233,7.41973685 C0.808142006,7.26980482 0.971548169,7.19821565 1.14211734,7.21262354 L7.76476769,7.21982748 L9.81115008,0.851993533 C9.89621083,0.587698933 10.1733298,0.444520598 10.4365704,0.523313707 C10.5999766,0.580945238 10.7132416,0.702061503 10.7633827,0.85244378 L10.7633827,0.85244378 Z M11.9640822,7.87718713 L10.2870426,2.63902125 L8.60283985,7.87763738 L8.60283985,7.87763738 C8.53882045,8.08475069 8.34720993,8.22792903 8.12694738,8.22792903 L2.65530319,8.22027484 L7.08920632,11.4435884 L7.08920632,11.4435884 C7.25977549,11.5723588 7.33812091,11.79388 7.2669385,12.0081973 L5.56885747,17.2396095 L9.98171926,14.0023383 C10.1522884,13.8735678 10.39404,13.8663639 10.5784875,13.9951344 L14.9980646,17.2396095 L13.3066989,12.0298091 C13.2283535,11.8226958 13.2923729,11.5795628 13.4772681,11.4435884 L17.9183342,8.22027484 L12.4610161,8.22747878 C12.2412012,8.24188666 12.0352647,8.09870833 11.9640822,7.87718713 L11.9640822,7.87718713 Z" id="Shape"></path>
                                    </g>
                                </g>
                            </g>
                        </g>
                    </g>
                </g>
            </g>
        </g>
    </g>
</svg>