<?xml version="1.0" encoding="UTF-8" standalone="no"?>
<svg width="138px" height="138px" viewBox="0 0 138 138" version="1.1" xmlns="http://www.w3.org/2000/svg" xmlns:xlink="http://www.w3.org/1999/xlink">
    <!-- Generator: Sketch 44.1 (41455) - http://www.bohemiancoding.com/sketch -->
    <title>puzzle</title>
    <desc>Created with Sketch.</desc>
    <defs></defs>
    <g id="Page-1" stroke="none" stroke-width="1" fill="none" fill-rule="evenodd">
        <g id="Desktop-HD" transform="translate(-347.000000, -750.000000)" fill-rule="nonzero">
            <g id="Group-6" transform="translate(341.000000, 667.000000)">
                <g id="Group-9" transform="translate(0.000000, 83.000000)">
                    <g id="Group-25">
                        <g id="Group-9" transform="translate(6.000000, 0.000000)">
                            <g id="Group-23">
                                <g id="puzzle">
                                    <path d="M115.231429,60.9437143 L137.776571,54.0597143 L122.631714,3.11771429 C121.943429,0.708285714 119.534,-0.496285714 117.124571,0.192 L66.8711429,15.5091429 L73.7551429,38.3985714 C74.6157143,36.6774286 76.1645714,35.3008571 78.0577143,34.7845714 C82.3602857,33.4077143 86.8348571,36.5057143 87.1791429,41.1522857 C87.3511429,43.906 85.8022857,46.6594286 83.3928571,47.8642857 C80.9834286,49.0688571 78.574,48.8968571 76.5088571,47.6922857 L83.3928571,70.5817143 L105.938,63.6977143 C104.733429,65.7628571 104.561143,68.3445714 105.766,70.5817143 C106.970571,72.9911429 109.724286,74.54 112.478,74.368 C117.124857,74.0237143 120.050571,69.3771429 118.845714,65.0745714 C118.329429,63.1811429 116.952571,61.632 115.231429,60.9437143 Z" id="Shape" fill="#F9A53D"></path>
                                    <path d="M62.0522857,44.25 C59.9871429,44.25 58.266,45.1105714 56.8891429,46.4874286 L56.8891429,22.7374286 L4.39857143,22.7374286 C1.98914286,22.7374286 0.096,24.6305714 0.096,27.212 L0.096,80.2191429 L23.6737143,80.2191429 C22.2968571,78.8422857 21.4362857,77.1214286 21.4362857,75.056 C21.4362857,70.5814286 25.5665714,66.9671429 30.2134286,68.172 C32.7948571,68.8602857 35.0322857,71.0977143 35.5485714,73.6791429 C36.0648571,76.2605714 35.2042857,78.67 33.4834286,80.2188571 L57.0611429,80.2188571 L57.0611429,56.2968571 C58.61,58.018 61.0194286,58.8782857 63.6008571,58.362 C66.3545714,57.8457143 68.4197143,55.7805714 69.108,53.0268571 C69.9688571,48.3802857 66.5268571,44.25 62.0522857,44.25 Z" id="Shape" fill="#395368"></path>
                                    <path d="M90.1048571,80.2188571 C91.826,81.7677143 92.6862857,84.1771429 92.17,86.7585714 C91.6537143,89.5122857 89.5885714,91.7494286 86.8348571,92.2657143 C82.188,93.2982857 78.0577143,89.8562857 78.0577143,85.3817143 C78.0577143,83.3165714 78.9182857,81.4234286 80.2951429,80.2185714 L56.8894286,80.2185714 L56.8894286,104.140571 C55.3405714,102.419429 52.9311429,101.559143 50.3497143,102.075429 C47.596,102.591714 45.5308571,104.656857 44.8425714,107.410571 C43.81,112.057429 47.252,116.187714 51.7265714,116.187714 C53.7917143,116.187714 55.5128571,115.327143 56.8897143,113.950286 L56.8897143,137.872286 L109.38,137.872286 C111.789429,137.872286 113.682571,135.979143 113.682571,133.397714 L113.682571,80.2188571 L90.1048571,80.2188571 Z" id="Shape" fill="#F05244"></path>
                                    <path d="M50.3494286,101.903714 C52.9308571,101.387429 55.3402857,102.42 56.8891429,103.968857 L56.8891429,80.2188571 L33.3114286,80.2188571 C35.0325714,78.67 35.8928571,76.2605714 35.3765714,73.6791429 C34.8602857,70.9254286 32.7951429,68.6882857 30.0414286,68.172 C25.3945714,67.1394286 21.2642857,70.5814286 21.2642857,75.056 C21.2642857,77.1211429 22.1248571,79.0142857 23.5017143,80.2191429 L0.096,80.2191429 L0.096,133.226286 C0.096,135.635714 1.98914286,137.700857 4.39857143,137.700857 L56.8894286,137.700857 L56.8894286,113.778857 C55.6848571,115.155714 53.7917143,116.016286 51.7262857,116.016286 C47.2517143,116.016286 43.8097143,111.886 44.8422857,107.239143 C45.5305714,104.657429 47.768,102.42 50.3494286,101.903714 Z" id="Shape" fill="#EEF2F3"></path>
                                </g>
                            </g>
                        </g>
                    </g>
                </g>
            </g>
        </g>
    </g>
</svg>