<?xml version="1.0" encoding="UTF-8"?>
<svg width="441px" height="441px" viewBox="0 0 441 441" version="1.1" xmlns="http://www.w3.org/2000/svg" xmlns:xlink="http://www.w3.org/1999/xlink">
    <!-- Generator: Sketch 47.1 (45422) - http://www.bohemiancoding.com/sketch -->
    <title>Group 17</title>
    <desc>Created with Sketch.</desc>
    <defs></defs>
    <g id="Page-1" stroke="none" stroke-width="1" fill="none" fill-rule="evenodd">
        <g id="Artboard">
            <g id="Group-17">
                <g id="Group-15" transform="translate(0.420561, 0.000000)">
                    <g id="Group-14">
                        <path d="M327.962329,258.263091 L361.857658,296.436068 L435.397552,273.504231 C465.663155,105.68183 337.406099,33.7568359 337.406099,33.7568359 L347.827974,108.945801 L298.873473,135.887059 C320.701641,157.326935 334.239092,187.170225 334.239092,220.173415 C334.239092,233.500311 332.031681,246.311955 327.962329,258.263091 Z" id="Combined-Shape" fill="#00AAE1"></path>
                        <path d="M223.584038,331.258791 L194.404067,380.737415 L245.206663,439.288011 C407.697549,413.27295 435.560625,276.22853 435.560625,276.22853 L361.863917,299.346445 L327.263825,260.752885 C309.528783,301.002311 269.98124,329.488832 223.584038,331.258791 Z" id="Combined-Shape" fill="#00D7E1"></path>
                        <path d="M114.686789,255.032811 L60.8934338,242.328095 L17.2183374,306.575947 C95.844493,461.617672 240.016315,439.8097 240.016315,439.8097 L191.111652,381.117705 L220.231421,330.833739 C171.959664,328.862948 131.149713,297.97102 114.686789,255.032811 Z" id="Combined-Shape" fill="#00D2AA"></path>
                        <path d="M154.169,126.769385 L145.837845,71.4607126 L70.8311771,56.0622548 C-44.1410072,172.550831 15.8106837,304.515963 15.8106837,304.515963 L59.5531074,238.593046 L113.389692,252.137189 C110.463335,241.848366 108.896897,230.987511 108.896897,219.76102 C108.896897,182.016034 126.603839,148.404188 154.169,126.769385 Z" id="Combined-Shape" fill="#00AAE1"></path>
                        <path d="M297.357292,134.407142 L345.16191,107.772483 L334.138833,31.9644462 C185.67449,-50.5257001 74.029847,54.0111133 74.029847,54.0111133 L147.729611,69.6048679 L157.15312,125.369861 C175.597968,113.484928 197.564226,106.588235 221.142282,106.588235 C250.181365,106.588235 276.775551,117.049655 297.357293,134.407138 Z" id="Combined-Shape" fill="#0082D2"></path>
                    </g>
                </g>
                <g id="Group-2" transform="translate(204.000000, 17.000000)">
                    <path d="M32.9564494,56.9701664 C32.9564494,58.2628161 32.5885332,59.2528778 31.8526897,59.9403812 C31.1168461,60.6278846 30.0542754,60.9716312 28.6649455,60.9716312 L26.4413127,60.9716312 L26.4413127,53.1190921 L28.9066447,53.1190921 C30.1885522,53.1190921 31.1839849,53.4574677 31.8929729,54.1342289 C32.6019608,54.8109901 32.9564494,55.7562931 32.9564494,56.9701664 Z M31.2269572,57.0131351 C31.2269572,55.3266032 30.482173,54.48335 28.9925822,54.48335 L28.1063518,54.48335 L28.1063518,59.5966312 L28.8207072,59.5966312 C30.4248819,59.5966312 31.2269572,58.7354745 31.2269572,57.0131351 Z M39.1708049,60.9716312 L38.601469,59.1024906 L35.738676,59.1024906 L35.16934,60.9716312 L33.3753947,60.9716312 L36.1468791,53.0868656 L38.1825236,53.0868656 L40.9647502,60.9716312 L39.1708049,60.9716312 Z M38.204008,57.7060062 C37.6776382,56.0123128 37.3813358,55.0544774 37.315092,54.832471 C37.2488482,54.6104647 37.201404,54.4350108 37.172758,54.3061039 C37.0545934,54.7644395 36.7162178,55.8977289 36.1576213,57.7060062 L38.204008,57.7060062 Z M44.2142619,60.9716312 L42.5492229,60.9716312 L42.5492229,54.5048343 L40.4168986,54.5048343 L40.4168986,53.1190921 L46.3465861,53.1190921 L46.3465861,54.5048343 L44.2142619,54.5048343 L44.2142619,60.9716312 Z M51.5941447,60.9716312 L51.0248088,59.1024906 L48.1620158,59.1024906 L47.5926799,60.9716312 L45.7987346,60.9716312 L48.570219,53.0868656 L50.6058635,53.0868656 L53.38809,60.9716312 L51.5941447,60.9716312 Z M50.6273479,57.7060062 C50.100978,56.0123128 49.8046757,55.0544774 49.7384318,54.832471 C49.672188,54.6104647 49.6247438,54.4350108 49.5960979,54.3061039 C49.4779332,54.7644395 49.1395577,55.8977289 48.5809611,57.7060062 L50.6273479,57.7060062 Z M16.5665568,71.9701664 C16.5665568,73.2628161 16.1986406,74.2528778 15.4627971,74.9403812 C14.7269536,75.6278846 13.6643828,75.9716312 12.2750529,75.9716312 L10.0514201,75.9716312 L10.0514201,68.1190921 L12.5167522,68.1190921 C13.7986596,68.1190921 14.7940924,68.4574677 15.5030803,69.1342289 C16.2120682,69.8109901 16.5665568,70.7562931 16.5665568,71.9701664 Z M14.8370647,72.0131351 C14.8370647,70.3266032 14.0922804,69.48335 12.6026897,69.48335 L11.7164592,69.48335 L11.7164592,74.5966312 L12.4308147,74.5966312 C14.0349893,74.5966312 14.8370647,73.7354745 14.8370647,72.0131351 Z M18.1939982,75.9716312 L18.1939982,68.1190921 L19.8590373,68.1190921 L19.8590373,75.9716312 L18.1939982,75.9716312 Z M26.4708537,73.7909671 C26.4708537,74.4999551 26.2157293,75.0585432 25.7054729,75.4667484 C25.1952164,75.8749536 24.4853439,76.0790531 23.5758342,76.0790531 C22.7379394,76.0790531 21.9967358,75.9215026 21.3522014,75.6063968 L21.3522014,74.0595218 C21.8821519,74.2958511 22.3306338,74.4623534 22.6976604,74.5590335 C23.0646869,74.6557137 23.4003769,74.7040531 23.7047404,74.7040531 C24.0699766,74.7040531 24.3501659,74.6342296 24.5453166,74.4945804 C24.7404673,74.3549313 24.8380412,74.1472511 24.8380412,73.8715335 C24.8380412,73.7175614 24.7950729,73.5805999 24.709135,73.4606449 C24.623197,73.3406899 24.4969776,73.2252125 24.3304729,73.1142093 C24.1639681,73.0032062 23.8246974,72.8259619 23.3126506,72.582471 C22.8328305,72.356884 22.4729708,72.140252 22.2330607,71.9325687 C21.9931507,71.7248854 21.8015836,71.4831886 21.6583537,71.207471 C21.5151238,70.9317535 21.44351,70.6094911 21.44351,70.2406742 C21.44351,69.5460092 21.6789406,68.9999535 22.1498088,68.6024906 C22.620677,68.2050277 23.2714681,68.0062992 24.1022014,68.0062992 C24.5104065,68.0062992 24.8998069,68.0546385 25.2704143,68.1513187 C25.6410216,68.2479989 26.0286316,68.3840652 26.4332561,68.5595218 L25.8961467,69.8539554 C25.4771993,69.6820796 25.1307672,69.5621263 24.85684,69.4940921 C24.5829129,69.4260579 24.3134657,69.3920414 24.0484904,69.3920414 C23.7333847,69.3920414 23.4916879,69.4654456 23.3233928,69.6122562 C23.1550977,69.7590668 23.0709514,69.9506339 23.0709514,70.1869632 C23.0709514,70.3337739 23.104968,70.4617837 23.1730022,70.5709964 C23.2410363,70.6802092 23.3493523,70.7858397 23.4979533,70.887891 C23.6465543,70.9899423 23.9983575,71.1734528 24.5533732,71.4384281 C25.2874264,71.7893413 25.7905138,72.1411444 26.0626506,72.493848 C26.3347874,72.8465516 26.4708537,73.2789203 26.4708537,73.7909671 Z M31.2296428,69.3920414 C30.603012,69.3920414 30.1178281,69.627472 29.7740764,70.0983402 C29.4303247,70.5692084 29.2584514,71.2253705 29.2584514,72.066846 C29.2584514,73.8178314 29.9155086,74.6933109 31.2296428,74.6933109 C31.7810778,74.6933109 32.4488771,74.5554542 33.2330607,74.2797367 L33.2330607,75.676221 C32.5885263,75.9447771 31.8688069,76.0790531 31.0738811,76.0790531 C29.9316227,76.0790531 29.0579336,75.732621 28.4527873,75.0397464 C27.8476411,74.3468719 27.5450725,73.3523343 27.5450725,72.0561039 C27.5450725,71.2396935 27.6936712,70.52445 27.9908732,69.9103519 C28.2880753,69.2962538 28.7150729,68.8253926 29.2718791,68.4977543 C29.8286853,68.1701159 30.4812666,68.0062992 31.2296428,68.0062992 C31.9923419,68.0062992 32.7586103,68.1907049 33.5284709,68.5595218 L32.9913615,69.9130375 C32.6977403,69.7733883 32.4023331,69.6516447 32.1051311,69.5478031 C31.8079291,69.4439614 31.5161025,69.3920414 31.2296428,69.3920414 Z M41.8106975,72.0346195 C41.8106975,73.3344307 41.4884351,74.3334441 40.8439006,75.0316898 C40.1993661,75.7299355 39.2755472,76.0790531 38.0724162,76.0790531 C36.8692852,76.0790531 35.9454663,75.7299355 35.3009318,75.0316898 C34.6563974,74.3334441 34.334135,73.33085 34.334135,72.0238773 C34.334135,70.7169046 34.6572925,69.7187863 35.3036174,69.0294925 C35.9499422,68.3401987 36.8764466,67.995557 38.0831584,67.995557 C39.2898702,67.995557 40.2127939,68.3428842 40.8519572,69.0375492 C41.4911206,69.7322141 41.8106975,70.7312276 41.8106975,72.0346195 Z M36.0797404,72.0346195 C36.0797404,72.9119025 36.2462427,73.5725404 36.5792522,74.0165531 C36.9122616,74.4605657 37.409978,74.6825687 38.0724162,74.6825687 C39.4008734,74.6825687 40.065092,73.7999278 40.065092,72.0346195 C40.065092,70.2657304 39.4044541,69.3812992 38.0831584,69.3812992 C37.4207202,69.3812992 36.9212135,69.6041973 36.5846232,70.0500003 C36.248033,70.4958034 36.0797404,71.1573365 36.0797404,72.0346195 Z M47.8102092,68.1190921 L49.4913615,68.1190921 L46.8219279,75.9716312 L45.0064982,75.9716312 L42.3424357,68.1190921 L44.0235881,68.1190921 L45.5006389,72.7919437 C45.5829961,73.0676612 45.6680375,73.3890285 45.7557658,73.756055 C45.8434941,74.1230816 45.8980997,74.378206 45.9195842,74.5214359 C45.9589724,74.1920072 46.0932484,73.6155155 46.3224162,72.7919437 L47.8102092,68.1190921 Z M55.0021037,75.9716312 L50.4796428,75.9716312 L50.4796428,68.1190921 L55.0021037,68.1190921 L55.0021037,69.48335 L52.1446818,69.48335 L52.1446818,71.207471 L54.8033732,71.207471 L54.8033732,72.5717289 L52.1446818,72.5717289 L52.1446818,74.5966312 L55.0021037,74.5966312 L55.0021037,75.9716312 Z M58.3053264,71.604932 L58.8424357,71.604932 C59.3688056,71.604932 59.7573108,71.517205 60.0079631,71.3417484 C60.2586154,71.1662918 60.3839397,70.8905784 60.3839397,70.5146 C60.3839397,70.1422023 60.2559299,69.877231 59.9999065,69.7196781 C59.743883,69.5621252 59.3473212,69.48335 58.8102092,69.48335 L58.3053264,69.48335 L58.3053264,71.604932 Z M58.3053264,72.9584476 L58.3053264,75.9716312 L56.6402873,75.9716312 L56.6402873,68.1190921 L58.9283732,68.1190921 C59.9954359,68.1190921 60.7849788,68.3133448 61.2970256,68.7018558 C61.8090724,69.0903669 62.065092,69.6802861 62.065092,70.4716312 C62.065092,70.9335476 61.9379774,71.3444321 61.6837443,71.7042972 C61.4295113,72.0641623 61.0696516,72.3461419 60.6041545,72.5502445 C61.785801,74.3155528 62.5556501,75.4560036 62.9137248,75.9716312 L61.0660686,75.9716312 L59.1915568,72.9584476 L58.3053264,72.9584476 Z M66.3458537,71.3524906 L67.9840373,68.1190921 L69.7779826,68.1190921 L67.1730022,72.9154789 L67.1730022,75.9716312 L65.5187053,75.9716312 L65.5187053,72.9691898 L62.9137248,68.1190921 L64.7184123,68.1190921 L66.3458537,71.3524906 Z" id="DATA-DISCOVERY" fill="#FFFFFF"></path>
                    <g id="Group-18" transform="translate(16.948598, 0.780142)">
                        <g id="copy" transform="translate(14.328200, 0.000000)">
                            <g id="Capa_1">
                                <g id="Group">
                                    <path d="M0.0536185813,34.7311079 C0.134511927,36.3485551 1.42134191,38.2323093 2.99404706,38.2323093 L20.5774044,38.2133884 C22.2021994,38.2133884 23.7493862,36.381465 23.7493862,34.7311079 L23.7493862,9.51862525 C23.7417581,7.86826809 22.1723392,6.21528052 20.5551724,6.21528052 L2.89873925,6.21528052 C1.27394429,6.21528052 0.0495829449,7.95735589 0.0495829449,9.60771305 L0.0495829449,10.103595 L2.10155405,10.103595 L2.10155405,9.60771305 C2.10155405,9.11183108 2.50584576,8.20417212 2.99404706,8.20417212 L20.3023089,8.20417212 C20.7905102,8.20417212 21.7292446,9.02274328 21.7292446,9.51862525 L21.7292446,34.8213596 C21.7292446,35.3172416 20.7981384,36.2150364 20.3099371,36.2150364 L2.99404706,36.2150364 C2.55285156,36.2150364 2.18018529,35.2776185 2.11251208,34.7311079 L0.0536185813,34.7311079 Z" id="Combined-Shape" fill="#FFFFFF" fill-rule="nonzero"></path>
                                    <path d="M11.7322048,13.2214511 L18.7291226,13.2214756" id="Line" stroke="#FFFFFF" stroke-width="2" stroke-linecap="square"></path>
                                    <path d="M15.7286343,21.2089939 L18.7184109,21.2089939" id="Line" stroke="#FFFFFF" stroke-width="2" stroke-linecap="square"></path>
                                    <path d="M16,26 C16,26 19,26 19,26" id="Line" stroke="#FFFFFF" stroke-width="2" stroke-linecap="square"></path>
                                    <path d="M11.715939,31.2125637 L18.7333035,31.2125645" id="Line" stroke="#FFFFFF" stroke-width="2" stroke-linecap="square"></path>
                                    <path d="M26.7362942,0.219949709 L9.71969262,0.219949709 C8.09489765,0.219949709 6.67081313,1.34043093 6.67081313,2.99078809 C6.67081313,3.57189977 7.12850185,4.03678911 7.70061276,4.03678911 C8.27272366,4.03678911 8.73041238,3.57189977 8.73041238,2.99078809 C8.73041238,2.49490613 9.23149132,2.22712134 9.71969262,2.22712134 L26.7362942,2.20878028 C27.2244955,2.20878028 27.7115749,2.67774206 27.7115749,3.17362403 L27.7115749,28.2258091 C27.7115749,28.721691 27.4193685,29.1253172 26.9311672,29.1253172 C26.3590563,29.1253172 25.9013676,29.5902066 25.9013676,30.1713182 C25.9013676,30.7524299 26.3590563,31.2173192 26.9311672,31.2173192 C28.5559622,31.2173192 29.7303127,29.816779 29.7303127,28.1664219 L29.7303127,2.99078809 C29.7303127,1.34043093 28.3610891,0.219949709 26.7362942,0.219949709 Z" id="Shape" fill="#FFFFFF" fill-rule="nonzero"></path>
                                </g>
                            </g>
                        </g>
                        <g id="loupe-(1)" transform="translate(0.000000, 12.629494)" fill-rule="nonzero" fill="#FFFFFF">
                            <g id="Layer_1">
                                <path d="M25.0549914,3.01674082 C21.0899578,-1.00239823 14.6385447,-1.00239823 10.6735658,3.01674082 C8.75278281,4.96365005 7.6950682,7.55231394 7.6950682,10.3057039 C7.6950682,12.8139473 8.57324838,15.1851594 10.1815572,17.0594737 L8.97047995,18.2870938 L7.7362423,17.0359969 C7.60100288,16.8989102 7.41752625,16.8218752 7.22627471,16.8218752 C7.03502318,16.8218752 6.85154654,16.8989102 6.71630712,17.0359969 L0.933809026,22.8975374 C0.331637717,23.5078231 0,24.3192989 0,25.1825014 C0,26.0456484 0.331637717,26.8571797 0.93369952,27.4674654 C1.53587083,28.0778622 2.33641154,28.4139744 3.18787235,28.4139744 C4.03933316,28.4139744 4.83998337,28.0778067 5.44204518,27.4675209 L11.224598,21.6060915 C11.3598374,21.4690047 11.4358343,21.2830219 11.4358343,21.0891579 C11.4358343,20.8952939 11.3598374,20.7093111 11.224598,20.5722243 L9.99036038,19.3211274 L11.2018209,18.0931188 C13.1068351,19.7700726 15.4853515,20.6090213 17.8642512,20.6090213 C20.4683492,20.6090213 23.0725019,19.6042365 25.0549914,17.5947225 C26.9756101,15.6477578 28.0334343,13.0592049 28.0334343,10.3058149 C28.0334343,7.55225844 26.9757196,4.96365005 25.0549914,3.01674082 Z M4.42210999,26.4335983 C4.09244338,26.767768 3.6541472,26.9518084 3.18787235,26.9518084 C2.72165225,26.9518084 2.28330132,26.7677125 1.9536347,26.4335428 C1.62402284,26.0994285 1.4424078,25.6550899 1.4424078,25.1825569 C1.4424078,24.7100239 1.62402284,24.2656297 1.95368945,23.93146 L5.18049104,20.6605814 L7.64896634,23.1626642 L4.42210999,26.4335983 Z M8.66901103,22.1287416 L6.20053573,19.6265478 L7.22627471,18.5867976 L9.69475,21.0890469 L8.66901103,22.1287416 Z M24.0350014,16.5607444 C20.6324433,20.0098912 15.0961138,20.0098912 11.6935558,16.5607444 C10.0452774,14.8899511 9.13753075,12.6685909 9.13753075,10.3057039 C9.13753075,7.9428169 10.0452774,5.72145668 11.6935558,4.05071896 C13.3948348,2.32620105 15.6295704,1.4638866 17.864306,1.4638866 C20.0989868,1.4638866 22.3337771,2.32609005 24.0350562,4.05071896 C25.6833345,5.72145668 26.5910812,7.9428724 26.5910812,10.3057039 C26.5910812,12.6685354 25.6832798,14.8899511 24.0350014,16.5607444 Z" id="Shape"></path>
                                <path d="M22.8447303,5.25708228 C20.0984393,2.47338892 15.6300084,2.47327792 12.8837174,5.25708228 C10.1375359,8.04088664 10.1375359,12.5703547 12.8837722,15.354159 C14.2569177,16.7459502 16.0605297,17.4419291 17.8642512,17.4419291 C19.6679728,17.4419291 21.4716395,16.7459502 22.844785,15.354159 L22.844785,15.3541035 C25.5909665,12.5704102 25.5909665,8.04088664 22.8447303,5.25708228 Z M21.8247404,14.3202919 C19.6408701,16.533993 16.0875776,16.533993 13.9037073,14.3203474 C11.7198371,12.1066463 11.7198371,8.50476153 13.9036526,6.29106041 C14.9956972,5.18404335 16.4297278,4.63081232 17.8642512,4.63081232 C19.2983913,4.63081232 20.7329695,5.18437636 21.8247404,6.29106041 C24.0086106,8.50470603 24.0086106,12.1065908 21.8247404,14.3202919 Z" id="Shape"></path>
                            </g>
                        </g>
                    </g>
                </g>
                <g id="Group-21" transform="translate(227.000000, 340.000000)">
                    <path d="M47.5756083,50.8354146 C47.5756083,52.1280643 47.2076921,53.118126 46.4718485,53.8056294 C45.736005,54.4931329 44.6734343,54.8368794 43.2841044,54.8368794 L41.0604716,54.8368794 L41.0604716,46.9843404 L43.5258036,46.9843404 C44.8077111,46.9843404 45.8031438,47.3227159 46.5121317,47.9994771 C47.2211197,48.6762383 47.5756083,49.6215413 47.5756083,50.8354146 Z M45.8461161,50.8783833 C45.8461161,49.1918515 45.1013319,48.3485982 43.6117411,48.3485982 L42.7255106,48.3485982 L42.7255106,53.4618794 L43.4398661,53.4618794 C45.0440408,53.4618794 45.8461161,52.6007227 45.8461161,50.8783833 Z M53.7899638,54.8368794 L53.2206278,52.9677388 L50.3578349,52.9677388 L49.7884989,54.8368794 L47.9945536,54.8368794 L50.766038,46.9521138 L52.8016825,46.9521138 L55.5839091,54.8368794 L53.7899638,54.8368794 Z M52.8231669,51.5712544 C52.2967971,49.8775611 52.0004947,48.9197256 51.9342509,48.6977193 C51.8680071,48.475713 51.8205629,48.300259 51.7919169,48.1713521 C51.6737522,48.6296877 51.3353767,49.7629772 50.7767802,51.5712544 L52.8231669,51.5712544 Z M58.8334208,54.8368794 L57.1683817,54.8368794 L57.1683817,48.3700826 L55.0360575,48.3700826 L55.0360575,46.9843404 L60.965745,46.9843404 L60.965745,48.3700826 L58.8334208,48.3700826 L58.8334208,54.8368794 Z M66.2133036,54.8368794 L65.6439677,52.9677388 L62.7811747,52.9677388 L62.2118388,54.8368794 L60.4178935,54.8368794 L63.1893778,46.9521138 L65.2250224,46.9521138 L68.0072489,54.8368794 L66.2133036,54.8368794 Z M65.2465067,51.5712544 C64.7201369,49.8775611 64.4238345,48.9197256 64.3575907,48.6977193 C64.2913469,48.475713 64.2439027,48.300259 64.2152567,48.1713521 C64.0970921,48.6296877 63.7587166,49.7629772 63.20012,51.5712544 L65.2465067,51.5712544 Z M21.0773173,69.8368794 L16.5548563,69.8368794 L16.5548563,61.9843404 L21.0773173,61.9843404 L21.0773173,63.3485982 L18.2198954,63.3485982 L18.2198954,65.0727193 L20.8785868,65.0727193 L20.8785868,66.4369771 L18.2198954,66.4369771 L18.2198954,68.4618794 L21.0773173,68.4618794 L21.0773173,69.8368794 Z M29.0641337,69.8368794 L27.1627665,69.8368794 L25.3365946,66.8666646 L23.5104228,69.8368794 L21.7272196,69.8368794 L24.3322001,65.7870747 L21.8937235,61.9843404 L23.7306376,61.9843404 L25.4225321,64.8095357 L27.0822001,61.9843404 L28.8761454,61.9843404 L26.4108134,65.8783833 L29.0641337,69.8368794 Z M31.717454,65.6796529 L32.2653056,65.6796529 C32.7773524,65.6796529 33.1604866,65.5784983 33.4147196,65.3761861 C33.6689527,65.1738739 33.7960673,64.8793618 33.7960673,64.4926412 C33.7960673,64.1023397 33.6895417,63.8140939 33.4764872,63.6278951 C33.2634328,63.4416962 32.9295331,63.3485982 32.4747782,63.3485982 L31.717454,63.3485982 L31.717454,65.6796529 Z M35.4772196,64.4335591 C35.4772196,65.2786154 35.2131435,65.9249306 34.6849833,66.372524 C34.1568231,66.8201173 33.4057727,67.0439107 32.4318095,67.0439107 L31.717454,67.0439107 L31.717454,69.8368794 L30.0524149,69.8368794 L30.0524149,61.9843404 L32.5607157,61.9843404 C33.5131944,61.9843404 34.2373897,62.1893351 34.7333231,62.5993306 C35.2292566,63.0093261 35.4772196,63.6207295 35.4772196,64.4335591 Z M36.9596415,69.8368794 L36.9596415,61.9843404 L38.6246806,61.9843404 L38.6246806,68.4618794 L41.8097392,68.4618794 L41.8097392,69.8368794 L36.9596415,69.8368794 Z M50.0812235,65.8998677 C50.0812235,67.1996789 49.7589611,68.1986923 49.1144267,68.896938 C48.4698922,69.5951837 47.5460733,69.9443013 46.3429423,69.9443013 C45.1398113,69.9443013 44.2159924,69.5951837 43.5714579,68.896938 C42.9269234,68.1986923 42.604661,67.1960982 42.604661,65.8891255 C42.604661,64.5821528 42.9278186,63.5840346 43.5741435,62.8947408 C44.2204683,62.2054469 45.1469727,61.8608052 46.3536845,61.8608052 C47.5603962,61.8608052 48.4833199,62.2081325 49.1224833,62.9027974 C49.7616467,63.5974623 50.0812235,64.5964758 50.0812235,65.8998677 Z M44.3502665,65.8998677 C44.3502665,66.7771507 44.5167687,67.4377887 44.8497782,67.8818013 C45.1827877,68.3258139 45.6805041,68.5478169 46.3429423,68.5478169 C47.6713994,68.5478169 48.3356181,67.665176 48.3356181,65.8998677 C48.3356181,64.1309787 47.6749801,63.2465474 46.3536845,63.2465474 C45.6912463,63.2465474 45.1917395,63.4694456 44.8551493,63.9152486 C44.5185591,64.3610516 44.3502665,65.0225847 44.3502665,65.8998677 Z M53.373704,65.4701802 L53.9108134,65.4701802 C54.4371832,65.4701802 54.8256884,65.3824532 55.0763407,65.2069966 C55.326993,65.03154 55.4523173,64.7558266 55.4523173,64.3798482 C55.4523173,64.0074505 55.3243075,63.7424792 55.0682841,63.5849263 C54.8122607,63.4273734 54.4156989,63.3485982 53.8785868,63.3485982 L53.373704,63.3485982 L53.373704,65.4701802 Z M53.373704,66.8236958 L53.373704,69.8368794 L51.7086649,69.8368794 L51.7086649,61.9843404 L53.9967509,61.9843404 C55.0638135,61.9843404 55.8533564,62.178593 56.3654032,62.567104 C56.8774501,62.9556151 57.1334696,63.5455343 57.1334696,64.3368794 C57.1334696,64.7987958 57.006355,65.2096804 56.752122,65.5695454 C56.4978889,65.9294105 56.1380292,66.2113901 55.6725321,66.4154927 C56.8541787,68.180801 57.6240277,69.3212519 57.9821024,69.8368794 L56.1344462,69.8368794 L54.2599345,66.8236958 L53.373704,66.8236958 Z M63.7775126,69.8368794 L63.2081767,67.9677388 L60.3453837,67.9677388 L59.7760478,69.8368794 L57.9821024,69.8368794 L60.7535868,61.9521138 L62.7892313,61.9521138 L65.5714579,69.8368794 L63.7775126,69.8368794 Z M62.8107157,66.5712544 C62.2843459,64.8775611 61.9880435,63.9197256 61.9217997,63.6977193 C61.8555559,63.475713 61.8081117,63.300259 61.7794657,63.1713521 C61.6613011,63.6296877 61.3229255,64.7629772 60.764329,66.5712544 L62.8107157,66.5712544 Z M68.8209696,69.8368794 L67.1559306,69.8368794 L67.1559306,63.3700826 L65.0236063,63.3700826 L65.0236063,61.9843404 L70.9532938,61.9843404 L70.9532938,63.3700826 L68.8209696,63.3700826 L68.8209696,69.8368794 Z M72.1617899,69.8368794 L72.1617899,61.9843404 L73.826829,61.9843404 L73.826829,69.8368794 L72.1617899,69.8368794 Z M82.9308329,65.8998677 C82.9308329,67.1996789 82.6085705,68.1986923 81.964036,68.896938 C81.3195016,69.5951837 80.3956827,69.9443013 79.1925517,69.9443013 C77.9894206,69.9443013 77.0656018,69.5951837 76.4210673,68.896938 C75.7765328,68.1986923 75.4542704,67.1960982 75.4542704,65.8891255 C75.4542704,64.5821528 75.777428,63.5840346 76.4237528,62.8947408 C77.0700777,62.2054469 77.9965821,61.8608052 79.2032938,61.8608052 C80.4100056,61.8608052 81.3329293,62.2081325 81.9720927,62.9027974 C82.611256,63.5974623 82.9308329,64.5964758 82.9308329,65.8998677 Z M77.1998759,65.8998677 C77.1998759,66.7771507 77.3663781,67.4377887 77.6993876,67.8818013 C78.0323971,68.3258139 78.5301134,68.5478169 79.1925517,68.5478169 C80.5210088,68.5478169 81.1852274,67.665176 81.1852274,65.8998677 C81.1852274,64.1309787 80.5245895,63.2465474 79.2032938,63.2465474 C78.5408556,63.2465474 78.0413489,63.4694456 77.7047587,63.9152486 C77.3681685,64.3610516 77.1998759,65.0225847 77.1998759,65.8998677 Z M91.5245829,69.8368794 L89.408372,69.8368794 L85.9923563,63.8964497 L85.9440165,63.8964497 C86.0120507,64.9456086 86.0460673,65.6939735 86.0460673,66.1415669 L86.0460673,69.8368794 L84.5582743,69.8368794 L84.5582743,61.9843404 L86.658372,61.9843404 L90.0690165,67.865688 L90.1066142,67.865688 C90.052903,66.8451751 90.0260478,66.1236654 90.0260478,65.7011372 L90.0260478,61.9843404 L91.5245829,61.9843404 L91.5245829,69.8368794 Z" id="DATA-EXPLORATION" fill="#FFFFFF"></path>
                    <g id="Group" transform="translate(27.822430, 0.000000)">
                        <path d="M19.8568997,36.7202327 C19.9516714,38.4113652 21.5170095,40.0759277 23.1980169,40.0759277 L42.1715276,40.0759277 C43.9059209,40.0759277 45.2005803,38.695133 45.2005803,36.9502563 L45.2005803,10.027771 C45.1924377,8.28289435 43.8977782,7.00204468 42.1715276,7.00204468 L22.863239,7.00204468 C21.1288458,7.00204468 20.1824834,8.41309068 20.1824834,10.1579673 C20.1824834,10.1579673 20.1789447,10.3425593 20.1726001,10.6822495 L22.1637361,10.6822495 C22.1661515,10.3426137 22.1674993,10.1579673 22.1674993,10.1579673 C22.1674993,9.63368515 22.6768846,9.02539062 23.1980169,9.02539062 L42.1715276,9.02539062 C42.6926599,9.02539062 43.1751897,9.50348881 43.1751897,10.027771 L43.1751897,36.9502563 C43.1751897,37.4745385 42.6926599,37.991272 42.1715276,37.991272 L23.1980169,37.991272 C22.7271187,37.991272 22.1639515,37.2499625 22.059755,36.7202327 L19.8568997,36.7202327 Z" id="Combined-Shape" fill="#FFFFFF" fill-rule="nonzero"></path>
                        <path d="M30.4606704,14 L39.5988716,14" id="Line" stroke="#FFFFFF" stroke-width="2" stroke-linecap="square"></path>
                        <path d="M32.7452207,22 L39.5988716,22" id="Line" stroke="#FFFFFF" stroke-width="2" stroke-linecap="square"></path>
                        <path d="M33.5067375,28 C33.5067375,28 40.3488353,28 40.3488353,28 L33.5067375,28 Z" id="Line" stroke="#FFFFFF" stroke-width="2" stroke-linecap="square"></path>
                        <path d="M36.5528045,33 L39.5988716,33" id="Line" stroke="#FFFFFF" stroke-width="2" stroke-linecap="square"></path>
                        <path d="M48.5472079,0 L30.0632983,0 C28.3289051,0 26.9202194,1.41720028 26.9202194,3.16207693 C26.9202194,3.77647011 27.4087809,4.26798466 28.0194828,4.26798466 C28.6301846,4.26798466 29.1187461,3.77647011 29.1187461,3.16207693 C29.1187461,2.63779474 29.6760912,2.01538086 30.1972234,2.01538086 L48.1686895,2.01538086 C48.6898217,2.01538086 49.1864812,2.52453466 49.1864812,3.04881684 L49.1864812,29.8365479 C49.1864812,30.36083 49.0683402,30.7933864 48.5472079,30.7933864 C47.936506,30.7933864 47.4479446,31.284901 47.4479446,31.8992942 C47.4479446,32.5136874 47.936506,33.0052019 48.5472079,33.0052019 C50.2816012,33.0052019 51.208637,31.5814245 51.208637,29.8365479 L51.208637,3.04881684 C51.208637,1.30394019 50.2816012,0 48.5472079,0 Z" id="Shape" fill="#FFFFFF" fill-rule="nonzero"></path>
                        <g id="binoculars-(4)" transform="translate(0.000000, 11.420168)" fill-rule="nonzero" fill="#FFFFFF">
                            <g id="Layer_1">
                                <path d="M30.4427421,17.6614168 L28.1615963,4.94918534 C27.9884349,3.98395061 27.1804185,3.56954602 26.1868017,3.56954602 L26.1868017,1.5926188 C26.4506521,1.57383253 27.1817052,1.57526955 27.1817052,1.57526955 L27.1817052,0.578641747 C27.1817052,0.578641747 26.3629153,0.591181114 26.1868017,0.578641747 L19.1914343,0.578641747 L18.1649969,0.578641747 L18.1649969,1.5926188 L19.1738317,1.5926188 L19.1914343,3.56954602 C18.47945,3.62399087 18.1649969,3.82972355 18.1649969,4.58196816 L18.1649969,7.57461343 L13.1830022,7.57461343 L13.1830022,4.58196816 C13.1830022,3.82972355 13.1072576,3.56954602 12.1824439,3.56954602 L12.1824439,1.5926188 L13.1830022,1.57526955 L13.1830022,0.578641747 L12.1824439,0.578641747 L5.71361135,0.578641747 L4.17888235,0.578641747 L4.17888235,1.57526955 L5.18126272,1.5926188 C5.18126272,1.5926188 5.18866281,3.51356171 5.18126272,3.56954602 C4.18764592,3.56954602 3.99533153,3.98395061 3.82210763,4.94918534 L1.54096185,17.6614168 C0.652416312,17.9128019 0.179218043,18.6028724 0.179218043,19.5592326 L0.179218043,22.3728922 C0.179218043,23.5294853 1.00231921,24.6028422 2.17459463,24.6028422 L13.1601751,24.6028422 C14.3324505,24.6028422 15.1733282,23.7329002 15.1733282,22.5763072 L15.1733282,19.1981181 C15.1295965,18.0014933 14.0606587,17.4981326 13.1601751,17.5389384 L13.1601751,11.574827 L15.1733282,11.574827 L15.1733282,14.5673502 L16.1775701,14.6056498 L16.1775701,11.574827 L18.1649969,11.574827 L18.1649969,17.576414 C17.5619085,17.6614168 16.1775701,17.7529887 16.1775701,19.1981181 L16.1775701,22.5763072 C16.1775701,23.7329002 16.9927214,24.6028422 18.1649969,24.6028422 L30.1858404,24.6028422 C31.3581158,24.6028422 32.1886785,23.7329002 32.1886785,22.5763072 L32.1886785,18.9921549 C32.1067388,18.118101 31.4046209,17.576414 30.4427421,17.6614168 Z M11.1680181,1.5926188 L11.1680181,3.56954602 L6.18486379,3.56954602 L6.18486379,1.5926188 L11.1680181,1.5926188 Z M5.31758474,4.58196816 L12.1824439,4.58196816 L12.1824439,17.5389384 L3.23250173,17.576414 L5.31758474,4.58196816 Z M13.1830022,23.5751627 C13.2111394,23.5565775 2.17459463,23.6186503 2.17459463,23.6186503 C2.15541694,23.6186503 2.20235037,18.5902689 2.20235037,18.5902689 C2.20235037,18.5712872 13.1601751,18.5902689 13.1601751,18.5902689 C13.1601751,18.5902689 13.1830022,23.5751627 13.1830022,23.5751627 Z M18.1649969,10.5874308 L13.1830022,10.5658244 L13.1830022,8.57711587 L18.1649969,8.57711587 L18.1649969,10.5874308 Z M20.1774785,1.5926188 L25.1899602,1.5926188 L25.1899602,3.56954602 L20.1774785,3.56954602 L20.1774785,1.5926188 Z M19.1914343,4.58196816 L26.4180486,4.58196816 L29.057575,17.576414 L19.1914343,17.576414 L19.1914343,4.58196816 Z M30.1858404,23.5751627 C30.1858404,23.5941445 18.1649969,23.5751627 18.1649969,23.5751627 C18.1458192,23.5751627 18.1649969,18.5902689 18.1649969,18.5902689 C18.1649969,18.5712872 30.1858404,18.5902689 30.1858404,18.5902689 C30.205018,18.5902689 30.1858404,23.5751627 30.1858404,23.5751627 Z" id="Shape"></path>
                            </g>
                        </g>
                    </g>
                </g>
                <g id="Group-24" transform="translate(343.000000, 184.000000)">
                    <path d="M41.6900943,54.9985352 C41.6900943,56.2911848 41.322178,57.2812466 40.5863345,57.96875 C39.850491,58.6562534 38.7879202,59 37.3985904,59 L35.1749576,59 L35.1749576,51.1474609 L37.6402896,51.1474609 C38.922197,51.1474609 39.9176298,51.4858365 40.6266177,52.1625977 C41.3356056,52.8393589 41.6900943,53.7846619 41.6900943,54.9985352 Z M39.9606021,55.0415039 C39.9606021,53.354972 39.2158179,52.5117188 37.7262271,52.5117188 L36.8399966,52.5117188 L36.8399966,57.625 L37.5543521,57.625 C39.1585268,57.625 39.9606021,56.7638432 39.9606021,55.0415039 Z M47.9044497,59 L47.3351138,57.1308594 L44.4723208,57.1308594 L43.9029849,59 L42.1090396,59 L44.880524,51.1152344 L46.9161685,51.1152344 L49.6983951,59 L47.9044497,59 Z M46.9376529,55.734375 C46.4112831,54.0406816 46.1149807,53.0828462 46.0487369,52.8608398 C45.982493,52.6388335 45.9350488,52.4633796 45.9064029,52.3344727 C45.7882382,52.7928083 45.4498627,53.9260977 44.8912662,55.734375 L46.9376529,55.734375 Z M52.9479068,59 L51.2828677,59 L51.2828677,52.5332031 L49.1505435,52.5332031 L49.1505435,51.1474609 L55.080231,51.1474609 L55.080231,52.5332031 L52.9479068,52.5332031 L52.9479068,59 Z M60.3277896,59 L59.7584537,57.1308594 L56.8956607,57.1308594 L56.3263247,59 L54.5323794,59 L57.3038638,51.1152344 L59.3395083,51.1152344 L62.1217349,59 L60.3277896,59 Z M59.3609927,55.734375 C58.8346229,54.0406816 58.5383205,53.0828462 58.4720767,52.8608398 C58.4058329,52.6388335 58.3583887,52.4633796 58.3297427,52.3344727 C58.2115781,52.7928083 57.8732025,53.9260977 57.314606,55.734375 L59.3609927,55.734375 Z M12.7721255,69.8427734 L13.3199771,69.8427734 C13.8320239,69.8427734 14.2151581,69.7416189 14.4693912,69.5393066 C14.7236242,69.3369944 14.8507388,69.0424824 14.8507388,68.6557617 C14.8507388,68.2654603 14.7442132,67.9772145 14.5311587,67.7910156 C14.3181043,67.6048168 13.9842046,67.5117188 13.5294497,67.5117188 L12.7721255,67.5117188 L12.7721255,69.8427734 Z M16.5318912,68.5966797 C16.5318912,69.441736 16.267815,70.0880511 15.7396548,70.5356445 C15.2114946,70.9832379 14.4604442,71.2070312 13.486481,71.2070312 L12.7721255,71.2070312 L12.7721255,74 L11.1070865,74 L11.1070865,66.1474609 L13.6153872,66.1474609 C14.567866,66.1474609 15.2920612,66.3524556 15.7879947,66.7624512 C16.2839281,67.1724467 16.5318912,67.7838501 16.5318912,68.5966797 Z M19.6793521,69.6333008 L20.2164615,69.6333008 C20.7428313,69.6333008 21.1313365,69.5455738 21.3819888,69.3701172 C21.6326411,69.1946606 21.7579654,68.9189472 21.7579654,68.5429688 C21.7579654,68.1705711 21.6299556,67.9055997 21.3739322,67.7480469 C21.1179088,67.590494 20.721347,67.5117188 20.1842349,67.5117188 L19.6793521,67.5117188 L19.6793521,69.6333008 Z M19.6793521,70.9868164 L19.6793521,74 L18.014313,74 L18.014313,66.1474609 L20.302399,66.1474609 C21.3694616,66.1474609 22.1590045,66.3417136 22.6710513,66.7302246 C23.1830981,67.1187357 23.4391177,67.7086549 23.4391177,68.5 C23.4391177,68.9619164 23.3120031,69.3728009 23.0577701,69.732666 C22.803537,70.0925311 22.4436773,70.3745107 21.9781802,70.5786133 C23.1598268,72.3439216 23.9296758,73.4843724 24.2877505,74 L22.4400943,74 L20.5655826,70.9868164 L19.6793521,70.9868164 Z M29.7984927,74 L25.2760318,74 L25.2760318,66.1474609 L29.7984927,66.1474609 L29.7984927,67.5117188 L26.9410708,67.5117188 L26.9410708,69.2358398 L29.5997622,69.2358398 L29.5997622,70.6000977 L26.9410708,70.6000977 L26.9410708,72.625 L29.7984927,72.625 L29.7984927,74 Z M33.1017154,69.8427734 L33.6495669,69.8427734 C34.1616138,69.8427734 34.544748,69.7416189 34.798981,69.5393066 C35.053214,69.3369944 35.1803287,69.0424824 35.1803287,68.6557617 C35.1803287,68.2654603 35.073803,67.9772145 34.8607486,67.7910156 C34.6476941,67.6048168 34.3137945,67.5117188 33.8590396,67.5117188 L33.1017154,67.5117188 L33.1017154,69.8427734 Z M36.861481,68.5966797 C36.861481,69.441736 36.5974049,70.0880511 36.0692447,70.5356445 C35.5410845,70.9832379 34.790034,71.2070312 33.8160708,71.2070312 L33.1017154,71.2070312 L33.1017154,74 L31.4366763,74 L31.4366763,66.1474609 L33.9449771,66.1474609 C34.8974558,66.1474609 35.621651,66.3524556 36.1175845,66.7624512 C36.613518,67.1724467 36.861481,67.7838501 36.861481,68.5966797 Z M42.6031802,74 L42.0338443,72.1308594 L39.1710513,72.1308594 L38.6017154,74 L36.8077701,74 L39.5792544,66.1152344 L41.614899,66.1152344 L44.3971255,74 L42.6031802,74 Z M41.6363833,70.734375 C41.1100135,69.0406816 40.8137111,68.0828462 40.7474673,67.8608398 C40.6812235,67.6388335 40.6337793,67.4633796 40.6051333,67.3344727 C40.4869687,67.7928083 40.1485932,68.9260977 39.5899966,70.734375 L41.6363833,70.734375 Z M47.0504458,69.6333008 L47.5875552,69.6333008 C48.113925,69.6333008 48.5024303,69.5455738 48.7530826,69.3701172 C49.0037349,69.1946606 49.1290591,68.9189472 49.1290591,68.5429688 C49.1290591,68.1705711 49.0010493,67.9055997 48.7450259,67.7480469 C48.4890025,67.590494 48.0924407,67.5117188 47.5553287,67.5117188 L47.0504458,67.5117188 L47.0504458,69.6333008 Z M47.0504458,70.9868164 L47.0504458,74 L45.3854068,74 L45.3854068,66.1474609 L47.6734927,66.1474609 C48.7405553,66.1474609 49.5300982,66.3417136 50.0421451,66.7302246 C50.5541919,67.1187357 50.8102115,67.7086549 50.8102115,68.5 C50.8102115,68.9619164 50.6830969,69.3728009 50.4288638,69.732666 C50.1746308,70.0925311 49.8147711,70.3745107 49.349274,70.5786133 C50.5309205,72.3439216 51.3007696,73.4843724 51.6588443,74 L49.811188,74 L47.9366763,70.9868164 L47.0504458,70.9868164 Z M57.4542544,74 L56.8849185,72.1308594 L54.0221255,72.1308594 L53.4527896,74 L51.6588443,74 L54.4303287,66.1152344 L56.4659732,66.1152344 L59.2481997,74 L57.4542544,74 Z M56.4874576,70.734375 C55.9610877,69.0406816 55.6647854,68.0828462 55.5985415,67.8608398 C55.5322977,67.6388335 55.4848535,67.4633796 55.4562076,67.3344727 C55.3380429,67.7928083 54.9996674,68.9260977 54.4410708,70.734375 L56.4874576,70.734375 Z M62.4977115,74 L60.8326724,74 L60.8326724,67.5332031 L58.7003482,67.5332031 L58.7003482,66.1474609 L64.6300357,66.1474609 L64.6300357,67.5332031 L62.4977115,67.5332031 L62.4977115,74 Z M65.8385318,74 L65.8385318,66.1474609 L67.5035708,66.1474609 L67.5035708,74 L65.8385318,74 Z M76.6075747,70.0629883 C76.6075747,71.3627995 76.2853123,72.3618129 75.6407779,73.0600586 C74.9962434,73.7583043 74.0724245,74.1074219 72.8692935,74.1074219 C71.6661625,74.1074219 70.7423436,73.7583043 70.0978091,73.0600586 C69.4532747,72.3618129 69.1310122,71.3592188 69.1310122,70.0522461 C69.1310122,68.7452734 69.4541698,67.7471551 70.1004947,67.0578613 C70.7468195,66.3685675 71.6733239,66.0239258 72.8800357,66.0239258 C74.0867474,66.0239258 75.0096712,66.371253 75.6488345,67.065918 C76.2879979,67.7605829 76.6075747,68.7595963 76.6075747,70.0629883 Z M70.8766177,70.0629883 C70.8766177,70.9402713 71.04312,71.6009092 71.3761294,72.0449219 C71.7091389,72.4889345 72.2068553,72.7109375 72.8692935,72.7109375 C74.1977507,72.7109375 74.8619693,71.8282966 74.8619693,70.0629883 C74.8619693,68.2940992 74.2013314,67.409668 72.8800357,67.409668 C72.2175975,67.409668 71.7180908,67.6325661 71.3815005,68.0783691 C71.0449103,68.5241722 70.8766177,69.1857052 70.8766177,70.0629883 Z M85.2013247,74 L83.0851138,74 L79.6690982,68.0595703 L79.6207583,68.0595703 C79.6887925,69.1087292 79.7228091,69.8570941 79.7228091,70.3046875 L79.7228091,74 L78.2350162,74 L78.2350162,66.1474609 L80.3351138,66.1474609 L83.7457583,72.0288086 L83.783356,72.0288086 C83.7296448,71.0082957 83.7027896,70.286786 83.7027896,69.8642578 L83.7027896,66.1474609 L85.2013247,66.1474609 L85.2013247,74 Z" id="DATA-PREPARATION" fill="#FFFFFF"></path>
                    <g id="Group-2" transform="translate(24.000000, 0.000000)">
                        <g id="Group-18" transform="translate(23.500000, 19.500000) scale(-1, 1) translate(-23.500000, -19.500000) ">
                            <g id="copy" transform="translate(17.328200, 0.000000)">
                                <g id="Capa_1">
                                    <g id="Group">
                                        <path d="M0.256570639,33.270717 C0.384458143,35.0686923 1.74339281,36.9993591 3.4948852,36.9993591 L25.6631943,36.9993591 C27.5041089,36.9993591 28.7251747,35.267886 28.7251747,33.3980091 L28.7251747,4.80557209 C28.7165319,2.93569518 26.9549366,0.997406006 25.1226647,0.997406006 L3.54124607,0.997406006 C1.70033148,0.997406006 0.167410458,2.93569518 0.167410458,4.80557209 L0.167410458,5.36741304 L2.49758186,5.36741304 C2.49420538,5.00344484 2.49232138,4.80557209 2.49232138,4.80557209 C2.49232138,4.24373114 3.09003613,3.00564575 3.64317478,3.00564575 L25.0561081,3.00564575 C26.4325119,2.91503906 26.655748,4.41948229 26.655748,4.98132324 L26.655748,33.3980091 C26.655748,33.9598501 26.1684814,34.9741821 25.6153428,34.9741821 L3.4948852,34.9741821 C3.01775046,34.9741821 2.74761818,33.920803 2.68239156,33.270717 L0.256570639,33.270717 Z" id="Combined-Shape" fill="#FFFFFF" fill-rule="nonzero"></path>
                                        <path d="M19.6718003,8 L22.6718003,8" id="Line" stroke="#FFFFFF" stroke-width="2" stroke-linecap="square"></path>
                                        <path d="M16.6718003,15 L22.6718003,15" id="Line" stroke="#FFFFFF" stroke-width="2" stroke-linecap="square"></path>
                                        <path d="M13,21 C13,21 15,21 15,21" id="Line" stroke="#FFFFFF" stroke-width="2" stroke-linecap="square"></path>
                                        <path d="M13.6718003,28 L22.6718003,28" id="Line" stroke="#FFFFFF" stroke-width="2" stroke-linecap="square"></path>
                                    </g>
                                </g>
                            </g>
                            <path d="M28.6080981,11.3643338 C28.1854853,11.129549 27.6924371,10.5895437 27.4811307,10.1904094 C27.2698243,9.79127513 26.917647,9.48605479 26.6828621,9.48605479 C26.1193784,9.48605479 25.6732871,8.94604955 25.861115,8.4530013 C25.9315504,8.2416949 26.2602493,8.07734549 26.5654696,8.07734549 C26.9411254,8.07734549 27.2228673,7.86603909 27.4811307,7.39646933 C28.0446144,6.26950189 28.9367969,5.72949666 30.1576783,5.72949666 C31.5194307,5.72949666 32.6698766,6.41037282 33.1394464,7.49038328 C33.5620591,8.54691525 33.5620591,9.11039897 33.0690109,10.119974 C32.3176993,11.7399897 30.1811568,12.3269519 28.6080981,11.3643338 Z M31.5663876,9.81475362 C32.2003068,9.01648502 32.1768283,8.47647979 31.5429092,7.74864665 C30.7446405,6.87994258 29.758544,6.83298561 29.0072324,7.6547327 C28.3967917,8.31213037 28.3967917,9.20431293 29.0541894,9.88518909 C29.758544,10.6599792 30.9324685,10.6130222 31.5663876,9.81475362 Z" id="Shape" fill="#FFFFFF" fill-rule="nonzero"></path>
                            <path d="M35.0175895,23.0393387 C34.9251053,22.7618863 35.2025578,22.2069814 35.7266346,21.6520766 L36.5898199,20.7580632 L35.7266346,19.8640498 C34.1852322,18.2609913 35.4800102,17.2128376 37.0830687,18.75424 L37.884598,19.5249412 L38.6244711,18.75424 C39.4568284,17.8602266 39.9192492,17.7985705 40.474154,18.4459596 C40.8132626,18.8467242 40.7207784,19.0625205 40.0117333,19.8332217 L39.1485479,20.7272351 L39.9500772,21.6829046 C40.8132626,22.6694022 40.7516065,23.5325875 39.8575931,23.5325875 C39.5801406,23.5325875 39.0868919,23.2551351 38.7786114,22.9160266 C38.4703309,22.576918 38.0695663,22.2994656 37.8537699,22.2994656 C37.6379736,22.2994656 37.237209,22.576918 36.9289285,22.9160266 C36.2507114,23.6558997 35.2950419,23.7175558 35.0175895,23.0393387 Z" id="Shape" fill="#FFFFFF" fill-rule="nonzero"></path>
                            <g id="loupe-(1)" transform="translate(0.000000, 9.629494)" fill-rule="nonzero" fill="#FFFFFF">
                                <g id="Layer_1">
                                    <path d="M25.0549914,3.01674082 C21.0899578,-1.00239823 14.6385447,-1.00239823 10.6735658,3.01674082 C8.75278281,4.96365005 7.6950682,7.55231394 7.6950682,10.3057039 C7.6950682,12.8139473 8.57324838,15.1851594 10.1815572,17.0594737 L8.97047995,18.2870938 L7.7362423,17.0359969 C7.60100288,16.8989102 7.41752625,16.8218752 7.22627471,16.8218752 C7.03502318,16.8218752 6.85154654,16.8989102 6.71630712,17.0359969 L0.933809026,22.8975374 C0.331637717,23.5078231 0,24.3192989 0,25.1825014 C0,26.0456484 0.331637717,26.8571797 0.93369952,27.4674654 C1.53587083,28.0778622 2.33641154,28.4139744 3.18787235,28.4139744 C4.03933316,28.4139744 4.83998337,28.0778067 5.44204518,27.4675209 L11.224598,21.6060915 C11.3598374,21.4690047 11.4358343,21.2830219 11.4358343,21.0891579 C11.4358343,20.8952939 11.3598374,20.7093111 11.224598,20.5722243 L9.99036038,19.3211274 L11.2018209,18.0931188 C13.1068351,19.7700726 15.4853515,20.6090213 17.8642512,20.6090213 C20.4683492,20.6090213 23.0725019,19.6042365 25.0549914,17.5947225 C26.9756101,15.6477578 28.0334343,13.0592049 28.0334343,10.3058149 C28.0334343,7.55225844 26.9757196,4.96365005 25.0549914,3.01674082 Z M4.42210999,26.4335983 C4.09244338,26.767768 3.6541472,26.9518084 3.18787235,26.9518084 C2.72165225,26.9518084 2.28330132,26.7677125 1.9536347,26.4335428 C1.62402284,26.0994285 1.4424078,25.6550899 1.4424078,25.1825569 C1.4424078,24.7100239 1.62402284,24.2656297 1.95368945,23.93146 L5.18049104,20.6605814 L7.64896634,23.1626642 L4.42210999,26.4335983 Z M8.66901103,22.1287416 L6.20053573,19.6265478 L7.22627471,18.5867976 L9.69475,21.0890469 L8.66901103,22.1287416 Z M24.0350014,16.5607444 C20.6324433,20.0098912 15.0961138,20.0098912 11.6935558,16.5607444 C10.0452774,14.8899511 9.13753075,12.6685909 9.13753075,10.3057039 C9.13753075,7.9428169 10.0452774,5.72145668 11.6935558,4.05071896 C13.3948348,2.32620105 15.6295704,1.4638866 17.864306,1.4638866 C20.0989868,1.4638866 22.3337771,2.32609005 24.0350562,4.05071896 C25.6833345,5.72145668 26.5910812,7.9428724 26.5910812,10.3057039 C26.5910812,12.6685354 25.6832798,14.8899511 24.0350014,16.5607444 Z" id="Shape"></path>
                                    <path d="M22.8447303,5.25708228 C20.0984393,2.47338892 15.6300084,2.47327792 12.8837174,5.25708228 C10.1375359,8.04088664 10.1375359,12.5703547 12.8837722,15.354159 C14.2569177,16.7459502 16.0605297,17.4419291 17.8642512,17.4419291 C19.6679728,17.4419291 21.4716395,16.7459502 22.844785,15.354159 L22.844785,15.3541035 C25.5909665,12.5704102 25.5909665,8.04088664 22.8447303,5.25708228 Z M21.8247404,14.3202919 C19.6408701,16.533993 16.0875776,16.533993 13.9037073,14.3203474 C11.7198371,12.1066463 11.7198371,8.50476153 13.9036526,6.29106041 C14.9956972,5.18404335 16.4297278,4.63081232 17.8642512,4.63081232 C19.2983913,4.63081232 20.7329695,5.18437636 21.8247404,6.29106041 C24.0086106,8.50470603 24.0086106,12.1065908 21.8247404,14.3202919 Z" id="Shape"></path>
                                </g>
                            </g>
                        </g>
                        <path d="M28.6453582,21.3315958 C27.3075172,21.1213636 24.8802914,19.0572661 25.1478596,18.3501215 C25.3389797,17.8149851 25.8550041,17.9678813 26.6577087,18.7896979 C27.4986374,19.6497385 27.7088695,19.7261866 27.7088695,19.1528261 C27.7088695,18.1398894 28.8173663,17.3371848 29.9258632,17.5283049 C30.6138957,17.662089 31.5312724,18.5985777 31.5312724,19.1910502 C31.5312724,19.7452986 31.8179526,19.6306265 32.5442091,18.7705859 C33.2704657,17.9296572 33.8820501,17.8340972 33.9776102,18.5221297 C34.0731703,19.1337141 32.1428568,20.8155714 30.9196879,21.1786997 C29.9449752,21.4653799 29.639183,21.4844919 28.6453582,21.3315958 Z" id="Shape" fill="#FFFFFF" fill-rule="nonzero" transform="translate(29.554236, 19.463196) scale(1, -1) translate(-29.554236, -19.463196) "></path>
                    </g>
                </g>
                <g id="Group-22" transform="translate(57.000000, 296.000000)">
                    <path d="M32.0592532,49.1900245 C32.0592532,50.4826742 31.6913369,51.4727359 30.9554934,52.1602394 C30.2196499,52.8477428 29.1570791,53.1914894 27.7677493,53.1914894 L25.5441164,53.1914894 L25.5441164,45.3389503 L28.0094485,45.3389503 C29.2913559,45.3389503 30.2867887,45.6773258 30.9957766,46.354087 C31.7047645,47.0308482 32.0592532,47.9761513 32.0592532,49.1900245 Z M30.329761,49.2329933 C30.329761,47.5464614 29.5849768,46.7032081 28.095386,46.7032081 L27.2091555,46.7032081 L27.2091555,51.8164894 L27.923511,51.8164894 C29.5276857,51.8164894 30.329761,50.9553326 30.329761,49.2329933 Z M38.2736086,53.1914894 L37.7042727,51.3223487 L34.8414797,51.3223487 L34.2721438,53.1914894 L32.4781985,53.1914894 L35.2496828,45.3067237 L37.2853274,45.3067237 L40.0675539,53.1914894 L38.2736086,53.1914894 Z M37.3068118,49.9258644 C36.7804419,48.232171 36.4841396,47.2743355 36.4178957,47.0523292 C36.3516519,46.8303229 36.3042077,46.6548689 36.2755618,46.525962 C36.1573971,46.9842976 35.8190216,48.1175871 35.260425,49.9258644 L37.3068118,49.9258644 Z M43.3170657,53.1914894 L41.6520266,53.1914894 L41.6520266,46.7246925 L39.5197024,46.7246925 L39.5197024,45.3389503 L45.4493899,45.3389503 L45.4493899,46.7246925 L43.3170657,46.7246925 L43.3170657,53.1914894 Z M50.6969485,53.1914894 L50.1276125,51.3223487 L47.2648196,51.3223487 L46.6954836,53.1914894 L44.9015383,53.1914894 L47.6730227,45.3067237 L49.7086672,45.3067237 L52.4908938,53.1914894 L50.6969485,53.1914894 Z M49.7301516,49.9258644 C49.2037818,48.232171 48.9074794,47.2743355 48.8412356,47.0523292 C48.7749918,46.8303229 48.7275476,46.6548689 48.6989016,46.525962 C48.5807369,46.9842976 48.2423614,48.1175871 47.6837649,49.9258644 L49.7301516,49.9258644 Z M12.7394289,68.1914894 L10.8488039,62.0308448 L10.8004641,62.0308448 C10.8684983,63.2841063 10.9025149,64.1201982 10.9025149,64.5391456 L10.9025149,68.1914894 L9.41472191,68.1914894 L9.41472191,60.3389503 L11.6813235,60.3389503 L13.5397219,66.3438331 L13.5719485,66.3438331 L15.5431399,60.3389503 L17.8097414,60.3389503 L17.8097414,68.1914894 L16.2574953,68.1914894 L16.2574953,64.4746925 C16.2574953,64.2992359 16.2601809,64.0969267 16.265552,63.8677589 C16.2709231,63.6385911 16.2950928,63.0298732 16.3380618,62.041587 L16.2897219,62.041587 L14.2648196,68.1914894 L12.7394289,68.1914894 Z M26.9137453,64.2544776 C26.9137453,65.5542888 26.5914829,66.5533023 25.9469485,67.251548 C25.302414,67.9497936 24.3785951,68.2989112 23.1754641,68.2989112 C21.9723331,68.2989112 21.0485142,67.9497936 20.4039797,67.251548 C19.7594452,66.5533023 19.4371828,65.5507081 19.4371828,64.2437355 C19.4371828,62.9367628 19.7603404,61.9386445 20.4066653,61.2493507 C21.0529901,60.5600569 21.9794945,60.2154151 23.1862063,60.2154151 C24.392918,60.2154151 25.3158418,60.5627424 25.9550051,61.2574073 C26.5941685,61.9520723 26.9137453,62.9510857 26.9137453,64.2544776 Z M21.1827883,64.2544776 C21.1827883,65.1317607 21.3492906,65.7923986 21.6823,66.2364112 C22.0153095,66.6804239 22.5130259,66.9024269 23.1754641,66.9024269 C24.5039213,66.9024269 25.1681399,66.0197859 25.1681399,64.2544776 C25.1681399,62.4855886 24.507502,61.6011573 23.1862063,61.6011573 C22.5237681,61.6011573 22.0242614,61.8240555 21.6876711,62.2698585 C21.3510809,62.7156615 21.1827883,63.3771946 21.1827883,64.2544776 Z M35.0563235,64.1900245 C35.0563235,65.4826742 34.6884072,66.4727359 33.9525637,67.1602394 C33.2167202,67.8477428 32.1541494,68.1914894 30.7648196,68.1914894 L28.5411868,68.1914894 L28.5411868,60.3389503 L31.0065188,60.3389503 C32.2884262,60.3389503 33.283859,60.6773258 33.9928469,61.354087 C34.7018348,62.0308482 35.0563235,62.9761513 35.0563235,64.1900245 Z M33.3268313,64.2329933 C33.3268313,62.5464614 32.5820471,61.7032081 31.0924563,61.7032081 L30.2062258,61.7032081 L30.2062258,66.8164894 L30.9205813,66.8164894 C32.524756,66.8164894 33.3268313,65.9553326 33.3268313,64.2329933 Z M41.2062258,68.1914894 L36.6837649,68.1914894 L36.6837649,60.3389503 L41.2062258,60.3389503 L41.2062258,61.7032081 L38.3488039,61.7032081 L38.3488039,63.4273292 L41.0074953,63.4273292 L41.0074953,64.791587 L38.3488039,64.791587 L38.3488039,66.8164894 L41.2062258,66.8164894 L41.2062258,68.1914894 Z M42.8444094,68.1914894 L42.8444094,60.3389503 L44.5094485,60.3389503 L44.5094485,66.8164894 L47.6945071,66.8164894 L47.6945071,68.1914894 L42.8444094,68.1914894 Z M49.0587649,68.1914894 L49.0587649,60.3389503 L50.7238039,60.3389503 L50.7238039,68.1914894 L49.0587649,68.1914894 Z M59.666675,68.1914894 L57.5504641,68.1914894 L54.1344485,62.2510597 L54.0861086,62.2510597 C54.1541428,63.3002186 54.1881594,64.0485835 54.1881594,64.4961769 L54.1881594,68.1914894 L52.7003664,68.1914894 L52.7003664,60.3389503 L54.8004641,60.3389503 L58.2111086,66.220298 L58.2487063,66.220298 C58.1949951,65.199785 58.1681399,64.4782753 58.1681399,64.0557472 L58.1681399,60.3389503 L59.666675,60.3389503 L59.666675,68.1914894 Z M64.6241946,63.7818214 L67.7394289,63.7818214 L67.7394289,67.8531105 C67.2345436,68.0178248 66.7592066,68.1333022 66.3134035,68.199546 C65.8676005,68.2657898 65.4119573,68.2989112 64.9464602,68.2989112 C63.7612329,68.2989112 62.8562127,67.9506888 62.2313723,67.2542335 C61.6065319,66.5577782 61.2941164,65.5578696 61.2941164,64.2544776 C61.2941164,62.9868932 61.6566616,61.9986218 62.3817629,61.2896339 C63.1068642,60.580646 64.1121439,60.2261573 65.3976321,60.2261573 C66.2033002,60.2261573 66.9803106,60.3872885 67.7286868,60.7095558 L67.1754641,62.041587 C66.6025446,61.7551273 66.0063591,61.6118995 65.3868899,61.6118995 C64.6671597,61.6118995 64.0906681,61.8535963 63.6573977,62.3369972 C63.2241273,62.820398 63.0074953,63.4702939 63.0074953,64.2867042 C63.0074953,65.138922 63.1820541,65.789713 63.531177,66.2390968 C63.8802998,66.6884805 64.3878631,66.913169 65.0538821,66.913169 C65.4012145,66.913169 65.7539128,66.8773621 66.1119875,66.8057472 L66.1119875,65.1675636 L64.6241946,65.1675636 L64.6241946,63.7818214 Z" id="DATA-MODELING" fill="#FFFFFF"></path>
                    <g id="Group-20" transform="translate(16.051402, 0.000000)">
                        <g id="Group-19" transform="translate(11.422751, 0.000000)">
                            <g id="Group" transform="translate(0.064354, 0.000000)">
                                <path d="M0.0576145134,36.7202327 C0.155395005,38.4072863 1.76773247,40.0066223 3.4486758,40.0066223 L21.4683291,40.0066223 C23.2027224,40.0066223 24.4653994,38.6985204 24.4653994,36.9536438 L24.4653994,10.0314941 C24.4572567,8.28661749 23.1945797,6.99151611 21.4683291,6.99151611 L3.4486758,6.99151611 C1.71428253,6.99151611 0.0529274943,8.41309068 0.0529274943,10.1579673 L0.0529274943,10.6822495 L2.24331149,10.6822495 L2.24331149,10.1579673 C2.24331149,9.63368515 2.92754355,8.99890137 3.4486758,8.99890137 L21.4683291,8.99890137 C21.9894614,8.99890137 22.4550387,9.48765019 22.4550387,10.0119324 L22.4550387,36.9536438 C22.4550387,37.477926 21.9894614,38.0148621 21.4683291,38.0148621 L3.4486758,38.0148621 C2.97759657,38.0148621 2.37324332,37.2537061 2.26149678,36.7202327 L0.0576145134,36.7202327 Z" id="Combined-Shape" fill="#FFFFFF" fill-rule="nonzero"></path>
                                <path d="M9.0738476,14 L19.7350823,14" id="Line" stroke="#FFFFFF" stroke-width="2" stroke-linecap="square"></path>
                                <path d="M12.1199146,22 L19.7350823,22" id="Line" stroke="#FFFFFF" stroke-width="2" stroke-linecap="square"></path>
                                <path d="M11,28.1697479 C11,28.1697479 20.5609525,28.1697479 20.5609525,28.1697479 L11,28.1697479 Z" id="Line" stroke="#FFFFFF" stroke-width="2" stroke-linecap="square"></path>
                                <path d="M8.31233084,33.0052019 L19.7350823,33.0052019" id="Line" stroke="#FFFFFF" stroke-width="2" stroke-linecap="square"></path>
                                <path d="M28.4506759,0 L10.2638626,0 C8.52946928,0 7.12078366,1.41720028 7.12078366,3.16207693 C7.12078366,3.77647011 7.60934515,4.26798466 8.22004701,4.26798466 C8.83074886,4.26798466 9.31931035,3.77647011 9.31931035,3.16207693 C9.31931035,2.63779474 9.7427303,2.01573768 10.2638626,2.01573768 L28.4506759,2.01573768 C28.9718081,2.01573768 29.469794,2.48304203 29.469794,3.00732422 L29.469794,29.839994 C29.469794,30.3642762 29.2689044,30.7933864 28.7477721,30.7933864 C28.1370703,30.7933864 27.6485088,31.284901 27.6485088,31.8992942 C27.6485088,32.5136874 28.1370703,33.0052019 28.7477721,33.0052019 C30.4821654,33.0052019 31.4818132,31.6783577 31.4818132,29.9334811 L31.4818132,3.00732422 C31.4818132,1.26244757 30.1850692,0 28.4506759,0 Z" id="Shape" fill="#FFFFFF" fill-rule="nonzero"></path>
                            </g>
                        </g>
                        <g id="cube" transform="translate(0.000000, 11.420168)" fill-rule="nonzero" fill="#FFFFFF">
                            <g id="Layer_1">
                                <path d="M20.6247444,6.02755272 L10.9218376,0.342693403 C10.7605435,0.248153796 10.5617449,0.248153796 10.4003905,0.342693403 L0.696880704,6.02706319 C0.535526366,6.1216028 0.00585639111,6.29685292 0.00585639111,6.48599332 L0.00585639111,17.9315598 C0.00585639111,18.1205166 0.536491115,18.4510361 0.69772486,18.5455757 L10.399667,24.234596 C10.4804044,24.2819576 10.5704879,24.3055772 10.6605714,24.3055772 C10.7505343,24.3055772 10.8406177,24.2819576 10.9212949,24.2346572 L20.6247444,18.5500426 C20.7860385,18.455503 21.3210284,18.2765815 21.3210284,18.0874411 L21.3210284,6.48599332 C21.3210887,6.29685292 20.7860988,6.12209233 20.6247444,6.02755272 Z M9.89943902,22.1161666 L1.52951738,17.3073911 L1.52951738,7.9008548 L9.89943902,12.9488051 L9.89943902,22.1161666 Z M10.6611141,11.5598637 L2.94646192,6.78556276 L10.6605714,2.01126186 L18.5324102,6.72105887 L10.6611141,11.5598637 Z M11.4193119,22.1161666 L11.4193119,12.9488051 L19.795485,8.08696228 L19.795485,17.3073911 L11.4193119,22.1161666 Z" id="Shape"></path>
                            </g>
                        </g>
                    </g>
                </g>
                <g id="Group-23" transform="translate(6.000000, 115.000000)">
                    <path d="M17.5611606,37.1863676 C16.9345299,37.1863676 16.449346,37.4217982 16.1055942,37.8926664 C15.7618425,38.3635347 15.5899692,39.0196967 15.5899692,39.8611723 C15.5899692,41.6121576 16.2470265,42.4876371 17.5611606,42.4876371 C18.1125957,42.4876371 18.780395,42.3497804 19.5645786,42.0740629 L19.5645786,43.4705473 C18.9200441,43.7391033 18.2003248,43.8733793 17.4053989,43.8733793 C16.2631406,43.8733793 15.3894514,43.5269472 14.7843052,42.8340727 C14.1791589,42.1411981 13.8765903,41.1466605 13.8765903,39.8504301 C13.8765903,39.0340198 14.0251891,38.3187763 14.3223911,37.7046781 C14.6195931,37.09058 15.0465908,36.6197189 15.603397,36.2920805 C16.1602031,35.9644421 16.8127845,35.8006254 17.5611606,35.8006254 C18.3238598,35.8006254 19.0901282,35.9850311 19.8599888,36.3538481 L19.3228794,37.7073637 C19.0292581,37.5677146 18.7338509,37.445971 18.4366489,37.3421293 C18.1394469,37.2382877 17.8476204,37.1863676 17.5611606,37.1863676 Z M28.1422153,39.8289457 C28.1422153,41.1287569 27.8199529,42.1277704 27.1754185,42.826016 C26.530884,43.5242617 25.6070651,43.8733793 24.4039341,43.8733793 C23.2008031,43.8733793 22.2769842,43.5242617 21.6324497,42.826016 C20.9879152,42.1277704 20.6656528,41.1251762 20.6656528,39.8182035 C20.6656528,38.5112309 20.9888104,37.5131126 21.6351353,36.8238188 C22.2814601,36.134525 23.2079645,35.7898832 24.4146763,35.7898832 C25.621388,35.7898832 26.5443118,36.1372105 27.1834751,36.8318754 C27.8226385,37.5265403 28.1422153,38.5255538 28.1422153,39.8289457 Z M22.4112583,39.8289457 C22.4112583,40.7062288 22.5777605,41.3668667 22.91077,41.8108793 C23.2437795,42.254892 23.7414959,42.4768949 24.4039341,42.4768949 C25.7323912,42.4768949 26.3966099,41.594254 26.3966099,39.8289457 C26.3966099,38.0600567 25.7359719,37.1756254 24.4146763,37.1756254 C23.7522381,37.1756254 23.2527313,37.3985236 22.9161411,37.8443266 C22.5795509,38.2901296 22.4112583,38.9516627 22.4112583,39.8289457 Z M33.0943638,43.7659574 L31.2037388,37.6053129 L31.1553989,37.6053129 C31.2234331,38.8585744 31.2574497,39.6946663 31.2574497,40.1136137 L31.2574497,43.7659574 L29.7696567,43.7659574 L29.7696567,35.9134184 L32.0362583,35.9134184 L33.8946567,41.9183012 L33.9268833,41.9183012 L35.8980747,35.9134184 L38.1646763,35.9134184 L38.1646763,43.7659574 L36.6124302,43.7659574 L36.6124302,40.0491606 C36.6124302,39.873704 36.6151157,39.6713948 36.6204868,39.442227 C36.6258579,39.2130592 36.6500276,38.6043413 36.6929966,37.6160551 L36.6446567,37.6160551 L34.6197544,43.7659574 L33.0943638,43.7659574 Z M43.4659458,43.7659574 L41.5753208,37.6053129 L41.526981,37.6053129 C41.5950152,38.8585744 41.6290317,39.6946663 41.6290317,40.1136137 L41.6290317,43.7659574 L40.1412388,43.7659574 L40.1412388,35.9134184 L42.4078403,35.9134184 L44.2662388,41.9183012 L44.2984653,41.9183012 L46.2696567,35.9134184 L48.5362583,35.9134184 L48.5362583,43.7659574 L46.9840122,43.7659574 L46.9840122,40.0491606 C46.9840122,39.873704 46.9866977,39.6713948 46.9920689,39.442227 C46.99744,39.2130592 47.0216097,38.6043413 47.0645786,37.6160551 L47.0162388,37.6160551 L44.9913364,43.7659574 L43.4659458,43.7659574 Z M56.9044224,35.9134184 L56.9044224,40.9944731 C56.9044224,41.5745541 56.7746222,42.0830126 56.5150181,42.5198637 C56.2554139,42.9567148 55.8803363,43.2915097 55.3897739,43.5242582 C54.8992116,43.7570068 54.3191393,43.8733793 53.6495396,43.8733793 C52.6397689,43.8733793 51.855597,43.6146742 51.2970005,43.0972563 C50.7384039,42.5798383 50.4591099,41.8717562 50.4591099,40.9729887 L50.4591099,35.9134184 L52.1187778,35.9134184 L52.1187778,40.7205473 C52.1187778,41.3256935 52.2405214,41.7696995 52.4840122,42.0525785 C52.727503,42.3354576 53.130331,42.4768949 53.6925083,42.4768949 C54.2367819,42.4768949 54.6315533,42.3345624 54.8768345,42.049893 C55.1221157,41.7652236 55.2447544,41.3185321 55.2447544,40.7098051 L55.2447544,35.9134184 L56.9044224,35.9134184 Z M65.7935825,43.7659574 L63.6773716,43.7659574 L60.261356,37.8255278 L60.2130161,37.8255278 C60.2810503,38.8746867 60.3150669,39.6230516 60.3150669,40.0706449 L60.3150669,43.7659574 L58.8272739,43.7659574 L58.8272739,35.9134184 L60.9273716,35.9134184 L64.3380161,41.794766 L64.3756138,41.794766 C64.3219026,40.7742531 64.2950474,40.0527434 64.2950474,39.6302153 L64.2950474,35.9134184 L65.7935825,35.9134184 L65.7935825,43.7659574 Z M67.770145,43.7659574 L67.770145,35.9134184 L69.4351841,35.9134184 L69.4351841,43.7659574 L67.770145,43.7659574 Z M74.7471958,37.1863676 C74.1205651,37.1863676 73.6353811,37.4217982 73.2916294,37.8926664 C72.9478777,38.3635347 72.7760044,39.0196967 72.7760044,39.8611723 C72.7760044,41.6121576 73.4330616,42.4876371 74.7471958,42.4876371 C75.2986309,42.4876371 75.9664302,42.3497804 76.7506138,42.0740629 L76.7506138,43.4705473 C76.1060793,43.7391033 75.3863599,43.8733793 74.5914341,43.8733793 C73.4491758,43.8733793 72.5754866,43.5269472 71.9703403,42.8340727 C71.3651941,42.1411981 71.0626255,41.1466605 71.0626255,39.8504301 C71.0626255,39.0340198 71.2112243,38.3187763 71.5084263,37.7046781 C71.8056283,37.09058 72.232626,36.6197189 72.7894321,36.2920805 C73.3462383,35.9644421 73.9988197,35.8006254 74.7471958,35.8006254 C75.5098949,35.8006254 76.2761633,35.9850311 77.0460239,36.3538481 L76.5089146,37.7073637 C76.2152933,37.5677146 75.9198861,37.445971 75.6226841,37.3421293 C75.3254821,37.2382877 75.0336556,37.1863676 74.7471958,37.1863676 Z M83.2281528,43.7659574 L82.6588169,41.8968168 L79.7960239,41.8968168 L79.226688,43.7659574 L77.4327427,43.7659574 L80.2042271,35.8811918 L82.2398716,35.8811918 L85.0220981,43.7659574 L83.2281528,43.7659574 Z M82.261356,40.5003324 C81.7349861,38.8066391 81.4386838,37.8488036 81.3724399,37.6267973 C81.3061961,37.404791 81.2587519,37.229337 81.230106,37.1004301 C81.1119413,37.5587657 80.7735658,38.6920552 80.2149692,40.5003324 L82.261356,40.5003324 Z M88.2716099,43.7659574 L86.6065708,43.7659574 L86.6065708,37.2991606 L84.4742466,37.2991606 L84.4742466,35.9134184 L90.4039341,35.9134184 L90.4039341,37.2991606 L88.2716099,37.2991606 L88.2716099,43.7659574 Z M91.6124302,43.7659574 L91.6124302,35.9134184 L93.2774692,35.9134184 L93.2774692,43.7659574 L91.6124302,43.7659574 Z M102.381473,39.8289457 C102.381473,41.1287569 102.059211,42.1277704 101.414676,42.826016 C100.770142,43.5242617 99.8463229,43.8733793 98.6431919,43.8733793 C97.4400609,43.8733793 96.516242,43.5242617 95.8717075,42.826016 C95.2271731,42.1277704 94.9049106,41.1251762 94.9049106,39.8182035 C94.9049106,38.5112309 95.2280682,37.5131126 95.8743931,36.8238188 C96.5207179,36.134525 97.4472223,35.7898832 98.6539341,35.7898832 C99.8606458,35.7898832 100.78357,36.1372105 101.422733,36.8318754 C102.061896,37.5265403 102.381473,38.5255538 102.381473,39.8289457 Z M96.6505161,39.8289457 C96.6505161,40.7062288 96.8170184,41.3668667 97.1500278,41.8108793 C97.4830373,42.254892 97.9807537,42.4768949 98.6431919,42.4768949 C99.9716491,42.4768949 100.635868,41.594254 100.635868,39.8289457 C100.635868,38.0600567 99.9752298,37.1756254 98.6539341,37.1756254 C97.9914959,37.1756254 97.4919892,37.3985236 97.1553989,37.8443266 C96.8188087,38.2901296 96.6505161,38.9516627 96.6505161,39.8289457 Z M110.975223,43.7659574 L108.859012,43.7659574 L105.442997,37.8255278 L105.394657,37.8255278 C105.462691,38.8746867 105.496708,39.6230516 105.496708,40.0706449 L105.496708,43.7659574 L104.008915,43.7659574 L104.008915,35.9134184 L106.109012,35.9134184 L109.519657,41.794766 L109.557254,41.794766 C109.503543,40.7742531 109.476688,40.0527434 109.476688,39.6302153 L109.476688,35.9134184 L110.975223,35.9134184 L110.975223,43.7659574 Z" id="COMMUNICATION" fill="#FFFFFF"></path>
                    <g id="combo-chart" transform="translate(43.000000, 0.000000)">
                        <g id="Capa_1">
                            <g id="Group">
                                <g transform="translate(0.474164, 5.024071)" id="Shape" fill-rule="nonzero" fill="#FFFFFF">
                                    <path d="M2.53193938,15.9748302 L0.521181936,15.9748302 C0.510699148,17.0966869 0.538226003,15.6928526 0.538226003,16.0186534 L0.521181936,24.6111217 C0.521181936,24.9369226 0.526858205,24.3137584 0.521181936,24.9734874 L2.53193938,24.9734874 C2.52957427,24.3668132 2.53193938,24.8399072 2.53193938,24.5141063 L2.53193938,16.0186534 C2.53193938,15.6928526 2.53262603,17.0520397 2.53193938,15.9748302 Z"></path>
                                    <path d="M7.52287538,14.9713817 L5.515643,14.9713817 C5.5193814,15.9805828 5.515643,15.6478391 5.515643,15.97364 L5.515643,24.9803539 C6.06816375,24.9853588 5.73663001,24.9803539 6.0639218,24.9803539 L7.11867034,24.9803539 C7.44596213,24.9803539 6.98823821,24.9799419 7.52287538,24.9803539 L7.52287538,15.7502488 C7.52287538,15.4244479 7.51976287,15.7975994 7.52287538,14.9713817 Z"></path>
                                    <path d="M12.5288724,8.97707324 L10.5180844,8.97707324 C10.5247067,9.29834705 10.5180844,8.88471657 10.5180844,9.21051746 L10.5180844,24.9720226 C11.2795895,24.9799877 10.554669,24.9720226 10.8819607,24.9720226 L12.0313138,24.9720226 C12.3586056,24.9720226 12.028613,24.9764171 12.5288724,24.9720226 L12.5288724,9.39466052 C12.5288724,9.06885963 12.5285519,9.55263477 12.5288724,8.97707324 Z"></path>
                                    <path d="M17.5235013,3.97289233 L15.5300168,3.97289233 C15.5241574,5.11400562 15.5300168,4.65739113 15.5300168,4.98319202 L15.5300168,23.983192 C15.5300168,24.3089929 15.5235623,23.9448467 15.5300168,24.9745098 L17.5235013,24.9745098 C17.5287198,23.9480968 17.5235013,24.3089929 17.5235013,23.983192 L17.5235013,4.98319202 C17.5235013,4.65739113 17.5252408,5.08074146 17.5235013,3.97289233 Z"></path>
                                    <path d="M22.5276669,8.9822002 L20.5250729,8.9822002 C20.5251187,9.4377666 20.5250729,9.05239142 20.5250729,9.37819231 L20.5250729,24.5029827 C20.5250729,24.8287836 20.5215481,24.3635631 20.5250729,24.9754253 L22.5276669,24.9754253 C22.5252865,24.3496624 22.5276669,24.8705011 22.5276669,24.5447002 L22.5276669,9.37819231 C22.5276669,9.05239142 22.5270108,9.41791492 22.5276669,8.9822002 Z"></path>
                                    <path d="M26.966525,0.983954956 L26.0482815,0.983954956 C25.9004482,0.983954956 26.0745419,0.979896118 25.5235165,0.983954956 C25.5265835,1.57738452 25.5235165,1.41148226 25.5235165,1.59012323 L25.5235165,24.4823263 C25.5235165,24.6905172 25.5192136,24.4755474 25.5235165,24.9695812 C25.9213895,24.9714733 25.6935458,24.9695812 25.811694,24.9695812 L27.1541318,24.9695812 C27.2931092,24.9695812 27.0822476,24.969688 27.532214,24.9695812 C27.5339078,24.4783702 27.532214,24.6697828 27.532214,24.4823263 L27.532214,1.59012323 C27.532214,1.43156978 27.5323361,1.62245898 27.532214,0.983954956 C26.9758481,0.971915772 27.1345377,0.983954956 26.966525,0.983954956 Z"></path>
                                </g>
                                <circle id="Oval-4" fill="#FFFFFF" cx="1.5" cy="17.5" r="1.5"></circle>
                                <path d="M2.5,17.5 L6.5,15.5" id="Line" stroke="#FFFFFF" stroke-linecap="square"></path>
                                <circle id="Oval-4" fill="#FFFFFF" cx="6.5" cy="15.5" r="1.5"></circle>
                                <circle id="Oval-4" fill="#FFFFFF" cx="11.5" cy="9.5" r="1.5"></circle>
                                <path d="M12.5,9.5 L16.5,4.5" id="Line" stroke="#FFFFFF" stroke-linecap="square"></path>
                                <path d="M16.5,4.5 L21.5,9.5" id="Line" stroke="#FFFFFF" stroke-linecap="square"></path>
                                <path d="M21.5,9.5 L26.5,1.5" id="Line" stroke="#FFFFFF" stroke-linecap="square"></path>
                                <circle id="Oval-4" fill="#FFFFFF" cx="16.5" cy="4.5" r="1.5"></circle>
                                <circle id="Oval-4" fill="#FFFFFF" cx="21.5" cy="9.5" r="1.5"></circle>
                                <circle id="Oval-4" fill="#FFFFFF" cx="26.5" cy="1.5" r="1.5"></circle>
                                <path d="M6.5,15.5 L11.5,9.5" id="Line" stroke="#FFFFFF" stroke-linecap="square"></path>
                            </g>
                        </g>
                    </g>
                </g>
                <path d="M187.755859,84 L180.297363,84 L180.297363,54.0390625 C180.297363,50.4631983 180.381998,47.6279402 180.55127,45.5332031 C180.064613,46.0410182 179.466882,46.6017222 178.758057,47.215332 C178.049231,47.8289419 175.674174,49.775537 171.632812,53.0551758 L167.887695,48.3261719 L181.535156,37.5986328 L187.755859,37.5986328 L187.755859,84 Z" id="1" fill="#FFFFFF" opacity="0.219624534"></path>
                <path d="M391.309082,168 L359.856445,168 L359.856445,162.350586 L371.821777,150.321777 C375.355324,146.703595 377.698643,144.13811 378.851807,142.625244 C380.00497,141.112379 380.846026,139.68946 381.375,138.356445 C381.903974,137.023431 382.168457,135.595222 382.168457,134.071777 C382.168457,131.97704 381.538987,130.326666 380.280029,129.120605 C379.021071,127.914545 377.280773,127.311523 375.059082,127.311523 C373.281729,127.311523 371.56259,127.639482 369.901611,128.29541 C368.240633,128.951338 366.320486,130.136222 364.141113,131.850098 L360.110352,126.930664 C362.691745,124.751291 365.199044,123.20671 367.632324,122.296875 C370.065605,121.38704 372.657538,120.932129 375.408203,120.932129 C379.724631,120.932129 383.184069,122.058827 385.786621,124.312256 C388.389173,126.565685 389.69043,129.596661 389.69043,133.405273 C389.69043,135.50001 389.314864,137.488923 388.563721,139.37207 C387.812578,141.255218 386.659432,143.196523 385.104248,145.196045 C383.549064,147.195567 380.96242,149.898583 377.344238,153.305176 L369.282715,161.112793 L369.282715,161.430176 L391.309082,161.430176 L391.309082,168 Z" id="2" fill="#FFFFFF" opacity="0.276002799"></path>
                <path d="M362.563477,327.262695 C362.563477,330.203791 361.706552,332.652904 359.992676,334.610107 C358.2788,336.567311 355.866715,337.884437 352.756348,338.561523 L352.756348,338.81543 C356.480325,339.280927 359.273265,340.439362 361.135254,342.290771 C362.997242,344.14218 363.928223,346.601873 363.928223,349.669922 C363.928223,354.134462 362.351904,357.578032 359.199219,360.000732 C356.046534,362.423433 351.560901,363.634766 345.742188,363.634766 C340.60056,363.634766 336.263039,362.798999 332.729492,361.127441 L332.729492,354.494141 C334.697275,355.467453 336.781402,356.218585 338.981934,356.747559 C341.182465,357.276533 343.29833,357.541016 345.32959,357.541016 C348.926613,357.541016 351.613761,356.874518 353.391113,355.541504 C355.168466,354.208489 356.057129,352.145522 356.057129,349.352539 C356.057129,346.876941 355.073252,345.057297 353.105469,343.893555 C351.137685,342.729812 348.048524,342.147949 343.837891,342.147949 L339.807129,342.147949 L339.807129,336.085938 L343.901367,336.085938 C351.307003,336.085938 355.009766,333.525742 355.009766,328.405273 C355.009766,326.416331 354.364427,324.88233 353.07373,323.803223 C351.783034,322.724116 349.878756,322.18457 347.36084,322.18457 C345.604646,322.18457 343.911955,322.433184 342.282715,322.93042 C340.653475,323.427655 338.728038,324.395663 336.506348,325.834473 L332.856445,320.629395 C337.109396,317.497868 342.049939,315.932129 347.678223,315.932129 C352.354353,315.932129 356.004219,316.937164 358.62793,318.947266 C361.251641,320.957367 362.563477,323.729149 362.563477,327.262695 Z" id="3" fill="#FFFFFF" opacity="0.244344683"></path>
                <path d="M169.959473,401.875488 L163.707031,401.875488 L163.707031,412 L156.438965,412 L156.438965,401.875488 L135.237793,401.875488 L135.237793,396.130859 L156.438965,365.47168 L163.707031,365.47168 L163.707031,395.686523 L169.959473,395.686523 L169.959473,401.875488 Z M156.438965,395.686523 L156.438965,384.038574 C156.438965,379.891418 156.544758,376.495456 156.756348,373.850586 L156.502441,373.850586 C155.909991,375.247077 154.97901,376.939769 153.709473,378.928711 L142.188477,395.686523 L156.438965,395.686523 Z" id="4" fill="#FFFFFF" opacity="0.244344683"></path>
                <path d="M57.5986328,200.022949 C62.274763,200.022949 65.9775254,201.26073 68.7070312,203.736328 C71.4365371,206.211926 72.8012695,209.58673 72.8012695,213.86084 C72.8012695,218.812036 71.251399,222.678778 68.1516113,225.461182 C65.0518237,228.243585 60.6455364,229.634766 54.9326172,229.634766 C49.748672,229.634766 45.6756333,228.798999 42.7133789,227.127441 L42.7133789,220.367188 C44.4272547,221.3405 46.3950084,222.091631 48.6166992,222.620605 C50.83839,223.149579 52.9013577,223.414062 54.8056641,223.414062 C58.1699387,223.414062 60.7301344,222.662931 62.4863281,221.160645 C64.2425218,219.658358 65.1206055,217.45786 65.1206055,214.559082 C65.1206055,209.015435 61.5871122,206.243652 54.5200195,206.243652 C53.5255484,206.243652 52.2983471,206.344156 50.8383789,206.545166 C49.3784107,206.746176 48.0983128,206.973632 46.9980469,207.227539 L43.6655273,205.259766 L45.4428711,182.598633 L69.5639648,182.598633 L69.5639648,189.231934 L52.0126953,189.231934 L50.965332,200.721191 C51.7058956,200.594238 52.6104276,200.446127 53.6789551,200.276855 C54.7474826,200.107584 56.0540287,200.022949 57.5986328,200.022949 Z" id="5" fill="#FFFFFF" opacity="0.276002799"></path>
            </g>
        </g>
    </g>
</svg>