<?xml version="1.0" encoding="utf-8"?>
<!-- Generator: Adobe Illustrator 19.1.0, SVG Export Plug-In . SVG Version: 6.00 Build 0)  -->
<svg version="1.1" id="Layer_1" xmlns="http://www.w3.org/2000/svg" xmlns:xlink="http://www.w3.org/1999/xlink" x="0px" y="0px"
	 viewBox="0 0 640.444 560" enable-background="new 0 0 640.444 560" xml:space="preserve">
<g id="Capa_1_86_">
</g>
<g>
	<g>
		<g>
			<path fill="#8BC744" d="M496.065,120.211H391.173V79.068c0-43.029-34.993-78.04-78.031-78.04c-43.029,0-78.04,35.011-78.04,78.04
				v41.143H130.123L110.894,560h404.41L496.065,120.211z M252.665,79.059c0-33.336,27.151-60.477,60.487-60.477
				c33.326,0,60.442,27.151,60.442,60.477v41.143H252.665V79.059z"/>
		</g>
	</g>
</g>
<g>
	<path fill="#4474DF" d="M208.786,350.954l-0.075-66.588l81.935-11.126v77.714H208.786z M304.302,271.256l109.22-15.892v95.591
		h-109.22V271.256z M413.548,364.61l-0.026,95.591l-109.22-15.366V364.61H413.548z M290.646,443.097l-81.869-11.222l-0.004-67.264
		h81.873V443.097z"/>
</g>
</svg>
