<svg xmlns="http://www.w3.org/2000/svg" xmlns:xlink="http://www.w3.org/1999/xlink" width="45" height="51" viewBox="0 0 45 51"><defs><path id="1ohma" d="M462.83 582.72h9.97v-8.25z"/><path id="1ohmb" d="M472.8 584.2h-9.97c-.7 0-1.33-.37-1.6-.92-.26-.56-.1-1.2.4-1.61l9.97-8.25c.5-.42 1.23-.53 1.87-.3.64.23 1.05.76 1.05 1.35v8.25c0 .82-.77 1.48-1.72 1.48zm-5.71-2.95h3.99v-3.3z"/><path id="1ohmc" d="M504.17 604.87c-.95 0-1.72-.66-1.72-1.47v-26.8c0-.36-.38-.66-.85-.66h-18.8c-.96 0-1.73-.65-1.73-1.47 0-.81.77-1.47 1.72-1.47h18.81c2.37 0 4.3 1.61 4.3 3.6v26.8c0 .81-.78 1.47-1.73 1.47z"/><path id="1ohmd" d="M501.6 624h-36.2c-2.36 0-4.29-1.61-4.29-3.6v-37.68c0-.4.19-.78.52-1.05l9.97-8.25a1.94 1.94 0 0 1 2.44.03c.66.58.64 1.51-.04 2.08l-9.44 7.82v37.05c0 .36.38.66.84.66h36.2c.47 0 .85-.3.85-.66v-9.23c0-.81.77-1.47 1.72-1.47s1.73.66 1.73 1.47v9.23c0 1.99-1.93 3.6-4.3 3.6z"/><path id="1ohme" d="M504.17 584.2h-21.38c-.95 0-1.72-.66-1.72-1.48 0-.8.77-1.47 1.72-1.47h19.66v-4.28c0-.57-.54-1.03-1.2-1.03h-18.46c-.95 0-1.72-.65-1.72-1.47 0-.81.77-1.47 1.72-1.47h18.46c2.56 0 4.64 1.78 4.64 3.97v5.75c0 .82-.77 1.48-1.72 1.48z"/><path id="1ohmf" d="M469.62 591.88h8.48v6.48h-8.48z"/><path id="1ohmg" d="M479.1 599.83h-9.48c-.95 0-1.72-.66-1.72-1.47v-6.48c0-.81.77-1.47 1.72-1.47h9.49c.95 0 1.72.66 1.72 1.47v6.48c0 .81-.77 1.47-1.72 1.47zm-7.75-2.94h6.03v-3.54h-6.03z"/><path id="1ohmh" d="M490.8 599.4c-.46 0-.9-.15-1.23-.43l-2.76-2.35a1.33 1.33 0 0 1 0-2.08 1.94 1.94 0 0 1 2.44 0l1.54 1.31 5.37-4.58a1.94 1.94 0 0 1 2.44 0c.67.58.67 1.5 0 2.08l-6.59 5.62c-.32.28-.76.44-1.22.44z"/><path id="1ohmi" d="M469.62 607.48h8.48v6.48h-8.48z"/><path id="1ohmj" d="M479.1 615.43h-9.48c-.95 0-1.72-.66-1.72-1.47v-6.48c0-.81.77-1.47 1.72-1.47h9.49c.95 0 1.72.66 1.72 1.47v6.48c0 .81-.77 1.47-1.72 1.47zm-7.75-2.94h6.03v-3.54h-6.03z"/><path id="1ohmk" d="M490.8 615c-.46 0-.9-.15-1.23-.43l-2.76-2.35a1.33 1.33 0 0 1 0-2.08 1.94 1.94 0 0 1 2.44 0l1.54 1.31 5.37-4.58a1.94 1.94 0 0 1 2.44 0c.67.58.67 1.5 0 2.08l-6.59 5.62c-.32.28-.76.44-1.22.44z"/></defs><g><g transform="translate(-461 -573)"><use fill="#cee8fa" xlink:href="#1ohma"/></g><g transform="translate(-461 -573)"><use fill="#2d527c" xlink:href="#1ohmb"/></g><g transform="translate(-461 -573)"><use fill="#2d527c" xlink:href="#1ohmc"/></g><g transform="translate(-461 -573)"><use fill="#2d527c" xlink:href="#1ohmd"/></g><g transform="translate(-461 -573)"><use fill="#2d527c" xlink:href="#1ohme"/></g><g transform="translate(-461 -573)"><use fill="#cee8fa" xlink:href="#1ohmf"/></g><g transform="translate(-461 -573)"><use fill="#2d527c" xlink:href="#1ohmg"/></g><g transform="translate(-461 -573)"><use fill="#2d527c" xlink:href="#1ohmh"/></g><g transform="translate(-461 -573)"><use fill="#cee8fa" xlink:href="#1ohmi"/></g><g transform="translate(-461 -573)"><use fill="#2d527c" xlink:href="#1ohmj"/></g><g transform="translate(-461 -573)"><use fill="#2d527c" xlink:href="#1ohmk"/></g></g></svg>