<svg xmlns="http://www.w3.org/2000/svg" xmlns:xlink="http://www.w3.org/1999/xlink" width="50" height="51" viewBox="0 0 50 51"><defs><path id="ij2ka" d="M1041.9 624h-26.7a1.45 1.45 0 0 1 0-2.9h26.7c.63 0 1.14-.52 1.14-1.15v-34.44c0-.63-.5-1.14-1.14-1.14h-33.38c-.63 0-1.14.51-1.14 1.14a1.45 1.45 0 1 1-2.9 0 4.05 4.05 0 0 1 4.04-4.05h33.38a4.05 4.05 0 0 1 4.04 4.05v34.44a4.05 4.05 0 0 1-4.04 4.05z"/><path id="ij2kb" d="M1008.52 582.9h27.55v-5.85a2.6 2.6 0 0 0-2.59-2.6h-33.38a2.6 2.6 0 0 0-2.59 2.6v34.44a2.6 2.6 0 0 0 2.59 2.6h5.83V585.5a2.6 2.6 0 0 1 2.6-2.6z"/><path id="ij2kc" d="M1005.93 615.54h-5.83a4.05 4.05 0 0 1-4.04-4.05v-34.44a4.05 4.05 0 0 1 4.04-4.05h33.38a4.05 4.05 0 0 1 4.04 4.05v5.86c0 .8-.65 1.45-1.45 1.45h-27.55c-.63 0-1.14.52-1.14 1.15v28.58c0 .8-.65 1.45-1.45 1.45zm-5.83-39.63c-.63 0-1.14.51-1.14 1.14v34.44c0 .63.5 1.15 1.14 1.15h4.38V585.5a4.05 4.05 0 0 1 4.04-4.05h26.1v-4.4c0-.64-.5-1.15-1.14-1.15z"/><path id="ij2kd" d="M1016.52 612.91c-.37 0-.74-.14-1.03-.42a1.46 1.46 0 0 1 0-2.06l17.64-17.7a1.44 1.44 0 0 1 2.05 0c.56.56.56 1.48 0 2.05l-17.64 17.7c-.28.3-.65.43-1.02.43z"/><path id="ij2ke" d="M1034.38 603.19c-.07 0-.14 0-.21-.02a1.45 1.45 0 0 1-1.22-1.65l1.15-7.72-7.69 1.16c-.79.11-1.53-.43-1.64-1.23-.12-.8.42-1.53 1.21-1.65l9.63-1.44a1.45 1.45 0 0 1 1.64 1.65l-1.44 9.66c-.1.72-.72 1.24-1.43 1.24z"/><path id="ij2kf" d="M1014.6 614.84a1.45 1.45 0 0 1-1.43-1.67l1.43-9.66a1.45 1.45 0 1 1 2.87.43l-1.15 7.72 7.69-1.16a1.45 1.45 0 1 1 .43 2.88l-9.63 1.44-.21.02z"/></defs><g><g transform="translate(-996 -573)"><use fill="#2d527c" xlink:href="#ij2ka"/></g><g transform="translate(-996 -573)"><use fill="#cee8fa" xlink:href="#ij2kb"/></g><g transform="translate(-996 -573)"><use fill="#2d527c" xlink:href="#ij2kc"/></g><g transform="translate(-996 -573)"><use fill="#2d527c" xlink:href="#ij2kd"/></g><g transform="translate(-996 -573)"><use fill="#2d527c" xlink:href="#ij2ke"/></g><g transform="translate(-996 -573)"><use fill="#2d527c" xlink:href="#ij2kf"/></g></g></svg>