<svg xmlns="http://www.w3.org/2000/svg" xmlns:xlink="http://www.w3.org/1999/xlink" width="53" height="51" viewBox="0 0 53 51"><defs><path id="fhmga" d="M1053.03 1665.76c0-5.82-2.3-11.87-6-15.8a21.95 21.95 0 0 0-15.27-6.94l-.43-.01a9.7 9.7 0 0 0-.66 0h-.43c-6 .22-11.4 2.84-15.26 6.93a21.92 21.92 0 0 0-.43 29.64 22 22 0 0 0 15.69 7.4l.43.01.33.01h.76v-21.24s14.01.06 21.27 0z"/><path id="fhmgb" d="M1029.76 1667.76V1689h-1.09l-.43-.02a22 22 0 0 1 0-43.96l.43-.01a9.7 9.7 0 0 1 .66 0l.43.01c6 .2 11.4 2.83 15.27 6.93 3.7 3.94 6 10 6 15.8-7.26.07-21.27 0-21.27 0zm-16.44 12.4c1.93-1.3 4-2.35 6.15-3.13a28.04 28.04 0 0 1-1.83-9.27h-9.1a20.39 20.39 0 0 0 4.78 12.4zm-4.78-13.92h9.1c.1-3.46.8-6.82 2.09-9.93a27.9 27.9 0 0 1-6-2.95 20.4 20.4 0 0 0-5.2 12.88zm35.72-12.88a27.9 27.9 0 0 1-5.99 2.95c1.29 3.11 2 6.47 2.09 9.93h9.1a20.4 20.4 0 0 0-5.2-12.88zm-16.02-6.35a26.54 26.54 0 0 0-6.42 8.37c2.08.58 4.23.9 6.42.97zm-7.06 9.77a26.5 26.5 0 0 0-2.02 9.46h9.08v-8.37a28.03 28.03 0 0 1-7.06-1.1zm8.58 9.46h9.08c-.1-3.3-.78-6.5-2.02-9.46a28 28 0 0 1-7.06 1.09zm6.42-10.86c-1.53-3.16-3.7-6-6.42-8.37v9.34c2.2-.06 4.34-.39 6.42-.97zm7-3.13a20.42 20.42 0 0 0-11.5-5.55 28.02 28.02 0 0 1 5.98 8.22 26.39 26.39 0 0 0 5.53-2.67zm-16.85-5.55a20.42 20.42 0 0 0-11.52 5.55c1.75 1.1 3.6 2 5.53 2.67a28 28 0 0 1 5.99-8.22zm-5.42 29.84c2.36-.7 4.82-1.1 7.33-1.17v-7.61h-9.08a26.5 26.5 0 0 0 1.75 8.78zm.6 1.41a26.53 26.53 0 0 0 6.73 9.04v-10.1c-2.3.07-4.56.42-6.74 1.06zm4.82 9.35a28 28 0 0 1-6.28-8.87c-2 .72-3.9 1.67-5.7 2.87a20.44 20.44 0 0 0 11.98 6z"/><path id="fhmgc" d="M1048.45 1692h-2.9c-.58 0-1.06-.43-1.12-1.01l-.3-1.78c-.55-.18-1.1-.4-1.61-.67l-1.5 1.06a1.11 1.11 0 0 1-1.48-.1l-2.05-2.04a1.12 1.12 0 0 1-.08-1.5l1.05-1.48a9.6 9.6 0 0 1-.67-1.62l-1.8-.3a1.1 1.1 0 0 1-.99-1.11v-2.9c0-.58.43-1.06 1.01-1.12l1.78-.3c.18-.55.4-1.1.67-1.61l-1.06-1.5a1.1 1.1 0 0 1 .09-1.48l2.05-2.05c.4-.4 1.07-.43 1.5-.08l1.48 1.05c.51-.27 1.06-.5 1.62-.67l.3-1.8c.05-.56.53-.99 1.11-.99h2.9c.58 0 1.06.43 1.12 1l.3 1.8c.55.17 1.1.4 1.61.66l1.5-1.06a1.11 1.11 0 0 1 1.48.1l2.05 2.04c.41.4.44 1.05.08 1.5l-1.05 1.48c.27.51.5 1.06.67 1.61l1.8.3c.56.06.99.54.99 1.12v2.9c0 .58-.43 1.06-1.01 1.12l-1.78.3c-.18.55-.4 1.1-.67 1.61l1.06 1.5c.35.42.32 1.07-.09 1.48l-2.05 2.05c-.4.4-1.07.43-1.5.08l-1.48-1.05c-.51.27-1.06.5-1.61.67l-.3 1.8c-.06.56-.54.99-1.12.99z"/><path id="fhmgd" d="M1044.45 1693h-2.9c-.58 0-1.06-.43-1.12-1.01l-.3-1.78c-.55-.18-1.1-.4-1.61-.67l-1.5 1.06a1.11 1.11 0 0 1-1.48-.1l-2.05-2.04a1.12 1.12 0 0 1-.08-1.5l1.05-1.48a9.6 9.6 0 0 1-.67-1.62l-1.8-.3a1.1 1.1 0 0 1-.99-1.11v-2.9c0-.58.43-1.06 1.01-1.12l1.78-.3c.18-.55.4-1.1.67-1.61l-1.06-1.5a1.1 1.1 0 0 1 .09-1.48l2.05-2.05c.4-.4 1.07-.43 1.5-.08l1.48 1.05c.51-.27 1.06-.5 1.62-.67l.3-1.8c.05-.56.53-.99 1.11-.99h2.9c.58 0 1.06.43 1.12 1l.3 1.8c.55.17 1.1.4 1.61.66l1.5-1.06a1.11 1.11 0 0 1 1.48.1l2.05 2.04c.41.4.44 1.05.08 1.5l-1.05 1.48c.27.51.5 1.06.67 1.61l1.8.3c.56.06.99.54.99 1.12v2.9c0 .58-.43 1.06-1.01 1.12l-1.78.3c-.18.55-.4 1.1-.67 1.61l1.06 1.5c.35.42.32 1.07-.09 1.48l-2.05 2.05c-.4.4-1.07.43-1.5.08l-1.48-1.05c-.51.27-1.06.5-1.61.67l-.3 1.8c-.06.56-.54.99-1.12.99zm-5.96-4.33a.4.4 0 0 1 .19.05c.6.34 1.25.6 1.91.8a.4.4 0 0 1 .29.31l.34 2.06c.02.19.16.32.33.32h2.9c.17 0 .31-.13.33-.3l.34-2.08a.4.4 0 0 1 .29-.31c.66-.2 1.3-.46 1.9-.8a.4.4 0 0 1 .43.03l1.7 1.2c.17.14.34.12.46 0l2.05-2.05c.12-.12.13-.31.02-.44l-1.22-1.72a.4.4 0 0 1-.03-.42c.34-.6.6-1.25.8-1.91a.4.4 0 0 1 .31-.29l2.06-.34c.19-.02.32-.16.32-.33v-2.9a.33.33 0 0 0-.3-.33l-2.08-.34a.4.4 0 0 1-.31-.29 8.73 8.73 0 0 0-.8-1.9.4.4 0 0 1 .03-.43l1.2-1.7c.13-.15.12-.34 0-.46l-2.05-2.05a.34.34 0 0 0-.44-.02l-1.72 1.22a.4.4 0 0 1-.42.03c-.6-.34-1.25-.6-1.91-.8a.4.4 0 0 1-.29-.31l-.34-2.05c-.02-.2-.16-.33-.33-.33h-2.9a.33.33 0 0 0-.33.3l-.34 2.08a.4.4 0 0 1-.29.31c-.66.2-1.3.46-1.9.8a.4.4 0 0 1-.43-.03l-1.7-1.2c-.17-.14-.34-.12-.46 0l-2.05 2.05a.33.33 0 0 0-.02.44l1.22 1.72c.1.12.1.29.03.42a8.8 8.8 0 0 0-.8 1.91.4.4 0 0 1-.31.29l-2.06.34c-.19.02-.32.16-.32.33v2.9c0 .17.13.31.3.33l2.08.34a.4.4 0 0 1 .31.29c.19.66.46 1.3.8 1.9a.4.4 0 0 1-.03.43l-1.2 1.7c-.13.15-.12.34 0 .46l2.05 2.05c.12.12.32.13.44.02l1.72-1.22a.4.4 0 0 1 .23-.08zm4.51-2.92a4.75 4.75 0 1 1 .01-9.5 4.75 4.75 0 0 1-.01 9.5zm0-8.7a3.96 3.96 0 1 0 .01 7.91 3.96 3.96 0 0 0-.01-7.92z"/></defs><g><g transform="translate(-1006 -1643)"><use fill="#ffeff0" xlink:href="#fhmga"/></g><g transform="translate(-1006 -1643)"><use fill="#859dba" xlink:href="#fhmgb"/><use fill="#fff" fill-opacity="0" stroke="#859dba" stroke-miterlimit="50" stroke-width=".5" xlink:href="#fhmgb"/></g><g transform="translate(-1006 -1643)"><use fill="#ffeff0" xlink:href="#fhmgc"/></g><g transform="translate(-1006 -1643)"><use fill="#859dba" xlink:href="#fhmgd"/><use fill="#fff" fill-opacity="0" stroke="#859dba" stroke-miterlimit="50" xlink:href="#fhmgd"/></g></g></svg>