<?xml version="1.0" encoding="UTF-8" standalone="no"?>
<svg width="93px" height="132px" viewBox="0 0 93 132" version="1.1" xmlns="http://www.w3.org/2000/svg" xmlns:xlink="http://www.w3.org/1999/xlink">
    <!-- Generator: Sketch 45.2 (43514) - http://www.bohemiancoding.com/sketch -->
    <title>Group 15</title>
    <desc>Created with Sketch.</desc>
    <defs></defs>
    <g id="Page-1" stroke="none" stroke-width="1" fill="none" fill-rule="evenodd">
        <g id="Large-Device-Desktops" transform="translate(-347.000000, -1261.000000)">
            <g id="Group-9" transform="translate(346.000000, 807.000000)">
                <g id="Group-25">
                    <g id="Group-18" transform="translate(2.000000, 446.000000)">
                        <g id="Group-15" transform="translate(0.000000, 8.000000)">
                            <path d="M74.2489368,131.856463 L16.9238397,131.856463 C12.643232,131.856463 9.17505223,128.389547 9.17505223,124.115579 L9.17505223,7.74088373 C9.17505223,3.46464223 12.6455077,0 16.9238397,0 L74.2466611,0 C78.5272688,0 81.9954486,3.46691562 81.9954486,7.74088373 L81.9954486,124.113306 C81.9977243,128.389547 78.5272688,131.856463 74.2489368,131.856463 Z" id="Shape" fill="#424A60" fill-rule="nonzero"></path>
                            <ellipse id="Oval" fill="#EEF2F3" fill-rule="nonzero" cx="45.5863883" cy="120.489526" rx="6.82712551" ry="6.82016187"></ellipse>
                            <path d="M45.5863883,9.09354916 L36.4835543,9.09354916 C35.2250874,9.09354916 34.2078457,8.07734505 34.2078457,6.82016187 C34.2078457,5.5629787 35.2250874,4.54677458 36.4835543,4.54677458 L45.5863883,4.54677458 C46.8448551,4.54677458 47.8620968,5.5629787 47.8620968,6.82016187 C47.8620968,8.07734505 46.8448551,9.09354916 45.5863883,9.09354916 Z" id="Shape" fill="#E7ECED" fill-rule="nonzero"></path>
                            <path d="M54.6892223,9.09354916 L52.4135138,9.09354916 C51.155047,9.09354916 50.1378053,8.07734505 50.1378053,6.82016187 C50.1378053,5.5629787 51.155047,4.54677458 52.4135138,4.54677458 L54.6892223,4.54677458 C55.9476891,4.54677458 56.9649308,5.5629787 56.9649308,6.82016187 C56.9649308,8.07734505 55.9476891,9.09354916 54.6892223,9.09354916 Z" id="Shape" fill="#E7ECED" fill-rule="nonzero"></path>
                            <rect id="Rectangle-8" fill="#DADFE0" x="9" y="13.8587363" width="73" height="95"></rect>
                            <path d="M57.1349333,28.7051282 C57.1349333,28.7051282 55.7829333,28.5032051 54.4666667,28.7051282" id="Shape" fill="#91BAE1" fill-rule="nonzero"></path>
                            <polygon id="Shape" fill="#EEF2F3" fill-rule="nonzero" points="59.9782609 55.4827586 45.673913 41 14 41 14 101 59.9782609 101"></polygon>
                            <path d="M24.2173913,65.5172414 L46.7608696,65.5172414 C47.3248696,65.5172414 47.7826087,65.0548276 47.7826087,64.4827586 C47.7826087,63.9106897 47.3248696,63.4482759 46.7608696,63.4482759 L24.2173913,63.4482759 C23.6533913,63.4482759 23.1956522,63.9106897 23.1956522,64.4827586 C23.1956522,65.0548276 23.6533913,65.5172414 24.2173913,65.5172414 Z" id="Shape" fill="#CED6D9" fill-rule="nonzero"></path>
                            <path d="M24.2173913,56.5172414 L34.4347826,56.5172414 C34.9987826,56.5172414 35.4565217,56.0548276 35.4565217,55.4827586 C35.4565217,54.9106897 34.9987826,54.4482759 34.4347826,54.4482759 L24.2173913,54.4482759 C23.6533913,54.4482759 23.1956522,54.9106897 23.1956522,55.4827586 C23.1956522,56.0548276 23.6533913,56.5172414 24.2173913,56.5172414 Z" id="Shape" fill="#CED6D9" fill-rule="nonzero"></path>
                            <path d="M46.7608696,71.4482759 L24.2173913,71.4482759 C23.6533913,71.4482759 23.1956522,71.9106897 23.1956522,72.4827586 C23.1956522,73.0548276 23.6533913,73.5172414 24.2173913,73.5172414 L46.7608696,73.5172414 C47.3248696,73.5172414 47.7826087,73.0548276 47.7826087,72.4827586 C47.7826087,71.9106897 47.3248696,71.4482759 46.7608696,71.4482759 Z" id="Shape" fill="#CED6D9" fill-rule="nonzero"></path>
                            <path d="M38.7608696,79.4482759 L24.2173913,79.4482759 C23.6533913,79.4482759 23.1956522,79.9106897 23.1956522,80.4827586 C23.1956522,81.0548276 23.6533913,81.5172414 24.2173913,81.5172414 L38.7608696,81.5172414 C39.3248696,81.5172414 39.7826087,81.0548276 39.7826087,80.4827586 C39.7826087,79.9106897 39.3248696,79.4482759 38.7608696,79.4482759 Z" id="Shape" fill="#CED6D9" fill-rule="nonzero"></path>
                            <path d="M38.7608696,87.4482759 L24.2173913,87.4482759 C23.6533913,87.4482759 23.1956522,87.9106897 23.1956522,88.4827586 C23.1956522,89.0548276 23.6533913,89.5172414 24.2173913,89.5172414 L38.7608696,89.5172414 C39.3248696,89.5172414 39.7826087,89.0548276 39.7826087,88.4827586 C39.7826087,87.9106897 39.3248696,87.4482759 38.7608696,87.4482759 Z" id="Shape" fill="#CED6D9" fill-rule="nonzero"></path>
                            <polygon id="Shape" fill="#CED6D9" fill-rule="nonzero" points="46 41 46 55.4827586 60.3043478 55.4827586"></polygon>
                            <path d="M91.3533835,24.7847679 L91.3533835,41.0180357 C91.3533835,43.1089107 89.635906,44.8035714 87.5176579,44.8035714 L71.1203008,44.8035714 L63.3383459,53.25 L63.3383459,44.8035714 L57.8357256,44.8035714 C55.7174774,44.8035714 54,43.1089107 54,41.0188036 L54,24.7855357 C54,22.6946607 55.7174774,21 57.8357256,21 L87.5168797,21 C89.635906,21 91.3533835,22.6946607 91.3533835,24.7847679 Z" id="Shape" fill="#F9A53D" fill-rule="nonzero"></path>
                            <path d="M73.6729323,29.5357143 L62.7781955,29.5357143 C62.3478534,29.5357143 62,29.1917143 62,28.7678571 C62,28.344 62.3478534,28 62.7781955,28 L73.6729323,28 C74.1032744,28 74.4511278,28.344 74.4511278,28.7678571 C74.4511278,29.1917143 74.1032744,29.5357143 73.6729323,29.5357143 Z" id="Shape" fill="#FFFFFF" fill-rule="nonzero"></path>
                            <path d="M83.7894737,33.5357143 L62.7781955,33.5357143 C62.3478534,33.5357143 62,33.1917143 62,32.7678571 C62,32.344 62.3478534,32 62.7781955,32 L83.7894737,32 C84.2198158,32 84.5676692,32.344 84.5676692,32.7678571 C84.5676692,33.1917143 84.2198158,33.5357143 83.7894737,33.5357143 Z" id="Shape" fill="#FFFFFF" fill-rule="nonzero"></path>
                            <path d="M83.7894737,38.5357143 L62.7781955,38.5357143 C62.3478534,38.5357143 62,38.1917143 62,37.7678571 C62,37.344 62.3478534,37 62.7781955,37 L83.7894737,37 C84.2198158,37 84.5676692,37.344 84.5676692,37.7678571 C84.5676692,38.1917143 84.2198158,38.5357143 83.7894737,38.5357143 Z" id="Shape" fill="#FFFFFF" fill-rule="nonzero"></path>
                            <path d="M53,83.7699115 L53,74.4298781 C53,70.8931722 56.1426036,68 59.9835636,68 L59.9835636,68 C63.8245236,68 66.9671272,70.8931722 66.9671272,74.4298781 L66.9671272,83.7699115 L53,83.7699115 Z" id="Shape" stroke="#8F939E" stroke-width="2" stroke-linecap="round"></path>
                            <rect id="Rectangle-path" fill="#F05244" fill-rule="nonzero" x="47" y="82" width="25.5051889" height="19.4091219"></rect>
                            <path d="M59.8217992,95.2784207 L59.8217992,95.2784207 C58.8198096,95.2784207 58,94.4595984 58,93.4588155 L58,89.8196052 C58,88.8188223 58.8198096,88 59.8217992,88 L59.8217992,88 C60.8237888,88 61.6435984,88.8188223 61.6435984,89.8196052 L61.6435984,93.4588155 C61.6435984,94.4595984 60.8237888,95.2784207 59.8217992,95.2784207 Z" id="Shape" fill="#FF9086" fill-rule="nonzero"></path>
                            <path d="M26.1349333,31.6153846 C26.0736,26.9313077 22.2986667,23 17.6448,23 C14.68,23 11.896,24.6180769 10.3589333,26.9501538 C9.68373333,26.4962308 8.87253333,26.2307692 8,26.2307692 C5.64373333,26.2307692 3.73333333,28.1595385 3.73333333,30.5384615 C3.73333333,30.6208462 3.7408,30.7010769 3.7456,30.7829231 C3.74026667,30.8809231 3.73333333,30.98 3.73333333,31.0769231 C1.6064,32.1064615 0,34.5537692 0,37.0834615 C0,40.5915385 2.84266667,43.4615385 6.31733333,43.4615385 L19.3877333,43.4615385 C19.4613333,43.4615385 19.5328,43.4529231 19.6053333,43.4502308 C19.6784,43.4529231 19.7498667,43.4615385 19.8229333,43.4615385 L25.0512,43.4615385 C28.2864,43.4615385 30.9333333,40.7891538 30.9333333,37.5233846 C30.9333333,34.6313077 28.8565333,32.1328462 26.1349333,31.6153846 Z" id="Shape" stroke="#DADFE0" fill="#FFFFFF" fill-rule="nonzero"></path>
                            <path d="M21.4362667,43.0881311 C21.1429333,43.0272849 20.8666667,43.2205926 20.8096,43.5124388 C20.3722667,45.7567465 18.4618667,47.3855926 16.2661333,47.3855926 C14.4789333,47.3855926 12.8810667,46.3054388 12.112,44.6932849 L14.9333333,44.6932849 L14.9333333,43.6163618 L11.7333333,43.6163618 L11.2,43.6163618 L10.6666667,43.6163618 L10.6666667,47.9240542 L11.7333333,47.9240542 L11.7333333,46.1250542 C12.7872,47.5557465 14.4458667,48.4625157 16.2666667,48.4625157 C18.9696,48.4625157 21.3210667,46.4680542 21.8565333,43.7202849 C21.9130667,43.4284388 21.7253333,43.145208 21.4362667,43.0881311 Z" id="Shape" fill="#556080" fill-rule="nonzero"></path>
                            <path d="M20.7999133,37.6153846 L20.7999133,39.4143846 C19.7460467,37.9836923 18.08738,37.0769231 16.26658,37.0769231 C13.5636467,37.0769231 11.21218,39.0713846 10.6767133,41.8191538 C10.62018,42.111 10.8079133,42.3942308 11.09698,42.4513077 C11.3903133,42.5121538 11.66658,42.3188462 11.7236467,42.027 C12.16098,39.7826923 14.07138,38.1538462 16.2671133,38.1538462 C18.0543133,38.1538462 19.65218,39.234 20.4212467,40.8461538 L17.5999133,40.8461538 L17.5999133,41.9230769 L20.7999133,41.9230769 L21.3332467,41.9230769 L21.86658,41.9230769 L21.86658,37.6153846 L20.7999133,37.6153846 L20.7999133,37.6153846 Z" id="Shape" fill="#556080" fill-rule="nonzero"></path>
                        </g>
                    </g>
                </g>
            </g>
        </g>
    </g>
</svg>