<?xml version="1.0" encoding="UTF-8" standalone="no"?>
<svg width="211px" height="45px" viewBox="0 0 211 45" version="1.1" xmlns="http://www.w3.org/2000/svg" xmlns:xlink="http://www.w3.org/1999/xlink">
    <!-- Generator: Sketch 45.2 (43514) - http://www.bohemiancoding.com/sketch -->
    <title>freshbrix</title>
    <desc>Created with Sketch.</desc>
    <defs></defs>
    <g id="Page-1" stroke="none" stroke-width="1" fill="none" fill-rule="evenodd">
        <g id="Large-Device-Desktops" transform="translate(-857.000000, -4438.000000)">
            <g id="Group-37" transform="translate(151.000000, 4316.000000)">
                <g id="Group-35" transform="translate(0.000000, 111.000000)">
                    <g id="freshbrix" transform="translate(708.067383, 13.000000)">
                        <g id="Group-40">
                            <path d="M10.5300821,16.5123163 L20.1826574,16.5123163 L20.1826574,21.7267319 L10.5300821,21.7267319 L10.5300821,21.7267319 C9.07618121,21.7267319 7.89756158,20.5594452 7.89756158,19.1195241 L7.89756158,19.1195241 L7.89756158,19.1195241 C7.89756158,17.679603 9.07618121,16.5123163 10.5300821,16.5123163 Z" id="Rectangle-6" fill="#2AA5D2" fill-rule="nonzero"></path>
                            <path d="M32.4677532,16.5123163 L42.1203284,16.5123163 L42.1203284,21.7267319 L32.4677532,21.7267319 L32.4677532,21.7267319 C31.0138523,21.7267319 29.8352326,20.5594452 29.8352326,19.1195241 L29.8352326,19.1195241 L29.8352326,19.1195241 C29.8352326,17.679603 31.0138523,16.5123163 32.4677532,16.5123163 Z" id="Rectangle-6" fill="#2AA5D2" fill-rule="nonzero" transform="translate(35.977781, 19.119524) scale(-1, 1) translate(-35.977781, -19.119524) "></path>
                            <rect id="Rectangle-9" fill="#F47526" fill-rule="nonzero" x="21.0601642" y="16.5123163" width="7.89756158" height="5.21441566"></rect>
                            <path d="M14.0401095,26.0720783 L20.1826574,26.0720783 L20.1826574,29.5483554 L14.0401095,29.5483554 L14.0401095,29.5483554 C13.0708422,29.5483554 12.2850958,28.7701643 12.2850958,27.8102169 L12.2850958,27.8102169 L12.2850958,27.8102169 C12.2850958,26.8502694 13.0708422,26.0720783 14.0401095,26.0720783 Z" id="Rectangle-6" fill="#F47526" fill-rule="nonzero"></path>
                            <path d="M31.5902463,26.0720783 L37.7327942,26.0720783 L37.7327942,29.5483554 L31.5902463,29.5483554 L31.5902463,29.5483554 C30.620979,29.5483554 29.8352326,28.7701643 29.8352326,27.8102169 L29.8352326,27.8102169 L29.8352326,27.8102169 C29.8352326,26.8502694 30.620979,26.0720783 31.5902463,26.0720783 Z" id="Rectangle-6" fill="#F47526" fill-rule="nonzero" transform="translate(33.784013, 27.810217) scale(-1, 1) translate(-33.784013, -27.810217) "></path>
                            <rect id="Rectangle-9" fill="#8C8D90" fill-rule="nonzero" x="21.0601642" y="26.0720783" width="7.89756158" height="3.47627711"></rect>
                            <path d="M16.3505142,33.4591672 L20.1826574,33.4591672 L20.1826574,36.3454383 L16.3505142,36.3454383 L16.3505142,36.3454383 C15.5457543,36.3454383 14.8933676,35.6993245 14.8933676,34.9023028 L14.8933676,34.9023028 L14.8933676,34.9023028 C14.8933676,34.105281 15.5457543,33.4591672 16.3505142,33.4591672 Z" id="Rectangle-6" fill="#2AA5D2" fill-rule="nonzero"></path>
                            <path d="M33.9491247,33.4591672 C34.598279,33.4591672 35.1245225,34.105281 35.1245225,34.9023028 C35.1245225,35.6993245 34.598279,36.3454383 33.9491247,36.3454383 L29.8352326,36.3454383 L29.8352326,33.4591672 L33.9491247,33.4591672 Z" id="Rectangle-6" fill="#2AA5D2" fill-rule="nonzero"></path>
                            <rect id="Rectangle-9" fill="#F47526" fill-rule="nonzero" x="21.0601642" y="33.4591672" width="7.89756158" height="2.88627115"></rect>
                            <polyline id="Path-2" stroke="#2AA5D2" stroke-width="4" stroke-linecap="round" points="0.291573929 15.2125315 24.901399 0.804992391 49.6176989 14.9197299"></polyline>
                            <rect id="Rectangle-12" fill="#2AA5D2" fill-rule="nonzero" x="8.77506843" y="39.9771867" width="33.34526" height="1.73813855" rx="0.869069277"></rect>
                        </g>
                        <g id="Group-39" transform="translate(54.405424, 15.643247)" fill-rule="nonzero">
                            <path d="M0.0702005474,1.73813855 L17.7256382,1.73813855 L17.6905379,6.29206156 L5.61604379,6.29206156 L5.61604379,12.2712582 L16.7077303,12.2712582 L16.7077303,16.859944 L5.61604379,16.859944 L5.61604379,26.0720783 L0.0702005474,26.0720783 L0.0702005474,1.73813855 Z M28.466322,8.09972566 C29.5193354,7.49716795 30.7478327,7.18430614 32.1518507,7.16113084 L32.1518507,12.2017326 C31.9646483,12.1785573 31.6838489,12.1669699 31.3094441,12.1669699 C29.6480229,12.1669699 28.3317758,12.6130876 27.3606634,13.5053366 C26.3895509,14.3975855 25.904002,15.5853016 25.904002,17.0685206 L25.904002,26.0720783 L20.4985598,26.0720783 L20.4985598,7.36970747 L25.904002,7.36970747 L25.904002,10.7416963 C26.5592104,9.58293143 27.4133085,8.70228337 28.466322,8.09972566 Z M49.7897382,9.80310144 C51.3692585,11.5412487 52.1590067,13.9630309 52.1590067,17.0685206 C52.1590067,17.6247277 52.1473067,18.0534643 52.1239064,18.3547431 L38.5752008,18.3547431 C38.8794047,19.5366833 39.4644034,20.4578875 40.3302145,21.1183834 C41.1960256,21.7788794 42.2373233,22.1091224 43.4541388,22.1091224 C44.3433502,22.1091224 45.1974483,21.941104 46.0164588,21.6050622 C46.8354693,21.2690204 47.5725677,20.7765528 48.2277761,20.1276445 L51.0708982,22.9781917 C50.111486,24.0442553 48.9473385,24.8611723 47.578421,25.428967 C46.2095035,25.9967618 44.6826568,26.2806549 42.9978353,26.2806549 C41.0088098,26.2806549 39.2713637,25.8866808 37.7854446,25.0987207 C36.2995256,24.3107606 35.1529281,23.1983631 34.3456178,21.7614947 C33.5383075,20.3246263 33.1346584,18.6676175 33.1346584,16.7904184 C33.1346584,14.8900441 33.5441575,13.215654 34.363168,11.767198 C35.1821784,10.318742 36.3287759,9.19475695 37.8029948,8.39520921 C39.2772136,7.59566148 40.9620099,7.19589361 42.8574342,7.19589361 C45.8994731,7.19589361 48.210218,8.0649542 49.7897382,9.80310144 Z M47.069467,15.191331 C47.0226664,13.9630402 46.6248673,12.9781049 45.8760577,12.2364954 C45.1272481,11.4948859 44.1327503,11.1240867 42.8925345,11.1240867 C41.7225195,11.1240867 40.7455716,11.4890922 39.9616616,12.219114 C39.1777516,12.9491359 38.6805027,13.9398649 38.4699,15.191331 L47.069467,15.191331 Z M64.1984006,11.5238586 C63.1921877,11.2109921 62.2912897,11.0545612 61.4956795,11.0545612 C60.8404711,11.0545612 60.3139723,11.1704359 59.9161672,11.4021889 C59.5183621,11.6339419 59.3194626,11.9815661 59.3194626,12.445072 C59.3194626,12.9549286 59.588562,13.3489027 60.1267689,13.6270063 C60.6649757,13.9051098 61.5424738,14.2179716 62.7592894,14.5656011 C64.0931065,14.9595811 65.192904,15.3477615 66.0587151,15.7301539 C66.9245262,16.1125463 67.6733245,16.6803326 68.3051326,17.4335297 C68.9369407,18.1867268 69.25284,19.1774559 69.25284,20.4057466 C69.25284,22.2597703 68.5332916,23.7024109 67.0941732,24.7337116 C65.6550548,25.7650123 63.8123088,26.2806549 61.5658801,26.2806549 C60.0214603,26.2806549 58.5355636,26.0546992 57.1081453,25.6027809 C55.680727,25.1508626 54.4405298,24.5077578 53.3875163,23.6734471 L55.14253,20.0581189 C56.1019423,20.7997284 57.1724899,21.3733084 58.354205,21.7788761 C59.5359202,22.1844438 60.6532677,22.3872246 61.7062812,22.3872246 C62.4316905,22.3872246 63.0108392,22.2655561 63.4437447,22.0222155 C63.8766503,21.7788749 64.0930998,21.4138694 64.0930998,20.9271882 C64.0930998,20.3941564 63.8181504,19.9770073 63.2682433,19.6757284 C62.7183363,19.3744496 61.8349883,19.0500003 60.6181727,18.7023708 C59.3311562,18.3315661 58.2606086,17.9607669 57.4064976,17.5899622 C56.5523867,17.2191574 55.8211383,16.6571649 55.2127305,15.9039678 C54.6043227,15.1507706 54.3001234,14.171629 54.3001234,12.9665136 C54.3001234,11.1124899 55.0021219,9.67564305 56.4061398,8.65593 C57.8101578,7.63621695 59.5885539,7.12636807 61.7413814,7.12636807 C63.0283979,7.12636807 64.3153951,7.30597392 65.6024116,7.66519102 C66.889428,8.02440812 68.0594254,8.54005073 69.1124389,9.21213433 L67.2521244,12.8622253 C66.2225112,12.2828429 65.2046135,11.8367251 64.1984006,11.5238586 Z M89.6987494,9.10784602 C90.9506656,10.4056626 91.5766141,12.1437838 91.5766141,14.3222617 L91.5766141,26.0720783 L86.1711719,26.0720783 L86.1711719,15.8865864 C86.1711719,14.7046463 85.8377227,13.7718546 85.1708141,13.0881833 C84.5039056,12.4045121 83.5971576,12.0626816 82.4505429,12.0626816 C81.1167259,12.0858569 80.0578782,12.5435621 79.2739682,13.435811 C78.4900581,14.3280599 78.098109,15.4694262 78.098109,16.859944 L78.098109,26.0720783 L72.6926668,26.0720783 L72.6926668,0.278102169 L78.098109,0.278102169 L78.098109,10.6721707 C79.4085258,8.37781636 81.584721,7.20748143 84.6267599,7.16113084 C86.7561871,7.16113084 88.4468333,7.81002941 89.6987494,9.10784602 Z" id="FreshBrix" fill="#2AA5D2"></path>
                            <path d="M110.548312,3.35460741 C111.94063,4.4322587 112.636778,5.92124917 112.636778,7.82162349 C112.636778,9.25849188 112.23313,10.4635892 111.425819,11.4369517 C110.618508,12.4103141 109.489461,13.0476252 108.038642,13.3489041 C109.840466,13.5806571 111.244463,14.2411431 112.250675,15.330382 C113.256888,16.419621 113.759987,17.7985304 113.759987,19.4671518 C113.759987,21.5529285 112.976089,23.1751749 111.408269,24.3339397 C109.840448,25.4927046 107.664253,26.0720783 104.879618,26.0720783 L94.4899368,26.0720783 L94.4899368,1.73813855 L104.774317,1.73813855 C107.231348,1.73813855 109.155994,2.27695612 110.548312,3.35460741 Z M108.705548,11.3500448 C109.66496,10.5968476 110.144659,9.52500623 110.144659,8.13448843 C110.144659,6.79032123 109.66496,5.74744853 108.705548,5.00583903 C107.746135,4.26422954 106.400638,3.90501783 104.669016,3.92819313 L96.9118557,3.92819313 L96.9118557,12.4798348 L104.669016,12.4798348 C106.400638,12.4798348 107.746135,12.1032419 108.705548,11.3500448 Z M109.565504,22.6827081 C110.72382,21.8599851 111.302968,20.7070314 111.302968,19.2238124 C111.302968,17.7637687 110.717969,16.6281962 109.547954,15.8170608 C108.377939,15.0059255 106.751643,14.6003638 104.669016,14.6003638 L96.9118557,14.6003638 L96.9118557,23.9167865 L104.669016,23.9167865 C106.775043,23.9167865 108.407189,23.5054312 109.565504,22.6827081 Z M123.044009,8.91665078 C124.178924,8.18662894 125.541971,7.81003602 127.133191,7.78686072 L127.133191,9.9769153 C125.190967,9.95374 123.62902,10.5157325 122.447305,11.6629097 C121.26559,12.8100869 120.592842,14.3686022 120.429039,16.3385024 L120.429039,26.0720783 L118.077321,26.0720783 L118.077321,7.85638626 L120.429039,7.85638626 L120.429039,12.0974443 C121.037447,10.7069265 121.909095,9.64667262 123.044009,8.91665078 Z M130.573018,7.85638626 L132.924737,7.85638626 L132.924737,26.0720783 L130.573018,26.0720783 L130.573018,7.85638626 Z M137.27717,7.85638626 L140.014992,7.85638626 L145.139632,15.0870426 L150.299372,7.85638626 L152.931893,7.85638626 L146.684044,16.6861301 L153.388196,26.0720783 L150.615274,26.0720783 L145.104531,18.2852176 L139.453387,26.0720783 L136.785767,26.0720783 L143.560119,16.6861301 L137.27717,7.85638626 Z" id="FreshBrix" stroke="#8C8D90" fill="#8C8D90"></path>
                            <path d="M133.136093,1.47797846 C133.463194,1.81439406 133.626742,2.23179233 133.626742,2.73018581 C133.626742,3.22857928 133.456904,3.65220738 133.117222,4.00108281 C132.77754,4.34995825 132.36867,4.52439335 131.890599,4.52439335 C131.387367,4.52439335 130.965917,4.34995825 130.626235,4.00108281 C130.286553,3.65220738 130.116715,3.22857928 130.116715,2.73018581 C130.116715,2.23179233 130.286553,1.81439406 130.626235,1.47797846 C130.965917,1.14156286 131.387367,0.97335759 131.890599,0.97335759 C132.393832,0.97335759 132.808992,1.14156286 133.136093,1.47797846 Z" id="Path" stroke="#F47526" fill="#F47526"></path>
                        </g>
                    </g>
                </g>
            </g>
        </g>
    </g>
</svg>