<?xml version="1.0" encoding="UTF-8" standalone="no"?>
<svg width="95px" height="131px" viewBox="0 0 95 131" version="1.1" xmlns="http://www.w3.org/2000/svg" xmlns:xlink="http://www.w3.org/1999/xlink">
    <!-- Generator: Sketch 45.2 (43514) - http://www.bohemiancoding.com/sketch -->
    <title>Group 2</title>
    <desc>Created with Sketch.</desc>
    <defs></defs>
    <g id="Page-1" stroke="none" stroke-width="1" fill="none" fill-rule="evenodd">
        <g id="Large-Device-Desktops" transform="translate(-346.000000, -807.000000)">
            <g id="Group-9" transform="translate(346.000000, 807.000000)">
                <g id="Group-25">
                    <g id="Group-9">
                        <g id="Group-23">
                            <g id="Group-2">
                                <g id="smartphone-(6)">
                                    <path d="M64.648,130.997743 L7.80902564,130.997743 C3.56471795,130.997743 0.125948718,127.55595 0.125948718,123.312953 L0.125948718,7.78155219 C0.125948718,3.53629795 3.56697436,0.0967618198 7.80902564,0.0967618198 L64.6457436,0.0967618198 C68.8900513,0.0967618198 72.3288205,3.53855486 72.3288205,7.78155219 L72.3288205,123.310696 C72.3310769,127.55595 68.8900513,130.997743 64.648,130.997743 Z" id="Shape" fill="#424A60" fill-rule="nonzero"></path>
                                    <ellipse id="Oval" fill="#EEF2F3" fill-rule="nonzero" cx="36.2285128" cy="119.713176" rx="6.76923077" ry="6.77074041"></ellipse>
                                    <path d="M36.2285128,9.1244157 L27.2028718,9.1244157 C25.9550769,9.1244157 24.9464615,8.11557538 24.9464615,6.86750223 C24.9464615,5.61942908 25.9550769,4.61058876 27.2028718,4.61058876 L36.2285128,4.61058876 C37.4763077,4.61058876 38.4849231,5.61942908 38.4849231,6.86750223 C38.4849231,8.11557538 37.4763077,9.1244157 36.2285128,9.1244157 Z" id="Shape" fill="#E7ECED" fill-rule="nonzero"></path>
                                    <path d="M45.2541538,9.1244157 L42.9977436,9.1244157 C41.7499487,9.1244157 40.7413333,8.11557538 40.7413333,6.86750223 C40.7413333,5.61942908 41.7499487,4.61058876 42.9977436,4.61058876 L45.2541538,4.61058876 C46.5019487,4.61058876 47.5105641,5.61942908 47.5105641,6.86750223 C47.5105641,8.11557538 46.5019487,9.1244157 45.2541538,9.1244157 Z" id="Shape" fill="#E7ECED" fill-rule="nonzero"></path>
                                    <polygon id="Rectangle-8" fill="#DADFE0" points="0.128570557 13.4286084 72.3315735 13.4286084 72.3315735 108.428608 0.128570557 108.428608"></polygon>
                                </g>
                                <g id="puzzle" transform="translate(16.000000, 18.000000)" fill-rule="nonzero">
                                    <path d="M65.9658178,34.8880683 L78.8720952,30.9472277 L70.2022133,1.78477847 C69.8081946,0.405467909 68.4288841,-0.28410559 67.0495735,0.109913043 L38.2813064,8.87842236 L42.222147,21.9817909 C42.714793,20.996499 43.6014576,20.2084617 44.6852133,19.9129068 C47.1482795,19.124706 49.7098095,20.8981988 49.9069006,23.5581925 C50.0053644,25.1345942 49.1186998,26.7108323 47.7393892,27.4005694 C46.3600787,28.0901429 44.9807681,27.9916791 43.7985487,27.3021056 L47.7393892,40.4054741 L60.6456667,36.4646335 C59.9560932,37.646853 59.8574658,39.1247909 60.5472029,40.4054741 C61.2367764,41.7847847 62.8131781,42.6714493 64.3895797,42.5729855 C67.0497371,42.3758944 68.7246025,39.7159006 68.0348654,37.2528344 C67.7393106,36.1689151 66.9511097,35.282087 65.9658178,34.8880683 Z" id="Shape" fill="#F9A53D"></path>
                                    <path d="M35.5226853,25.3315217 C34.3404658,25.3315217 33.3551739,25.8241677 32.5669731,26.6123685 L32.5669731,13.016354 L2.51802277,13.016354 C1.13871222,13.016354 0.0549565217,14.1001097 0.0549565217,15.5778841 L0.0549565217,45.9225528 L13.5523437,45.9225528 C12.7641429,45.134352 12.2714969,44.1492236 12.2714969,42.9668406 C12.2714969,40.4053106 14.6359358,38.3362629 17.2960932,39.026 C18.7738675,39.4200186 20.0547143,40.7008654 20.3502692,42.1786398 C20.645824,43.6564141 20.1531781,45.0357246 19.1680497,45.9223892 L32.6654369,45.9223892 L32.6654369,32.227911 C33.5521014,33.2132029 34.931412,33.7056853 36.4091863,33.4101304 C37.985588,33.1145756 39.1678075,31.9323561 39.5618261,30.3559545 C40.0546356,27.6959607 38.0842153,25.3315217 35.5226853,25.3315217 Z" id="Shape" fill="#395368"></path>
                                    <path d="M51.581766,45.9223892 C52.567058,46.8090538 53.0595404,48.1883644 52.7639855,49.6661387 C52.4684306,51.2425404 51.2862112,52.5232236 49.7098095,52.8187785 C47.0496522,53.4098882 44.6852133,51.4394679 44.6852133,48.8779379 C44.6852133,47.6957184 45.1778592,46.6119627 45.96606,45.9222257 L32.5671366,45.9222257 L32.5671366,59.6167039 C31.680472,58.631412 30.3011615,58.1389296 28.8233872,58.4344845 C27.2469855,58.7300393 26.064766,59.9122588 25.6707474,61.4886605 C25.0796377,64.1488178 27.050058,66.5132567 29.611588,66.5132567 C30.7938075,66.5132567 31.7790994,66.0206108 32.5673002,65.2324099 L32.5673002,78.9268882 L62.616087,78.9268882 C63.9953975,78.9268882 65.0791532,77.8431325 65.0791532,76.3653582 L65.0791532,45.9223892 L51.581766,45.9223892 Z" id="Shape" fill="#F05244"></path>
                                    <path d="M28.8232236,58.3361843 C30.3009979,58.0406294 31.6803085,58.6317391 32.5669731,59.5184037 L32.5669731,45.9223892 L19.0695859,45.9223892 C20.0548778,45.0357246 20.5473602,43.6564141 20.2518054,42.1786398 C19.9562505,40.6022381 18.7740311,39.3215549 17.1976294,39.026 C14.537472,38.4348903 12.1730331,40.4053106 12.1730331,42.9668406 C12.1730331,44.14906 12.6656791,45.2328157 13.4538799,45.9225528 L0.0549565217,45.9225528 L0.0549565217,76.2672215 C0.0549565217,77.6465321 1.13871222,78.8287516 2.51802277,78.8287516 L32.5671366,78.8287516 L32.5671366,65.1342733 C31.8775631,65.9224741 30.7938075,66.4151201 29.6114244,66.4151201 C27.0498944,66.4151201 25.0794741,64.0506812 25.6705839,61.3905238 C26.0646025,59.9125859 27.3454493,58.6317391 28.8232236,58.3361843 Z" id="Shape" fill="#EEF2F3"></path>
                                </g>
                            </g>
                        </g>
                    </g>
                </g>
            </g>
        </g>
    </g>
</svg>