<?xml version="1.0" encoding="UTF-8" standalone="no"?>
<svg width="41px" height="32px" viewBox="0 0 41 32" version="1.1" xmlns="http://www.w3.org/2000/svg" xmlns:xlink="http://www.w3.org/1999/xlink">
    <!-- Generator: Sketch 45.2 (43514) - http://www.bohemiancoding.com/sketch -->
    <title>Group 43</title>
    <desc>Created with Sketch.</desc>
    <defs></defs>
    <g id="Page-1" stroke="none" stroke-width="1" fill="none" fill-rule="evenodd" opacity="0.400000006">
        <g id="Large-Device-Desktops" transform="translate(-868.000000, -4755.000000)" fill="#D1E7FC">
            <g id="Group-32" transform="translate(321.000000, 4603.000000)">
                <g id="testimonial">
                    <g id="Group-33">
                        <g id="Group-43" transform="translate(547.000000, 152.000000)">
                            <path d="M0.83690497,13.1078752 C2.9599692,5.84301725 8.1974542,0.569300026 13.288521,0.569300026 C13.6974404,0.569300026 14.1059553,0.603356467 14.503954,0.670695338 C14.7296484,0.708621829 14.9270299,0.835559471 15.0491799,1.01977385 C15.1709254,1.20514925 15.2053054,1.43038617 15.1434214,1.64091689 L14.0954391,5.22767929 C13.9943215,5.57404877 13.6452637,5.8081868 13.2824539,5.79231959 L13.199133,5.79077157 C11.311066,5.79077157 7.8605305,8.49825859 6.10148947,14.5157994 C6.03192059,14.7545815 5.96599194,14.9987817 5.90249012,15.253431 C7.87711377,14.3184269 10.2327484,14.1020911 12.3659244,14.6706014 C17.1783112,15.9589411 19.9974687,20.7523851 18.6522007,25.3561967 C17.5617489,29.0865379 13.9753114,31.6926296 9.93060913,31.6926296 C9.10670327,31.6926296 8.28401083,31.5838812 7.48518212,31.3698675 C4.31170871,30.5211655 1.92573883,28.0002149 0.76652715,24.2729697 C-0.279837332,20.9102832 -0.253546768,16.8409255 0.83690497,13.1078752 Z" id="Shape" transform="translate(9.493956, 16.130965) scale(-1, -1) translate(-9.493956, -16.130965) "></path>
                            <path d="M34.4448972,0.569300026 C34.8530077,0.569300026 35.2619271,0.602582457 35.6595213,0.669921328 C35.8848112,0.707073809 36.0825972,0.834785461 36.2043427,1.01899984 C36.3260882,1.20437524 36.3604682,1.42961216 36.2989887,1.64014288 L35.2506019,5.22690528 C35.1494844,5.57327476 34.8068981,5.80741279 34.4376167,5.79154558 L34.3551048,5.78999756 C32.4670378,5.78999756 29.0160978,8.49748458 27.2570568,14.5150254 C27.1870834,14.7553555 27.1211548,14.9995557 27.0580574,15.252657 C29.03349,14.3176529 31.3883157,14.1013171 33.5214917,14.6698274 C38.3330695,15.9581671 41.153036,20.7516111 39.806959,25.3554227 C38.7165073,29.0857639 35.1300698,31.6918556 31.0853675,31.6918556 C30.2614616,31.6918556 29.4387692,31.5831072 28.639536,31.3690934 C25.4664671,30.5203915 23.0804972,27.9994409 21.920881,24.2721956 C20.874921,20.9095091 20.9008071,16.8397645 21.9916633,13.1063272 C24.115941,5.84224324 29.352617,0.569300026 34.4448972,0.569300026 Z" id="Shape" transform="translate(30.648756, 16.130578) scale(-1, -1) translate(-30.648756, -16.130578) "></path>
                        </g>
                    </g>
                </g>
            </g>
        </g>
    </g>
</svg>