<?xml version="1.0" encoding="UTF-8" standalone="no"?>
<svg width="211px" height="45px" viewBox="0 0 211 45" version="1.1" xmlns="http://www.w3.org/2000/svg" xmlns:xlink="http://www.w3.org/1999/xlink">
    <!-- Generator: Sketch 45.2 (43514) - http://www.bohemiancoding.com/sketch -->
    <title>freshbrix</title>
    <desc>Created with Sketch.</desc>
    <defs></defs>
    <g id="Page-1" stroke="none" stroke-width="1" fill="none" fill-rule="evenodd">
        <g id="Large-Device-Desktops" transform="translate(-857.000000, -4438.000000)" fill-rule="nonzero">
            <g id="Group-37" transform="translate(151.000000, 4316.000000)">
                <g id="Group-35" transform="translate(0.000000, 111.000000)">
                    <g id="freshbrix" transform="translate(706.000000, 11.000000)">
                        <g id="Group-40" fill="#ADACAC">
                            <path d="M12.5316456,18.6734694 L22.185654,18.6734694 L22.185654,23.9387755 L12.5316456,23.9387755 L12.5316456,23.9387755 C11.0775288,23.9387755 9.89873418,22.7600965 9.89873418,21.3061224 L9.89873418,21.3061224 L9.89873418,21.3061224 C9.89873418,19.8521484 11.0775288,18.6734694 12.5316456,18.6734694 Z" id="Rectangle-6"></path>
                            <path d="M41.4936709,18.6734694 C42.9477877,18.6734694 44.1265823,19.8521484 44.1265823,21.3061224 C44.1265823,22.7600965 42.9477877,23.9387755 41.4936709,23.9387755 L31.8396624,23.9387755 L31.8396624,18.6734694 L41.4936709,18.6734694 Z" id="Rectangle-6"></path>
                            <rect id="Rectangle-9" x="23.0632911" y="18.6734694" width="7.89873418" height="5.26530612"></rect>
                            <path d="M16.0421941,28.3265306 L22.185654,28.3265306 L22.185654,31.8367347 L16.0421941,31.8367347 L16.0421941,31.8367347 C15.0727829,31.8367347 14.2869198,31.0509487 14.2869198,30.0816327 L14.2869198,30.0816327 L14.2869198,30.0816327 C14.2869198,29.1123166 15.0727829,28.3265306 16.0421941,28.3265306 Z" id="Rectangle-6"></path>
                            <path d="M33.5949367,28.3265306 L39.7383966,28.3265306 L39.7383966,31.8367347 L33.5949367,31.8367347 L33.5949367,31.8367347 C32.6255255,31.8367347 31.8396624,31.0509487 31.8396624,30.0816327 L31.8396624,30.0816327 L31.8396624,30.0816327 C31.8396624,29.1123166 32.6255255,28.3265306 33.5949367,28.3265306 Z" id="Rectangle-6" transform="translate(35.789030, 30.081633) scale(-1, 1) translate(-35.789030, -30.081633) "></path>
                            <rect id="Rectangle-9" x="23.0632911" y="28.3265306" width="7.89873418" height="3.51020408"></rect>
                            <path d="M18.3529418,35.7857143 L22.185654,35.7857143 L22.185654,38.7001542 L18.3529418,38.7001542 L18.3529418,38.7001542 C17.5480625,38.7001542 16.8955789,38.0477346 16.8955789,37.2429343 L16.8955789,37.2429343 L16.8955789,37.2429343 C16.8955789,36.4381339 17.5480625,35.7857143 18.3529418,35.7857143 Z" id="Rectangle-6"></path>
                            <path d="M35.9541653,35.7857143 C36.603416,35.7857143 37.1297376,36.4381339 37.1297376,37.2429343 C37.1297376,38.0477346 36.603416,38.7001542 35.9541653,38.7001542 L31.8396624,38.7001542 L31.8396624,35.7857143 L35.9541653,35.7857143 Z" id="Rectangle-6"></path>
                            <rect id="Rectangle-9" x="23.0632911" y="35.7857143" width="7.89873418" height="2.91443992"></rect>
                            <path d="M26.9160918,4.84516014 L50.7482682,18.5857872 C51.5880704,19.0699818 52.6614203,18.7817716 53.1456623,17.9420517 C53.6299044,17.1023319 53.3416659,16.0290873 52.5018637,15.5448928 L26.8941007,0.780537401 L1.3984189,15.8501265 C0.56390504,16.3433779 0.287296399,17.419678 0.78059621,18.2541099 C1.27389602,19.0885419 2.35030168,19.3651234 3.18481554,18.871872 L26.9160918,4.84516014 Z" id="Path-2"></path>
                            <rect id="Rectangle-12" x="10.7763713" y="42.3673469" width="33.350211" height="1.75510204" rx="0.87755102"></rect>
                        </g>
                        <g id="Group-39" transform="translate(56.413502, 17.795918)">
                            <path d="M0.0702109705,1.75510204 L17.72827,1.75510204 L17.6931646,6.35346939 L5.61687764,6.35346939 L5.61687764,12.3910204 L16.710211,12.3910204 L16.710211,17.0244898 L5.61687764,17.0244898 L5.61687764,26.3265306 L0.0702109705,26.3265306 L0.0702109705,1.75510204 Z M28.4705485,8.17877551 C29.5237183,7.57033709 30.752398,7.25442189 32.1566245,7.23102041 L32.1566245,12.3208163 C31.9693943,12.2974148 31.6885532,12.2857143 31.3140928,12.2857143 C29.6524249,12.2857143 28.3359824,12.736186 27.3647257,13.6371429 C26.3934691,14.5380997 25.9078481,15.7374075 25.9078481,17.235102 L25.9078481,26.3265306 L20.5016034,26.3265306 L20.5016034,7.44163265 L25.9078481,7.44163265 L25.9078481,10.8465306 C26.5631538,9.67645673 27.4173787,8.78721393 28.4705485,8.17877551 Z M49.7971308,9.89877551 C51.3768855,11.6538863 52.1667511,14.099304 52.1667511,17.235102 C52.1667511,17.7967375 52.1550493,18.2296583 52.1316456,18.5338776 L38.5809283,18.5338776 C38.8851773,19.7273529 39.4702629,20.6575477 40.3362025,21.3244898 C41.2021422,21.9914319 42.2435945,22.324898 43.4605907,22.324898 C44.3499341,22.324898 45.2041591,22.1552398 46.0232911,21.8159184 C46.8424232,21.4765969 47.579631,20.979323 48.2349367,20.3240816 L51.078481,23.202449 C50.1189263,24.2789169 48.954606,25.1038067 47.5854852,25.6771429 C46.2163645,26.2504791 44.6892911,26.5371429 43.0042194,26.5371429 C41.0148986,26.5371429 39.2771945,26.1393237 37.7910549,25.3436735 C36.3049152,24.5480232 35.1581475,23.4247692 34.3507173,21.9738776 C33.5432871,20.5229859 33.1395781,18.8498054 33.1395781,16.9542857 C33.1395781,15.0353646 33.549138,13.3446332 34.36827,11.8820408 C35.1874021,10.4194485 36.3341698,9.28449383 37.8086076,8.47714286 C39.2830453,7.66979188 40.9680918,7.26612245 42.8637975,7.26612245 C45.9062881,7.26612245 48.2173761,8.14366469 49.7971308,9.89877551 Z M47.0764557,15.3395918 C47.0296481,14.0993135 46.63179,13.1047656 45.8828692,12.3559184 C45.1339484,11.6070711 44.139303,11.2326531 42.898903,11.2326531 C41.7287143,11.2326531 40.7516214,11.6012208 39.9675949,12.3383673 C39.1835685,13.0755139 38.6862458,14.075912 38.4756118,15.3395918 L47.0764557,15.3395918 Z M64.2079325,11.6363265 C63.2015702,11.3204066 62.3005384,11.162449 61.5048101,11.162449 C60.8495045,11.162449 60.3229274,11.2794546 59.9250633,11.5134694 C59.5271991,11.7474842 59.32827,12.0985011 59.32827,12.5665306 C59.32827,13.0813631 59.5974094,13.4791823 60.1356962,13.76 C60.673983,14.0408177 61.5516114,14.3567329 62.7686076,14.7077551 C64.1026227,15.1055802 65.2025836,15.4975491 66.0685232,15.8836735 C66.9344628,16.2697978 67.6833724,16.8431254 68.3152743,17.6036735 C68.9471762,18.3642215 69.2631224,19.3646196 69.2631224,20.604898 C69.2631224,22.4770162 68.5434671,23.9337363 67.104135,24.975102 C65.6648029,26.0164678 63.8217834,26.5371429 61.5750211,26.5371429 C60.030372,26.5371429 58.5442547,26.3089819 57.1166245,25.8526531 C55.6889943,25.3963242 54.4486129,24.746943 53.395443,23.9044898 L55.1507173,20.2538776 C56.110272,21.0027248 57.1809786,21.5819027 58.3628692,21.9914286 C59.5447598,22.4009544 60.6622732,22.6057143 61.715443,22.6057143 C62.44096,22.6057143 63.0201947,22.4828584 63.4531646,22.2371429 C63.8861344,21.9914273 64.102616,21.6228596 64.102616,21.1314286 C64.102616,20.5931946 63.8276258,20.1719743 63.2776371,19.8677551 C62.7276484,19.5635359 61.8441692,19.2359201 60.627173,18.884898 C59.3399654,18.5104743 58.2692588,18.1360563 57.4150211,17.7616327 C56.5607834,17.387209 55.8294264,16.8197317 55.2209283,16.0591837 C54.6124302,15.2986357 54.3081857,14.3099381 54.3081857,13.0930612 C54.3081857,11.220943 55.0102883,9.77007318 56.4145148,8.74040816 C57.8187412,7.71074315 59.5974013,7.19591837 61.7505485,7.19591837 C63.0377561,7.19591837 64.3249443,7.3772771 65.6121519,7.74 C66.8993595,8.1027229 68.0695306,8.62339797 69.1227004,9.30204082 L67.2621097,12.9877551 C66.2323437,12.4027182 65.2142948,11.9522465 64.2079325,11.6363265 Z M89.7120675,9.19673469 C90.9641696,10.5072174 91.590211,12.2623019 91.590211,14.4620408 L91.590211,26.3265306 L86.1839662,26.3265306 L86.1839662,16.0416327 C86.1839662,14.8481573 85.8504675,13.906262 85.1834599,13.2159184 C84.5164524,12.5255748 83.6095697,12.1804082 82.4627848,12.1804082 C81.1287697,12.2038096 80.0697648,12.6659819 79.2857384,13.5669388 C78.501712,14.4678957 78.1097046,15.6204011 78.1097046,17.0244898 L78.1097046,26.3265306 L72.7034599,26.3265306 L72.7034599,0.280816327 L78.1097046,0.280816327 L78.1097046,10.7763265 C79.420316,8.45958025 81.5968343,7.27782336 84.6393249,7.23102041 C86.7690683,7.23102041 88.4599654,7.88625195 89.7120675,9.19673469 Z" id="FreshBrix" fill="#ADACAC"></path>
                            <path d="M110.564726,3.38734694 C111.957251,4.47551564 112.653502,5.97903802 112.653502,7.89795918 C112.653502,9.34885079 112.249793,10.5657094 111.442363,11.5485714 C110.634932,12.5314335 109.505718,13.1749645 108.054684,13.4791837 C109.856774,13.7131984 111.26098,14.3801306 112.267342,15.48 C113.273704,16.5798694 113.776878,17.9722365 113.776878,19.6571429 C113.776878,21.7632758 112.992863,23.4013547 111.42481,24.5714286 C109.856757,25.7415024 107.680239,26.3265306 104.89519,26.3265306 L94.5039662,26.3265306 L94.5039662,1.75510204 L104.789873,1.75510204 C107.24727,1.75510204 109.172201,2.29917823 110.564726,3.38734694 Z M108.721688,11.4608163 C109.681243,10.7002683 110.161013,9.6179662 110.161013,8.21387755 C110.161013,6.85659185 109.681243,5.80354116 108.721688,5.05469388 C107.762133,4.3058466 106.416436,3.94312913 104.684557,3.96653061 L96.9262447,3.96653061 L96.9262447,12.6016327 L104.684557,12.6016327 C106.416436,12.6016327 107.762133,12.2213643 108.721688,11.4608163 Z M109.581772,22.9040816 C110.740259,22.0733292 111.319494,20.9091231 111.319494,19.4114286 C111.319494,17.9371355 110.734408,16.7904803 109.564219,15.9714286 C108.394031,15.1523769 106.767493,14.7428571 104.684557,14.7428571 L96.9262447,14.7428571 L96.9262447,24.1502041 L104.684557,24.1502041 C106.790897,24.1502041 108.423285,23.7348341 109.581772,22.9040816 Z M123.062278,9.00367347 C124.197362,8.26652693 125.560611,7.88625862 127.152068,7.86285714 L127.152068,10.0742857 C125.209555,10.0508842 123.647375,10.6183616 122.465485,11.7767347 C121.283595,12.9351078 120.610747,14.5088336 120.44692,16.4979592 L120.44692,26.3265306 L118.094852,26.3265306 L118.094852,7.93306122 L120.44692,7.93306122 L120.44692,12.2155102 C121.055418,10.8114216 121.927195,9.74082001 123.062278,9.00367347 Z M130.592405,7.93306122 L132.944473,7.93306122 L132.944473,26.3265306 L130.592405,26.3265306 L130.592405,7.93306122 Z M137.297553,7.93306122 L140.035781,7.93306122 L145.161181,15.2342857 L150.321688,7.93306122 L152.954599,7.93306122 L146.705823,16.8489796 L153.41097,26.3265306 L150.637637,26.3265306 L145.126076,18.4636735 L139.474093,26.3265306 L136.806076,26.3265306 L143.581435,16.8489796 L137.297553,7.93306122 Z" id="FreshBrix" stroke="#ADACAC" fill="#ADACAC"></path>
                            <path d="M133.15586,1.4924029 C133.48301,1.83210176 133.646582,2.25357367 133.646582,2.75683125 C133.646582,3.26008883 133.476719,3.68785136 133.136987,4.04013167 C132.797254,4.39241198 132.388324,4.56854949 131.910182,4.56854949 C131.406875,4.56854949 130.985362,4.39241198 130.645629,4.04013167 C130.305897,3.68785136 130.136034,3.26008883 130.136034,2.75683125 C130.136034,2.25357367 130.305897,1.83210176 130.645629,1.4924029 C130.985362,1.15270403 131.406875,0.982857143 131.910182,0.982857143 C132.413489,0.982857143 132.82871,1.15270403 133.15586,1.4924029 Z" id="Path" stroke="#C1C1C1" fill="#C1C1C1"></path>
                        </g>
                    </g>
                </g>
            </g>
        </g>
    </g>
</svg>