<?xml version="1.0" encoding="UTF-8" standalone="no"?>
<svg width="39px" height="49px" viewBox="0 0 39 49" version="1.1" xmlns="http://www.w3.org/2000/svg" xmlns:xlink="http://www.w3.org/1999/xlink">
    <!-- Generator: Sketch 46.2 (44496) - http://www.bohemiancoding.com/sketch -->
    <title>shopping-bag</title>
    <desc>Created with Sketch.</desc>
    <defs></defs>
    <g id="Page-1" stroke="none" stroke-width="1" fill="none" fill-rule="evenodd">
        <g id="Desktop-HD" transform="translate(-377.000000, -3473.000000)" fill-rule="nonzero" fill="#66C869">
            <g id="Group-5" transform="translate(300.000000, 3158.000000)">
                <g id="shopping-bag" transform="translate(77.000000, 315.000000)">
                    <path d="M19.4950344,0 C14.2910619,0 10.0603514,4.23751523 10.0603514,9.4498579 L10.0603514,9.67864393 L3.82352941,9.67864393 C3.31703591,9.67864393 2.88999236,10.0665855 2.84033613,10.5738936 L0,42.6735688 C0,42.7034105 0,42.7332521 0,42.7630938 C0,46.2048315 3.16806723,49 7.0710466,49 L31.9289534,49 C35.8319328,49 39,46.2048315 39,42.7630938 C39,42.7332521 39,42.7034105 39,42.6735688 L36.1497326,10.5738936 C36.1000764,10.0665855 35.6829641,9.67864393 35.1665393,9.67864393 L28.9297173,9.67864393 L28.9297173,9.4498579 C28.9297173,4.23751523 24.6990069,0 19.4950344,0 Z M12.026738,9.4498579 C12.026738,5.32176208 15.3735676,1.96954933 19.4950344,1.96954933 C23.6165011,1.96954933 26.9633308,5.32176208 26.9633308,9.4498579 L26.9633308,9.67864393 L12.026738,9.67864393 L12.026738,9.4498579 L12.026738,9.4498579 Z M34.262796,11.6481933 L37.0236822,42.8028827 C36.9938885,45.1404791 34.7196333,47.0304507 31.9190222,47.0304507 L7.0710466,47.0304507 C4.27043545,47.0304507 1.99618029,45.1404791 1.96638655,42.8028827 L4.72727273,11.6481933 L10.0603514,11.6481933 L10.0603514,16.2040195 C10.0603514,16.7511165 10.4973262,17.1887942 11.0435447,17.1887942 C11.5897632,17.1887942 12.026738,16.7511165 12.026738,16.2040195 L12.026738,11.6481933 L26.9633308,11.6481933 L26.9633308,16.2040195 C26.9633308,16.7511165 27.4003056,17.1887942 27.9465241,17.1887942 C28.4927426,17.1887942 28.9297173,16.7511165 28.9297173,16.2040195 L28.9297173,11.6481933 L34.262796,11.6481933 L34.262796,11.6481933 Z" id="Shape"></path>
                    <path d="M25.3081042,25.2809266 L17.8407712,32.6441597 L14.6918958,29.5391819 C14.302035,29.154756 13.6822563,29.154756 13.2923956,29.5391819 C12.9025348,29.9236077 12.9025348,30.5347462 13.2923956,30.919172 L17.1410211,34.7141449 C17.3309532,34.9014293 17.5908604,35 17.8407712,35 C18.0906819,35 18.3505891,34.9014293 18.5405212,34.7141449 L26.7076044,26.6609167 C27.0974652,26.2764909 27.0974652,25.6653524 26.7076044,25.2809266 C26.3177437,24.9063578 25.697965,24.9063578 25.3081042,25.2809266 Z" id="Shape"></path>
                </g>
            </g>
        </g>
    </g>
</svg>