<?xml version="1.0" encoding="UTF-8" standalone="no"?>
<svg width="144px" height="184px" viewBox="0 0 144 184" version="1.1" xmlns="http://www.w3.org/2000/svg" xmlns:xlink="http://www.w3.org/1999/xlink">
    <!-- Generator: Sketch 46.1 (44463) - http://www.bohemiancoding.com/sketch -->
    <title>Group 11</title>
    <desc>Created with Sketch.</desc>
    <defs></defs>
    <g id="Page-1" stroke="none" stroke-width="1" fill="none" fill-rule="evenodd">
        <g id="Desktop-HD" transform="translate(-300.000000, -5325.000000)" fill-rule="nonzero">
            <g id="Group-17" transform="translate(0.000000, 3737.000000)">
                <g id="Group-6">
                    <g id="Group-9">
                        <g id="Group-25">
                            <g id="Group-12" transform="translate(298.000000, 1588.000000)">
                                <g id="Group-10">
                                    <g id="Group-41" transform="translate(2.000000, 0.000000)">
                                        <g id="Group-11">
                                            <g id="analytics-(13)">
                                                <path d="M108.389599,0 L0.0646321432,0 C0.133533083,7.64078955 0.0646321432,3.42102043 0.0646321432,7.64078955 L0.0646321432,175.98959 C0.0646321432,180.209359 0.0630748688,175.98959 0.0646321432,183.630379 L143.217357,183.630379 C143.217357,175.644735 143.217357,180.209359 143.217357,175.98959 L143.217357,34.8277589 L108.389599,0 Z" id="Shape" fill="#EAEAEA"></path>
                                                <g id="Group" transform="translate(10.834290, 0.000000)">
                                                    <path d="M97.5553086,27.1873429 C97.5553086,31.407112 97.4869879,25.8606962 97.5553086,34.8281325 L132.383067,34.8281325 L97.5553086,0 L97.5553086,27.1873429 Z" id="Shape" fill="#9BAAAB"></path>
                                                    <rect id="Rectangle-path" fill="#424A60" x="0.248815071" y="164.492167" width="117.8102" height="5.95661787"></rect>
                                                    <rect id="Rectangle-path" fill="#424A60" x="0.248815071" y="148.089799" width="117.8102" height="5.95661787"></rect>
                                                    <rect id="Rectangle-path" fill="#424A60" x="0.248815071" y="131.672114" width="117.8102" height="5.95661787"></rect>
                                                </g>
                                                <rect id="Rectangle-path" fill="#424A60" x="11.083105" y="115.26601" width="65.3606558" height="5.95661787"></rect>
                                                <path d="M51.8581418,16.416938 C30.5736189,16.416938 13.3194518,33.6714786 13.3194518,54.9560015 C13.3194518,71.0692058 23.2163889,84.8560265 37.2561342,90.6123968 L51.8581418,54.9560015 L51.8581418,16.416938 Z" id="Shape" fill="#F9A53D"></path>
                                                <path d="M90.626967,31.7149553 C84.2672389,19.1808027 71.2888803,10.5727726 56.2714338,10.5727726 L56.2714338,49.1118361 L90.626967,31.7149553 Z" id="Shape" fill="#D18B33"></path>
                                                <path d="M93.5492365,36.1278737 L59.1933297,53.5243809 L91.1556057,75.062202 C95.3077539,68.9131821 97.7320196,61.5017806 97.7320196,53.5243809 C97.7320196,47.2576782 96.2040111,41.3585941 93.5492365,36.1278737 Z" id="Shape" fill="#BE3B2F"></path>
                                                <path d="M41.6694261,93.5342927 C46.1742492,95.3817259 51.0997415,96.4165874 56.2714338,96.4165874 C69.5781833,96.4165874 81.3094777,89.6724287 88.2337097,79.4157186 L56.2714338,57.8778974 L41.6694261,93.5342927 Z" id="Shape" fill="#F05244"></path>
                                            </g>
                                        </g>
                                    </g>
                                </g>
                            </g>
                        </g>
                    </g>
                </g>
            </g>
        </g>
    </g>
</svg>