<?xml version="1.0" encoding="UTF-8" standalone="no"?>
<svg width="126px" height="126px" viewBox="0 0 126 126" version="1.1" xmlns="http://www.w3.org/2000/svg" xmlns:xlink="http://www.w3.org/1999/xlink">
    <!-- Generator: Sketch 46.1 (44463) - http://www.bohemiancoding.com/sketch -->
    <title>content (1)</title>
    <desc>Created with Sketch.</desc>
    <defs></defs>
    <g id="Page-1" stroke="none" stroke-width="1" fill="none" fill-rule="evenodd">
        <g id="Desktop-HD" transform="translate(-899.000000, -1563.000000)" fill-rule="nonzero">
            <g id="Group-3" transform="translate(300.000000, 1492.000000)">
                <g id="Group-35" transform="translate(479.000000, 0.000000)">
                    <g id="content-(1)" transform="translate(120.000000, 71.000000)">
                        <rect id="Rectangle-path" fill="#C1CACF" x="0" y="122" width="94" height="4"></rect>
                        <polygon id="Shape" fill="#EEF2F3" points="71.8382633 0 0 0 0 122 94 122 94 22.3712369"></polygon>
                        <polygon id="Shape" fill="#E1E6E9" points="72 22 94 22 72 0"></polygon>
                        <rect id="Rectangle-path" fill="#F9A53D" x="9" y="12" width="47" height="4"></rect>
                        <g id="Group" transform="translate(8.000000, 45.000000)" fill="#C1CACF">
                            <rect id="Rectangle-path" x="0.00872077922" y="25.1116513" width="55.3138506" height="4.27952874"></rect>
                            <rect id="Rectangle-path" x="0.00872077922" y="37.5715977" width="78.8735487" height="4.27952874"></rect>
                            <rect id="Rectangle-path" x="0.00872077922" y="12.6570958" width="78.8735487" height="4.27952874"></rect>
                            <rect id="Rectangle-path" x="0.00872077922" y="0.20510728" width="78.8735487" height="4.28081226"></rect>
                            <rect id="Rectangle-path" x="0.00872077922" y="50.0312874" width="78.8735487" height="4.27952874"></rect>
                            <rect id="Rectangle-path" x="0.00872077922" y="62.4912337" width="35.9067825" height="4.27952874"></rect>
                        </g>
                        <rect id="Rectangle-path" fill="#F05244" x="25" y="30" width="45" height="4"></rect>
                        <polygon id="Rectangle-path" fill="#F05244" points="86 78 99 78 99 126 86 126"></polygon>
                        <rect id="Rectangle-path" fill="#D23F32" x="99" y="78" width="14" height="48"></rect>
                        <rect id="Rectangle-path" fill="#B72E22" x="113" y="78" width="13" height="48"></rect>
                        <path d="M86,78 L96.0097281,56 C97.8142709,57.2278072 99.8349933,58.1333506 102,58.6359995 L99.2921975,77.9997416 L86,77.9997416 L86,78 Z" id="Shape" fill="#F9A53D"></path>
                        <path d="M126,78 L112.70805,78 L110,58.6360304 C112.165254,58.1331172 114.186717,57.2273048 115.990766,56 L126,78 Z" id="Shape" fill="#C57B20"></path>
                        <path d="M99,78 L101.851992,59 C103.187692,59.2890775 104.574915,59.4442665 105.99987,59.4442665 C107.424825,59.4442665 108.811788,59.2893311 110.147748,59 L113,78 L99,78 Z" id="Shape" fill="#E09231"></path>
                        <path d="M105.999751,34 L116.400696,56.9004814 C113.519167,58.8539224 109.689502,60 105.999751,60 C102.310001,60 98.484602,58.8539224 95.6030731,56.9004814 L105.999751,34 Z" id="Shape" fill="#374C60"></path>
                    </g>
                </g>
            </g>
        </g>
    </g>
</svg>