<?xml version="1.0" encoding="UTF-8" standalone="no"?>
<svg width="125px" height="114px" viewBox="0 0 125 114" version="1.1" xmlns="http://www.w3.org/2000/svg" xmlns:xlink="http://www.w3.org/1999/xlink">
    <!-- Generator: Sketch 46.1 (44463) - http://www.bohemiancoding.com/sketch -->
    <title>graph (10)</title>
    <desc>Created with Sketch.</desc>
    <defs></defs>
    <g id="Page-1" stroke="none" stroke-width="1" fill="none" fill-rule="evenodd">
        <g id="Desktop-HD" transform="translate(-438.000000, -2102.000000)" fill-rule="nonzero">
            <g id="Group-3" transform="translate(300.000000, 2025.000000)">
                <g id="Group-27">
                    <g id="graph-(10)" transform="translate(138.000000, 77.000000)">
                        <rect id="Rectangle-path" fill="#F05244" x="6" y="83" width="20" height="29"></rect>
                        <rect id="Rectangle-path" fill="#D33729" x="37" y="64" width="20" height="48"></rect>
                        <rect id="Rectangle-path" fill="#E1902B" x="68" y="48" width="21" height="64"></rect>
                        <rect id="Rectangle-path" fill="#F9A53D" x="100" y="31" width="20" height="81"></rect>
                        <path d="M122.916667,114 L2.08333333,114 C0.933333333,114 0,113.106 0,112 C0,110.894 0.933333333,110 2.08333333,110 L122.916667,110 C124.066667,110 125,110.894 125,112 C125,113.106 124.066667,114 122.916667,114 Z" id="Shape" fill="#556080"></path>
                        <path d="M17.0767541,53 C16.35893,53 15.6618523,52.6273948 15.2780446,51.9592034 C14.7054451,50.9621203 15.0456854,49.6902669 16.0373614,49.1157472 L96.8880025,2.27990209 C97.8796785,1.70330079 99.1472812,2.04676366 99.7219554,3.04176517 C100.294555,4.03884827 99.9543146,5.31070167 98.9626386,5.88522137 L18.1119975,52.7210665 C17.7862796,52.9104915 17.4273676,53 17.0767541,53 Z" id="Shape" fill="#374C60"></path>
                        <path d="M97.9193946,6 C97.8527386,6 97.7860827,5.99575998 97.7152608,5.98939995 L79.8806377,4.22979163 C78.7370722,4.1174311 77.8976242,3.0807462 78.0101061,1.91474069 C78.120505,0.750855191 79.1286757,-0.107748867 80.2847392,0.0109716943 L98.1193623,1.77058001 C99.2629278,1.88294054 100.102376,2.91962544 99.9898939,4.08563095 C99.885744,5.17955612 98.9796402,6 97.9193946,6 Z" id="Shape" fill="#374C60"></path>
                        <path d="M91.1577887,22 C90.8579194,22 90.5558926,21.9430377 90.2646526,21.816907 C89.1795138,21.3510372 88.7005857,20.1466925 89.1946151,19.1234063 L96.8790376,3.19431967 C97.373067,2.17103351 98.6523659,1.7153355 99.7353474,2.18527407 C100.820486,2.65114391 101.299414,3.85548865 100.805385,4.87877481 L93.1209624,20.8078615 C92.762845,21.5565082 91.9775755,22 91.1577887,22 Z" id="Shape" fill="#374C60"></path>
                    </g>
                </g>
            </g>
        </g>
    </g>
</svg>