<?xml version="1.0" encoding="UTF-8" standalone="no"?>
<svg width="37px" height="36px" viewBox="0 0 37 36" version="1.1" xmlns="http://www.w3.org/2000/svg" xmlns:xlink="http://www.w3.org/1999/xlink">
    <!-- Generator: Sketch 46.1 (44463) - http://www.bohemiancoding.com/sketch -->
    <title>facebook (1)</title>
    <desc>Created with Sketch.</desc>
    <defs></defs>
    <g id="Page-1" stroke="none" stroke-width="1" fill="none" fill-rule="evenodd">
        <g id="Desktop-HD" transform="translate(-598.000000, -1069.000000)" fill-rule="nonzero" fill="#FFFFFF">
            <g id="Group-42" transform="translate(0.000000, 580.000000)">
                <g id="Group-40" transform="translate(0.000000, 427.000000)">
                    <g id="Group-47" transform="translate(300.000000, 61.000000)">
                        <g id="Group-41" transform="translate(95.000000, 0.000000)">
                            <g id="facebook-(1)" transform="translate(203.263267, 0.024040)">
                                <g id="facebook-(2)" transform="translate(0.000000, 0.329018)">
                                    <path d="M17.8879126,36.5189394 C8.00869128,36.5189394 0,28.5102482 0,18.6310268 C0,8.75180545 8.00869128,0.743114173 17.8879126,0.743114173 C27.767134,0.743114173 35.7758253,8.75180545 35.7758253,18.6310268 C35.7758253,28.5102482 27.767134,36.5189394 17.8879126,36.5189394 Z M22.2277375,19.4519531 L22.6472721,15.3750262 L19.0585885,15.3750262 L19.0585885,12.9733882 C19.0585885,12.0725761 19.6538528,11.8610673 20.077187,11.8610673 L22.6580375,11.8610673 L22.6580375,7.90002688 L19.101017,7.88514528 C15.153275,7.88514528 14.2562624,10.8421522 14.2562624,12.730533 L14.2562624,15.3712266 L11.9724108,15.3712266 L11.9724108,19.4519531 L14.2562624,19.4519531 L14.2562624,31.0634058 L19.0582719,31.0634058 L19.0582719,19.4519531 L22.2277375,19.4519531 Z" id="Combined-Shape"></path>
                                </g>
                            </g>
                        </g>
                    </g>
                </g>
            </g>
        </g>
    </g>
</svg>