<?xml version="1.0" encoding="UTF-8" standalone="no"?>
<svg width="43px" height="46px" viewBox="0 0 43 46" version="1.1" xmlns="http://www.w3.org/2000/svg" xmlns:xlink="http://www.w3.org/1999/xlink">
    <!-- Generator: Sketch 46.2 (44496) - http://www.bohemiancoding.com/sketch -->
    <title>stats (1)</title>
    <desc>Created with Sketch.</desc>
    <defs></defs>
    <g id="Page-1" stroke="none" stroke-width="1" fill="none" fill-rule="evenodd">
        <g id="Desktop-HD" transform="translate(-375.000000, -4084.000000)" fill-rule="nonzero" fill="#FDA712">
            <g id="Group-5" transform="translate(300.000000, 3158.000000)">
                <g id="stats-(1)" transform="translate(75.000000, 926.000000)">
                    <path d="M14.8594715,31 C16.5872406,31 18.2398893,30.4240283 19.6202266,29.3488812 C19.8455878,29.1760897 20.2963101,28.5137223 19.7141271,27.8513549 L14.9252018,22.9363966 L14.9252018,15.995938 C14.8500814,15.0551842 14.0988774,14.9687885 13.817176,15.0071866 C9.92969546,15.5351606 7,18.9525925 7,22.9651952 C7,27.3905775 10.5306586,31 14.8594715,31 Z M12.9626815,17.2534761 L12.9626815,22.9555957 C12.9626815,23.4739702 13.1598725,23.9635461 13.5166944,24.3283281 L17.4605152,28.3601298 C16.6529709,28.7729095 15.7703063,28.9840991 14.8500814,28.9840991 C11.5917342,28.9840991 8.9531303,26.2770323 8.9531303,22.9555957 C8.96252035,20.3541236 10.6151691,18.069436 12.9626815,17.2534761 L12.9626815,17.2534761 Z" id="Shape"></path>
                    <path d="M20.8909953,25.7149349 C21.563981,26.300257 22.1990521,25.8376637 22.3696682,25.6205281 C23.4407583,24.2327483 24,22.5711888 24,20.8341039 C24,16.8973408 21.042654,13.5270184 17.1184834,13.0077811 C16.6919431,12.951137 16.0379147,13.1965946 16,13.980171 L16,20.4470361 C16,20.7113751 16.1042654,20.9568327 16.2938389,21.1456463 L20.8909953,25.7149349 Z M17.9905213,15.2168999 C20.3601896,16.0193576 22.0379147,18.2567985 22.0379147,20.8246632 C22.0379147,21.7498498 21.8293839,22.6372736 21.4218009,23.449172 L18,20.0410869 L18,15.2168999 L17.9905213,15.2168999 Z" id="Shape"></path>
                    <path d="M38.4145811,2.00119361e-15 L4.57606094,2.00119361e-15 C2.04940152,2.00119361e-15 0,2.06538172 0,4.59078028 C0,6.36513094 1.01066376,7.91416723 2.48922742,8.67460323 L2.48922742,35.1396535 C2.48922742,35.6841633 2.92905332,36.1160158 3.46245919,36.1160158 L20.5314472,36.1160158 L20.5314472,39.5896123 L15.8056583,44.3306022 C15.4219804,44.7155143 15.4219804,45.3351288 15.8056583,45.7106527 C16.1893362,46.0955648 16.8069641,46.0955648 17.181284,45.7106527 L21.504679,41.3733511 L25.828074,45.7106527 C26.4550598,46.2551624 27.0165397,45.8984147 27.2036997,45.7106527 C27.5873776,45.3257407 27.5873776,44.7061262 27.2036997,44.3306022 L22.4779108,39.5896123 L22.4779108,36.1160158 L39.5468988,36.1160158 C40.0896627,36.1160158 40.5201306,35.6747752 40.5201306,35.1396535 L40.5201306,8.67460323 C41.9893362,7.91416723 43,6.36513094 43,4.59078028 C43,2.06538172 40.9412405,0 38.4145811,2.00119361e-15 Z M38.564309,34.1632913 L4.42633297,34.1632913 L4.42633297,9.19094866 L38.564309,9.19094866 L38.564309,34.1632913 Z M38.4145811,7.22883602 L4.57606094,7.22883602 C3.12557127,7.22883602 1.94646355,6.04593558 1.94646355,4.59078028 C1.94646355,3.13562498 3.12557127,1.95272454 4.57606094,1.95272454 L38.4239391,1.95272454 C39.8744287,1.95272454 41.0535365,3.13562498 41.0535365,4.59078028 C41.0441785,6.04593558 39.8650707,7.22883602 38.4145811,7.22883602 Z" id="Shape"></path>
                    <path d="M36.0000753,29 C36.5577256,29 37,28.5607477 37,28.0280374 L37,13.9719626 C37,13.4299065 36.548111,13 36.0000753,13 C35.442425,13 35.0001506,13.4392523 35.0001506,13.9719626 L35.0001506,28.0280374 C34.990536,28.5700935 35.442425,29 36.0000753,29 Z" id="Shape"></path>
                    <path d="M31,30 C31.5576923,30 32,29.5480769 32,29 L32,18 C32,17.4423077 31.5480769,17 31,17 C30.4423077,17 30,17.4519231 30,18 L30,29 C30,29.5576923 30.4519231,30 31,30 Z" id="Shape"></path>
                    <path d="M28,29 C28.5576923,29 29,28.5640074 29,28.0352505 L29,19.9647495 C29,19.4267161 28.5480769,19 28,19 C27.4423077,19 27,19.4359926 27,19.9647495 L27,28.0352505 C27,28.5732839 27.4519231,29 28,29 Z" id="Shape"></path>
                </g>
            </g>
        </g>
    </g>
</svg>