<?xml version="1.0" encoding="UTF-8" standalone="no"?>
<svg width="37px" height="36px" viewBox="0 0 37 36" version="1.1" xmlns="http://www.w3.org/2000/svg" xmlns:xlink="http://www.w3.org/1999/xlink">
    <!-- Generator: Sketch 46.1 (44463) - http://www.bohemiancoding.com/sketch -->
    <title>instagram (1)</title>
    <desc>Created with Sketch.</desc>
    <defs></defs>
    <g id="Page-1" stroke="none" stroke-width="1" fill="none" fill-rule="evenodd">
        <g id="Desktop-HD" transform="translate(-1006.000000, -1069.000000)" fill="#FFFFFF">
            <g id="Group-42" transform="translate(0.000000, 580.000000)">
                <g id="Group-40" transform="translate(0.000000, 427.000000)">
                    <g id="Group-47" transform="translate(300.000000, 61.000000)">
                        <g id="Group-41" transform="translate(95.000000, 0.000000)">
                            <g id="instagram-(1)" transform="translate(611.390219, 0.000000)">
                                <g id="Group" transform="translate(0.480141, 0.485123)">
                                    <path d="M17.9621672,0.574691748 L17.9621672,0.574691748 C27.8365024,0.574691748 35.8412327,8.57942204 35.8412327,18.4537573 L35.8412327,18.5872278 C35.8412327,28.461563 27.8365024,36.4662933 17.9621672,36.4662933 C8.08783198,36.4662933 0.0831016935,28.461563 0.0831016935,18.5872278 L0.0831016935,18.4537573 L0.0831016935,18.4537573 C0.0831016935,8.57942204 8.08783198,0.574691748 17.9621672,0.574691748 L17.9621672,0.574691748 Z M27.3511684,25.3610053 C27.3511684,26.8899089 26.1308626,28.12282 24.6177145,28.12282 L11.5360194,28.12282 C10.022816,28.12282 8.80256557,26.889853 8.80256557,25.3610053 L8.80256557,12.1435817 C8.80256557,10.6146781 10.0228713,9.38176704 11.5360194,9.38176704 L24.6177145,9.38176704 C26.1309179,9.38176704 27.3511684,10.614734 27.3511684,12.1435817 L27.3511684,25.3610053 L27.3511684,25.3610053 Z M24.4224678,7.40904226 L11.7312661,7.40904226 C9.04658248,7.40904226 6.85004323,9.6283716 6.85004323,12.3409101 L6.85004323,25.1637328 C6.85004323,27.8762713 9.04658248,30.0956006 11.7312661,30.0956006 L24.4224125,30.0956006 C27.1070962,30.0956006 29.3036354,27.8762713 29.3036354,25.1637328 L29.3036354,12.3408542 C29.3036354,9.6283716 27.1070962,7.40904226 24.4224678,7.40904226 Z M18.076867,23.1909522 C15.7339065,23.1909522 13.6837885,21.1195632 13.6837885,18.7522935 C13.6837885,16.3850238 15.7339065,14.3136348 18.076867,14.3136348 C20.4198274,14.3136348 22.4699455,16.3850238 22.4699455,18.7522935 C22.4699455,21.1195632 20.4198274,23.1909522 18.076867,23.1909522 Z M18.076867,12.3408542 C14.562371,12.3408542 11.7312661,15.2013331 11.7312661,18.7522935 C11.7312661,22.303254 14.562371,25.1637328 18.076867,25.1637328 C21.5913629,25.1637328 24.4224678,22.303254 24.4224678,18.7522935 C24.4224678,15.2013331 21.5913629,12.3408542 18.076867,12.3408542 Z M25.3987013,12.3408542 C25.3987013,11.7983689 24.9593824,11.3544918 24.4224678,11.3544918 C23.8855532,11.3544918 23.4462343,11.7983689 23.4462343,12.3408542 C23.4462343,12.8833395 23.8855532,13.3272166 24.4224678,13.3272166 C24.9593824,13.3272725 25.3987013,12.8833954 25.3987013,12.3408542 Z" id="Combined-Shape"></path>
                                </g>
                            </g>
                        </g>
                    </g>
                </g>
            </g>
        </g>
    </g>
</svg>