<?xml version="1.0" encoding="UTF-8" standalone="no"?>
<svg width="151px" height="141px" viewBox="0 0 151 141" version="1.1" xmlns="http://www.w3.org/2000/svg" xmlns:xlink="http://www.w3.org/1999/xlink">
    <!-- Generator: Sketch 46.1 (44463) - http://www.bohemiancoding.com/sketch -->
    <title>diagram</title>
    <desc>Created with Sketch.</desc>
    <defs></defs>
    <g id="Page-1" stroke="none" stroke-width="1" fill="none" fill-rule="evenodd">
        <g id="Desktop-HD" transform="translate(-948.000000, -2973.000000)" fill-rule="nonzero">
            <g id="Group-9" transform="translate(339.000000, 2314.000000)">
                <g id="Group-25">
                    <g id="Group-21" transform="translate(0.000000, 659.000000)">
                        <g id="diagram" transform="translate(609.000000, 0.000000)">
                            <path d="M106.559885,140.540126 L44.1833814,140.540126 C44.1833814,134.798928 48.8381686,130.14414 54.5793673,130.14414 L96.163605,130.14414 C101.905098,130.143846 106.559885,134.798928 106.559885,140.540126" id="Shape" fill="#DADFE0"></path>
                            <polygon id="Shape" fill="#B0B6BB" points="93.5647558 130.143846 57.1785109 130.143846 62.3765039 109.351874 88.3667629 109.351874"></polygon>
                            <path d="M150.743267,88.5596083 L0,88.5596083 L0,9.28955381 C0,4.26556338 4.07271799,0.19284539 9.09670842,0.19284539 L141.646853,0.19284539 C146.670843,0.19284539 150.743561,4.26556338 150.743561,9.28955381 L150.743561,88.5596083 L150.743267,88.5596083 Z" id="Shape" fill="#424A60"></path>
                            <path d="M100.89482,22.433461 L92.7237821,22.433461 C91.2202716,22.433461 90,21.2163485 90,19.7167305 C90,18.2171125 91.2202716,17 92.7237821,17 L100.89482,17 C102.39833,17 103.618602,18.2171125 103.618602,19.7167305 C103.618293,21.2163485 102.39833,22.433461 100.89482,22.433461" id="Shape" fill="#FFFFFF"></path>
                            <path d="M138.960369,22.433461 L111.723782,22.433461 C110.220272,22.433461 109,21.2163485 109,19.7167305 C109,18.2171125 110.220272,17 111.723782,17 L138.960369,17 C140.463879,17 141.684151,18.2171125 141.684151,19.7167305 C141.683842,21.2163485 140.463879,22.433461 138.960369,22.433461" id="Shape" fill="#FFFFFF"></path>
                            <path d="M106.342075,33.433461 L92.7237821,33.433461 C91.2202716,33.433461 90,32.2163485 90,30.7167305 C90,29.2171125 91.2202716,28 92.7237821,28 L106.342075,28 C107.845586,28 109.065857,29.2171125 109.065857,30.7167305 C109.065857,32.2163485 107.845586,33.433461 106.342075,33.433461" id="Shape" fill="#FFFFFF"></path>
                            <path d="M125.89482,33.433461 L117.723782,33.433461 C116.220272,33.433461 115,32.2163485 115,30.7167305 C115,29.2171125 116.220272,28 117.723782,28 L125.89482,28 C127.39833,28 128.618602,29.2171125 128.618602,30.7167305 C128.618602,32.2163485 127.39833,33.433461 125.89482,33.433461" id="Shape" fill="#FFFFFF"></path>
                            <path d="M138.447564,33.433461 L135.723782,33.433461 C134.220272,33.433461 133,32.2163485 133,30.7167305 C133,29.2171125 134.220272,28 135.723782,28 L138.447564,28 C139.951075,28 141.171346,29.2171125 141.171346,30.7167305 C141.171346,32.2163485 139.951075,33.433461 138.447564,33.433461" id="Shape" fill="#FFFFFF"></path>
                            <path d="M100.89482,43.433461 L92.7237821,43.433461 C91.2202716,43.433461 90,42.2163485 90,40.7167305 C90,39.2171125 91.2202716,38 92.7237821,38 L100.89482,38 C102.39833,38 103.618602,39.2171125 103.618602,40.7167305 C103.618293,42.2163485 102.39833,43.433461 100.89482,43.433461" id="Shape" fill="#FFFFFF"></path>
                            <path d="M138.960369,43.433461 L111.723782,43.433461 C110.220272,43.433461 109,42.2163485 109,40.7167305 C109,39.2171125 110.220272,38 111.723782,38 L138.960369,38 C140.463879,38 141.684151,39.2171125 141.684151,40.7167305 C141.683842,42.2163485 140.463879,43.433461 138.960369,43.433461" id="Shape" fill="#FFFFFF"></path>
                            <path d="M100.89482,54.433461 L92.7237821,54.433461 C91.2202716,54.433461 90,53.2163485 90,51.7167305 C90,50.2171125 91.2202716,49 92.7237821,49 L100.89482,49 C102.39833,49 103.618602,50.2171125 103.618602,51.7167305 C103.618293,53.2163485 102.39833,54.433461 100.89482,54.433461" id="Shape" fill="#FFFFFF"></path>
                            <path d="M138.960369,54.433461 L111.723782,54.433461 C110.220272,54.433461 109,53.2163485 109,51.7167305 C109,50.2171125 110.220272,49 111.723782,49 L138.960369,49 C140.463879,49 141.684151,50.2171125 141.684151,51.7167305 C141.683842,53.2163485 140.463879,54.433461 138.960369,54.433461" id="Shape" fill="#FFFFFF"></path>
                            <path d="M106.342075,65.433461 L92.7237821,65.433461 C91.2202716,65.433461 90,64.2163485 90,62.7167305 C90,61.2171125 91.2202716,60 92.7237821,60 L106.342075,60 C107.845586,60 109.065857,61.2171125 109.065857,62.7167305 C109.065857,64.2163485 107.845586,65.433461 106.342075,65.433461" id="Shape" fill="#FFFFFF"></path>
                            <path d="M125.89482,65.433461 L117.723782,65.433461 C116.220272,65.433461 115,64.2163485 115,62.7167305 C115,61.2171125 116.220272,60 117.723782,60 L125.89482,60 C127.39833,60 128.618602,61.2171125 128.618602,62.7167305 C128.618602,64.2163485 127.39833,65.433461 125.89482,65.433461" id="Shape" fill="#FFFFFF"></path>
                            <path d="M138.447564,65.433461 L135.723782,65.433461 C134.220272,65.433461 133,64.2163485 133,62.7167305 C133,61.2171125 134.220272,60 135.723782,60 L138.447564,60 C139.951075,60 141.171346,61.2171125 141.171346,62.7167305 C141.171346,64.2163485 139.951075,65.433461 138.447564,65.433461" id="Shape" fill="#FFFFFF"></path>
                            <path d="M100.89482,75.433461 L92.7237821,75.433461 C91.2202716,75.433461 90,74.2163485 90,72.7167305 C90,71.2171125 91.2202716,70 92.7237821,70 L100.89482,70 C102.39833,70 103.618602,71.2171125 103.618602,72.7167305 C103.618293,74.2163485 102.39833,75.433461 100.89482,75.433461" id="Shape" fill="#FFFFFF"></path>
                            <path d="M138.960369,75.433461 L111.723782,75.433461 C110.220272,75.433461 109,74.2163485 109,72.7167305 C109,71.2171125 110.220272,70 111.723782,70 L138.960369,70 C140.463879,70 141.684151,71.2171125 141.684151,72.7167305 C141.683842,74.2163485 140.463879,75.433461 138.960369,75.433461" id="Shape" fill="#FFFFFF"></path>
                            <g id="graph-(7)" transform="translate(13.000000, 23.000000)">
                                <rect id="Rectangle-path" fill="#F05244" x="36.9386088" y="0" width="11.5433153" height="51.9449187"></rect>
                                <rect id="Rectangle-path" fill="#DC8F30" x="19.6236359" y="35.7842773" width="11.5433153" height="16.1606414"></rect>
                                <rect id="Rectangle-path" fill="#F9A53D" x="2.30866305" y="25.3952936" width="11.5433153" height="26.5496251"></rect>
                                <rect id="Rectangle-path" fill="#C5372A" x="54.2535817" y="9.23465221" width="11.5433153" height="42.7102665"></rect>
                                <path d="M68.10556,53.0992502 L1.15433153,53.0992502 C0.517140524,53.0992502 0,52.583264 0,51.9449187 C0,51.3065733 0.517140524,50.7905871 1.15433153,50.7905871 L68.10556,50.7905871 C68.742751,50.7905871 69.2598916,51.3065733 69.2598916,51.9449187 C69.2598916,52.583264 68.742751,53.0992502 68.10556,53.0992502 Z" id="Shape" fill="#C7CFE2"></path>
                            </g>
                            <path d="M141.646558,109.351874 L9.09670842,109.351874 C4.07271799,109.351874 0,105.279156 0,100.255166 L0,88.5596083 L150.743267,88.5596083 L150.743267,100.255166 C150.743267,105.279156 146.670549,109.351874 141.646558,109.351874" id="Shape" fill="#DADFE0"></path>
                        </g>
                    </g>
                </g>
            </g>
        </g>
    </g>
</svg>