<?xml version="1.0" encoding="UTF-8" standalone="no"?>
<svg width="289px" height="223px" viewBox="0 0 289 223" version="1.1" xmlns="http://www.w3.org/2000/svg" xmlns:xlink="http://www.w3.org/1999/xlink">
    <!-- Generator: Sketch 46.2 (44496) - http://www.bohemiancoding.com/sketch -->
    <title>Artboard 3</title>
    <desc>Created with Sketch.</desc>
    <defs>
        <path d="M2,0 L216.676323,0 L216.676323,0 C217.780892,-1.58997828e-14 218.676323,0.8954305 218.676323,2 L218.676323,130.860651 L0,130.860651 L0,2 L0,2 C-1.3527075e-16,0.8954305 0.8954305,2.02906125e-16 2,0 Z" id="path-1"></path>
    </defs>
    <g id="Page-1" stroke="none" stroke-width="1" fill="none" fill-rule="evenodd">
        <g id="Artboard-3">
            <g id="Group-9" transform="translate(35.000000, 13.000000)">
                <g id="Group-8">
                    <g id="Group-7">
                        <g id="Rectangle">
                            <use fill="#EEF2F3" fill-rule="evenodd" xlink:href="#path-1"></use>
                            <path stroke="#31475B" stroke-width="7.05000019" d="M3.5250001,3.5250001 L3.5250001,127.335651 L215.151323,127.335651 L215.151323,3.5250001 L3.5250001,3.5250001 Z"></path>
                        </g>
                        <path d="M19.1097633,14.9649694 C18.5119576,15.4495025 18.2130593,16.1199509 18.2130593,16.9763349 C18.2130593,17.8327189 18.4330033,18.5031674 18.8728981,18.9877005 C19.3127929,19.4722335 19.8936709,19.8440789 20.6155495,20.1032477 C21.3374281,20.3624166 22.1269709,20.5934114 22.9842018,20.7962392 C23.8414326,20.999067 24.6986506,21.2469639 25.5558814,21.5399374 C26.4131123,21.8329108 27.2026552,22.1934882 27.9245338,22.6216802 C28.6464124,23.0498722 29.2272903,23.6752485 29.6671851,24.4978278 C30.1070799,25.3204072 30.327024,26.3176289 30.327024,27.4895228 C30.327024,29.427655 29.5543999,31.0953251 28.0091285,32.4925832 C26.4638571,33.8898413 24.4110456,34.5884599 21.8506325,34.5884599 C19.2902193,34.5884599 17.220489,33.9856197 15.6413796,32.7799211 C14.0622702,31.5742226 13.2727273,29.8783824 13.2727273,27.6923495 L18.3484108,27.6923495 C18.5288805,29.7657003 19.7131948,30.8023601 21.9013893,30.8023601 C22.9842072,30.8023601 23.8414252,30.520659 24.473069,29.9572485 C25.1047127,29.393838 25.4205299,28.6445132 25.4205299,27.7092518 C25.4205299,26.7739903 25.0032001,26.0359336 24.1685279,25.4950595 C23.3338558,24.9541854 22.3243688,24.5485359 21.1400368,24.2780988 C19.9557047,24.0076618 18.7657508,23.6808886 17.5701393,23.2977694 C16.3745279,22.9146503 15.3594013,22.2442018 14.5247292,21.2864039 C13.6900571,20.328606 13.2727273,19.0609513 13.2727273,17.4834019 C13.2727273,15.3424419 14.050991,13.6296996 15.6075417,12.3451236 C17.1640924,11.0605476 19.1661476,10.4182692 21.6137672,10.4182692 C24.0613869,10.4182692 26.0296045,10.9760373 27.5184791,12.0915901 C29.0073537,13.207143 29.8194549,14.9029832 29.9548072,17.1791617 L24.7437721,17.1791617 C24.6535373,16.2777049 24.3151617,15.5621842 23.7286354,15.0325784 C23.142109,14.5029725 22.3751245,14.2381735 21.4276588,14.2381735 C20.4801932,14.2381735 19.7075691,14.4804364 19.1097633,14.9649694 Z M48.5318089,10.6887049 L48.5318089,14.3395869 L39.6662817,14.3395869 L39.6662817,20.5258035 L47.5166722,20.5258035 L47.5166722,24.1766854 L39.6662817,24.1766854 L39.6662817,30.7009467 L48.5318089,30.7009467 L48.5318089,34.3518286 L34.8951392,34.3518286 L34.8951392,10.6887049 L48.5318089,10.6887049 Z M71.3723849,22.4864623 C71.3723849,20.1426745 70.706913,18.2721797 69.3759494,16.8749216 C68.0449857,15.4776635 66.3079914,14.7790449 64.1649143,14.7790449 C62.0218372,14.7790449 60.2792032,15.4832975 58.9369602,16.8918238 C57.5947172,18.3003501 56.9236057,20.170845 56.9236057,22.5033646 C56.9236057,24.8358841 57.5947172,26.706379 58.9369602,28.1149053 C60.2792032,29.5234316 62.0218372,30.2276842 64.1649143,30.2276842 C66.3079914,30.2276842 68.0449857,29.5234316 69.3759494,28.1149053 C70.706913,26.706379 71.3723849,24.8302501 71.3723849,22.4864623 Z M55.5700901,31.1742092 C53.2465434,28.8980307 52.0847874,26.007778 52.0847874,22.5033646 C52.0847874,18.9989511 53.252183,16.1086985 55.5870091,13.8325199 C57.9218352,11.5563414 60.7867479,10.4182692 64.1818332,10.4182692 C67.5769185,10.4182692 70.4361916,11.5563414 72.7597384,13.8325199 C75.0832851,16.1086985 76.2450411,18.9989511 76.2450411,22.5033646 C76.2450411,26.007778 75.0832851,28.8980307 72.7597384,31.1742092 C70.4361916,33.4503877 67.5712789,34.5884599 64.1649143,34.5884599 C60.7585496,34.5884599 57.8936369,33.4503877 55.5700901,31.1742092 Z" id="SEO" fill="#B5BABB" opacity="0.549020528"></path>
                        <g id="search-engine-(2)" opacity="0.100000001" transform="translate(194.175325, 47.543269) scale(-1, 1) translate(-194.175325, -47.543269) translate(181.675325, 35.043269)" fill-rule="nonzero">
                            <rect id="Rectangle-path" fill="#385C7D" transform="translate(10.582152, 14.228323) rotate(-135.000000) translate(-10.582152, -14.228323) " x="10.0821523" y="11.6424321" width="1" height="5.17178164"></rect>
                            <path d="M17.2547473,15.3605841 C13.0088581,15.3605841 9.5668849,11.9220111 9.5668849,7.68031637 C9.5668849,3.43862164 13.0088581,4.86678139e-05 17.2547473,4.86678139e-05 C21.5006365,4.86678139e-05 24.9426097,3.43862164 24.9426097,7.68031637 C24.9426097,11.9220111 21.5006365,15.3605841 17.2547473,15.3605841 Z M17.2547473,13.7160013 C20.5914603,13.7160013 23.2964007,11.0137331 23.2964007,7.68031637 C23.2964007,4.34689963 20.5914603,1.64463143 17.2547473,1.64463143 C13.9180343,1.64463143 11.2130939,4.34689963 11.2130939,7.68031637 C11.2130939,11.0137331 13.9180343,13.7160013 17.2547473,13.7160013 Z" id="Combined-Shape" stroke="#31475B" fill="#31475B"></path>
                            <path d="M9.17822914,18.1654562 L2.7653603,24.5719899 C2.09751349,25.2391769 1.40452925,24.8492017 0.736682436,24.1820147 C0.0688356224,23.5148276 -0.3215252,22.822528 0.346321613,22.1553409 L6.75919045,15.7488072 L8.75254926,16.1740179 L9.17822914,18.1654562 Z" id="Shape" stroke="#31475B" fill="#31475B"></path>
                            <path d="M9.9592918,17.3850678 L9.17813171,18.1654562 L6.75909302,15.7488072 L7.54025311,14.9684188 C8.20809992,14.3012318 9.29144498,14.3012318 9.9592918,14.9684188 C10.6271873,15.6356546 10.6271873,16.7178807 9.9592918,17.3850678 Z" id="Shape" stroke="#31475B" fill="#385C7D"></path>
                        </g>
                        <path d="M0,130.860651 L218.676323,130.860651 L218.676323,148.81377 L218.676323,148.81377 C218.676323,151.050523 216.863076,152.86377 214.626323,152.86377 L4.05,152.86377 L4.05,152.86377 C1.81324676,152.86377 -3.27879041e-15,151.050523 -3.55271368e-15,148.81377 L0,130.860651 Z" id="Rectangle" fill="#DDDDDD"></path>
                        <ellipse id="Oval-7" fill="#31475B" cx="109.338161" cy="142.151725" rx="4.9832406" ry="4.92175016"></ellipse>
                        <polygon id="Path-2" fill="#F9A53D" points="211.959974 65.3867297 211.959974 124.188583 6.76806324 124.188583 6.76806324 65.3867297"></polygon>
                        <g id="icon-(4)" opacity="0.968924907" transform="translate(104.111467, 65.823443) rotate(-45.000000) translate(-104.111467, -65.823443) translate(82.611467, 44.823443)" fill-rule="nonzero">
                            <path d="M40.8739422,7.18071817 L35.4880563,1.85688759 C33.1041612,-0.48770893 29.2331382,-0.503541884 26.8439603,1.83049933 L20.8677136,7.65438736 C18.4745735,9.98710916 18.4640077,13.787018 20.8412992,16.1302951 L24.2566747,12.8528737 C23.9106467,11.8092182 24.3372385,10.6138302 25.1824977,9.78655842 L28.9848433,6.08296674 C30.1893377,4.91528642 32.1215474,4.92056407 33.3101931,6.09616086 L36.5446303,9.2891398 C37.733276,10.4647366 37.7279932,12.3580939 36.5314231,13.5284131 L32.7290774,17.2346436 C31.9247605,18.0183748 30.604043,18.4485033 29.5791662,18.1727461 L26.2337888,21.4528063 C28.6150424,23.8026804 32.483424,23.8132357 34.8778848,21.4791945 L40.8475279,15.6605841 C43.2472716,13.3239041 43.2551959,9.52795351 40.8739422,7.18071817 Z" id="Shape" fill="#F9A53D"></path>
                            <path d="M18.9922947,28.4945123 C19.276249,29.5144184 18.8219222,30.8338312 17.9991152,31.6360341 L14.4477058,35.1021315 C13.2300043,36.289603 11.2594938,36.283006 10.0470751,35.0862986 L6.74792283,31.8392237 C5.5381456,30.6438357 5.54606991,28.7003407 6.76377144,27.5181468 L10.3178222,24.0520494 C11.1842129,23.2115835 12.4283288,22.7840938 13.5139586,23.142974 L16.9398998,19.7520832 C14.5150624,17.3626266 10.5687586,17.3507519 8.13335549,19.7256949 L2.37106505,25.3463934 C-0.0669794541,27.7252946 -0.0788659116,31.5924935 2.3446507,33.9872277 L7.83091118,39.406056 C10.2531071,41.7928737 14.1967695,41.8047485 16.6374555,39.4298054 L22.3997459,33.809107 C24.835149,31.4275669 24.8457147,27.5630069 22.4261602,25.1709115 L18.9922947,28.4945123 Z" id="Shape" fill="#EEF2F3"></path>
                            <path d="M15.2467399,26.9481605 C16.0536983,27.7622382 17.3744158,27.7701547 18.1972228,26.9587158 L28.0431718,17.1739506 C28.8633373,16.3598729 28.8686202,15.043099 28.0537375,14.2263824 C27.2441377,13.4149436 25.9260616,13.4096659 25.1085375,14.218466 L15.2599471,24.0005923 C14.4411023,24.8120312 14.4358194,26.1288052 15.2467399,26.9481605 Z" id="Shape" fill="#EEF2F3"></path>
                            <path d="M23.1494022,22.03139 C23.2252077,21.9561472 28.1878213,17.0191706 28.2496999,16.9361308 C28.8573074,16.1207338 28.793303,14.9676123 28.0537375,14.2263824 C27.3213568,13.4923381 26.1728704,13.4180065 25.3552477,14.0092481 C25.269041,14.0715861 20.2927429,18.9987625 20.2147679,19.0759054 L23.1494022,22.03139 Z" id="Shape" fill="#F9A53D"></path>
                        </g>
                        <path d="M172.732454,109.26701 L172.732454,88.5054364 L178.670198,88.5054364 L178.670198,109.26701 C178.670198,112.119975 177.814889,114.351469 176.104244,115.961558 C174.3936,117.571647 172.181106,118.37668 169.466695,118.37668 C166.752284,118.37668 164.532721,117.571647 162.807939,115.961558 C161.083157,114.351469 160.220779,112.119975 160.220779,109.26701 L166.200936,109.26701 C166.229211,110.481639 166.526095,111.420843 167.091597,112.084652 C167.657099,112.748461 168.448791,113.08036 169.466695,113.08036 C170.484599,113.08036 171.283359,112.748461 171.862999,112.084652 C172.442638,111.420843 172.732454,110.481639 172.732454,109.26701 Z M193.026814,93.7805708 C192.277524,94.3878852 191.902884,95.2282262 191.902884,96.3016191 C191.902884,97.3750119 192.178563,98.2153529 192.729927,98.8226673 C193.281292,99.4299816 194.009365,99.8960531 194.914169,100.220896 C195.818972,100.545738 196.808586,100.835268 197.883041,101.089492 C198.957495,101.343717 200.031933,101.654431 201.106387,102.021644 C202.180842,102.388858 203.170456,102.840806 204.075259,103.377502 C204.980063,103.914199 205.708136,104.698046 206.259501,105.729068 C206.810866,106.76009 207.086544,108.010009 207.086544,109.478863 C207.086544,111.90812 206.118136,113.99838 204.181291,115.749705 C202.244445,117.50103 199.671449,118.37668 196.462223,118.37668 C193.252998,118.37668 190.658796,117.621079 188.679538,116.109855 C186.70028,114.598631 185.710666,112.473062 185.710666,109.733086 L192.072534,109.733086 C192.298735,112.331827 193.783156,113.631177 196.525842,113.631177 C197.883048,113.631177 198.957486,113.278093 199.749189,112.571913 C200.540892,111.865734 200.936738,110.926529 200.936738,109.754271 C200.936738,108.582013 200.413656,107.656932 199.367477,106.979 C198.321298,106.301067 197.056005,105.792626 195.571562,105.45366 C194.087118,105.114693 192.595629,104.705115 191.097048,104.224913 C189.598467,103.744711 188.326106,102.90437 187.279927,101.703865 C186.233747,100.50336 185.710666,98.91448 185.710666,96.9371774 C185.710666,94.2536953 186.686142,92.1069418 188.637125,90.4968526 C190.588108,88.8867633 193.097487,88.0817308 196.165336,88.0817308 C199.233186,88.0817308 201.700153,88.780838 203.56631,90.1790734 C205.432467,91.5773088 206.450356,93.7028772 206.620007,96.5558424 L200.088488,96.5558424 C199.975388,95.4259552 199.551268,94.5291207 198.816115,93.865312 C198.080962,93.2015032 197.119622,92.8696038 195.932068,92.8696038 C194.744513,92.8696038 193.776105,93.1732565 193.026814,93.7805708 Z" id="JS" fill="#FFFFFF" opacity="0.400000006"></path>
                        <g id="curly-brackets" opacity="0.41220849" transform="translate(10.428571, 69.139423)" fill-rule="nonzero" fill="#FFFFFF">
                            <path d="M1.69568482,4.96326538 C2.00399115,7.04463473 2.31229748,7.52495074 2.31229748,9.60632009 C2.31229748,10.8871628 0,12.0079001 0,12.0079001 L0,13.6089535 C0,13.6089535 2.31229748,14.7296908 2.31229748,16.0105335 C2.31229748,18.0919028 2.00399115,18.5722188 1.69568482,20.6535882 C1.23322532,24.0158002 2.92891014,25.6168536 4.4704418,25.6168536 C6.01197345,25.6168536 7.70765827,25.6168536 7.70765827,25.6168536 L7.70765827,22.4147469 C7.70765827,22.4147469 4.93290129,22.7349576 4.93290129,20.8136935 C4.93290129,19.3727455 5.24120762,19.3727455 5.54951395,16.1706388 C5.70366712,14.7296908 4.77874813,13.6089535 3.85382913,12.8084268 C4.77874813,12.0079001 5.70366712,11.0472681 5.54951395,9.60632009 C5.08705446,6.40421339 4.93290129,6.40421339 4.93290129,4.96326538 C4.93290129,3.04200136 7.70765827,3.2021067 7.70765827,3.2021067 L7.70765827,0 C7.70765827,0 6.16612662,0 4.4704418,0 C2.77475698,0 1.23322532,1.60105335 1.69568482,4.96326538 Z" id="Shape"></path>
                            <path d="M20.2327527,4.96326538 C19.9244463,7.04463473 19.61614,7.52495074 19.61614,9.60632009 C19.61614,10.8871628 21.9284375,12.0079001 21.9284375,12.0079001 L21.9284375,13.6089535 C21.9284375,13.6089535 19.61614,14.7296908 19.61614,16.0105335 C19.61614,18.0919028 19.9244463,18.5722188 20.2327527,20.6535882 C20.6952122,24.0158002 18.9995273,25.6168536 17.4579957,25.6168536 C15.916464,25.6168536 14.2207792,25.6168536 14.2207792,25.6168536 L14.2207792,22.4147469 C14.2207792,22.4147469 16.9955362,22.7349576 16.9955362,20.8136935 C16.9955362,19.3727455 16.6872299,19.3727455 16.3789235,16.1706388 C16.2247704,14.7296908 17.1496894,13.6089535 18.0746084,12.8084268 C17.1496894,12.0079001 16.2247704,11.0472681 16.3789235,9.60632009 C16.6872299,6.40421339 16.9955362,6.40421339 16.9955362,4.96326538 C16.9955362,3.04200136 14.2207792,3.2021067 14.2207792,3.2021067 L14.2207792,0 C14.2207792,0 15.7623109,0 17.4579957,0 C19.1536805,0 20.6952122,1.60105335 20.2327527,4.96326538 Z" id="Shape"></path>
                        </g>
                    </g>
                    <g id="Group" transform="translate(60.971414, 152.863770)">
                        <rect id="Rectangle-2" fill="#E3E3E3" x="18.1741716" y="7.5273826" width="60.3851507" height="9.2644709"></rect>
                        <polygon id="Rectangle-3" fill="#E3E3E3" points="18.1069001 16.7918535 78.5670872 16.7946101 97.3103109 33.583707 0 33.583707"></polygon>
                        <path d="M0,33.583707 L97.3197575,33.583707 L97.3197575,40.7272073 L97.3197575,40.7272073 C97.3197575,42.2183762 96.1109263,43.4272073 94.6197575,43.4272073 L2.7,43.4272073 L2.7,43.4272073 C1.20883118,43.4272073 -3.5960646e-15,42.2183762 -4.4408921e-15,40.7272073 L0,33.583707 Z" id="Rectangle-4" fill="#EEF1F2"></path>
                        <polygon id="Rectangle-11" fill="#E3E3E3" points="11.725272 0 85.0082219 0 78.9927167 9.2644709 17.7407772 9.2644709"></polygon>
                    </g>
                </g>
            </g>
        </g>
    </g>
</svg>