<?xml version="1.0" encoding="UTF-8" standalone="no"?>
<svg width="289px" height="223px" viewBox="0 0 289 223" version="1.1" xmlns="http://www.w3.org/2000/svg" xmlns:xlink="http://www.w3.org/1999/xlink">
    <!-- Generator: Sketch 46.2 (44496) - http://www.bohemiancoding.com/sketch -->
    <title>Artboard 3</title>
    <desc>Created with Sketch.</desc>
    <defs></defs>
    <g id="Page-1" stroke="none" stroke-width="1" fill="none" fill-rule="evenodd">
        <g id="Artboard-3">
            <g id="Group-3" transform="translate(31.000000, 0.000000)">
                <g id="search-engine-(2)" transform="translate(114.000000, 111.500000) scale(-1, 1) translate(-114.000000, -111.500000) ">
                    <g id="cloud-computing-(11)" opacity="0.478486474" transform="translate(0.255179, 0.777101)" fill-rule="nonzero">
                        <g id="Group">
                            <g>
                                <g opacity="0.365671642" id="Shape">
                                    <g>
                                        <path d="M59.1933576,20.1511211 C59.0572211,9.847568 50.6783121,1.1998796 40.3485071,1.1998796 C33.7677845,1.1998796 27.5883687,4.75915965 24.1766683,9.88902384 C22.6779824,8.8905303 20.8774285,8.30659518 18.940738,8.30659518 C13.7107267,8.30659518 9.470369,12.5493044 9.470369,17.7822159 C9.470369,17.9634372 9.48694215,18.1399206 9.49759631,18.3199574 C9.48575835,18.5355278 9.470369,18.7534671 9.470369,18.9666685 C4.74939005,21.2313419 1.18379613,26.614679 1.18379613,32.1792372 C1.18379613,39.8959459 7.49342947,46.2090782 15.2058612,46.2090782 L44.2171529,46.2090782 C44.3805167,46.2090782 44.5391454,46.190127 44.7001417,46.1842047 C44.8623218,46.190127 45.0209504,46.2090782 45.1831305,46.2090782 L56.7878839,46.2090782 C63.9687912,46.2090782 69.8439714,40.33064 69.8439714,33.146935 C69.8439714,26.7852401 65.2342693,21.2893801 59.1933576,20.1511211 Z" fill="#E2E2E3"></path>
                                        <path d="M56.7890677,47.3935308 L45.1843143,47.3935308 C45.0611995,47.3935308 44.9380847,47.3864241 44.8161537,47.3769485 L44.6587088,47.3674729 L44.5841297,47.3769485 C44.4621987,47.3864241 44.3402677,47.3935308 44.2159691,47.3935308 L15.2058612,47.3935308 C6.82103327,47.3935308 0,40.5675305 0,32.1780528 C0,26.5459807 3.38210553,20.9186464 8.30551361,18.2334924 C8.29604324,18.0842514 8.28657288,17.9350103 8.28657288,17.7822159 C8.28657288,11.9037777 13.0667416,7.12214258 18.940738,7.12214258 C20.6584262,7.12214258 22.3311301,7.53196318 23.8392864,8.3160708 C27.6960941,3.16962427 33.921678,0.0154270028 40.3485071,0.0154270028 C50.9363797,0.0154270028 59.7189631,8.53637898 60.3440075,19.1964523 C66.4973797,20.8144146 71.0277675,26.6454747 71.0277675,33.146935 C71.0277675,41.0022246 64.6400036,47.3935308 56.7890677,47.3935308 Z M44.6587088,45.0009366 L44.9783338,45.0139656 C45.0469939,45.0187034 45.1156541,45.0246257 45.1843143,45.0246257 L56.7890677,45.0246257 C63.3342765,45.0246257 68.6601753,39.6957734 68.6601753,33.146935 C68.6601753,27.4426113 64.4955805,22.3565719 58.9743554,21.315438 L58.0225833,21.1365857 L58.0095615,20.1688879 C57.8817115,10.3616204 49.9585641,2.38433219 40.3485071,2.38433219 C34.4212399,2.38433219 28.4608264,5.58709201 25.1627704,10.5452106 L24.5069474,11.5318596 L23.5208452,10.8756729 C22.1618473,9.96956662 20.5767442,9.49104777 18.940738,9.49104777 C14.371285,9.49104777 10.6541651,13.2114134 10.6541651,17.7822159 C10.6541651,17.88171 10.6612679,17.9800195 10.6683707,18.0783291 L10.6825762,18.3175885 L10.6719221,18.5224988 C10.6636355,18.6717398 10.6541651,18.8209809 10.6541651,18.9666685 L10.6541651,19.7128737 L9.98176893,20.0338603 C5.56976077,22.1504771 2.36759225,27.2578367 2.36759225,32.1780528 C2.36759225,39.2622638 8.1267604,45.0246257 15.2058612,45.0246257 L44.2171529,45.0246257 C44.2869968,45.0246257 44.3544732,45.0187034 44.4231334,45.0139656 L44.6587088,45.0009366 Z" fill="#D2D2D2"></path>
                                    </g>
                                    <g transform="translate(52.087030, 18.374442)">
                                        <path d="M7.10632814,1.77677998 C7.10632814,1.77677998 4.10540496,1.33238281 1.18379613,1.77677998" fill="#91BAE1"></path>
                                        <path d="M1.18261233,2.96113149 C0.607287412,2.96113149 0.102990263,2.54183527 0.0142055535,1.95434678 C-0.0840495249,1.30763567 0.359874022,0.703564842 1.00622671,0.605255277 C4.06870728,0.138580954 7.1501286,0.58393513 7.28034617,0.604070824 C7.92669885,0.700011484 8.37298999,1.3017134 8.27710251,1.94842452 C8.18239882,2.59632009 7.57274381,3.03693646 6.9346777,2.94810251 C6.90626659,2.94454915 4.0639721,2.53946637 1.36136554,2.94691806 C1.30099194,2.95639368 1.24180214,2.96113149 1.18261233,2.96113149 Z" fill="#D2D2D2"></path>
                                    </g>
                                    <g transform="translate(8.286573, 7.106716)">
                                        <path d="M1.18379613,10.6755004 C1.18379613,5.4425888 5.42415385,1.1998796 10.6541651,1.1998796 C15.8841764,1.1998796 20.1245341,5.4425888 20.1245341,10.6755004" fill="#E2E2E3"></path>
                                        <path d="M20.1245341,11.859953 C19.4710787,11.859953 18.940738,11.3305027 18.940738,10.6755004 C18.940738,6.1046978 15.2236182,2.38433219 10.6541651,2.38433219 C6.08471208,2.38433219 2.36759225,6.1046978 2.36759225,10.6755004 C2.36759225,11.3305027 1.83725159,11.859953 1.18379613,11.859953 C0.530340664,11.859953 0,11.3305027 0,10.6755004 C0,4.79706213 4.78016875,0.0154270028 10.6541651,0.0154270028 C16.5281615,0.0154270028 21.3083303,4.79706213 21.3083303,10.6755004 C21.3083303,11.3305027 20.7779896,11.859953 20.1245341,11.859953 Z" fill="#D2D2D2"></path>
                                    </g>
                                </g>
                                <path d="M118.569864,28.5835476 C118.37676,13.9683756 106.491618,1.70198052 91.8392086,1.70198052 C82.5047206,1.70198052 73.7394701,6.75067483 68.9001115,14.027179 C66.7742864,12.6108565 64.2202737,11.7825682 61.4731569,11.7825682 C54.0545981,11.7825682 48.0398228,17.800679 48.0398228,25.2233517 C48.0398228,25.4804067 48.0633311,25.7307413 48.0784436,25.9861162 C48.0616519,26.291894 48.0398228,26.601032 48.0398228,26.9034496 C41.3433057,30.1157969 36.2856554,37.7518421 36.2856554,45.6449422 C36.2856554,56.5907803 45.2356143,65.5457023 56.1753857,65.5457023 L97.3267256,65.5457023 C97.5584506,65.5457023 97.783459,65.5188207 98.0118257,65.5104203 C98.2418715,65.5188207 98.4668799,65.5457023 98.6969257,65.5457023 L115.157798,65.5457023 C125.343623,65.5457023 133.677328,57.2073762 133.677328,47.0175822 C133.677328,37.9937762 127.138652,30.1981217 118.569864,28.5835476 Z" id="Shape" fill="#EDEEEF"></path>
                                <path d="M115.159477,67.2258003 L98.6986049,67.2258003 C98.5239715,67.2258003 98.3493382,67.2157197 98.176384,67.2022789 L97.9530548,67.1888381 L97.8472673,67.2022789 C97.6743132,67.2157197 97.501359,67.2258003 97.3250465,67.2258003 L56.1753857,67.2258003 C44.2818475,67.2258003 34.6064886,57.5433958 34.6064886,45.6432621 C34.6064886,37.6543964 39.4038681,29.6722511 46.3875227,25.863469 C46.3740893,25.6517767 46.360656,25.4400843 46.360656,25.2233517 C46.360656,16.8850256 53.1411314,10.1024702 61.4731569,10.1024702 C63.9096279,10.1024702 66.2822905,10.6837841 68.4215489,11.796009 C73.8922743,4.4959834 82.7230123,0.0218825775 91.8392086,0.0218825775 C106.857676,0.0218825775 119.315414,12.1085072 120.202014,27.2293886 C128.930323,29.5244024 135.356495,37.7955246 135.356495,47.0175822 C135.356495,58.1599918 126.295711,67.2258003 115.159477,67.2258003 Z M97.9530548,63.8320024 L98.4064299,63.8504835 C98.5038215,63.8572039 98.6012132,63.8656044 98.6986049,63.8656044 L115.159477,63.8656044 C124.44359,63.8656044 131.998161,56.3068437 131.998161,47.0175822 C131.998161,38.9262305 126.090852,31.71189 118.259219,30.2350839 L116.909168,29.9813891 L116.890698,28.6087491 C116.709348,14.6975381 105.470684,3.38207846 91.8392086,3.38207846 C83.4316207,3.38207846 74.977016,7.9250633 70.2988574,14.9579533 L69.368599,16.3574749 L67.9698531,15.4267006 C66.0421696,14.1414257 63.7937653,13.4626661 61.4731569,13.4626661 C54.9915732,13.4626661 49.7189895,18.7398537 49.7189895,25.2233517 C49.7189895,25.3644799 49.7290645,25.5039281 49.7391395,25.6433762 L49.7592895,25.982756 L49.744177,26.2734129 C49.7324229,26.4851053 49.7189895,26.6967976 49.7189895,26.9034496 L49.7189895,27.9619114 L48.7652228,28.4172179 C42.5069683,31.4195529 37.9648222,38.6641352 37.9648222,45.6432621 C37.9648222,55.6919279 46.1339685,63.8656044 56.1753857,63.8656044 L97.3267256,63.8656044 C97.4257965,63.8656044 97.521509,63.8572039 97.6189006,63.8504835 L97.9530548,63.8320024 Z" id="Shape" fill="#E5E6E7"></path>
                                <g id="settings-(9)" transform="translate(66.905878, 24.237976)">
                                    <path d="M34.3654991,14.3785357 L32.4514765,14.3785357 C32.0737359,12.7523918 31.4345878,11.2275823 30.577144,9.85066634 L31.9307145,8.49634522 C32.4063119,8.02048415 32.4063119,7.24815138 31.9307145,6.77229032 L28.8150389,3.65488684 C28.3394415,3.17902577 27.5675368,3.17902577 27.0919395,3.65488684 L25.738369,5.00920796 C24.3629005,4.15197336 22.8389361,3.51247086 21.2136935,3.13452078 L21.2136935,1.21943677 C21.2136935,0.545699664 20.6682963,0 19.9949326,0 L15.5886431,0 C14.9159638,0 14.3705665,0.545699664 14.3705665,1.21943677 L14.3705665,3.13452078 C12.7453239,3.51247086 11.2213595,4.15197336 9.84520671,5.00989265 L8.49232051,3.65557153 C8.01672319,3.17971047 7.24481848,3.17971047 6.76922115,3.65557153 L3.65354547,6.77297501 C3.17794814,7.24883607 3.17794814,8.02116884 3.65354547,8.49702991 L5.00711597,9.85135103 C4.14967217,11.2275823 3.51052411,12.7523918 3.13278351,14.3785357 L1.21876091,14.3785357 C0.545397216,14.3785357 0,14.9242354 0,15.5979725 L0,20.0067054 C0,20.6797578 0.545397216,21.2254575 1.21876091,21.2254575 L3.13278351,21.2254575 C3.51052411,22.8516014 4.14967217,24.3764109 5.00711597,25.7533268 L3.65354547,27.1069633 C3.17794814,27.583509 3.17794814,28.3551571 3.65354547,28.8310182 L6.76922115,31.9484216 C7.24481848,32.4242827 8.01672319,32.4242827 8.49232051,31.9484216 L9.84589102,30.5941005 C11.2220438,31.4513351 12.7460082,32.0915223 14.3712509,32.4694724 L14.3712509,34.3845564 C14.3705665,35.0582935 14.9159638,35.6039932 15.5893274,35.6039932 L19.9956169,35.6039932 C20.6682963,35.6039932 21.2136935,35.0582935 21.2136935,34.3845564 L21.2136935,32.4694724 C22.8389361,32.0915223 24.3629005,31.4520198 25.7390533,30.5941005 L27.0926238,31.9484216 C27.5682211,32.4242827 28.3401258,32.4242827 28.8157232,31.9484216 L31.9313989,28.8310182 C32.4069962,28.3551571 32.4069962,27.5828243 31.9313989,27.1069633 L30.5778284,25.7526421 C31.4345878,24.3764109 32.0737359,22.8509167 32.4521608,21.2247728 L34.3661834,21.2247728 C35.0388628,21.2254575 35.58426,20.6797578 35.58426,20.0060207 L35.58426,15.5972878 C35.58426,14.9242354 35.0388628,14.3785357 34.3654991,14.3785357 Z M17.79213,23.9642262 C14.3904116,23.9642262 11.6333158,21.2049167 11.6333158,17.8019966 C11.6333158,14.3983918 14.3904116,11.639767 17.79213,11.639767 C21.1938484,11.639767 23.9509442,14.3983918 23.9509442,17.8019966 C23.9509442,21.2049167 21.1938484,23.9642262 17.79213,23.9642262 Z" id="Shape" fill="#BFBFBF"></path>
                                    <path d="M17.79213,8.90099829 C12.8787649,8.90099829 8.896065,12.8859068 8.896065,17.8019966 C8.896065,22.7180864 12.8787649,26.7029949 17.79213,26.7029949 C22.7054951,26.7029949 26.688195,22.7180864 26.688195,17.8019966 C26.688195,12.8859068 22.7054951,8.90099829 17.79213,8.90099829 Z M17.79213,23.9642262 C14.3904116,23.9642262 11.6333158,21.2049167 11.6333158,17.8019966 C11.6333158,14.3983918 14.3904116,11.639767 17.79213,11.639767 C21.1938484,11.639767 23.9509442,14.3983918 23.9509442,17.8019966 C23.9509442,21.2049167 21.1938484,23.9642262 17.79213,23.9642262 Z" id="Shape" fill="#B2B2B2"></path>
                                </g>
                            </g>
                            <g transform="translate(108.489826, 26.063401)" id="Shape">
                                <path d="M10.0800381,2.52014691 C10.0800381,2.52014691 5.82335034,1.89011018 1.67916676,2.52014691" fill="#91BAE1"></path>
                                <path d="M1.6774876,4.20024485 C0.86141255,4.20024485 0.146087509,3.60549018 0.0201500012,2.7721616 C-0.11922084,1.85482813 0.510466696,0.997978177 1.42729175,0.858530048 C5.77129617,0.196571459 10.1421673,0.828288285 10.3268756,0.85684995 C11.2437007,0.992937884 11.8767465,1.84642764 11.740734,2.76376111 C11.6064007,3.68277469 10.7416298,4.30777112 9.83655891,4.18176378 C9.7962589,4.17672348 5.7645795,3.60212999 1.93104178,4.18008368 C1.84540427,4.19352446 1.76144594,4.20024485 1.6774876,4.20024485 Z" fill="#E5E6E7"></path>
                            </g>
                            <g transform="translate(46.360656, 10.080588)" id="Shape">
                                <path d="M1.67916676,15.1427641 C1.67916676,7.72009135 7.69394211,1.70198052 15.1125009,1.70198052 C22.5310596,1.70198052 28.545835,7.72009135 28.545835,15.1427641" fill="#EDEEEF"></path>
                                <path d="M28.545835,16.822862 C27.6189349,16.822862 26.8666682,16.0718582 26.8666682,15.1427641 C26.8666682,8.6592661 21.5940846,3.38207846 15.1125009,3.38207846 C8.63091717,3.38207846 3.35833353,8.6592661 3.35833353,15.1427641 C3.35833353,16.0718582 2.60606682,16.822862 1.67916676,16.822862 C0.75226671,16.822862 0,16.0718582 0,15.1427641 C0,6.80443797 6.78047539,0.0218825775 15.1125009,0.0218825775 C23.4445264,0.0218825775 30.2250018,6.80443797 30.2250018,15.1427641 C30.2250018,16.0718582 29.472735,16.822862 28.545835,16.822862 Z" fill="#E5E6E7"></path>
                            </g>
                        </g>
                    </g>
                    <ellipse id="Oval" fill-opacity="0.289999992" fill="#EBEBEB" cx="137.762215" cy="104.425269" rx="45.3361915" ry="45.2369097"></ellipse>
                    <path d="M198.390571,151.060738 L196.636469,151.060738 C196.290289,149.574804 195.704543,148.181468 194.91874,146.923273 L196.159217,145.685725 C196.595078,145.250894 196.595078,144.545154 196.159217,144.110323 L193.303863,141.261711 C192.868003,140.82688 192.160592,140.82688 191.724732,141.261711 L190.484255,142.499259 C189.22371,141.715937 187.827076,141.131574 186.337625,140.786212 L186.337625,139.036252 C186.337625,138.420606 185.837797,137.921958 185.220694,137.921958 L181.18256,137.921958 C180.566084,137.921958 180.066256,138.420606 180.066256,139.036252 L180.066256,140.786212 C178.576805,141.131574 177.180171,141.715937 175.918999,142.499884 L174.679149,141.262336 C174.243289,140.827505 173.535879,140.827505 173.100018,141.262336 L170.244664,144.110949 C169.808804,144.54578 169.808804,145.25152 170.244664,145.686351 L171.485141,146.923899 C170.699338,148.181468 170.113592,149.574804 169.767413,151.060738 L168.01331,151.060738 C167.396208,151.060738 166.89638,151.559386 166.89638,152.175031 L166.89638,156.203632 C166.89638,156.818652 167.396208,157.3173 168.01331,157.3173 L169.767413,157.3173 C170.113592,158.803233 170.699338,160.196569 171.485141,161.454764 L170.244664,162.691686 C169.808804,163.127143 169.808804,163.832258 170.244664,164.267089 L173.100018,167.115701 C173.535879,167.550532 174.243289,167.550532 174.679149,167.115701 L175.919626,165.878153 C177.180799,166.661475 178.577433,167.246463 180.066883,167.591826 L180.066883,169.341786 C180.066256,169.957432 180.566084,170.45608 181.183187,170.45608 L185.221322,170.45608 C185.837797,170.45608 186.337625,169.957432 186.337625,169.341786 L186.337625,167.591826 C187.827076,167.246463 189.22371,166.662101 190.484882,165.878153 L191.725359,167.115701 C192.161219,167.550532 192.86863,167.550532 193.30449,167.115701 L196.159844,164.267089 C196.595705,163.832258 196.595705,163.126517 196.159844,162.691686 L194.919368,161.454138 C195.704543,160.196569 196.290289,158.802608 196.637096,157.316674 L198.391198,157.316674 C199.007673,157.3173 199.507502,156.818652 199.507502,156.203006 L199.507502,152.174406 C199.507502,151.559386 199.007673,151.060738 198.390571,151.060738 Z M183.201941,159.819924 C180.084443,159.819924 177.557708,157.29853 177.557708,154.189019 C177.557708,151.078882 180.084443,148.558113 183.201941,148.558113 C186.319438,148.558113 188.846173,151.078882 188.846173,154.189019 C188.846173,157.29853 186.319438,159.819924 183.201941,159.819924 Z" id="Shape" fill="#31475B" fill-rule="nonzero" opacity="0.297189835"></path>
                    <path d="M183.008427,146.43282 C178.798153,146.43282 175.385369,149.847497 175.385369,154.060105 C175.385369,158.272714 178.798153,161.687391 183.008427,161.687391 C187.2187,161.687391 190.631485,158.272714 190.631485,154.060105 C190.631485,149.847497 187.2187,146.43282 183.008427,146.43282 Z M183.008427,159.340534 C180.093487,159.340534 177.730925,156.976075 177.730925,154.060105 C177.730925,151.143549 180.093487,148.779677 183.008427,148.779677 C185.923367,148.779677 188.285929,151.143549 188.285929,154.060105 C188.285929,156.976075 185.923367,159.340534 183.008427,159.340534 Z" id="Shape" fill="#E5E5E5" fill-rule="nonzero"></path>
                    <polygon id="w" fill="#CF872E" points="218.572108 115.22726 227.186096 115.22726 216.338852 150.493046 206.767756 150.493046 200.706061 126.812771 194.580559 150.493046 185.009462 150.493046 174.162219 115.22726 183.222857 115.22726 189.731203 142.026711 196.239549 115.22726 205.683031 115.22726 212.063763 141.963055"></polygon>
                    <polygon id="w-copy" fill="#F05244" opacity="0.5" points="88.8213199 100.819923 94.7865169 100.819923 87.2747874 125.597701 80.6467908 125.597701 76.4490596 108.959915 72.2071418 125.597701 65.5791452 125.597701 58.0674157 100.819923 64.3419192 100.819923 68.8489569 119.649245 73.3559945 100.819923 79.8956178 100.819923 84.3142822 119.60452"></polygon>
                    <polygon id="w" fill="#F9A53D" points="173.511702 95.6934866 185.303371 95.6934866 170.454603 144.394636 157.352749 144.394636 149.054909 111.692781 140.669722 144.394636 127.567869 144.394636 112.719101 95.6934866 125.122189 95.6934866 134.03145 132.702844 142.94071 95.6934866 155.867873 95.6934866 164.602442 132.614936"></polygon>
                    <rect id="Rectangle-path" fill="#747B82" fill-rule="nonzero" transform="translate(95.644023, 152.009099) rotate(-135.000000) translate(-95.644023, -152.009099) " x="92.8751404" y="134.809306" width="5.53776537" height="34.3995861"></rect>
                    <path d="M139.037911,158.803546 C110.852097,158.803546 88.0029806,136.004467 88.0029806,107.880377 C88.0029806,79.7562876 110.852097,56.9572082 139.037911,56.9572082 C167.223725,56.9572082 190.072842,79.7562876 190.072842,107.880377 C190.072842,136.004467 167.223725,158.803546 139.037911,158.803546 Z M139.037911,147.899322 C161.188271,147.899322 179.144685,129.98223 179.144685,107.880377 C179.144685,85.7785247 161.188271,67.8614331 139.037911,67.8614331 C116.887551,67.8614331 98.9311371,85.7785247 98.9311371,107.880377 C98.9311371,129.98223 116.887551,147.899322 139.037911,147.899322 Z" id="Combined-Shape" fill="#BBBBBB" fill-rule="nonzero"></path>
                    <path d="M119.146422,90.3257875 C118.438092,90.3257875 117.729438,90.0561379 117.188538,89.5168385 C116.107062,88.4379162 116.107062,86.6889161 117.188538,85.6106411 C123.198793,79.6142542 131.190617,76.3114506 139.690894,76.3114506 C148.191171,76.3114506 156.182672,79.6136068 162.192926,85.6103174 C163.274402,86.6892398 163.274402,88.4382399 162.192926,89.5165148 C161.11145,90.5947898 159.35831,90.5954372 158.277484,89.5161911 C153.312364,84.5631186 146.711889,81.8358696 139.69057,81.8358696 C132.669251,81.8358696 126.068451,84.5634423 121.103981,89.5165148 C120.563405,90.0558142 119.854751,90.3257875 119.146422,90.3257875 Z" id="Shape" fill="#FFFFFF" fill-rule="nonzero"></path>
                    <path d="M85.8961486,177.800396 L43.1828805,220.412811 C38.7346497,224.850539 34.1189898,222.256658 29.6707591,217.81893 C25.2225284,213.381203 22.6225085,208.776441 27.0707392,204.338713 L69.7840074,161.726298 L83.0608842,164.554544 L85.8961486,177.800396 Z" id="Shape" fill="#31475B" fill-rule="nonzero"></path>
                    <path d="M91.0984597,172.609721 L85.8954997,177.800396 L69.7833585,161.726298 L74.9863185,156.535623 C79.4345492,152.097895 86.650229,152.097895 91.0984597,156.535623 C95.5470149,160.973675 95.5470149,168.171993 91.0984597,172.609721 Z" id="Shape" fill="#BBBBBB" fill-rule="nonzero"></path>
                </g>
            </g>
        </g>
    </g>
</svg>