<?xml version="1.0" encoding="UTF-8" standalone="no"?>
<svg width="289px" height="223px" viewBox="0 0 289 223" version="1.1" xmlns="http://www.w3.org/2000/svg" xmlns:xlink="http://www.w3.org/1999/xlink">
    <!-- Generator: Sketch 46.2 (44496) - http://www.bohemiancoding.com/sketch -->
    <title>Artboard 3</title>
    <desc>Created with Sketch.</desc>
    <defs></defs>
    <g id="Page-1" stroke="none" stroke-width="1" fill="none" fill-rule="evenodd">
        <g id="Artboard-3">
            <g id="Group-3" transform="translate(38.000000, 24.000000)">
                <g id="search-engine-(2)" transform="translate(107.000000, 87.500000) scale(-1, 1) translate(-107.000000, -87.500000) ">
                    <ellipse id="Oval" fill-opacity="0.289999992" fill="#EBEBEB" cx="118.786293" cy="49.7441188" rx="47.8102508" ry="47.7740547"></ellipse>
                    <path d="M183.158853,98.6358061 L181.30303,98.6358061 C180.936776,97.0611755 180.317062,95.5846693 179.485691,94.2513716 L180.798103,92.9399529 C181.259239,92.4791663 181.259239,91.7312997 180.798103,91.270513 L177.777167,88.2518633 C177.316031,87.7910767 176.567598,87.7910767 176.106462,88.2518633 L174.79405,89.563282 C173.460405,88.7332031 171.98278,88.1139589 170.406957,87.7479816 L170.406957,85.893564 C170.406957,85.2411697 169.878143,84.7127568 169.225255,84.7127568 L164.952948,84.7127568 C164.300723,84.7127568 163.77191,85.2411697 163.77191,85.893564 L163.77191,87.7479816 C162.196086,88.1139589 160.718461,88.7332031 159.384154,89.563945 L158.072405,88.2525264 C157.611269,87.7917397 156.862836,87.7917397 156.4017,88.2525264 L153.380763,91.271176 C152.919628,91.7319627 152.919628,92.4798293 153.380763,92.9406159 L154.693176,94.2520346 C153.861804,95.5846693 153.242091,97.0611755 152.875836,98.6358061 L151.020014,98.6358061 C150.367125,98.6358061 149.838312,99.164219 149.838312,99.8166133 L149.838312,104.085685 C149.838312,104.737417 150.367125,105.26583 151.020014,105.26583 L152.875836,105.26583 C153.242091,106.84046 153.861804,108.316966 154.693176,109.650264 L153.380763,110.96102 C152.919628,111.422469 152.919628,112.169673 153.380763,112.63046 L156.4017,115.649109 C156.862836,116.109896 157.611269,116.109896 158.072405,115.649109 L159.384817,114.337691 C160.719125,115.16777 162.19675,115.787677 163.772573,116.153654 L163.772573,118.008072 C163.77191,118.660466 164.300723,119.188879 164.953612,119.188879 L169.225918,119.188879 C169.878143,119.188879 170.406957,118.660466 170.406957,118.008072 L170.406957,116.153654 C171.98278,115.787677 173.460405,115.168433 174.794713,114.337691 L176.107125,115.649109 C176.568261,116.109896 177.316694,116.109896 177.77783,115.649109 L180.798767,112.63046 C181.259903,112.169673 181.259903,111.421806 180.798767,110.96102 L179.486355,109.649601 C180.317062,108.316966 180.936776,106.839797 181.303694,105.265167 L183.159516,105.265167 C183.811742,105.26583 184.340555,104.737417 184.340555,104.085022 L184.340555,99.8159503 C184.340555,99.164219 183.811742,98.6358061 183.158853,98.6358061 Z M167.089433,107.917839 C163.791152,107.917839 161.117891,105.245939 161.117891,101.950818 C161.117891,98.6550332 163.791152,95.9837967 167.089433,95.9837967 C170.387715,95.9837967 173.060975,98.6550332 173.060975,101.950818 C173.060975,105.245939 170.387715,107.917839 167.089433,107.917839 Z" id="Shape" fill="#31475B" fill-rule="nonzero" opacity="0.297189835"></path>
                    <path d="M166.596544,93.5780453 C162.24092,93.5780453 158.710317,97.1059755 158.710317,101.458302 C158.710317,105.810628 162.24092,109.338558 166.596544,109.338558 C170.952168,109.338558 174.482771,105.810628 174.482771,101.458302 C174.482771,97.1059755 170.952168,93.5780453 166.596544,93.5780453 Z M166.596544,106.913864 C163.580972,106.913864 161.136849,104.470984 161.136849,101.458302 C161.136849,98.445013 163.580972,96.0027396 166.596544,96.0027396 C169.612116,96.0027396 172.05624,98.445013 172.05624,101.458302 C172.05624,104.470984 169.612116,106.913864 166.596544,106.913864 Z" id="Shape" fill="#E5E5E5" fill-rule="nonzero"></path>
                    <polygon id="w" fill="#CF872E" points="204.785669 61.0719875 213.913906 61.0719875 202.419089 98.5032056 192.276604 98.5032056 185.853031 73.3688859 179.36184 98.5032056 169.219355 98.5032056 157.724539 61.0719875 167.326091 61.0719875 174.222981 89.5170106 181.119871 61.0719875 191.127123 61.0719875 197.88878 89.4494453"></polygon>
                    <polygon id="w-copy" fill="#F05244" opacity="0.5" points="67.6877421 45.3114746 73.9333776 45.3114746 66.0685032 70.922308 59.1289082 70.922308 54.7338314 53.7251419 50.2924906 70.922308 43.3528956 70.922308 35.4880212 45.3114746 42.0575045 45.3114746 46.7764291 64.7738589 51.4953537 45.3114746 58.3424208 45.3114746 62.9688175 64.7276299"></polygon>
                    <polygon id="w" fill="#F9A53D" points="157.062608 40.3863143 169.553879 40.3863143 153.824131 91.6079812 139.944941 91.6079812 131.154787 57.2136489 122.272105 91.6079812 108.392915 91.6079812 92.6631666 40.3863143 105.802133 40.3863143 115.239982 79.3110828 124.677832 40.3863143 138.371966 40.3863143 147.624759 79.218625"></polygon>
                    <rect id="Rectangle-path" fill="#747B82" fill-rule="nonzero" transform="translate(74.919156, 99.980754) rotate(-135.000000) translate(-74.919156, -99.980754) " x="71.9618209" y="81.7576607" width="5.91467021" height="36.4461861"></rect>
                    <path d="M120.75785,107.368494 C91.0863955,107.368494 67.032929,83.333238 67.032929,53.6842471 C67.032929,24.0352561 91.0863955,2.13162821e-14 120.75785,2.13162821e-14 C150.429305,2.13162821e-14 174.482771,24.0352561 174.482771,53.6842471 C174.482771,83.333238 150.429305,107.368494 120.75785,107.368494 Z M120.75785,95.8730371 C144.075729,95.8730371 162.978605,76.9844724 162.978605,53.6842471 C162.978605,30.3840217 144.075729,11.495457 120.75785,11.495457 C97.4399713,11.495457 78.5370956,30.3840217 78.5370956,53.6842471 C78.5370956,76.9844724 97.4399713,95.8730371 120.75785,95.8730371 Z" id="Combined-Shape" fill="#BBBBBB" fill-rule="nonzero"></path>
                    <path d="M99.5333761,34.476122 C98.784602,34.476122 98.035485,34.1918271 97.4637001,33.6232375 C96.3204734,32.485717 96.3204734,30.6417255 97.4637001,29.5048875 C103.817132,23.182826 112.265279,19.7006411 121.250911,19.7006411 C130.236542,19.7006411 138.684346,23.1821434 145.037778,29.5045462 C146.181005,30.6420668 146.181005,32.4860582 145.037778,33.6228962 C143.894552,34.7597342 142.04131,34.7604168 140.898769,33.6225549 C135.650148,28.4004721 128.672795,25.5251013 121.250568,25.5251013 C113.828341,25.5251013 106.850644,28.4008134 101.602709,33.6228962 C101.031267,34.1914859 100.28215,34.476122 99.5333761,34.476122 Z" id="Shape" fill="#FFFFFF" fill-rule="nonzero"></path>
                    <path d="M64.0755939,127.198747 L19.3056774,171.934769 C14.643264,176.593653 9.80535956,173.870505 5.14294609,169.211621 C0.480532614,164.552738 -2.2446785,159.718496 2.41773497,155.059612 L47.1876514,110.32359 L61.1038112,113.292783 L64.0755939,127.198747 Z" id="Shape" fill="#31475B" fill-rule="nonzero"></path>
                    <path d="M69.4787197,120.678616 L64.0691906,126.084103 L47.3173617,109.344791 L52.7268908,103.939304 C57.3517261,99.3179248 64.8538844,99.3179248 69.4787197,103.939304 C74.1038924,108.561021 74.1038924,116.057237 69.4787197,120.678616 Z" id="Shape" fill="#BBBBBB" fill-rule="nonzero"></path>
                </g>
            </g>
        </g>
    </g>
</svg>