<?xml version="1.0" encoding="UTF-8" standalone="no"?>
<svg width="289px" height="223px" viewBox="0 0 289 223" version="1.1" xmlns="http://www.w3.org/2000/svg" xmlns:xlink="http://www.w3.org/1999/xlink">
    <!-- Generator: Sketch 46.2 (44496) - http://www.bohemiancoding.com/sketch -->
    <title>Artboard 3</title>
    <desc>Created with Sketch.</desc>
    <defs>
        <linearGradient x1="66.0415338%" y1="9.6899634%" x2="50%" y2="62.438415%" id="linearGradient-1">
            <stop stop-color="#F8FAFC" offset="0%"></stop>
            <stop stop-color="#D3DCE4" offset="100%"></stop>
        </linearGradient>
    </defs>
    <g id="Page-1" stroke="none" stroke-width="1" fill="none" fill-rule="evenodd">
        <g id="Artboard-3">
            <g id="Group-23" transform="translate(2.000000, 0.000000)">
                <path d="M21.2727273,187.926569 L0,187.926569 L35.4545455,223 L70.9090909,187.926569 L49.6363636,187.926569 C49.6363636,187.926569 42.0581311,156.780042 78,135.505217 C78,135.505217 50.5686346,130.201438 30.6907823,153.963068 C30.6890167,153.961312 20.5699928,164.726929 21.2727273,187.926569 Z" id="Shape" fill="url(#linearGradient-1)" fill-rule="nonzero"></path>
                <g id="gauge" transform="translate(202.000000, 0.000000)" fill-rule="nonzero">
                    <path d="M28.5007845,0 C44.2400173,0 57,12.7598081 57,28.5008558 C57,42.5421077 46.8467007,54.2113193 33.4812258,56.5658154 C31.863727,56.8510878 30.2007272,57 28.5009271,57 C26.8028387,57 25.1381273,56.8512304 23.5223401,56.5658154 C10.1550109,54.2113193 0,42.5421077 0,28.5008558 C-0.000142636575,12.7598081 12.7596974,0 28.5007845,0 Z" id="Shape" fill="#F05244"></path>
                    <path d="M28.5010634,54.625 C26.9676972,54.625 25.4319208,54.4910169 23.9365521,54.2270206 C17.9648603,53.1751471 12.5042904,50.033421 8.56078183,45.3808761 C4.5719032,40.6745962 2.375,34.6798102 2.375,28.5008507 C2.375,14.0950462 14.095078,2.375 28.5009216,2.375 C42.9059145,2.375 54.625,14.0950462 54.625,28.5008507 C54.625,34.6798102 52.4285221,40.674738 48.4403524,45.3808761 C44.4975527,50.0335628 39.0381172,53.1751471 33.0674177,54.2270206 C31.5702059,54.4911587 30.0338624,54.625 28.5010634,54.625 Z" id="Shape" fill="#F9A53D"></path>
                    <path d="M11.6986113,11.6974941 C20.9621495,2.43395584 36.0370524,2.43395584 45.3018675,11.6987709 C54.5666826,20.963586 54.5654057,36.037212 45.3018675,45.3007502 C36.0370524,54.5655653 20.9634264,54.5668422 11.6986113,45.3020271 C2.43379623,36.037212 2.43379623,20.9623092 11.6986113,11.6974941 Z" id="Shape" fill="#F0F0F0"></path>
                    <path d="M44.5404235,11.0833333 C53.7649389,20.307885 53.7636676,35.3160035 44.5404235,44.5392839 C35.3159081,53.7638356 20.3078487,53.7651069 11.0833333,44.5405552" id="Shape" fill="#FFFFFF"></path>
                    <path d="M30.875,28.5 C30.875,27.1883225 29.8129775,26.125 28.5008374,26.125 C27.1886974,26.125 26.125,27.1883225 26.125,28.5 C26.125,29.8116775 27.1886974,30.875 28.5008374,30.875 C29.8129775,30.875 30.875,29.8116775 30.875,28.5 Z" id="Shape" fill="#FFFFFF"></path>
                    <g id="Group" transform="translate(8.708333, 8.708333)" fill="#666666">
                        <path d="M20.8452464,16.9896875 L20.8452464,9.58257158 L19.2629879,9.58257158 L19.2629879,16.9898303 C17.8645097,17.3431009 16.8251409,18.6046795 16.8251409,20.1071504 C16.8251409,21.8822137 18.2738973,23.326425 20.0545469,23.326425 C21.8343371,23.326425 23.282234,21.8822137 23.282234,20.1071504 C23.2825205,18.6046795 22.2434382,17.3428153 20.8452464,16.9896875 Z M20.0548334,21.749416 C19.1465316,21.749416 18.4075427,21.0128882 18.4075427,20.1072932 C18.4075427,19.202555 19.1455289,18.4663128 20.0529712,18.4654561 L20.0562658,18.4654561 C20.9628487,18.4663128 21.7001187,19.202555 21.7001187,20.1072932 C21.7004052,21.0128882 20.9621325,21.749416 20.0548334,21.749416 Z" id="Shape"></path>
                        <rect id="Rectangle-path" x="19.2628447" y="0.0625434576" width="1.58225854" height="4.7720087"></rect>
                        <rect id="Rectangle-path" transform="translate(13.995697, 3.511757) rotate(-109.998771) translate(-13.995697, -3.511757) " x="11.6021837" y="2.72310979" width="4.78702704" height="1.57729467"></rect>
                        <rect id="Rectangle-path" transform="translate(8.668452, 6.580130) rotate(-130.002181) translate(-8.668452, -6.580130) " x="6.27507236" y="5.7915751" width="4.78675873" height="1.57711067"></rect>
                        <rect id="Rectangle-path" transform="translate(4.713326, 11.276630) rotate(-149.999272) translate(-4.713326, -11.276630) " x="2.31993733" y="10.4880713" width="4.78677826" height="1.5771171"></rect>
                        <rect id="Rectangle-path" transform="translate(2.607366, 17.041195) rotate(-169.996999) translate(-2.607366, -17.041195) " x="0.213849718" y="16.2525465" width="4.78703335" height="1.57729675"></rect>
                        <rect id="Rectangle-path" transform="translate(37.497758, 23.176137) rotate(-169.996999) translate(-37.497758, -23.176137) " x="35.1042409" y="22.3874888" width="4.78703335" height="1.57729675"></rect>
                        <rect id="Rectangle-path" transform="translate(2.608965, 23.174459) rotate(-99.997359) translate(-2.608965, -23.174459) " x="1.81791972" y="20.7884925" width="1.58208999" height="4.77193234"></rect>
                        <rect id="Rectangle-path" transform="translate(37.500667, 17.040769) rotate(-99.997359) translate(-37.500667, -17.040769) " x="36.7096217" y="14.6548028" width="1.58208999" height="4.77193234"></rect>
                        <rect id="Rectangle-path" transform="translate(35.397948, 11.277391) rotate(-120.000728) translate(-35.397948, -11.277391) " x="34.6069078" y="8.89151101" width="1.58208049" height="4.77176092"></rect>
                        <rect id="Rectangle-path" transform="translate(31.439525, 6.580609) rotate(-139.997819) translate(-31.439525, -6.580609) " x="30.6484883" y="4.19473789" width="1.58207404" height="4.77174145"></rect>
                        <rect id="Rectangle-path" transform="translate(26.113986, 3.512137) rotate(-160.001229) translate(-26.113986, -3.512137) " x="25.3228566" y="1.12613292" width="1.58225861" height="4.77200891"></rect>
                    </g>
                </g>
                <g id="Group" transform="translate(47.000000, 33.000000)">
                    <g id="analytics-(9)" fill-rule="nonzero">
                        <path d="M86.9704073,141.842833 L86.9704073,150.162552 L153.233508,150.162552 L153.233508,141.842833 L223.638726,141.842833 L223.638726,8.72592605 C223.638726,4.12946428 219.931979,0.406207715 215.355898,0.406207715 L24.8489559,0.406207715 C20.2728747,0.406207715 16.566127,4.12946428 16.566127,8.72592605 L16.566127,141.842833 L86.9704073,141.842833 Z" id="Shape" fill="#31475B"></path>
                        <path d="M153.233977,141.842833 L153.233977,150.162552 L86.9704073,150.162552 L86.9704073,141.842833 L0,141.842833 L0,154.322646 C0,158.919108 3.70674773,162.642365 8.28282891,162.642365 L231.921555,162.642365 C236.497637,162.642365 240.204384,158.919108 240.204384,154.322646 L240.204384,141.842833 L153.233977,141.842833 Z" id="Shape" fill="#DDDDDD"></path>
                        <polygon id="Shape" fill="#F9F8F8" points="24.8489559 133.523115 215.355428 133.523115 215.355428 8.72592605 24.8489559 8.72592605"></polygon>
                    </g>
                    <polygon id="Path-4" stroke="#31475B" stroke-width="1.91691" fill="#F9A53D" points="23.9942561 102.906242 54.0886732 89.7241519 86.8833095 96.5039252 121.104149 64.6100976 150.567411 83.9468981 189.042776 64.6100976 216.21923 90.2613599 216.21923 134.447138 23.9942561 135.102942"></polygon>
                    <ellipse id="Oval-8" stroke="#F05244" stroke-width="1.91691" fill="#F7F7F7" cx="54.8004367" cy="89.4473168" rx="4.11003275" ry="4.1283377"></ellipse>
                    <ellipse id="Oval-8" stroke="#F05244" stroke-width="1.91691" fill="#F7F7F7" cx="86.3106878" cy="96.3278796" rx="4.11003275" ry="4.1283377"></ellipse>
                    <ellipse id="Oval-8" stroke="#F05244" stroke-width="1.91691" fill="#F7F7F7" cx="120.560961" cy="64.6772906" rx="4.11003275" ry="4.1283377"></ellipse>
                    <ellipse id="Oval-8" stroke="#F05244" stroke-width="1.91691" fill="#F7F7F7" cx="150.701201" cy="82.5667539" rx="4.11003275" ry="4.1283377"></ellipse>
                    <ellipse id="Oval-8" stroke="#F05244" stroke-width="1.91691" fill="#F7F7F7" cx="189.061507" cy="64.6772906" rx="4.11003275" ry="4.1283377"></ellipse>
                </g>
                <g id="settings-(9)" transform="translate(128.500000, 94.500000) rotate(17.000000) translate(-128.500000, -94.500000) translate(107.000000, 73.000000)" fill-rule="nonzero">
                    <path d="M40.9500013,17.0897841 L38.6692479,17.0897841 C38.2191314,15.1570109 37.4575212,13.3446799 36.4357894,11.7081297 L38.0487069,10.0984348 C38.6154296,9.5328443 38.6154296,8.61487876 38.0487069,8.04928829 L34.3360611,4.34406035 C33.7693384,3.77846987 32.8495351,3.77846987 32.2828123,4.34406035 L30.6698948,5.95375524 C29.0308836,4.93487859 27.2149245,4.1747901 25.2782819,3.72557292 L25.2782819,1.44937645 C25.2782819,0.648597995 24.6283854,0 23.8260039,0 L18.5754601,0 C17.7738939,0 17.1239974,0.648597995 17.1239974,1.44937645 L17.1239974,3.72557292 C15.1873549,4.1747901 13.3713957,4.93487859 11.7315691,5.95456904 L10.1194671,4.34487415 C9.55274428,3.77928367 8.63294099,3.77928367 8.06621822,4.34487415 L4.35357249,8.05010209 C3.78684972,8.61569256 3.78684972,9.5336581 4.35357249,10.0992486 L5.96648996,11.7089435 C4.94475812,13.3446799 4.18314794,15.1570109 3.73303144,17.0897841 L1.45227807,17.0897841 C0.649896474,17.0897841 0,17.738382 0,18.5391605 L0,23.7792138 C0,24.5791785 0.649896474,25.2277765 1.45227807,25.2277765 L3.73303144,25.2277765 C4.18314794,27.1605497 4.94475812,28.9728806 5.96648996,30.6094308 L4.35357249,32.2183119 C3.78684972,32.7847162 3.78684972,33.7018679 4.35357249,34.2674584 L8.06621822,37.9726864 C8.63294099,38.5382768 9.55274428,38.5382768 10.1194671,37.9726864 L11.7323845,36.3629915 C13.3722111,37.3818681 15.1881703,38.1427704 17.1248129,38.5919876 L17.1248129,40.8681841 C17.1239974,41.6689625 17.7738939,42.3175605 18.5762755,42.3175605 L23.8268193,42.3175605 C24.6283854,42.3175605 25.2782819,41.6689625 25.2782819,40.8681841 L25.2782819,38.5919876 C27.2149245,38.1427704 29.0308836,37.3826819 30.6707103,36.3629915 L32.2836277,37.9726864 C32.8503505,38.5382768 33.7701538,38.5382768 34.3368766,37.9726864 L38.0495223,34.2674584 C38.6162451,33.7018679 38.6162451,32.7839024 38.0495223,32.2183119 L36.4366048,30.608617 C37.4575212,28.9728806 38.2191314,27.1597359 38.6700633,25.2269627 L40.9508167,25.2269627 C41.7523829,25.2277765 42.4022794,24.5791785 42.4022794,23.7784 L42.4022794,18.5383467 C42.4022794,17.738382 41.7523829,17.0897841 40.9500013,17.0897841 Z M21.2011397,28.4829734 C17.1476449,28.4829734 13.8622836,25.2033625 13.8622836,21.1587803 C13.8622836,17.1133842 17.1476449,13.8345871 21.2011397,13.8345871 C25.2546345,13.8345871 28.5399957,17.1133842 28.5399957,21.1587803 C28.5399957,25.2033625 25.2546345,28.4829734 21.2011397,28.4829734 Z" id="Shape" fill="#31475B" opacity="0.25"></path>
                    <path d="M21.2011397,10.5793901 C15.3463634,10.5793901 10.6005698,15.3157017 10.6005698,21.1587803 C10.6005698,27.0018588 15.3463634,31.7381704 21.2011397,31.7381704 C27.0559159,31.7381704 31.8017095,27.0018588 31.8017095,21.1587803 C31.8017095,15.3157017 27.0559159,10.5793901 21.2011397,10.5793901 Z M21.2011397,28.4829734 C17.1476449,28.4829734 13.8622836,25.2033625 13.8622836,21.1587803 C13.8622836,17.1133842 17.1476449,13.8345871 21.2011397,13.8345871 C25.2546345,13.8345871 28.5399957,17.1133842 28.5399957,21.1587803 C28.5399957,25.2033625 25.2546345,28.4829734 21.2011397,28.4829734 Z" id="Shape" fill="#E5E5E5"></path>
                </g>
                <g id="settings-(9)" transform="translate(155.000000, 67.000000) rotate(17.000000) translate(-155.000000, -67.000000) translate(142.000000, 54.000000)" fill-rule="nonzero">
                    <path d="M25.0680817,10.461736 L23.6718885,10.461736 C23.3963438,9.27856348 22.9301141,8.16912128 22.3046475,7.16728552 L23.2920162,6.18188962 C23.638943,5.83565598 23.638943,5.2737113 23.2920162,4.92747766 L21.0192713,2.65927366 C20.6723445,2.31304001 20.1092748,2.31304001 19.762348,2.65927366 L18.7749794,3.64466955 C17.7716371,3.02095081 16.6599738,2.55565265 15.4744326,2.28065845 L15.4744326,0.887254849 C15.4744326,0.39704779 15.07659,0 14.5854015,0 L11.3712121,0 C10.8805228,0 10.4826802,0.39704779 10.4826802,0.887254849 L10.4826802,2.28065845 C9.29713896,2.55565265 8.18547569,3.02095081 7.18163427,3.64516773 L6.19476481,2.65977183 C5.84783801,2.31353819 5.28476833,2.31353819 4.93784154,2.65977183 L2.66509664,4.92797583 C2.31816984,5.27420948 2.31816984,5.83615416 2.66509664,6.1823878 L3.65246528,7.16778369 C3.02699869,8.16912128 2.56076901,9.27856348 2.28522428,10.461736 L0.889031114,10.461736 C0.397842671,10.461736 0,10.8587838 0,11.3489909 L0,14.5567584 C0,15.0464673 0.397842671,15.4435151 0.889031114,15.4435151 L2.28522428,15.4435151 C2.56076901,16.6266876 3.02699869,17.7361298 3.65246528,18.7379655 L2.66509664,19.7228633 C2.31816984,20.0695951 2.31816984,20.6310416 2.66509664,20.9772752 L4.93784154,23.2454792 C5.28476833,23.5917129 5.84783801,23.5917129 6.19476481,23.2454792 L7.18213344,22.2600833 C8.18597486,22.8838021 9.29763814,23.3495984 10.4831793,23.6245926 L10.4831793,25.0179962 C10.4826802,25.5082033 10.8805228,25.9052511 11.3717113,25.9052511 L14.5859007,25.9052511 C15.07659,25.9052511 15.4744326,25.5082033 15.4744326,25.0179962 L15.4744326,23.6245926 C16.6599738,23.3495984 17.7716371,22.8843002 18.7754785,22.2600833 L19.7628472,23.2454792 C20.109774,23.5917129 20.6728436,23.5917129 21.0197704,23.2454792 L23.2925153,20.9772752 C23.6394421,20.6310416 23.6394421,20.0690969 23.2925153,19.7228633 L22.3051467,18.7374674 C22.9301141,17.7361298 23.3963438,16.6261894 23.6723877,15.4430169 L25.0685809,15.4430169 C25.5592701,15.4435151 25.9571128,15.0464673 25.9571128,14.5562602 L25.9571128,11.3484927 C25.9571128,10.8587838 25.5592701,10.461736 25.0680817,10.461736 Z M12.9785564,17.4362267 C10.4971563,17.4362267 8.48597919,15.4285697 8.48597919,12.9526255 C8.48597919,10.4761832 10.4971563,8.46902438 12.9785564,8.46902438 C15.4599566,8.46902438 17.4711336,10.4761832 17.4711336,12.9526255 C17.4711336,15.4285697 15.4599566,17.4362267 12.9785564,17.4362267 Z" id="Shape" fill="#31475B" opacity="0.25"></path>
                    <path d="M12.9785564,6.47631276 C9.39447813,6.47631276 6.4892782,9.37570817 6.4892782,12.9526255 C6.4892782,16.5295429 9.39447813,19.4289383 12.9785564,19.4289383 C16.5626347,19.4289383 19.4678346,16.5295429 19.4678346,12.9526255 C19.4678346,9.37570817 16.5626347,6.47631276 12.9785564,6.47631276 Z M12.9785564,17.4362267 C10.4971563,17.4362267 8.48597919,15.4285697 8.48597919,12.9526255 C8.48597919,10.4761832 10.4971563,8.46902438 12.9785564,8.46902438 C15.4599566,8.46902438 17.4711336,10.4761832 17.4711336,12.9526255 C17.4711336,15.4285697 15.4599566,17.4362267 12.9785564,17.4362267 Z" id="Shape" fill="#E5E5E5"></path>
                </g>
            </g>
        </g>
    </g>
</svg>