<?xml version="1.0" encoding="UTF-8" standalone="no"?>
<svg width="37px" height="36px" viewBox="0 0 37 36" version="1.1" xmlns="http://www.w3.org/2000/svg" xmlns:xlink="http://www.w3.org/1999/xlink">
    <!-- Generator: Sketch 46.1 (44463) - http://www.bohemiancoding.com/sketch -->
    <title>linkedin-logo</title>
    <desc>Created with Sketch.</desc>
    <defs></defs>
    <g id="Page-1" stroke="none" stroke-width="1" fill="none" fill-rule="evenodd">
        <g id="Desktop-HD" transform="translate(-496.000000, -1069.000000)" fill-rule="nonzero" fill="#FFFFFF">
            <g id="Group-42" transform="translate(0.000000, 580.000000)">
                <g id="Group-40" transform="translate(0.000000, 427.000000)">
                    <g id="Group-47" transform="translate(300.000000, 61.000000)">
                        <g id="Group-41" transform="translate(95.000000, 0.000000)">
                            <g id="linkedin-logo" transform="translate(101.631634, 0.808511)">
                                <g id="linkedin-(2)">
                                    <path d="M17.8597138,36.0374756 C7.99606624,36.0374756 0,28.0414093 0,18.1777618 C0,8.31411419 7.99606624,0.318047954 17.8597138,0.318047954 C27.7233614,0.318047954 35.7194276,8.31411419 35.7194276,18.1777618 C35.7194276,28.0414093 27.7233614,36.0374756 17.8597138,36.0374756 Z M28.5307161,19.6148673 C28.5307161,15.6719005 26.4250413,13.836837 23.6164136,13.836837 C21.3480536,13.836837 20.3362854,15.084833 19.7689566,15.9577934 L19.7689566,15.9998178 L19.740622,15.9998178 C19.7482628,15.986128 19.7603607,15.9721199 19.7689566,15.9577934 L19.7689566,14.1383299 L15.4993459,14.1383299 C15.5566519,15.3427097 15.4993459,26.9777252 15.4993459,26.9777252 L19.7686383,26.9777252 L19.7686383,19.8068422 C19.7686383,19.4219373 19.7976096,19.0408529 19.9099929,18.7664211 C20.219445,17.9985215 20.9201692,17.205471 22.0997165,17.205471 C23.6453849,17.205471 24.2617421,18.3834264 24.2617421,20.1083351 L24.2617421,26.9780436 L28.5307161,26.9780436 L28.5307161,19.6148673 Z M11.0333032,7.94928864 C9.57295687,7.94928864 8.61753955,8.90788963 8.61753955,10.1673468 C8.61753955,11.4000612 9.545259,12.38636 10.9772707,12.38636 L11.0049686,12.38636 C12.4939679,12.38636 13.4197771,11.4000612 13.4197771,10.1673468 C13.3914425,8.90788963 12.4939679,7.94928864 11.0333032,7.94928864 Z M8.8712775,26.9780436 L13.138978,26.9780436 L13.138978,14.1383299 L8.8712775,14.1383299 L8.8712775,26.9780436 Z" id="Combined-Shape"></path>
                                </g>
                            </g>
                        </g>
                    </g>
                </g>
            </g>
        </g>
    </g>
</svg>