<?xml version="1.0" encoding="UTF-8" standalone="no"?>
<svg width="106px" height="190px" viewBox="0 0 106 190" version="1.1" xmlns="http://www.w3.org/2000/svg" xmlns:xlink="http://www.w3.org/1999/xlink">
    <!-- Generator: Sketch 46.1 (44463) - http://www.bohemiancoding.com/sketch -->
    <title>smartphone (6)</title>
    <desc>Created with Sketch.</desc>
    <defs></defs>
    <g id="Page-1" stroke="none" stroke-width="1" fill="none" fill-rule="evenodd">
        <g id="Desktop-HD" transform="translate(-1032.000000, -4198.000000)">
            <g id="Group-17" transform="translate(0.000000, 3737.000000)">
                <g id="Group-6">
                    <g id="Group-9">
                        <g id="Group-25">
                            <g id="Group-21" transform="translate(298.000000, 461.000000)">
                                <g id="Group-22">
                                    <g id="smartphone-(6)" transform="translate(708.000000, 0.000000)">
                                        <path d="M120.3696,189.996728 L37.6323459,189.996728 C31.4541493,189.996728 26.448529,185.00647 26.448529,178.854547 L26.448529,11.3455153 C26.448529,5.19031919 31.4574338,0.203334158 37.6323459,0.203334158 L120.366315,0.203334158 C126.544512,0.203334158 131.550132,5.19359149 131.550132,11.3455153 L131.550132,178.851274 C131.553417,185.00647 126.544512,189.996728 120.3696,189.996728 Z" id="Shape" fill="#424A60" fill-rule="nonzero"></path>
                                        <g id="cogwheel" transform="translate(0.216495, 99.318182)"></g>
                                        <ellipse id="Oval" fill="#EEF2F3" fill-rule="nonzero" cx="79.0009727" cy="173.635228" rx="9.8535832" ry="9.81689967"></ellipse>
                                        <path d="M79.0009727,13.2925337 L65.8628618,13.2925337 C64.046518,13.2925337 62.5783341,11.8298157 62.5783341,10.0202338 C62.5783341,8.21065199 64.046518,6.74793394 65.8628618,6.74793394 L79.0009727,6.74793394 C80.8173166,6.74793394 82.2855005,8.21065199 82.2855005,10.0202338 C82.2855005,11.8298157 80.8173166,13.2925337 79.0009727,13.2925337 Z" id="Shape" fill="#E7ECED" fill-rule="nonzero"></path>
                                        <path d="M92.1390837,13.2925337 L88.8545559,13.2925337 C87.0382121,13.2925337 85.5700282,11.8298157 85.5700282,10.0202338 C85.5700282,8.21065199 87.0382121,6.74793394 88.8545559,6.74793394 L92.1390837,6.74793394 C93.9554275,6.74793394 95.4236114,8.21065199 95.4236114,10.0202338 C95.4236114,11.8298157 93.9554275,13.2925337 92.1390837,13.2925337 Z" id="Shape" fill="#E7ECED" fill-rule="nonzero"></path>
                                        <rect id="Rectangle-8" fill="#EEF2F3" x="26.1958763" y="20.1515152" width="105.360825" height="136.742424"></rect>
                                        <path d="M45.8949753,128.769783 C43.7449737,128.769783 41.9582278,128.534256 41.9582278,126.389821 C41.9582278,124.245385 43.7449737,124 45.8949753,124 L57.5794601,124 C59.7294618,124 61.4326632,124.245385 61.4326632,126.389821 C61.432222,128.534256 59.7294618,128.769783 57.5794601,128.769783 L45.8949753,128.769783 Z" id="Shape" fill="#31475B" fill-rule="nonzero"></path>
                                        <path d="M72.8949753,128.769783 C70.7449737,128.769783 68.9582278,128.534256 68.9582278,126.389821 C68.9582278,124.245385 70.7449737,124 72.8949753,124 L111.842964,124 C113.992966,124 115.696167,124.245385 115.696167,126.389821 C115.695726,128.534256 113.992966,128.769783 111.842964,128.769783 L72.8949753,128.769783 Z" id="Shape" fill="#31475B" fill-rule="nonzero"></path>
                                        <path d="M45.8949753,140.769783 C43.7449737,140.769783 41.842041,140.524398 41.842041,138.379963 C41.842041,136.235527 43.7449737,136 45.8949753,136 L65.3689696,136 C67.5189713,136 69.105986,136.235527 69.105986,138.379963 C69.105986,140.524398 67.5189713,140.769783 65.3689696,140.769783 L45.8949753,140.769783 Z" id="Shape" fill="#31475B" fill-rule="nonzero"></path>
                                        <path d="M80.8949753,140.769783 C78.7449737,140.769783 76.842041,140.524398 76.842041,138.379963 C76.842041,136.235527 78.7449737,136 80.8949753,136 L92.5794601,136 C94.7294618,136 96.3164765,136.235527 96.3164765,138.379963 C96.3164765,140.524398 94.7294618,140.769783 92.5794601,140.769783 L80.8949753,140.769783 Z" id="Shape" fill="#31475B" fill-rule="nonzero"></path>
                                        <path d="M107.894975,140.769783 C105.744974,140.769783 103.842041,140.524398 103.842041,138.379963 C103.842041,136.235527 105.744974,136 107.894975,136 L111.789951,136 C113.939952,136 115.526967,136.235527 115.526967,138.379963 C115.526967,140.524398 113.939952,140.769783 111.789951,140.769783 L107.894975,140.769783 Z" id="Shape" fill="#31475B" fill-rule="nonzero"></path>
                                        <g id="graph-(9)" transform="translate(39.000000, 33.000000)" fill-rule="nonzero">
                                            <g id="Group" transform="translate(17.271069, 39.856312)" fill="#424A60">
                                                <path d="M7.04925307,4.35762346 L0.389263315,11.0176132 C-0.130197286,11.5370738 -0.130197286,12.3767135 0.389263315,12.8961741 C0.648329344,13.1552401 0.988436541,13.2854374 1.32854374,13.2854374 C1.66865094,13.2854374 2.00875813,13.1552401 2.26782416,12.8961741 L8.92781392,6.23618431 C9.44727452,5.71672371 9.44727452,4.87708406 8.92781392,4.35762346 C8.40835332,3.83816286 7.56738513,3.8394914 7.04925307,4.35762346 Z" id="Shape"></path>
                                                <path d="M19.5216217,4.35762346 C19.0021611,3.83816286 18.1625214,3.83816286 17.6430608,4.35762346 C17.1236002,4.87708406 17.1236002,5.71672371 17.6430608,6.23618431 L25.6475369,14.2406603 C25.9066029,14.4997264 26.2467101,14.6299236 26.5868173,14.6299236 C26.9269245,14.6299236 27.2670317,14.4997264 27.5260977,14.2406603 C28.0455583,13.7211997 28.0455583,12.8815601 27.5260977,12.3620995 L19.5216217,4.35762346 Z" id="Shape"></path>
                                                <path d="M50.0953987,0.389263315 C49.5759381,-0.130197286 48.7362985,-0.130197286 48.2168379,0.389263315 L34.9314005,13.6747007 C34.4119399,14.1941613 34.4119399,15.0338009 34.9314005,15.5532615 C35.1904665,15.8123276 35.5305737,15.9425249 35.8706809,15.9425249 C36.2107881,15.9425249 36.5508953,15.8123276 36.8099614,15.5532615 L50.0953987,2.26782416 C50.6148593,1.74836356 50.6148593,0.908723917 50.0953987,0.389263315 Z" id="Shape"></path>
                                            </g>
                                            <path d="M3.98563121,79.7126243 C3.25094653,79.7126243 2.65708748,79.1187652 2.65708748,78.3840806 L2.65708748,1.32854374 C2.65708748,0.593859051 3.25094653,0 3.98563121,0 C4.7203159,0 5.31417495,0.593859051 5.31417495,1.32854374 L5.31417495,78.3840806 C5.31417495,79.1187652 4.7203159,79.7126243 3.98563121,79.7126243 Z" id="Shape" fill="#556080"></path>
                                            <path d="M78.3840806,77.0555368 L1.32854374,77.0555368 C0.593859051,77.0555368 0,76.4616778 0,75.7269931 C0,74.9923084 0.593859051,74.3984493 1.32854374,74.3984493 L78.3840806,74.3984493 C79.1187652,74.3984493 79.7126243,74.9923084 79.7126243,75.7269931 C79.7126243,76.4616778 79.1187652,77.0555368 78.3840806,77.0555368 Z" id="Shape" fill="#556080"></path>
                                            <path d="M11.9568936,38.5277684 L9.29980617,38.5277684 C8.56512148,38.5277684 7.97126243,37.9339094 7.97126243,37.1992247 C7.97126243,36.46454 8.56512148,35.8706809 9.29980617,35.8706809 L11.9568936,35.8706809 C12.6915783,35.8706809 13.2854374,36.46454 13.2854374,37.1992247 C13.2854374,37.9339094 12.6915783,38.5277684 11.9568936,38.5277684 Z" id="Shape" fill="#BDC3C7"></path>
                                            <path d="M11.9568936,33.2135935 L9.29980617,33.2135935 C8.56512148,33.2135935 7.97126243,32.6197344 7.97126243,31.8850497 C7.97126243,31.150365 8.56512148,30.556506 9.29980617,30.556506 L11.9568936,30.556506 C12.6915783,30.556506 13.2854374,31.150365 13.2854374,31.8850497 C13.2854374,32.6197344 12.6915783,33.2135935 11.9568936,33.2135935 Z" id="Shape" fill="#BDC3C7"></path>
                                            <path d="M11.9568936,27.8994185 L9.29980617,27.8994185 C8.56512148,27.8994185 7.97126243,27.3055595 7.97126243,26.5708748 C7.97126243,25.8361901 8.56512148,25.242331 9.29980617,25.242331 L11.9568936,25.242331 C12.6915783,25.242331 13.2854374,25.8361901 13.2854374,26.5708748 C13.2854374,27.3055595 12.6915783,27.8994185 11.9568936,27.8994185 Z" id="Shape" fill="#BDC3C7"></path>
                                            <path d="M11.9568936,22.5852435 L9.29980617,22.5852435 C8.56512148,22.5852435 7.97126243,21.9913845 7.97126243,21.2566998 C7.97126243,20.5220151 8.56512148,19.9281561 9.29980617,19.9281561 L11.9568936,19.9281561 C12.6915783,19.9281561 13.2854374,20.5220151 13.2854374,21.2566998 C13.2854374,21.9913845 12.6915783,22.5852435 11.9568936,22.5852435 Z" id="Shape" fill="#BDC3C7"></path>
                                            <path d="M11.9568936,17.2710686 L9.29980617,17.2710686 C8.56512148,17.2710686 7.97126243,16.6772095 7.97126243,15.9425249 C7.97126243,15.2078402 8.56512148,14.6139811 9.29980617,14.6139811 L11.9568936,14.6139811 C12.6915783,14.6139811 13.2854374,15.2078402 13.2854374,15.9425249 C13.2854374,16.6772095 12.6915783,17.2710686 11.9568936,17.2710686 Z" id="Shape" fill="#BDC3C7"></path>
                                            <path d="M11.9568936,11.9568936 L9.29980617,11.9568936 C8.56512148,11.9568936 7.97126243,11.3630346 7.97126243,10.6283499 C7.97126243,9.89366522 8.56512148,9.29980617 9.29980617,9.29980617 L11.9568936,9.29980617 C12.6915783,9.29980617 13.2854374,9.89366522 13.2854374,10.6283499 C13.2854374,11.3630346 12.6915783,11.9568936 11.9568936,11.9568936 Z" id="Shape" fill="#BDC3C7"></path>
                                            <path d="M11.9568936,6.64271869 L9.29980617,6.64271869 C8.56512148,6.64271869 7.97126243,6.04885964 7.97126243,5.31417495 C7.97126243,4.57949027 8.56512148,3.98563121 9.29980617,3.98563121 L11.9568936,3.98563121 C12.6915783,3.98563121 13.2854374,4.57949027 13.2854374,5.31417495 C13.2854374,6.04885964 12.6915783,6.64271869 11.9568936,6.64271869 Z" id="Shape" fill="#BDC3C7"></path>
                                            <circle id="Oval" fill="#F9A53D" cx="14.6299236" cy="57.1114382" r="6.64271869"></circle>
                                            <circle id="Oval" fill="#F05244" cx="30.556506" cy="41.1848559" r="6.64271869"></circle>
                                            <circle id="Oval" fill="#F05244" cx="71.7413619" cy="37.1992247" r="6.64271869"></circle>
                                            <circle id="Oval" fill="#F9A53D" cx="47.8275746" cy="58.4559245" r="6.64271869"></circle>
                                        </g>
                                    </g>
                                </g>
                            </g>
                        </g>
                    </g>
                </g>
            </g>
        </g>
    </g>
</svg>