<?xml version="1.0" encoding="UTF-8" standalone="no"?>
<svg width="289px" height="223px" viewBox="0 0 289 223" version="1.1" xmlns="http://www.w3.org/2000/svg" xmlns:xlink="http://www.w3.org/1999/xlink">
    <!-- Generator: Sketch 46.2 (44496) - http://www.bohemiancoding.com/sketch -->
    <title>Artboard 3</title>
    <desc>Created with Sketch.</desc>
    <defs></defs>
    <g id="Page-1" stroke="none" stroke-width="1" fill="none" fill-rule="evenodd">
        <g id="Artboard-3" fill-rule="nonzero">
            <g id="Group-6" transform="translate(0.000000, 9.000000)">
                <g id="Group" transform="translate(56.000000, 62.000000)">
                    <g id="analytics-(9)">
                        <path d="M76.690066,124.652576 L76.690066,131.964008 L135.120533,131.964008 L135.120533,124.652576 L197.2035,124.652576 L197.2035,7.66841112 C197.2035,3.62900506 193.934908,0.356978473 189.899743,0.356978473 L21.9116838,0.356978473 C17.8765185,0.356978473 14.6079271,3.62900506 14.6079271,7.66841112 L14.6079271,124.652576 L76.690066,124.652576 Z" id="Shape" fill="#31475B"></path>
                        <path d="M135.120947,124.652576 L135.120947,131.964008 L76.690066,131.964008 L76.690066,124.652576 L0,124.652576 L0,135.619932 C0,139.659338 3.26859143,142.931364 7.30375671,142.931364 L204.507256,142.931364 C208.542422,142.931364 211.811013,139.659338 211.811013,135.619932 L211.811013,124.652576 L135.120947,124.652576 Z" id="Shape" fill="#DDDDDD"></path>
                        <polygon id="Shape" fill="#EEF2F3" points="21.9116838 117.341143 189.899329 117.341143 189.899329 7.66841112 21.9116838 7.66841112"></polygon>
                        <g id="cloud-computing-(11)" opacity="0.25" transform="translate(74.099822, 46.849086)">
                            <g id="Group" transform="translate(-0.000000, 0.000000)">
                                <g transform="translate(50.962720, 12.964979)" id="Shape">
                                    <path d="M8.1622834,2.04169455 C8.1622834,2.04169455 4.71544208,1.53127092 1.35970072,2.04169455" fill="#91BAE1"></path>
                                    <path d="M1.35834102,3.40282426 C0.697526467,3.40282426 0.118293962,2.92098434 0.0163164086,2.24586401 C-0.0965387508,1.50268719 0.413349018,0.808511044 1.15574561,0.695537278 C4.67329136,0.159252175 8.21259232,0.671036944 8.3621594,0.694176149 C9.10455599,0.804427655 9.61716316,1.49588154 9.50702741,2.23905836 C9.39825135,2.98359631 8.69800548,3.48993656 7.96512679,3.38785183 C7.93249398,3.38376844 4.66785256,2.91826208 1.56365582,3.3864907 C1.49431109,3.39737974 1.42632605,3.40282426 1.35834102,3.40282426 Z" fill="#E5E6E7"></path>
                                </g>
                                <g transform="translate(0.653794, 0.016519)" id="Shape">
                                    <path d="M1.35970072,12.2678955 C1.35970072,6.25442445 6.23014868,1.37885785 12.2373064,1.37885785 C18.2444642,1.37885785 23.1149122,6.25442445 23.1149122,12.2678955" fill="#EDEEEF"></path>
                                    <path d="M23.1149122,13.6290252 C22.3643574,13.6290252 21.7552115,13.0206002 21.7552115,12.2678955 C21.7552115,7.01529595 17.4857512,2.73998755 12.2373064,2.73998755 C6.98886168,2.73998755 2.71940143,7.01529595 2.71940143,12.2678955 C2.71940143,13.0206002 2.11025551,13.6290252 1.35970072,13.6290252 C0.609145921,13.6290252 0,13.0206002 0,12.2678955 C0,5.51260876 5.49047149,0.0177281487 12.2373064,0.0177281487 C18.9841414,0.0177281487 24.4746129,5.51260876 24.4746129,12.2678955 C24.4746129,13.0206002 23.865467,13.6290252 23.1149122,13.6290252 Z" fill="#E5E6E7"></path>
                                </g>
                            </g>
                        </g>
                        <g id="Group" transform="translate(65.235710, 38.698827)">
                            <path d="M67.9891149,23.1569331 C67.8327493,11.3164658 58.2087876,1.37885785 46.3440392,1.37885785 C38.7854629,1.37885785 31.6878252,5.46905261 27.7691677,11.3641054 C26.0477866,10.216673 23.9796818,9.54563607 21.7552115,9.54563607 C15.7480537,9.54563607 10.8776057,14.4212027 10.8776057,20.4346737 C10.8776057,20.6429265 10.8966415,20.8457349 10.9088788,21.0526266 C10.8952818,21.3003522 10.8776057,21.5508001 10.8776057,21.7958034 C5.45511927,24.3982834 1.35970072,30.5846179 1.35970072,36.9792052 C1.35970072,45.8469653 8.60690553,53.1017866 17.4653557,53.1017866 L50.7875411,53.1017866 C50.9751798,53.1017866 51.1573797,53.0800085 51.342299,53.0732028 C51.528578,53.0800085 51.7107779,53.1017866 51.8970569,53.1017866 L65.226203,53.1017866 C73.4741476,53.1017866 80.2223422,46.3464999 80.2223422,38.0912482 C80.2223422,30.7806206 74.9276676,24.4649787 67.9891149,23.1569331 Z" id="Shape" fill="#F9F8F8"></path>
                            <path d="M65.2275627,54.4629163 L51.8984166,54.4629163 C51.7570077,54.4629163 51.6155989,54.4547495 51.4755497,54.4438605 L51.2947095,54.4329714 L51.2090484,54.4438605 C51.0689992,54.4547495 50.92895,54.4629163 50.7861814,54.4629163 L17.4653557,54.4629163 C7.83459552,54.4629163 -1.8189894e-12,46.6187258 -1.8189894e-12,36.9778441 C-1.8189894e-12,30.5056724 3.88466495,24.0389451 9.53966022,20.9532641 C9.52878262,20.7817618 9.51790501,20.6102594 9.51790501,20.4346737 C9.51790501,13.679387 15.0083765,8.18450637 21.7552115,8.18450637 C23.7281372,8.18450637 25.6493943,8.65545724 27.381653,9.55652511 C31.8115579,3.64241655 38.962224,0.0177281487 46.3440392,0.0177281487 C58.5052024,0.0177281487 68.592822,9.80969523 69.310744,22.0598626 C76.3784683,23.9191657 81.582043,30.6200073 81.582043,38.0912482 C81.582043,47.1182604 74.2450979,54.4629163 65.2275627,54.4629163 Z M51.2947095,51.7134343 L51.6618287,51.7284067 C51.7406913,51.7338512 51.819554,51.7406569 51.8984166,51.7406569 L65.2275627,51.7406569 C72.745348,51.7406569 78.8626415,45.6169343 78.8626415,38.0912482 C78.8626415,31.5360476 74.0792144,25.6913566 67.7375703,24.4949236 L66.6443709,24.289393 L66.6294142,23.17735 C66.4825665,11.9071961 57.3820896,2.73998755 46.3440392,2.73998755 C39.5360177,2.73998755 32.6899246,6.42048227 28.9017984,12.1181712 L28.1485242,13.2519923 L27.0158935,12.4979264 C25.4549571,11.4566622 23.6343178,10.9067658 21.7552115,10.9067658 C16.5067667,10.9067658 12.2373064,15.1820742 12.2373064,20.4346737 C12.2373064,20.5490086 12.2454646,20.6619824 12.2536229,20.7749561 L12.2699393,21.0499043 L12.257702,21.2853798 C12.248184,21.4568821 12.2373064,21.6283844 12.2373064,21.7958034 L12.2373064,22.6533151 L11.4649964,23.0221813 C6.39739187,25.45452 2.71940143,31.3237113 2.71940143,36.9778441 C2.71940143,45.1187609 9.33434541,51.7406569 17.4653557,51.7406569 L50.7875411,51.7406569 C50.8677635,51.7406569 50.9452664,51.7338512 51.0241291,51.7284067 L51.2947095,51.7134343 Z" id="Shape" fill="#F9A53D"></path>
                        </g>
                    </g>
                </g>
                <g id="chatting-(2)" transform="translate(216.000000, 6.000000)" fill="#F9A53D">
                    <path d="M72.7505322,28.789576 C72.7505322,12.889757 56.4873344,0 36.4274173,0 C16.3662195,0 0.104586939,12.889757 0.104586939,28.789576 C0.104586939,42.9944955 13.0844663,54.7954552 30.1568967,57.1502792 L30.1051013,57.1502792 C31.0009915,62.6421228 29.348091,68.4737985 25.1438384,72.7094141 C34.1646397,72.7094141 41.6115143,65.928822 42.7423339,57.1511312 L42.6906808,57.1511312 C59.7658147,54.7985795 72.7505322,42.9963416 72.7505322,28.789576 Z" id="Shape"></path>
                </g>
                <g id="chatting-(2)" transform="translate(50.000000, 135.000000) scale(-1, 1) rotate(20.000000) translate(-50.000000, -135.000000) translate(12.000000, 95.000000)" fill="#F9A53D">
                    <path d="M75.6013542,31.642944 C75.6013542,14.1672756 58.7008623,0 37.8548719,0 C17.0075506,0 0.108685311,14.1672756 0.108685311,31.642944 C0.108685311,47.2557294 13.5971978,60.2262959 31.338633,62.8145091 L31.2848079,62.8145091 C32.2158048,68.8506557 30.4981332,75.2603154 26.1291316,79.9157278 C35.5034245,79.9157278 43.2421144,72.4631034 44.4172466,62.8154456 L44.3635693,62.8154456 C62.1078141,60.2297297 75.6013542,47.2577585 75.6013542,31.642944 Z" id="Shape"></path>
                </g>
                <g id="chatting-(2)" transform="translate(60.500000, 32.500000) scale(-1, 1) translate(-60.500000, -32.500000) translate(28.000000, 0.000000)" fill="#F9A53D">
                    <path d="M64.3183111,25.4526922 C64.3183111,11.3957572 49.9401151,0 32.2052621,0 C14.4692769,0 0.092464688,11.3957572 0.092464688,25.4526922 C0.092464688,38.0111767 11.5678986,48.4443348 26.6615323,50.5262206 L26.6157403,50.5262206 C27.4077915,55.3815268 25.9464721,60.5372764 22.2295174,64.2819589 C30.204754,64.2819589 36.7884914,58.2872779 37.7882422,50.5269739 L37.742576,50.5269739 C52.8386,48.4470969 64.3183111,38.0128089 64.3183111,25.4526922 Z" id="Shape"></path>
                </g>
                <g id="like-(3)" transform="translate(239.000000, 16.000000)">
                    <rect id="Rectangle-path" fill="#31475B" x="0.295459204" y="11.6227485" width="8.27285771" height="20.9209472"></rect>
                    <ellipse id="Oval" fill="#F05244" cx="4.43188806" cy="27.3134589" rx="2.36367363" ry="2.32454969"></ellipse>
                    <path d="M31.0232164,15.109573 C31.0232164,13.8258404 29.9648815,12.7850233 28.6595428,12.7850233 L23.3412771,12.7850233 L21.5685219,12.7850233 L19.4400338,12.7850233 L20.0238612,10.1007495 C20.4694136,8.05282127 20.3500481,5.55683604 20.0853167,3.80354443 C19.8205852,2.05025283 18.2239237,0 16.5533974,0 L16.4121679,0 C14.9880545,0 14.477501,1.54524441 14.477501,3.48682454 C14.477501,12.9303077 9.75015373,12.7850233 9.75015373,12.7850233 L8.56831691,12.7850233 L8.56831691,31.3814208 L17.432093,31.3814208 L23.3412771,31.3814208 L25.7049507,31.3814208 C27.0102895,31.3814208 28.0686244,30.3406037 28.0686244,29.0568712 C28.0686244,27.7731386 27.0102895,26.7323215 25.7049507,26.7323215 L27.477706,26.7323215 C28.7830447,26.7323215 29.8413796,25.6915043 29.8413796,24.4077718 C29.8413796,23.1240392 28.7830447,22.0832221 27.477706,22.0832221 L29.2504612,22.0832221 C30.5557999,22.0832221 31.6141348,21.042405 31.6141348,19.7586724 C31.6141348,18.3098968 30.6609834,17.7583974 29.2504612,17.5526747 C28.5632231,17.452138 27.3146125,17.4341227 26.8867876,17.4341227 L28.6595428,17.4341227 C29.9648815,17.4341227 31.0232164,16.3933056 31.0232164,15.109573 Z" id="Shape" fill="#FFFFFF"></path>
                    <path d="M30.207749,16.8529853 L22.7503587,16.8529853 C22.4241717,16.8529853 22.1594403,17.1127537 22.1594403,17.4341227 C22.1594403,17.7554917 22.4241717,18.0152601 22.7503587,18.0152601 L30.7017568,18.0152601 C30.3135234,17.7810617 29.8224702,17.6357774 29.2504612,17.5526747 C28.5632231,17.452138 27.3146125,17.4341227 26.8867876,17.4341227 L28.6595428,17.4341227 C29.2551885,17.4341227 29.7923334,17.2103848 30.207749,16.8529853 Z" id="Shape" fill="#E0E0E0"></path>
                    <path d="M30.7986674,21.5020847 L22.7503587,21.5020847 C22.4241717,21.5020847 22.1594403,21.7618531 22.1594403,22.0832221 C22.1594403,22.4045911 22.4241717,22.6643595 22.7503587,22.6643595 L29.0265031,22.6643595 C28.6110875,22.30696 28.0733517,22.0832221 27.477706,22.0832221 L29.2504612,22.0832221 C29.8461069,22.0832221 30.3832518,21.8594842 30.7986674,21.5020847 Z" id="Shape" fill="#E0E0E0"></path>
                    <path d="M29.0259122,26.151184 L21.5685219,26.151184 C21.2423349,26.151184 20.9776035,26.4109525 20.9776035,26.7323215 C20.9776035,27.0536905 21.2423349,27.3134589 21.5685219,27.3134589 L27.2537479,27.3134589 C26.8383322,26.9560594 26.3005965,26.7323215 25.7049507,26.7323215 L27.477706,26.7323215 C28.0733517,26.7323215 28.6104965,26.5085836 29.0259122,26.151184 Z" id="Shape" fill="#E0E0E0"></path>
                </g>
                <g id="mail-(2)" transform="translate(143.000000, 120.000000)">
                    <g id="Group">
                        <polygon id="Shape" fill="#C7C1B7" points="0 0.35402747 0 27.9681701 19.9703357 27.9681701 39.9406713 27.9681701 39.9406713 0.35402747"></polygon>
                        <path d="M22.0850516,16.006998 C20.9175001,17.0421744 19.0238844,17.0421744 17.8556198,16.006998 L16.3671165,14.7020528 C11.7104622,18.8278889 0,27.9681701 0,27.9681701 L15.4106801,27.9681701 L24.5307044,27.9681701 L39.9406713,27.9681701 C39.9406713,27.9681701 28.2302091,18.8278889 23.5735548,14.7020528 L22.0850516,16.006998 Z" id="Shape" fill="#DCD6CD"></path>
                        <path d="M0,0.35402747 L17.8556198,16.006998 C19.0231712,17.0421744 20.9167869,17.0421744 22.0850516,16.006998 L39.9406713,0.35402747 L0,0.35402747 Z" id="Shape" fill="#DCD6CD"></path>
                    </g>
                </g>
                <g id="graph-(6)" transform="translate(42.000000, 7.000000)">
                    <rect id="Rectangle-path" fill="#83909C" x="1.86683117" y="25.1377844" width="6.22277055" height="8.6896045"></rect>
                    <rect id="Rectangle-path" fill="#5D7081" x="11.200987" y="19.5516101" width="6.22277055" height="14.2757788"></rect>
                    <rect id="Rectangle-path" fill="#475D70" x="20.5351428" y="14.5861218" width="6.22277055" height="19.2412671"></rect>
                    <rect id="Rectangle-path" fill="#31475B" x="29.8692986" y="9.62063355" width="6.22277055" height="24.2067554"></rect>
                    <path d="M36.7143463,34.448075 L0.622277055,34.448075 C0.278780121,34.448075 0,34.1706283 0,33.8273889 C0,33.4841496 0.278780121,33.2067029 0.622277055,33.2067029 L36.7143463,33.2067029 C37.0578432,33.2067029 37.3366233,33.4841496 37.3366233,33.8273889 C37.3366233,34.1706283 37.0578432,34.448075 36.7143463,34.448075 Z" id="Shape" fill="#556080"></path>
                    <path d="M4.99688475,16.0323203 C4.78157689,16.0323203 4.5724918,15.9212175 4.45737055,15.7219773 C4.28562208,15.4246687 4.38767552,15.0454295 4.68512395,14.8741202 L28.9358831,0.908684356 C29.2333315,0.736754324 29.6135428,0.83916752 29.7859135,1.13585545 C29.957662,1.43316406 29.8556085,1.81240322 29.5581601,1.98371257 L5.307401,15.9491484 C5.20970351,16.0056308 5.10204957,16.0323203 4.99688475,16.0323203 Z" id="Shape" fill="#FFFFFF"></path>
                    <path d="M29.2476439,2.0668845 C29.227731,2.0668845 29.2078181,2.06564313 29.1866607,2.06378107 L23.8587246,1.54861166 C23.5170945,1.5157153 23.2663168,1.21219983 23.2999198,0.870822508 C23.3329005,0.530065874 23.6340826,0.27868803 23.9794463,0.313446448 L29.3073825,0.828615858 C29.6490126,0.861512217 29.8997902,1.16502769 29.8661873,1.50640501 C29.8350734,1.826679 29.5643829,2.0668845 29.2476439,2.0668845 Z" id="Shape" fill="#FFFFFF"></path>
                    <path d="M27.0298484,6.92685616 C26.9433519,6.92685616 26.8562331,6.90947695 26.7722257,6.87099441 C26.4592204,6.72885731 26.3210749,6.36141118 26.4635763,6.0492061 L28.6801272,1.18923444 C28.8226286,0.877029368 29.1916389,0.737995696 29.504022,0.881374171 C29.8170274,1.02351127 29.9551729,1.39095741 29.8126714,1.70316248 L27.5961206,6.56313414 C27.4928226,6.7915466 27.2663137,6.92685616 27.0298484,6.92685616 Z" id="Shape" fill="#FFFFFF"></path>
                </g>
                <g id="phone-call" transform="translate(46.500000, 128.500000) scale(-1, 1) translate(-46.500000, -128.500000) translate(30.000000, 112.000000)">
                    <path d="M7.93739237,20.5627414 L11.1030178,23.722042 L23.769533,11.0808342 L20.6039076,7.92153363 L28.5413717,0 C28.5413717,0 32.3344745,3.48239053 32.5895507,6.24449859 C32.9309185,9.94161484 29.0095967,16.6633453 22.8531508,22.8075622 C16.6967049,28.9516361 9.96151773,32.8651232 6.25707161,32.524509 C3.48943387,32.2697994 0,28.4843466 0,28.4843466 L7.93739237,20.5627414 Z" id="Shape" fill="#EEF2F3"></path>
                    <path d="M3.01855704,14.4569348 L0.868434494,14.4569348 C0.868434494,6.96327898 6.97721932,0.866699381 14.4858773,0.866699381 L14.4858773,3.01252602 C8.16279689,3.01252602 3.01855704,8.14648779 3.01855704,14.4569348 Z" id="Shape" fill="#31475B"></path>
                    <path d="M8.03550963,14.4569348 L5.88538709,14.4569348 C5.88538709,9.72409954 9.74356698,5.87362821 14.4858773,5.87362821 L14.4858773,8.01945486 C10.9291445,8.01945486 8.03550963,10.9073084 8.03550963,14.4569348 Z" id="Shape" fill="#31475B"></path>
                </g>
            </g>
        </g>
    </g>
</svg>