<?xml version="1.0" encoding="UTF-8" standalone="no"?>
<svg width="289px" height="223px" viewBox="0 0 289 223" version="1.1" xmlns="http://www.w3.org/2000/svg" xmlns:xlink="http://www.w3.org/1999/xlink">
    <!-- Generator: Sketch 46.2 (44496) - http://www.bohemiancoding.com/sketch -->
    <title>Artboard 3</title>
    <desc>Created with Sketch.</desc>
    <defs>
        <linearGradient x1="66.0415338%" y1="9.6899634%" x2="50%" y2="62.438415%" id="linearGradient-1">
            <stop stop-color="#F8FAFC" offset="0%"></stop>
            <stop stop-color="#D3DCE4" offset="100%"></stop>
        </linearGradient>
    </defs>
    <g id="Page-1" stroke="none" stroke-width="1" fill="none" fill-rule="evenodd">
        <g id="Artboard-3">
            <g id="Group-3" transform="translate(30.000000, 0.000000)">
                <g id="search-engine-(2)" transform="translate(114.500000, 111.500000) scale(-1, 1) translate(-114.500000, -111.500000) ">
                    <path d="M154.47281,176.682638 L126.525114,176.682638 L173.104608,223 L219.684101,176.682638 L191.736405,176.682638 C191.736405,176.682638 181.78027,135.551077 229,107.455913 C229,107.455913 192.961205,100.451835 166.846068,131.83103 C166.843749,131.828711 153.549571,146.045597 154.47281,176.682638 Z" id="Shape" fill="url(#linearGradient-1)" fill-rule="nonzero" transform="translate(177.762557, 164.894366) scale(-1, 1) translate(-177.762557, -164.894366) "></path>
                    <ellipse id="Oval" fill-opacity="0.289999992" fill="#EBEBEB" cx="126.002283" cy="52.870892" rx="50.7146119" ry="50.7769953"></ellipse>
                    <path d="M194.285325,104.835771 L192.316766,104.835771 C191.928262,103.162164 191.270903,101.592849 190.389027,100.175743 L191.781166,98.7818928 C192.270314,98.2921425 192.270314,97.4972671 191.781166,97.0075167 L188.576714,93.7991233 C188.087565,93.309373 187.293667,93.309373 186.804518,93.7991233 L185.41238,95.192974 C183.99772,94.3107187 182.430332,93.6525506 180.758781,93.263569 L180.758781,91.292588 C180.758781,90.5991861 180.197844,90.0375587 179.505294,90.0375587 L174.973455,90.0375587 C174.281608,90.0375587 173.720671,90.5991861 173.720671,91.292588 L173.720671,93.263569 C172.04912,93.6525506 170.481733,94.3107187 169.066369,95.1936787 L167.674934,93.799828 C167.185785,93.3100776 166.391887,93.3100776 165.902738,93.799828 L162.698286,97.0082214 C162.209138,97.4979717 162.209138,98.2928471 162.698286,98.7825975 L164.090425,100.176448 C163.208549,101.592849 162.55119,103.162164 162.162686,104.835771 L160.194127,104.835771 C159.501577,104.835771 158.940639,105.397398 158.940639,106.0908 L158.940639,110.628214 C158.940639,111.320911 159.501577,111.882539 160.194127,111.882539 L162.162686,111.882539 C162.55119,113.556146 163.208549,115.125461 164.090425,116.542566 L162.698286,117.935712 C162.209138,118.426167 162.209138,119.220338 162.698286,119.710088 L165.902738,122.918482 C166.391887,123.408232 167.185785,123.408232 167.674934,122.918482 L169.067072,121.524631 C170.482436,122.406887 172.049823,123.065759 173.721375,123.454741 L173.721375,125.425722 C173.720671,126.119124 174.281608,126.680751 174.974158,126.680751 L179.505998,126.680751 C180.197844,126.680751 180.758781,126.119124 180.758781,125.425722 L180.758781,123.454741 C182.430332,123.065759 183.99772,122.407591 185.413084,121.524631 L186.805222,122.918482 C187.29437,123.408232 188.088269,123.408232 188.577418,122.918482 L191.78187,119.710088 C192.271018,119.220338 192.271018,118.425463 191.78187,117.935712 L190.389731,116.541862 C191.270903,115.125461 191.928262,113.555441 192.31747,111.881834 L194.286029,111.881834 C194.977875,111.882539 195.538813,111.320911 195.538813,110.627509 L195.538813,106.090096 C195.538813,105.397398 194.977875,104.835771 194.285325,104.835771 Z M177.239726,114.701246 C173.741081,114.701246 170.905427,111.861399 170.905427,108.359155 C170.905427,104.856207 173.741081,102.017064 177.239726,102.017064 C180.738371,102.017064 183.574025,104.856207 183.574025,108.359155 C183.574025,111.861399 180.738371,114.701246 177.239726,114.701246 Z" id="Shape" fill="#31475B" fill-rule="nonzero" opacity="0.297189835"></path>
                    <path d="M176.716895,99.4600939 C172.096677,99.4600939 168.351598,103.20978 168.351598,107.835681 C168.351598,112.461582 172.096677,116.211268 176.716895,116.211268 C181.337113,116.211268 185.082192,112.461582 185.082192,107.835681 C185.082192,103.20978 181.337113,99.4600939 176.716895,99.4600939 Z M176.716895,113.634164 C173.518134,113.634164 170.925536,111.037732 170.925536,107.835681 C170.925536,104.632985 173.518134,102.037198 176.716895,102.037198 C179.915656,102.037198 182.508254,104.632985 182.508254,107.835681 C182.508254,111.037732 179.915656,113.634164 176.716895,113.634164 Z" id="Shape" fill="#E5E5E5" fill-rule="nonzero"></path>
                    <polygon id="w" fill="#CF872E" points="217.22592 64.9107981 226.908676 64.9107981 214.715576 104.694836 203.956959 104.694836 197.143168 77.9806444 190.257653 104.694836 179.499036 104.694836 167.305936 64.9107981 177.49076 64.9107981 184.80662 95.1437942 192.12248 64.9107981 202.737649 64.9107981 209.91006 95.0719818"></polygon>
                    <polygon id="w-copy" fill="#F05244" opacity="0.5" points="71.7996143 48.1596244 78.4246575 48.1596244 70.0820105 75.3802817 62.7208513 75.3802817 58.0587838 57.1021508 53.3476419 75.3802817 45.9864827 75.3802817 37.6438356 48.1596244 44.6123997 48.1596244 49.6179879 68.8453586 54.6235762 48.1596244 61.8865866 48.1596244 66.794026 68.7962238"></polygon>
                    <polygon id="w" fill="#F9A53D" points="166.603795 42.9248826 179.853881 42.9248826 163.168587 97.3661972 148.446269 97.3661972 139.122134 60.8099354 129.69985 97.3661972 114.977532 97.3661972 98.2922374 42.9248826 112.229366 42.9248826 122.240542 84.2963509 132.251719 42.9248826 146.777739 42.9248826 156.592618 84.1980814"></polygon>
                    <rect id="Rectangle-path" fill="#747B82" fill-rule="nonzero" transform="translate(79.470320, 106.265258) rotate(-135.000000) translate(-79.470320, -106.265258) " x="76.3333333" y="86.8967136" width="6.2739726" height="38.7370892"></rect>
                    <path d="M128.093607,114.117371 C96.6196812,114.117371 71.1050228,88.5713273 71.1050228,57.0586854 C71.1050228,25.5460436 96.6196812,2.13162821e-14 128.093607,2.13162821e-14 C159.567533,2.13162821e-14 185.082192,25.5460436 185.082192,57.0586854 C185.082192,88.5713273 159.567533,114.117371 128.093607,114.117371 Z M128.093607,101.899342 C152.827993,101.899342 172.879174,81.8234964 172.879174,57.0586854 C172.879174,32.2938745 152.827993,12.2180286 128.093607,12.2180286 C103.359222,12.2180286 83.3080407,32.2938745 83.3080407,57.0586854 C83.3080407,81.8234964 103.359222,101.899342 128.093607,101.899342 Z" id="Combined-Shape" fill="#BBBBBB" fill-rule="nonzero"></path>
                    <path d="M105.579796,36.6431925 C104.785536,36.6431925 103.990912,36.3410277 103.384392,35.7366982 C102.171717,34.5276763 102.171717,32.5677768 103.384392,31.3594804 C110.12378,24.6400322 119.085132,20.9389671 128.61662,20.9389671 C138.148108,20.9389671 147.109097,24.6393067 153.848485,31.3591177 C155.06116,32.5681395 155.06116,34.528039 153.848485,35.7363354 C152.635809,36.9446318 150.669988,36.9453573 149.45804,35.7359727 C143.890578,30.1856446 136.489367,27.1295363 128.616256,27.1295363 C120.743146,27.1295363 113.341571,30.1860074 107.774836,35.7363354 C107.168681,36.340665 106.374056,36.6431925 105.579796,36.6431925 Z" id="Shape" fill="#FFFFFF" fill-rule="nonzero"></path>
                    <path d="M67.9680365,135.194097 L20.4784522,182.742098 C15.532808,187.693826 10.4010122,184.799508 5.45536805,179.847781 C0.509723847,174.896053 -2.38103747,169.757944 2.56460672,164.806217 L50.054191,117.258216 L64.815725,120.414044 L67.9680365,135.194097 Z" id="Shape" fill="#31475B" fill-rule="nonzero"></path>
                    <path d="M73.6993896,128.264129 L67.9612442,134.00939 L50.1917808,116.217893 L55.9299262,110.472632 C60.8357094,105.560766 68.7936063,105.560766 73.6993896,110.472632 C78.6055307,115.384857 78.6055307,123.352263 73.6993896,128.264129 Z" id="Shape" fill="#BBBBBB" fill-rule="nonzero"></path>
                </g>
            </g>
        </g>
    </g>
</svg>