<?xml version="1.0" encoding="UTF-8" standalone="no"?>
<svg width="37px" height="36px" viewBox="0 0 37 36" version="1.1" xmlns="http://www.w3.org/2000/svg" xmlns:xlink="http://www.w3.org/1999/xlink">
    <!-- Generator: Sketch 46.1 (44463) - http://www.bohemiancoding.com/sketch -->
    <title>pinterest</title>
    <desc>Created with Sketch.</desc>
    <defs></defs>
    <g id="Page-1" stroke="none" stroke-width="1" fill="none" fill-rule="evenodd">
        <g id="Desktop-HD" transform="translate(-700.000000, -1069.000000)" fill-rule="nonzero" fill="#FFFFFF">
            <g id="Group-42" transform="translate(0.000000, 580.000000)">
                <g id="Group-40" transform="translate(0.000000, 427.000000)">
                    <g id="Group-47" transform="translate(300.000000, 61.000000)">
                        <g id="Group-41" transform="translate(95.000000, 0.000000)">
                            <g id="pinterest" transform="translate(305.695109, 1.000000)">
                                <path d="M17.8868581,35.7737162 C8.00839524,35.7737162 0.000318844509,27.7656398 0.000318844509,17.8871769 C0.000318844509,8.00871409 8.00839524,0.000637689018 17.8868581,0.000637689018 C27.765321,0.000637689018 35.7733974,8.00871409 35.7733974,17.8871769 C35.7733974,27.7656398 27.765321,35.7737162 17.8868581,35.7737162 Z M19.330586,23.9522372 C24.3198649,24.3374014 27.1065659,18.9725237 26.4264706,14.0186365 C25.8219414,9.62942301 21.4422932,7.39368532 16.7760038,7.91595262 C13.0863352,8.3291751 9.40782608,11.3151539 9.25446187,15.5796992 C9.15944621,18.1849777 9.89852778,20.1391757 12.3762685,20.6879071 C13.4510933,18.7907823 12.0303222,18.3734148 11.8087252,16.9985573 C10.8990618,11.3747779 18.2965733,7.53557112 22.1679833,11.4640543 C24.8475526,14.1850734 23.0837048,22.5505967 18.7630428,21.6820643 C14.6244411,20.850199 20.7892997,14.189856 17.485114,12.8832312 C14.8004433,11.8205225 13.3745706,16.1332133 14.6473979,18.2758484 C13.9006641,21.9607344 12.2927312,25.4323134 12.9447682,30.0542834 C15.0545623,28.5228732 15.766861,25.5914168 16.3497087,22.5333791 C17.4101856,23.1771262 17.9783665,23.8476562 19.330586,23.9522372 Z" id="Combined-Shape"></path>
                            </g>
                        </g>
                    </g>
                </g>
            </g>
        </g>
    </g>
</svg>