<?xml version="1.0" encoding="UTF-8" standalone="no"?>
<svg width="65px" height="56px" viewBox="0 0 65 56" version="1.1" xmlns="http://www.w3.org/2000/svg" xmlns:xlink="http://www.w3.org/1999/xlink">
    <!-- Generator: Sketch 46.1 (44463) - http://www.bohemiancoding.com/sketch -->
    <title>analytics (8)</title>
    <desc>Created with Sketch.</desc>
    <defs></defs>
    <g id="Page-1" stroke="none" stroke-width="1" fill="none" fill-rule="evenodd">
        <g id="Desktop-HD" transform="translate(-245.000000, -5078.000000)">
            <g id="Group-46" transform="translate(244.000000, 4831.000000)">
                <g id="Group-4" transform="translate(1.000000, 237.000000)">
                    <g id="Group-29" transform="translate(0.000000, 10.000000)">
                        <g id="analytics-(8)">
                            <g id="Group-14">
                                <path d="M10.7,-1.2046471e-13 L62.3,-6.07846805e-15 L62.3,1.33226763e-15 C63.7911688,5.03161627e-15 65,1.20883118 65,2.7 L65,48.3 L65,48.3 C65,49.7911688 63.7911688,51 62.3,51 L10.7,51 L10.7,51 C9.20883118,51 8,49.7911688 8,48.3 L8,2.7 L8,2.7 C8,1.20883118 9.20883118,-1.24959234e-13 10.7,-1.25233157e-13 Z" id="Rectangle-9" fill="#FFEFF0"></path>
                                <g id="closed-package" transform="translate(0.000000, 3.000000)" fill-rule="nonzero" fill="#859DBA">
                                    <path d="M25.0645221,33.8520369 L37.9112257,33.8520369 C40.9306261,33.8520369 43.3880442,31.3864881 43.3880442,28.3570976 C43.3880442,25.3277071 40.9306261,22.8621583 37.9112257,22.8621583 L25.0645221,22.8621583 C22.0440066,22.8621583 19.5877035,25.3277071 19.5877035,28.3570976 C19.5877035,31.3864881 22.044146,33.8520369 25.0645221,33.8520369 Z M25.0645221,25.1358443 L37.9112257,25.1358443 C39.6820553,25.1358443 41.1219956,26.5805488 41.1219956,28.3572375 C41.1219956,30.1339261 39.6820553,31.5786306 37.9112257,31.5786306 L25.0645221,31.5786306 C23.2936925,31.5786306 21.8537522,30.1339261 21.8537522,28.3572375 C21.8537522,26.5805488 23.2938319,25.1358443 25.0645221,25.1358443 Z" id="Shape"></path>
                                    <path d="M62.9747721,0.12921372 L0,0.12921372 L0,16.6115145 L4.3426792,16.6115145 L4.3426792,52.9851768 L58.6309779,52.9851768 L58.6309779,16.6115145 L62.9736571,16.6115145 L62.9736571,0.12921372 L62.9747721,0.12921372 Z M56.3661836,50.7119103 L6.60970354,50.7119103 L6.60970354,16.6115145 L56.3661836,16.6115145 L56.3661836,50.7119103 Z M60.7088628,14.3381082 L58.6320929,14.3381082 L4.34379425,14.3381082 L2.26590929,14.3381082 L2.26590929,2.40262005 L60.7076084,2.40262005 L60.7076084,14.3381082 L60.7088628,14.3381082 Z" id="Shape"></path>
                                </g>
                            </g>
                        </g>
                    </g>
                </g>
            </g>
        </g>
    </g>
</svg>