<?xml version="1.0" encoding="UTF-8" standalone="no"?>
<svg width="289px" height="223px" viewBox="0 0 289 223" version="1.1" xmlns="http://www.w3.org/2000/svg" xmlns:xlink="http://www.w3.org/1999/xlink">
    <!-- Generator: Sketch 46.2 (44496) - http://www.bohemiancoding.com/sketch -->
    <title>Artboard 3</title>
    <desc>Created with Sketch.</desc>
    <defs>
        <path d="M2,0 L167.748744,0 L167.748744,0 C168.853313,-1.58997828e-14 169.748744,0.8954305 169.748744,2 L169.748744,101.14661 L0,101.14661 L0,2 L0,2 C-1.3527075e-16,0.8954305 0.8954305,2.02906125e-16 2,0 Z" id="path-1"></path>
        <rect id="path-2" x="146.24547" y="10.7055403" width="7.73653791" height="8.23503097"></rect>
    </defs>
    <g id="Page-1" stroke="none" stroke-width="1" fill="none" fill-rule="evenodd">
        <g id="Artboard-3">
            <g id="Group-4" transform="translate(30.000000, 0.000000)">
                <g id="settings-(9)" opacity="0.699999988" transform="translate(9.000000, 48.000000)" fill-rule="nonzero">
                    <path d="M69.9534049,29.252305 L66.0572765,29.252305 C65.2883588,25.9440086 63.9873277,22.8418713 62.2419401,20.0406148 L64.9972287,17.2853263 C65.9653407,16.3172143 65.9653407,14.7459476 64.9972287,13.7778356 L58.6550504,7.43565733 C57.6869384,6.46754533 56.1156717,6.46754533 55.1475597,7.43565733 L52.3922712,10.1909459 C49.5924077,8.4469513 46.4902704,7.14592021 43.181974,6.37700248 L43.181974,2.48087406 C43.181974,1.11019462 42.0717794,0 40.7011,0 L31.7317861,0 C30.3624996,0 29.252305,1.11019462 29.252305,2.48087406 L29.252305,6.37700248 C25.9440086,7.14592021 22.8418713,8.4469513 20.0406148,10.1923388 L17.2867193,7.4370503 C16.3186073,6.4689383 14.7473406,6.4689383 13.7792286,7.4370503 L7.4370503,13.7792286 C6.4689383,14.7473406 6.4689383,16.3186073 7.4370503,17.2867193 L10.1923388,20.0420078 C8.4469513,22.8418713 7.14592021,25.9440086 6.37700248,29.252305 L2.48087406,29.252305 C1.11019462,29.252305 0,30.3624996 0,31.733179 L0,40.7024929 C0,42.0717794 1.11019462,43.181974 2.48087406,43.181974 L6.37700248,43.181974 C7.14592021,46.4902704 8.4469513,49.5924077 10.1923388,52.3936641 L7.4370503,55.1475597 C6.4689383,56.1170647 6.4689383,57.6869384 7.4370503,58.6550504 L13.7792286,64.9972287 C14.7473406,65.9653407 16.3186073,65.9653407 17.2867193,64.9972287 L20.0420078,62.2419401 C22.8432643,63.9859347 25.9454015,65.2883588 29.2536979,66.0572765 L29.2536979,69.9534049 C29.252305,71.3240844 30.3624996,72.434279 31.733179,72.434279 L40.7024929,72.434279 C42.0717794,72.434279 43.181974,71.3240844 43.181974,69.9534049 L43.181974,66.0572765 C46.4902704,65.2883588 49.5924077,63.9873277 52.3936641,62.2419401 L55.1489527,64.9972287 C56.1170647,65.9653407 57.6883313,65.9653407 58.6564433,64.9972287 L64.9986217,58.6550504 C65.9667336,57.6869384 65.9667336,56.1156717 64.9986217,55.1475597 L62.2433331,52.3922712 C63.9873277,49.5924077 65.2883588,46.4888774 66.0586695,43.180581 L69.9547979,43.180581 C71.3240844,43.181974 72.434279,42.0717794 72.434279,40.7011 L72.434279,31.7317861 C72.434279,30.3624996 71.3240844,29.252305 69.9534049,29.252305 Z M36.2171395,48.7538416 C29.292701,48.7538416 23.6804374,43.140185 23.6804374,36.2171395 C23.6804374,29.292701 29.292701,23.6804374 36.2171395,23.6804374 C43.141578,23.6804374 48.7538416,29.292701 48.7538416,36.2171395 C48.7538416,43.140185 43.141578,48.7538416 36.2171395,48.7538416 Z" id="Shape" fill="#31475B" opacity="0.355935168"></path>
                    <path d="M36.2171395,18.1085697 C26.2156371,18.1085697 18.1085697,26.2156371 18.1085697,36.2171395 C18.1085697,46.2186419 26.2156371,54.3257092 36.2171395,54.3257092 C46.2186419,54.3257092 54.3257092,46.2186419 54.3257092,36.2171395 C54.3257092,26.2156371 46.2186419,18.1085697 36.2171395,18.1085697 Z M36.2171395,48.7538416 C29.292701,48.7538416 23.6804374,43.140185 23.6804374,36.2171395 C23.6804374,29.292701 29.292701,23.6804374 36.2171395,23.6804374 C43.141578,23.6804374 48.7538416,29.292701 48.7538416,36.2171395 C48.7538416,43.140185 43.141578,48.7538416 36.2171395,48.7538416 Z" id="Shape" fill="#C7CAC7"></path>
                </g>
                <g id="settings-(9)" opacity="0.699999988" transform="translate(0.000000, 115.000000)" fill-rule="nonzero">
                    <path d="M33.5894789,14.0460594 L31.7186775,14.0460594 C31.3494668,12.457517 30.7247516,10.9679658 29.8866701,9.6228884 L31.2096751,8.29988338 C31.6745328,7.8350257 31.6745328,7.08055165 31.2096751,6.61569397 L28.1643557,3.57037453 C27.699498,3.10551685 26.9450239,3.10551685 26.4801663,3.57037453 L25.1571612,4.89337955 C23.8127527,4.05596686 22.3232015,3.43125165 20.7346591,3.06204095 L20.7346591,1.19123961 C20.7346591,0.533081397 20.2015777,0 19.5434195,0 L15.2366301,0 C14.5791408,0 14.0460594,0.533081397 14.0460594,1.19123961 L14.0460594,3.06204095 C12.457517,3.43125165 10.9679658,4.05596686 9.6228884,4.89404841 L8.30055224,3.57104339 C7.83569456,3.10618571 7.08122051,3.10618571 6.61636283,3.57104339 L3.57104339,6.61636283 C3.10618571,7.08122051 3.10618571,7.83569456 3.57104339,8.30055224 L4.89404841,9.62355726 C4.05596686,10.9679658 3.43125165,12.457517 3.06204095,14.0460594 L1.19123961,14.0460594 C0.533081397,14.0460594 0,14.5791408 0,15.237299 L0,19.5440884 C0,20.2015777 0.533081397,20.7346591 1.19123961,20.7346591 L3.06204095,20.7346591 C3.43125165,22.3232015 4.05596686,23.8127527 4.89404841,25.1578301 L3.57104339,26.4801663 C3.10618571,26.9456928 3.10618571,27.699498 3.57104339,28.1643557 L6.61636283,31.2096751 C7.08122051,31.6745328 7.83569456,31.6745328 8.30055224,31.2096751 L9.62355726,29.8866701 C10.9686347,30.7240828 12.4581858,31.3494668 14.0467283,31.7186775 L14.0467283,33.5894789 C14.0460594,34.2476371 14.5791408,34.7807185 15.237299,34.7807185 L19.5440884,34.7807185 C20.2015777,34.7807185 20.7346591,34.2476371 20.7346591,33.5894789 L20.7346591,31.7186775 C22.3232015,31.3494668 23.8127527,30.7247516 25.1578301,29.8866701 L26.4808351,31.2096751 C26.9456928,31.6745328 27.7001668,31.6745328 28.1650245,31.2096751 L31.210344,28.1643557 C31.6752016,27.699498 31.6752016,26.9450239 31.210344,26.4801663 L29.8873389,25.1571612 C30.7247516,23.8127527 31.3494668,22.3225327 31.7193464,20.7339902 L33.5901477,20.7339902 C34.2476371,20.7346591 34.7807185,20.2015777 34.7807185,19.5434195 L34.7807185,15.2366301 C34.7807185,14.5791408 34.2476371,14.0460594 33.5894789,14.0460594 Z M17.3903592,23.410099 C14.0654563,23.410099 11.3706195,20.7145933 11.3706195,17.3903592 C11.3706195,14.0654563 14.0654563,11.3706195 17.3903592,11.3706195 C20.7152622,11.3706195 23.410099,14.0654563 23.410099,17.3903592 C23.410099,20.7145933 20.7152622,23.410099 17.3903592,23.410099 Z" id="Shape" fill="#31475B" opacity="0.325443097"></path>
                    <path d="M17.3903592,8.69517962 C12.5879447,8.69517962 8.69517962,12.5879447 8.69517962,17.3903592 C8.69517962,22.1927738 12.5879447,26.0855389 17.3903592,26.0855389 C22.1927738,26.0855389 26.0855389,22.1927738 26.0855389,17.3903592 C26.0855389,12.5879447 22.1927738,8.69517962 17.3903592,8.69517962 Z M17.3903592,23.410099 C14.0654563,23.410099 11.3706195,20.7145933 11.3706195,17.3903592 C11.3706195,14.0654563 14.0654563,11.3706195 17.3903592,11.3706195 C20.7152622,11.3706195 23.410099,14.0654563 23.410099,17.3903592 C23.410099,20.7145933 20.7152622,23.410099 17.3903592,23.410099 Z" id="Shape" fill="#C7CAC7"></path>
                </g>
                <g id="Group-9" transform="translate(39.000000, 71.000000)">
                    <g id="Group-8" transform="translate(0.000000, 0.065559)">
                        <g id="Group-7">
                            <g id="Rectangle">
                                <use fill="#EEF2F3" fill-rule="evenodd" xlink:href="#path-1"></use>
                                <path stroke="#31475B" stroke-width="7.05000019" d="M3.5250001,3.5250001 L3.5250001,97.6216098 L166.223743,97.6216098 L166.223743,3.5250001 L3.5250001,3.5250001 Z"></path>
                            </g>
                            <path d="M36.3321421,78.8936691 L22.0006312,78.8936691 C20.4183789,78.8936691 19.1341991,77.6195553 19.1341991,76.0497054 C19.1341991,74.4798554 20.4183789,73.2057416 22.0006312,73.2057416 L36.3321421,73.2057416 C37.9143945,73.2057416 39.1985742,74.4798554 39.1985742,76.0497054 C39.1982495,77.6195553 37.9143945,78.8936691 36.3321421,78.8936691" id="Shape" fill="#C2C2C2" fill-rule="nonzero"></path>
                            <path d="M56.3571785,78.8936691 L47.758207,78.8936691 C46.1759546,78.8936691 44.8917749,77.6195553 44.8917749,76.0497054 C44.8917749,74.4798554 46.1759546,73.2057416 47.758207,73.2057416 L56.3571785,73.2057416 C57.9394308,73.2057416 59.2236105,74.4798554 59.2236105,76.0497054 C59.2236105,77.6195553 57.9394308,78.8936691 56.3571785,78.8936691" id="Shape" fill="#C2C2C2" fill-rule="nonzero"></path>
                            <path d="M70.4947689,78.8936691 L67.6283368,78.8936691 C66.0460845,78.8936691 64.7619048,77.6195553 64.7619048,76.0497054 C64.7619048,74.4798554 66.0460845,73.2057416 67.6283368,73.2057416 L70.4947689,73.2057416 C72.0770212,73.2057416 73.361201,74.4798554 73.361201,76.0497054 C73.3608763,77.6195553 72.0770212,78.8936691 70.4947689,78.8936691" id="Shape" fill="#C2C2C2" fill-rule="nonzero"></path>
                            <path d="M30.5996027,89.8745304 L22.0006312,89.8745304 C20.4183789,89.8745304 19.1341991,88.6004166 19.1341991,87.0305666 C19.1341991,85.4607167 20.4183789,84.1866029 22.0006312,84.1866029 L30.5996027,84.1866029 C32.181855,84.1866029 33.4660348,85.4607167 33.4660348,87.0305666 C33.4657101,88.6004166 32.181855,89.8745304 30.5996027,89.8745304" id="Shape" fill="#C2C2C2" fill-rule="nonzero"></path>
                            <path d="M70.533783,89.8745304 L41.8707611,89.8745304 C40.2885088,89.8745304 39.004329,88.6004166 39.004329,87.0305666 C39.004329,85.4607167 40.2885088,84.1866029 41.8707611,84.1866029 L70.533783,84.1866029 C72.1160353,84.1866029 73.400215,85.4607167 73.400215,87.0305666 C73.3998903,88.6004166 72.1160353,89.8745304 70.533783,89.8745304" id="Shape" fill="#C2C2C2" fill-rule="nonzero"></path>
                            <path d="M85.0584772,32.0419945 L76.4595057,32.0419945 C74.8772533,32.0419945 73.5930736,30.7678807 73.5930736,29.1980307 C73.5930736,27.6281808 74.8772533,26.354067 76.4595057,26.354067 L85.0584772,26.354067 C86.6407295,26.354067 87.9249092,27.6281808 87.9249092,29.1980307 C87.9245845,30.7678807 86.6407295,32.0419945 85.0584772,32.0419945" id="Shape" fill="#C2C2C2" fill-rule="nonzero"></path>
                            <path d="M124.992657,32.0419945 L96.3296355,32.0419945 C94.7473832,32.0419945 93.4632035,30.7678807 93.4632035,29.1980307 C93.4632035,27.6281808 94.7473832,26.354067 96.3296355,26.354067 L124.992657,26.354067 C126.57491,26.354067 127.859089,27.6281808 127.859089,29.1980307 C127.858765,30.7678807 126.57491,32.0419945 124.992657,32.0419945" id="Shape" fill="#C2C2C2" fill-rule="nonzero"></path>
                            <path d="M90.7910166,43.0228557 L76.4595057,43.0228557 C74.8772533,43.0228557 73.5930736,41.7487419 73.5930736,40.178892 C73.5930736,38.609042 74.8772533,37.3349282 76.4595057,37.3349282 L90.7910166,37.3349282 C92.3732689,37.3349282 93.6574487,38.609042 93.6574487,40.178892 C93.6574487,41.7487419 92.3732689,43.0228557 90.7910166,43.0228557" id="Shape" fill="#C2C2C2" fill-rule="nonzero"></path>
                            <path d="M149.731571,43.0228557 L135.400061,43.0228557 C133.817808,43.0228557 132.533628,41.7487419 132.533628,40.178892 C132.533628,38.609042 133.817808,37.3349282 135.400061,37.3349282 L149.731571,37.3349282 C151.313824,37.3349282 152.598004,38.609042 152.598004,40.178892 C152.598004,41.7487419 151.313824,43.0228557 149.731571,43.0228557" id="Shape" fill="#C2C2C2" fill-rule="nonzero"></path>
                            <path d="M110.816053,43.0228557 L102.217081,43.0228557 C100.634829,43.0228557 99.3506494,41.7487419 99.3506494,40.178892 C99.3506494,38.609042 100.634829,37.3349282 102.217081,37.3349282 L110.816053,37.3349282 C112.398305,37.3349282 113.682485,38.609042 113.682485,40.178892 C113.682485,41.7487419 112.398305,43.0228557 110.816053,43.0228557" id="Shape" fill="#C2C2C2" fill-rule="nonzero"></path>
                            <path d="M124.953643,43.0228557 L122.087211,43.0228557 C120.504959,43.0228557 119.220779,41.7487419 119.220779,40.178892 C119.220779,38.609042 120.504959,37.3349282 122.087211,37.3349282 L124.953643,37.3349282 C126.535896,37.3349282 127.820075,38.609042 127.820075,40.178892 C127.820075,41.7487419 126.535896,43.0228557 124.953643,43.0228557" id="Shape" fill="#C2C2C2" fill-rule="nonzero"></path>
                            <path d="M141.725144,32.0419945 L133.126172,32.0419945 C131.54392,32.0419945 130.25974,30.7678807 130.25974,29.1980307 C130.25974,27.6281808 131.54392,26.354067 133.126172,26.354067 L141.725144,26.354067 C143.307396,26.354067 144.591576,27.6281808 144.591576,29.1980307 C144.591576,30.7678807 143.307396,32.0419945 141.725144,32.0419945" id="Shape" fill="#C2C2C2" fill-rule="nonzero"></path>
                            <path d="M155.862734,32.0419945 L152.996302,32.0419945 C151.41405,32.0419945 150.12987,30.7678807 150.12987,29.1980307 C150.12987,27.6281808 151.41405,26.354067 152.996302,26.354067 L155.862734,26.354067 C157.444987,26.354067 158.729166,27.6281808 158.729166,29.1980307 C158.729166,30.7678807 157.444987,32.0419945 155.862734,32.0419945" id="Shape" fill="#C2C2C2" fill-rule="nonzero"></path>
                            <path d="M43.2311086,15.3732057 L43.2311086,36.6028708 L64.5731,36.6028708 C64.5731,24.8776871 55.0183304,15.3732057 43.2311086,15.3732057" id="Shape" fill="#F05244" fill-rule="nonzero"></path>
                            <path d="M35.1358705,44.6555024 L35.1358705,23.4258373 C23.3486488,23.4258373 13.7938792,32.9303186 13.7938792,44.6555024 C13.7938792,56.3806861 23.3486488,65.8851675 35.1358705,65.8851675 C46.9230923,65.8851675 56.4778619,56.3806861 56.4778619,44.6555024 L35.1358705,44.6555024 Z" id="Shape" fill="#F9A53D" fill-rule="nonzero"></path>
                            <path d="M0,101.14661 L169.748744,101.14661 L169.748744,114.103562 L169.748744,114.103562 C169.748744,116.340315 167.935497,118.153562 165.698744,118.153562 L4.05,118.153562 L4.05,118.153562 C1.81324676,118.153562 -3.27879041e-15,116.340315 -3.55271368e-15,114.103562 L0,101.14661 Z" id="Rectangle" fill="#DDDDDD"></path>
                            <ellipse id="Oval-7" fill="#31475B" cx="84.8743718" cy="109.873862" rx="3.86826896" ry="3.80418666"></ellipse>
                            <rect id="Rectangle-5" fill="#FFFFFF" x="110.105414" y="10.7055403" width="43.8765936" height="8.23503097"></rect>
                            <g id="Rectangle-5">
                                <use fill="#EA632D" fill-rule="evenodd" xlink:href="#path-2"></use>
                                <rect stroke="#FF8F62" stroke-width="1" x="146.74547" y="11.2055403" width="6.73653791" height="7.23503097"></rect>
                            </g>
                            <g id="magnifying-glass-(1)" transform="translate(148.186986, 13.176050)" fill-rule="nonzero" fill="#FFFFFF">
                                <path d="M2.52236489,0.429902393 C1.94617051,-0.143259381 1.00837138,-0.143259381 0.432177009,0.429902393 C-0.143892461,1.00318842 -0.143892461,1.93592751 0.432177009,2.50921353 C0.945293527,3.01950519 1.74444627,3.07417486 2.32026593,2.67570752 C2.33238187,2.73273793 2.36011115,2.7871591 2.40470282,2.83151608 L3.2438257,3.66622252 C3.36610931,3.78761403 3.56371163,3.78761403 3.68537071,3.66622252 C3.80752941,3.54470675 3.80752941,3.34814445 3.68537071,3.22700143 L2.84624783,2.39204649 C2.80190597,2.34806226 2.74707195,2.32035468 2.6897398,2.3083025 C3.09056524,1.73538923 3.03560631,0.940566796 2.52236489,0.429902393 Z M2.25743788,2.24568088 C1.82725938,2.67359529 1.12715761,2.67359529 0.697104013,2.24568088 C0.267175324,1.81776648 0.267175324,1.1214737 0.697104013,0.693559294 C1.12715761,0.265769138 1.82725938,0.265769138 2.25743788,0.693559294 C2.68761639,1.1214737 2.68761639,1.81776648 2.25743788,2.24568088 Z" id="Shape"></path>
                            </g>
                        </g>
                        <g id="Group" transform="translate(47.329408, 118.153562)">
                            <rect id="Rectangle-2" fill="#E3E3E3" x="14.1078044" y="5.81816783" width="46.8743179" height="7.16082194"></rect>
                            <polygon id="Rectangle-3" fill="#E3E3E3" points="14.0555846 12.9789898 60.9881499 12.9811204 75.5376843 25.9579795 0 25.9579795"></polygon>
                            <path d="M0,25.9579795 L75.5450173,25.9579795 L75.5450173,30.8663529 L75.5450173,30.8663529 C75.5450173,32.3575217 74.3361861,33.5663529 72.8450173,33.5663529 L2.7,33.5663529 L2.7,33.5663529 C1.20883118,33.5663529 -3.5960646e-15,32.3575217 -4.4408921e-15,30.8663529 L0,25.9579795 Z" id="Rectangle-4" fill="#EEF1F2"></path>
                            <polygon id="Rectangle-11" fill="#E3E3E3" points="9.10180931 0 65.9881175 0 61.3185472 7.16082194 13.7713796 7.16082194"></polygon>
                        </g>
                    </g>
                </g>
                <g id="search-engine-(2)" transform="translate(191.000000, 171.500000) scale(-1, 1) translate(-191.000000, -171.500000) translate(152.000000, 132.000000)">
                    <rect id="Rectangle-path" fill="#747B82" fill-rule="nonzero" transform="translate(33.312670, 44.920852) rotate(-135.000000) translate(-33.312670, -44.920852) " x="32.0113314" y="36.790856" width="2.60267789" height="16.2599916"></rect>
                    <path d="M54.0849057,47.9906542 C40.8769638,47.9906542 30.1698113,37.2475803 30.1698113,23.9953271 C30.1698113,10.7430739 40.8769638,0 54.0849057,0 C67.2928476,0 78,10.7430739 78,23.9953271 C78,37.2475803 67.2928476,47.9906542 54.0849057,47.9906542 Z M54.0849057,42.8525128 C64.4646188,42.8525128 72.8790389,34.4098632 72.8790389,23.9953271 C72.8790389,13.580791 64.4646188,5.13814139 54.0849057,5.13814139 C43.7051925,5.13814139 35.2907724,13.580791 35.2907724,23.9953271 C35.2907724,34.4098632 43.7051925,42.8525128 54.0849057,42.8525128 Z" id="Combined-Shape" fill="#56616D" fill-rule="nonzero"></path>
                    <ellipse id="Oval-11" fill="#FFFFFF" opacity="0.302238806" cx="54.114888" cy="24.02541" rx="18.7941333" ry="18.8571857"></ellipse>
                    <path d="M44.3584928,15.7643927 C44.0255872,15.7643927 43.692529,15.6369347 43.438313,15.3820188 C42.9300333,14.8720339 42.9300333,14.0453168 43.438313,13.5356379 C46.2630546,10.7012666 50.0191084,9.14009781 54.0141284,9.14009781 C58.0091484,9.14009781 61.7650498,10.7009606 64.5897914,13.5354849 C65.098071,14.0454698 65.098071,14.8721869 64.5897914,15.3818658 C64.0815118,15.8915446 63.2575589,15.8918506 62.7495843,15.3817128 C60.4160424,13.0404951 57.3139049,11.7513795 54.0139759,11.7513795 C50.714047,11.7513795 47.611757,13.0406481 45.2785201,15.3818658 C45.0244565,15.6367817 44.6913984,15.7643927 44.3584928,15.7643927 Z" id="Shape" fill="#FFFFFF" fill-rule="nonzero"></path>
                    <path d="M28.7312958,57.1118786 L8.65661377,77.2539091 C6.56600304,79.3515336 4.39670275,78.1254584 2.30609202,76.0278339 C0.215481287,73.9302094 -1.00649433,71.7536313 1.0841164,69.6560068 L21.1587984,49.5139762 L27.3987583,50.8508312 L28.7312958,57.1118786 Z" id="Shape" fill="#31475B" fill-rule="nonzero"></path>
                    <path d="M31.1763145,54.658351 L28.7309908,57.1118786 L21.1584934,49.5139762 L23.6038171,47.0604487 C25.6944279,44.9628242 29.0857038,44.9628242 31.1763145,47.0604487 C33.2670777,49.1582262 33.2670777,52.5607265 31.1763145,54.658351 Z" id="Shape" fill="#747B82" fill-rule="nonzero"></path>
                </g>
                <g id="search-engine-(2)" transform="translate(191.000000, 171.500000) scale(-1, 1) translate(-191.000000, -171.500000) translate(152.000000, 132.000000)">
                    <rect id="Rectangle-path" fill="#747B82" fill-rule="nonzero" transform="translate(33.312670, 44.920852) rotate(-135.000000) translate(-33.312670, -44.920852) " x="32.0113314" y="36.790856" width="2.60267789" height="16.2599916"></rect>
                    <path d="M54.0849057,47.9906542 C40.8769638,47.9906542 30.1698113,37.2475803 30.1698113,23.9953271 C30.1698113,10.7430739 40.8769638,0 54.0849057,0 C67.2928476,0 78,10.7430739 78,23.9953271 C78,37.2475803 67.2928476,47.9906542 54.0849057,47.9906542 Z M54.0849057,42.8525128 C64.4646188,42.8525128 72.8790389,34.4098632 72.8790389,23.9953271 C72.8790389,13.580791 64.4646188,5.13814139 54.0849057,5.13814139 C43.7051925,5.13814139 35.2907724,13.580791 35.2907724,23.9953271 C35.2907724,34.4098632 43.7051925,42.8525128 54.0849057,42.8525128 Z" id="Combined-Shape" fill="#56616D" fill-rule="nonzero"></path>
                    <ellipse id="Oval-11" fill="#FFFFFF" opacity="0.302238806" cx="54.114888" cy="24.02541" rx="18.7941333" ry="18.8571857"></ellipse>
                    <path d="M44.3584928,15.7643927 C44.0255872,15.7643927 43.692529,15.6369347 43.438313,15.3820188 C42.9300333,14.8720339 42.9300333,14.0453168 43.438313,13.5356379 C46.2630546,10.7012666 50.0191084,9.14009781 54.0141284,9.14009781 C58.0091484,9.14009781 61.7650498,10.7009606 64.5897914,13.5354849 C65.098071,14.0454698 65.098071,14.8721869 64.5897914,15.3818658 C64.0815118,15.8915446 63.2575589,15.8918506 62.7495843,15.3817128 C60.4160424,13.0404951 57.3139049,11.7513795 54.0139759,11.7513795 C50.714047,11.7513795 47.611757,13.0406481 45.2785201,15.3818658 C45.0244565,15.6367817 44.6913984,15.7643927 44.3584928,15.7643927 Z" id="Shape" fill="#FFFFFF" fill-rule="nonzero"></path>
                    <path d="M28.7312958,57.1118786 L8.65661377,77.2539091 C6.56600304,79.3515336 4.39670275,78.1254584 2.30609202,76.0278339 C0.215481287,73.9302094 -1.00649433,71.7536313 1.0841164,69.6560068 L21.1587984,49.5139762 L27.3987583,50.8508312 L28.7312958,57.1118786 Z" id="Shape" fill="#31475B" fill-rule="nonzero"></path>
                    <path d="M31.1763145,54.658351 L28.7309908,57.1118786 L21.1584934,49.5139762 L23.6038171,47.0604487 C25.6944279,44.9628242 29.0857038,44.9628242 31.1763145,47.0604487 C33.2670777,49.1582262 33.2670777,52.5607265 31.1763145,54.658351 Z" id="Shape" fill="#747B82" fill-rule="nonzero"></path>
                </g>
                <g id="cloud-computing-(11)" opacity="0.5" transform="translate(129.000000, 0.000000)" fill-rule="nonzero">
                    <g id="Group">
                        <g id="Shape">
                            <path d="M38.0717497,12.8864878 C37.9841899,6.29744439 32.5950764,0.767313822 25.9511933,0.767313822 C21.7186301,0.767313822 17.7441779,3.04344618 15.5498539,6.32395508 C14.585935,5.6854261 13.4278619,5.31200405 12.182229,5.31200405 C8.81841099,5.31200405 6.09111448,8.02518412 6.09111448,11.371591 C6.09111448,11.4874806 6.10177393,11.6003404 6.10862644,11.7154726 C6.10101254,11.8533282 6.09111448,11.9926987 6.09111448,12.1290394 C3.05469391,13.5772807 0.76138931,17.0198835 0.76138931,20.578376 C0.76138931,25.5131521 4.81959434,29.550352 9.78004569,29.550352 L28.4394135,29.550352 C28.5444852,29.550352 28.6465114,29.5382328 28.7500604,29.5344455 C28.8543707,29.5382328 28.9563969,29.550352 29.0607072,29.550352 L36.5246066,29.550352 C41.1431942,29.550352 44.9219693,25.7911357 44.9219693,21.1972113 C44.9219693,17.1289561 41.9571193,13.6143957 38.0717497,12.8864878 Z" fill="#E2E2E3"></path>
                            <path d="M36.525368,30.3078003 L29.0614686,30.3078003 C28.9822841,30.3078003 28.9030996,30.3032556 28.8246765,30.2971961 L28.7234117,30.2911365 L28.6754442,30.2971961 C28.5970211,30.3032556 28.518598,30.3078003 28.4386521,30.3078003 L9.78004569,30.3078003 C4.38712521,30.3078003 0,25.9426254 0,20.5776185 C0,16.9759515 2.17528926,13.3773143 5.3419074,11.6601789 C5.33581629,11.5647404 5.32972517,11.4693019 5.32972517,11.371591 C5.32972517,7.61237476 8.40421521,4.55455568 12.182229,4.55455568 C13.2870049,4.55455568 14.362848,4.81663282 15.3328579,5.31806364 C17.8134643,2.02695046 21.8176107,0.00986545027 25.9511933,0.00986545027 C32.7610592,0.00986545027 38.4098065,5.45894904 38.8118201,12.2759844 C42.7695217,13.3106589 45.6833586,17.0395772 45.6833586,21.1972113 C45.6833586,26.2206089 41.5749019,30.3078003 36.525368,30.3078003 Z M28.7234117,28.7777546 L28.9289869,28.7860866 C28.9731474,28.7891163 29.017308,28.7929036 29.0614686,28.7929036 L36.525368,28.7929036 C40.7350895,28.7929036 44.16058,25.3851434 44.16058,21.1972113 C44.16058,17.54934 41.4820124,14.2968566 37.9308927,13.6310595 L37.3187357,13.5166848 L37.3103604,12.8978495 C37.2281303,6.62617698 32.1321517,1.52476219 25.9511933,1.52476219 C22.138917,1.52476219 18.3053218,3.57290259 16.1840912,6.74358148 L15.7622815,7.37453597 L15.1280442,6.95490957 C14.2539693,6.37546157 13.234469,6.06945243 12.182229,6.06945243 C9.24326623,6.06945243 6.85250379,8.44859776 6.85250379,11.371591 C6.85250379,11.4352167 6.85707213,11.4980849 6.86164047,11.5609531 L6.87077714,11.7139577 L6.86392463,11.8449963 C6.85859491,11.9404348 6.85250379,12.0358733 6.85250379,12.1290394 L6.85250379,12.6062319 L6.42003467,12.8115004 C3.58233671,14.1650606 1.52277862,17.431178 1.52277862,20.5776185 C1.52277862,25.1079173 5.22693762,28.7929036 9.78004569,28.7929036 L28.4394135,28.7929036 C28.4843355,28.7929036 28.5277347,28.7891163 28.5718953,28.7860866 L28.7234117,28.7777546 Z" fill="#D2D2D2"></path>
                        </g>
                        <g transform="translate(33.501130, 11.750315)" id="Shape">
                            <path d="M4.57062003,1.1362372 C4.57062003,1.1362372 2.64049813,0.852048612 0.76138931,1.1362372" fill="#91BAE1"></path>
                            <path d="M0.760627921,1.89362093 C0.390592716,1.89362093 0.06624087,1.62548421 0.00913667173,1.24978981 C-0.054058641,0.836223003 0.23146235,0.449924333 0.647180914,0.387056118 C2.61689506,0.0886214595 4.59879144,0.373422047 4.68254426,0.38629867 C5.09826282,0.447651988 5.38530659,0.832435761 5.32363406,1.24600257 C5.26272291,1.66032683 4.87060742,1.94209763 4.46021858,1.885289 C4.44194524,1.88301665 2.6138495,1.62396931 0.875597707,1.88453155 C0.836766852,1.89059114 0.798697387,1.89362093 0.760627921,1.89362093 Z" fill="#D2D2D2"></path>
                        </g>
                        <g transform="translate(5.329725, 4.544690)" id="Shape">
                            <path d="M0.76138931,6.8269008 C0.76138931,3.48049389 3.48868582,0.767313822 6.85250379,0.767313822 C10.2163218,0.767313822 12.9436183,3.48049389 12.9436183,6.8269008" fill="#E2E2E3"></path>
                            <path d="M12.9436183,7.58434917 C12.5233314,7.58434917 12.182229,7.24576975 12.182229,6.8269008 C12.182229,3.90390753 9.79146653,1.52476219 6.85250379,1.52476219 C3.91354106,1.52476219 1.52277862,3.90390753 1.52277862,6.8269008 C1.52277862,7.24576975 1.18167621,7.58434917 0.76138931,7.58434917 C0.341102411,7.58434917 0,7.24576975 0,6.8269008 C0,3.06768453 3.07449004,0.00986545027 6.85250379,0.00986545027 C10.6305176,0.00986545027 13.7050076,3.06768453 13.7050076,6.8269008 C13.7050076,7.24576975 13.3639052,7.58434917 12.9436183,7.58434917 Z" fill="#D2D2D2"></path>
                        </g>
                    </g>
                </g>
                <g id="cloud-computing-(11)" transform="translate(68.000000, 0.000000)" fill-rule="nonzero">
                    <g id="Group">
                        <g id="Shape">
                            <path d="M75.35442,25.6759331 C75.1811152,12.5474655 64.5145835,1.52884934 51.3645192,1.52884934 C42.9871174,1.52884934 35.1205879,6.06397351 30.7774198,12.6002872 C28.8695603,11.3280378 26.5774164,10.5840057 24.1119677,10.5840057 C17.4540506,10.5840057 12.0559838,15.9899341 12.0559838,22.6575476 C12.0559838,22.8884541 12.0770818,23.1133238 12.0906448,23.3427211 C12.0755748,23.6173942 12.0559838,23.8950857 12.0559838,24.1667404 C6.0460759,27.0523169 1.50699798,33.9115978 1.50699798,41.0017853 C1.50699798,50.834176 9.53929722,58.8781733 19.3573891,58.8781733 L56.2893886,58.8781733 C56.4973543,58.8781733 56.699292,58.8540262 56.9042437,58.8464802 C57.1107025,58.8540262 57.3126402,58.8781733 57.5190989,58.8781733 L72.2922001,58.8781733 C81.4336499,58.8781733 88.9128808,51.3880497 88.9128808,42.2347958 C88.9128808,34.1289216 83.0446307,27.1262673 75.35442,25.6759331 Z" fill="#EDEEEF"></path>
                            <path d="M72.2937071,60.387366 L57.5206059,60.387366 C57.3638781,60.387366 57.2071503,60.3783108 57.0519295,60.3662373 L56.8514988,60.3541637 L56.7565579,60.3662373 C56.6013371,60.3783108 56.4461164,60.387366 56.2878816,60.387366 L19.3573891,60.387366 C8.68332236,60.387366 0,51.6898883 0,41.0002761 C0,33.8240647 4.30549323,26.65389 10.5730978,23.2325501 C10.5610418,23.0423918 10.5489859,22.8522335 10.5489859,22.6575476 C10.5489859,15.1674241 16.6342437,9.07481301 24.1119677,9.07481301 C26.2986218,9.07481301 28.4280099,9.5969937 30.3479253,10.5960793 C35.2577247,4.03863686 43.1830271,0.0196566082 51.3645192,0.0196566082 C64.8431091,0.0196566082 76.0235271,10.8767891 76.819222,24.4595237 C84.6525975,26.521081 90.4198788,33.9508369 90.4198788,42.2347958 C90.4198788,52.243762 82.2881177,60.387366 72.2937071,60.387366 Z M56.8514988,57.3387967 L57.2583883,57.3553978 C57.3457941,57.3614346 57.4332,57.3689805 57.5206059,57.3689805 L72.2937071,57.3689805 C80.6258989,57.3689805 87.4058829,50.5791224 87.4058829,42.2347958 C87.4058829,34.9665236 82.104264,28.48605 75.0756254,27.1594696 L73.863999,26.9315814 L73.847422,25.698571 C73.6846662,13.2024551 63.5983288,3.03804208 51.3645192,3.03804208 C43.8189803,3.03804208 36.2312454,7.11889923 32.0327491,13.43638 L31.1978722,14.6935376 L29.9425429,13.8574448 C28.2125092,12.7029123 26.1946389,12.0931985 24.1119677,12.0931985 C18.2949555,12.0931985 13.5629818,16.8335729 13.5629818,22.6575476 C13.5629818,22.7843198 13.5720238,22.9095828 13.5810658,23.0348458 L13.5991498,23.3397027 L13.5855868,23.6007931 C13.5750378,23.7909514 13.5629818,23.9811097 13.5629818,24.1667404 L13.5629818,25.1175318 L12.707007,25.526523 C7.0904255,28.2234504 3.01399596,34.7310895 3.01399596,41.0002761 C3.01399596,50.0267579 10.3455411,57.3689805 19.3573891,57.3689805 L56.2893886,57.3689805 C56.3783014,57.3689805 56.4642003,57.3614346 56.5516062,57.3553978 L56.8514988,57.3387967 Z" fill="#E5E6E7"></path>
                        </g>
                        <g transform="translate(66.307911, 23.412144)" id="Shape">
                            <path d="M9.04650888,2.2637891 C9.04650888,2.2637891 5.226269,1.69784183 1.50699798,2.2637891" fill="#91BAE1"></path>
                            <path d="M1.50549098,3.77298184 C0.773089964,3.77298184 0.131108824,3.23872761 0.0180839758,2.49016801 C-0.106996857,1.66614878 0.458127386,0.896460484 1.28094828,0.771197487 C5.17955206,0.17657555 9.1022678,0.744032018 9.26803758,0.769688295 C10.0908585,0.891932906 10.6589967,1.65860282 10.5369299,2.48262205 C10.41637,3.30815047 9.64026608,3.86957017 8.82799417,3.75638072 C8.79182622,3.75185314 5.17352407,3.23570922 1.73304768,3.75487152 C1.65619078,3.76694507 1.58084088,3.77298184 1.50549098,3.77298184 Z" fill="#E5E6E7"></path>
                        </g>
                        <g transform="translate(10.548986, 9.055156)" id="Shape">
                            <path d="M1.50699798,13.6023912 C1.50699798,6.93477772 6.90506475,1.52884934 13.5629818,1.52884934 C20.2208989,1.52884934 25.6189657,6.93477772 25.6189657,13.6023912" fill="#EDEEEF"></path>
                            <path d="M25.6189657,15.111584 C24.7871028,15.111584 24.1119677,14.4369748 24.1119677,13.6023912 C24.1119677,7.77841646 19.379994,3.03804208 13.5629818,3.03804208 C7.74596962,3.03804208 3.01399596,7.77841646 3.01399596,13.6023912 C3.01399596,14.4369748 2.33886087,15.111584 1.50699798,15.111584 C0.675135095,15.111584 0,14.4369748 0,13.6023912 C0,6.11226768 6.08525784,0.0196566082 13.5629818,0.0196566082 C21.0407058,0.0196566082 27.1259636,6.11226768 27.1259636,13.6023912 C27.1259636,14.4369748 26.4508286,15.111584 25.6189657,15.111584 Z" fill="#E5E6E7"></path>
                        </g>
                    </g>
                </g>
                <g id="settings-(9)" transform="translate(99.000000, 18.000000)" fill-rule="nonzero">
                    <path d="M27.7877961,11.6199789 L26.2401256,11.6199789 C25.9346862,10.3058146 25.4178738,9.0735435 24.7245484,7.96079219 L25.8190397,6.86630085 C26.2036057,6.48173488 26.2036057,5.85757601 25.8190397,5.47301005 L23.2997176,2.95368796 C22.9151517,2.56912199 22.2909928,2.56912199 21.9064268,2.95368796 L20.8119355,4.0481793 C19.6997375,3.35540723 18.4674664,2.83859484 17.1533021,2.53315539 L17.1533021,0.985484874 C17.1533021,0.441005865 16.7122963,0 16.1678173,0 L12.6049104,0 C12.0609847,0 11.6199789,0.441005865 11.6199789,0.985484874 L11.6199789,2.53315539 C10.3058146,2.83859484 9.0735435,3.35540723 7.96079219,4.04873264 L6.86685418,2.95424129 C6.48228821,2.56967533 5.85812935,2.56967533 5.47356338,2.95424129 L2.95424129,5.47356338 C2.56967533,5.85812935 2.56967533,6.48228821 2.95424129,6.86685418 L4.04873264,7.96134552 C3.35540723,9.0735435 2.83859484,10.3058146 2.53315539,11.6199789 L0.985484874,11.6199789 C0.441005865,11.6199789 0,12.0609847 0,12.6054637 L0,16.1683706 C0,16.7122963 0.441005865,17.1533021 0.985484874,17.1533021 L2.53315539,17.1533021 C2.83859484,18.4674664 3.35540723,19.6997375 4.04873264,20.8124888 L2.95424129,21.9064268 C2.56967533,22.2915461 2.56967533,22.9151517 2.95424129,23.2997176 L5.47356338,25.8190397 C5.85812935,26.2036057 6.48228821,26.2036057 6.86685418,25.8190397 L7.96134552,24.7245484 C9.07409683,25.4173204 10.3063679,25.9346862 11.6205322,26.2401256 L11.6205322,27.7877961 C11.6199789,28.3322751 12.0609847,28.773281 12.6054637,28.773281 L16.1683706,28.773281 C16.7122963,28.773281 17.1533021,28.3322751 17.1533021,27.7877961 L17.1533021,26.2401256 C18.4674664,25.9346862 19.6997375,25.4178738 20.8124888,24.7245484 L21.9069802,25.8190397 C22.2915461,26.2036057 22.915705,26.2036057 23.300271,25.8190397 L25.819593,23.2997176 C26.204159,22.9151517 26.204159,22.2909928 25.819593,21.9064268 L24.7251017,20.8119355 C25.4178738,19.6997375 25.9346862,18.4669131 26.2406789,17.1527488 L27.7883495,17.1527488 C28.3322751,17.1533021 28.773281,16.7122963 28.773281,16.1678173 L28.773281,12.6049104 C28.773281,12.0609847 28.3322751,11.6199789 27.7877961,11.6199789 Z M14.3866405,19.3666314 C11.6360255,19.3666314 9.40664956,17.1367022 9.40664956,14.3866405 C9.40664956,11.6360255 11.6360255,9.40664956 14.3866405,9.40664956 C17.1372555,9.40664956 19.3666314,11.6360255 19.3666314,14.3866405 C19.3666314,17.1367022 17.1372555,19.3666314 14.3866405,19.3666314 Z" id="Shape" fill="#DCDCDC"></path>
                    <path d="M14.3866405,7.19332025 C10.4137144,7.19332025 7.19332025,10.4137144 7.19332025,14.3866405 C7.19332025,18.3595666 10.4137144,21.5799608 14.3866405,21.5799608 C18.3595666,21.5799608 21.5799608,18.3595666 21.5799608,14.3866405 C21.5799608,10.4137144 18.3595666,7.19332025 14.3866405,7.19332025 Z M14.3866405,19.3666314 C11.6360255,19.3666314 9.40664956,17.1367022 9.40664956,14.3866405 C9.40664956,11.6360255 11.6360255,9.40664956 14.3866405,9.40664956 C17.1372555,9.40664956 19.3666314,11.6360255 19.3666314,14.3866405 C19.3666314,17.1367022 17.1372555,19.3666314 14.3866405,19.3666314 Z" id="Shape" fill="#C7CAC7"></path>
                </g>
            </g>
        </g>
    </g>
</svg>