<?xml version="1.0" encoding="UTF-8" standalone="no"?>
<svg width="289px" height="223px" viewBox="0 0 289 223" version="1.1" xmlns="http://www.w3.org/2000/svg" xmlns:xlink="http://www.w3.org/1999/xlink">
    <!-- Generator: Sketch 46.2 (44496) - http://www.bohemiancoding.com/sketch -->
    <title>Artboard 3</title>
    <desc>Created with Sketch.</desc>
    <defs></defs>
    <g id="Page-1" stroke="none" stroke-width="1" fill="none" fill-rule="evenodd">
        <g id="Artboard-3">
            <g id="z" transform="translate(36.000000, 0.000000)">
                <g id="analytics-(9)">
                    <g id="settings-(9)" transform="translate(155.858142, 83.821516) rotate(17.000000) translate(-155.858142, -83.821516) translate(117.858142, 45.821516)" fill-rule="nonzero">
                        <path d="M73.0364122,30.4795541 L68.9685725,30.4795541 C68.1657668,27.0324617 66.8073963,23.8001775 64.9850855,20.8813974 L67.8618059,18.0105137 C68.8725848,17.0017856 68.8725848,15.3645981 67.8618059,14.35587 L61.2401132,7.74761237 C60.2293343,6.73888427 58.5888183,6.73888427 57.5780394,7.74761237 L54.701319,10.6184961 C51.7780591,8.8013341 48.5392035,7.44571964 45.0851028,6.64454279 L45.0851028,2.58495647 C45.0851028,1.15677165 43.9259794,0 42.494891,0 L33.1302788,0 C31.7006447,0 30.5415213,1.15677165 30.5415213,2.58495647 L30.5415213,6.64454279 C27.0874207,7.44571964 23.848565,8.8013341 20.9238508,10.6199475 L18.0485847,7.74906378 C17.0378058,6.74033568 15.3972898,6.74033568 14.3865109,7.74906378 L7.7648182,14.3573214 C6.75403928,15.3660495 6.75403928,17.003237 7.7648182,18.0119651 L10.6415386,20.8828488 C8.81922786,23.8001775 7.46085734,27.0324617 6.65805164,30.4795541 L2.59021188,30.4795541 C1.15912345,30.4795541 0,31.6363257 0,33.0645106 L0,42.4101224 C0,43.8368558 1.15912345,44.9936275 2.59021188,44.9936275 L6.65805164,44.9936275 C7.46085734,48.4407199 8.81922786,51.673004 10.6415386,54.5917842 L7.7648182,57.4612165 C6.75403928,58.471396 6.75403928,60.1071321 7.7648182,61.1158602 L14.3865109,67.7241178 C15.3972898,68.7328459 17.0378058,68.7328459 18.0485847,67.7241178 L20.9253052,64.8532341 C23.8500194,66.6703961 27.088875,68.0274619 30.5429756,68.8286388 L30.5429756,72.8882251 C30.5415213,74.3164099 31.7006447,75.4731816 33.1317332,75.4731816 L42.4963453,75.4731816 C43.9259794,75.4731816 45.0851028,74.3164099 45.0851028,72.8882251 L45.0851028,68.8286388 C48.5392035,68.0274619 51.7780591,66.6718475 54.7027733,64.8532341 L57.5794938,67.7241178 C58.5902727,68.7328459 60.2307887,68.7328459 61.2415676,67.7241178 L67.8632603,61.1158602 C68.8740392,60.1071321 68.8740392,58.4699446 67.8632603,57.4612165 L64.9865399,54.5903328 C66.8073963,51.673004 68.1657668,48.4392685 68.9700268,44.9921761 L73.0378666,44.9921761 C74.4675007,44.9936275 75.6266241,43.8368558 75.6266241,42.408671 L75.6266241,33.0630592 C75.6266241,31.6363257 74.4675007,30.4795541 73.0364122,30.4795541 Z M37.8133121,50.7992568 C30.5836977,50.7992568 24.7240887,44.9500853 24.7240887,37.7365908 C24.7240887,30.5216449 30.5836977,24.6739247 37.8133121,24.6739247 C45.0429265,24.6739247 50.9025355,30.5216449 50.9025355,37.7365908 C50.9025355,44.9500853 45.0429265,50.7992568 37.8133121,50.7992568 Z" id="Shape" fill="#31475B" opacity="0.25"></path>
                        <path d="M37.8133121,18.8682954 C27.3710205,18.8682954 18.906656,27.3154861 18.906656,37.7365908 C18.906656,48.1576955 27.3710205,56.6048862 37.8133121,56.6048862 C48.2556036,56.6048862 56.7199681,48.1576955 56.7199681,37.7365908 C56.7199681,27.3154861 48.2556036,18.8682954 37.8133121,18.8682954 Z M37.8133121,50.7992568 C30.5836977,50.7992568 24.7240887,44.9500853 24.7240887,37.7365908 C24.7240887,30.5216449 30.5836977,24.6739247 37.8133121,24.6739247 C45.0429265,24.6739247 50.9025355,30.5216449 50.9025355,37.7365908 C50.9025355,44.9500853 45.0429265,50.7992568 37.8133121,50.7992568 Z" id="Shape" fill="#E5E5E5"></path>
                    </g>
                    <g id="settings-(9)" transform="translate(186.946801, 29.999818) rotate(17.000000) translate(-186.946801, -29.999818) translate(162.946801, 5.999818)" fill-rule="nonzero">
                        <path d="M46.2804988,19.3137769 L43.7028578,19.3137769 C43.1941492,17.1294807 42.3333996,15.0813006 41.178668,13.2317766 L43.0015404,11.4126027 C43.642034,10.7734087 43.642034,9.73598294 43.0015404,9.0967889 L38.8056163,4.90937814 C38.1651227,4.27018409 37.1255878,4.27018409 36.4850943,4.90937814 L34.6622219,6.72855197 C32.8098592,5.57708299 30.7575151,4.71807977 28.568778,4.21040335 L28.568778,1.63799222 C28.568778,0.733003817 27.834284,0 26.9274557,0 L20.993444,0 C20.0875373,0 19.3530432,0.733003817 19.3530432,1.63799222 L19.3530432,4.21040335 C17.1643062,4.71807977 15.111962,5.57708299 13.2586777,6.72947168 L11.436727,4.91029784 C10.7962334,4.2711038 9.75669849,4.2711038 9.11620491,4.91029784 L4.92028084,9.0977086 C4.27978726,9.73690265 4.27978726,10.7743284 4.92028084,11.4135224 L6.74315319,13.2326963 C5.58842161,15.0813006 4.72767198,17.1294807 4.21896341,19.3137769 L1.64132238,19.3137769 C0.734494068,19.3137769 0,20.0467807 0,20.9517691 L0,26.8737409 C0,27.7778096 0.734494068,28.5108135 1.64132238,28.5108135 L4.21896341,28.5108135 C4.72767198,30.6951096 5.58842161,32.7432897 6.74315319,34.5928138 L4.92028084,36.4110679 C4.27978726,37.0511816 4.27978726,38.0876877 4.92028084,38.7268817 L9.11620491,42.9142925 C9.75669849,43.5534865 10.7962334,43.5534865 11.436727,42.9142925 L13.2595993,41.0951186 C15.1128836,42.2465876 17.1652277,43.1065105 19.3539648,43.6141869 L19.3539648,46.1865981 C19.3530432,47.0915865 20.0875373,47.8245903 20.9943656,47.8245903 L26.9283772,47.8245903 C27.834284,47.8245903 28.568778,47.0915865 28.568778,46.1865981 L28.568778,43.6141869 C30.7575151,43.1065105 32.8098592,42.2475073 34.6631435,41.0951186 L36.4860158,42.9142925 C37.1265094,43.5534865 38.1660443,43.5534865 38.8065379,42.9142925 L43.002462,38.7268817 C43.6429555,38.0876877 43.6429555,37.0502619 43.002462,36.4110679 L41.1795896,34.591894 C42.3333996,32.7432897 43.1941492,30.6941899 43.7037794,28.5098937 L46.2814204,28.5098937 C47.1873272,28.5108135 47.9218212,27.7778096 47.9218212,26.8728212 L47.9218212,20.9508494 C47.9218212,20.0467807 47.1873272,19.3137769 46.2804988,19.3137769 Z M23.9609106,32.1896281 C19.3797688,32.1896281 15.6667492,28.4832223 15.6667492,23.9122952 C15.6667492,19.3404483 19.3797688,15.6349622 23.9609106,15.6349622 C28.5420524,15.6349622 32.255072,19.3404483 32.255072,23.9122952 C32.255072,28.4832223 28.5420524,32.1896281 23.9609106,32.1896281 Z" id="Shape" fill="#31475B" opacity="0.25"></path>
                        <path d="M23.9609106,11.9561476 C17.344013,11.9561476 11.9804553,17.3088229 11.9804553,23.9122952 C11.9804553,30.5157674 17.344013,35.8684427 23.9609106,35.8684427 C30.5778082,35.8684427 35.9413659,30.5157674 35.9413659,23.9122952 C35.9413659,17.3088229 30.5778082,11.9561476 23.9609106,11.9561476 Z M23.9609106,32.1896281 C19.3797688,32.1896281 15.6667492,28.4832223 15.6667492,23.9122952 C15.6667492,19.3404483 19.3797688,15.6349622 23.9609106,15.6349622 C28.5420524,15.6349622 32.255072,19.3404483 32.255072,23.9122952 C32.255072,28.4832223 28.5420524,32.1896281 23.9609106,32.1896281 Z" id="Shape" fill="#E5E5E5"></path>
                    </g>
                    <path d="M77.496553,204.114595 L77.496553,211.506647 L136.541486,211.506647 L136.541486,204.114595 L199.277328,204.114595 L199.277328,85.8405087 C199.277328,81.7565622 195.974364,78.4484568 191.896764,78.4484568 L22.1421112,78.4484568 C18.0645113,78.4484568 14.7615468,81.7565622 14.7615468,85.8405087 L14.7615468,204.114595 L77.496553,204.114595 Z" id="Shape" fill="#31475B" fill-rule="nonzero"></path>
                    <path d="M136.541904,204.114595 L136.541904,211.506647 L77.496553,211.506647 L77.496553,204.114595 L0,204.114595 L0,215.202883 C0,219.286829 3.30296455,222.594935 7.38056437,222.594935 L206.657893,222.594935 C210.735493,222.594935 214.038457,219.286829 214.038457,215.202883 L214.038457,204.114595 L136.541904,204.114595 Z" id="Shape" fill="#DDDDDD" fill-rule="nonzero"></path>
                    <polygon id="Shape" fill="#EEF2F3" fill-rule="nonzero" points="22.1421112 196.722544 191.896346 196.722544 191.896346 85.8405087 22.1421112 85.8405087"></polygon>
                    <path d="M75.0061912,108.822388 L69.4349914,108.822388 C68.4098637,108.822388 67.5778547,107.992558 67.5778547,106.970116 C67.5778547,105.947674 68.4098637,105.117845 69.4349914,105.117845 L75.0061912,105.117845 C76.0313189,105.117845 76.863328,105.947674 76.863328,106.970116 C76.8631176,107.992558 76.0313189,108.822388 75.0061912,108.822388" id="Shape" fill="#979E9F" fill-rule="nonzero"></path>
                    <path d="M100.770223,108.822388 L82.1996973,108.822388 C81.1745696,108.822388 80.3425606,107.992558 80.3425606,106.970116 C80.3425606,105.947674 81.1745696,105.117845 82.1996973,105.117845 L100.770223,105.117845 C101.795351,105.117845 102.62736,105.947674 102.62736,106.970116 C102.62715,107.992558 101.795351,108.822388 100.770223,108.822388" id="Shape" fill="#979E9F" fill-rule="nonzero"></path>
                    <path d="M75.0061912,122.337539 L69.4349914,122.337539 C68.4098637,122.337539 67.5778547,121.50771 67.5778547,120.485268 C67.5778547,119.462826 68.4098637,118.632997 69.4349914,118.632997 L75.0061912,118.632997 C76.0313189,118.632997 76.863328,119.462826 76.863328,120.485268 C76.8631176,121.50771 76.0313189,122.337539 75.0061912,122.337539" id="Shape" fill="#979E9F" fill-rule="nonzero"></path>
                    <path d="M100.770223,122.337539 L82.1996973,122.337539 C81.1745696,122.337539 80.3425606,121.50771 80.3425606,120.485268 C80.3425606,119.462826 81.1745696,118.632997 82.1996973,118.632997 L100.770223,118.632997 C101.795351,118.632997 102.62736,119.462826 102.62736,120.485268 C102.62715,121.50771 101.795351,122.337539 100.770223,122.337539" id="Shape" fill="#979E9F" fill-rule="nonzero"></path>
                    <path d="M78.7202543,115.579964 L69.4349914,115.579964 C68.4098637,115.579964 67.5778547,114.750134 67.5778547,113.727692 C67.5778547,112.70525 68.4098637,111.875421 69.4349914,111.875421 L78.7202543,111.875421 C79.745382,111.875421 80.5773911,112.70525 80.5773911,113.727692 C80.5773911,114.750134 79.745382,115.579964 78.7202543,115.579964" id="Shape" fill="#979E9F" fill-rule="nonzero"></path>
                    <path d="M91.5252224,115.579964 L85.9540225,115.579964 C84.9288949,115.579964 84.0968858,114.750134 84.0968858,113.727692 C84.0968858,112.70525 84.9288949,111.875421 85.9540225,111.875421 L91.5252224,111.875421 C92.5503501,111.875421 93.3823591,112.70525 93.3823591,113.727692 C93.3823591,114.750134 92.5503501,115.579964 91.5252224,115.579964" id="Shape" fill="#979E9F" fill-rule="nonzero"></path>
                    <path d="M100.575865,115.579964 L98.7187284,115.579964 C97.6936007,115.579964 96.8615917,114.750134 96.8615917,113.727692 C96.8615917,112.70525 97.6936007,111.875421 98.7187284,111.875421 L100.575865,111.875421 C101.600993,111.875421 102.433002,112.70525 102.433002,113.727692 C102.433002,114.750134 101.600993,115.579964 100.575865,115.579964" id="Shape" fill="#979E9F" fill-rule="nonzero"></path>
                    <g id="Group-14" transform="translate(151.674740, 105.117845)" fill-rule="nonzero" fill="#979E9F">
                        <path d="M7.42833657,3.70454264 L1.85713673,3.70454264 C0.832009037,3.70454264 0,2.87471334 0,1.85227132 C0,0.8298293 0.832009037,0 1.85713673,0 L7.42833657,0 C8.45346426,0 9.2854733,0.8298293 9.2854733,1.85227132 C9.28526293,2.87471334 8.45346426,3.70454264 7.42833657,3.70454264" id="Shape"></path>
                        <path d="M33.1923685,3.70454264 L14.6218426,3.70454264 C13.5967149,3.70454264 12.7647059,2.87471334 12.7647059,1.85227132 C12.7647059,0.8298293 13.5967149,0 14.6218426,0 L33.1923685,0 C34.2174962,0 35.0495052,0.8298293 35.0495052,1.85227132 C35.0492948,2.87471334 34.2174962,3.70454264 33.1923685,3.70454264" id="Shape"></path>
                        <path d="M7.42833657,17.2196942 L1.85713673,17.2196942 C0.832009037,17.2196942 0,16.3898649 0,15.3674228 C0,14.3449808 0.832009037,13.5151515 1.85713673,13.5151515 L7.42833657,13.5151515 C8.45346426,13.5151515 9.2854733,14.3449808 9.2854733,15.3674228 C9.28526293,16.3898649 8.45346426,17.2196942 7.42833657,17.2196942" id="Shape"></path>
                        <path d="M33.1923685,17.2196942 L14.6218426,17.2196942 C13.5967149,17.2196942 12.7647059,16.3898649 12.7647059,15.3674228 C12.7647059,14.3449808 13.5967149,13.5151515 14.6218426,13.5151515 L33.1923685,13.5151515 C34.2174962,13.5151515 35.0495052,14.3449808 35.0495052,15.3674228 C35.0492948,16.3898649 34.2174962,17.2196942 33.1923685,17.2196942" id="Shape"></path>
                        <path d="M11.1423997,10.4621184 L1.85713673,10.4621184 C0.832009037,10.4621184 0,9.63228909 0,8.60984708 C0,7.58740506 0.832009037,6.75757576 1.85713673,6.75757576 L11.1423997,6.75757576 C12.1675274,6.75757576 12.9995364,7.58740506 12.9995364,8.60984708 C12.9995364,9.63228909 12.1675274,10.4621184 11.1423997,10.4621184" id="Shape"></path>
                        <path d="M23.9473677,10.4621184 L18.3761679,10.4621184 C17.3510402,10.4621184 16.5190311,9.63228909 16.5190311,8.60984708 C16.5190311,7.58740506 17.3510402,6.75757576 18.3761679,6.75757576 L23.9473677,6.75757576 C24.9724954,6.75757576 25.8045044,7.58740506 25.8045044,8.60984708 C25.8045044,9.63228909 24.9724954,10.4621184 23.9473677,10.4621184" id="Shape"></path>
                        <path d="M32.9980105,10.4621184 L31.1408738,10.4621184 C30.1157461,10.4621184 29.283737,9.63228909 29.283737,8.60984708 C29.283737,7.58740506 30.1157461,6.75757576 31.1408738,6.75757576 L32.9980105,6.75757576 C34.0231382,6.75757576 34.8551472,7.58740506 34.8551472,8.60984708 C34.8551472,9.63228909 34.0231382,10.4621184 32.9980105,10.4621184" id="Shape"></path>
                    </g>
                    <polygon id="Path-4" fill="#F9A53D" points="22.1421112 151.432463 191.896346 151.432463 191.896346 196.448884 22.1421112 197.017732"></polygon>
                    <path d="M108.5,155.048822 L108.5,192.658424" id="Line-4" stroke="#C54D1C" stroke-linecap="square"></path>
                    <path d="M108.5,94.9814815 L108.5,132.591084" id="Line-4" stroke="#D5D5D5" stroke-linecap="square"></path>
                    <g id="pie-chart-(4)" transform="translate(34.539792, 163.683502)">
                        <g id="Group-26">
                            <path d="M11.7016995,0.117225113 C11.6239126,0.0443051789 11.5194178,0.00705830622 11.413063,0.0136873911 C8.32181052,0.212846086 5.4466061,1.56842241 3.31712533,3.83065725 C1.17801064,6.10300263 0,9.07392956 0,12.1961809 C0,14.1656391 0.48088588,16.1235083 1.39052948,17.8582301 C1.44008223,17.9526111 1.52640609,18.0223357 1.62918394,18.0508551 C1.66304578,18.0602026 1.69762302,18.0648286 1.73215256,18.0648286 C1.80235627,18.0648286 1.87189228,18.0456568 1.93293899,18.0084576 L6.76478569,15.0631885 C6.93047026,14.9622261 6.99533239,14.753863 6.91630552,14.57669 C6.58465022,13.8330879 6.41648562,13.0401254 6.41648562,12.2198357 C6.41648562,9.30303837 8.59566222,6.83210659 11.4855083,6.47208528 C11.6786162,6.44800119 11.8236021,6.28389557 11.8236021,6.08931524 L11.8236021,0.398698919 C11.8236021,0.292061266 11.7794387,0.190145047 11.7016995,0.117225113 Z" id="Shape" fill="#F4F4F4" fill-rule="nonzero"></path>
                            <path d="M21.1016521,3.83065725 C18.9721236,1.56842241 16.0969192,0.212846086 13.0057143,0.0136873911 C12.8989303,0.00653370238 12.7947694,0.0443051789 12.7170779,0.117225113 C12.639291,0.190145047 12.5951753,0.292013574 12.5951753,0.398603537 L12.5951753,6.08921986 C12.5951753,6.28384788 12.7401135,6.4479535 12.9332691,6.47198989 C15.8230675,6.8320112 18.0022918,9.30299068 18.0022918,12.2197403 C18.0022918,13.0390762 17.8345087,13.8311803 17.5035688,14.574067 C17.4246373,14.7512877 17.4895948,14.9596031 17.6553748,15.0604701 L22.4886523,18.00345 C22.5496513,18.0406492 22.6191396,18.0597257 22.6892956,18.0597257 C22.7238252,18.0597257 22.7585455,18.0550996 22.7924073,18.0457045 C22.8951375,18.0172328 22.9814613,17.9474128 23.0309664,17.8529841 C23.9388931,16.1197407 24.4187774,14.1636837 24.4187774,12.1961809 C24.418682,9.07392956 23.2406714,6.10300263 21.1016521,3.83065725 Z" id="Shape" fill="#D0CFCF" fill-rule="nonzero"></path>
                            <path d="M22.2633518,18.9125885 C22.2416039,18.8080969 22.1775048,18.7172928 22.0863163,18.6617801 L17.2572835,15.7215187 C17.0909312,15.6202701 16.8751216,15.6588047 16.7542205,15.8115598 C15.6471767,17.2102967 13.9906171,18.0125113 12.2093887,18.0125113 C10.4292095,18.0125113 8.77331767,17.2111551 7.66632152,15.8138013 C7.54527735,15.6610462 7.32951541,15.6225116 7.16311544,15.7239509 L2.33551339,18.6665969 C2.24437257,18.7221573 2.18032122,18.8129614 2.15857333,18.9175007 C2.13687314,19.0219922 2.1594318,19.1308237 2.22086005,19.2180987 C4.50839455,22.4660641 8.24240211,24.405143 12.209341,24.405143 C16.1785691,24.405143 19.9138167,22.4642518 22.2011604,19.2132341 C22.2625887,19.1258638 22.2850997,19.0170323 22.2633518,18.9125885 Z" id="Shape" fill="#E4E4E4" fill-rule="nonzero"></path>
                            <ellipse id="Oval-5" fill="#FF9803" cx="12.0138408" cy="12.013468" rx="9.01038062" ry="9.01010101"></ellipse>
                            <path d="M7.6550692,12.6441751 L7.6550692,9.96817508 L5.83722491,12.6441751 L7.6550692,12.6441751 Z M7.63479585,14.2659933 L7.63479585,13.171266 L5.12089965,13.171266 L5.12089965,12.7387811 L7.44557785,9.40053872 L8.22948097,9.40053872 L8.22948097,12.6441751 L8.88498616,12.6441751 L8.88498616,13.171266 L8.22948097,13.171266 L8.22948097,14.2659933 L7.63479585,14.2659933 Z M9.6553737,15.4147811 L11.5002491,7.9003569 L12.1084498,7.9003569 L10.2635744,15.4147811 L9.6553737,15.4147811 Z M13.6492249,14.2659933 L13.6492249,10.0154781 L13.0950865,10.0154781 L13.0950865,9.46811448 L14.2506678,9.46811448 L14.2506678,14.2659933 L13.6492249,14.2659933 Z M16.355718,9.45459933 C16.5562,9.36900294 16.8062355,9.32620539 17.1058322,9.32620539 C17.4054288,9.32620539 17.6689798,9.38814921 17.8964931,9.51203872 C18.1240063,9.63592823 18.2985807,9.8150022 18.4202215,10.049266 C18.6409769,10.481753 18.7513529,11.0628987 18.7513529,11.7927205 C18.7513529,12.7297757 18.5846626,13.394264 18.2512768,13.7862054 C17.9764588,14.1015605 17.5777535,14.2592357 17.0551488,14.2592357 C16.0955385,14.2592357 15.5436582,13.6983625 15.3994913,12.5765993 C15.3724601,12.3423355 15.3589446,12.079919 15.3589446,11.7893418 C15.3589446,11.4987645 15.3735864,11.2374742 15.4028702,11.005463 C15.4321541,10.7734517 15.4862159,10.5493277 15.5650571,10.3330842 C15.6438983,10.1168407 15.7452641,9.9377667 15.8691574,9.7958569 C15.9930508,9.6539471 16.155236,9.54019571 16.355718,9.45459933 Z M17.6396972,10.0256145 C17.4842674,9.92425033 17.3006827,9.87356902 17.0889377,9.87356902 C16.8771927,9.87356902 16.7026183,9.90960907 16.5652093,9.98169024 C16.4278004,10.0537714 16.3208032,10.146124 16.2442145,10.2587508 C16.1676259,10.3713777 16.1068065,10.5166641 16.0617543,10.6946145 C16.0167022,10.8725649 15.988545,11.0437551 15.977282,11.2081902 C15.966019,11.3726254 15.9603875,11.5674669 15.9603875,11.7927205 C15.9603875,12.0179742 15.966019,12.2128157 15.977282,12.3772508 C15.988545,12.541686 16.0167022,12.7128762 16.0617543,12.8908266 C16.1068065,13.068777 16.1676259,13.2140634 16.2442145,13.3266902 C16.3208032,13.4393171 16.4278004,13.5316697 16.5652093,13.6037508 C16.7026183,13.675832 16.8659298,13.7118721 17.0551488,13.7118721 C17.2443677,13.7118721 17.4076792,13.675832 17.5450882,13.6037508 C17.6824972,13.5316697 17.7906207,13.4393171 17.8694619,13.3266902 C17.9483032,13.2140634 18.0079963,13.0676507 18.0485433,12.8874478 C18.1206267,12.5991231 18.1566678,12.2725102 18.1566678,11.9075993 C18.1566678,11.5426884 18.1442787,11.2611256 18.1195,11.0629024 C18.0947213,10.8646791 18.0474173,10.6675852 17.9775865,10.4716145 C17.9077557,10.2756438 17.7951271,10.1269786 17.6396972,10.0256145 Z" id="4/10" fill="#FFFFFF"></path>
                        </g>
                        <g id="Group-26" transform="translate(39.044983, 0.000000)">
                            <path d="M11.7016995,0.117225113 C11.6239126,0.0443051789 11.5194178,0.00705830622 11.413063,0.0136873911 C8.32181052,0.212846086 5.4466061,1.56842241 3.31712533,3.83065725 C1.17801064,6.10300263 0,9.07392956 0,12.1961809 C0,14.1656391 0.48088588,16.1235083 1.39052948,17.8582301 C1.44008223,17.9526111 1.52640609,18.0223357 1.62918394,18.0508551 C1.66304578,18.0602026 1.69762302,18.0648286 1.73215256,18.0648286 C1.80235627,18.0648286 1.87189228,18.0456568 1.93293899,18.0084576 L6.76478569,15.0631885 C6.93047026,14.9622261 6.99533239,14.753863 6.91630552,14.57669 C6.58465022,13.8330879 6.41648562,13.0401254 6.41648562,12.2198357 C6.41648562,9.30303837 8.59566222,6.83210659 11.4855083,6.47208528 C11.6786162,6.44800119 11.8236021,6.28389557 11.8236021,6.08931524 L11.8236021,0.398698919 C11.8236021,0.292061266 11.7794387,0.190145047 11.7016995,0.117225113 Z" id="Shape" fill="#F4F4F4" fill-rule="nonzero"></path>
                            <path d="M21.1016521,3.83065725 C18.9721236,1.56842241 16.0969192,0.212846086 13.0057143,0.0136873911 C12.8989303,0.00653370238 12.7947694,0.0443051789 12.7170779,0.117225113 C12.639291,0.190145047 12.5951753,0.292013574 12.5951753,0.398603537 L12.5951753,6.08921986 C12.5951753,6.28384788 12.7401135,6.4479535 12.9332691,6.47198989 C15.8230675,6.8320112 18.0022918,9.30299068 18.0022918,12.2197403 C18.0022918,13.0390762 17.8345087,13.8311803 17.5035688,14.574067 C17.4246373,14.7512877 17.4895948,14.9596031 17.6553748,15.0604701 L22.4886523,18.00345 C22.5496513,18.0406492 22.6191396,18.0597257 22.6892956,18.0597257 C22.7238252,18.0597257 22.7585455,18.0550996 22.7924073,18.0457045 C22.8951375,18.0172328 22.9814613,17.9474128 23.0309664,17.8529841 C23.9388931,16.1197407 24.4187774,14.1636837 24.4187774,12.1961809 C24.418682,9.07392956 23.2406714,6.10300263 21.1016521,3.83065725 Z" id="Shape" fill="#D0CFCF" fill-rule="nonzero"></path>
                            <path d="M22.2633518,18.9125885 C22.2416039,18.8080969 22.1775048,18.7172928 22.0863163,18.6617801 L17.2572835,15.7215187 C17.0909312,15.6202701 16.8751216,15.6588047 16.7542205,15.8115598 C15.6471767,17.2102967 13.9906171,18.0125113 12.2093887,18.0125113 C10.4292095,18.0125113 8.77331767,17.2111551 7.66632152,15.8138013 C7.54527735,15.6610462 7.32951541,15.6225116 7.16311544,15.7239509 L2.33551339,18.6665969 C2.24437257,18.7221573 2.18032122,18.8129614 2.15857333,18.9175007 C2.13687314,19.0219922 2.1594318,19.1308237 2.22086005,19.2180987 C4.50839455,22.4660641 8.24240211,24.405143 12.209341,24.405143 C16.1785691,24.405143 19.9138167,22.4642518 22.2011604,19.2132341 C22.2625887,19.1258638 22.2850997,19.0170323 22.2633518,18.9125885 Z" id="Shape" fill="#E4E4E4" fill-rule="nonzero"></path>
                            <ellipse id="Oval-5" fill="#FF9803" cx="12.0138408" cy="12.013468" rx="9.01038062" ry="9.01010101"></ellipse>
                            <path d="M6.17586505,9.32620539 L9.10198616,9.32620539 L9.10198616,9.86005387 L6.74351903,9.86005387 L6.74351903,11.4075387 C6.84263371,11.2588713 6.99355608,11.1349837 7.19629066,11.0358721 C7.39902524,10.9367604 7.62991393,10.8872054 7.88896367,10.8872054 C8.14801341,10.8872054 8.38453353,10.9356342 8.59853114,11.0324933 C8.81252875,11.1293523 8.97809284,11.2611237 9.09522837,11.4278114 C9.3159838,11.7521767 9.42635986,12.1215872 9.42635986,12.5360539 C9.42635986,13.0451271 9.28444779,13.4607139 9.00061938,13.7828266 C8.71679097,14.1049393 8.3192119,14.2659933 7.80787024,14.2659933 C7.29652859,14.2659933 6.89557066,14.1466106 6.60498443,13.9078418 C6.3143982,13.6690729 6.1330661,13.3537225 6.0609827,12.9617811 L6.64891003,12.9617811 C6.71198301,13.2050551 6.84150594,13.3965178 7.0374827,13.5361751 C7.23345946,13.6758323 7.49250531,13.7456599 7.81462803,13.7456599 C8.13675075,13.7456599 8.38903888,13.6375398 8.5715,13.4212963 C8.75396112,13.2050528 8.84519031,12.9144799 8.84519031,12.549569 C8.84519031,12.1846581 8.75396112,11.9042215 8.5715,11.7082508 C8.38903888,11.5122802 8.11760388,11.4142963 7.75718685,11.4142963 C7.51390536,11.4142963 7.3044161,11.4773664 7.1287128,11.6035084 C6.9530095,11.7296505 6.82236029,11.9008407 6.73676125,12.1170842 L6.17586505,12.1170842 L6.17586505,9.32620539 Z M10.4062388,15.4147811 L12.2511142,7.9003569 L12.8593149,7.9003569 L11.0144394,15.4147811 L10.4062388,15.4147811 Z M14.40009,14.2659933 L14.40009,10.0154781 L13.8459516,10.0154781 L13.8459516,9.46811448 L15.0015329,9.46811448 L15.0015329,14.2659933 L14.40009,14.2659933 Z M17.106583,9.45459933 C17.307065,9.36900294 17.5571006,9.32620539 17.8566972,9.32620539 C18.1562939,9.32620539 18.4198449,9.38814921 18.6473581,9.51203872 C18.8748714,9.63592823 19.0494458,9.8150022 19.1710865,10.049266 C19.3918419,10.481753 19.502218,11.0628987 19.502218,11.7927205 C19.502218,12.7297757 19.3355276,13.394264 19.0021419,13.7862054 C18.7273239,14.1015605 18.3286185,14.2592357 17.8060138,14.2592357 C16.8464035,14.2592357 16.2945232,13.6983625 16.1503564,12.5765993 C16.1233251,12.3423355 16.1098097,12.079919 16.1098097,11.7893418 C16.1098097,11.4987645 16.1244514,11.2374742 16.1537353,11.005463 C16.1830192,10.7734517 16.2370809,10.5493277 16.3159221,10.3330842 C16.3947634,10.1168407 16.4961291,9.9377667 16.6200225,9.7958569 C16.7439158,9.6539471 16.9061011,9.54019571 17.106583,9.45459933 Z M18.3905623,10.0256145 C18.2351324,9.92425033 18.0515478,9.87356902 17.8398028,9.87356902 C17.6280578,9.87356902 17.4534834,9.90960907 17.3160744,9.98169024 C17.1786654,10.0537714 17.0716682,10.146124 16.9950796,10.2587508 C16.918491,10.3713777 16.8576715,10.5166641 16.8126194,10.6946145 C16.7675672,10.8725649 16.7394101,11.0437551 16.7281471,11.2081902 C16.716884,11.3726254 16.7112526,11.5674669 16.7112526,11.7927205 C16.7112526,12.0179742 16.716884,12.2128157 16.7281471,12.3772508 C16.7394101,12.541686 16.7675672,12.7128762 16.8126194,12.8908266 C16.8576715,13.068777 16.918491,13.2140634 16.9950796,13.3266902 C17.0716682,13.4393171 17.1786654,13.5316697 17.3160744,13.6037508 C17.4534834,13.675832 17.6167949,13.7118721 17.8060138,13.7118721 C17.9952328,13.7118721 18.1585443,13.675832 18.2959533,13.6037508 C18.4333623,13.5316697 18.5414858,13.4393171 18.620327,13.3266902 C18.6991682,13.2140634 18.7588614,13.0676507 18.7994083,12.8874478 C18.8714917,12.5991231 18.9075329,12.2725102 18.9075329,11.9075993 C18.9075329,11.5426884 18.8951437,11.2611256 18.8703651,11.0629024 C18.8455864,10.8646791 18.7982824,10.6675852 18.7284516,10.4716145 C18.6586208,10.2756438 18.5459921,10.1269786 18.3905623,10.0256145 Z" id="5/10" fill="#FFFFFF"></path>
                        </g>
                    </g>
                    <polygon id="Path-4" fill="#E38005" points="22.1421112 141.281526 191.896346 141.281526 191.896346 151.305792 22.1421112 151.432463"></polygon>
                </g>
                <g id="Group-36" transform="translate(116.000000, 161.000000)">
                    <g id="Group-35">
                        <g id="Group-30" transform="translate(0.835105, 0.000000)">
                            <ellipse id="Oval-6" stroke="#F1F1F1" stroke-width="2" cx="14.1366429" cy="15.08265" rx="12.4664325" ry="12.5587765"></ellipse>
                            <g id="Group-29" fill="#F9A53D">
                                <rect id="Rectangle-15" x="0" y="0" width="14.1967884" height="30.286482"></rect>
                                <rect id="Rectangle-15" transform="translate(15.449446, 24.818089) rotate(43.000000) translate(-15.449446, -24.818089) " x="8.35105202" y="19.3496968" width="14.1967884" height="10.9367852"></rect>
                            </g>
                        </g>
                        <g id="Group-31" transform="translate(0.000000, 3.365165)">
                            <ellipse id="Oval-9" stroke="#F05244" stroke-width="2" cx="15.1369954" cy="11.6721961" rx="9.91616069" ry="9.98961373"></ellipse>
                            <rect id="Rectangle-18" fill="#F9A53D" x="0" y="0" width="15.0318936" height="15.9845322"></rect>
                            <path d="M10.64625,11.968 L10.64625,9.2752 L8.8305,11.968 L10.64625,11.968 Z M10.626,13.6 L10.626,12.4984 L8.115,12.4984 L8.115,12.0632 L10.437,8.704 L11.22,8.704 L11.22,11.968 L11.87475,11.968 L11.87475,12.4984 L11.22,12.4984 L11.22,13.6 L10.626,13.6 Z M12.64425,14.756 L14.487,7.1944 L15.0945,7.1944 L13.25175,14.756 L12.64425,14.756 Z M16.6335,13.6 L16.6335,9.3228 L16.08,9.3228 L16.08,8.772 L17.23425,8.772 L17.23425,13.6 L16.6335,13.6 Z M19.336875,8.7584 C19.537126,8.67226624 19.7868735,8.6292 20.086125,8.6292 C20.3853765,8.6292 20.6486239,8.69153271 20.875875,8.8162 C21.1031261,8.94086729 21.2774994,9.12106549 21.399,9.3568 C21.6195011,9.79200218 21.72975,10.3767963 21.72975,11.1112 C21.72975,12.054138 21.5632517,12.722798 21.23025,13.1172 C20.9557486,13.4345349 20.5575026,13.5932 20.0355,13.5932 C19.0769952,13.5932 18.5257507,13.0288056 18.38175,11.9 C18.3547499,11.6642655 18.34125,11.4002015 18.34125,11.1078 C18.34125,10.8153985 18.3558749,10.5524678 18.385125,10.319 C18.4143751,10.0855322 18.4683746,9.86000109 18.547125,9.6424 C18.6258754,9.42479891 18.7271244,9.24460071 18.850875,9.1018 C18.9746256,8.95899929 19.136624,8.84453376 19.336875,8.7584 Z M20.619375,9.333 C20.4641242,9.23099949 20.2807511,9.18 20.06925,9.18 C19.8577489,9.18 19.6833757,9.2162663 19.546125,9.2888 C19.4088743,9.3613337 19.3020004,9.4542661 19.2255,9.5676 C19.1489996,9.6809339 19.0882502,9.82713244 19.04325,10.0062 C18.9982498,10.1852676 18.9701251,10.3575325 18.958875,10.523 C18.9476249,10.6884675 18.942,10.8845322 18.942,11.1112 C18.942,11.3378678 18.9476249,11.5339325 18.958875,11.6994 C18.9701251,11.8648675 18.9982498,12.0371324 19.04325,12.2162 C19.0882502,12.3952676 19.1489996,12.5414661 19.2255,12.6548 C19.3020004,12.7681339 19.4088743,12.8610663 19.546125,12.9336 C19.6833757,13.0061337 19.8464991,13.0424 20.0355,13.0424 C20.2245009,13.0424 20.3876243,13.0061337 20.524875,12.9336 C20.6621257,12.8610663 20.7701246,12.7681339 20.848875,12.6548 C20.9276254,12.5414661 20.9872498,12.3941342 21.02775,12.2128 C21.0997504,11.9226652 21.13575,11.5940018 21.13575,11.2268 C21.13575,10.8595982 21.1233751,10.5762677 21.098625,10.3768 C21.0738749,10.1773323 21.0266253,9.97900099 20.956875,9.7818 C20.8871247,9.58459901 20.7746258,9.43500051 20.619375,9.333 Z" id="4/10" fill="#FFFFFF"></path>
                        </g>
                    </g>
                    <g id="Group-35" transform="translate(40.500000, 0.000000)">
                        <g id="Group-30" transform="translate(0.085105, 0.000000)">
                            <ellipse id="Oval-6" stroke="#F1F1F1" stroke-width="2" cx="14.8866429" cy="15.08265" rx="12.4664325" ry="12.5587765"></ellipse>
                            <g id="Group-29" transform="translate(0.000000, 0.000000)" fill="#F9A53D">
                                <rect id="Rectangle-15" x="0.75" y="0" width="14.1967884" height="30.286482"></rect>
                                <rect id="Rectangle-15" transform="translate(5.699446, 24.818089) rotate(-270.000000) translate(-5.699446, -24.818089) " x="-1.39894798" y="19.3496968" width="14.1967884" height="10.9367852"></rect>
                            </g>
                        </g>
                        <g id="Group-31" transform="translate(0.000000, 3.365165)">
                            <ellipse id="Oval-9" stroke="#EFB559" stroke-width="2" cx="15.1369954" cy="11.6721961" rx="9.91616069" ry="9.98961373"></ellipse>
                            <rect id="Rectangle-18" fill="#F9A53D" x="0" y="0" width="15.0318936" height="23.3091192"></rect>
                            <rect id="Rectangle-18" fill="#F9A53D" x="13.5" y="12.8444444" width="5.78265381" height="9.59143255"></rect>
                        </g>
                    </g>
                </g>
                <g id="Group-2" transform="translate(32.000000, 100.000000)">
                    <g id="pie-chart-(5)" fill-rule="nonzero">
                        <path d="M15.2121822,13.2120256 L28.4242078,13.2120256 C27.9413437,6.13541659 22.2887913,0.482373391 15.2121822,0 L15.2121822,13.2120256 Z" id="Shape" fill="#F05244"></path>
                        <path d="M24.6874089,23.8374895 C26.8185865,21.5262193 28.1965158,18.5093 28.4237171,15.1748878 L16.0248072,15.1748878 L24.6874089,23.8374895 Z" id="Shape" fill="#C5372A"></path>
                        <path d="M13.24932,15.1748878 L13.24932,0 C5.84834799,0.504455591 0,6.66391725 0,14.1934567 C0,22.0527571 6.37145077,28.4242078 14.2307511,28.4242078 C17.6608528,28.4242078 20.8043767,27.207724 23.2604081,25.1859759 L13.24932,15.1748878 Z" id="Shape" fill="#F9A53D"></path>
                    </g>
                    <g id="graph-(7)" transform="translate(80.504762, 0.000000)" fill-rule="nonzero">
                        <rect id="Rectangle-path" fill="#F05244" x="18.3372412" y="0" width="5.73038788" height="25.7867454"></rect>
                        <rect id="Rectangle-path" fill="#DC8F30" x="9.74165939" y="17.7642024" width="5.73038788" height="8.02254303"></rect>
                        <rect id="Rectangle-path" fill="#F9A53D" x="1.14607758" y="12.6068533" width="5.73038788" height="13.1798921"></rect>
                        <rect id="Rectangle-path" fill="#C5372A" x="26.932823" y="4.5843103" width="5.73038788" height="21.2024351"></rect>
                        <path d="M33.8092885,26.3597842 L0.573038788,26.3597842 C0.256721377,26.3597842 0,26.1036359 0,25.7867454 C0,25.469855 0.256721377,25.2137067 0.573038788,25.2137067 L33.8092885,25.2137067 C34.1256059,25.2137067 34.3823273,25.469855 34.3823273,25.7867454 C34.3823273,26.1036359 34.1256059,26.3597842 33.8092885,26.3597842 Z" id="Shape" fill="#C7CFE2"></path>
                    </g>
                    <path d="M2.93428571,58.6059619 C2.93428571,58.2929699 2.84550565,58.0431819 2.66794286,57.8565905 C2.49038006,57.6699991 2.25864905,57.5767048 1.97274286,57.5767048 C1.68683667,57.5767048 1.45435328,57.6707514 1.27528571,57.8588476 C1.09621815,58.0469438 1.00668571,58.2967318 1.00668571,58.608219 C1.00668571,58.9197063 1.09621815,59.1694943 1.27528571,59.3575905 C1.45435328,59.5456867 1.68683667,59.6397333 1.97274286,59.6397333 C2.25864905,59.6397333 2.49038006,59.5456867 2.66794286,59.3575905 C2.84550565,59.1694943 2.93428571,58.9189539 2.93428571,58.6059619 Z M0.826114286,59.7661333 C0.516131783,59.4621699 0.361142857,59.0762023 0.361142857,58.608219 C0.361142857,58.1402358 0.516884157,57.7542682 0.828371429,57.4503048 C1.1398587,57.1463413 1.5220644,56.9943619 1.975,56.9943619 C2.4279356,56.9943619 2.80938893,57.1463413 3.11937143,57.4503048 C3.42935393,57.7542682 3.58434286,58.1402358 3.58434286,58.608219 C3.58434286,59.0762023 3.42935393,59.4621699 3.11937143,59.7661333 C2.80938893,60.0700968 2.42718322,60.2220762 1.97274286,60.2220762 C1.51830249,60.2220762 1.13609679,60.0700968 0.826114286,59.7661333 Z M4.72194286,57.6895619 L4.72194286,58.0642476 C4.88144842,57.7903796 5.14026488,57.6534476 5.4984,57.6534476 C5.78430619,57.6534476 6.01754195,57.7474943 6.19811429,57.9355905 C6.37868662,58.1236867 6.46897143,58.3847602 6.46897143,58.718819 L6.46897143,60.1904762 L5.83697143,60.1904762 L5.83697143,58.8091048 C5.83697143,58.6134847 5.78731478,58.4637624 5.688,58.3599333 C5.58868522,58.2561042 5.453258,58.2041905 5.28171429,58.2041905 C5.11017057,58.2041905 4.97399098,58.2561042 4.87317143,58.3599333 C4.77235188,58.4637624 4.72194286,58.6134847 4.72194286,58.8091048 L4.72194286,60.1904762 L4.08542857,60.1904762 L4.08542857,57.6895619 L4.72194286,57.6895619 Z M7.1416,58.845219 L7.1416,58.3170476 L9.06017143,58.3170476 L9.06017143,58.845219 L7.1416,58.845219 Z M11.8138857,58.6104762 C11.7326282,58.709791 11.6145055,58.7887902 11.4595143,58.8474762 C11.304523,58.9061622 11.123201,58.9355048 10.9155429,58.9355048 L10.3918857,58.9355048 L10.3918857,60.1904762 L9.75537143,60.1904762 L9.75537143,57.0395048 L10.9155429,57.0395048 C11.2796971,57.0395048 11.5603323,57.1305419 11.7574571,57.312619 C11.9545819,57.4946961 12.0531429,57.7091226 12.0531429,57.9559048 C12.0531429,58.2026869 11.9733913,58.4208752 11.8138857,58.6104762 Z M10.3918857,58.4479619 L10.9155429,58.4479619 C11.0750484,58.4479619 11.1969329,58.4065814 11.2812,58.323819 C11.3654671,58.2410567 11.4076,58.1289531 11.4076,57.9875048 C11.4076,57.8460564 11.3654671,57.7339528 11.2812,57.6511905 C11.1969329,57.5684282 11.0750484,57.5270476 10.9155429,57.5270476 L10.3918857,57.5270476 L10.3918857,58.4479619 Z M14.3238286,58.940019 C14.3238286,58.7112941 14.2576197,58.5314768 14.1252,58.4005619 C13.9927803,58.269647 13.8377914,58.2041905 13.6602286,58.2041905 C13.4826658,58.2041905 13.3284292,58.2688946 13.1975143,58.3983048 C13.0665993,58.5277149 13.0011429,58.7067798 13.0011429,58.9355048 C13.0011429,59.1642297 13.0673517,59.3447993 13.1997714,59.477219 C13.3321911,59.6096388 13.4864277,59.6758476 13.6624857,59.6758476 C13.8385437,59.6758476 13.9927803,59.6103911 14.1252,59.4794762 C14.2576197,59.3485613 14.3238286,59.168744 14.3238286,58.940019 Z M12.3556,58.9355048 C12.3556,58.5593124 12.4669513,58.2515917 12.6896571,58.0123333 C12.912363,57.773075 13.1952554,57.6534476 13.5383429,57.6534476 C13.8814303,57.6534476 14.1432562,57.7948938 14.3238286,58.0777905 L14.3238286,57.6895619 L14.9558286,57.6895619 L14.9558286,60.1904762 L14.3238286,60.1904762 L14.3238286,59.7706476 C14.1342276,60.074611 13.8708969,60.2265905 13.5338286,60.2265905 C13.1967602,60.2265905 12.9161249,60.1054584 12.6919143,59.8631905 C12.4677036,59.6209226 12.3556,59.3116971 12.3556,58.9355048 Z M15.4569143,58.9355048 C15.4569143,58.5593124 15.5682656,58.2515917 15.7909714,58.0123333 C16.0136773,57.773075 16.2965697,57.6534476 16.6396571,57.6534476 C16.9827446,57.6534476 17.2445705,57.7948938 17.4251429,58.0777905 L17.4251429,57.6895619 L18.0571429,57.6895619 L18.0571429,60.2085333 C18.0571429,60.5666685 17.9518106,60.8593417 17.7411429,61.0865619 C17.5304751,61.3137821 17.2347924,61.4273905 16.8540857,61.4273905 C16.473379,61.4273905 16.1709249,61.3483913 15.9467143,61.1903905 C15.7225036,61.0323897 15.5953525,60.80743 15.5652571,60.5155048 L16.1882286,60.5155048 C16.2273526,60.6268577 16.3025899,60.7148854 16.4139429,60.7795905 C16.5252958,60.8442956 16.6652373,60.8766476 16.8337714,60.8766476 C17.0023056,60.8766476 17.1429994,60.820972 17.2558571,60.709619 C17.3687148,60.5982661 17.4251429,60.4312392 17.4251429,60.2085333 L17.4251429,59.7706476 C17.2355419,60.074611 16.9722112,60.2265905 16.6351429,60.2265905 C16.2980745,60.2265905 16.0174392,60.1054584 15.7932286,59.8631905 C15.5690179,59.6209226 15.4569143,59.3116971 15.4569143,58.9355048 Z M17.4251429,58.940019 C17.4251429,58.7112941 17.358934,58.5314768 17.2265143,58.4005619 C17.0940946,58.269647 16.9391056,58.2041905 16.7615429,58.2041905 C16.5839801,58.2041905 16.4297435,58.2688946 16.2988286,58.3983048 C16.1679136,58.5277149 16.1024571,58.7067798 16.1024571,58.9355048 C16.1024571,59.1642297 16.168666,59.3447993 16.3010857,59.477219 C16.4335054,59.6096388 16.587742,59.6758476 16.7638,59.6758476 C16.939858,59.6758476 17.0940946,59.6103911 17.2265143,59.4794762 C17.358934,59.3485613 17.4251429,59.168744 17.4251429,58.940019 Z M19.7906286,60.2265905 C19.4264744,60.2265905 19.1300392,60.1084678 18.9013143,59.872219 C18.6725893,59.6359702 18.5582286,59.3237353 18.5582286,58.9355048 C18.5582286,58.5472742 18.6733417,58.236544 18.9035714,58.0033048 C19.1338012,57.7700655 19.431741,57.6534476 19.7974,57.6534476 C20.163059,57.6534476 20.463256,57.767056 20.698,57.9942762 C20.932744,58.2214964 21.0501143,58.5247029 21.0501143,58.9039048 C21.0501143,58.9911814 21.0440953,59.0724377 21.0320571,59.1476762 L19.2082857,59.1476762 C19.2233334,59.3101913 19.2835233,59.4411043 19.3888571,59.540419 C19.494191,59.6397338 19.6281135,59.6893905 19.7906286,59.6893905 C20.0103249,59.6893905 20.1728376,59.5991057 20.2781714,59.4185333 L20.9643429,59.4185333 C20.8921139,59.6562869 20.7521725,59.8503992 20.5445143,60.0008762 C20.3368561,60.1513531 20.0855634,60.2265905 19.7906286,60.2265905 Z M20.2082,58.339619 C20.0953423,58.2403043 19.9591627,58.1906476 19.7996571,58.1906476 C19.6401516,58.1906476 19.5069815,58.2403043 19.4001429,58.339619 C19.2933042,58.4389338 19.2293525,58.5713516 19.2082857,58.7368762 L20.3910286,58.7368762 C20.382,58.5713516 20.3210577,58.4389338 20.2082,58.339619 Z M23.6164857,57.6015333 C23.5367329,57.6662384 23.4968571,57.7557709 23.4968571,57.8701333 C23.4968571,57.9844958 23.5261997,58.0740282 23.5848857,58.1387333 C23.6435717,58.2034384 23.7210662,58.2530951 23.8173714,58.2877048 C23.9136767,58.3223145 24.019009,58.3531618 24.1333714,58.3802476 C24.2477339,58.4073335 24.3620947,58.4404379 24.4764571,58.4795619 C24.5908196,58.5186859 24.6961519,58.5668378 24.7924571,58.624019 C24.8887624,58.6812003 24.9662568,58.7647137 25.0249429,58.8745619 C25.0836289,58.9844101 25.1129714,59.1175802 25.1129714,59.2740762 C25.1129714,59.5328965 25.0098963,59.7555991 24.8037429,59.9421905 C24.5975894,60.1287819 24.3237255,60.2220762 23.9821429,60.2220762 C23.6405602,60.2220762 23.3644391,60.1415722 23.1537714,59.9805619 C22.9431037,59.8195516 22.8377714,59.5930872 22.8377714,59.3011619 L23.5149143,59.3011619 C23.5389906,59.5780395 23.696989,59.7164762 23.9889143,59.7164762 C24.1333722,59.7164762 24.2477329,59.6788575 24.332,59.603619 C24.4162671,59.5283806 24.4584,59.4283149 24.4584,59.303419 C24.4584,59.1785232 24.4027244,59.0799623 24.2913714,59.0077333 C24.1800185,58.9355044 24.0453436,58.8813335 23.8873429,58.845219 C23.7293421,58.8091046 23.5705913,58.7654669 23.4110857,58.7143048 C23.2515802,58.6631426 23.1161529,58.5736102 23.0048,58.4457048 C22.8934471,58.3177994 22.8377714,58.1485153 22.8377714,57.9378476 C22.8377714,57.6519414 22.941599,57.4232199 23.1492571,57.2516762 C23.3569153,57.0801325 23.6240079,56.9943619 23.9505429,56.9943619 C24.2770778,56.9943619 24.5396561,57.0688469 24.7382857,57.217819 C24.9369153,57.3667912 25.0452571,57.5932556 25.0633143,57.897219 L24.3681143,57.897219 C24.3560761,57.7768375 24.3109337,57.6812861 24.2326857,57.6105619 C24.1544377,57.5398377 24.0521149,57.5044762 23.9257143,57.5044762 C23.7993137,57.5044762 23.6962385,57.5368282 23.6164857,57.6015333 Z M27.5416571,57.0304762 L27.5416571,57.518019 L26.3589143,57.518019 L26.3589143,58.3441333 L27.4062286,58.3441333 L27.4062286,58.8316762 L26.3589143,58.8316762 L26.3589143,59.7029333 L27.5416571,59.7029333 L27.5416571,60.1904762 L25.7224,60.1904762 L25.7224,57.0304762 L27.5416571,57.0304762 Z M30.5888,58.6059619 C30.5888,58.2929699 30.5000199,58.0431819 30.3224571,57.8565905 C30.1448944,57.6699991 29.9131633,57.5767048 29.6272571,57.5767048 C29.341351,57.5767048 29.1088676,57.6707514 28.9298,57.8588476 C28.7507324,58.0469438 28.6612,58.2967318 28.6612,58.608219 C28.6612,58.9197063 28.7507324,59.1694943 28.9298,59.3575905 C29.1088676,59.5456867 29.341351,59.6397333 29.6272571,59.6397333 C29.9131633,59.6397333 30.1448944,59.5456867 30.3224571,59.3575905 C30.5000199,59.1694943 30.5888,58.9189539 30.5888,58.6059619 Z M28.4806286,59.7661333 C28.1706461,59.4621699 28.0156571,59.0762023 28.0156571,58.608219 C28.0156571,58.1402358 28.1713984,57.7542682 28.4828857,57.4503048 C28.794373,57.1463413 29.1765787,56.9943619 29.6295143,56.9943619 C30.0824499,56.9943619 30.4639032,57.1463413 30.7738857,57.4503048 C31.0838682,57.7542682 31.2388571,58.1402358 31.2388571,58.608219 C31.2388571,59.0762023 31.0838682,59.4621699 30.7738857,59.7661333 C30.4639032,60.0700968 30.0816975,60.2220762 29.6272571,60.2220762 C29.1728168,60.2220762 28.7906111,60.0700968 28.4806286,59.7661333 Z" id="On-Page-SEO" fill="#FFFFFF"></path>
                    <path d="M40.564619,58.6059619 C40.564619,58.2929699 40.475839,58.0431819 40.2982762,57.8565905 C40.1207134,57.6699991 39.8889824,57.5767048 39.6030762,57.5767048 C39.31717,57.5767048 39.0846866,57.6707514 38.905619,57.8588476 C38.7265515,58.0469438 38.637019,58.2967318 38.637019,58.608219 C38.637019,58.9197063 38.7265515,59.1694943 38.905619,59.3575905 C39.0846866,59.5456867 39.31717,59.6397333 39.6030762,59.6397333 C39.8889824,59.6397333 40.1207134,59.5456867 40.2982762,59.3575905 C40.475839,59.1694943 40.564619,58.9189539 40.564619,58.6059619 Z M38.4564476,59.7661333 C38.1464651,59.4621699 37.9914762,59.0762023 37.9914762,58.608219 C37.9914762,58.1402358 38.1472175,57.7542682 38.4587048,57.4503048 C38.770192,57.1463413 39.1523977,56.9943619 39.6053333,56.9943619 C40.0582689,56.9943619 40.4397223,57.1463413 40.7497048,57.4503048 C41.0596873,57.7542682 41.2146762,58.1402358 41.2146762,58.608219 C41.2146762,59.0762023 41.0596873,59.4621699 40.7497048,59.7661333 C40.4397223,60.0700968 40.0575166,60.2220762 39.6030762,60.2220762 C39.1486358,60.2220762 38.7664301,60.0700968 38.4564476,59.7661333 Z M42.7856476,57.6895619 L42.7856476,58.2087048 L42.3883905,58.2087048 L42.3883905,60.1904762 L41.7563905,60.1904762 L41.7563905,58.2087048 L41.4855333,58.2087048 L41.4855333,57.6895619 L41.7563905,57.6895619 L41.7563905,57.549619 C41.7563905,57.2486652 41.8361421,57.0289721 41.9956476,56.8905333 C42.1551532,56.7520945 42.4064459,56.6828762 42.7495333,56.6828762 L42.7495333,57.2155619 C42.6171136,57.2155619 42.5238193,57.2411426 42.4696476,57.2923048 C42.4154759,57.3434669 42.3883905,57.4292375 42.3883905,57.549619 L42.3883905,57.6895619 L42.7856476,57.6895619 Z M44.293419,57.6895619 L44.293419,58.2087048 L43.8961619,58.2087048 L43.8961619,60.1904762 L43.2641619,60.1904762 L43.2641619,58.2087048 L42.9933048,58.2087048 L42.9933048,57.6895619 L43.2641619,57.6895619 L43.2641619,57.549619 C43.2641619,57.2486652 43.3439135,57.0289721 43.503419,56.8905333 C43.6629246,56.7520945 43.9142173,56.6828762 44.2573048,56.6828762 L44.2573048,57.2155619 C44.1248851,57.2155619 44.0315907,57.2411426 43.977419,57.2923048 C43.9232473,57.3434669 43.8961619,57.4292375 43.8961619,57.549619 L43.8961619,57.6895619 L44.293419,57.6895619 Z M44.7493619,58.845219 L44.7493619,58.3170476 L46.6679333,58.3170476 L46.6679333,58.845219 L44.7493619,58.845219 Z M49.4216476,58.6104762 C49.3403901,58.709791 49.2222674,58.7887902 49.0672762,58.8474762 C48.9122849,58.9061622 48.7309629,58.9355048 48.5233048,58.9355048 L47.9996476,58.9355048 L47.9996476,60.1904762 L47.3631333,60.1904762 L47.3631333,57.0395048 L48.5233048,57.0395048 C48.887459,57.0395048 49.1680943,57.1305419 49.365219,57.312619 C49.5623438,57.4946961 49.6609048,57.7091226 49.6609048,57.9559048 C49.6609048,58.2026869 49.5811532,58.4208752 49.4216476,58.6104762 Z M47.9996476,58.4479619 L48.5233048,58.4479619 C48.6828103,58.4479619 48.8046948,58.4065814 48.8889619,58.323819 C48.973229,58.2410567 49.0153619,58.1289531 49.0153619,57.9875048 C49.0153619,57.8460564 48.973229,57.7339528 48.8889619,57.6511905 C48.8046948,57.5684282 48.6828103,57.5270476 48.5233048,57.5270476 L47.9996476,57.5270476 L47.9996476,58.4479619 Z M51.9315905,58.940019 C51.9315905,58.7112941 51.8653816,58.5314768 51.7329619,58.4005619 C51.6005422,58.269647 51.4455533,58.2041905 51.2679905,58.2041905 C51.0904277,58.2041905 50.9361911,58.2688946 50.8052762,58.3983048 C50.6743613,58.5277149 50.6089048,58.7067798 50.6089048,58.9355048 C50.6089048,59.1642297 50.6751136,59.3447993 50.8075333,59.477219 C50.939953,59.6096388 51.0941896,59.6758476 51.2702476,59.6758476 C51.4463056,59.6758476 51.6005422,59.6103911 51.7329619,59.4794762 C51.8653816,59.3485613 51.9315905,59.168744 51.9315905,58.940019 Z M49.9633619,58.9355048 C49.9633619,58.5593124 50.0747132,58.2515917 50.297419,58.0123333 C50.5201249,57.773075 50.8030173,57.6534476 51.1461048,57.6534476 C51.4891922,57.6534476 51.7510181,57.7948938 51.9315905,58.0777905 L51.9315905,57.6895619 L52.5635905,57.6895619 L52.5635905,60.1904762 L51.9315905,60.1904762 L51.9315905,59.7706476 C51.7419895,60.074611 51.4786588,60.2265905 51.1415905,60.2265905 C50.8045221,60.2265905 50.5238868,60.1054584 50.2996762,59.8631905 C50.0754655,59.6209226 49.9633619,59.3116971 49.9633619,58.9355048 Z M53.0646762,58.9355048 C53.0646762,58.5593124 53.1760275,58.2515917 53.3987333,58.0123333 C53.6214392,57.773075 53.9043316,57.6534476 54.247419,57.6534476 C54.5905065,57.6534476 54.8523324,57.7948938 55.0329048,58.0777905 L55.0329048,57.6895619 L55.6649048,57.6895619 L55.6649048,60.2085333 C55.6649048,60.5666685 55.5595725,60.8593417 55.3489048,61.0865619 C55.138237,61.3137821 54.8425543,61.4273905 54.4618476,61.4273905 C54.081141,61.4273905 53.7786868,61.3483913 53.5544762,61.1903905 C53.3302655,61.0323897 53.2031144,60.80743 53.173019,60.5155048 L53.7959905,60.5155048 C53.8351145,60.6268577 53.9103518,60.7148854 54.0217048,60.7795905 C54.1330577,60.8442956 54.2729992,60.8766476 54.4415333,60.8766476 C54.6100675,60.8766476 54.7507613,60.820972 54.863619,60.709619 C54.9764768,60.5982661 55.0329048,60.4312392 55.0329048,60.2085333 L55.0329048,59.7706476 C54.8433038,60.074611 54.5799731,60.2265905 54.2429048,60.2265905 C53.9058364,60.2265905 53.6252011,60.1054584 53.4009905,59.8631905 C53.1767798,59.6209226 53.0646762,59.3116971 53.0646762,58.9355048 Z M55.0329048,58.940019 C55.0329048,58.7112941 54.9666959,58.5314768 54.8342762,58.4005619 C54.7018565,58.269647 54.5468676,58.2041905 54.3693048,58.2041905 C54.191742,58.2041905 54.0375054,58.2688946 53.9065905,58.3983048 C53.7756755,58.5277149 53.710219,58.7067798 53.710219,58.9355048 C53.710219,59.1642297 53.7764279,59.3447993 53.9088476,59.477219 C54.0412673,59.6096388 54.1955039,59.6758476 54.3715619,59.6758476 C54.5476199,59.6758476 54.7018565,59.6103911 54.8342762,59.4794762 C54.9666959,59.3485613 55.0329048,59.168744 55.0329048,58.940019 Z M57.3983905,60.2265905 C57.0342363,60.2265905 56.7378011,60.1084678 56.5090762,59.872219 C56.2803512,59.6359702 56.1659905,59.3237353 56.1659905,58.9355048 C56.1659905,58.5472742 56.2811036,58.236544 56.5113333,58.0033048 C56.7415631,57.7700655 57.0395029,57.6534476 57.4051619,57.6534476 C57.7708209,57.6534476 58.0710179,57.767056 58.3057619,57.9942762 C58.5405059,58.2214964 58.6578762,58.5247029 58.6578762,58.9039048 C58.6578762,58.9911814 58.6518572,59.0724377 58.639819,59.1476762 L56.8160476,59.1476762 C56.8310953,59.3101913 56.8912852,59.4411043 56.996619,59.540419 C57.1019529,59.6397338 57.2358754,59.6893905 57.3983905,59.6893905 C57.6180868,59.6893905 57.7805995,59.5991057 57.8859333,59.4185333 L58.5721048,59.4185333 C58.4998758,59.6562869 58.3599344,59.8503992 58.1522762,60.0008762 C57.944618,60.1513531 57.6933253,60.2265905 57.3983905,60.2265905 Z M57.8159619,58.339619 C57.7031042,58.2403043 57.5669246,58.1906476 57.407419,58.1906476 C57.2479135,58.1906476 57.1147434,58.2403043 57.0079048,58.339619 C56.9010661,58.4389338 56.8371144,58.5713516 56.8160476,58.7368762 L57.9987905,58.7368762 C57.9897619,58.5713516 57.9288196,58.4389338 57.8159619,58.339619 Z M61.2242476,57.6015333 C61.1444948,57.6662384 61.104619,57.7557709 61.104619,57.8701333 C61.104619,57.9844958 61.1339616,58.0740282 61.1926476,58.1387333 C61.2513336,58.2034384 61.3288281,58.2530951 61.4251333,58.2877048 C61.5214386,58.3223145 61.6267709,58.3531618 61.7411333,58.3802476 C61.8554958,58.4073335 61.9698566,58.4404379 62.084219,58.4795619 C62.1985815,58.5186859 62.3039138,58.5668378 62.400219,58.624019 C62.4965243,58.6812003 62.5740188,58.7647137 62.6327048,58.8745619 C62.6913908,58.9844101 62.7207333,59.1175802 62.7207333,59.2740762 C62.7207333,59.5328965 62.6176582,59.7555991 62.4115048,59.9421905 C62.2053514,60.1287819 61.9314874,60.2220762 61.5899048,60.2220762 C61.2483221,60.2220762 60.9722011,60.1415722 60.7615333,59.9805619 C60.5508656,59.8195516 60.4455333,59.5930872 60.4455333,59.3011619 L61.1226762,59.3011619 C61.1467525,59.5780395 61.3047509,59.7164762 61.5966762,59.7164762 C61.7411341,59.7164762 61.8554948,59.6788575 61.9397619,59.603619 C62.024029,59.5283806 62.0661619,59.4283149 62.0661619,59.303419 C62.0661619,59.1785232 62.0104863,59.0799623 61.8991333,59.0077333 C61.7877804,58.9355044 61.6531056,58.8813335 61.4951048,58.845219 C61.337104,58.8091046 61.1783532,58.7654669 61.0188476,58.7143048 C60.8593421,58.6631426 60.7239148,58.5736102 60.6125619,58.4457048 C60.501209,58.3177994 60.4455333,58.1485153 60.4455333,57.9378476 C60.4455333,57.6519414 60.5493609,57.4232199 60.757019,57.2516762 C60.9646772,57.0801325 61.2317698,56.9943619 61.5583048,56.9943619 C61.8848397,56.9943619 62.1474181,57.0688469 62.3460476,57.217819 C62.5446772,57.3667912 62.653019,57.5932556 62.6710762,57.897219 L61.9758762,57.897219 C61.963838,57.7768375 61.9186956,57.6812861 61.8404476,57.6105619 C61.7621996,57.5398377 61.6598768,57.5044762 61.5334762,57.5044762 C61.4070756,57.5044762 61.3040004,57.5368282 61.2242476,57.6015333 Z M65.149419,57.0304762 L65.149419,57.518019 L63.9666762,57.518019 L63.9666762,58.3441333 L65.0139905,58.3441333 L65.0139905,58.8316762 L63.9666762,58.8316762 L63.9666762,59.7029333 L65.149419,59.7029333 L65.149419,60.1904762 L63.3301619,60.1904762 L63.3301619,57.0304762 L65.149419,57.0304762 Z M68.1965619,58.6059619 C68.1965619,58.2929699 68.1077818,58.0431819 67.930219,57.8565905 C67.7526563,57.6699991 67.5209252,57.5767048 67.235019,57.5767048 C66.9491129,57.5767048 66.7166295,57.6707514 66.5375619,57.8588476 C66.3584943,58.0469438 66.2689619,58.2967318 66.2689619,58.608219 C66.2689619,58.9197063 66.3584943,59.1694943 66.5375619,59.3575905 C66.7166295,59.5456867 66.9491129,59.6397333 67.235019,59.6397333 C67.5209252,59.6397333 67.7526563,59.5456867 67.930219,59.3575905 C68.1077818,59.1694943 68.1965619,58.9189539 68.1965619,58.6059619 Z M66.0883905,59.7661333 C65.778408,59.4621699 65.623419,59.0762023 65.623419,58.608219 C65.623419,58.1402358 65.7791603,57.7542682 66.0906476,57.4503048 C66.4021349,57.1463413 66.7843406,56.9943619 67.2372762,56.9943619 C67.6902118,56.9943619 68.0716651,57.1463413 68.3816476,57.4503048 C68.6916301,57.7542682 68.846619,58.1402358 68.846619,58.608219 C68.846619,59.0762023 68.6916301,59.4621699 68.3816476,59.7661333 C68.0716651,60.0700968 67.6894594,60.2220762 67.235019,60.2220762 C66.7805787,60.2220762 66.398373,60.0700968 66.0883905,59.7661333 Z" id="Off-Page-SEO" fill="#FFFFFF"></path>
                    <path d="M88.1655048,58.6104762 C88.0842472,58.709791 87.9661246,58.7887902 87.8111333,58.8474762 C87.6561421,58.9061622 87.4748201,58.9355048 87.2671619,58.9355048 L86.7435048,58.9355048 L86.7435048,60.1904762 L86.1069905,60.1904762 L86.1069905,57.0395048 L87.2671619,57.0395048 C87.6313161,57.0395048 87.9119514,57.1305419 88.1090762,57.312619 C88.306201,57.4946961 88.4047619,57.7091226 88.4047619,57.9559048 C88.4047619,58.2026869 88.3250103,58.4208752 88.1655048,58.6104762 Z M86.7435048,58.4479619 L87.2671619,58.4479619 C87.4266675,58.4479619 87.548552,58.4065814 87.632819,58.323819 C87.7170861,58.2410567 87.759219,58.1289531 87.759219,57.9875048 C87.759219,57.8460564 87.7170861,57.7339528 87.632819,57.6511905 C87.548552,57.5684282 87.4266675,57.5270476 87.2671619,57.5270476 L86.7435048,57.5270476 L86.7435048,58.4479619 Z M89.939619,60.2265905 C89.5754648,60.2265905 89.2790297,60.1084678 89.0503048,59.872219 C88.8215798,59.6359702 88.707219,59.3237353 88.707219,58.9355048 C88.707219,58.5472742 88.8223322,58.236544 89.0525619,58.0033048 C89.2827916,57.7700655 89.5807315,57.6534476 89.9463905,57.6534476 C90.3120494,57.6534476 90.6122464,57.767056 90.8469905,57.9942762 C91.0817345,58.2214964 91.1991048,58.5247029 91.1991048,58.9039048 C91.1991048,58.9911814 91.1930858,59.0724377 91.1810476,59.1476762 L89.3572762,59.1476762 C89.3723239,59.3101913 89.4325138,59.4411043 89.5378476,59.540419 C89.6431815,59.6397338 89.7771039,59.6893905 89.939619,59.6893905 C90.1593154,59.6893905 90.321828,59.5991057 90.4271619,59.4185333 L91.1133333,59.4185333 C91.0411044,59.6562869 90.9011629,59.8503992 90.6935048,60.0008762 C90.4858466,60.1513531 90.2345539,60.2265905 89.939619,60.2265905 Z M90.3571905,58.339619 C90.2443328,58.2403043 90.1081532,58.1906476 89.9486476,58.1906476 C89.7891421,58.1906476 89.655972,58.2403043 89.5491333,58.339619 C89.4422947,58.4389338 89.378343,58.5713516 89.3572762,58.7368762 L90.540019,58.7368762 C90.5309904,58.5713516 90.4700482,58.4389338 90.3571905,58.339619 Z M92.3367048,57.6895619 L92.3367048,58.1319619 C92.5052389,57.8129508 92.7490079,57.6534476 93.068019,57.6534476 L93.068019,58.3035048 L92.910019,58.3035048 C92.7204181,58.3035048 92.5774671,58.3509043 92.4811619,58.4457048 C92.3848567,58.5405052 92.3367048,58.7037703 92.3367048,58.9355048 L92.3367048,60.1904762 L91.7001905,60.1904762 L91.7001905,57.6895619 L92.3367048,57.6895619 Z M94.5893333,57.6895619 L94.5893333,58.2087048 L94.1920762,58.2087048 L94.1920762,60.1904762 L93.5600762,60.1904762 L93.5600762,58.2087048 L93.289219,58.2087048 L93.289219,57.6895619 L93.5600762,57.6895619 L93.5600762,57.549619 C93.5600762,57.2486652 93.6398278,57.0289721 93.7993333,56.8905333 C93.9588389,56.7520945 94.2101316,56.6828762 94.553219,56.6828762 L94.553219,57.2155619 C94.4207993,57.2155619 94.327505,57.2411426 94.2733333,57.2923048 C94.2191616,57.3434669 94.1920762,57.4292375 94.1920762,57.549619 L94.1920762,57.6895619 L94.5893333,57.6895619 Z M96.5959333,59.493019 C96.7238387,59.3621041 96.7877905,59.1770202 96.7877905,58.9377619 C96.7877905,58.6985036 96.7245911,58.5141721 96.5981905,58.3847619 C96.4717898,58.2553517 96.319058,58.1906476 96.1399905,58.1906476 C95.9609229,58.1906476 95.8096959,58.2553517 95.6863048,58.3847619 C95.5629137,58.5141721 95.501219,58.6992559 95.501219,58.940019 C95.501219,59.1807822 95.5629137,59.365866 95.6863048,59.4952762 C95.8096959,59.6246864 95.9601705,59.6893905 96.1377333,59.6893905 C96.3152961,59.6893905 96.4680279,59.623934 96.5959333,59.493019 Z M94.8556762,58.9355048 C94.8556762,58.5502838 94.9790654,58.2403059 95.2258476,58.0055619 C95.4726298,57.7708179 95.7788458,57.6534476 96.1445048,57.6534476 C96.5101637,57.6534476 96.8163797,57.7708179 97.0631619,58.0055619 C97.3099441,58.2403059 97.4333333,58.5502838 97.4333333,58.9355048 C97.4333333,59.3207257 97.3091917,59.6322083 97.0609048,59.8699619 C96.8126178,60.1077155 96.5048971,60.2265905 96.1377333,60.2265905 C95.7705696,60.2265905 95.465106,60.1077155 95.2213333,59.8699619 C94.9775607,59.6322083 94.8556762,59.3207257 94.8556762,58.9355048 Z M98.5754476,57.6895619 L98.5754476,58.1319619 C98.7439818,57.8129508 98.9877508,57.6534476 99.3067619,57.6534476 L99.3067619,58.3035048 L99.1487619,58.3035048 C98.959161,58.3035048 98.81621,58.3509043 98.7199048,58.4457048 C98.6235995,58.5405052 98.5754476,58.7037703 98.5754476,58.9355048 L98.5754476,60.1904762 L97.9389333,60.1904762 L97.9389333,57.6895619 L98.5754476,57.6895619 Z M100.394705,57.6895619 L100.394705,58.0642476 C100.55421,57.7903796 100.813027,57.6534476 101.171162,57.6534476 C101.360763,57.6534476 101.530047,57.6970853 101.679019,57.7843619 C101.827991,57.8716385 101.943104,57.9965325 102.024362,58.1590476 C102.111639,58.0025516 102.231266,57.8791624 102.383248,57.7888762 C102.535229,57.69859 102.706018,57.6534476 102.895619,57.6534476 C103.193563,57.6534476 103.433571,57.7467419 103.615648,57.9333333 C103.797725,58.1199247 103.888762,58.3817507 103.888762,58.718819 L103.888762,60.1904762 L103.256762,60.1904762 L103.256762,58.8091048 C103.256762,58.6134847 103.207105,58.4637624 103.10779,58.3599333 C103.008476,58.2561042 102.873048,58.2041905 102.701505,58.2041905 C102.529961,58.2041905 102.393781,58.2561042 102.292962,58.3599333 C102.192142,58.4637624 102.141733,58.6134847 102.141733,58.8091048 L102.141733,60.1904762 L101.509733,60.1904762 L101.509733,58.8091048 C101.509733,58.6134847 101.460077,58.4637624 101.360762,58.3599333 C101.261447,58.2561042 101.12602,58.2041905 100.954476,58.2041905 C100.782932,58.2041905 100.646753,58.2561042 100.545933,58.3599333 C100.445114,58.4637624 100.394705,58.6134847 100.394705,58.8091048 L100.394705,60.1904762 L99.7581905,60.1904762 L99.7581905,57.6895619 L100.394705,57.6895619 Z M106.335505,58.940019 C106.335505,58.7112941 106.269296,58.5314768 106.136876,58.4005619 C106.004456,58.269647 105.849468,58.2041905 105.671905,58.2041905 C105.494342,58.2041905 105.340105,58.2688946 105.20919,58.3983048 C105.078276,58.5277149 105.012819,58.7067798 105.012819,58.9355048 C105.012819,59.1642297 105.079028,59.3447993 105.211448,59.477219 C105.343867,59.6096388 105.498104,59.6758476 105.674162,59.6758476 C105.85022,59.6758476 106.004456,59.6103911 106.136876,59.4794762 C106.269296,59.3485613 106.335505,59.168744 106.335505,58.940019 Z M104.367276,58.9355048 C104.367276,58.5593124 104.478627,58.2515917 104.701333,58.0123333 C104.924039,57.773075 105.206932,57.6534476 105.550019,57.6534476 C105.893106,57.6534476 106.154932,57.7948938 106.335505,58.0777905 L106.335505,57.6895619 L106.967505,57.6895619 L106.967505,60.1904762 L106.335505,60.1904762 L106.335505,59.7706476 C106.145904,60.074611 105.882573,60.2265905 105.545505,60.2265905 C105.208436,60.2265905 104.927801,60.1054584 104.70359,59.8631905 C104.47938,59.6209226 104.367276,59.3116971 104.367276,58.9355048 Z M108.281162,57.6895619 L108.281162,58.0642476 C108.440667,57.7903796 108.699484,57.6534476 109.057619,57.6534476 C109.343525,57.6534476 109.576761,57.7474943 109.757333,57.9355905 C109.937906,58.1236867 110.02819,58.3847602 110.02819,58.718819 L110.02819,60.1904762 L109.39619,60.1904762 L109.39619,58.8091048 C109.39619,58.6134847 109.346534,58.4637624 109.247219,58.3599333 C109.147904,58.2561042 109.012477,58.2041905 108.840933,58.2041905 C108.66939,58.2041905 108.53321,58.2561042 108.43239,58.3599333 C108.331571,58.4637624 108.281162,58.6134847 108.281162,58.8091048 L108.281162,60.1904762 L107.644648,60.1904762 L107.644648,57.6895619 L108.281162,57.6895619 Z M110.506705,58.940019 C110.506705,58.5517885 110.621066,58.2403059 110.84979,58.0055619 C111.078515,57.7708179 111.374951,57.6534476 111.739105,57.6534476 C112.043068,57.6534476 112.29737,57.7271802 112.502019,57.8746476 C112.706668,58.022115 112.8436,58.2312748 112.912819,58.5021333 L112.226648,58.5021333 C112.14539,58.2944752 111.982877,58.1906476 111.739105,58.1906476 C111.555523,58.1906476 111.41182,58.2576089 111.30799,58.3915333 C111.204161,58.5254578 111.152248,58.7082846 111.152248,58.940019 C111.152248,59.1717535 111.204161,59.3545803 111.30799,59.4885048 C111.41182,59.6224292 111.555523,59.6893905 111.739105,59.6893905 C111.979868,59.6893905 112.142381,59.5840582 112.226648,59.3733905 L112.912819,59.3733905 C112.84059,59.6352204 112.701401,59.8428754 112.495248,59.9963619 C112.289094,60.1498484 112.037049,60.2265905 111.739105,60.2265905 C111.374951,60.2265905 111.078515,60.1092202 110.84979,59.8744762 C110.621066,59.6397322 110.506705,59.3282496 110.506705,58.940019 Z M114.447676,60.2265905 C114.083522,60.2265905 113.787087,60.1084678 113.558362,59.872219 C113.329637,59.6359702 113.215276,59.3237353 113.215276,58.9355048 C113.215276,58.5472742 113.330389,58.236544 113.560619,58.0033048 C113.790849,57.7700655 114.088789,57.6534476 114.454448,57.6534476 C114.820107,57.6534476 115.120304,57.767056 115.355048,57.9942762 C115.589792,58.2214964 115.707162,58.5247029 115.707162,58.9039048 C115.707162,58.9911814 115.701143,59.0724377 115.689105,59.1476762 L113.865333,59.1476762 C113.880381,59.3101913 113.940571,59.4411043 114.045905,59.540419 C114.151239,59.6397338 114.285161,59.6893905 114.447676,59.6893905 C114.667373,59.6893905 114.829885,59.5991057 114.935219,59.4185333 L115.62139,59.4185333 C115.549162,59.6562869 115.40922,59.8503992 115.201562,60.0008762 C114.993904,60.1513531 114.742611,60.2265905 114.447676,60.2265905 Z M114.865248,58.339619 C114.75239,58.2403043 114.61621,58.1906476 114.456705,58.1906476 C114.297199,58.1906476 114.164029,58.2403043 114.05719,58.339619 C113.950352,58.4389338 113.8864,58.5713516 113.865333,58.7368762 L115.048076,58.7368762 C115.039048,58.5713516 114.978105,58.4389338 114.865248,58.339619 Z" id="Performance" fill="#FFFFFF"></path>
                    <path d="M121.067876,58.9806476 L121.067876,57.0395048 L121.70439,57.0395048 L121.70439,58.9806476 C121.70439,59.1973344 121.759314,59.3613518 121.869162,59.4727048 C121.97901,59.5840577 122.136256,59.6397333 122.340905,59.6397333 C122.545553,59.6397333 122.703552,59.5840577 122.814905,59.4727048 C122.926258,59.3613518 122.981933,59.1973344 122.981933,58.9806476 L122.981933,57.0395048 L123.613933,57.0395048 L123.613933,58.9806476 C123.613933,59.3779067 123.489039,59.6841227 123.239248,59.8993048 C122.989456,60.1144868 122.685497,60.2220762 122.327362,60.2220762 C121.969227,60.2220762 121.669782,60.1152392 121.429019,59.9015619 C121.188256,59.6878846 121.067876,59.3809163 121.067876,58.9806476 Z M124.13759,58.4208762 C124.13759,58.2041894 124.22938,58.022115 124.412962,57.8746476 C124.596544,57.7271802 124.840313,57.6534476 125.144276,57.6534476 C125.44824,57.6534476 125.692009,57.7264278 125.87559,57.8723905 C126.059172,58.0183531 126.156981,58.2162273 126.169019,58.466019 L125.518962,58.466019 C125.500905,58.2553513 125.371496,58.150019 125.130733,58.150019 C125.010352,58.150019 124.917057,58.174095 124.850848,58.2222476 C124.784638,58.2704002 124.751533,58.3366091 124.751533,58.4208762 C124.751533,58.5051433 124.80119,58.5713521 124.900505,58.6195048 C124.99982,58.6676574 125.120199,58.7052761 125.261648,58.7323619 C125.403096,58.7594478 125.54379,58.7933046 125.683733,58.8339333 C125.823677,58.8745621 125.943304,58.94679 126.042619,59.050619 C126.141934,59.1544481 126.19159,59.2921325 126.19159,59.4636762 C126.19159,59.6893916 126.096039,59.8729707 125.904933,60.014419 C125.713828,60.1558674 125.470059,60.2265905 125.173619,60.2265905 C124.877179,60.2265905 124.634163,60.1566197 124.444562,60.0166762 C124.254961,59.8767326 124.151133,59.6758489 124.133076,59.414019 L124.783133,59.414019 C124.80721,59.6246868 124.941132,59.730019 125.184905,59.730019 C125.302277,59.730019 125.397076,59.703686 125.469305,59.651019 C125.541534,59.5983521 125.577648,59.5291338 125.577648,59.4433619 C125.577648,59.35759 125.527991,59.2898764 125.428676,59.240219 C125.329361,59.1905617 125.208982,59.1521906 125.067533,59.1251048 C124.926085,59.0980189 124.785391,59.0649145 124.645448,59.0257905 C124.505504,58.9866665 124.385877,58.9166957 124.286562,58.8158762 C124.187247,58.7150566 124.13759,58.5833913 124.13759,58.4208762 Z M127.789648,60.2265905 C127.425493,60.2265905 127.129058,60.1084678 126.900333,59.872219 C126.671608,59.6359702 126.557248,59.3237353 126.557248,58.9355048 C126.557248,58.5472742 126.672361,58.236544 126.90259,58.0033048 C127.13282,57.7700655 127.43076,57.6534476 127.796419,57.6534476 C128.162078,57.6534476 128.462275,57.767056 128.697019,57.9942762 C128.931763,58.2214964 129.049133,58.5247029 129.049133,58.9039048 C129.049133,58.9911814 129.043114,59.0724377 129.031076,59.1476762 L127.207305,59.1476762 C127.222352,59.3101913 127.282542,59.4411043 127.387876,59.540419 C127.49321,59.6397338 127.627133,59.6893905 127.789648,59.6893905 C128.009344,59.6893905 128.171857,59.5991057 128.27719,59.4185333 L128.963362,59.4185333 C128.891133,59.6562869 128.751192,59.8503992 128.543533,60.0008762 C128.335875,60.1513531 128.084582,60.2265905 127.789648,60.2265905 Z M128.207219,58.339619 C128.094361,58.2403043 127.958182,58.1906476 127.798676,58.1906476 C127.639171,58.1906476 127.506001,58.2403043 127.399162,58.339619 C127.292323,58.4389338 127.228372,58.5713516 127.207305,58.7368762 L128.390048,58.7368762 C128.381019,58.5713516 128.320077,58.4389338 128.207219,58.339619 Z M130.186733,57.6895619 L130.186733,58.1319619 C130.355268,57.8129508 130.599037,57.6534476 130.918048,57.6534476 L130.918048,58.3035048 L130.760048,58.3035048 C130.570447,58.3035048 130.427496,58.3509043 130.33119,58.4457048 C130.234885,58.5405052 130.186733,58.7037703 130.186733,58.9355048 L130.186733,60.1904762 L129.550219,60.1904762 L129.550219,57.6895619 L130.186733,57.6895619 Z M134.543019,57.0304762 L134.543019,57.518019 L133.360276,57.518019 L133.360276,58.3441333 L134.40759,58.3441333 L134.40759,58.8316762 L133.360276,58.8316762 L133.360276,59.7029333 L134.543019,59.7029333 L134.543019,60.1904762 L132.723762,60.1904762 L132.723762,57.0304762 L134.543019,57.0304762 Z M137.183876,57.6895619 L136.371305,58.9129333 L137.179362,60.1904762 L136.466105,60.1904762 L135.98759,59.4365905 L135.527133,60.1904762 L134.886105,60.1904762 L135.694162,58.971619 L134.886105,57.6895619 L135.599362,57.6895619 L136.077876,58.4479619 L136.538333,57.6895619 L137.183876,57.6895619 Z M139.504219,58.9355048 C139.504219,58.7067798 139.438763,58.5277149 139.307848,58.3983048 C139.176933,58.2688946 139.022696,58.2041905 138.845133,58.2041905 C138.667571,58.2041905 138.513334,58.269647 138.382419,58.4005619 C138.251504,58.5314768 138.186048,58.7112941 138.186048,58.940019 C138.186048,59.168744 138.251504,59.3485613 138.382419,59.4794762 C138.513334,59.6103911 138.667571,59.6758476 138.845133,59.6758476 C139.022696,59.6758476 139.176933,59.6096388 139.307848,59.477219 C139.438763,59.3447993 139.504219,59.1642297 139.504219,58.9355048 Z M138.186048,58.0777905 C138.36361,57.7948938 138.623932,57.6534476 138.967019,57.6534476 C139.310106,57.6534476 139.592999,57.773075 139.815705,58.0123333 C140.038411,58.2515917 140.149762,58.5600648 140.149762,58.9377619 C140.149762,59.315459 140.038411,59.6246845 139.815705,59.8654476 C139.592999,60.1062107 139.312364,60.2265905 138.97379,60.2265905 C138.635217,60.2265905 138.372639,60.074611 138.186048,59.7706476 L138.186048,61.3822476 L137.549533,61.3822476 L137.549533,57.6895619 L138.186048,57.6895619 L138.186048,58.0777905 Z M141.70719,60.2265905 C141.343036,60.2265905 141.046601,60.1084678 140.817876,59.872219 C140.589151,59.6359702 140.47479,59.3237353 140.47479,58.9355048 C140.47479,58.5472742 140.589904,58.236544 140.820133,58.0033048 C141.050363,57.7700655 141.348303,57.6534476 141.713962,57.6534476 C142.079621,57.6534476 142.379818,57.767056 142.614562,57.9942762 C142.849306,58.2214964 142.966676,58.5247029 142.966676,58.9039048 C142.966676,58.9911814 142.960657,59.0724377 142.948619,59.1476762 L141.124848,59.1476762 C141.139895,59.3101913 141.200085,59.4411043 141.305419,59.540419 C141.410753,59.6397338 141.544675,59.6893905 141.70719,59.6893905 C141.926887,59.6893905 142.089399,59.5991057 142.194733,59.4185333 L142.880905,59.4185333 C142.808676,59.6562869 142.668734,59.8503992 142.461076,60.0008762 C142.253418,60.1513531 142.002125,60.2265905 141.70719,60.2265905 Z M142.124762,58.339619 C142.011904,58.2403043 141.875725,58.1906476 141.716219,58.1906476 C141.556713,58.1906476 141.423543,58.2403043 141.316705,58.339619 C141.209866,58.4389338 141.145914,58.5713516 141.124848,58.7368762 L142.30759,58.7368762 C142.298562,58.5713516 142.23762,58.4389338 142.124762,58.339619 Z M144.104276,57.6895619 L144.104276,58.1319619 C144.27281,57.8129508 144.516579,57.6534476 144.83559,57.6534476 L144.83559,58.3035048 L144.67759,58.3035048 C144.48799,58.3035048 144.345039,58.3509043 144.248733,58.4457048 C144.152428,58.5405052 144.104276,58.7037703 144.104276,58.9355048 L144.104276,60.1904762 L143.467762,60.1904762 L143.467762,57.6895619 L144.104276,57.6895619 Z M145.87839,57.328419 C145.803152,57.4036575 145.712115,57.4412762 145.605276,57.4412762 C145.498438,57.4412762 145.4074,57.4036575 145.332162,57.328419 C145.256923,57.2531806 145.219305,57.161391 145.219305,57.0530476 C145.219305,56.9447042 145.256923,56.8529147 145.332162,56.7776762 C145.4074,56.7024377 145.498438,56.664819 145.605276,56.664819 C145.712115,56.664819 145.803152,56.7024377 145.87839,56.7776762 C145.953629,56.8529147 145.991248,56.9447042 145.991248,57.0530476 C145.991248,57.161391 145.953629,57.2531806 145.87839,57.328419 Z M145.287019,60.1904762 L145.287019,57.6895619 L145.923533,57.6895619 L145.923533,60.1904762 L145.287019,60.1904762 Z M147.657019,60.2265905 C147.292865,60.2265905 146.99643,60.1084678 146.767705,59.872219 C146.53898,59.6359702 146.424619,59.3237353 146.424619,58.9355048 C146.424619,58.5472742 146.539732,58.236544 146.769962,58.0033048 C147.000192,57.7700655 147.298132,57.6534476 147.66379,57.6534476 C148.029449,57.6534476 148.329646,57.767056 148.56439,57.9942762 C148.799135,58.2214964 148.916505,58.5247029 148.916505,58.9039048 C148.916505,58.9911814 148.910486,59.0724377 148.898448,59.1476762 L147.074676,59.1476762 C147.089724,59.3101913 147.149914,59.4411043 147.255248,59.540419 C147.360581,59.6397338 147.494504,59.6893905 147.657019,59.6893905 C147.876715,59.6893905 148.039228,59.5991057 148.144562,59.4185333 L148.830733,59.4185333 C148.758504,59.6562869 148.618563,59.8503992 148.410905,60.0008762 C148.203247,60.1513531 147.951954,60.2265905 147.657019,60.2265905 Z M148.07459,58.339619 C147.961733,58.2403043 147.825553,58.1906476 147.666048,58.1906476 C147.506542,58.1906476 147.373372,58.2403043 147.266533,58.339619 C147.159695,58.4389338 147.095743,58.5713516 147.074676,58.7368762 L148.257419,58.7368762 C148.24839,58.5713516 148.187448,58.4389338 148.07459,58.339619 Z M150.054105,57.6895619 L150.054105,58.0642476 C150.21361,57.7903796 150.472427,57.6534476 150.830562,57.6534476 C151.116468,57.6534476 151.349704,57.7474943 151.530276,57.9355905 C151.710849,58.1236867 151.801133,58.3847602 151.801133,58.718819 L151.801133,60.1904762 L151.169133,60.1904762 L151.169133,58.8091048 C151.169133,58.6134847 151.119477,58.4637624 151.020162,58.3599333 C150.920847,58.2561042 150.78542,58.2041905 150.613876,58.2041905 C150.442332,58.2041905 150.306153,58.2561042 150.205333,58.3599333 C150.104514,58.4637624 150.054105,58.6134847 150.054105,58.8091048 L150.054105,60.1904762 L149.41759,60.1904762 L149.41759,57.6895619 L150.054105,57.6895619 Z M152.279648,58.940019 C152.279648,58.5517885 152.394008,58.2403059 152.622733,58.0055619 C152.851458,57.7708179 153.147893,57.6534476 153.512048,57.6534476 C153.816011,57.6534476 154.070313,57.7271802 154.274962,57.8746476 C154.479611,58.022115 154.616543,58.2312748 154.685762,58.5021333 L153.99959,58.5021333 C153.918333,58.2944752 153.75582,58.1906476 153.512048,58.1906476 C153.328466,58.1906476 153.184762,58.2576089 153.080933,58.3915333 C152.977104,58.5254578 152.92519,58.7082846 152.92519,58.940019 C152.92519,59.1717535 152.977104,59.3545803 153.080933,59.4885048 C153.184762,59.6224292 153.328466,59.6893905 153.512048,59.6893905 C153.752811,59.6893905 153.915323,59.5840582 153.99959,59.3733905 L154.685762,59.3733905 C154.613533,59.6352204 154.474344,59.8428754 154.26819,59.9963619 C154.062037,60.1498484 153.809992,60.2265905 153.512048,60.2265905 C153.147893,60.2265905 152.851458,60.1092202 152.622733,59.8744762 C152.394008,59.6397322 152.279648,59.3282496 152.279648,58.940019 Z M156.220619,60.2265905 C155.856465,60.2265905 155.56003,60.1084678 155.331305,59.872219 C155.10258,59.6359702 154.988219,59.3237353 154.988219,58.9355048 C154.988219,58.5472742 155.103332,58.236544 155.333562,58.0033048 C155.563792,57.7700655 155.861732,57.6534476 156.22739,57.6534476 C156.593049,57.6534476 156.893246,57.767056 157.12799,57.9942762 C157.362735,58.2214964 157.480105,58.5247029 157.480105,58.9039048 C157.480105,58.9911814 157.474086,59.0724377 157.462048,59.1476762 L155.638276,59.1476762 C155.653324,59.3101913 155.713514,59.4411043 155.818848,59.540419 C155.924181,59.6397338 156.058104,59.6893905 156.220619,59.6893905 C156.440315,59.6893905 156.602828,59.5991057 156.708162,59.4185333 L157.394333,59.4185333 C157.322104,59.6562869 157.182163,59.8503992 156.974505,60.0008762 C156.766847,60.1513531 156.515554,60.2265905 156.220619,60.2265905 Z M156.63819,58.339619 C156.525333,58.2403043 156.389153,58.1906476 156.229648,58.1906476 C156.070142,58.1906476 155.936972,58.2403043 155.830133,58.339619 C155.723295,58.4389338 155.659343,58.5713516 155.638276,58.7368762 L156.821019,58.7368762 C156.81199,58.5713516 156.751048,58.4389338 156.63819,58.339619 Z" id="User-Experience" fill="#FFFFFF"></path>
                    <path d="M135.009119,75.3888682 C134.830804,75.1879815 134.578006,75.0875396 134.250719,75.0875396 C133.923432,75.0875396 133.648063,75.178953 133.424605,75.3617825 C133.201147,75.5446119 133.089419,75.8120807 133.089419,76.1641967 C133.089419,76.5163128 133.186475,76.7961957 133.38059,77.0038539 C133.574706,77.2115121 133.84556,77.3153396 134.193162,77.3153396 C134.540764,77.3153396 134.808232,77.2171549 134.995576,77.0207825 C135.18292,76.8244101 135.27659,76.5535556 135.27659,76.208211 C135.27659,75.8628665 135.187434,75.5897549 135.009119,75.3888682 Z M134.213476,73.2998825 C133.807188,73.2998825 133.506991,73.4488524 133.312876,73.7467967 C133.118761,74.0447411 133.014933,74.550336 133.00139,75.2635967 C133.123277,75.0423956 133.303846,74.8697259 133.543105,74.7455825 C133.782363,74.621439 134.048703,74.5593682 134.342133,74.5593682 C134.793564,74.5593682 135.159218,74.7049524 135.439105,74.9961253 C135.718992,75.2872982 135.858933,75.6800371 135.858933,76.1743539 C135.858933,76.6686706 135.721249,77.0693095 135.445876,77.3762825 C135.170503,77.6832554 134.775507,77.8367396 134.260876,77.8367396 C133.439272,77.8367396 132.913363,77.4891431 132.683133,76.7939396 C132.552218,76.4011948 132.486762,75.8482003 132.486762,75.1349396 C132.486762,74.4216789 132.626703,73.8506275 132.90659,73.4217682 C133.186478,72.9929089 133.622102,72.7784825 134.213476,72.7784825 C134.64685,72.7784825 134.991061,72.8947242 135.246119,73.127211 C135.501177,73.3596979 135.649019,73.6474807 135.689648,73.9905682 L135.13439,73.9905682 C135.075704,73.7558241 134.974134,73.5820259 134.829676,73.4691682 C134.685218,73.3563105 134.47982,73.2998825 134.213476,73.2998825 Z M136.861105,78.9878825 L138.709705,71.4580539 L139.319133,71.4580539 L137.470533,78.9878825 L136.861105,78.9878825 Z M140.863019,77.8367396 L140.863019,73.577511 L140.307762,73.577511 L140.307762,73.0290253 L141.465676,73.0290253 L141.465676,77.8367396 L140.863019,77.8367396 Z M143.574976,73.0154825 C143.775863,72.9297106 144.026403,72.8868253 144.326605,72.8868253 C144.626806,72.8868253 144.890889,72.9488961 145.118862,73.0730396 C145.346834,73.1971831 145.521761,73.3766241 145.643648,73.6113682 C145.864849,74.0447418 145.975448,74.6270788 145.975448,75.3583967 C145.975448,76.2973729 145.808421,76.9632234 145.474362,77.3559682 C145.198989,77.6719698 144.799479,77.8299682 144.275819,77.8299682 C143.314271,77.8299682 142.761277,77.2679452 142.616819,76.1438825 C142.589733,75.9091384 142.57619,75.6461839 142.57619,75.355011 C142.57619,75.0638382 142.590862,74.8020122 142.620205,74.5695253 C142.649548,74.3370384 142.703719,74.112455 142.782719,73.8957682 C142.861719,73.6790814 142.96329,73.4996403 143.087433,73.3574396 C143.211577,73.2152389 143.374089,73.1012543 143.574976,73.0154825 Z M144.861548,73.5876682 C144.705804,73.4860962 144.521849,73.435311 144.309676,73.435311 C144.097504,73.435311 143.922577,73.471425 143.78489,73.5436539 C143.647204,73.6158828 143.539991,73.7084248 143.463248,73.8212825 C143.386504,73.9341402 143.325562,74.0797244 143.280419,74.2580396 C143.235276,74.4363548 143.207062,74.6078959 143.195776,74.7726682 C143.18449,74.9374404 143.178848,75.1326813 143.178848,75.3583967 C143.178848,75.5841122 143.18449,75.7793531 143.195776,75.9441253 C143.207062,76.1088976 143.235276,76.2804387 143.280419,76.4587539 C143.325562,76.6370691 143.386504,76.7826533 143.463248,76.895511 C143.539991,77.0083687 143.647204,77.1009107 143.78489,77.1731396 C143.922577,77.2453685 144.086218,77.2814825 144.275819,77.2814825 C144.46542,77.2814825 144.629061,77.2453685 144.766748,77.1731396 C144.904434,77.1009107 145.012776,77.0083687 145.091776,76.895511 C145.170777,76.7826533 145.23059,76.6359405 145.271219,76.4553682 C145.343448,76.1664524 145.379562,75.83917 145.379562,75.473511 C145.379562,75.1078521 145.367148,74.825712 145.342319,74.6270825 C145.31749,74.4284529 145.270091,74.2309549 145.200119,74.0345825 C145.130147,73.8382101 145.017291,73.6892401 144.861548,73.5876682 Z" id="6/10" fill="#FFFFFF"></path>
                </g>
            </g>
        </g>
    </g>
</svg>