<?xml version="1.0" encoding="UTF-8" standalone="no"?>
<svg width="194px" height="168px" viewBox="0 0 194 168" version="1.1" xmlns="http://www.w3.org/2000/svg" xmlns:xlink="http://www.w3.org/1999/xlink">
    <!-- Generator: Sketch 46.1 (44463) - http://www.bohemiancoding.com/sketch -->
    <title>optimization (1)</title>
    <desc>Created with Sketch.</desc>
    <defs></defs>
    <g id="Page-1" stroke="none" stroke-width="1" fill="none" fill-rule="evenodd">
        <g id="Desktop-HD" transform="translate(-288.000000, -1668.000000)" fill-rule="nonzero">
            <g id="Group-17" transform="translate(0.000000, 1517.000000)">
                <g id="Group-6">
                    <g id="Group-9">
                        <g id="Group-25">
                            <g id="Group-24">
                                <g id="Group-5" transform="translate(286.000000, 0.000000)">
                                    <g id="optimization-(1)" transform="translate(103.000000, 238.500000) rotate(-15.000000) translate(-103.000000, -238.500000) translate(18.000000, 161.000000)">
                                        <path d="M91.652299,139.296238 L7.66516857,139.296238 C3.44934243,139.296238 0,135.847227 0,131.631401 L0,7.81594682 C0,3.60012068 3.44934243,0.15077825 7.66516857,0.15077825 L20.5674788,0.15077825 L36.2828804,0.15077825 L132.714684,0.15077825 C136.93051,0.15077825 140.379521,3.60012068 140.379521,7.81594682 L140.379521,140.593262 L91.652299,139.296238 Z" id="Shape" fill="#EEF2F3"></path>
                                        <path d="M126.198744,16.4606769 L126.198744,16.4606769 C123.872451,16.4606769 121.969,14.5572258 121.969,12.2309328 L121.969,12.2309328 C121.969,9.90463981 123.872451,8.00118867 126.198744,8.00118867 L126.198744,8.00118867 C128.525037,8.00118867 130.428488,9.90463981 130.428488,12.2309328 L130.428488,12.2309328 C130.428488,14.5575572 128.525037,16.4606769 126.198744,16.4606769 Z" id="Shape" fill="#374C60"></path>
                                        <path d="M108.92519,16.4606769 L108.92519,16.4606769 C106.598897,16.4606769 104.695446,14.5572258 104.695446,12.2309328 L104.695446,12.2309328 C104.695446,9.90463981 106.598897,8.00118867 108.92519,8.00118867 L108.92519,8.00118867 C111.251483,8.00118867 113.154934,9.90463981 113.154934,12.2309328 L113.154934,12.2309328 C113.154934,14.5575572 111.251483,16.4606769 108.92519,16.4606769 Z" id="Shape" fill="#F9A53D"></path>
                                        <path d="M91.6519676,16.4606769 L91.6519676,16.4606769 C89.3256746,16.4606769 87.4222235,14.5572258 87.4222235,12.2309328 L87.4222235,12.2309328 C87.4222235,9.90463981 89.3256746,8.00118867 91.6519676,8.00118867 L91.6519676,8.00118867 C93.9782606,8.00118867 95.8817118,9.90463981 95.8817118,12.2309328 L95.8817118,12.2309328 C95.8813804,14.5575572 93.9782606,16.4606769 91.6519676,16.4606769 Z" id="Shape" fill="#F05244"></path>
                                        <g id="Group" transform="translate(0.000000, 7.953138)" fill="#31475B">
                                            <path d="M16.4212426,0.0483815923 L70.9257574,0.0483815923 C73.2520504,0.0483815923 75.1555015,1.95183273 75.1555015,4.27812573 L75.1555015,4.27812573 C75.1555015,6.60441873 73.2520504,8.50786987 70.9257574,8.50786987 L16.4212426,8.50786987 C14.0949496,8.50786987 12.1914985,6.60441873 12.1914985,4.27812573 L12.1914985,4.27812573 C12.1918299,1.95183273 14.0949496,0.0483815923 16.4212426,0.0483815923 Z" id="Shape" opacity="0.963836287"></path>
                                            <rect id="Rectangle-path" opacity="0.229577892" x="0.155417581" y="16.4759205" width="140.224435" height="18.2670335"></rect>
                                        </g>
                                        <path d="M132.714353,0.15077825 L117.384347,0.15077825 L117.384347,1.43587287 L117.384347,19.7012495 L117.384347,117.598419 L68.6571247,116.301726 L0,116.301726 L0,131.631732 C0,135.847558 3.44934243,139.296569 7.66516857,139.296569 L91.652299,139.296569 L140.379521,140.593262 L140.379521,42.6960924 L140.379521,24.4303844 L140.379521,7.81594682 C140.37919,3.60012068 136.930179,0.15077825 132.714353,0.15077825 Z" id="Shape" fill="#DDDDDD" opacity="0.845277519"></path>
                                        <polygon id="Shape" fill="#F05244" points="107.468772 100.889538 17.4823239 100.889538 17.4823239 68.8360703 112.346697 68.8360703"></polygon>
                                        <path d="M160.559616,107.54764 L169.666954,104.14668 L164.202816,89.5138989 L155.095479,92.9148597 C150.096268,94.7815276 145.335652,89.6722989 147.55027,84.8172392 L151.585162,75.9726865 L137.374561,69.4898845 L133.339668,78.3347686 C131.124719,83.1898283 124.145509,82.9436124 122.278841,77.9437393 L118.87788,68.8364017 L104.2451,74.3005392 L107.64606,83.4078768 C109.512728,88.4070871 104.4035,93.1677033 99.54844,90.9530856 L90.7038872,86.9178619 L88.9594989,90.741996 L85.9555322,97.3262005 L84.2207539,101.128795 L93.0653066,105.163687 C97.9203662,107.378636 97.673819,114.357847 92.6746087,116.224846 L83.567271,119.625807 L89.0314085,134.258256 L98.1387462,130.857295 C103.137956,128.990627 107.898573,134.099856 105.683955,138.954584 L101.649063,147.799137 L115.859664,154.281939 L119.894556,145.437386 C122.109505,140.582326 129.088716,140.828542 130.955384,145.828415 L134.356345,154.935753 L148.989125,149.471284 L145.588164,140.363947 C143.721496,135.364736 148.830725,130.60412 153.685785,132.818738 L162.530338,136.853961 L169.013471,122.643029 L160.168918,118.608136 C155.313859,116.39385 155.560074,109.414308 160.559616,107.54764 Z M130.462952,122.18506 C124.774801,124.309211 118.442115,121.419902 116.317964,115.732083 C114.194144,110.043932 117.083122,103.711245 122.771273,101.587094 C128.459424,99.4632751 134.79211,102.352253 136.916261,108.040404 C139.04008,113.727892 136.151103,120.06091 130.462952,122.18506 Z" id="Shape" fill="#F9A53D"></path>
                                    </g>
                                </g>
                            </g>
                        </g>
                    </g>
                </g>
            </g>
        </g>
    </g>
</svg>