<?xml version="1.0" encoding="UTF-8" standalone="no"?>
<svg width="289px" height="223px" viewBox="0 0 289 223" version="1.1" xmlns="http://www.w3.org/2000/svg" xmlns:xlink="http://www.w3.org/1999/xlink">
    <!-- Generator: Sketch 46.2 (44496) - http://www.bohemiancoding.com/sketch -->
    <title>Artboard 3</title>
    <desc>Created with Sketch.</desc>
    <defs>
        <path d="M23.5820313,43.0232558 L218.705264,43.0232558 L218.705264,43.0232558 C219.809834,43.0232558 220.705264,43.9186863 220.705264,45.0232558 L220.705264,161.911648 L21.5820313,161.911648 L21.5820313,45.0232558 L21.5820313,45.0232558 C21.5820313,43.9186863 22.4774618,43.0232558 23.5820313,43.0232558 Z" id="path-1"></path>
    </defs>
    <g id="Page-1" stroke="none" stroke-width="1" fill="none" fill-rule="evenodd">
        <g id="Artboard-3">
            <g id="Group-9" transform="translate(14.000000, 0.000000)">
                <g id="Group-8">
                    <g id="Group-7">
                        <g id="Rectangle">
                            <use fill="#EEF2F3" fill-rule="evenodd" xlink:href="#path-1"></use>
                            <path stroke="#31475B" stroke-width="7.05000019" d="M25.1070313,46.5482559 L25.1070313,158.386648 L217.180264,158.386648 L217.180264,46.5482559 L25.1070313,46.5482559 Z"></path>
                        </g>
                        <path d="M150.711175,66.8411276 L140.624178,66.8411276 C138.768122,66.8411276 137.261719,65.3435258 137.261719,63.4983138 C137.261719,61.6531018 138.768122,60.1555001 140.624178,60.1555001 L150.711175,60.1555001 C152.567231,60.1555001 154.073634,61.6531018 154.073634,63.4983138 C154.073253,65.3435258 152.567231,66.8411276 150.711175,66.8411276" id="Shape" fill="#9FA5AA" fill-rule="nonzero"></path>
                        <path d="M197.505059,66.8411276 L163.88199,66.8411276 C162.025934,66.8411276 160.519531,65.3435258 160.519531,63.4983138 C160.519531,61.6531018 162.025934,60.1555001 163.88199,60.1555001 L197.505059,60.1555001 C199.361115,60.1555001 200.867518,61.6531018 200.867518,63.4983138 C200.867137,65.3435258 199.361115,66.8411276 197.505059,66.8411276" id="Shape" fill="#9FA5AA" fill-rule="nonzero"></path>
                        <path d="M157.435712,79.6866425 L140.624178,79.6866425 C138.768122,79.6866425 137.261719,78.1890407 137.261719,76.3438288 C137.261719,74.4986168 138.768122,73.001015 140.624178,73.001015 L157.435712,73.001015 C159.291768,73.001015 160.798171,74.4986168 160.798171,76.3438288 C160.798171,78.1890407 159.291768,79.6866425 157.435712,79.6866425" id="Shape" fill="#9FA5AA" fill-rule="nonzero"></path>
                        <path d="M180.429491,79.6866425 L170.342494,79.6866425 C168.486438,79.6866425 166.980035,78.1890407 166.980035,76.3438288 C166.980035,74.4986168 168.486438,73.001015 170.342494,73.001015 L180.429491,73.001015 C182.285547,73.001015 183.79195,74.4986168 183.79195,76.3438288 C183.79195,78.1890407 182.285547,79.6866425 180.429491,79.6866425" id="Shape" fill="#9FA5AA" fill-rule="nonzero"></path>
                        <path d="M196.962766,79.6866425 L193.600306,79.6866425 C191.74425,79.6866425 190.237847,78.1890407 190.237847,76.3438288 C190.237847,74.4986168 191.74425,73.001015 193.600306,73.001015 L196.962766,73.001015 C198.818822,73.001015 200.325225,74.4986168 200.325225,76.3438288 C200.325225,78.1890407 198.818822,79.6866425 196.962766,79.6866425" id="Shape" fill="#9FA5AA" fill-rule="nonzero"></path>
                        <path d="M157.435712,92.5936192 L140.624178,92.5936192 C138.768122,92.5936192 137.261719,91.0960175 137.261719,89.2508055 C137.261719,87.4055935 138.768122,85.9079917 140.624178,85.9079917 L180.744306,85.9079917 C182.600362,85.9079917 184.106765,87.4055935 184.106765,89.2508055 C184.106765,91.0960175 182.600362,92.5936192 180.744306,92.5936192" id="Shape" fill="#9FA5AA" fill-rule="nonzero"></path>
                        <path d="M196.962766,92.5936192 L193.600306,92.5936192 C191.74425,92.5936192 190.237847,91.0960175 190.237847,89.2508055 C190.237847,87.4055935 191.74425,85.9079917 193.600306,85.9079917 L196.962766,85.9079917 C198.818822,85.9079917 200.325225,87.4055935 200.325225,89.2508055 C200.325225,91.0960175 198.818822,92.5936192 196.962766,92.5936192" id="Shape" fill="#9FA5AA" fill-rule="nonzero"></path>
                        <path d="M59.2033621,128.794616 L49.1163654,128.794616 C47.2603093,128.794616 45.7539063,127.297014 45.7539063,125.451802 C45.7539063,123.60659 47.2603093,122.108988 49.1163654,122.108988 L59.2033621,122.108988 C61.0594182,122.108988 62.5658213,123.60659 62.5658213,125.451802 C62.5654404,127.297014 61.0594182,128.794616 59.2033621,128.794616" id="Shape" fill="#9FA5AA" fill-rule="nonzero"></path>
                        <path d="M105.997246,128.794616 L72.3741779,128.794616 C70.5181218,128.794616 69.0117188,127.297014 69.0117188,125.451802 C69.0117188,123.60659 70.5181218,122.108988 72.3741779,122.108988 L105.997246,122.108988 C107.853302,122.108988 109.359705,123.60659 109.359705,125.451802 C109.359324,127.297014 107.853302,128.794616 105.997246,128.794616" id="Shape" fill="#9FA5AA" fill-rule="nonzero"></path>
                        <path d="M65.9278996,141.640131 L49.1163654,141.640131 C47.2603093,141.640131 45.7539063,140.142529 45.7539063,138.297317 C45.7539063,136.452105 47.2603093,134.954503 49.1163654,134.954503 L65.9278996,134.954503 C67.7839557,134.954503 69.2903587,136.452105 69.2903587,138.297317 C69.2903587,140.142529 67.7839557,141.640131 65.9278996,141.640131" id="Shape" fill="#9FA5AA" fill-rule="nonzero"></path>
                        <path d="M78.8346814,141.640131 C76.9786253,141.640131 75.4722222,140.142529 75.4722222,138.297317 C75.4722222,136.452105 76.9786253,134.954503 78.8346814,134.954503 L100.144334,134.954503 C102.00039,134.954503 103.506793,136.452105 103.506793,138.297317 C103.506793,140.142529 102.00039,141.640131 100.144334,141.640131 L78.8346814,141.640131 Z" id="Shape" fill="#9FA5AA" fill-rule="nonzero"></path>
                        <path d="M114.087766,141.640131 L110.725306,141.640131 C108.86925,141.640131 107.362847,140.142529 107.362847,138.297317 C107.362847,136.452105 108.86925,134.954503 110.725306,134.954503 L114.087766,134.954503 C115.943822,134.954503 117.450225,136.452105 117.450225,138.297317 C117.450225,140.142529 115.943822,141.640131 114.087766,141.640131" id="Shape" fill="#9FA5AA" fill-rule="nonzero"></path>
                        <path d="M119.042147,128.794616 C117.186091,128.794616 115.679687,127.297014 115.679687,125.451802 C115.679687,123.60659 117.186091,122.108988 119.042147,122.108988 L139.488518,122.108988 C141.344574,122.108988 142.850978,123.60659 142.850978,125.451802 C142.850597,127.297014 141.344574,128.794616 139.488518,128.794616 L119.042147,128.794616 Z" id="Shape" fill="#9FA5AA" fill-rule="nonzero"></path>
                        <path d="M186.282402,128.794616 L152.659334,128.794616 C150.803278,128.794616 149.296875,127.297014 149.296875,125.451802 C149.296875,123.60659 150.803278,122.108988 152.659334,122.108988 L186.282402,122.108988 C188.138459,122.108988 189.644862,123.60659 189.644862,125.451802 C189.644481,127.297014 188.138459,128.794616 186.282402,128.794616" id="Shape" fill="#9FA5AA" fill-rule="nonzero"></path>
                        <path d="M146.213056,141.640131 L129.401522,141.640131 C127.545466,141.640131 126.039063,140.142529 126.039063,138.297317 C126.039063,136.452105 127.545466,134.954503 129.401522,134.954503 L146.213056,134.954503 C148.069112,134.954503 149.575515,136.452105 149.575515,138.297317 C149.575515,140.142529 148.069112,141.640131 146.213056,141.640131" id="Shape" fill="#9FA5AA" fill-rule="nonzero"></path>
                        <path d="M169.206834,141.640131 L159.119838,141.640131 C157.263782,141.640131 155.757378,140.142529 155.757378,138.297317 C155.757378,136.452105 157.263782,134.954503 159.119838,134.954503 L169.206834,134.954503 C171.06289,134.954503 172.569293,136.452105 172.569293,138.297317 C172.569293,140.142529 171.06289,141.640131 169.206834,141.640131" id="Shape" fill="#9FA5AA" fill-rule="nonzero"></path>
                        <path d="M185.740109,141.640131 L182.37765,141.640131 C180.521594,141.640131 179.015191,140.142529 179.015191,138.297317 C179.015191,136.452105 180.521594,134.954503 182.37765,134.954503 L185.740109,134.954503 C187.596165,134.954503 189.102569,136.452105 189.102569,138.297317 C189.102569,140.142529 187.596165,141.640131 185.740109,141.640131" id="Shape" fill="#9FA5AA" fill-rule="nonzero"></path>
                        <path d="M21.5820313,161.911648 L220.705264,161.911648 L220.705264,177.851732 L220.705264,177.851732 C220.705264,180.088485 218.892018,181.901732 216.655264,181.901732 L25.6320313,181.901732 L25.6320313,181.901732 C23.395278,181.901732 21.5820313,180.088485 21.5820313,177.851732 L21.5820313,161.911648 Z" id="Rectangle" fill="#DDDDDD"></path>
                        <ellipse id="Oval-7" fill="#31475B" cx="121.143648" cy="172.169718" rx="4.53766081" ry="4.47146609"></ellipse>
                        <g id="Group-16" transform="translate(0.000000, 0.783407)">
                            <rect id="Rectangle-16" fill="#436482" x="27.625" y="48.1860465" width="187.007563" height="3.66811069"></rect>
                            <ellipse id="Oval-2" fill="#22BDC3" cx="202.007813" cy="49.9069767" rx="1" ry="1"></ellipse>
                            <ellipse id="Oval-2" fill="#FECD4B" cx="205.460938" cy="49.9069767" rx="1" ry="1"></ellipse>
                            <ellipse id="Oval-2" fill="#EC614F" cx="208.914063" cy="49.9069767" rx="1" ry="1"></ellipse>
                            <g id="Group-17">
                                <path d="M59.6133092,24.5996772 C59.6133092,11.0138427 46.2677186,0 29.8065378,0 C13.3443061,0 0,11.0138427 0,24.5996772 C0,36.7372799 10.6512973,46.8207838 24.6609446,48.8328978 L24.6184412,48.8328978 C25.3536094,53.5254845 23.9972382,58.5084456 20.5472258,62.1276298 C27.9497011,62.1276298 34.0606112,56.333853 34.9885625,48.8336258 L34.9461759,48.8336258 C48.9580417,46.8234533 59.6133092,36.7388573 59.6133092,24.5996772 Z" id="Shape" fill="#F9A53D" fill-rule="nonzero" transform="translate(29.806655, 31.063815) scale(-1, 1) translate(-29.806655, -31.063815) "></path>
                                <path d="M12.6167031,14.4163172 L45.7578797,14.4163172" id="Line-3" stroke="#FFFFFF" stroke-width="2.4" stroke-linecap="square"></path>
                                <path d="M12.6167031,19.5650019 L45.7578797,19.5650019" id="Line-3" stroke="#FFFFFF" stroke-width="2.4" stroke-linecap="square"></path>
                                <path d="M12.6167031,24.7136866 L45.7578797,24.7136866" id="Line-3" stroke="#FFFFFF" stroke-width="2.4" stroke-linecap="square"></path>
                                <path d="M12.6167031,29.8623713 L45.7578797,29.8623713" id="Line-3" stroke="#FFFFFF" stroke-width="2.4" stroke-linecap="square"></path>
                                <path d="M12.6167031,35.011056 L45.7578797,35.011056" id="Line-3" stroke="#FFFFFF" stroke-width="2.4" stroke-linecap="square"></path>
                            </g>
                        </g>
                        <g id="Group-13" transform="translate(45.753906, 59.372093)">
                            <g id="Group-15">
                                <rect id="Rectangle-7" fill="#F9A53D" x="0" y="0.132176108" width="69.9257813" height="47.0743264"></rect>
                                <rect id="Rectangle-8" fill="#31475B" x="0" y="32.6976744" width="69.9257812" height="14.627907"></rect>
                                <rect id="Rectangle-12" fill="#A7A7A7" x="11.2226562" y="38.7209302" width="54.3867187" height="1.72093023"></rect>
                                <rect id="Rectangle-12" fill="#F05244" x="11.2226562" y="38.7209302" width="27.1933594" height="1.72093023"></rect>
                                <rect id="Rectangle-9" fill="#F05244" x="6.04296875" y="37.8604651" width="1" height="3.69352971"></rect>
                                <rect id="Rectangle-9" fill="#F05244" x="7.76953125" y="37.8604651" width="1" height="3.69352971"></rect>
                                <path d="M34.8785915,8.60465116 C30.3960293,8.60465116 26.7617188,12.2266536 26.7617188,16.6945365 C26.7617188,21.1629852 30.3960293,24.784931 34.8785915,24.784931 C39.3611537,24.784931 42.9954642,21.1629852 42.9954642,16.6945365 C42.9954642,12.2271627 39.3611537,8.60465116 34.8785915,8.60465116 Z M34.8785915,23.2680139 C31.2361656,23.2680139 28.2836572,20.3251369 28.2836572,16.6945931 C28.2836572,13.0640493 31.2361656,10.1211158 34.8785915,10.1211158 C38.5210173,10.1211158 41.4735258,13.0639927 41.4735258,16.6945365 C41.4735258,20.3250803 38.5210173,23.2680139 34.8785915,23.2680139 Z M38.1608211,16.321883 L33.5154413,13.7435707 C33.177094,13.5377854 32.8442516,13.7036355 32.8442516,14.1127172 L32.8442516,19.2809377 C32.8442516,19.6895103 33.1770373,19.8563786 33.5154413,19.6495751 L38.1532165,17.1092182 C38.583443,16.8649684 38.4266978,16.4710462 38.1608211,16.321883 Z" id="Shape" fill="#FFFFFF" fill-rule="nonzero"></path>
                            </g>
                        </g>
                    </g>
                    <g id="Group" transform="translate(77.101646, 181.901732)">
                        <rect id="Rectangle-2" fill="#E3E3E3" x="16.5491159" y="6.83871285" width="54.9857722" height="8.41687735"></rect>
                        <polygon id="Rectangle-3" fill="#E3E3E3" points="16.4878596 15.2555902 71.5419586 15.2580946 88.6092445 30.5111804 0 30.5111804"></polygon>
                        <path d="M0,30.5111804 L88.6178464,30.5111804 L88.6178464,36.7541126 L88.6178464,36.7541126 C88.6178464,38.2452814 87.4090152,39.4541126 85.9178464,39.4541126 L2.7,39.4541126 L2.7,39.4541126 C1.20883118,39.4541126 2.84715077e-15,38.2452814 2.66453526e-15,36.7541126 L0,30.5111804 Z" id="Rectangle-4" fill="#EEF1F2"></path>
                        <polygon id="Rectangle-11" fill="#E3E3E3" points="10.676849 0 77.407155 0 71.9295302 8.41687735 16.1544738 8.41687735"></polygon>
                    </g>
                </g>
                <g id="pencil-(1)" transform="translate(190.000000, 62.000000)" fill-rule="nonzero">
                    <polygon id="Shape" fill="#FFD24D" points="41.0748878 52.2448263 28.2762301 64.8657248 11.1615986 68.2411386 0 70.4423977 2.23226274 59.4358213 5.65521753 42.558893 18.4538752 29.9379944"></polygon>
                    <polygon id="Shape" fill="#FF7058" points="30.3596563 51.6577489 16.9656526 53.7123791 19.0492213 40.5044032 47.4741454 12.4741292 58.7847229 23.6276154"></polygon>
                    <g id="Group" transform="translate(5.554664, 6.882007)" fill="#F05244">
                        <polygon id="Shape" points="58.8852766 22.3222812 22.7215662 57.9837178 24.8049925 44.7757419 53.2300591 16.7456084"></polygon>
                        <polygon id="Shape" points="41.9194816 5.59212225 13.4945574 33.6223963 0.100553659 35.676886 36.264264 0.0154494034"></polygon>
                    </g>
                    <polygon id="Shape" fill="#334A5E" points="11.1615986 68.2411386 0 70.4423977 2.23226274 59.4358213"></polygon>
                    <path d="M70.5416675,19.0781874 L52.0876499,0.880475547 C50.8971002,-0.293538665 49.1112046,-0.293538665 47.920655,0.880475547 L41.8189279,6.89745639 L64.439798,29.2041478 L70.5415251,23.1871669 C71.7322171,22.0132932 71.7322171,20.2522016 70.5416675,19.0781874 Z" id="Shape" fill="#40596B"></path>
                    <rect id="Rectangle-path" fill="#F2F2F2" transform="translate(54.217690, 16.978126) rotate(135.000000) translate(-54.217690, -16.978126) " x="52.6550639" y="1.20225967" width="3.12525181" height="31.5517332"></rect>
                </g>
            </g>
        </g>
    </g>
</svg>