<?xml version="1.0" encoding="UTF-8" standalone="no"?>
<svg width="36px" height="36px" viewBox="0 0 36 36" version="1.1" xmlns="http://www.w3.org/2000/svg" xmlns:xlink="http://www.w3.org/1999/xlink">
    <!-- Generator: Sketch 46.1 (44463) - http://www.bohemiancoding.com/sketch -->
    <title>twitter-logo-on-black-background</title>
    <desc>Created with Sketch.</desc>
    <defs></defs>
    <g id="Page-1" stroke="none" stroke-width="1" fill="none" fill-rule="evenodd">
        <g id="Desktop-HD" transform="translate(-395.000000, -1069.000000)" fill-rule="nonzero" fill="#FFFFFF">
            <g id="Group-42" transform="translate(0.000000, 580.000000)">
                <g id="Group-40" transform="translate(0.000000, 427.000000)">
                    <g id="Group-47" transform="translate(300.000000, 61.000000)">
                        <g id="Group-41" transform="translate(95.000000, 0.000000)">
                            <g id="twitter-logo-on-black-background" transform="translate(0.009365, 1.000000)">
                                <g id="twitter-(3)">
                                    <path d="M17.9689147,0 C27.8934589,0 35.9379527,8.04560408 35.9379527,17.969038 C35.9379527,27.8935822 27.8934589,35.9379527 17.9689147,35.9379527 C8.04437046,35.9379527 0,27.8934589 0,17.969038 C0,8.04560408 8.04449382,0 17.9689147,0 Z M29.2029559,12.1054767 C28.4179979,12.4446012 27.5733322,12.6725759 26.6873399,12.775954 C27.5925768,12.2491944 28.2866164,11.4169884 28.6134047,10.423177 C27.7666418,10.911694 26.8299474,11.2654988 25.8315716,11.4552309 C25.0330436,10.6298098 23.8953911,10.1142763 22.6353626,10.1142763 C20.2185603,10.1142763 18.2577072,12.0156685 18.2577072,14.3627708 C18.2577072,14.696344 18.2959497,15.0209118 18.3710777,15.332033 C14.732366,15.1546371 11.5046994,13.4620983 9.346219,10.8914625 C8.96885193,11.5192562 8.7532136,12.2480842 8.7532136,13.0274909 C8.7532136,14.5009372 9.52583536,15.8036493 10.7006201,16.5640581 C9.98190795,16.5416061 9.3079765,16.3517506 8.71620473,16.0317473 L8.71620473,16.0856568 C8.71620473,18.1453236 10.2255496,19.862535 12.2290863,20.2533486 C11.861835,20.3499417 11.4754624,20.402741 11.0756433,20.402741 C10.7937591,20.402741 10.5197701,20.3769582 10.2524428,20.3263794 C10.8094262,22.0154641 12.4267136,23.244035 14.3437729,23.2778365 C12.8445437,24.4188198 10.9565981,25.0971923 8.90482659,25.0971923 C8.55102183,25.0971923 8.20289176,25.0769608 7.85920276,25.0377314 C9.79871406,26.2438504 12.0988151,26.9480057 14.5728578,26.9480057 C22.6274673,26.9480057 27.0321392,20.4702205 27.0321392,14.8548653 L27.0198029,14.3045435 C27.8732274,13.7069737 28.6156252,12.9590245 29.2029559,12.1054767 Z" id="Combined-Shape"></path>
                                </g>
                            </g>
                        </g>
                    </g>
                </g>
            </g>
        </g>
    </g>
</svg>