<?xml version="1.0" encoding="UTF-8" standalone="no"?>
<svg width="229px" height="207px" viewBox="0 0 229 207" version="1.1" xmlns="http://www.w3.org/2000/svg" xmlns:xlink="http://www.w3.org/1999/xlink">
    <!-- Generator: Sketch 46.1 (44463) - http://www.bohemiancoding.com/sketch -->
    <title>Group 9</title>
    <desc>Created with Sketch.</desc>
    <defs>
        <path d="M6.0588,0 L222.9412,0 L222.9412,0 C226.287383,-1.54747208e-14 229,2.71261716 229,6.0588 L229,137.344136 L0,137.344136 L0,6.0588 L0,6.0588 C-4.09789211e-16,2.71261716 2.71261716,1.83782522e-14 6.0588,1.77635684e-14 Z" id="path-1"></path>
    </defs>
    <g id="Page-1" stroke="none" stroke-width="1" fill="none" fill-rule="evenodd">
        <g id="Desktop-HD" transform="translate(-299.000000, -3823.000000)">
            <g id="Group-17" transform="translate(0.000000, 3737.000000)">
                <g id="Group-6">
                    <g id="Group-9">
                        <g id="Group-25">
                            <g id="Group-24">
                                <g id="Group-36" transform="translate(299.000000, 80.000000)">
                                    <g id="Group-9" transform="translate(0.000000, 6.000000)">
                                        <g id="Group-8" transform="translate(0.000000, 0.037263)">
                                            <g id="Group-7">
                                                <g id="Rectangle">
                                                    <use fill="#EEF2F3" fill-rule="evenodd" xlink:href="#path-1"></use>
                                                    <path stroke="#31475B" stroke-width="6.0588" d="M3.0294,134.314736 L225.9706,134.314736 L225.9706,6.0588 C225.9706,4.38570858 224.614291,3.0294 222.9412,3.0294 L6.0588,3.0294 C4.38570858,3.0294 3.0294,4.38570858 3.0294,6.0588 L3.0294,134.314736 Z"></path>
                                                </g>
                                                <path d="M35.0369765,34.6412119 L23.3524917,34.6412119 C21.20249,34.6412119 19.4575163,32.9007558 19.4575163,30.7563202 C19.4575163,28.6118847 21.20249,26.8714286 23.3524917,26.8714286 L35.0369765,26.8714286 C37.1869782,26.8714286 38.9319518,28.6118847 38.9319518,30.7563202 C38.9315106,32.9007558 37.1869782,34.6412119 35.0369765,34.6412119" id="Shape" fill="#31475B" fill-rule="nonzero"></path>
                                                <path d="M89.2416567,34.6412119 L50.2936681,34.6412119 C48.1436665,34.6412119 46.3986928,32.9007558 46.3986928,30.7563202 C46.3986928,28.6118847 48.1436665,26.8714286 50.2936681,26.8714286 L89.2416567,26.8714286 C91.3916584,26.8714286 93.136632,28.6118847 93.136632,30.7563202 C93.1361908,32.9007558 91.3916584,34.6412119 89.2416567,34.6412119" id="Shape" fill="#31475B" fill-rule="nonzero"></path>
                                                <path d="M42.826486,49.5697833 L23.3524917,49.5697833 C21.20249,49.5697833 19.4575163,47.8293272 19.4575163,45.6848917 C19.4575163,43.5404561 21.20249,41.8 23.3524917,41.8 L42.826486,41.8 C44.9764876,41.8 46.7214613,43.5404561 46.7214613,45.6848917 C46.7214613,47.8293272 44.9764876,49.5697833 42.826486,49.5697833" id="Shape" fill="#31475B" fill-rule="nonzero"></path>
                                                <path d="M69.4618131,49.5697833 L57.7773283,49.5697833 C55.6273266,49.5697833 53.8823529,47.8293272 53.8823529,45.6848917 C53.8823529,43.5404561 55.6273266,41.8 57.7773283,41.8 L69.4618131,41.8 C71.6118148,41.8 73.3567884,43.5404561 73.3567884,45.6848917 C73.3567884,47.8293272 71.6118148,49.5697833 69.4618131,49.5697833" id="Shape" fill="#31475B" fill-rule="nonzero"></path>
                                                <path d="M88.6134801,49.5697833 L84.7185048,49.5697833 C82.5685031,49.5697833 80.8235294,47.8293272 80.8235294,45.6848917 C80.8235294,43.5404561 82.5685031,41.8 84.7185048,41.8 L88.6134801,41.8 C90.7634818,41.8 92.5084554,43.5404561 92.5084554,45.6848917 C92.5084554,47.8293272 90.7634818,49.5697833 88.6134801,49.5697833" id="Shape" fill="#31475B" fill-rule="nonzero"></path>
                                                <path d="M35.0369765,64.4983547 L23.3524917,64.4983547 C21.20249,64.4983547 19.4575163,62.7578986 19.4575163,60.6134631 C19.4575163,58.4690275 21.20249,56.7285714 23.3524917,56.7285714 L35.0369765,56.7285714 C37.1869782,56.7285714 38.9319518,58.4690275 38.9319518,60.6134631 C38.9315106,62.7578986 37.1869782,64.4983547 35.0369765,64.4983547" id="Shape" fill="#31475B" fill-rule="nonzero"></path>
                                                <path d="M89.2416567,64.4983547 L50.2936681,64.4983547 C48.1436665,64.4983547 46.3986928,62.7578986 46.3986928,60.6134631 C46.3986928,58.4690275 48.1436665,56.7285714 50.2936681,56.7285714 L89.2416567,56.7285714 C91.3916584,56.7285714 93.136632,58.4690275 93.136632,60.6134631 C93.1361908,62.7578986 91.3916584,64.4983547 89.2416567,64.4983547" id="Shape" fill="#31475B" fill-rule="nonzero"></path>
                                                <path d="M42.826486,80.9197833 L23.3524917,80.9197833 C21.20249,80.9197833 19.4575163,79.1793272 19.4575163,77.0348917 C19.4575163,74.8904561 21.20249,73.15 23.3524917,73.15 L42.826486,73.15 C44.9764876,73.15 46.7214613,74.8904561 46.7214613,77.0348917 C46.7210201,79.1793272 44.9764876,80.9197833 42.826486,80.9197833" id="Shape" fill="#31475B" fill-rule="nonzero"></path>
                                                <path d="M69.4618131,80.9197833 L57.7773283,80.9197833 C55.6273266,80.9197833 53.8823529,79.1793272 53.8823529,77.0348917 C53.8823529,74.8904561 55.6273266,73.15 57.7773283,73.15 L69.4618131,73.15 C71.6118148,73.15 73.3567884,74.8904561 73.3567884,77.0348917 C73.3567884,79.1793272 71.6118148,80.9197833 69.4618131,80.9197833" id="Shape" fill="#31475B" fill-rule="nonzero"></path>
                                                <path d="M88.6134801,80.9197833 L84.7185048,80.9197833 C82.5685031,80.9197833 80.8235294,79.1793272 80.8235294,77.0348917 C80.8235294,74.8904561 82.5685031,73.15 84.7185048,73.15 L88.6134801,73.15 C90.7634818,73.15 92.5084554,74.8904561 92.5084554,77.0348917 C92.5080142,79.1793272 90.7634818,80.9197833 88.6134801,80.9197833" id="Shape" fill="#31475B" fill-rule="nonzero"></path>
                                                <path d="M35.0369765,95.8483547 L23.3524917,95.8483547 C21.20249,95.8483547 19.4575163,94.1078986 19.4575163,91.9634631 C19.4575163,89.8190275 21.20249,88.0785714 23.3524917,88.0785714 L35.0369765,88.0785714 C37.1869782,88.0785714 38.9319518,89.8190275 38.9319518,91.9634631 C38.9315106,94.1078986 37.1869782,95.8483547 35.0369765,95.8483547" id="Shape" fill="#31475B" fill-rule="nonzero"></path>
                                                <path d="M89.2416567,95.8483547 L50.2936681,95.8483547 C48.1436665,95.8483547 46.3986928,94.1078986 46.3986928,91.9634631 C46.3986928,89.8190275 48.1436665,88.0785714 50.2936681,88.0785714 L89.2416567,88.0785714 C91.3916584,88.0785714 93.136632,89.8190275 93.136632,91.9634631 C93.1361908,94.1078986 91.3916584,95.8483547 89.2416567,95.8483547" id="Shape" fill="#31475B" fill-rule="nonzero"></path>
                                                <path d="M42.826486,112.269783 L23.3524917,112.269783 C21.20249,112.269783 19.4575163,110.529327 19.4575163,108.384892 C19.4575163,106.240456 21.20249,104.5 23.3524917,104.5 L42.826486,104.5 C44.9764876,104.5 46.7214613,106.240456 46.7214613,108.384892 C46.7214613,110.529327 44.9764876,112.269783 42.826486,112.269783" id="Shape" fill="#31475B" fill-rule="nonzero"></path>
                                                <path d="M69.4618131,112.269783 L57.7773283,112.269783 C55.6273266,112.269783 53.8823529,110.529327 53.8823529,108.384892 C53.8823529,106.240456 55.6273266,104.5 57.7773283,104.5 L69.4618131,104.5 C71.6118148,104.5 73.3567884,106.240456 73.3567884,108.384892 C73.3567884,110.529327 71.6118148,112.269783 69.4618131,112.269783" id="Shape" fill="#31475B" fill-rule="nonzero"></path>
                                                <path d="M88.6134801,112.269783 L84.7185048,112.269783 C82.5685031,112.269783 80.8235294,110.529327 80.8235294,108.384892 C80.8235294,106.240456 82.5685031,104.5 84.7185048,104.5 L88.6134801,104.5 C90.7634818,104.5 92.5084554,106.240456 92.5084554,108.384892 C92.5084554,110.529327 90.7634818,112.269783 88.6134801,112.269783" id="Shape" fill="#31475B" fill-rule="nonzero"></path>
                                                <path d="M170.627451,22.3928571 L170.627451,61.2400134 L209.57544,61.2400134 C209.57544,39.7846563 192.138498,22.3928571 170.627451,22.3928571" id="Shape" fill="#F05244" fill-rule="nonzero"></path>
                                                <path d="M155.693087,76.1685848 L155.693087,37.3214286 C134.18204,37.3214286 116.745098,54.7132277 116.745098,76.1685848 C116.745098,97.623942 134.18204,115.015741 155.693087,115.015741 C177.204134,115.015741 194.641075,97.623942 194.641075,76.1685848 L155.693087,76.1685848 Z" id="Shape" fill="#F9A53D" fill-rule="nonzero"></path>
                                                <path d="M0,137.344136 L229,137.344136 L229,154.378597 L229,154.378597 C229,157.72478 226.287383,160.437397 222.9412,160.437397 L6.0588,160.437397 L6.0588,160.437397 C2.71261716,160.437397 3.67214974e-15,157.72478 1.77635684e-15,154.378597 L0,137.344136 Z" id="Rectangle" fill="#DDDDDD"></path>
                                                <ellipse id="Oval-7" fill="#31475B" cx="114.5" cy="149.194625" rx="5.21849866" ry="5.16559802"></ellipse>
                                            </g>
                                            <g id="Group" transform="translate(63.849866, 160.437397)">
                                                <rect id="Rectangle-2" fill="#D6D6D6" x="19.0321716" y="7.90032638" width="63.2359249" height="9.72347863"></rect>
                                                <polygon id="Rectangle-3" fill="#DDDDDD" points="18.9617242 17.623805 82.2762279 17.6266982 101.904317 35.24761 0 35.24761"></polygon>
                                                <path d="M0,35.24761 L101.914209,35.24761 L101.914209,41.5396061 L101.914209,41.5396061 C101.914209,43.7703946 100.105798,45.5788061 97.8750091,45.5788061 L4.0392,45.5788061 L4.0392,45.5788061 C1.80841144,45.5788061 1.16137123e-15,43.7703946 8.8817842e-16,41.5396061 L0,35.24761 Z" id="Rectangle-4" fill="#EEF1F2"></path>
                                                <polygon id="Rectangle-11" fill="#D6D6D6" points="12.2788204 0 89.0214477 0 82.7219514 9.72347863 18.5783167 9.72347863"></polygon>
                                            </g>
                                        </g>
                                    </g>
                                </g>
                            </g>
                        </g>
                    </g>
                </g>
            </g>
        </g>
    </g>
</svg>