<?xml version="1.0" encoding="UTF-8"?>
<svg width="91px" height="91px" viewBox="0 0 91 91" version="1.1" xmlns="http://www.w3.org/2000/svg" xmlns:xlink="http://www.w3.org/1999/xlink">
    <!-- Generator: Sketch 48.2 (47327) - http://www.bohemiancoding.com/sketch -->
    <title>Group 25</title>
    <desc>Created with Sketch.</desc>
    <defs>
        <linearGradient x1="27.9834692%" y1="0%" x2="78.7392437%" y2="100%" id="linearGradient-1">
            <stop stop-color="#D40E20" offset="0%"></stop>
            <stop stop-color="#FF0138" offset="100%"></stop>
        </linearGradient>
    </defs>
    <g id="Desktop-HD" stroke="none" stroke-width="1" fill="none" fill-rule="evenodd" transform="translate(-347.000000, -3895.000000)">
        <g id="Group-21" transform="translate(326.000000, 3879.000000)">
            <g id="Group-22">
                <g id="Group-5" transform="translate(12.000000, 18.000000)">
                    <g id="Group-25" transform="translate(11.000000, 0.000000)">
                        <circle id="Combined-Shape" stroke="url(#linearGradient-1)" stroke-width="1.5" cx="43.3999993" cy="43.3999993" r="44.1499993"></circle>
                        <g id="heart" transform="translate(9.000000, 21.000000)" fill-rule="nonzero">
                            <path d="M34.5,49 C34.5,49 19.3947373,39.9230009 11.510527,28.3907479 C6.94210607,21.694601 6.2789482,15.8912737 7.60526395,11.3527741 C9.52105337,4.80543047 16.81579,-1.66751153 26.9842107,2.12697172 C31.9210527,3.98701252 34.5,6.07025822 34.5,6.07025822 C34.5,6.07025822 37.0789473,3.98701252 42.0157893,2.12697172 C52.18421,-1.66751153 59.4789466,4.80543047 61.3947361,11.3527741 C62.7210518,15.816872 62.0578939,21.6201994 57.489473,28.3907479 C49.6052627,39.9230009 34.5,49 34.5,49 Z" id="Shape" fill="#FFFFFF"></path>
                            <path d="M66.962963,23.9583333 L61.1851852,23.9583333 C63.6296296,18.452381 63.3333333,14.0625 62.4444444,11.0863095 C60.8888889,5.72916667 55.7037037,1.32169408e-15 47.9259259,1.32169408e-15 C45.8518519,1.32169408e-15 43.7777778,0.37202381 41.6296296,1.19047619 C37.9259259,2.60416667 35.4814815,4.0922619 34.4444444,4.83630952 C33.3333333,4.0922619 30.962963,2.60416667 27.2592593,1.19047619 C25.1111111,0.37202381 23.037037,0 20.962963,0 C13.1851852,0 8,5.72916667 6.44444444,11.0863095 C5.40740741,14.2113095 5.11111111,19.047619 8.07407407,25.0744048 L1.03703704,25.0744048 C0.444444444,25.0744048 0,25.5208333 0,26.1160714 C0,26.7113095 0.444444444,27.1577381 1.03703704,27.1577381 L9.25925926,27.1577381 C9.62962963,27.7529762 10,28.3482143 10.3703704,28.9434524 C17.1111111,38.6904762 31.7037037,49.2559524 34.3703704,49.9255952 L34.3703704,50 C34.3703704,50 34.4444444,50 34.5185185,49.9255952 C34.5925926,49.9255952 34.6666667,49.9255952 34.6666667,49.9255952 L34.6666667,49.8511905 C36.962963,48.735119 50.962963,39.6577381 58.3703704,28.8690476 C59.037037,27.9017857 59.6296296,26.860119 60.1481481,25.9672619 L66.962963,25.9672619 C67.5555556,25.9672619 68,25.5208333 68,24.9255952 C68,24.4047619 67.5555556,23.9583333 66.962963,23.9583333 Z M8.37037037,11.6815476 C9.7037037,7.06845238 14.2222222,2.08333333 20.8888889,2.08333333 C22.6666667,2.08333333 24.5185185,2.45535714 26.4444444,3.125 C31.1851852,4.91071429 33.7037037,6.91964286 33.7037037,6.91964286 C34.0740741,7.2172619 34.6666667,7.2172619 35.037037,6.91964286 C35.037037,6.91964286 37.5555556,4.91071429 42.2962963,3.125 C44.2222222,2.45535714 46.0740741,2.08333333 47.8518519,2.08333333 C54.5185185,2.08333333 59.037037,7.06845238 60.3703704,11.6815476 C61.4814815,15.4761905 60.8888889,19.6428571 58.8148148,23.9583333 L52.5185185,23.9583333 L49.8518519,19.4196429 C49.7037037,19.1220238 49.3333333,18.8988095 48.962963,18.8988095 C48.5925926,18.8988095 48.2222222,19.047619 48.0740741,19.3452381 L45.8518519,22.6190476 L42.2962963,11.0119048 C42.1481481,10.5654762 41.7037037,10.2678571 41.2592593,10.2678571 C40.8148148,10.2678571 40.3703704,10.5654762 40.2222222,11.0119048 L34.2222222,31.9196429 L27.7037037,15.1785714 C27.5555556,14.8065476 27.1851852,14.5089286 26.7407407,14.5089286 C26.2962963,14.5089286 25.9259259,14.7321429 25.7777778,15.1041667 L20.6666667,25.0744048 L10.5185185,25.0744048 C7.92592593,20.3125 7.11111111,15.7738095 8.37037037,11.6815476 Z M56.5925926,27.7529762 C49.7037037,37.797619 37.1111111,45.9821429 34.3703704,47.6934524 C31.6296296,45.9821429 19.037037,37.7232143 12.1481481,27.7529762 C12,27.5297619 11.9259259,27.3809524 11.7777778,27.1577381 L21.3333333,27.1577381 C21.7037037,27.1577381 22.0740741,26.9345238 22.2962963,26.5625 L26.5925926,18.0803571 L33.4074074,35.5654762 C33.5555556,36.0119048 33.9259259,36.235119 34.3703704,36.235119 C34.3703704,36.235119 34.3703704,36.235119 34.4444444,36.235119 C34.8888889,36.235119 35.2592593,35.9375 35.4074074,35.4910714 L41.3333333,15.0297619 L44.5185185,25.3720238 C44.6666667,25.7440476 44.962963,26.0416667 45.4074074,26.1160714 C45.7777778,26.1904762 46.2222222,25.9672619 46.4444444,25.6696429 L48.962963,22.0238095 L51.1111111,25.6696429 C51.3333333,25.9672619 51.6296296,26.1904762 52,26.1904762 L57.7037037,26.1904762 C57.3333333,26.6369048 56.962963,27.2321429 56.5925926,27.7529762 Z" id="Shape" fill="#F00730"></path>
                        </g>
                    </g>
                </g>
            </g>
        </g>
    </g>
</svg>