<?xml version="1.0" encoding="UTF-8"?>
<svg width="73px" height="62px" viewBox="0 0 73 62" version="1.1" xmlns="http://www.w3.org/2000/svg" xmlns:xlink="http://www.w3.org/1999/xlink">
    <!-- Generator: Sketch 48.2 (47327) - http://www.bohemiancoding.com/sketch -->
    <title>gps</title>
    <desc>Created with Sketch.</desc>
    <defs></defs>
    <g id="Desktop-HD" stroke="none" stroke-width="1" fill="none" fill-rule="evenodd" transform="translate(-1034.000000, -658.000000)">
        <g id="Group-11" transform="translate(240.000000, 658.000000)" fill-rule="nonzero">
            <g id="gps" transform="translate(794.000000, 0.000000)">
                <g id="Group" transform="translate(4.000000, 0.000000)">
                    <path d="M19.8620766,46.8818145 C25.1971774,47.7898387 28.9785887,50.0486089 28.9785887,52.6819355 C28.9785887,56.1325403 22.5114919,58.9247782 14.5269758,58.9247782 C6.54245968,58.9247782 0.0753629032,56.1325403 0.0753629032,52.6819355 C0.0753629032,50.0486089 3.85691532,47.7898387 9.191875,46.8818145 L19.8620766,46.8818145 Z" id="Shape" fill="#FFEFF0"></path>
                    <path d="M63.7343347,23.6314919 C66.8172984,24.6431048 68.9249194,26.6543347 68.9249194,28.9785887 C68.9249194,32.3024597 64.6135685,35.0001411 59.2904637,35.0001411 C53.9673589,35.0001411 49.6560081,32.3024597 49.6560081,28.9785887 C49.6560081,26.6543347 51.7634879,24.6431048 54.8465927,23.6314919 L63.7343347,23.6314919 Z" id="Shape" fill="#FFEFF0"></path>
                    <path d="M68.9247782,9.74030242 C68.9247782,13.5002621 64.1444556,23.429254 61.3183468,27.8622581 C60.8783065,28.5571774 60.1129637,28.9784476 59.2904637,28.9784476 C58.4679637,28.9784476 57.702621,28.5571774 57.2625806,27.8622581 C54.4363306,23.429254 49.6561492,13.5002621 49.6561492,9.74030242 C49.6561492,4.41931452 53.9696169,0.105846774 59.2906048,0.105846774 C64.6115927,0.105846774 68.9247782,4.41945565 68.9247782,9.74030242 Z" id="Shape" fill="#FFEFF0"></path>
                    <circle id="Oval" fill="#FFFFFF" cx="59.2904637" cy="10.7096774" r="4.81715726"></circle>
                    <path d="M28.9785887,22.841754 C28.9785887,28.4816935 21.808246,43.3750403 17.568871,50.0247581 C16.9088105,51.0672782 15.7608669,51.6991129 14.5269758,51.6991129 C13.2930847,51.6991129 12.1451411,51.0672782 11.4850806,50.0247581 C7.24570565,43.3750403 0.0753629032,28.4815524 0.0753629032,22.841754 C0.0589919355,17.6678226 2.80987903,12.879879 7.28790323,10.2881855 C11.7659274,7.69649194 17.2878831,7.69649194 21.7659073,10.2881855 C26.2440726,12.8797379 28.9949597,17.6676815 28.9785887,22.841754 Z" id="Shape" fill="#FFEFF0"></path>
                    <circle id="Oval" fill="#FFFFFF" cx="14.5269758" cy="23.795746" r="8.43006048"></circle>
                </g>
                <g id="Group" transform="translate(0.000000, 1.000000)" fill="#859DBA">
                    <path d="M61.0808421,0 C55.1221053,0.015046875 50.3002105,4.86014063 50.3018947,10.8305156 C50.3018947,13.6933594 52.6624561,19.3800938 55.0015439,24.0323906 C52.8394386,24.8408438 51.1667368,26.5979531 50.4627368,28.8 L50.3018947,28.8 C49.6404211,28.8 49.1042807,29.3373281 49.1042807,29.9999531 C49.1042807,30.6625781 49.6405614,31.1999063 50.3018947,31.1999063 L50.4575439,31.1999063 C51.2913684,34.6449375 55.6515088,37.1999531 61.0808421,37.1999531 C67.1253333,37.1999531 71.8597895,34.0370156 71.8597895,29.9999531 C71.8597895,27.5630625 70.0902456,25.3565156 67.16,24.03225 C69.4993684,19.3796719 71.8597895,13.6932188 71.8597895,10.830375 C71.8614737,4.86014063 67.0394386,0.015046875 61.0808421,0 Z M61.0808421,2.40004688 C65.717193,2.41382813 69.4675088,6.18510938 69.4644211,10.8305156 C69.4644211,14.1498281 64.989614,23.6818125 62.0865965,28.2434063 C61.8589474,28.5758438 61.482386,28.7745469 61.08,28.7744063 C60.677614,28.7742656 60.301193,28.5754219 60.0736842,28.2428438 C57.1719298,23.6819531 52.6971228,14.1498281 52.6971228,10.8305156 C52.6941754,6.18510938 56.4444912,2.41382813 61.0808421,2.40004688 Z M69.4644211,30.0000937 C69.4644211,32.6022187 65.6247018,34.8000469 61.0808421,34.8000469 C56.5369825,34.8000469 52.6972632,32.6022187 52.6972632,30.0000937 C52.6972632,28.5278906 54.0099649,27.0819844 56.1111579,26.1646875 C56.8217544,27.4855781 57.4951579,28.6541719 58.0540351,29.5325156 C58.7112982,30.57075 59.8530526,31.1999062 61.0801404,31.2000469 C62.3072281,31.2001875 63.4491228,30.5711719 64.1066667,29.5330781 C64.6656842,28.6545938 65.3395088,27.4855781 66.0502456,26.1645469 C68.1517193,27.0818438 69.4644211,28.52775 69.4644211,30.0000937 Z" id="Shape"></path>
                    <path d="M67.0690526,10.8 C67.0690526,7.4863125 64.3879298,4.79995313 61.0807018,4.79995313 C57.7734737,4.79995313 55.0923509,7.4863125 55.0923509,10.8 C55.0923509,14.1136875 57.7734737,16.8000469 61.0807018,16.8000469 C64.386386,16.7961094 67.0652632,14.1121406 67.0690526,10.8 Z M57.4878596,10.8 C57.4878596,8.81184375 59.0965614,7.2 61.0808421,7.2 C63.0651228,7.2 64.6738246,8.81184375 64.6738246,10.8 C64.6738246,12.7881563 63.0651228,14.4 61.0808421,14.4 C59.0972632,14.3978906 57.4899649,12.7873125 57.4878596,10.8 Z" id="Shape"></path>
                    <path d="M25.1510175,23.8000469 C25.1510175,18.4980625 20.8613333,14.2 15.5696842,14.2 C10.2780351,14.2 5.98835088,18.4980625 5.98835088,23.8000469 C5.98835088,29.1020313 10.2780351,33.4000938 15.5696842,33.4000938 C20.858807,33.3939063 25.1448421,29.0995 25.1510175,23.8000469 Z M8.3837193,23.8000469 C8.3837193,19.8235938 11.6009825,16.6000469 15.5696842,16.6000469 C19.538386,16.6000469 22.7556491,19.8235938 22.7556491,23.8000469 C22.7556491,27.7765 19.538386,31.0000469 15.5696842,31.0000469 C11.602807,30.9956875 8.38807018,27.7746719 8.3837193,23.8000469 Z" id="Shape"></path>
                    <path d="M0.000140350877,53.5797813 C0.000140350877,57.8102031 6.69361404,61 15.5696842,61 C23.4195088,61 29.5531228,58.5032031 30.8684912,54.9999531 C31.0123161,54.5803066 31.1025617,54.192627 31.1392281,53.8369141 C31.1594465,53.2718099 31.1157506,52.8595208 31.0081404,52.6000469 C30.3639298,50.029 27.1945263,47.9204688 22.3381053,46.8636719 C26.2885614,39.5821094 31.1392281,28.8054531 31.1392281,23.84575 C31.1562105,18.2611094 28.1922807,13.0934219 23.3681404,10.29625 C18.544,7.49907812 12.5953684,7.49907812 7.77122807,10.29625 C2.94708772,13.0934219 -0.0168421053,18.2611094 0.000140350877,23.84575 C0.000140350877,28.8054531 4.85080702,39.5821094 8.80140351,46.8636719 C3.33978947,48.0522344 0.000140350877,50.569 0.000140350877,53.5797813 Z M15.5696842,10.6 C22.8547368,10.6208125 28.7483509,16.5463281 28.744,23.84575 C28.744,28.9263906 21.9744561,43.3885469 17.5849825,50.2867656 C17.1484912,50.9797656 16.3876491,51.4000938 15.5698246,51.4000938 C14.752,51.4000938 13.9911579,50.9797656 13.5546667,50.2867656 C9.16491228,43.3885469 2.39536842,28.9263906 2.39536842,23.84575 C2.39101754,16.5463281 8.28449123,10.6209531 15.5696842,10.6 Z M10.0325614,49.0737344 C10.5706667,50.0101563 11.0801404,50.8610781 11.5357193,51.577 C12.4116491,52.9613125 13.9337544,53.8 15.5696842,53.8 C17.205614,53.8 18.7275789,52.9611719 19.6036491,51.577 C20.0592281,50.8610781 20.5687018,50.0101563 21.106807,49.0737344 C26.109193,50.016625 28.744,52.0253125 28.744,53.5797813 C28.744,55.949875 23.1100351,58.6000938 15.5696842,58.6000938 C8.02933333,58.6000938 2.39536842,55.949875 2.39536842,53.5797813 C2.39536842,52.0253125 5.03031579,50.016625 10.0325614,49.0737344 Z" id="Shape"></path>
                    <path d="M68.3381053,42.8643281 C67.84,42.429375 67.0843509,42.4808438 66.6495439,42.9792188 C66.2147368,43.4775938 66.2648421,44.2347188 66.7615439,44.6713594 C67.2952982,45.1380938 67.7821754,45.6560156 68.2152982,46.2176719 C68.4762105,46.5586875 68.8992281,46.7337656 69.3243509,46.6768125 C69.7494737,46.6198594 70.1115789,46.3393125 70.2738246,45.941625 C70.4360702,45.5437969 70.373614,45.0895781 70.1100351,44.7505313 C69.5818947,44.0655469 68.9884912,43.4338594 68.3381053,42.8643281 Z" id="Shape"></path>
                    <path d="M72.8317193,51.9298594 C72.7747368,51.0647344 72.6321404,50.2073438 72.4060351,49.3704844 C72.2948772,48.9562031 71.9712281,48.6329063 71.5574737,48.5227969 C71.1437193,48.4126875 70.7025965,48.5322188 70.4008421,48.8365313 C70.0990877,49.1408438 69.9824561,49.5835313 70.0950175,49.9973906 C70.2788772,50.6811094 70.3949474,51.3814219 70.4412632,52.0880625 C70.4829474,52.7183438 71.0050526,53.2084219 71.6353684,53.2089844 C71.6623158,53.2089844 71.6891228,53.2084219 71.7160702,53.2065938 C72.3757193,53.1625781 72.8750877,52.5910781 72.8317193,51.9298594 Z" id="Shape"></path>
                    <path d="M67.4199298,56.4943125 C66.8266667,56.7875156 66.5828772,57.5070937 66.8755088,58.1015156 C67.1681404,58.6959375 67.8863158,58.9402031 68.4795789,58.647 C69.2550175,58.263375 69.9911579,57.8045156 70.6773333,57.2770312 C71.2021053,56.8738594 71.3013333,56.1206719 70.8989474,55.5947344 C70.4965614,55.0687969 69.7448421,54.9695156 69.2199298,55.3726875 C68.6579649,55.8048281 68.0551579,56.1804375 67.4199298,56.4943125 Z" id="Shape"></path>
                    <path d="M38.8245614,40.4326406 C38.6875789,41.0809219 39.1006316,41.7178125 39.7473684,41.8559062 C40.1991579,41.9519531 40.6597895,42.0001875 41.1216842,42.0000469 L42.3451228,42.0000469 C43.0065965,42.0000469 43.5427368,41.4628594 43.5427368,40.8000937 C43.5427368,40.1373281 43.0065965,39.6001406 42.3451228,39.6001406 L41.1216842,39.6001406 C40.8273684,39.6002812 40.5337544,39.569625 40.245614,39.5087344 C39.9348772,39.4419375 39.6102456,39.5017031 39.3435789,39.6750937 C39.0770526,39.8483437 38.8902456,40.1210156 38.8245614,40.4326406 Z" id="Shape"></path>
                    <path d="M44.1743158,31.2000469 L46.5310877,31.2000469 C47.1925614,31.2000469 47.7287018,30.6627188 47.7287018,30.0000938 C47.7287018,29.3374688 47.1925614,28.8001406 46.5310877,28.8001406 L44.1743158,28.8001406 C43.5128421,28.8001406 42.9767018,29.3374688 42.9767018,30.0000938 C42.9767018,30.6627188 43.5128421,31.2000469 44.1743158,31.2000469 Z" id="Shape"></path>
                    <path d="M36.3567719,39.1231406 C36.7765614,39.1227187 37.1654737,38.9020781 37.3818947,38.5416562 C37.5983158,38.1812344 37.6105263,37.733625 37.4141754,37.3618125 C37.1270175,36.8188594 36.9633684,36.2189531 36.9345965,35.605125 C36.8955789,34.9462969 36.3378246,34.439625 35.6795789,34.4649375 C35.0189474,34.4977031 34.5097544,35.0604844 34.541614,35.7224062 C34.586807,36.6876562 34.8449123,37.6309687 35.2971228,38.4845625 C35.5049825,38.8776094 35.9127018,39.1232812 36.3567719,39.1231406 Z" id="Shape"></path>
                    <path d="M46.925193,57.6000469 C46.2637193,57.6000469 45.7275789,58.137375 45.7275789,58.8 C45.7275789,59.462625 46.2637193,59.9999531 46.925193,59.9999531 L49.2830877,59.9999531 C49.9445614,59.9999531 50.4807018,59.4627656 50.4807018,58.8 C50.4807018,58.1372344 49.9444211,57.6000469 49.2830877,57.6000469 L46.925193,57.6000469 Z" id="Shape"></path>
                    <path d="M39.8538947,57.6000469 C39.1924211,57.6000469 38.6562807,58.137375 38.6562807,58.8 C38.6562807,59.462625 39.1925614,59.9999531 39.8538947,59.9999531 L42.2106667,59.9999531 C42.8721404,59.9999531 43.4082807,59.4627656 43.4082807,58.8 C43.4082807,58.1372344 42.872,57.6000469 42.2106667,57.6000469 L39.8538947,57.6000469 Z" id="Shape"></path>
                    <path d="M32.8538947,57.6000469 C32.1924211,57.6000469 31.6562807,58.137375 31.6562807,58.8 C31.6562807,59.462625 32.1925614,59.9999531 32.8538947,59.9999531 L35.2106667,59.9999531 C35.8721404,59.9999531 36.4082807,59.4627656 36.4082807,58.8 C36.4082807,58.1372344 35.872,57.6000469 35.2106667,57.6000469 L32.8538947,57.6000469 Z" id="Shape"></path>
                    <path d="M63.8749474,40.2879375 C63.0545965,40.0102031 62.2087018,39.8151563 61.3497544,39.7054688 C60.9247719,39.650625 60.5030175,39.8273906 60.2435088,40.1689688 C59.984,40.5105469 59.9264561,40.9650469 60.0924912,41.3607656 C60.2585263,41.7564844 60.6228772,42.033375 61.048,42.0866719 C61.7484912,42.1761094 62.4384561,42.3350156 63.1076491,42.5612813 C63.7320702,42.7663125 64.4047719,42.4290938 64.6151579,41.8054219 C64.8256842,41.18175 64.4952982,40.5046406 63.8749474,40.2879375 Z" id="Shape"></path>
                    <path d="M56.4889825,39.6 L54.1310877,39.6 C53.469614,39.6 52.9334737,40.1371875 52.9334737,40.7999531 C52.9334737,41.4627187 53.469614,41.9999062 54.1310877,41.9999062 L56.4889825,41.9999062 C57.1504561,41.9999062 57.6865965,41.4627187 57.6865965,40.7999531 C57.6865965,40.1371875 57.1504561,39.6 56.4889825,39.6 Z" id="Shape"></path>
                    <path d="M61.0690526,57.6000469 C60.4075789,57.6000469 59.8714386,58.137375 59.8714386,58.8 C59.8714386,59.462625 60.4077193,59.9999531 61.0690526,59.9999531 L62.6854737,59.9999531 C62.9580351,59.9999531 63.2293333,59.9915156 63.4995088,59.9747813 C63.9271579,59.9491875 64.3086316,59.6967656 64.4999298,59.3125781 C64.6912281,58.9283906 64.6630175,58.4712188 64.4262456,58.1136094 C64.1893333,57.7558594 63.7799298,57.5522344 63.3522807,57.5795156 C63.1312281,57.5930156 62.9089123,57.5997656 62.685614,57.6000469 L61.0690526,57.6000469 Z" id="Shape"></path>
                    <path d="M49.4176842,39.6 L47.0597895,39.6 C46.3983158,39.6 45.8621754,40.1371875 45.8621754,40.7999531 C45.8621754,41.4627187 46.3984561,41.9999062 47.0597895,41.9999062 L49.4176842,41.9999062 C50.0791579,41.9999062 50.6152982,41.4627187 50.6152982,40.7999531 C50.6152982,40.1371875 50.0790175,39.6 49.4176842,39.6 Z" id="Shape"></path>
                    <path d="M52.7988772,58.8 C52.7987368,59.1182344 52.9249123,59.4235312 53.149614,59.6486719 C53.3741754,59.8736719 53.6788772,60.0000937 53.9966316,60.0000937 L56.3545263,60.0000937 C57.016,60.0000937 57.5521404,59.4629062 57.5521404,58.8001406 C57.5521404,58.137375 57.016,57.6001875 56.3545263,57.6001875 L53.9966316,57.6001875 C53.6790175,57.6000469 53.3743158,57.7264687 53.149614,57.9516094 C52.9249123,58.1764687 52.7988772,58.4817656 52.7988772,58.8 Z" id="Shape"></path>
                    <path d="M37.466807,32.6314688 C37.7682807,32.6318906 38.0586667,32.5179844 38.2797193,32.3126719 C38.7305263,31.8961406 39.2665263,31.5831094 39.8505263,31.3956563 C40.2581053,31.2654375 40.5654737,30.9272344 40.6567018,30.5084531 C40.7479298,30.0896719 40.6092632,29.653875 40.2929123,29.3653125 C39.9765614,29.07675 39.5305263,28.9791563 39.1229474,29.109375 C38.2050526,29.4038438 37.362386,29.8956094 36.6538947,30.5502188 C36.2919298,30.8854688 36.1717895,31.4087344 36.3514386,31.8687188 C36.5310877,32.3287031 36.9737544,32.6314688 37.466807,32.6314688 Z" id="Shape"></path>
                </g>
            </g>
        </g>
    </g>
</svg>