<?xml version="1.0" encoding="UTF-8"?>
<svg width="128px" height="97px" viewBox="0 0 128 97" version="1.1" xmlns="http://www.w3.org/2000/svg" xmlns:xlink="http://www.w3.org/1999/xlink">
    <!-- Generator: Sketch 48.2 (47327) - http://www.bohemiancoding.com/sketch -->
    <title>ipad</title>
    <desc>Created with Sketch.</desc>
    <defs></defs>
    <g id="Desktop-HD" stroke="none" stroke-width="1" fill="none" fill-rule="evenodd" transform="translate(-877.000000, -1878.000000)">
        <g id="Group-3" transform="translate(740.000000, 1842.000000)">
            <g id="Group-27" transform="translate(35.000000, 36.000000)">
                <g id="ipad" transform="translate(166.000000, 48.500000) rotate(-270.000000) translate(-166.000000, -48.500000) translate(117.500000, -15.500000)">
                    <rect id="Rectangle-3" fill="#FBFBFB" x="5" y="10" width="88" height="107"></rect>
                    <path d="M89.3016081,0 L7.69839189,0 C3.45398649,0 -1.42108547e-14,3.45953043 -1.42108547e-14,7.71074846 L-1.42108547e-14,120.289252 C-1.42108547e-14,124.54047 3.45398649,128 7.69839189,128 L89.3016081,128 C93.5460135,128 97,124.54047 97,120.289252 L97,7.71074846 C97,3.45821751 93.5460135,0 89.3016081,0 Z M48.5,4.43371319 C49.1370541,4.43371319 49.6548243,4.95231453 49.6548243,5.59039111 C49.6548243,6.22846768 49.1370541,6.74575611 48.5,6.74575611 C47.8629459,6.74575611 47.3451757,6.22715477 47.3451757,5.58907819 C47.3451757,4.95100161 47.8629459,4.43371319 48.5,4.43371319 Z M48.5,123.756659 C47.2245811,123.756659 46.1903514,122.722083 46.1903514,121.443304 C46.1903514,120.164525 47.2245811,119.128635 48.5,119.128635 C49.7754189,119.128635 50.8096486,120.164525 50.8096486,121.443304 C50.8096486,122.722083 49.7754189,123.756659 48.5,123.756659 Z M90.8418108,116.623593 L6.15818919,116.623593 L6.15818919,11.3724678 L90.8418108,11.3724678 L90.8418108,116.623593 Z" id="Shape" fill="#374C60" fill-rule="nonzero"></path>
                    <g id="navigation" transform="translate(10.000000, 25.000000)" fill-rule="nonzero">
                        <path d="M68.6369863,5.68434189e-14 L8.3630137,5.68434189e-14 C3.75160274,5.68434189e-14 -1.0658141e-14,3.75160274 -1.0658141e-14,8.3630137 L-1.0658141e-14,68.6369863 C-1.0658141e-14,73.2483973 3.75160274,77 8.3630137,77 L68.6369863,77 C73.2483973,77 77,73.2483973 77,68.6369863 L77,8.3630137 C77,3.75160274 73.2483973,5.68434189e-14 68.6369863,5.68434189e-14 Z" id="Shape" stroke="#DFDFDF" fill="#FFFFFF"></path>
                        <path d="M14.7968082,22.4223699 C15.017411,22.6429726 15.306726,22.7534247 15.5958904,22.7534247 C15.8850548,22.7534247 16.1743699,22.6431233 16.3949726,22.4223699 L19.2123288,19.6050137 L22.0296849,22.4223699 C22.2502877,22.6429726 22.5396027,22.7534247 22.8287671,22.7534247 C23.1179315,22.7534247 23.4072466,22.6431233 23.6278493,22.4223699 C24.0692055,21.9810137 24.0692055,21.265411 23.6278493,20.8242055 L20.8104932,18.0068493 L23.6278493,15.1894932 C24.0692055,14.748137 24.0692055,14.0325342 23.6278493,13.5913288 C23.1864932,13.1499726 22.4708904,13.1499726 22.0296849,13.5913288 L19.2123288,16.4086849 L16.3949726,13.5913288 C15.9536164,13.1499726 15.2380137,13.1499726 14.7968082,13.5913288 C14.3554521,14.0326849 14.3554521,14.7482877 14.7968082,15.1894932 L17.6141644,18.0068493 L14.7968082,20.8242055 C14.3554521,21.265411 14.3554521,21.9811644 14.7968082,22.4223699 Z" id="Shape" fill="#F9A53D"></path>
                        <path d="M42.9155205,58.1940685 C42.4741644,57.7527123 41.7585616,57.7527123 41.3173562,58.1940685 L38.5,61.0114247 L35.6826438,58.1940685 C35.2412877,57.7527123 34.5256849,57.7527123 34.0844795,58.1940685 C33.6431233,58.6354247 33.6431233,59.3510274 34.0844795,59.7922329 L36.9018356,62.609589 L34.0844795,65.4269452 C33.6431233,65.8683014 33.6431233,66.5839041 34.0844795,67.0251096 C34.3050822,67.2457123 34.5943973,67.3561644 34.8835616,67.3561644 C35.172726,67.3561644 35.4620411,67.245863 35.6826438,67.0251096 L38.5,64.2077534 L41.3173562,67.0251096 C41.5379589,67.2457123 41.827274,67.3561644 42.1164384,67.3561644 C42.4056027,67.3561644 42.6949178,67.245863 42.9155205,67.0251096 C43.3568767,66.5837534 43.3568767,65.8681507 42.9155205,65.4269452 L40.0981644,62.609589 L42.9155205,59.7922329 C43.3568767,59.3510274 43.3568767,58.635274 42.9155205,58.1940685 Z" id="Shape" fill="#F9A53D"></path>
                        <path d="M59.3995479,41.7100411 C59.6201507,41.9306438 59.9094658,42.0410959 60.1986301,42.0410959 C60.4877945,42.0410959 60.7771096,41.9307945 60.9977123,41.7100411 C61.4390685,41.2686849 61.4390685,40.5530822 60.9977123,40.1118767 L58.1803562,37.2945205 L60.9977123,34.4771644 C61.4390685,34.0358082 61.4390685,33.3202055 60.9977123,32.879 C60.5563562,32.4376438 59.8407534,32.4376438 59.3995479,32.879 L56.5821918,35.6963562 L53.7648356,32.879 C53.3234795,32.4376438 52.6078767,32.4376438 52.1666712,32.879 C51.7253151,33.3203562 51.7253151,34.0359589 52.1666712,34.4771644 L54.9840274,37.2945205 L52.1666712,40.1118767 C51.7253151,40.5532329 51.7253151,41.2688356 52.1666712,41.7100411 C52.387274,41.9306438 52.676589,42.0410959 52.9657534,42.0410959 C53.2549178,42.0410959 53.5442329,41.9307945 53.7648356,41.7100411 L56.5821918,38.8926849 L59.3995479,41.7100411 Z" id="Shape" fill="#FFDA44"></path>
                        <path d="M48.0684932,15.5958904 C48.0684932,14.3079863 47.0207808,13.260274 45.7328767,13.260274 C44.4449726,13.260274 43.3972603,14.3079863 43.3972603,15.5958904 C43.3972603,16.8837945 44.4449726,17.9315068 45.7328767,17.9315068 C47.0207808,17.9315068 48.0684932,16.8837945 48.0684932,15.5958904 Z" id="Shape" fill="#F05244"></path>
                        <path d="M16.5436986,48.2191781 C16.4412329,48.2191781 16.340274,48.2327397 16.2423288,48.259863 C16.1443836,48.2327397 16.0434247,48.2191781 15.9409589,48.2191781 L13.1849315,48.2191781 C12.3772603,48.2191781 11.5665753,48.2930137 10.7769863,48.4391781 C10.56,48.4783562 10.3430137,48.5250685 10.1320548,48.5747945 C9.83821918,48.6441096 9.58808219,48.8249315 9.42986301,49.0810959 C9.27164384,49.3387671 9.22342466,49.6416438 9.29273973,49.9354795 C9.41328767,50.4478082 9.86534247,50.8049315 10.3912329,50.8049315 C10.4786301,50.8049315 10.5675342,50.7943836 10.6519178,50.7747945 C10.6519178,50.7747945 10.6519178,50.7747945 10.6534247,50.7732877 C10.8327397,50.7310959 11.0120548,50.6934247 11.1868493,50.6617808 C11.8408219,50.5412329 12.5128767,50.4794521 13.1849315,50.4794521 L15.9409589,50.4794521 C16.0434247,50.4794521 16.1443836,50.4658904 16.2423288,50.4387671 C16.340274,50.4658904 16.4412329,50.4794521 16.5436986,50.4794521 C17.1675342,50.4794521 17.6738356,49.9731507 17.6738356,49.3493151 C17.6738356,48.7254795 17.1675342,48.2191781 16.5436986,48.2191781 Z" id="Shape" fill="#516C86"></path>
                        <path d="M38.5436986,50.4387671 C38.6416438,50.4658904 38.7426027,50.4794521 38.8450685,50.4794521 C39.4689041,50.4794521 39.9752055,49.9731507 39.9752055,49.3493151 C39.9752055,48.7254795 39.4689041,48.2191781 38.8450685,48.2191781 C38.7426027,48.2191781 38.6416438,48.2327397 38.5436986,48.259863 C38.4457534,48.2327397 38.3447945,48.2191781 38.2423288,48.2191781 L32.6669863,48.2191781 C32.0446575,48.2191781 31.5368493,48.7254795 31.5368493,49.3493151 C31.5368493,49.9731507 32.0446575,50.4794521 32.6669863,50.4794521 L38.2423288,50.4794521 C38.3447945,50.4794521 38.4457534,50.4658904 38.5436986,50.4387671 Z" id="Shape" fill="#516C86"></path>
                        <path d="M27.6943836,48.2191781 C27.5919178,48.2191781 27.4909589,48.2327397 27.3930137,48.259863 C27.2950685,48.2327397 27.1941096,48.2191781 27.0916438,48.2191781 L21.5163014,48.2191781 C20.8939726,48.2191781 20.3861644,48.7254795 20.3861644,49.3493151 C20.3861644,49.9731507 20.8939726,50.4794521 21.5163014,50.4794521 L27.0916438,50.4794521 C27.1941096,50.4794521 27.2950685,50.4658904 27.3930137,50.4387671 C27.4909589,50.4658904 27.5934247,50.4794521 27.6943836,50.4794521 C28.3182192,50.4794521 28.8245205,49.9731507 28.8245205,49.3493151 C28.8245205,48.7254795 28.3182192,48.2191781 27.6943836,48.2191781 Z" id="Shape" fill="#516C86"></path>
                        <path d="M69.52,34.7419178 C69.1673973,32.9487671 68.4591781,31.2746575 67.410411,29.7708219 C67.3471233,29.6789041 67.270274,29.5975342 67.1828767,29.5282192 C67.1436986,29.4242466 67.0894521,29.3278082 67.020137,29.2389041 C66.8046575,28.960137 66.4791781,28.7989041 66.1250685,28.7989041 C65.8734247,28.7989041 65.6353425,28.8817808 65.4349315,29.0354795 C65.1968493,29.2208219 65.0431507,29.4860274 65.0054795,29.7858904 C64.9663014,30.0857534 65.0476712,30.3826027 65.2315068,30.6206849 C65.2887671,30.6945205 65.3535616,30.7608219 65.4258904,30.8180822 C65.4590411,30.9039726 65.5027397,30.9853425 65.5554795,31.0621918 C66.4234247,32.3083562 67.0110959,33.6931507 67.3019178,35.1773973 C67.3365753,35.3536986 67.3682192,35.5345205 67.3938356,35.7153425 C67.4736986,36.2683562 67.9543836,36.6842466 68.510411,36.6842466 C68.5646575,36.6842466 68.620411,36.679726 68.6746575,36.6721918 C69.2909589,36.5832877 69.720411,36.0091781 69.6315068,35.3928767 C69.5983562,35.1728767 69.5621918,34.9543836 69.52,34.7419178 Z" id="Shape" fill="#516C86"></path>
                        <path d="M68.5089041,39.3905479 C68.4124658,39.3634247 68.3115068,39.349863 68.2105479,39.349863 C67.7027397,39.349863 67.2552055,39.6934247 67.1210959,40.1831507 C67.0969863,40.2720548 67.0834247,40.3639726 67.0819178,40.4558904 C67.0321918,40.5342466 66.9930137,40.6171233 66.9643836,40.7060274 C66.4942466,42.1360274 65.7453425,43.4334247 64.7372603,44.5635616 C64.7327397,44.5680822 64.729726,44.5726027 64.7252055,44.5771233 C64.6061644,44.7112329 64.479589,44.8438356 64.35,44.9749315 C63.9130137,45.4194521 63.9160274,46.1352055 64.3590411,46.5736986 C64.5730137,46.7846575 64.8547945,46.9006849 65.1546575,46.9006849 C65.4590411,46.9006849 65.7438356,46.7816438 65.9578082,46.5646575 C66.1084932,46.4124658 66.2606849,46.2512329 66.4083562,46.0854795 C67.6334247,44.7187671 68.5420548,43.1456164 69.1116438,41.409726 C69.1463014,41.3042466 69.1658904,41.1942466 69.1673973,41.0827397 C69.2276712,40.9893151 69.2713699,40.8868493 69.3015068,40.7783562 C69.3813699,40.4875342 69.3421918,40.1831507 69.1930137,39.9209589 C69.0438356,39.6587671 68.8012329,39.470411 68.5089041,39.3905479 Z" id="Shape" fill="#516C86"></path>
                        <path d="M62.92,25.7294521 C62.730137,25.6254795 62.5342466,25.5245205 62.3353425,25.4280822 C60.6928767,24.6294521 58.929863,24.1894521 57.0960274,24.120137 C56.9845205,24.1156164 56.8745205,24.1276712 56.7675342,24.1547945 C56.6650685,24.1246575 56.5580822,24.109589 56.449589,24.109589 C55.8272603,24.109589 55.3194521,24.6158904 55.3194521,25.239726 C55.3194521,25.8635616 55.8272603,26.369863 56.449589,26.369863 C56.5460274,26.369863 56.6424658,26.3578082 56.7343836,26.3336986 C56.8232877,26.3593151 56.9167123,26.3743836 57.010137,26.3773973 C58.5275342,26.4361644 59.9876712,26.8008219 61.3483562,27.4608219 C61.5110959,27.5406849 61.6738356,27.6250685 61.8320548,27.7109589 C61.9978082,27.8028767 62.1861644,27.8510959 62.3745205,27.8510959 C62.7873973,27.8510959 63.1671233,27.6265753 63.3660274,27.2649315 C63.6658904,26.7179452 63.4654795,26.0293151 62.92,25.7294521 Z" id="Shape" fill="#516C86"></path>
                        <path d="M61.0394521,47.3678082 C60.8963014,47.3678082 60.7561644,47.3949315 60.6220548,47.4476712 C60.5361644,47.4823288 60.4532877,47.5275342 60.3794521,47.580274 C60.2875342,47.5893151 60.1971233,47.6073973 60.1082192,47.6375342 C58.9765753,48.0232877 57.7906849,48.2191781 56.5821918,48.2191781 L54.9683562,48.2191781 C54.3460274,48.2191781 53.8382192,48.7254795 53.8382192,49.3493151 C53.8382192,49.9731507 54.3460274,50.4794521 54.9683562,50.4794521 L55.5469863,50.4794521 C55.5545205,50.4794521 55.5635616,50.4794521 55.5710959,50.4794521 C55.5726027,50.4794521 55.5726027,50.4794521 55.5741096,50.4794521 L56.5852055,50.4794521 C58.0408219,50.4794521 59.4708219,50.2428767 60.8375342,49.7772603 C60.9445205,49.7410959 61.0439726,49.689863 61.1343836,49.6250685 C61.2443836,49.6160274 61.3543836,49.590411 61.4583562,49.5482192 C61.7386301,49.4367123 61.9586301,49.2227397 62.0776712,48.9454795 C62.1967123,48.6682192 62.2012329,48.3608219 62.089726,48.0805479 C61.9179452,47.6480822 61.5050685,47.3678082 61.0394521,47.3678082 Z" id="Shape" fill="#516C86"></path>
                        <path d="M49.9957534,48.2191781 C49.8932877,48.2191781 49.7923288,48.2327397 49.6943836,48.259863 C49.5964384,48.2327397 49.4954795,48.2191781 49.3930137,48.2191781 L43.8176712,48.2191781 C43.1953425,48.2191781 42.6875342,48.7254795 42.6875342,49.3493151 C42.6875342,49.9731507 43.1953425,50.4794521 43.8176712,50.4794521 L49.3930137,50.4794521 C49.4954795,50.4794521 49.5964384,50.4658904 49.6943836,50.4387671 C49.7923288,50.4658904 49.8932877,50.4794521 49.9957534,50.4794521 C50.619589,50.4794521 51.1258904,49.9731507 51.1258904,49.3493151 C51.1258904,48.7254795 50.619589,48.2191781 49.9957534,48.2191781 Z" id="Shape" fill="#516C86"></path>
                        <path d="M52.6071233,25.239726 C52.6071233,24.6158904 52.1008219,24.109589 51.4769863,24.109589 L48.944274,24.109589 C50.7766027,22.3122192 52.890411,19.4116849 52.890411,15.5958904 C52.890411,11.6493014 49.6794658,8.43835616 45.7328767,8.43835616 C41.7862877,8.43835616 38.5753425,11.6493014 38.5753425,15.5958904 C38.5753425,22.1874521 44.882863,26.0476986 45.1513836,26.2087808 C45.3303973,26.3160685 45.5315616,26.369863 45.7328767,26.369863 C45.757137,26.369863 45.7813973,26.3665479 45.8056575,26.3650411 C45.8373014,26.3677534 45.8692466,26.369863 45.9016438,26.369863 L51.4769863,26.369863 C52.1008219,26.369863 52.6071233,25.8635616 52.6071233,25.239726 Z M43.5132877,21.8713151 C41.7365616,19.8988493 40.8356164,17.7873014 40.8356164,15.5958904 C40.8356164,12.8956164 43.0326027,10.6986301 45.7328767,10.6986301 C48.4331507,10.6986301 50.630137,12.8956164 50.630137,15.5958904 C50.630137,17.7873014 49.7291918,19.8988493 47.9524658,21.8713151 C47.118726,22.7969726 46.2735342,23.4777671 45.7328767,23.8730137 C45.1919178,23.4774658 44.3468767,22.7968219 43.5132877,21.8713151 Z" id="Shape" fill="#F05244"></path>
                    </g>
                </g>
            </g>
        </g>
    </g>
</svg>