<?xml version="1.0" encoding="UTF-8"?>
<svg width="61px" height="83px" viewBox="0 0 61 83" version="1.1" xmlns="http://www.w3.org/2000/svg" xmlns:xlink="http://www.w3.org/1999/xlink">
    <!-- Generator: Sketch 48.2 (47327) - http://www.bohemiancoding.com/sketch -->
    <title>Group 20</title>
    <desc>Created with Sketch.</desc>
    <defs></defs>
    <g id="Desktop-HD" stroke="none" stroke-width="1" fill="none" fill-rule="evenodd" transform="translate(-513.000000, -870.000000)">
        <g id="Group-11" transform="translate(240.000000, 658.000000)">
            <g id="Group-20" transform="translate(275.000000, 212.000000)">
                <ellipse id="Oval-3" fill="#FFEFF0" cx="9.6637931" cy="69.2088608" rx="6.61206897" ry="6.66455696"></ellipse>
                <ellipse id="Oval-3" fill="#FFEFF0" cx="23.9051724" cy="58.9556962" rx="3.56034483" ry="3.58860759"></ellipse>
                <path d="M21.362069,53.6582278 L21.362069,58.6780898" id="Path-3" stroke="#859DBA" stroke-width="2.28479997"></path>
                <path d="M19.0041104,63.7221911 L10.7102156,70.9445893" id="Path-3" stroke="#859DBA" stroke-width="2.28479997"></path>
                <path d="M41.1931226,59.4559948 L24.1398631,61.2459493" id="Path-3" stroke="#859DBA" stroke-width="2.28479997"></path>
                <ellipse id="Oval-3" fill="#FFEFF0" cx="51.8793103" cy="56.3924051" rx="7.12068966" ry="7.17721519"></ellipse>
                <ellipse id="Oval-3" stroke="#859DBA" stroke-width="2.51328002" cx="21.8706897" cy="62.0316456" rx="3.56034483" ry="3.58860759"></ellipse>
                <ellipse id="Oval-3" stroke="#859DBA" stroke-width="2.78745603" cx="48.8275862" cy="58.443038" rx="7.12068966" ry="7.17721519"></ellipse>
                <ellipse id="Oval-3" stroke="#859DBA" stroke-width="2.74176007" cx="6.61206897" cy="74.335443" rx="6.61206897" ry="6.66455696"></ellipse>
                <g id="Group-23" transform="translate(5.086207, 0.000000)" fill-rule="nonzero">
                    <path d="M24.1968295,38.9620253 C29.6239148,39.8930375 33.4705228,42.2089917 33.4705228,44.9089848 C33.4705228,48.4469467 26.8919244,51.3098742 18.7697442,51.3098742 C10.647564,51.3098742 4.06896552,48.4469467 4.06896552,44.9089848 C4.06896552,42.2089917 7.91571712,39.8930375 13.3426589,38.9620253 L24.1968295,38.9620253 Z" id="Shape" fill="#FFEFF0"></path>
                    <path d="M33.4705967,14.8643599 C33.4705967,20.6470827 26.1766274,35.9174763 21.8641597,42.7355413 C21.1927189,43.8044544 20.0249832,44.4522849 18.7698181,44.4522849 C17.514653,44.4522849 16.3469173,43.8044544 15.6754764,42.7355413 C11.3630088,35.9174763 4.06903943,20.646938 4.06903943,14.8643599 C4.05238621,9.55944288 6.85070239,4.65028558 11.4059339,1.99297953 C15.9611654,-0.664326511 21.5783272,-0.664326511 26.1335587,1.99297953 C30.6889338,4.65014087 33.4872499,9.55929818 33.4705967,14.8643599 Z" id="Shape" fill="#FFEFF0"></path>
                    <ellipse id="Oval" fill="#FFFFFF" cx="18.7478201" cy="15.8206949" rx="8.57540635" ry="8.64347974"></ellipse>
                    <path d="M25.5965057,17.0203012 C25.5965057,11.5840894 21.2328615,7.17721519 15.849977,7.17721519 C10.4670926,7.17721519 6.10344828,11.5840894 6.10344828,17.0203012 C6.10344828,22.4565131 10.4670926,26.8633873 15.849977,26.8633873 C21.2302916,26.8570431 25.5902238,22.4539177 25.5965057,17.0203012 Z M8.54011615,17.0203012 C8.54011615,12.9431784 11.8128494,9.63802275 15.849977,9.63802275 C19.8871047,9.63802275 23.1598379,12.9431784 23.1598379,17.0203012 C23.1598379,21.0974241 19.8871047,24.4025797 15.849977,24.4025797 C11.8147054,24.39811 8.54454204,21.0955496 8.54011615,17.0203012 Z" id="Shape" fill="#859DBA"></path>
                    <path d="M7.38400903e-05,47.5556231 C7.38400903e-05,51.8931442 6.80895224,55.1636955 15.8380581,55.1636955 C23.8232245,55.1636955 30.0625905,52.6036885 31.4006377,49.0117487 C31.5469423,48.5814782 31.6387438,48.1839839 31.6760424,47.8192656 C31.6966094,47.239855 31.6521601,46.8171282 31.5426945,46.5510853 C30.8873769,43.9149486 27.6633285,41.7530368 22.7231761,40.6694856 C26.7417435,33.2035798 31.6760424,22.1540968 31.6760424,17.0688315 C31.6933176,11.3428076 28.6782856,6.04429257 23.7709704,3.17630622 C18.8636552,0.308319867 12.812461,0.308319867 7.90514583,3.17630622 C2.99783065,6.04429257 -0.017201417,11.3428076 7.38400903e-05,17.0688315 C7.38400903e-05,22.1540968 4.93437269,33.2035798 8.95308291,40.6694856 C3.39730312,41.8881383 7.38400903e-05,44.4686195 7.38400903e-05,47.5556231 Z M15.8380581,3.48774609 C23.2487151,3.50908549 29.2439432,9.58461417 29.2395173,17.0688315 C29.2395173,22.278096 22.3532571,37.1063828 17.8881029,44.17924 C17.4440859,44.8897843 16.6701259,45.3207536 15.8382009,45.3207536 C15.0062759,45.3207536 14.2323158,44.8897843 13.7882989,44.17924 C9.32285908,37.1063828 2.43659895,22.278096 2.43659895,17.0688315 C2.43217305,9.58461417 8.42725835,3.50922968 15.8380581,3.48774609 Z M10.2054677,42.9354991 C10.7528506,43.8956278 11.2711083,44.768092 11.7345421,45.5021385 C12.6255741,46.9214969 14.1739226,47.781417 15.8380581,47.781417 C17.5021936,47.781417 19.0503993,46.9213527 19.9415741,45.5021385 C20.4050079,44.768092 20.9232656,43.8956278 21.4706486,42.9354991 C26.5592826,43.9022603 29.2395173,45.9618007 29.2395173,47.5556231 C29.2395173,49.9857192 23.508415,52.7030321 15.8380581,52.7030321 C8.16770118,52.7030321 2.43659895,49.9857192 2.43659895,47.5556231 C2.43659895,45.9618007 5.11697644,43.9022603 10.2054677,42.9354991 Z" id="Shape" fill="#859DBA"></path>
                </g>
            </g>
        </g>
    </g>
</svg>