<?xml version="1.0" encoding="UTF-8"?>
<svg width="102px" height="96px" viewBox="0 0 102 96" version="1.1" xmlns="http://www.w3.org/2000/svg" xmlns:xlink="http://www.w3.org/1999/xlink">
    <!-- Generator: Sketch 48.2 (47327) - http://www.bohemiancoding.com/sketch -->
    <title>route (1)</title>
    <desc>Created with Sketch.</desc>
    <defs></defs>
    <g id="Desktop-HD" stroke="none" stroke-width="1" fill="none" fill-rule="evenodd" transform="translate(-450.000000, -1373.000000)">
        <g id="Group-3" transform="translate(300.000000, 1335.000000)" fill-rule="nonzero">
            <g id="Group-27" transform="translate(35.000000, 38.000000)">
                <g id="route-(1)" transform="translate(115.000000, 0.000000)">
                    <path d="M73.5117188,83.5481172 L15.7382812,83.5481172 C10.3555898,83.5481172 5.9765625,79.133523 5.9765625,73.707113 C5.9765625,68.2807029 10.3555898,63.8661088 15.7382812,63.8661088 L34.8632812,63.8661088 C43.5414492,63.8661088 50.6015625,56.7486527 50.6015625,48 C50.6015625,39.2513473 43.5414492,32.1338912 34.8632812,32.1338912 L15.7382812,32.1338912 C14.0879531,32.1338912 12.75,33.4827113 12.75,35.1464435 C12.75,36.8101757 14.0879531,38.1589958 15.7382812,38.1589958 L34.8632812,38.1589958 C40.2459727,38.1589958 44.625,42.57359 44.625,48 C44.625,53.42641 40.2459727,57.8410042 34.8632812,57.8410042 L15.7382812,57.8410042 C7.06011328,57.8410042 0,64.9584603 0,73.707113 C0,82.4557657 7.06011328,89.5732218 15.7382812,89.5732218 L73.5117188,89.5732218 C75.1620469,89.5732218 76.5,88.2244017 76.5,86.5606695 C76.5,84.8969372 75.1620469,83.5481172 73.5117188,83.5481172 Z" id="Shape" fill="#374C60"></path>
                    <path d="M73.5117188,83.5481172 L51,83.5481172 L51,89.5732218 L73.5117188,89.5732218 C75.1620469,89.5732218 76.5,88.2244017 76.5,86.5606695 C76.5,84.8969372 75.1620469,83.5481172 73.5117188,83.5481172 Z" id="Shape" fill="#53565C"></path>
                    <path d="M79.8867188,96 C74.7237656,96 70.5234375,91.7655565 70.5234375,86.5606695 C70.5234375,81.3557824 74.7237656,77.1213389 79.8867188,77.1213389 C85.0496719,77.1213389 89.25,81.3557824 89.25,86.5606695 C89.25,91.7655565 85.0496719,96 79.8867188,96 Z" id="Shape" fill="#F9A53D"></path>
                    <path d="M9.36328125,44.5857741 C4.20032813,44.5857741 0,40.3513305 0,35.1464435 C0,29.9415565 4.20032813,25.707113 9.36328125,25.707113 C14.5262344,25.707113 18.7265625,29.9415565 18.7265625,35.1464435 C18.7265625,40.3513305 14.5262344,44.5857741 9.36328125,44.5857741 Z" id="Shape" fill="#FFDA44"></path>
                    <path d="M9.36328125,31.7322176 C7.71295313,31.7322176 6.375,30.3833975 6.375,28.7196653 L6.375,3.0125523 C6.375,1.34882008 7.71295313,0 9.36328125,0 C11.0136094,0 12.3515625,1.34882008 12.3515625,3.0125523 L12.3515625,28.7196653 C12.3515625,30.3833975 11.0136094,31.7322176 9.36328125,31.7322176 Z" id="Shape" fill="#5C5F66"></path>
                    <path d="M28.4882812,18.8786611 L9.36328125,18.8786611 C7.71295313,18.8786611 6.375,17.529841 6.375,15.8661088 L6.375,3.0125523 C6.375,1.34882008 7.71295313,0 9.36328125,0 L28.4882812,0 C30.1386094,0 31.4765625,1.34882008 31.4765625,3.0125523 L31.4765625,15.8661088 C31.4765625,17.529841 30.1386094,18.8786611 28.4882812,18.8786611 Z" id="Shape" fill="#F9A53D"></path>
                    <path d="M79.8867188,6.42677824 C67.6925391,6.42677824 57.7734375,16.4264435 57.7734375,28.7196653 C57.7734375,35.3573222 60.6421875,41.5410879 65.6684766,45.7928033 L77.2251562,68.6480335 C77.7351562,69.6582427 78.763125,70.292887 79.8867188,70.292887 C81.0103125,70.292887 82.0382813,69.6582427 82.5482813,68.6480335 L94.1049609,45.7928033 C99.13125,41.5410879 102,35.3573222 102,28.7196653 C102,16.4264435 92.0808984,6.42677824 79.8867188,6.42677824 Z M79.8867188,38.1589958 C74.7229687,38.1589958 70.5234375,33.9253556 70.5234375,28.7196653 C70.5234375,23.5139749 74.7229687,19.2803347 79.8867188,19.2803347 C85.0504687,19.2803347 89.25,23.5139749 89.25,28.7196653 C89.25,33.9253556 85.0504687,38.1589958 79.8867188,38.1589958 Z" id="Shape" fill="#F05244"></path>
                    <path d="M102,28.7196653 C102,35.3573222 99.13125,41.5410879 94.1049609,45.7928033 L82.5482813,68.6480335 C82.0382812,69.6582427 81.0103125,70.292887 79.8867188,70.292887 L79.8867188,38.1589958 C85.0504688,38.1589958 89.25,33.9253556 89.25,28.7196653 C89.25,23.5139749 85.0504688,19.2803347 79.8867188,19.2803347 L79.8867188,6.42677824 C92.0808984,6.42677824 102,16.4264435 102,28.7196653 Z" id="Shape" fill="#D44A3D"></path>
                </g>
            </g>
        </g>
    </g>
</svg>