<?xml version="1.0" encoding="UTF-8"?>
<svg width="91px" height="91px" viewBox="0 0 91 91" version="1.1" xmlns="http://www.w3.org/2000/svg" xmlns:xlink="http://www.w3.org/1999/xlink">
    <!-- Generator: Sketch 48.2 (47327) - http://www.bohemiancoding.com/sketch -->
    <title>Group 14</title>
    <desc>Created with Sketch.</desc>
    <defs>
        <linearGradient x1="27.9834692%" y1="0%" x2="78.7392437%" y2="100%" id="linearGradient-1">
            <stop stop-color="#D40E20" offset="0%"></stop>
            <stop stop-color="#FF0138" offset="100%"></stop>
        </linearGradient>
    </defs>
    <g id="Desktop-HD" stroke="none" stroke-width="1" fill="none" fill-rule="evenodd" transform="translate(-1022.000000, -3895.000000)">
        <g id="Group-21" transform="translate(326.000000, 3879.000000)">
            <g id="Group-22">
                <g id="Group-8" transform="translate(698.000000, 18.000000)">
                    <g id="Group-14" transform="translate(0.099999, 0.000000)">
                        <circle id="Combined-Shape" stroke="url(#linearGradient-1)" stroke-width="1.5" cx="43.3999993" cy="43.3999993" r="44.1499993"></circle>
                        <g id="online-store" transform="translate(13.900001, 17.000000)">
                            <polygon id="Path" fill="#FFFFFF" points="8 7 57 13.4578876 56.3909482 32.4845152 16.6095567 36"></polygon>
                            <path d="M56.9824163,12.2462688 C56.420025,12.2462688 55.9648326,12.702612 55.9648326,13.2666837 L55.9648326,21.4296557 L51.8947285,21.4296557 L51.8947285,12.6289822 C51.8947285,12.0650261 51.4396514,11.6085674 50.8771448,11.6085674 C50.3146382,11.6085674 49.8595611,12.0649106 49.8595611,12.6289822 L49.8595611,21.4296557 L45.5559245,21.4296557 L45.5559245,11.9065544 C45.5559245,11.3425983 45.1008474,10.8861395 44.5383408,10.8861395 C43.9758342,10.8861395 43.5207571,11.3424827 43.5207571,11.9065544 L43.5207571,21.4296557 L39.1753936,21.4296557 L39.1753936,11.0557078 C39.1753936,10.4917517 38.7203165,10.0352929 38.1578099,10.0352929 C37.5953033,10.0352929 37.1402262,10.4916361 37.1402262,11.0557078 L37.1402262,21.4297713 L33.0234386,21.4297713 L32.5602928,10.2137615 C32.5373545,9.64980546 32.035594,9.21634876 31.5020196,9.23622998 C30.9405504,9.25923208 30.5033398,9.7344162 30.5272003,10.2974475 L30.986888,21.4297713 L26.6939713,21.4297713 L25.1337071,9.11046974 C25.0621258,8.55148399 24.5563309,8.15883002 23.9960144,8.22656486 C23.4385796,8.29730499 23.0441333,8.80855271 23.1145619,9.36742287 L24.6425512,21.4294245 L19.8802642,21.4294245 L17.0540143,8.28932938 C16.9347122,7.73831924 16.3932996,7.38658358 15.8446251,7.50714233 C15.2951437,7.62573609 14.9462283,8.16888622 15.0646082,8.71989637 L17.7981829,21.4296557 L13.0274813,21.4296557 L7.43296118,2.9164314 C7.10606185,1.83521703 6.21665591,1.02517316 5.10962446,0.801971859 L1.21737842,0.0217498124 C0.660865733,-0.094878935 0.12925088,0.269802629 0.0199770555,0.821853073 C-0.0903341791,1.37494381 0.267341642,1.91196776 0.817860406,2.02258591 L4.7091843,2.80280795 C5.07884797,2.87759368 5.37589296,3.1476083 5.48528205,3.50824427 L15.1840256,35.6043831 L9.87836645,45.4869645 C9.36358069,46.4446148 9.38847853,47.5744919 9.9439538,48.508331 C10.5004665,49.441939 11.4801271,50 12.5652577,50 L54.9471337,50 C55.509525,50 55.9647174,49.5436568 55.9647174,48.9795852 C55.9647174,48.4155135 55.5096403,47.9591703 54.9471337,47.9591703 L12.5654882,47.9591703 C12.0437864,47.9591703 11.7805148,47.6113647 11.6921045,47.4620244 C11.6026567,47.3125685 11.422839,46.9149442 11.6702036,46.454671 L16.9129266,36.6903366 L55.1749028,33.8125309 C56.7587969,33.6939372 58,32.3527644 58,30.7603023 L58,13.2665681 C58,12.7027276 57.5448077,12.2462688 56.9824163,12.2462688 Z M17.018166,34.6356363 L13.6441638,23.4703698 L18.2371225,23.4703698 L20.5808616,34.3677022 L17.018166,34.6356363 Z M22.6297458,34.2136228 L20.3190885,23.4703698 L24.9009815,23.4703698 L26.227598,33.9430303 L22.6297458,34.2136228 Z M28.2599989,33.7903379 L26.9527474,23.4704854 L31.071264,23.4704854 L31.4872653,33.5478334 L28.2599989,33.7903379 Z M37.1404568,33.1224679 L33.5175914,33.3949098 L33.1078146,23.4702542 L37.1404568,23.4702542 L37.1404568,33.1224679 Z M43.5208724,32.6427758 L39.1755088,32.9696599 L39.1755088,23.4703698 L43.5208724,23.4703698 L43.5208724,32.6427758 Z M49.8596764,32.1659734 L45.5560398,32.4897367 L45.5560398,23.4702542 L49.8596764,23.4702542 L49.8596764,32.1659734 Z M55.9648326,30.7604179 C55.9648326,31.2915468 55.5514825,31.7379494 55.0228646,31.7778274 L51.8947285,32.0130499 L51.8947285,23.4703698 L55.9648326,23.4703698 L55.9648326,30.7604179 Z" id="Shape" fill="#E40A28" fill-rule="nonzero"></path>
                            <g id="Group" transform="translate(12.000000, 51.000000)" fill="#FFFFFF" fill-rule="nonzero" stroke="#E40A28">
                                <circle id="Oval" stroke-width="1.05999994" cx="3" cy="3" r="3"></circle>
                                <circle id="Oval" cx="39.6626763" cy="3.02428125" r="3"></circle>
                            </g>
                            <g id="Group" transform="translate(13.000000, 50.000000)" fill="#E40A28" fill-rule="nonzero">
                                <path d="M2.0945437,4.74467454 C1.51071026,4.74467454 1.00797428,4.35858295 0.893550656,3.82212558 L0.0864432915,0.0410282258 L4.10264411,0.0410282258 L3.29553675,3.82212558 C3.18099939,4.35858295 2.6782634,4.74467454 2.0945437,4.74467454 Z" id="Shape"></path>
                                <path d="M38.2408061,4.74467454 C37.6569726,4.74467454 37.1542366,4.35858295 37.039813,3.82212558 L36.2327056,0.0410282258 L40.2489065,0.0410282258 L39.4417991,3.82212558 C39.327148,4.35858295 38.8245258,4.74467454 38.2408061,4.74467454 Z" id="Shape"></path>
                            </g>
                            <path d="M57.11654,12.0013921 L8,6 L8.63729884,8.09827123 L56.8731683,13.9920451 C56.9143946,13.9979545 56.9556209,14 56.9959361,14 C57.4965733,14 57.9305879,13.6277114 57.9924273,13.1183715 C58.0599609,12.5685754 57.6683114,12.0679859 57.11654,12.0013921 Z" id="Shape" fill="#E40A28" fill-rule="nonzero"></path>
                        </g>
                    </g>
                </g>
            </g>
        </g>
    </g>
</svg>