<?xml version="1.0" encoding="UTF-8" standalone="no"?>
<svg width="80px" height="80px" viewBox="0 0 80 80" version="1.1" xmlns="http://www.w3.org/2000/svg" xmlns:xlink="http://www.w3.org/1999/xlink">
    <!-- Generator: Sketch 46.2 (44496) - http://www.bohemiancoding.com/sketch -->
    <title>local2</title>
    <desc>Created with Sketch.</desc>
    <defs></defs>
    <g id="Page-1" stroke="none" stroke-width="1" fill="none" fill-rule="evenodd">
        <g id="Artboard" transform="translate(-387.000000, -208.000000)">
            <g id="Group-24" transform="translate(51.000000, 53.000000)">
                <g id="local2" transform="translate(337.000000, 156.000000)">
                    <circle id="Oval-13" stroke="#FCBF11" stroke-width="2" fill="#FFFFFF" cx="39" cy="39" r="39"></circle>
                    <path d="M20.7919922,45 L20.7919922,34.2919922 L23.0625,34.2919922 L23.0625,43.125 L27.4057617,43.125 L27.4057617,45 L20.7919922,45 Z M30.8701172,40.8911133 C30.8701172,41.7016642 31.0031725,42.314451 31.2692871,42.7294922 C31.5354017,43.1445333 31.968747,43.3520508 32.5693359,43.3520508 C33.165042,43.3520508 33.5935046,43.145754 33.8547363,42.7331543 C34.1159681,42.3205546 34.246582,41.706547 34.246582,40.8911133 C34.246582,40.0805624 34.1147474,39.4726583 33.8510742,39.0673828 C33.587401,38.6621073 33.1552764,38.4594727 32.5546875,38.4594727 C31.9589814,38.4594727 31.5292982,38.6608867 31.265625,39.0637207 C31.0019518,39.4665547 30.8701172,40.0756795 30.8701172,40.8911133 Z M36.5317383,40.8911133 C36.5317383,42.2241278 36.1801793,43.2665978 35.4770508,44.0185547 C34.7739223,44.7705116 33.7949281,45.1464844 32.5400391,45.1464844 C31.7539023,45.1464844 31.0605499,44.974367 30.4599609,44.630127 C29.859372,44.285887 29.3979508,43.7915071 29.0756836,43.1469727 C28.7534164,42.5024382 28.5922852,41.7504926 28.5922852,40.8911133 C28.5922852,39.553216 28.9414028,38.5131873 29.6396484,37.7709961 C30.3378941,37.0288049 31.3193296,36.6577148 32.5839844,36.6577148 C33.3701211,36.6577148 34.0634736,36.8286116 34.6640625,37.1704102 C35.2646514,37.5122087 35.7260726,38.0029265 36.0483398,38.6425781 C36.3706071,39.2822298 36.5317383,40.031734 36.5317383,40.8911133 Z M41.7026367,45.1464844 C39.1537958,45.1464844 37.8793945,43.7475726 37.8793945,40.949707 C37.8793945,39.5580985 38.2260708,38.4948767 38.9194336,37.7600098 C39.6127964,37.0251428 40.6064388,36.6577148 41.9003906,36.6577148 C42.847661,36.6577148 43.6972619,36.8432599 44.4492188,37.2143555 L43.7900391,38.9428711 C43.4384748,38.8012688 43.1113296,38.6853032 42.8085938,38.5949707 C42.5058579,38.5046382 42.2031265,38.4594727 41.9003906,38.4594727 C40.7382754,38.4594727 40.1572266,39.2846597 40.1572266,40.9350586 C40.1572266,42.5366291 40.7382754,43.3374023 41.9003906,43.3374023 C42.3300803,43.3374023 42.7280255,43.2800299 43.0942383,43.1652832 C43.460451,43.0505365 43.8266583,42.871095 44.1928711,42.6269531 L44.1928711,44.5385742 C43.8315412,44.7680676 43.4665546,44.9267574 43.0979004,45.0146484 C42.7292462,45.1025395 42.264163,45.1464844 41.7026367,45.1464844 Z M51.2900391,45 L50.8579102,43.8867188 L50.7993164,43.8867188 C50.423338,44.3603539 50.0363789,44.6887198 49.6384277,44.8718262 C49.2404765,45.0549326 48.7216829,45.1464844 48.0820312,45.1464844 C47.2958945,45.1464844 46.6770042,44.9218772 46.2253418,44.4726562 C45.7736794,44.0234353 45.5478516,43.3837932 45.5478516,42.5537109 C45.5478516,41.684566 45.8518036,41.0437032 46.4597168,40.6311035 C47.06763,40.2185038 47.9843689,39.9902346 49.2099609,39.9462891 L50.6308594,39.9023438 L50.6308594,39.543457 C50.6308594,38.7133748 50.2060589,38.2983398 49.3564453,38.2983398 C48.7021452,38.2983398 47.9331099,38.4960918 47.0493164,38.8916016 L46.3095703,37.3828125 C47.2519578,36.889646 48.2968693,36.6430664 49.4443359,36.6430664 C50.5429742,36.6430664 51.385251,36.8823218 51.9711914,37.3608398 C52.5571318,37.8393579 52.8500977,38.5668896 52.8500977,39.543457 L52.8500977,45 L51.2900391,45 Z M50.6308594,41.2060547 L49.7666016,41.2353516 C49.1171843,41.2548829 48.6337906,41.3720692 48.3164062,41.5869141 C47.9990219,41.8017589 47.840332,42.1289041 47.840332,42.5683594 C47.840332,43.1982453 48.2016565,43.5131836 48.9243164,43.5131836 C49.4418971,43.5131836 49.8557113,43.3642593 50.1657715,43.0664062 C50.4758316,42.7685532 50.6308594,42.3730493 50.6308594,41.8798828 L50.6308594,41.2060547 Z M57.3837891,45 L55.1499023,45 L55.1499023,33.6035156 L57.3837891,33.6035156 L57.3837891,45 Z" id="Local" fill="#565553"></path>
                </g>
            </g>
        </g>
    </g>
</svg>