<?xml version="1.0" encoding="UTF-8" standalone="no"?>
<svg width="80px" height="80px" viewBox="0 0 80 80" version="1.1" xmlns="http://www.w3.org/2000/svg" xmlns:xlink="http://www.w3.org/1999/xlink">
    <!-- Generator: Sketch 46.2 (44496) - http://www.bohemiancoding.com/sketch -->
    <title>Group 17</title>
    <desc>Created with Sketch.</desc>
    <defs></defs>
    <g id="Page-1" stroke="none" stroke-width="1" fill="none" fill-rule="evenodd">
        <g id="Artboard" transform="translate(-50.000000, -208.000000)">
            <g id="Group-24" transform="translate(51.000000, 53.000000)">
                <g id="Group-17" transform="translate(0.000000, 156.000000)">
                    <circle id="Oval-13" stroke="#03BABA" stroke-width="2" fill="#FFFFFF" cx="39" cy="39" r="39"></circle>
                    <path d="M21.921875,32.0263672 C21.921875,32.9931689 21.5739781,33.75488 20.8781738,34.3115234 C20.1823696,34.8681668 19.2143617,35.1464844 17.9741211,35.1464844 C16.8315373,35.1464844 15.8208052,34.9316428 14.9418945,34.5019531 L14.9418945,32.3925781 C15.6645544,32.7148454 16.2761205,32.9418939 16.7766113,33.0737305 C17.2771021,33.2055671 17.7348612,33.2714844 18.1499023,33.2714844 C18.6479517,33.2714844 19.030028,33.1762705 19.2961426,32.9858398 C19.5622572,32.7954092 19.6953125,32.5122089 19.6953125,32.1362305 C19.6953125,31.9262685 19.6367193,31.7395028 19.5195312,31.5759277 C19.4023432,31.4123527 19.2302257,31.2548836 19.0031738,31.1035156 C18.7761219,30.9521477 18.3134801,30.7104509 17.6152344,30.378418 C16.9609342,30.0707992 16.4702165,29.775392 16.1430664,29.4921875 C15.8159163,29.208983 15.5546885,28.8793964 15.359375,28.503418 C15.1640615,28.1274395 15.0664062,27.6879908 15.0664062,27.1850586 C15.0664062,26.2377882 15.387448,25.4931668 16.029541,24.9511719 C16.6716341,24.409177 17.5590764,24.1381836 18.6918945,24.1381836 C19.2485379,24.1381836 19.7795385,24.2041009 20.2849121,24.3359375 C20.7902857,24.4677741 21.3188449,24.6533191 21.8706055,24.8925781 L21.1381836,26.6577148 C20.5668917,26.4233387 20.0944843,26.2597661 19.7209473,26.1669922 C19.3474102,26.0742183 18.9799823,26.027832 18.6186523,26.027832 C18.1889627,26.027832 17.8593761,26.1279287 17.6298828,26.328125 C17.4003895,26.5283213 17.2856445,26.7895492 17.2856445,27.1118164 C17.2856445,27.3120127 17.3320308,27.4865715 17.4248047,27.635498 C17.5175786,27.7844246 17.6652822,27.9284661 17.8679199,28.067627 C18.0705577,28.2067878 18.5502892,28.4570294 19.3071289,28.8183594 C20.3081105,29.2968774 20.9941388,29.7766089 21.3652344,30.2575684 C21.73633,30.7385278 21.921875,31.3281215 21.921875,32.0263672 Z M25.4667969,30.8911133 C25.4667969,31.7016642 25.5998522,32.314451 25.8659668,32.7294922 C26.1320814,33.1445333 26.5654267,33.3520508 27.1660156,33.3520508 C27.7617217,33.3520508 28.1901842,33.145754 28.451416,32.7331543 C28.7126478,32.3205546 28.8432617,31.706547 28.8432617,30.8911133 C28.8432617,30.0805624 28.7114271,29.4726583 28.4477539,29.0673828 C28.1840807,28.6621073 27.7519561,28.4594727 27.1513672,28.4594727 C26.5556611,28.4594727 26.1259779,28.6608867 25.8623047,29.0637207 C25.5986315,29.4665547 25.4667969,30.0756795 25.4667969,30.8911133 Z M31.128418,30.8911133 C31.128418,32.2241278 30.776859,33.2665978 30.0737305,34.0185547 C29.370602,34.7705116 28.3916078,35.1464844 27.1367188,35.1464844 C26.350582,35.1464844 25.6572296,34.974367 25.0566406,34.630127 C24.4560517,34.285887 23.9946305,33.7915071 23.6723633,33.1469727 C23.350096,32.5024382 23.1889648,31.7504926 23.1889648,30.8911133 C23.1889648,29.553216 23.5380824,28.5131873 24.2363281,27.7709961 C24.9345738,27.0288049 25.9160093,26.6577148 27.1806641,26.6577148 C27.9668008,26.6577148 28.6601532,26.8286116 29.2607422,27.1704102 C29.8613311,27.5122087 30.3227523,28.0029265 30.6450195,28.6425781 C30.9672868,29.2822298 31.128418,30.031734 31.128418,30.8911133 Z M38.7749023,35 L38.4746094,33.9526367 L38.3574219,33.9526367 C38.1181629,34.333498 37.7788108,34.6276845 37.3393555,34.8352051 C36.8999001,35.0427256 36.3994169,35.1464844 35.8378906,35.1464844 C34.8759718,35.1464844 34.1508813,34.8889186 33.6625977,34.3737793 C33.174314,33.85864 32.9301758,33.1176806 32.9301758,32.1508789 L32.9301758,26.8115234 L35.1640625,26.8115234 L35.1640625,31.5942383 C35.1640625,32.1850615 35.2690419,32.6281724 35.4790039,32.923584 C35.6889659,33.2189956 36.0234352,33.3666992 36.4824219,33.3666992 C37.107425,33.3666992 37.5590806,33.1579611 37.8374023,32.7404785 C38.115724,32.322996 38.2548828,31.6308642 38.2548828,30.6640625 L38.2548828,26.8115234 L40.4887695,26.8115234 L40.4887695,35 L38.7749023,35 Z M47.402832,26.6577148 C47.7055679,26.6577148 47.9570302,26.6796873 48.1572266,26.7236328 L47.9887695,28.8183594 C47.8081046,28.769531 47.5883802,28.7451172 47.3295898,28.7451172 C46.6166957,28.7451172 46.0612813,28.9282208 45.6633301,29.2944336 C45.2653789,29.6606464 45.0664062,30.1733365 45.0664062,30.8325195 L45.0664062,35 L42.8325195,35 L42.8325195,26.8115234 L44.5244141,26.8115234 L44.8540039,28.1884766 L44.9638672,28.1884766 C45.2177747,27.7294899 45.5607889,27.3596205 45.9929199,27.0788574 C46.425051,26.7980943 46.895017,26.6577148 47.402832,26.6577148 Z M52.6689453,35.1464844 C50.1201044,35.1464844 48.8457031,33.7475726 48.8457031,30.949707 C48.8457031,29.5580985 49.1923793,28.4948767 49.8857422,27.7600098 C50.579105,27.0251428 51.5727474,26.6577148 52.8666992,26.6577148 C53.8139696,26.6577148 54.6635705,26.8432599 55.4155273,27.2143555 L54.7563477,28.9428711 C54.4047834,28.8012688 54.0776382,28.6853032 53.7749023,28.5949707 C53.4721665,28.5046382 53.1694351,28.4594727 52.8666992,28.4594727 C51.704584,28.4594727 51.1235352,29.2846597 51.1235352,30.9350586 C51.1235352,32.5366291 51.704584,33.3374023 52.8666992,33.3374023 C53.2963889,33.3374023 53.6943341,33.2800299 54.0605469,33.1652832 C54.4267596,33.0505365 54.7929669,32.871095 55.1591797,32.6269531 L55.1591797,34.5385742 C54.7978498,34.7680676 54.4328632,34.9267574 54.064209,35.0146484 C53.6955548,35.1025395 53.2304716,35.1464844 52.6689453,35.1464844 Z M60.4472656,28.2470703 C59.9736304,28.2470703 59.6025404,28.3972153 59.3339844,28.6975098 C59.0654283,28.9978042 58.9116213,29.4238254 58.8725586,29.9755859 L62.0073242,29.9755859 C61.9975585,29.4238254 61.853517,28.9978042 61.5751953,28.6975098 C61.2968736,28.3972153 60.9209008,28.2470703 60.4472656,28.2470703 Z M60.762207,35.1464844 C59.4438411,35.1464844 58.4135779,34.7827185 57.6713867,34.0551758 C56.9291955,33.3276331 56.5581055,32.2973699 56.5581055,30.9643555 C56.5581055,29.5922783 56.9011196,28.5314979 57.5871582,27.7819824 C58.2731968,27.032467 59.2216736,26.6577148 60.4326172,26.6577148 C61.5898495,26.6577148 62.4907194,26.9873014 63.1352539,27.6464844 C63.7797884,28.3056674 64.1020508,29.2163028 64.1020508,30.378418 L64.1020508,31.4624023 L58.8212891,31.4624023 C58.8457032,32.0971711 59.0336896,32.5927717 59.3852539,32.9492188 C59.7368182,33.3056658 60.2299773,33.4838867 60.8647461,33.4838867 C61.3579126,33.4838867 61.8242166,33.4326177 62.2636719,33.3300781 C62.7031272,33.2275385 63.162107,33.063966 63.640625,32.8393555 L63.640625,34.5678711 C63.249998,34.7631846 62.8325218,34.9084468 62.3881836,35.0036621 C61.9438454,35.0988774 61.4018587,35.1464844 60.762207,35.1464844 Z M19.4499512,55 L17.2160645,55 L17.2160645,44.2919922 L23.3537598,44.2919922 L23.3537598,46.1523438 L19.4499512,46.1523438 L19.4499512,48.9135742 L23.0827637,48.9135742 L23.0827637,50.7666016 L19.4499512,50.7666016 L19.4499512,55 Z M27.0524902,50.8911133 C27.0524902,51.7016642 27.1855455,52.314451 27.4516602,52.7294922 C27.7177748,53.1445333 28.15112,53.3520508 28.751709,53.3520508 C29.3474151,53.3520508 29.7758776,53.145754 30.0371094,52.7331543 C30.2983411,52.3205546 30.4289551,51.706547 30.4289551,50.8911133 C30.4289551,50.0805624 30.2971205,49.4726583 30.0334473,49.0673828 C29.7697741,48.6621073 29.3376495,48.4594727 28.7370605,48.4594727 C28.1413544,48.4594727 27.7116712,48.6608867 27.447998,49.0637207 C27.1843249,49.4665547 27.0524902,50.0756795 27.0524902,50.8911133 Z M32.7141113,50.8911133 C32.7141113,52.2241278 32.3625523,53.2665978 31.6594238,54.0185547 C30.9562953,54.7705116 29.9773012,55.1464844 28.7224121,55.1464844 C27.9362754,55.1464844 27.2429229,54.974367 26.642334,54.630127 C26.041745,54.285887 25.5803239,53.7915071 25.2580566,53.1469727 C24.9357894,52.5024382 24.7746582,51.7504926 24.7746582,50.8911133 C24.7746582,49.553216 25.1237758,48.5131873 25.8220215,47.7709961 C26.5202672,47.0288049 27.5017027,46.6577148 28.7663574,46.6577148 C29.5524942,46.6577148 30.2458466,46.8286116 30.8464355,47.1704102 C31.4470245,47.5122087 31.9084457,48.0029265 32.2307129,48.6425781 C32.5529801,49.2822298 32.7141113,50.031734 32.7141113,50.8911133 Z M36.7937012,55 L34.5598145,55 L34.5598145,43.6035156 L36.7937012,43.6035156 L36.7937012,55 Z M41.7302246,55.1464844 C40.7683057,55.1464844 40.0126981,54.772953 39.4633789,54.0258789 C38.9140598,53.2788049 38.6394043,52.243659 38.6394043,50.9204102 C38.6394043,49.57763 38.9189425,48.5314979 39.4780273,47.7819824 C40.0371122,47.032467 40.8073681,46.6577148 41.7888184,46.6577148 C42.8190969,46.6577148 43.6052219,47.0581015 44.1472168,47.8588867 L44.220459,47.8588867 C44.1081537,47.2485321 44.052002,46.704104 44.052002,46.2255859 L44.052002,43.6035156 L46.2932129,43.6035156 L46.2932129,55 L44.5793457,55 L44.1472168,53.9379883 L44.052002,53.9379883 C43.5441869,54.7436564 42.7702689,55.1464844 41.7302246,55.1464844 Z M42.513916,53.3666992 C43.0852079,53.3666992 43.5039049,53.2006853 43.7700195,52.8686523 C44.0361341,52.5366194 44.1813964,51.9726602 44.2058105,51.1767578 L44.2058105,50.9350586 C44.2058105,50.0561479 44.0703139,49.4262714 43.7993164,49.0454102 C43.528319,48.6645489 43.0876495,48.4741211 42.4772949,48.4741211 C41.9792456,48.4741211 41.5922865,48.6853006 41.3164062,49.107666 C41.040526,49.5300314 40.9025879,50.1440389 40.9025879,50.949707 C40.9025879,51.7553751 41.0417467,52.3596171 41.3200684,52.7624512 C41.5983901,53.1652852 41.9963353,53.3666992 42.513916,53.3666992 Z M52.020752,48.2470703 C51.5471168,48.2470703 51.1760267,48.3972153 50.9074707,48.6975098 C50.6389147,48.9978042 50.4851076,49.4238254 50.4460449,49.9755859 L53.5808105,49.9755859 C53.5710449,49.4238254 53.4270033,48.9978042 53.1486816,48.6975098 C52.8703599,48.3972153 52.4943871,48.2470703 52.020752,48.2470703 Z M52.3356934,55.1464844 C51.0173274,55.1464844 49.9870643,54.7827185 49.244873,54.0551758 C48.5026818,53.3276331 48.1315918,52.2973699 48.1315918,50.9643555 C48.1315918,49.5922783 48.4746059,48.5314979 49.1606445,47.7819824 C49.8466831,47.032467 50.79516,46.6577148 52.0061035,46.6577148 C53.1633359,46.6577148 54.0642058,46.9873014 54.7087402,47.6464844 C55.3532747,48.3056674 55.6755371,49.2163028 55.6755371,50.378418 L55.6755371,51.4624023 L50.3947754,51.4624023 C50.4191896,52.0971711 50.607176,52.5927717 50.9587402,52.9492188 C51.3103045,53.3056658 51.8034636,53.4838867 52.4382324,53.4838867 C52.931399,53.4838867 53.3977029,53.4326177 53.8371582,53.3300781 C54.2766135,53.2275385 54.7355933,53.063966 55.2141113,52.8393555 L55.2141113,54.5678711 C54.8234844,54.7631846 54.4060081,54.9084468 53.9616699,55.0036621 C53.5173318,55.0988774 52.975345,55.1464844 52.3356934,55.1464844 Z M62.0622559,46.6577148 C62.3649917,46.6577148 62.6164541,46.6796873 62.8166504,46.7236328 L62.6481934,48.8183594 C62.4675284,48.769531 62.247804,48.7451172 61.9890137,48.7451172 C61.2761195,48.7451172 60.7207051,48.9282208 60.3227539,49.2944336 C59.9248027,49.6606464 59.7258301,50.1733365 59.7258301,50.8325195 L59.7258301,55 L57.4919434,55 L57.4919434,46.8115234 L59.1838379,46.8115234 L59.5134277,48.1884766 L59.623291,48.1884766 C59.8771985,47.7294899 60.2202127,47.3596205 60.6523438,47.0788574 C61.0844748,46.7980943 61.5544408,46.6577148 62.0622559,46.6577148 Z" id="Source-Folder" fill="#565553"></path>
                </g>
            </g>
        </g>
    </g>
</svg>