<?xml version="1.0" encoding="UTF-8" standalone="no"?>
<svg width="42px" height="45px" viewBox="0 0 42 45" version="1.1" xmlns="http://www.w3.org/2000/svg" xmlns:xlink="http://www.w3.org/1999/xlink">
    <!-- Generator: Sketch 46.2 (44496) - http://www.bohemiancoding.com/sketch -->
    <title>transfer (1)</title>
    <desc>Created with Sketch.</desc>
    <defs></defs>
    <g id="Page-1" stroke="none" stroke-width="1" fill="none" fill-rule="evenodd">
        <g id="DoQ" transform="translate(-911.000000, -1770.000000)" fill-rule="nonzero" fill="#FFFFFF">
            <g id="Group-24" transform="translate(259.000000, 1741.000000)">
                <g id="Group-15" transform="translate(552.000000, 0.000000)">
                    <g id="transfer-(1)" transform="translate(101.000000, 31.000000)">
                        <path d="M39.9442231,11.2669291 L25.8645418,0 L25.8645418,5.31870079 L5.66533865,5.31870079 L5.66533865,17.1990157 L25.8645418,17.1990157 L25.8645418,22.5257874 L39.9442231,11.2669291 Z M6.97211155,15.8834646 L6.97211155,6.64232283 L27.1713147,6.64232283 L27.1713147,2.71988189 L37.8486056,11.2588583 L27.1713147,19.7978346 L27.1713147,15.8834646 L6.97211155,15.8834646 Z" id="Shape" stroke="#FFFFFF" stroke-width="1.2"></path>
                        <path d="M14.1354582,23.8009843 L14.1354582,18.4822835 L0.0557768924,29.7411417 L14.1354582,41 L14.1354582,35.6812992 L34.3346614,35.6812992 L34.3346614,23.8009843 L14.1354582,23.8009843 Z M33.0278884,25.1165354 L33.0278884,34.3576772 L12.8366534,34.3576772 L12.8366534,38.2720472 L2.15936255,29.7330709 L12.8366534,21.1940945 L12.8366534,25.1084646 L33.0278884,25.1084646 L33.0278884,25.1165354 Z" id="Shape" stroke="#FFFFFF" stroke-width="1.2"></path>
                        <rect id="Rectangle-path" x="19.3466135" y="19.838189" width="1.30677291" height="1.32362205"></rect>
                        <rect id="Rectangle-path" x="21.9521912" y="19.838189" width="1.30677291" height="1.32362205"></rect>
                        <rect id="Rectangle-path" x="16.7410359" y="19.838189" width="1.30677291" height="1.32362205"></rect>
                    </g>
                </g>
            </g>
        </g>
    </g>
</svg>