<?xml version="1.0" encoding="UTF-8" standalone="no"?>
<svg width="80px" height="80px" viewBox="0 0 80 80" version="1.1" xmlns="http://www.w3.org/2000/svg" xmlns:xlink="http://www.w3.org/1999/xlink">
    <!-- Generator: Sketch 46.2 (44496) - http://www.bohemiancoding.com/sketch -->
    <title>ucm</title>
    <desc>Created with Sketch.</desc>
    <defs></defs>
    <g id="Page-1" stroke="none" stroke-width="1" fill="none" fill-rule="evenodd">
        <g id="Artboard" transform="translate(-558.000000, -208.000000)">
            <g id="Group-24" transform="translate(51.000000, 53.000000)">
                <g id="ucm" transform="translate(508.000000, 156.000000)">
                    <circle id="Oval-13" stroke="#8FD8E3" stroke-width="2" fill="#FFFFFF" cx="39" cy="39" r="39"></circle>
                    <path d="M31.5439453,34.2919922 L31.5439453,41.2207031 C31.5439453,42.0117227 31.3669451,42.7050751 31.0129395,43.3007812 C30.6589338,43.8964874 30.1474643,44.3530258 29.4785156,44.6704102 C28.809567,44.9877946 28.0185593,45.1464844 27.1054688,45.1464844 C25.7285087,45.1464844 24.6591835,44.7937047 23.8974609,44.0881348 C23.1357384,43.3825648 22.7548828,42.4169983 22.7548828,41.1914062 L22.7548828,34.2919922 L25.0180664,34.2919922 L25.0180664,40.847168 C25.0180664,41.6723674 25.1840804,42.2778301 25.5161133,42.6635742 C25.8481462,43.0493183 26.3974571,43.2421875 27.1640625,43.2421875 C27.9062537,43.2421875 28.4445784,43.0480976 28.7790527,42.6599121 C29.1135271,42.2717266 29.2807617,41.6626018 29.2807617,40.8325195 L29.2807617,34.2919922 L31.5439453,34.2919922 Z M38.7143555,36.027832 C37.859859,36.027832 37.1982445,36.3488737 36.7294922,36.9909668 C36.2607398,37.6330599 36.0263672,38.5278263 36.0263672,39.675293 C36.0263672,42.0630002 36.9223543,43.2568359 38.7143555,43.2568359 C39.4663124,43.2568359 40.3769478,43.0688495 41.4462891,42.6928711 L41.4462891,44.597168 C40.5673784,44.9633807 39.5859429,45.1464844 38.5019531,45.1464844 C36.9443281,45.1464844 35.7529338,44.674077 34.9277344,43.729248 C34.1025349,42.7844191 33.6899414,41.4282315 33.6899414,39.6606445 C33.6899414,38.5473577 33.8925761,37.5720257 34.2978516,36.7346191 C34.703127,35.8972126 35.2853966,35.2551292 36.0446777,34.8083496 C36.8039589,34.36157 37.6938426,34.1381836 38.7143555,34.1381836 C39.7543997,34.1381836 40.7993112,34.3896459 41.8491211,34.8925781 L41.1166992,36.7382812 C40.7163066,36.5478506 40.3134786,36.3818366 39.9082031,36.2402344 C39.5029277,36.0986321 39.1049824,36.027832 38.7143555,36.027832 Z M48.2578125,45 L45.6796875,36.5991211 L45.6137695,36.5991211 C45.7065434,38.308114 45.7529297,39.4482393 45.7529297,40.0195312 L45.7529297,45 L43.7241211,45 L43.7241211,34.2919922 L46.8149414,34.2919922 L49.3491211,42.4804688 L49.3930664,42.4804688 L52.0810547,34.2919922 L55.171875,34.2919922 L55.171875,45 L53.0551758,45 L53.0551758,39.9316406 C53.0551758,39.6923816 53.0588379,39.4165055 53.0661621,39.1040039 C53.0734864,38.7915023 53.106445,37.9614325 53.1650391,36.6137695 L53.0991211,36.6137695 L50.3378906,45 L48.2578125,45 Z" id="UCM" fill="#565553"></path>
                </g>
            </g>
        </g>
    </g>
</svg>