<?xml version="1.0" encoding="UTF-8" standalone="no"?>
<svg width="40px" height="37px" viewBox="0 0 40 37" version="1.1" xmlns="http://www.w3.org/2000/svg" xmlns:xlink="http://www.w3.org/1999/xlink">
    <!-- Generator: Sketch 46.2 (44496) - http://www.bohemiancoding.com/sketch -->
    <title>upload (2)</title>
    <desc>Created with Sketch.</desc>
    <defs></defs>
    <g id="Page-1" stroke="none" stroke-width="1" fill="none" fill-rule="evenodd">
        <g id="DoQ" transform="translate(-741.000000, -1774.000000)" stroke="#FFFFFF" stroke-width="1.6" fill="#FFFFFF" fill-rule="nonzero">
            <g id="Group-24" transform="translate(259.000000, 1741.000000)">
                <g id="Group-15" transform="translate(381.000000, 0.000000)">
                    <g id="upload-(2)" transform="translate(102.000000, 34.000000)">
                        <path d="M36.8487288,17.0715103 C36.2449153,17.0715103 35.7618644,17.5520595 35.7618644,18.152746 L35.7618644,27.9879863 C35.7618644,30.6630435 33.5720339,32.833524 30.8911017,32.833524 L7.04449153,32.833524 C4.35550847,32.833524 2.17372881,30.6550343 2.17372881,27.9879863 L2.17372881,17.9925629 C2.17372881,17.3918764 1.69067797,16.9113272 1.08686441,16.9113272 C0.483050847,16.9113272 0,17.3918764 0,17.9925629 L0,27.9879863 C0,31.8564073 3.16398305,34.9959954 7.04449153,34.9959954 L30.8911017,34.9959954 C34.779661,34.9959954 37.9355932,31.8483982 37.9355932,27.9879863 L37.9355932,18.152746 C37.9355932,17.5600686 37.4525424,17.0715103 36.8487288,17.0715103 Z" id="Shape"></path>
                        <path d="M12.825,8.74199085 L17.8809322,3.71224256 L17.8809322,25.6493135 C17.8809322,26.25 18.3639831,26.7305492 18.9677966,26.7305492 C19.5716102,26.7305492 20.054661,26.25 20.054661,25.6493135 L20.054661,3.71224256 L25.1105932,8.74199085 C25.3199153,8.95022883 25.6016949,9.06235698 25.8754237,9.06235698 C26.1572034,9.06235698 26.4309322,8.95823799 26.6402542,8.74199085 C27.0669492,8.31750572 27.0669492,7.63672769 26.6402542,7.21224256 L19.7326271,0.340389016 C19.5313559,0.140160183 19.2495763,0.0200228833 18.9677966,0.0200228833 C18.6779661,0.0200228833 18.4042373,0.13215103 18.2029661,0.340389016 L11.295339,7.21224256 C10.8686441,7.63672769 10.8686441,8.31750572 11.295339,8.74199085 C11.7139831,9.15846682 12.4063559,9.15846682 12.825,8.74199085 Z" id="Shape"></path>
                    </g>
                </g>
            </g>
        </g>
    </g>
</svg>