<?xml version="1.0" encoding="UTF-8" standalone="no"?>
<svg width="104px" height="104px" viewBox="0 0 104 104" version="1.1" xmlns="http://www.w3.org/2000/svg" xmlns:xlink="http://www.w3.org/1999/xlink">
    <!-- Generator: Sketch 46.2 (44496) - http://www.bohemiancoding.com/sketch -->
    <title>Group 3</title>
    <desc>Created with Sketch.</desc>
    <defs></defs>
    <g id="Page-1" stroke="none" stroke-width="1" fill="none" fill-rule="evenodd">
        <g id="DoQ" transform="translate(-561.000000, -1201.000000)">
            <g id="Group-14" transform="translate(298.000000, 1203.000000)">
                <g id="Group-9" transform="translate(231.000000, 0.000000)">
                    <g id="Group-3" transform="translate(34.000000, 0.000000)">
                        <circle id="Oval" stroke-opacity="0.0797101449" stroke="#000000" stroke-width="4" cx="50" cy="50" r="50"></circle>
                        <g id="login" transform="translate(26.000000, 22.000000)" fill-rule="nonzero">
                            <path d="M38.4546359,4.67053125 C35.3891613,1.656375 31.3332719,0 27.0241106,0 C26.9923687,0 26.9604055,0.000109375 26.928553,0.00021875 C18.0366083,0.05075 10.8026544,7.3215625 10.8026544,16.2080625 L10.8026544,20.1807813 C10.8026544,20.6571094 11.1930691,21.0432031 11.6747281,21.0432031 L16.3257512,21.0432031 C16.8074101,21.0432031 17.1978249,20.6571094 17.1978249,20.1807813 L17.1978249,16.1760156 C17.1978249,10.7955312 21.5619539,6.37634375 26.9261198,6.3249375 C29.567447,6.30448437 32.0536037,7.29957813 33.933235,9.14035937 C35.8133088,10.9816875 36.8486267,13.4323438 36.8486267,16.0411563 L36.8486267,24.2653906 C36.8486267,25.9786406 38.2311152,27.4209687 39.9305806,27.4805781 C39.9698433,27.482 40.0089954,27.4826563 40.0481475,27.4826563 C40.8810691,27.4826563 41.6649954,27.1702813 42.2666544,26.5959531 C42.8967373,25.9946094 43.2437972,25.1864375 43.2437972,24.3204062 L43.2437972,16.0411563 C43.2437972,11.7453437 41.5430046,7.70732813 38.4546359,4.67053125 Z" id="Shape" fill="#C1CACF"></path>
                            <g id="Group" transform="translate(26.101382, 1.421875)" fill="#FFFFFF">
                                <path d="M14.8168479,19.1611875 C14.3351889,19.1611875 13.9447742,18.7750937 13.9447742,18.2987656 L13.9447742,14.6191719 C13.9447742,12.6499844 13.5095668,10.7647969 12.651318,9.01621875 C12.4409585,8.58779687 12.621788,8.07176562 13.0550046,7.86384375 C13.4883318,7.65570312 14.0101382,7.83464062 14.2202765,8.2630625 C15.1946544,10.2483281 15.6887005,12.3868281 15.6887005,14.6191719 L15.6887005,18.2987656 C15.6889217,18.7752031 15.2985069,19.1611875 14.8168479,19.1611875 Z" id="Shape"></path>
                                <path d="M10.7135115,5.74196875 C10.4912074,5.74196875 10.2687926,5.65840625 10.0986912,5.4910625 C9.18193548,4.58970313 8.14705991,3.8320625 7.02315207,3.23946875 C5.16320737,2.25870313 3.05386175,1.740375 0.92283871,1.740375 C0.441179724,1.740375 0.050764977,1.35428125 0.050764977,0.877953125 C0.050764977,0.401625 0.441179724,0.01553125 0.92283871,0.01553125 C3.33898618,0.01553125 5.73223963,0.604078125 7.84390783,1.71751563 C9.11845161,2.38951563 10.2908018,3.24767188 11.328553,4.26803125 C11.6700829,4.60392188 11.6716313,5.14992188 11.3320922,5.48778125 C11.1614378,5.65709375 10.9375853,5.74196875 10.7135115,5.74196875 Z" id="Shape"></path>
                            </g>
                            <path d="M43.5344516,23.457875 L10.5118894,23.457875 C8.10746544,23.457875 6.15152074,25.3922813 6.15152074,27.7699844 L6.15152074,55.1375781 C6.15152074,55.6139063 6.54193548,56 7.02359447,56 L47.0227465,56 C47.5044055,56 47.8948203,55.6139063 47.8948203,55.1375781 L47.8948203,27.7699844 C47.8948203,25.3922812 45.9388756,23.457875 43.5344516,23.457875 Z" id="Shape" fill="#F96F74"></path>
                            <path d="M10.5118894,23.457875 C8.10746544,23.457875 6.15152074,25.3922813 6.15152074,27.7699844 L6.15152074,55.1375781 C6.15152074,55.6139063 6.54193548,56 7.02359447,56 L27.0232258,56 L27.0232258,23.457875 L10.5118894,23.457875 Z" id="Shape" fill="#EC555B"></path>
                            <path d="M28.5984885,38.3122031 C31.1382857,37.6263125 33.0113917,35.3258281 33.0113917,32.5996562 C33.0113917,29.3342656 30.3250507,26.6776562 27.0231152,26.6776562 C23.7211797,26.6776562 21.0348387,29.3342656 21.0348387,32.5996562 C21.0348387,35.3258281 22.9079447,37.6263125 25.4477419,38.3122031 C21.098765,39.0540937 17.779023,42.8088281 17.779023,47.3183594 L17.779023,51.9179062 C17.779023,52.3942344 18.1694378,52.7803281 18.6510968,52.7803281 L35.3949124,52.7803281 C35.8765714,52.7803281 36.2669862,52.3942344 36.2669862,51.9179062 L36.2669862,47.3183594 C36.2672074,42.8088281 32.9474654,39.0540937 28.5984885,38.3122031 Z" id="Shape" fill="#FFFFFF"></path>
                            <g id="Group" transform="translate(0.000000, 13.890625)" fill="#F0353D">
                                <path d="M4.59494931,7.00820312 L0.977253456,7.00820312 C0.49559447,7.00820312 0.105179724,6.62210937 0.105179724,6.14578125 C0.105179724,5.66945313 0.49559447,5.28335937 0.977253456,5.28335937 L4.59494931,5.28335937 C5.07660829,5.28335937 5.46702304,5.66945313 5.46702304,6.14578125 C5.46702304,6.62210937 5.07660829,7.00820312 4.59494931,7.00820312 Z" id="Shape"></path>
                                <path d="M5.60494009,4.081 C5.38175115,4.081 5.15856221,3.99678125 4.98835023,3.82834375 L2.68623041,1.55170313 C2.34569585,1.2149375 2.34569585,0.668828125 2.68623041,0.331953125 C3.02676498,-0.004921875 3.57898618,-0.0048125 3.91941014,0.331953125 L6.22152995,2.60859375 C6.56206452,2.94535938 6.56206452,3.49146875 6.22152995,3.82834375 C6.05131797,3.99678125 5.82801843,4.081 5.60494009,4.081 Z" id="Shape"></path>
                                <path d="M3.27937327,12.2120469 C3.05618433,12.2120469 2.83299539,12.1278281 2.66278341,11.9593906 C2.32224885,11.622625 2.32224885,11.0765156 2.66278341,10.7398594 L4.96490323,8.46321875 C5.30543779,8.12645313 5.85765899,8.12645313 6.19808295,8.46321875 C6.53861751,8.79998438 6.53861751,9.34609375 6.19808295,9.68275 L3.89596313,11.9593906 C3.72575115,12.1278281 3.50256221,12.2120469 3.27937327,12.2120469 Z" id="Shape"></path>
                            </g>
                        </g>
                    </g>
                </g>
            </g>
        </g>
    </g>
</svg>