<?xml version="1.0" encoding="utf-8"?>
<!-- Generator: Adobe Illustrator 19.1.0, SVG Export Plug-In . SVG Version: 6.00 Build 0)  -->
<!DOCTYPE svg PUBLIC "-//W3C//DTD SVG 1.1//EN" "http://www.w3.org/Graphics/SVG/1.1/DTD/svg11.dtd">
<svg version="1.1" id="Layer_1" xmlns="http://www.w3.org/2000/svg" xmlns:xlink="http://www.w3.org/1999/xlink" x="0px" y="0px"
	 viewBox="0 0 111.3 76.9" style="enable-background:new 0 0 111.3 76.9;" xml:space="preserve">
<style type="text/css">
	.st0{fill:#303030;}
	.st1{fill:#DDA722;}
	.st2{fill:#A51816;}
</style>
<path class="st0" d="M107.8,13.4H87.9c-1.3,0-2.5,1.5-3.1,2.6L64.2,56.4H31.4c-1.7-7-8-12.2-15.5-12.2C7.2,44.3,0,51.4,0,60.2
	C0,69,7.2,76.1,15.9,76.1c8,0,14.7-6,15.8-13.7h34.6c1.3,0,2.5-1,3.1-2.1L90,20.4h17.8c1.9,0,3.5-1.6,3.5-3.5
	C111.3,15,109.7,13.4,107.8,13.4z M15.9,70.2c-5.5,0-10-4.5-10-10c0-5.5,4.5-10,10-10c4.2,0,7.7,2.6,9.2,6.2h-8.9
	c-1.9,0-3.5,1.1-3.5,3c0,1.9,1.5,3,3.5,3h9.4C24.6,66.9,20.7,70.2,15.9,70.2z"/>
<path class="st1" d="M80.9,32.4c-0.5-0.3-1-0.4-1.6-0.4l0,0H20.6l32.2,34.1l3.2,8.6c0.5,1.3,1.7,2.1,3,2.2c0.1,0,0.1,0,0.2,0
	c1.3,0,2.5-0.7,3.1-1.8l20-38C83.2,35.4,82.6,33.3,80.9,32.4z"/>
<rect x="18.6" y="20.7" class="st2" width="17.1" height="8"/>
<rect x="38.5" y="20.7" class="st2" width="17.1" height="8"/>
<rect x="29" y="10.4" class="st2" width="17.1" height="8"/>
<rect x="48.8" y="10.4" class="st2" width="17.1" height="8"/>
<rect x="39.3" class="st2" width="17.1" height="8"/>
<rect x="58.4" y="20.7" class="st2" width="17.1" height="8"/>
</svg>
