<?xml version="1.0" encoding="utf-8"?>
<!-- Generator: Adobe Illustrator 19.1.0, SVG Export Plug-In . SVG Version: 6.00 Build 0)  -->
<!DOCTYPE svg PUBLIC "-//W3C//DTD SVG 1.1//EN" "http://www.w3.org/Graphics/SVG/1.1/DTD/svg11.dtd">
<svg version="1.1" id="Layer_1" xmlns="http://www.w3.org/2000/svg" xmlns:xlink="http://www.w3.org/1999/xlink" x="0px" y="0px"
	 viewBox="0 0 63.1 72.8" style="enable-background:new 0 0 63.1 72.8;" xml:space="preserve">
<style type="text/css">
	.st0{fill:#DC4437;}
	.st1{fill:#303030;}
	.st2{fill:#059C59;}
</style>
<g>
	<path class="st0" d="M45.6,39.8V29.7l-12,10.1V28.5l-12,10.7l-4.1,0.4l-2-26.3H9.6L7.6,40l-5-0.2v25.6h57V29.7L45.6,39.8z
		 M18.6,57.4h-10v-10h10V57.4z M30.6,57.4h-10v-10h10V57.4z M41.6,57.4h-9v-10h9V57.4z M52.6,57.4h-9v-10h9V57.4z"/>
	<circle class="st1" cx="12.6" cy="7.1" r="3.5"/>
	<circle class="st1" cx="20.5" cy="6" r="6"/>
	<circle class="st1" cx="28.4" cy="11.6" r="8.2"/>
	<circle class="st1" cx="44.1" cy="9.4" r="9.4"/>
	<rect y="64.6" class="st2" width="63.1" height="8.2"/>
</g>
</svg>
