<?xml version="1.0" encoding="utf-8"?>
<!-- Generator: Adobe Illustrator 19.1.0, SVG Export Plug-In . SVG Version: 6.00 Build 0)  -->
<!DOCTYPE svg PUBLIC "-//W3C//DTD SVG 1.1//EN" "http://www.w3.org/Graphics/SVG/1.1/DTD/svg11.dtd">
<svg version="1.1" id="Layer_1" xmlns="http://www.w3.org/2000/svg" xmlns:xlink="http://www.w3.org/1999/xlink" x="0px" y="0px"
	 viewBox="0 0 97.3 81.2" style="enable-background:new 0 0 97.3 81.2;" xml:space="preserve">
<style type="text/css">
	.st0{fill:#059C59;}
	.st1{fill:#DDA722;}
	.st2{fill:#303030;}
	.st3{fill:#3F5CA8;}
	.st4{fill:#FFFFFF;}
</style>
<g>
	<path class="st0" d="M30.7,31.1H9.8v4.4h2.9l-3.5,10l13.5,4.4l8-4.9l-2.9-9.5h2.9V31.1z M23.4,39.3h-7.1v-3.8h7.1V39.3z"/>
	<polygon class="st0" points="16.4,27.7 18.8,27.7 20.5,18.2 36.8,33.4 36.7,45.3 78.8,45.3 71.5,45.1 60.6,37.6 54.7,3.8 48.9,3.8 
		45.6,25.3 15.3,6.8 12.9,8.7 16.9,12.9 	"/>
	<path class="st1" d="M95.3,0L83.5,3.5l-17.7,16l-5.1,18.2l13.1,9.5l16-14.4l6.9-18.2l0.7-12.2L95.3,0z M74.4,18l8,10.4l-12.9-2.7
		L74.4,18z M64.6,38.2l2.7-5.8l3.6,10L64.6,38.2z M74.2,40.4l-3.8-10.7l12.4,3.8L74.2,40.4z M86.8,27.1l-8.2-10l11.8-0.7L86.8,27.1z
		 M81.3,12.9l5.5-4.2l4.7,4.4L81.3,12.9z"/>
	<rect x="27.8" y="55.5" class="st2" width="7.1" height="14.6"/>
	<rect x="62.6" y="55.5" class="st2" width="7.1" height="14.6"/>
	<path class="st3" d="M8.7,75.7c0,0,12.3,3.5,17.3-4c0,0,10.8,9,18.4-1.1c0,0,9.3,10.1,18.4,1.4c0,0,5,7.2,17.6,3.3
		c0,0-9,5-16.9,2.8c0,0-8.5,6-18.1,0.8c0,0-11.1,5.8-18.9-1.1C26.7,77.8,18.2,82.2,8.7,75.7z"/>
	<rect x="5" y="44.4" class="st2" width="75.7" height="14.6"/>
	<polygon class="st2" points="16.8,55.7 5.4,55.7 0,42.7 16.8,42.7 	"/>
	<rect x="43.2" y="35.6" class="st4" width="4.3" height="3.4"/>
	<rect x="50.3" y="35.6" class="st4" width="4.3" height="3.4"/>
</g>
</svg>
