<?xml version="1.0" encoding="UTF-8" standalone="no"?>
<svg width="123px" height="68px" viewBox="0 0 123 68" version="1.1" xmlns="http://www.w3.org/2000/svg" xmlns:xlink="http://www.w3.org/1999/xlink">
    <!-- Generator: Sketch 42 (36781) - http://www.bohemiancoding.com/sketch -->
    <title>remote_health_monitoring</title>
    <desc>Created with Sketch.</desc>
    <defs>
        <filter x="-50%" y="-50%" width="200%" height="200%" filterUnits="objectBoundingBox" id="filter-1">
            <feGaussianBlur stdDeviation="10 0" in="SourceGraphic"></feGaussianBlur>
        </filter>
    </defs>
    <g id="Page-1" stroke="none" stroke-width="1" fill="none" fill-rule="evenodd">
        <g id="Large-Device-Desktops" transform="translate(-149.000000, -1006.000000)">
            <g id="iot_solutions_healthcare" transform="translate(84.000000, 635.000000)">
                <g id="remote_health_monitoring" transform="translate(89.000000, 371.000000)">
                    <g id="Group-12">
                        <ellipse id="Oval-4" fill="#000000" opacity="0.1" filter="url(#filter-1)" cx="37.6559991" cy="66.5" rx="34.5" ry="1.5"></ellipse>
                        <g id="Group-20">
                            <polygon id="Combined-Shape" fill="#B0B6BB" points="28.7932867 52.9393447 47.2417052 52.9393447 51.0522309 63.9744605 24.8261251 63.9744605"></polygon>
                            <rect id="Rectangle-6" fill="#E8EDEE" x="15.9627781" y="62.3069245" width="44.2046163" height="3.68371803" rx="1.84185901"></rect>
                            <rect id="Rectangle-5" fill="#425B68" x="0" y="0" width="76.1301726" height="57.7115825" rx="5"></rect>
                            <path d="M0,46.6604284 L76.1301726,46.6604284 L76.1301726,52.7033538 C76.1301726,55.4693221 73.8929707,57.7115825 71.1350593,57.7115825 L4.99511325,57.7115825 C2.23638838,57.7115825 0,55.4752165 0,52.7033538 L0,46.6604284 Z" id="Rectangle-5" fill="#E8EDEE"></path>
                            <path d="M70.5637135,30.1231535 L45.4590427,30.4295487 C44.791411,30.4455572 44.1450509,30.0747557 43.8106752,29.4824413 L42.7008167,27.5189804 L39.689943,37.0920622 C39.4447591,37.8727557 38.7196565,38.3961964 37.9105868,38.3961964 C36.9070867,38.3269503 36.2002703,37.6773031 36.0662961,36.8232684 L33.3334468,19.4454853 L31.4406417,28.3417427 C31.25778,29.2017342 30.4968515,29.8167583 29.6153835,29.8167583 L5.79746192,29.8167583 C4.76671909,29.8167583 3.93152632,28.9835718 3.93152632,27.955305 C3.93152632,26.9270383 4.76671909,26.0938518 5.79746192,26.0938518 L28.1039757,26.0938518 L31.7836007,8.80020643 C31.9668356,7.93872586 32.72963,7.32519087 33.6081125,7.32519087 C34.5586201,7.34976205 35.3128313,8.01132254 35.4524033,8.89811887 L38.5170159,28.3864176 L40.4303463,22.3035607 C40.653139,21.5958361 41.2759883,21.0869148 42.0156452,21.0094784 C42.755302,20.9312973 43.4707017,21.3002374 43.8360519,21.9465339 L46.518521,26.693612 L70.5178115,26.4006193 C71.5612427,26.4006193 72.3941963,27.2189141 72.4068847,28.2389905 C72.4191999,29.266885 71.5940832,30.1104956 70.5637135,30.1231535 Z" id="Path" fill="#EA6148"></path>
                        </g>
                    </g>
                </g>
            </g>
        </g>
    </g>
</svg>