<?xml version="1.0" encoding="UTF-8"?>
<svg version="1.1" viewBox="0 0 460 335" xmlns="http://www.w3.org/2000/svg">
<title>Group 2</title>
<desc>Created with Sketch.</desc>
<g fill="none" fill-rule="evenodd">
<g transform="translate(-260 -351)">
<g transform="translate(260 345)">
<g transform="translate(74.355 44.2)">
<path transform="translate(191.56 141.86) scale(-1 1) translate(-191.56 -141.86)" d="m172.2 211.63v-81.866c-1.0237-7.0833 1.5887-10.259 7.8369-9.5269 2.1098 0.24716 6.3357 0 23.599 0 4.9797 0 7.4815-2.6638 7.5055-7.9914v-40.17" stroke="#424D4C" stroke-dasharray="4.274999999999999" stroke-width="2.565"/>
<g transform="translate(123.25 130.22)">
<path d="m123.66 163.08h-72.386c0-6.662 5.4018-12.063 12.064-12.063h48.257c6.6628-3.42e-4 12.065 5.4014 12.065 12.063" fill="#fff" fill-rule="nonzero" stroke="#424D4C" stroke-width="3.42"/>
<polygon points="108.58 151.02 66.354 151.02 72.386 126.89 102.55 126.89" fill="#fff" fill-rule="nonzero" stroke="#424D4C" stroke-width="3.42"/>
<path d="m174.93 102.76h-174.93v-91.984c0-5.8298 4.7263-10.556 10.556-10.556h153.82c5.8302 0 10.556 4.7259 10.556 10.556v91.984h-3.42e-4z" fill="#F0F7FF" fill-rule="nonzero" stroke="#424D4C" stroke-width="3.42"/>
<rect x="41.895" y="59.85" width="106.88" height="3.42" fill="#A1C2E3"/>
<rect x="41.895" y="65.835" width="64.125" height="3.42" fill="#A1C2E3"/>
<polygon transform="translate(86.292 48.308) rotate(-90) translate(-86.292 -48.308)" points="94.415 48.308 78.17 61.925 78.17 34.69" fill="#FFC13E"/>
<polygon transform="translate(58.291 41.04) rotate(-90) translate(-58.291 -41.04)" points="73.681 41.04 42.901 66.841 42.901 15.239" fill="#4CCAFC"/>
<polygon transform="translate(117.29 41.04) rotate(-90) translate(-117.29 -41.04)" points="132.68 41.04 101.9 66.841 101.9 15.239" fill="#A1C2E3"/>
<path d="m164.38 126.89h-153.82c-5.8302 0-10.556-4.7259-10.556-10.556v-13.571h174.93v13.571c0 5.8298-4.7263 10.556-10.556 10.556" fill="#fff" fill-rule="nonzero" stroke="#424D4C" stroke-width="3.42"/>
</g>
<g transform="translate(154 7)" fill-rule="nonzero">
<g transform="translate(.78363 .17248)">
<path d="m81.59 67.294c10.52 0 19.128-8.6642 19.128-19.252 0-9.3765-6.7542-17.477-15.605-19.155-0.19947-15.186-12.476-27.932-27.612-27.932-9.6422 0-18.696 5.246-23.695 12.807-2.1959-1.4717-4.8341-2.3323-7.6718-2.3323-7.6631 0-13.876 6.2533-13.876 13.966 0 0.2671 0.024283 0.52722 0.039894 0.79258-0.017345 0.31773-0.039894 0.63895-0.039894 0.95319-6.9173 3.3379-12.142 11.272-12.142 19.474 0 11.374 9.245 20.679 20.545 20.679h60.929z" fill="#F0F7FF" stroke="#424D4C" stroke-linecap="round" stroke-width="1.6758"/>
<g transform="translate(19 3)">
<rect x="7.7939" y="21.277" width="9.8192" height="39.765" fill="#FAC434"/>
<rect x="7.7939" y="21.277" width="2.9458" height="39.765" fill="#D69F1D"/>
<rect x="26.45" y="33.885" width="9.8192" height="27.157" fill="#48CBFF"/>
<rect x="26.45" y="33.885" width="2.9458" height="27.157" fill="#56C4F0"/>
<rect x="45.107" y="27.096" width="9.8192" height="33.946" fill="#FF9D4A"/>
<rect x="45.107" y="27.096" width="2.9458" height="33.946" fill="#F48A16"/>
<path d="m61.799 60.133h-5.9529v-33.037c0-0.50227-0.41209-0.90931-0.92059-0.90931h-9.8192c-0.5085 0-0.92059 0.40704-0.92059 0.90931v33.037h-6.9962v-15.054c0-0.50227-0.41209-0.90931-0.92059-0.90931s-0.92059 0.40704-0.92059 0.90931v15.054h-7.9781v-25.338h7.9781v5.8797c0 0.50227 0.41209 0.90931 0.92059 0.90931s0.92059-0.40704 0.92059-0.90931v-6.789c0-0.50227-0.41209-0.90931-0.92059-0.90931h-9.8192c-0.50838 0-0.92059 0.40704-0.92059 0.90931v26.248h-6.9962v-38.856c0-0.50227-0.41221-0.90931-0.92059-0.90931h-9.8187c-0.50838 0-0.92059 0.40704-0.92059 0.90931v38.856h-5.0323v-59.224c0-0.50227-0.41209-0.90931-0.92046-0.90931s-0.92059 0.40704-0.92059 0.90931v60.133c0 0.50215 0.41221 0.90919 0.92059 0.90919h60.879c0.5085 0 0.92059-0.40704 0.92059-0.90931s-0.41221-0.90919-0.92071-0.90919zm-53.085 0v-37.947h7.9781v37.947h-7.9781zm37.313 0v-32.128h7.9781v32.128h-7.9781z" fill="#4A4A4A"/>
<path d="m12.704 15.397c0.75423 0 1.4413-0.28774 1.9558-0.75745l13.858 10.038c-0.026828 0.15597-0.04165 0.31569-0.04165 0.47903 0 1.5709 1.294 2.849 2.8844 2.849 1.3656 0 2.5119-0.94258 2.8088-2.2036l13.785-5.4463c0.52406 0.53046 1.2551 0.86067 2.063 0.86067 1.5904 0 2.8844-1.2781 2.8844-2.849 0-1.5709-1.294-2.8489-2.8844-2.8489s-2.8844 1.2781-2.8844 2.849c0 0.11701 0.0079625 0.2322 0.021928 0.34569l-13.193 5.2125c-0.46574-0.95625-1.4565-1.618-2.6008-1.618-0.75423 0-1.4413 0.28774-1.9558 0.75745l-13.858-10.038c0.026828-0.15597 0.04165-0.31569 0.04165-0.47903 0-1.5709-1.294-2.849-2.8844-2.849s-2.8844 1.278-2.8844 2.8489c0 1.5709 1.2937 2.849 2.8843 2.849zm37.313 1.9397c0.57526 0 1.0433 0.46222 1.0433 1.0305s-0.46795 1.0305-1.0433 1.0305c-0.57526 0-1.0433-0.46222-1.0433-1.0305s0.46807-1.0305 1.0433-1.0305zm-18.656 6.7891c0.57526 0 1.0433 0.46222 1.0433 1.0305 0 0.56833-0.46795 1.0305-1.0433 1.0305s-1.0433-0.46222-1.0433-1.0305c0-0.56833 0.46807-1.0305 1.0433-1.0305zm-18.656-12.608c0.57526 0 1.0433 0.46222 1.0433 1.0305 0 0.56833-0.46795 1.0305-1.0433 1.0305s-1.0433-0.46222-1.0433-1.0305c0-0.56833 0.46795-1.0305 1.0433-1.0305z" fill="#4A4A4A"/>
</g>
<path d="m145.69 25.722s-3.5477-0.50137-7.0016 0"/>
</g>
</g>
<path d="m78.151 234.72v-81.866c-1.0237-7.0833 1.5887-10.259 7.8369-9.5269 2.1098 0.24716 6.3357 0 23.599 0 4.9797 0 7.4815-2.6638 7.5055-7.9914v-40.17" stroke="#424D4C" stroke-dasharray="4.274999999999999" stroke-width="2.565"/>
<path d="m75.754 56.468c7.8445 0 14.264-6.4608 14.264-14.356 0-6.9919-5.0365-13.032-11.637-14.283-0.14874-11.324-9.3034-20.829-20.59-20.829-7.19 0-13.942 3.9119-17.669 9.5499-1.6374-1.0974-3.6047-1.7392-5.7207-1.7392-5.7143 0-10.347 4.663-10.347 10.414 0 0.19917 0.018108 0.39314 0.029748 0.59101-0.012934 0.23693-0.029748 0.47645-0.029748 0.71078-5.1581 2.489-9.0538 8.4056-9.0538 14.521 0 8.4811 6.8938 15.42 15.32 15.42h45.433z" fill="#F0F7FF" fill-rule="nonzero" stroke="#424D4C" stroke-linecap="round" stroke-width="1.71"/>
<g transform="translate(20)" fill-rule="nonzero" stroke="#424D4C">
<path d="m0 13.117v23.751c0 0.46542 0.19977 0.88579 0.51792 1.1786 0.27376 0.26273 0.64371 0.41287 1.0506 0.41287h34.449c0.40694 0 0.77689-0.15013 1.0506-0.41287 0.32555-0.29276 0.51792-0.71314 0.51792-1.1786v-23.751h-37.586z" fill="#FFC95F" stroke-width="1.5"/>
<path d="m37.586 12.632l-17.92-11.706c-0.53272-0.36032-1.2208-0.36032-1.7461 0-8.067 5.3097-14.04 9.2843-17.92 11.924-1.469e-4 0.12767-1.469e-4 0.21674 5.9874e-14 0.26721l18.793 14.833 18.793-14.833v-0.48523z" fill="#F6B44B" stroke-width="1.5"/>
<polygon points="16.102 25.728 21.479 25.728 32.176 17.246 32.176 7.9619 25.932 1.6412 5.0965 1.6412 5.2236 17.143" fill="#F2F2F2" stroke-width="1.5"/>
<g transform="translate(25.149 1.1845)" fill="#FAC434" stroke-width=".75">
<polygon points="0.42483 7.0632 7.3602 7.1888 7.3602 6.6509 0.96263 0.23601 0.42483 0.23601"/>
</g>
<path d="m1.5686 38.46h34.449c0.40694 0 0.63917-0.23354 0.91293-0.49627l-15.319-12.235h-5.638l-15.071 12.127 0.66526 0.60473z" fill="#FFC233" stroke-width="1.5"/>
</g>
<g transform="translate(8.68 175.54)">
<path d="m64.081 103.39v6.0642h48.823v-6.0642h51.875v-97.028c0-3.3503-2.7312-6.0642-6.1029-6.0642h-140.37c-3.3717 0-6.1029 2.7139-6.1029 6.0642v97.028h51.875z" fill="#fff" fill-rule="nonzero" stroke="#424D4C" stroke-width="2.6932"/>
<polygon points="19.665 96.508 157.87 96.508 157.87 7.695 19.665 7.695" fill="#F0F7FF" fill-rule="nonzero"/>
<rect x="23.085" y="15.39" width="62.415" height="41.04" fill="#FFC13E"/>
<circle cx="54.72" cy="35.91" r="7.695" fill="#fff"/>
<rect x="88.92" y="15.39" width="22.23" height="15.39" fill="#A1C2E3"/>
<rect x="114.57" y="15.39" width="33.345" height="1.71" fill="#A1C2E3"/>
<rect x="114.57" y="18.81" width="33.345" height="1.71" fill="#A1C2E3"/>
<rect x="114.57" y="22.23" width="18.81" height="1.71" fill="#A1C2E3"/>
<rect x="114.57" y="35.055" width="33.345" height="1.71" fill="#A1C2E3"/>
<rect x="114.57" y="38.475" width="33.345" height="1.71" fill="#A1C2E3"/>
<rect x="114.57" y="41.895" width="18.81" height="1.71" fill="#A1C2E3"/>
<rect x="114.57" y="54.72" width="33.345" height="1.71" fill="#A1C2E3"/>
<rect x="114.57" y="58.14" width="33.345" height="1.71" fill="#A1C2E3"/>
<rect x="114.57" y="61.56" width="18.81" height="1.71" fill="#A1C2E3"/>
<rect x="114.57" y="74.385" width="33.345" height="1.71" fill="#A1C2E3"/>
<rect x="114.57" y="77.805" width="33.345" height="1.71" fill="#A1C2E3"/>
<rect x="114.57" y="81.225" width="18.81" height="1.71" fill="#A1C2E3"/>
<rect x="88.92" y="35.055" width="22.23" height="15.39" fill="#A1C2E3"/>
<rect x="88.92" y="54.72" width="22.23" height="15.39" fill="#A1C2E3"/>
<rect x="88.92" y="74.385" width="22.23" height="15.39" fill="#A1C2E3"/>
<polygon points="18.309 97.324 158.68 97.324 158.68 6.3603 18.309 6.3603" fill-rule="nonzero" stroke="#424D4C" stroke-width="2.6932"/>
<path d="m112.9 103.39v6.0642h-48.824v-6.0642h-64.081v9.0965c0 3.3503 2.7312 6.0642 6.1029 6.0642h164.78c3.3717 0 6.1029-2.7139 6.1029-6.0642v-9.0965h-64.081z" fill="#fff" fill-rule="nonzero" stroke="#424D4C" stroke-width="2.6932"/>
</g>
<g transform="translate(69.385 .26)" fill-rule="nonzero">
<g transform="translate(.50908 .35545)">
<path d="m103.32 83.435c13.322 0 24.223-10.897 24.223-24.214 0-11.793-8.5531-21.981-19.762-24.091-0.2526-19.1-15.799-35.131-34.966-35.131-12.21 0-23.676 6.598-30.006 16.107-2.7807-1.8509-6.1216-2.9334-9.715-2.9334-9.704 0-17.572 7.8649-17.572 17.565 0 0.33594 0.030751 0.66309 0.050519 0.99683-0.021965 0.39961-0.050519 0.80361-0.050519 1.1988-8.7596 4.1981-15.375 14.177-15.375 24.493 0 14.305 11.707 26.008 26.017 26.008h77.156z" fill="#BAD3ED" stroke="#424D4C" stroke-linecap="round" stroke-width="2.1541"/>
<path d="m108.64 36.597s-6.0248-0.85138-11.89 0"/>
</g>
</g>
<g transform="translate(.985 245.64)" fill-rule="nonzero">
<path d="m24.449 49.59h-21.537c-1.6074 0-2.9113-1.3039-2.9113-2.9113v-43.767c0-1.6074 1.3039-2.9113 2.9113-2.9113h21.537c1.6083 0 2.9121 1.3039 2.9121 2.9113v43.767c0 1.6083-1.3039 2.9121-2.9113 2.9121z" fill="#fff" stroke="#424D4C" stroke-width="1.71"/>
<polygon points="0.41598 5.13 26.927 5.13 26.927 39.33 0.41598 39.33" fill="#F0F7FF" stroke="#424D4C" stroke-width=".855"/>
<circle cx="13.68" cy="44.46" r="2.565" fill="#424D4C"/>
<path d="m13.68 3.42h-3.42c-0.47282 0-0.855-0.38218-0.855-0.855s0.38218-0.855 0.855-0.855h3.42c0.47282 0 0.855 0.38218 0.855 0.855s-0.38218 0.855-0.855 0.855z" fill="#424D4C"/>
<path d="m17.1 3.42h-0.855c-0.47282 0-0.855-0.38218-0.855-0.855s0.38218-0.855 0.855-0.855h0.855c0.47282 0 0.855 0.38218 0.855 0.855s-0.38218 0.855-0.855 0.855z" fill="#424D4C"/>
<path d="m15.358 14.551h-3.355c-0.48992 0-0.88749-0.39758-0.88749-0.88749v-3.355c0-0.48992 0.39758-0.88749 0.88749-0.88749h3.355c0.48992 0 0.88749 0.39758 0.88749 0.88749v3.355c0 0.48992-0.39758 0.88749-0.88749 0.88749z" fill="#8AB0D9"/>
<path d="m7.6625 14.551h-3.355c-0.48992 0-0.88749-0.39758-0.88749-0.88749v-3.355c0-0.48992 0.39758-0.88749 0.88749-0.88749h3.355c0.48992 0 0.88749 0.39758 0.88749 0.88749v3.355c0 0.48992-0.39758 0.88749-0.88749 0.88749z" fill="#62AA13"/>
<path d="m23.053 14.551h-3.355c-0.48992 0-0.88749-0.39758-0.88749-0.88749v-3.355c0-0.48992 0.39758-0.88749 0.88749-0.88749h3.355c0.48992 0 0.88749 0.39758 0.88749 0.88749v3.355c0 0.48992-0.39758 0.88749-0.88749 0.88749z" fill="#F5A623"/>
<path d="m15.358 22.23h-3.355c-0.48992 0-0.88749-0.39758-0.88749-0.88749v-3.355c0-0.48992 0.39758-0.88749 0.88749-0.88749h3.355c0.48992 0 0.88749 0.39758 0.88749 0.88749v3.355c0 0.48992-0.39758 0.88749-0.88749 0.88749z" fill="#EBBA16"/>
<path d="m7.6625 22.23h-3.355c-0.48992 0-0.88749-0.39758-0.88749-0.88749v-3.355c0-0.48992 0.39758-0.88749 0.88749-0.88749h3.355c0.48992 0 0.88749 0.39758 0.88749 0.88749v3.355c0 0.48992-0.39758 0.88749-0.88749 0.88749z" fill="#8AB0D9"/>
<path d="m23.053 22.23h-3.355c-0.48992 0-0.88749-0.39758-0.88749-0.88749v-3.355c0-0.48992 0.39758-0.88749 0.88749-0.88749h3.355c0.48992 0 0.88749 0.39758 0.88749 0.88749v3.355c0 0.48992-0.39758 0.88749-0.88749 0.88749z" fill="#D0021B"/>
<path d="m15.358 29.925h-3.355c-0.48992 0-0.88749-0.39758-0.88749-0.88749v-3.355c0-0.48992 0.39758-0.88749 0.88749-0.88749h3.355c0.48992 0 0.88749 0.39758 0.88749 0.88749v3.355c0 0.48992-0.39758 0.88749-0.88749 0.88749z" fill="#8AB0D9"/>
<path d="m7.6625 29.925h-3.355c-0.48992 0-0.88749-0.39758-0.88749-0.88749v-3.355c0-0.48992 0.39758-0.88749 0.88749-0.88749h3.355c0.48992 0 0.88749 0.39758 0.88749 0.88749v3.355c0 0.48992-0.39758 0.88749-0.88749 0.88749z" fill="#EA6248"/>
<path d="m23.053 29.925h-3.355c-0.48992 0-0.88749-0.39758-0.88749-0.88749v-3.355c0-0.48992 0.39758-0.88749 0.88749-0.88749h3.355c0.48992 0 0.88749 0.39758 0.88749 0.88749v3.355c0 0.48992-0.39758 0.88749-0.88749 0.88749z" fill="#8AB0D9"/>
</g>
</g>
<g transform="translate(369.46 104.31)">
<circle cx="13.68" cy="13.68" r="13.68" fill="#FFC13E"/>
<g transform="translate(5.13 5.13)" fill="#fff" fill-rule="nonzero">
<path d="m16.11 8.7258c-0.010809-0.30681-0.043273-0.6081-0.09139-0.9036l1.936-1.1008-0.47788-1.1813-0.47788-1.1817-2.1564 0.55445c-0.46577-0.67046-1.0425-1.256-1.7032-1.7314l0.59078-2.1473-1.1735-0.49726-1.1732-0.49762-1.1324 1.9157c-0.49372-0.08904-1.0038-0.12873-1.5255-0.11033-0.30682 0.010809-0.6081 0.043273-0.9036 0.091354l-1.1004-1.936-2.3633 0.9558 0.55445 2.1564c-0.67046 0.46577-1.256 1.0425-1.7314 1.7032l-2.1473-0.59082-0.4973 1.1736-0.49762 1.1732 1.9157 1.1324c-0.089077 0.49332-0.12877 1.0034-0.11037 1.5251 0.010809 0.30721 0.043273 0.60846 0.09139 0.90399l-1.936 1.1004 0.9558 2.3633 2.1564-0.55445c0.46577 0.67046 1.0425 1.256 1.7032 1.7314l-0.59082 2.1469 1.1735 0.49758 1.1732 0.49762 1.1324-1.9157c0.49332 0.089076 1.0034 0.12837 1.5251 0.10997 0.30721-0.010809 0.60846-0.042911 0.904-0.091028l1.1004 1.936 2.3633-0.9558-0.55445-2.1564c0.67046-0.46577 1.256-1.0425 1.7314-1.7032l2.1469 0.59082 0.49762-1.1735 0.49762-1.1732-1.9157-1.1324c0.089076-0.49375 0.12877-1.0038 0.11037-1.5255zm-6.9864 4.4131c-2.2981 0.08105-4.2268-1.7162-4.3079-4.015-0.08105-2.2981 1.7162-4.2268 4.0144-4.3079 2.2987-0.08105 4.2274 1.7161 4.3085 4.0143 0.08105 2.2988-1.7163 4.2275-4.015 4.3086z"/>
</g>
</g>
<g transform="translate(89.02 10.26)">
<circle cx="13.68" cy="13.68" r="13.68" fill="#FFC13E"/>
<g transform="translate(5.13 5.13)" fill="#fff" fill-rule="nonzero">
<path d="m16.11 8.7258c-0.010809-0.30681-0.043273-0.6081-0.09139-0.9036l1.936-1.1008-0.47788-1.1813-0.47788-1.1817-2.1564 0.55445c-0.46577-0.67046-1.0425-1.256-1.7032-1.7314l0.59078-2.1473-1.1735-0.49726-1.1732-0.49762-1.1324 1.9157c-0.49372-0.08904-1.0038-0.12873-1.5255-0.11033-0.30682 0.010809-0.6081 0.043273-0.9036 0.091354l-1.1004-1.936-2.3633 0.9558 0.55445 2.1564c-0.67046 0.46577-1.256 1.0425-1.7314 1.7032l-2.1473-0.59082-0.4973 1.1736-0.49762 1.1732 1.9157 1.1324c-0.089077 0.49332-0.12877 1.0034-0.11037 1.5251 0.010809 0.30721 0.043273 0.60846 0.09139 0.90399l-1.936 1.1004 0.9558 2.3633 2.1564-0.55445c0.46577 0.67046 1.0425 1.256 1.7032 1.7314l-0.59082 2.1469 1.1735 0.49758 1.1732 0.49762 1.1324-1.9157c0.49332 0.089076 1.0034 0.12837 1.5251 0.10997 0.30721-0.010809 0.60846-0.042911 0.904-0.091028l1.1004 1.936 2.3633-0.9558-0.55445-2.1564c0.67046-0.46577 1.256-1.0425 1.7314-1.7032l2.1469 0.59082 0.49762-1.1735 0.49762-1.1732-1.9157-1.1324c0.089076-0.49375 0.12877-1.0038 0.11037-1.5255zm-6.9864 4.4131c-2.2981 0.08105-4.2268-1.7162-4.3079-4.015-0.08105-2.2981 1.7162-4.2268 4.0144-4.3079 2.2987-0.08105 4.2274 1.7161 4.3085 4.0143 0.08105 2.2988-1.7163 4.2275-4.015 4.3086z"/>
</g>
</g>
<g transform="translate(335.26 10.26)">
<circle cx="13.68" cy="13.68" r="13.68" fill="#4CCAFC"/>
<g transform="translate(5.13 5.13)" fill="#fff" fill-rule="nonzero">
<path d="m16.11 8.7258c-0.010809-0.30681-0.043273-0.6081-0.09139-0.9036l1.936-1.1008-0.47788-1.1813-0.47788-1.1817-2.1564 0.55445c-0.46577-0.67046-1.0425-1.256-1.7032-1.7314l0.59078-2.1473-1.1735-0.49726-1.1732-0.49762-1.1324 1.9157c-0.49372-0.08904-1.0038-0.12873-1.5255-0.11033-0.30682 0.010809-0.6081 0.043273-0.9036 0.091354l-1.1004-1.936-2.3633 0.9558 0.55445 2.1564c-0.67046 0.46577-1.256 1.0425-1.7314 1.7032l-2.1473-0.59082-0.4973 1.1736-0.49762 1.1732 1.9157 1.1324c-0.089077 0.49332-0.12877 1.0034-0.11037 1.5251 0.010809 0.30721 0.043273 0.60846 0.09139 0.90399l-1.936 1.1004 0.9558 2.3633 2.1564-0.55445c0.46577 0.67046 1.0425 1.256 1.7032 1.7314l-0.59082 2.1469 1.1735 0.49758 1.1732 0.49762 1.1324-1.9157c0.49332 0.089076 1.0034 0.12837 1.5251 0.10997 0.30721-0.010809 0.60846-0.042911 0.904-0.091028l1.1004 1.936 2.3633-0.9558-0.55445-2.1564c0.67046-0.46577 1.256-1.0425 1.7314-1.7032l2.1469 0.59082 0.49762-1.1735 0.49762-1.1732-1.9157-1.1324c0.089076-0.49375 0.12877-1.0038 0.11037-1.5255zm-6.9864 4.4131c-2.2981 0.08105-4.2268-1.7162-4.3079-4.015-0.08105-2.2981 1.7162-4.2268 4.0144-4.3079 2.2987-0.08105 4.2274 1.7161 4.3085 4.0143 0.08105 2.2988-1.7163 4.2275-4.015 4.3086z"/>
</g>
</g>
<g transform="translate(55.675 117.99)">
<circle cx="13.68" cy="13.68" r="13.68" fill="#4CCAFC"/>
<g transform="translate(5.13 5.13)" fill="#fff" fill-rule="nonzero">
<path d="m16.11 8.7258c-0.010809-0.30681-0.043273-0.6081-0.09139-0.9036l1.936-1.1008-0.47788-1.1813-0.47788-1.1817-2.1564 0.55445c-0.46577-0.67046-1.0425-1.256-1.7032-1.7314l0.59078-2.1473-1.1735-0.49726-1.1732-0.49762-1.1324 1.9157c-0.49372-0.08904-1.0038-0.12873-1.5255-0.11033-0.30682 0.010809-0.6081 0.043273-0.9036 0.091354l-1.1004-1.936-2.3633 0.9558 0.55445 2.1564c-0.67046 0.46577-1.256 1.0425-1.7314 1.7032l-2.1473-0.59082-0.4973 1.1736-0.49762 1.1732 1.9157 1.1324c-0.089077 0.49332-0.12877 1.0034-0.11037 1.5251 0.010809 0.30721 0.043273 0.60846 0.09139 0.90399l-1.936 1.1004 0.9558 2.3633 2.1564-0.55445c0.46577 0.67046 1.0425 1.256 1.7032 1.7314l-0.59082 2.1469 1.1735 0.49758 1.1732 0.49762 1.1324-1.9157c0.49332 0.089076 1.0034 0.12837 1.5251 0.10997 0.30721-0.010809 0.60846-0.042911 0.904-0.091028l1.1004 1.936 2.3633-0.9558-0.55445-2.1564c0.67046-0.46577 1.256-1.0425 1.7314-1.7032l2.1469 0.59082 0.49762-1.1735 0.49762-1.1732-1.9157-1.1324c0.089076-0.49375 0.12877-1.0038 0.11037-1.5255zm-6.9864 4.4131c-2.2981 0.08105-4.2268-1.7162-4.3079-4.015-0.08105-2.2981 1.7162-4.2268 4.0144-4.3079 2.2987-0.08105 4.2274 1.7161 4.3085 4.0143 0.08105 2.2988-1.7163 4.2275-4.015 4.3086z"/>
</g>
</g>
<g transform="translate(179.65 98.325)" fill-rule="nonzero">
<path d="m52.232 28.695c-0.034452-0.97791-0.13792-1.9382-0.29129-2.88l6.1706-3.5086-1.5232-3.7652-1.5232-3.7663-6.873 1.7672c-1.4846-2.137-3.3226-4.0034-5.4286-5.5186l1.883-6.844-3.7404-1.5849-3.7393-1.5861-3.6093 6.1059c-1.5736-0.2838-3.1994-0.41031-4.8622-0.35167-0.97791 0.034452-1.9382 0.13792-2.88 0.29117l-3.5074-6.1706-7.5327 3.0464 1.7672 6.873c-2.137 1.4846-4.0034 3.3226-5.5186 5.4287l-6.844-1.8831-1.585 3.7405-1.5861 3.7394 6.106 3.6093c-0.28391 1.5724-0.41043 3.1982-0.35178 4.8611 0.034452 0.97918 0.13792 1.9393 0.29129 2.8813l-6.1706 3.5073 3.0464 7.5327 6.873-1.7672c1.4846 2.137 3.3226 4.0034 5.4286 5.5186l-1.8831 6.8428 3.7404 1.586 3.7393 1.5861 3.6093-6.1059c1.5724 0.28391 3.1982 0.40916 4.8611 0.35051 0.97918-0.034452 1.9393-0.13677 2.8813-0.29014l3.5074 6.1707 7.5327-3.0464-1.7672-6.873c2.137-1.4846 4.0034-3.3226 5.5186-5.4287l6.8428 1.8831 1.5861-3.7404 1.5861-3.7394-6.106-3.6093c0.28391-1.5737 0.41043-3.1994 0.35178-4.8622zm-22.455 8.7595c-4.3943 0.15498-8.0822-3.2816-8.2372-7.6772-0.15498-4.3943 3.2816-8.0822 7.6759-8.2372 4.3955-0.15498 8.0834 3.2815 8.2383 7.6758 0.15498 4.3956-3.2817 8.0835-7.6771 8.2386z" fill="#fff"/>
<path d="m28.915 13.01c-9.1052 0.32113-16.227 7.9637-15.906 17.069 0.32113 9.1063 7.9637 16.228 17.069 15.907 9.1063-0.32113 16.228-7.9637 15.907-17.07-0.32113-9.1053-7.9637-16.227-17.07-15.906zm0.86223 24.445c-4.3943 0.15498-8.0822-3.2816-8.2372-7.6772-0.15498-4.3943 3.2816-8.0822 7.6759-8.2372 4.3955-0.15498 8.0834 3.2815 8.2383 7.6758 0.15498 4.3956-3.2817 8.0835-7.6771 8.2386z" fill="#4CCAFC"/>
<path d="m29.051 16.916c-6.9469 0.24508-12.38 6.0752-12.135 13.022 0.24543 6.9566 6.0756 12.39 13.022 12.145 6.9566-0.24543 12.39-6.0756 12.144-13.032-0.24508-6.947-6.0752-12.38-13.032-12.135zm0.72442 20.539c-4.3942 0.15498-8.0762-3.2855-8.2312-7.6797s3.2758-8.0759 7.67-8.2308 8.0857 3.2755 8.2406 7.6697c0.15475 4.3941-3.2854 8.0859-7.6795 8.2409z" fill="#9CA5AA"/>
<path d="m29.053 16.914c-6.9492 0.24508-12.384 6.0772-12.139 13.026 0.2452 6.9503 6.0773 12.385 13.026 12.14 6.9503-0.2452 12.385-6.0773 12.14-13.028-0.2452-6.9493-6.0773-12.384-13.028-12.139zm0.72442 20.54c-4.3943 0.15498-8.0822-3.2816-8.2372-7.6772-0.15498-4.3943 3.2816-8.0822 7.6759-8.2372 4.3955-0.15498 8.0834 3.2815 8.2383 7.6758 0.15498 4.3956-3.2817 8.0835-7.6771 8.2386z" fill="#FFC13E"/>
<path d="m29.023 16.032c-3.5969 0.12686-6.929 1.6467-9.3826 4.2798-2.4536 2.6331-3.735 6.064-3.6081 9.6609 0.12686 3.5967 1.6467 6.9289 4.2798 9.3826 2.5141 2.3427 5.7552 3.6169 9.1741 3.6168 0.16166 0 0.32413-0.0028806 0.48671-0.0086419 3.5967-0.12686 6.9289-1.6467 9.3826-4.2799 2.4537-2.6329 3.7351-6.0638 3.6081-9.6608-0.12686-3.5969-1.6467-6.929-4.2798-9.3826-2.6331-2.4538-6.0642-3.7345-9.6608-3.6081zm8.4564 4.9003c2.2879 2.132 3.6085 5.0272 3.7189 8.1526 0.11027 3.1252-1.0033 6.1063-3.1353 8.3942-2.132 2.2879-5.0272 3.6085-8.1525 3.7188-3.1262 0.10866-6.1064-1.0033-8.3943-3.1353-2.2879-2.1319-3.6085-5.0271-3.7188-8.1525-0.11027-3.1252 1.0033-6.1063 3.1353-8.3942 2.1319-2.2879 5.0272-3.6085 8.1526-3.7188 0.14127-0.0049547 0.2823-0.0073744 0.4231-0.0073744 2.9703-1.152e-4 5.7866 1.107 7.971 3.1425z" fill="#424D4C"/>
<path d="m28.885 12.127c-4.6399 0.16316-8.9384 2.1236-12.104 5.5202-3.1653 3.3967-4.8182 7.8226-4.6543 12.462 0.16316 4.6399 2.1236 8.9383 5.5202 12.104 3.2429 3.0221 7.4239 4.6657 11.834 4.6657 0.2089 0 0.4185-0.0036872 0.62832-0.011177 9.5785-0.33818 17.096-8.4051 16.758-17.983-0.21893-6.1872-3.6649-11.722-9.0615-14.657-0.4435-0.24117-0.999-0.058304-1.2167 0.39718l-1.153e-4 2.305e-4c-0.20176 0.42241-0.039407 0.93009 0.3716 1.1537 4.8485 2.6373 7.9446 7.6101 8.1413 13.169 0.30373 8.6039-6.4499 15.851-15.055 16.155-4.1683 0.14691-8.1445-1.3379-11.196-4.1815-3.0514-2.8435-4.8126-6.7052-4.9592-10.874-0.14714-4.1684 1.3379-8.1444 4.1814-11.196s6.7052-4.8126 10.874-4.9592c1.4942-0.052427 2.9705 0.10474 4.3997 0.46735 0.45249 0.11476 0.91523-0.14818 1.0542-0.59398 0.1506-0.48314-0.13447-0.9952-0.62509-1.1195-1.5894-0.40294-3.2303-0.57797-4.8908-0.51897z" fill="#424D4C"/>
<path d="m58.436 36.406l-5.5853-3.301c0.22642-1.4716 0.31514-2.9623 0.26375-4.4409-0.027884-0.7735-0.098287-1.5721-0.21005-2.3813l5.6435-3.2085c0.38485-0.2187 0.54824-0.6887 0.3822-1.099l-3.0464-7.5314c-0.16581-0.41031-0.60977-0.6342-1.0387-0.52427l-6.2867 1.6167c-1.3538-1.8465-2.9586-3.4777-4.7831-4.8619l1.7221-6.2596c0.11741-0.42679-0.099324-0.87444-0.50676-1.0473l-7.4799-3.1725c-0.40743-0.17295-0.87997-0.017284-1.1051 0.36376l-3.301 5.5853c-1.4718-0.2263-2.9625-0.31514-4.4408-0.26375-0.77385 0.027769-1.5721 0.098287-2.3804 0.20994l-3.2092-5.6437c-0.21881-0.38473-0.6887-0.54824-1.099-0.38197l-7.5314 3.0462c-0.41043 0.16592-0.63443 0.61011-0.52427 1.0387l1.6167 6.2865c-1.8464 1.3538-3.4777 2.9586-4.862 4.7832l-6.2597-1.7221c-0.42633-0.11741-0.87444 0.099324-1.0473 0.50676l-3.1725 7.4797c-0.17284 0.40755-0.017284 0.88009 0.36388 1.1052l5.5853 3.2998c-0.2263 1.4726-0.31514 2.9635-0.26386 4.4419 0.027884 0.77339 0.098402 1.5717 0.21005 2.3803l-5.6436 3.2096c-0.38485 0.21881-0.54812 0.68881-0.38208 1.099l3.0463 7.5314c0.16592 0.41031 0.61011 0.63431 1.0387 0.52427l6.2869-1.6167c0.10209 0.13919 0.20614 0.27769 0.3118 0.41515 0.30488 0.39706 0.87951 0.46055 1.2647 0.14069 0.36399-0.30212 0.42656-0.83872 0.13827-1.2139-0.2157-0.28069-0.4238-0.56564-0.62267-0.85186-0.21052-0.30339-0.58753-0.44373-0.94542-0.35178l-6.1246 1.5749-2.4665-6.0983 5.4983-3.1269c0.3209-0.18252 0.49431-0.54513 0.43509-0.90947-0.15359-0.9445-0.24773-1.8765-0.27988-2.7693-0.053925-1.5561 0.059917-3.1289 0.33853-4.6749 0.065563-0.36342-0.10197-0.72914-0.41988-0.91696l-5.4411-3.2148 2.5685-6.0563 6.0986 1.6779c0.35616 0.097941 0.73571-0.03618 0.95152-0.33611 1.4624-2.0345 3.2473-3.7903 5.3047-5.2186 0.30339-0.21063 0.44373-0.58776 0.35167-0.94542l-1.575-6.1245 6.0984-2.4665 3.1269 5.4983c0.18252 0.32079 0.54513 0.49466 0.90958 0.43497 0.94369-0.15359 1.8757-0.24773 2.7692-0.27988 1.556-0.053695 3.1285 0.060032 4.6735 0.33865 0.36365 0.065217 0.72914-0.10186 0.91707-0.41965l3.2159-5.4414 6.0563 2.5686-1.6778 6.0986c-0.098171 0.35685 0.036757 0.73617 0.33726 0.95222 2.0341 1.4623 3.7894 3.2467 5.2174 5.3038 0.21052 0.30327 0.58765 0.44338 0.94542 0.35167l6.1246-1.5749 2.4665 6.0981-5.4982 3.1258c-0.3209 0.1824-0.49443 0.54513-0.4352 0.90947 0.15359 0.94496 0.24773 1.8775 0.27988 2.7703 0.05404 1.5566-0.059917 3.1293-0.33865 4.6743-0.065563 0.3633 0.10209 0.72868 0.41988 0.9165l5.4413 3.2159-2.5686 6.0563-6.0986-1.6779c-0.35616-0.098171-0.73582 0.036065-0.95152 0.33611-1.4623 2.0344-3.247 3.7903-5.3046 5.2186-0.30339 0.21063-0.44373 0.58776-0.35167 0.94542l1.575 6.1245-6.0984 2.4665-3.1269-5.4983c-0.1824-0.32079-0.54513-0.49477-0.90935-0.43509-0.96086 0.15613-1.8668 0.24739-2.77 0.27884-1.5543 0.054732-3.1264-0.058649-4.6729-0.33749-0.3633-0.065102-0.72914 0.10186-0.91707 0.41965l-3.2161 5.4413-6.0561-2.5686 1.6779-6.0985c0.098171-0.35708-0.037102-0.7364-0.33784-0.95268-0.66508-0.47818-1.3073-0.9975-1.9172-1.5497-0.35005-0.31698-0.88919-0.29716-1.2195 0.040329-0.35201 0.35962-0.33116 0.93862 0.042057 1.2762 0.50399 0.45594 1.0285 0.89103 1.5688 1.3015l-1.7221 6.2597c-0.11741 0.42679 0.099324 0.87444 0.50676 1.0473l7.48 3.1724c0.40743 0.17307 0.87997 0.017168 1.1052-0.36388l3.3008-5.5852c1.4733 0.22665 2.964 0.31525 4.4397 0.2626 0.78376-0.027193 1.5681-0.095867 2.3816-0.20867l3.2094 5.6435c0.1612 0.28334 0.45859 0.44661 0.76797 0.44661 0.11062 0 0.22296-0.020856 0.33093-0.064641l7.5314-3.0461c0.41043-0.16592 0.63454-0.61011 0.52439-1.0387l-1.6167-6.2867c1.8462-1.3538 3.4779-2.9589 4.862-4.7831l6.2596 1.7221c0.42668 0.11764 0.87455-0.099208 1.0473-0.50676l3.1724-7.4799c0.17249-0.40697 0.017053-0.87939-0.36399-1.1047z" fill="#424D4C"/>
<path d="m23.026 23.467c-1.6107 1.7285-2.4517 3.9808-2.3686 6.3417 0.16811 4.7688 4.1006 8.5338 8.8355 8.5334 0.10462 0 0.21028-0.0018436 0.31572-0.005646 4.8741-0.17192 8.6997-4.2771 8.5278-9.1515-0.083307-2.3612-1.081-4.5485-2.8094-6.1591-1.7285-1.6108-3.9819-2.4528-6.3418-2.3686-2.3611 0.083538-4.5485 1.0813-6.1592 2.8096z" fill="#fff"/>
</g>
<path d="m82.24 285.97v-81.866c-1.0237-7.0833 1.5887-10.259 7.8369-9.5269 2.1098 0.24716 6.3357 0 23.599 0 4.9797 0 7.4815-2.6638 7.5055-7.9914v-40.17c0-8.5817 3.0212-12.873 9.0635-12.873h52.017" stroke="#424D4C" stroke-dasharray="4.274999999999999" stroke-width="2.565"/>
<path d="m381 24.368h70.11" stroke="#424D4C" stroke-linecap="square"/>
<path d="m362.19 96.188h70.11" stroke="#424D4C" stroke-linecap="square"/>
<path d="m192.9 13.252h70.11" stroke="#424D4C" stroke-linecap="square"/>
<path d="m1.3825 19.238h70.11" stroke="#424D4C" stroke-linecap="square"/>
<path d="m352.79 157.75h32.987" stroke="#424D4C" stroke-linecap="square"/>
<path d="m27.032 160.31h32.987" opacity=".5" stroke="#424D4C" stroke-linecap="square"/>
<path d="m68.928 160.31h32.987" stroke="#424D4C" stroke-linecap="square"/>
<path d="m15.062 52.582h32.987" stroke="#424D4C" stroke-linecap="square"/>
<path d="m301.49 135.52h9.8325" stroke="#424D4C" stroke-linecap="square"/>
<path d="m56.958 52.582h32.987" stroke="#424D4C" stroke-linecap="square"/>
<path d="m315.17 135.52h32.987" stroke="#424D4C" stroke-linecap="square"/>
<path d="m156.14 27.788h9.8325" stroke="#424D4C" stroke-linecap="square"/>
<path d="m169.82 27.788h32.987" stroke="#424D4C" stroke-linecap="square"/>
<path d="m251.04 34.628h9.8325" stroke="#424D4C" stroke-linecap="square"/>
<path d="m264.72 34.628h32.987" stroke="#424D4C" stroke-linecap="square"/>
<path d="m27.032 103.03h9.8325" stroke="#424D4C" stroke-linecap="square"/>
<path d="m40.712 103.03h32.987" stroke="#424D4C" stroke-linecap="square"/>
<text fill="#424D4C" font-family="Poppins-Regular, Poppins" font-size="12.825">
<tspan x="375.445" y="63.59">+</tspan>
</text>
<text fill="#424D4C" font-family="Poppins-Regular, Poppins" font-size="12.825">
<tspan x="264.295" y="16.565">+</tspan>
</text>
<text fill="#424D4C" font-family="Poppins-Regular, Poppins" font-size="12.825">
<tspan x="144.595" y="31.1">+</tspan>
</text>
<text fill="#424D4C" font-family="Poppins-Regular, Poppins" font-size="12.825">
<tspan x="67.645" y="14">+</tspan>
</text>
<text fill="#424D4C" font-family="Poppins-Regular, Poppins" font-size="12.825">
<tspan x="101.845" y="159.35">+</tspan>
</text>
<text fill="#424D4C" font-family="Poppins-Regular, Poppins" font-size="12.825">
<tspan x="291.655" y="136.265">+</tspan>
</text>
<text fill="#424D4C" font-family="Poppins-Regular, Poppins" font-size="12.825">
<tspan x="52.255" y="84.965">+</tspan>
</text>
<text fill="#A3A8A7" font-family="Poppins-Regular, Poppins" font-size="12.825">
<tspan x="430.165" y="96.935">+</tspan>
</text>
<rect transform="translate(397.63 145.31) rotate(-45) translate(-397.63 -145.31)" x="395.14" y="142.81" width="4.985" height="4.985" stroke="#424D4C"/>
<rect transform="translate(53.067 50.402) rotate(-45) translate(-53.067 -50.402)" x="50.575" y="47.91" width="4.985" height="4.985" stroke="#424D4C"/>
<rect transform="translate(455.47 21.202) rotate(-45) translate(-455.47 -21.202)" x="452.97" y="18.71" width="4.985" height="4.985" stroke="#424D4C"/>
</g>
</g>
</g>
</svg>
