<?xml version="1.0" encoding="utf-8"?>
<!-- Generator: Adobe Illustrator 19.1.0, SVG Export Plug-In . SVG Version: 6.00 Build 0)  -->
<!DOCTYPE svg PUBLIC "-//W3C//DTD SVG 1.1//EN" "http://www.w3.org/Graphics/SVG/1.1/DTD/svg11.dtd">
<svg version="1.1" id="Layer_1" xmlns="http://www.w3.org/2000/svg" xmlns:xlink="http://www.w3.org/1999/xlink" x="0px" y="0px"
	 viewBox="0 0 189.3 192" style="enable-background:new 0 0 189.3 192;" xml:space="preserve">
<style type="text/css">
	.st0{fill:#059C58;}
</style>
<g>
	<polygon class="st0" points="27.2,0 12.2,0 12.2,48.9 0,48.9 0,68.2 12.2,68.2 12.2,192 27.2,192 27.2,68.2 39.3,68.2 39.3,48.9 
		27.2,48.9 	"/>
	<polygon class="st0" points="102.2,0 87.2,0 87.2,123.7 74.8,123.7 74.8,143.1 87.2,143.1 87.2,192 102.2,192 102.2,143.1 
		114.2,143.1 114.2,123.7 102.2,123.7 	"/>
	<polygon class="st0" points="189.3,78.7 177.2,78.7 177.2,0 162.2,0 162.2,78.7 150,78.7 150,98.1 162.2,98.1 162.2,192 177.2,192 
		177.2,98.1 189.3,98.1 	"/>
</g>
</svg>
