<?xml version="1.0" encoding="utf-8"?>
<!-- Generator: Adobe Illustrator 19.1.0, SVG Export Plug-In . SVG Version: 6.00 Build 0)  -->
<!DOCTYPE svg PUBLIC "-//W3C//DTD SVG 1.1//EN" "http://www.w3.org/Graphics/SVG/1.1/DTD/svg11.dtd">
<svg version="1.1" id="Layer_1" xmlns="http://www.w3.org/2000/svg" xmlns:xlink="http://www.w3.org/1999/xlink" x="0px" y="0px"
	 viewBox="0 0 59.4 59" style="enable-background:new 0 0 59.4 59;" xml:space="preserve">
<style type="text/css">
	.st0{fill:#3468DC;}
</style>
<g>
	<g>
		<path class="st0" d="M58,0H44.6c-0.8,0-1.4,0.6-1.4,1.4v3.7c0,0.8,0.6,1.4,1.4,1.4h3.6L37.5,17.2c-0.3,0.3-0.4,0.6-0.4,1
			c0,0.4,0.1,0.7,0.4,1l2.6,2.6c0.3,0.3,0.6,0.4,1,0.4c0.4,0,0.7-0.1,1-0.4l10.7-10.7v3.6c0,0.8,0.6,1.4,1.4,1.4H58
			c0.8,0,1.4-0.6,1.4-1.4V1.4C59.4,0.6,58.8,0,58,0z"/>
		<path class="st0" d="M11.2,6.6h3.6c0.8,0,1.4-0.6,1.4-1.4V1.4c0-0.8-0.6-1.4-1.4-1.4H1.4C0.6,0,0,0.6,0,1.4v13.3
			c0,0.8,0.6,1.4,1.4,1.4h3.7c0.8,0,1.4-0.6,1.4-1.4v-3.6l10.7,10.7c0.3,0.3,0.6,0.4,1,0.4c0.4,0,0.7-0.1,1-0.4l2.6-2.6
			c0.3-0.3,0.4-0.6,0.4-1c0-0.4-0.1-0.7-0.4-1L11.2,6.6z"/>
		<path class="st0" d="M19.2,37.1c-0.5-0.5-1.4-0.5-2,0L6.6,47.8v-3.6c0-0.8-0.6-1.4-1.4-1.4H1.4c-0.8,0-1.4,0.6-1.4,1.4v13.3
			C0,58.3,0.6,59,1.4,59h13.3c0.8,0,1.4-0.6,1.4-1.4v-3.7c0-0.8-0.6-1.4-1.4-1.4h-3.6l10.7-10.7c0.3-0.3,0.4-0.6,0.4-1
			c0-0.4-0.1-0.7-0.4-1L19.2,37.1z"/>
		<path class="st0" d="M58,42.8h-3.7c-0.8,0-1.4,0.6-1.4,1.4v3.6L42.1,37.1c-0.5-0.5-1.4-0.5-2,0l-2.6,2.6c-0.3,0.3-0.4,0.6-0.4,1
			s0.1,0.7,0.4,1l10.7,10.7h-3.6c-0.8,0-1.4,0.6-1.4,1.4v3.7c0,0.8,0.6,1.4,1.4,1.4H58c0.8,0,1.4-0.6,1.4-1.4V44.2
			C59.4,43.5,58.8,42.8,58,42.8z"/>
	</g>
</g>
</svg>
