<?xml version="1.0" encoding="utf-8"?>
<!-- Generator: Adobe Illustrator 19.1.0, SVG Export Plug-In . SVG Version: 6.00 Build 0)  -->
<!DOCTYPE svg PUBLIC "-//W3C//DTD SVG 1.1//EN" "http://www.w3.org/Graphics/SVG/1.1/DTD/svg11.dtd">
<svg version="1.1" id="Layer_1" xmlns="http://www.w3.org/2000/svg" xmlns:xlink="http://www.w3.org/1999/xlink" x="0px" y="0px"
	 viewBox="0 0 64.2 74.3" style="enable-background:new 0 0 64.2 74.3;" xml:space="preserve">
<style type="text/css">
	.st0{fill:#3F5CA8;}
	.st1{fill:#DC4437;}
	.st2{fill:#DDA722;}
	.st3{fill:#059C59;}
</style>
<g>
	<path class="st0" d="M50.4,70.1h4.3l-20-47h-0.5h-0.5h-3.3h-0.5h-0.5l-20,47h4.3l3.4-8h13v8h5v-8h12L50.4,70.1z M39.5,44.1h-4.4
		V32.7L39.5,44.1z M30.1,32.7v11.5h-5.4L30.1,32.7z M19.2,57.1l3.4-8h7.5v8H19.2z M35.1,57.1v-8h6.5l3.4,8H35.1z"/>
	<path class="st1" d="M3,23.4C3,14.2,8.1,6.3,15.6,2.2L13.4,0C5.4,4.7,0,13.4,0,23.4c0,7.9,3.4,15,8.8,20l2.1-2.1
		C6.1,36.8,3,30.5,3,23.4z"/>
	<path class="st1" d="M50.7,0l-2.2,2.2c7.5,4.1,12.6,12,12.6,21.2c0,7.1-3.1,13.4-7.9,17.9l2.1,2.1c5.4-5,8.8-12.1,8.8-20
		C64.2,13.4,58.8,4.7,50.7,0z"/>
	<path class="st2" d="M10.3,23.4c0-7.7,4.7-14.3,11.3-17.2l-2.3-2.3c-7.1,3.6-12.1,11-12.1,19.5c0,6.5,2.8,12.3,7.3,16.3l2.1-2.1
		C12.8,34,10.3,29,10.3,23.4z"/>
	<path class="st2" d="M44.8,3.9l-2.3,2.3c6.6,2.9,11.3,9.5,11.3,17.2c0,5.6-2.5,10.7-6.4,14.1l2.1,2.1c4.5-4,7.3-9.8,7.3-16.3
		C56.9,14.9,52,7.5,44.8,3.9z"/>
	<path class="st3" d="M17.2,23.4c0-6.1,4.3-11.3,10.1-12.6l-2.4-2.4c-6.2,2.2-10.6,8.1-10.6,15c0,4.8,2.2,9.1,5.6,12l2.1-2.1
		C19,30.9,17.2,27.4,17.2,23.4z"/>
	<path class="st3" d="M39.3,8.4l-2.4,2.4C42.7,12.1,47,17.2,47,23.4c0,4-1.8,7.6-4.7,9.9l2.1,2.1c3.4-2.9,5.6-7.2,5.6-12
		C50,16.5,45.5,10.6,39.3,8.4z"/>
	<rect x="4" y="69.3" class="st0" width="56.1" height="4.9"/>
	<circle class="st3" cx="32.1" cy="23.4" r="7.2"/>
</g>
</svg>
