<?xml version="1.0" encoding="utf-8"?>
<!-- Generator: Adobe Illustrator 19.1.0, SVG Export Plug-In . SVG Version: 6.00 Build 0)  -->
<svg version="1.1" id="Layer_1" xmlns="http://www.w3.org/2000/svg" xmlns:xlink="http://www.w3.org/1999/xlink" x="0px" y="0px"
	 viewBox="0 0 50 50" enable-background="new 0 0 50 50" xml:space="preserve">
<path opacity="0.2" fill="#FFFFFF" enable-background="new    " d="M25,50c13.807,0,25-11.193,25-25S38.807,0,25,0S0,11.193,0,25
	S11.193,50,25,50z M16.64,28.543l7.94-7.94c0.118-0.118,0.28-0.177,0.427-0.177c0.162,0,0.309,0.059,0.427,0.177l7.94,7.94
	c0.236,0.236,0.236,0.619,0,0.854c-0.236,0.236-0.619,0.236-0.854,0l-7.527-7.527l-7.513,7.527c-0.236,0.236-0.619,0.236-0.854,0
	C16.389,29.161,16.389,28.778,16.64,28.543z"/>
</svg>
