<?xml version="1.0" encoding="utf-8"?>
<!-- Generator: Adobe Illustrator 19.1.0, SVG Export Plug-In . SVG Version: 6.00 Build 0)  -->
<!DOCTYPE svg PUBLIC "-//W3C//DTD SVG 1.1//EN" "http://www.w3.org/Graphics/SVG/1.1/DTD/svg11.dtd">
<svg version="1.1" id="Layer_1" xmlns="http://www.w3.org/2000/svg" xmlns:xlink="http://www.w3.org/1999/xlink" x="0px" y="0px"
	 viewBox="-196 298.5 218.1 196.5" style="enable-background:new -196 298.5 218.1 196.5;" xml:space="preserve">
<style type="text/css">
	.st0{fill:#7DC691;}
	.st1{fill:#E55D5D;}
	.st2{fill:#6B78CE;}
	.st3{fill:#D98E66;}
	.st4{fill:#FFFFFF;}
	.st5{fill:#70C1D4;}
</style>
<path class="st0" d="M-168.3,406v70h41.1l12.9,19v-19h15v-70H-168.3z M-140.8,446.1c0,0.5-0.1,1-0.2,1.5l9.3,4.9
	c1-1,2.4-1.6,3.9-1.6c3,0,5.5,2.5,5.5,5.5c0,3-2.5,5.5-5.5,5.5c-3,0-5.5-2.5-5.5-5.5c0-0.5,0.1-0.9,0.2-1.3l-9.4-5
	c-1,0.9-2.3,1.5-3.8,1.5c-3,0-5.5-2.5-5.5-5.5c0-3,2.5-5.5,5.5-5.5c1.7,0,3.2,0.8,4.2,1.9l9.3-4.9c-0.1-0.3-0.1-0.7-0.1-1
	c0-3,2.5-5.5,5.5-5.5c3,0,5.5,2.5,5.5,5.5c0,3-2.5,5.5-5.5,5.5c-1.7,0-3.1-0.7-4.1-1.9l-9.3,5C-140.8,445.5-140.8,445.8-140.8,446.1
	z"/>
<g>
	<path class="st1" d="M-158,341.4c-21,0-38,17-38,38s17,38,38,38s38-17,38-38S-137,341.4-158,341.4z M-173.3,367.7
		c0-2,1.6-3.6,3.6-3.6h23.4c2,0,3.6,1.6,3.6,3.6v14.7c0,2-1.6,3.6-3.6,3.6h-23.4c-2,0-3.6-1.6-3.6-3.6V367.7z M-139.7,394.8h-18.4
		h-18.4c0,0-1.6-0.9-0.4-2.8l4-4.3c0,0,1.4-0.9,3.1-0.9h10.4h2.8h10.3c1.7,0,3.1,0.9,3.1,0.9l4,4.3
		C-137.9,393.9-139.6,394.8-139.7,394.8z"/>
	<polygon class="st1" points="-160.8,389.5 -161.6,391.1 -161.6,391.9 -154.3,391.9 -154.3,391 -155.3,389.5 	"/>
	<path class="st1" d="M-170.1,383.2h24.2c0.6,0,1-0.4,1-1v-14.3c0-0.6-0.4-1-1-1h-24.2c-0.5,0-1,0.4-1,1v14.3
		C-171.1,382.8-170.7,383.2-170.1,383.2z"/>
</g>
<circle class="st2" cx="-96" cy="403.4" r="38.1"/>
<g>
	
		<rect x="-21.1" y="386.6" transform="matrix(-0.7071 -0.7071 0.7071 -0.7071 -310.823 658.653)" class="st3" width="4.2" height="14.1"/>
	<polygon class="st3" points="-30,403 -28.5,404.6 -23.5,403.4 -28.8,398.1 	"/>
	<path class="st3" d="M8.6,374.7c0-0.4,0-0.8,0-1.2c0-8.6-6.3-15.5-14-15.5c-3.4,0-6.6,1.4-9,3.6c-3.9-6.5-10.5-10.7-18-10.7
		c-9.2,0-17.1,6.4-20.2,15.4c-0.8-0.1-1.5-0.1-2.3-0.1c-12.5,0-22.7,11.3-22.7,25.1c0,13.9,10.1,25.1,22.7,25.1
		c10.1,0,47.4-0.4,57.9-0.4s19.1-9.5,19.1-21.1C22.1,385.4,16.4,377.4,8.6,374.7z M-35.3,407h-10.6v-36h5.7v-1.2
		c0-0.7,0.5-1.2,1.2-1.2h0.3c0.7,0,1.2,0.5,1.2,1.2v1.2h3.5v-1.2c0-0.7,0.5-1.2,1.2-1.2h0.3c0.7,0,1.2,0.5,1.2,1.2v1.2h3.5v-1.2
		c0-0.7,0.5-1.2,1.2-1.2h0.3c0.7,0,1.2,0.5,1.2,1.2v1.2h3.5v-1.2c0-0.7,0.5-1.2,1.2-1.2h0.3c0.7,0,1.2,0.5,1.2,1.2v1.2h1.7l3.7,3.6
		v4.6h-2.4v-3.6l-2.3-2.2h-0.7v1.2c0,0.7-0.5,1.2-1.2,1.2h-0.3c-0.7,0-1.2-0.5-1.2-1.2v-1.2h-3.5v1.2c0,0.7-0.5,1.2-1.2,1.2h-0.3
		c-0.7,0-1.2-0.5-1.2-1.2v-1.2h-3.5v1.2c0,0.7-0.6,1.2-1.2,1.1h-0.3c-0.7,0-1.2-0.5-1.2-1.2v-1.2h-3.5v1.2c0,0.7-0.5,1.2-1.2,1.2
		H-39c-0.7,0-1.2-0.5-1.2-1.2v-1.2h-3.3v31.3h8.8L-35.3,407z M-39.7,384.2v-2.1h18.1v2.1H-39.7z M-30.2,388v2.1h-9.5V388H-30.2z
		 M-34.5,396h-5.2v-2.1h5.2V396z M-8.2,390.3l-13.4,13.4l-0.9,0.9l-9.7,2.4l2.4-9.7l0.3-0.3l14-14c1-1,2.5-0.9,3.4,0l3.8,3.8
		C-7.4,387.7-7.3,389.2-8.2,390.3z"/>
</g>
<g>
	<path class="st4" d="M-96,385.3c-10,0-18.2,8.1-18.2,18.2c0,10,8.1,18.2,18.2,18.2c10,0,18.2-8.1,18.2-18.2S-86,385.3-96,385.3z
		 M-95.7,417c-0.9,0.6-1.8,1.2-2.9,1.6c-0.6,0.2-1.3,0.4-1.9,0.4c-1.3-0.4-2.5-0.9-3.6-1.6c-0.5-1.5-1.9-2.4-2.8-3.6
		c-0.5-0.5-0.6-1-0.5-1.6c0.1-0.9,0.4-1.9-0.3-2.8c-1.1-1.8-2.4-3.5-3.1-5.4c-0.1-2.1-0.2-4,0.5-6c1.2-3.2,5-6.6,7.5-8.7
		c2.3,0.8-1.2,3.2,0.6,4.1c0.2,0,0.3,0,0.5,0.1h0.1c0.8,0.4,0.9,1.5-0.3,1.4c-1.8-0.5-2.4,3.2-0.7,2.8c0.6-1.8,2.5-1,2.9,0.5
		c1,1.6-1.1,1.6-1.8,2.2c0.7,1.3-1.3,0.6-2,1.3c-0.1,0-0.1,0-0.2,0.1c0,0,0.1,0,0.1,0c0.1,0,0,0.2-0.2,0.1c0,0,0,0-0.1-0.1
		c-1.1,0.6-1.7,2.4-2.7,2.4c-0.1-2.3-3.8-1.5-3.2,0.6c0.8,0.6,1.9,1.3,1.7,2.6c-0.1,2.8,3.4,1.9,4.9,3.4c1.9,0.8,3.1,2.5,4.8,3.6
		C-97,413.9-94.3,415.3-95.7,417z M-100.3,394c0.1,0,0.1,0,0.2,0c1.1-0.1,0.9,2.4,0,2.7C-100.9,396-99.8,394.9-100.3,394z
		 M-99.9,401c-0.6-0.4-0.5-0.6-0.2-0.6c0.4-0.1,1.4,0.2,0.5,0.8C-99.3,400.9-99.8,401-99.9,401z M-105.9,407.3
		c-0.3,0.1-0.6-0.1-0.7-0.3c-0.6-0.4-0.6-0.6-0.4-0.7c0.1,0,0.2,0,0.3,0c0.1,0,0.2,0,0.3,0.1C-106,406.5-105.7,406.8-105.9,407.3z
		 M-98.2,391.8c0.1,0,0.2,0,0.2,0c0.1,0,0.1,0,0.2,0c0.4,0,0.3,0.4,0,0.6C-98.7,393.3-99,392-98.2,391.8z M-97.2,397.8
		c-1.7-0.5,0.1-2.4-0.7-3.3c-1.1-1.2,0.1-2.2,1.2-2.4c0.7-0.1,1.4,0.2,1.6,1C-94.6,395-96.5,396.2-97.2,397.8z M-90.5,398.5
		c-0.4-0.4-0.3-0.6-0.1-0.6c0.4,0,1.2,0.3,1.1,0.9C-89.8,399.4-90.8,399.3-90.5,398.5z M-83.6,414c0-0.1,0-0.2,0.1-0.4
		c1.1-1.4,0.9-4.1-1.4-3.8c-1.2,0.9-2.9,2.2-4.3,0.8c-1.5-1.4-0.8-3.6,0-5.2c0.9-1.2,1.1-3.1,2.6-3.7c1.5,0.3,3.3,0.2,3.9-1.6
		c0.5-0.8,0.2-1.1-0.2-1.3H-83c-0.5-0.2-1.1-0.4-1.2-1.1c0.4-0.8-0.5-2.3-0.9-0.9c0.8,0.9,0.9,3.5-0.9,2.5c0.7,1-2.4,0.4-1.8,1.8
		c0.5,1.6-2.7,2.5-1.8,0.5c0.5-1.5-0.2-3.8,1.1-4.7c0,0,0.1-0.2,0.1,0l0.1-0.1c1.2-0.8-1.5-3.2-1.3-1.7c1.1,0.6,0.5,1.8-0.6,1.2
		c-1.2-0.6-1.6-3.8,0-3.5c1.2,0.2,0.1-1.1-0.5-1.7c-0.1,0.3-0.1-0.1-0.1-0.1l-0.1-0.1c0.2-1.9-3-0.2-3.6-1.9c-2-1-4.3-1.1-6.5-0.9
		c0.9-0.3,1.7-0.4,2.6-0.6c0.1,0,0.2,0,0.3,0c0.3,0,0.5-0.1,0.7-0.1c0.5-0.3,1-0.3,1.4-0.3c6.5,0,12,3.8,14.7,9.2c0,0.2,0,0.4,0,0.6
		c0.1,0.1,0.3,0.3,0.5,0.5c0.4,0.9,0.6,1.9,0.8,2.9c-0.1,0.1-0.4,0.2-0.7,0.3c-1.7-1.3,0,1.5,0.9,1c0.1,0.6,0.1,1.2,0.1,1.8
		C-79.7,407.4-81.2,411.1-83.6,414z"/>
	<path class="st4" d="M-103.9,401.8c0.1,0,0.1-0.1,0.2-0.1C-103.7,401.8-103.8,401.8-103.9,401.8
		C-103.9,401.8-103.9,401.8-103.9,401.8z"/>
</g>
<g>
	<path class="st0" d="M-87.7,320.7c-6.8,0-12.3,5.5-12.3,12.3s5.5,12.3,12.3,12.3s12.3-5.5,12.3-12.3S-80.9,320.7-87.7,320.7z
		 M-87.7,342.2c-5.1,0-9.3-4.2-9.3-9.3c0-5.1,4.2-9.3,9.3-9.3c5.2,0,9.3,4.2,9.3,9.3C-78.4,338-82.6,342.2-87.7,342.2z"/>
	<path class="st0" d="M-63.6,314.9c-0.7,0.1-1.2,0.4-1.7,0.8c-1.2,1.1-1.2,3-0.1,4.1c0.6,0.7,1.5,1,2.4,0.9c0.7-0.1,1.2-0.4,1.7-0.8
		c1.1-1.1,1.2-2.9,0.1-4.2C-61.8,315.1-62.7,314.8-63.6,314.9z"/>
	<path class="st0" d="M-114,298.5v64h15V380l11.8-17.5H-47v-64H-114z M-69.1,331.1l-0.1,5.3c0,0.4-0.3,0.7-0.7,0.7h-3
		c-0.5,1.7-1.2,3.4-2.3,4.9l2,2c0.1,0.1,0.2,0.3,0.2,0.5s-0.1,0.4-0.2,0.5l-3.8,3.7c-0.3,0.3-0.7,0.3-1,0l-2.1-2.1
		c-1.6,0.9-3.3,1.6-5.1,1.9v2.8c0,0.4-0.3,0.7-0.6,0.7h-0.1l-5.3-0.1c-0.4,0-0.7-0.3-0.7-0.7v-2.9c-1.7-0.5-3.5-1.3-5-2.3l-1.9,1.9
		c-0.3,0.3-0.7,0.3-1,0l-3.7-3.8c-0.3-0.3-0.3-0.7,0-1l2-1.9c-1-1.7-1.6-3.4-2-5.3h-2.6c-0.4,0-0.7-0.3-0.7-0.7l0.1-5.3
		c0-0.2,0.1-0.4,0.2-0.5c0.1-0.1,0.3-0.2,0.5-0.2h2.7c0.5-1.9,1.3-3.6,2.4-5.2l-1.7-1.8c-0.1-0.1-0.2-0.3-0.2-0.5s0.1-0.4,0.2-0.5
		l3.8-3.7c0.3-0.3,0.7-0.3,1,0l1.8,1.9c1.7-1,3.5-1.7,5.4-2v-2.5c0-0.2,0.1-0.4,0.2-0.5c0.1-0.1,0.3-0.2,0.5-0.2l5.3,0.1
		c0.2,0,0.4,0.1,0.5,0.2c0.1,0.1,0.2,0.3,0.2,0.5v2.7c1.8,0.5,3.6,1.3,5.1,2.4l1.9-1.8c0.1-0.1,0.3-0.2,0.5-0.2
		c0.2,0,0.4,0.1,0.5,0.2l3.7,3.8c0.1,0.1,0.2,0.3,0.2,0.5c0,0.2-0.1,0.4-0.2,0.5l-2.1,2c1,1.6,1.6,3.3,1.9,5.2h2.8
		C-69.2,330.3-68.9,330.7-69.1,331.1z M-55.2,319.1c0,0.2-0.1,0.3-0.3,0.3h-1.3c-0.2,0.7-0.5,1.5-1,2.1l0.8,0.9
		c0.1,0,0.1,0.1,0.1,0.2c0,0.1,0,0.1-0.1,0.2l-1.6,1.6c-0.1,0.1-0.3,0.1-0.4,0l-0.9-0.9c-0.7,0.4-1.4,0.7-2.2,0.8v1.2
		c0,0.2-0.2,0.3-0.3,0.3h-2.2c-0.2,0-0.3-0.1-0.3-0.3v-1.2c-0.8-0.2-1.5-0.6-2.2-1l-0.8,0.8c-0.1,0.1-0.3,0.1-0.4,0l-1.6-1.6
		c-0.1-0.1-0.1-0.3,0-0.4l0.9-0.8c-0.5-0.6-0.7-1.4-0.9-2.2H-71c-0.2,0-0.3-0.1-0.3-0.3v-2.2c0-0.1,0-0.1,0.1-0.2
		c0-0.1,0.1-0.1,0.2-0.1h1.1c0.2-0.8,0.5-1.5,1-2.2l-0.7-0.8c-0.1,0-0.1-0.1-0.1-0.2c0-0.1,0-0.1,0.1-0.2l1.6-1.6
		c0.1-0.1,0.3-0.1,0.4,0l0.8,0.8c0.7-0.4,1.5-0.7,2.3-0.8v-1.1c0-0.1,0-0.1,0.1-0.2c0-0.1,0.1-0.1,0.2-0.1h2.3c0.1,0,0.1,0,0.2,0.1
		c0.1,0,0.1,0.1,0.1,0.2v1.2c0.8,0.2,1.5,0.5,2.2,1l0.8-0.8c0-0.1,0.1-0.1,0.2-0.1c0.1,0,0.1,0,0.2,0.1l1.6,1.6
		c0.1,0,0.1,0.1,0.1,0.2c0,0.1,0,0.1-0.1,0.2l-0.9,0.9c0.4,0.7,0.7,1.4,0.8,2.2h1.2c0.2,0,0.3,0.2,0.3,0.1V319.1z"/>
	<path class="st0" d="M-63.3,312.5c-2.9,0-5.3,2.4-5.3,5.3c0,2.9,2.4,5.3,5.3,5.3s5.3-2.4,5.3-5.3C-58,314.9-60.4,312.5-63.3,312.5z
		 M-63.3,321.9c-2.2,0-4-1.8-4-4c0-2.2,1.8-4,4-4s4,1.8,4,4C-59.3,320.1-61.1,321.9-63.3,321.9z"/>
	<path class="st0" d="M-88.7,326.3c-1.5,0.2-2.8,0.9-3.9,1.9c-2.6,2.6-2.7,6.8-0.1,9.5c1.5,1.5,3.6,2.3,5.7,2
		c1.5-0.2,2.8-0.9,3.9-1.9c2.7-2.6,2.7-6.9,0.1-9.5C-84.5,326.8-86.6,326-88.7,326.3z"/>
</g>
<path class="st5" d="M-53,418.8c-21,0-38.1,17.1-38.1,38.1S-74,495-53,495s38.1-17.1,38.1-38.1S-32,418.8-53,418.8z M-50.1,446
	c0-2.2,3-4,6.7-4c3.7,0,6.7,1.8,6.7,3.9c0,2.2-3,4-6.7,4c-0.7,0-1.4-0.1-2.1-0.2l-4.6,2.3l2.9-2.7C-48.9,448.6-50.1,447.4-50.1,446z
	 M-38.1,455.5c0,2.1-1.6,3.8-3.7,3.8s-3.7-1.7-3.8-3.8c0-2.1,1.6-3.8,3.7-3.8c1.2,0,2.2,0.6,2.9,1.5c0.1,0,0.1,0,0.1,0
	c0.1,0,0.1,0.1,0.1,0.1C-38.3,453.9-38.1,454.7-38.1,455.5z M-48.3,457.2c0,2.7-2.1,4.8-4.7,4.8c-2.6,0-4.7-2.2-4.7-4.9
	c0-2.7,2.1-4.8,4.7-4.8c1.5,0,2.8,0.8,3.7,1.9c0.1,0.1,0.1,0.1,0.1,0.1c0.1,0.1,0.1,0.1,0.1,0.2C-48.6,455.3-48.3,456.2-48.3,457.2z
	 M-57.9,442c3.7,0,6.7,1.8,6.6,4c0,2.2-3,4-6.7,4c-0.7,0-1.4-0.1-2.1-0.2l-3.3,1.1l1.7-1.6c-1.7-0.7-2.9-1.9-2.9-3.3
	C-64.6,443.8-61.6,442-57.9,442z M-67.3,453.3L-67.3,453.3c0.2-0.1,0.2-0.1,0.2-0.1c0.6-0.9,1.7-1.5,2.9-1.5c2,0,3.7,1.7,3.7,3.8
	c0,2.1-1.7,3.8-3.8,3.8c-2,0-3.7-1.7-3.7-3.8C-68,454.7-67.7,453.9-67.3,453.3z M-70.6,467.6c0-1,0-0.8,0-0.9
	c0.1-3.3,1.5-6.5,3.7-7.7c0.1,0,0.1,0,0.1,0c0.6,0.7,1.6,1.1,2.6,1.1s1.9-0.4,2.6-1.1h0.1c1.1,0.6,2,2.3,2.6,3.5
	c-1.3,1.1-2.3,2.1-3,5.1H-70.6z M-45.3,471.5h-4.9h-6h-4.9c0,0,0-0.6,0-0.7c0.1-1.9,0.5-3.8,1.2-5.3c0,0,0.4-0.7,0.6-1.1
	c0.2-0.3,1-1.3,1.1-1.4c0.5-0.6,1-1,1.6-1.3c0-0.1,0.1-0.1,0.1-0.1c0-0.1,0.1-0.1,0.1-0.1h0.1c0.8,0.8,1.9,1.4,3.2,1.4
	c1.2,0,2.4-0.5,3.2-1.4c0.1,0,0.1,0,0.1,0c0,0.1,0.1,0.1,0.1,0.1c0,0.1,0.1,0.1,0.1,0.1c0.6,0.3,1.1,0.8,1.6,1.3
	c0.1,0.1,0.9,1.1,1.1,1.4c0.3,0.3,0.7,1.2,0.4,1.2c0.7,1.5,1.1,3.3,1.2,5.2C-45.3,470.9-45.3,471.5-45.3,471.5z M-35.4,467.6h-8.7
	c-0.7-3-1.7-4-3-5.1c0.6-1.2,1.5-2.9,2.6-3.5h0.1c0.7,0.7,1.6,1.1,2.6,1.1s2-0.4,2.6-1.1c0,0,0,0,0.1,0c2.2,1.2,3.6,4.4,3.7,7.7
	C-35.4,466.8-35.4,466.6-35.4,467.6z"/>
</svg>
