<?xml version="1.0" encoding="UTF-8" standalone="no"?>
<svg width="21px" height="20px" viewBox="0 0 21 20" version="1.1" xmlns="http://www.w3.org/2000/svg" xmlns:xlink="http://www.w3.org/1999/xlink">
    <!-- Generator: Sketch 41 (35326) - http://www.bohemiancoding.com/sketch -->
    <title>progress-report</title>
    <desc>Created with Sketch.</desc>
    <defs></defs>
    <g id="Page-1" stroke="none" stroke-width="1" fill="none" fill-rule="evenodd">
        <g id="PWA" transform="translate(-902.000000, -254.000000)" fill="#F7BB4E">
            <g id="tab" transform="translate(175.000000, 238.000000)">
                <g id="progress-report" transform="translate(727.404700, 16.640000)">
                    <g id="Capa_1">
                        <g id="Group">
                            <path d="M5.12570836,14.6007542 C4.95002917,14.7799475 4.80801538,15.1301017 4.80801538,15.3831036 L4.80801538,18.6785002 L6.68360352,18.6785002 L6.68360352,13.4699986 C6.68360352,13.2169966 6.54158972,13.1564949 6.36591054,13.3356882 L5.12570836,14.6007542 Z" id="Shape"></path>
                            <path d="M13.3640008,11.478574 C13.1887639,11.6577672 13.0463078,12.0079778 13.0463078,12.2614308 L13.0463078,18.6790077 L14.921896,18.6790077 L14.921896,10.346014 C14.921896,10.093012 14.7798822,10.0329614 14.604203,10.2121547 L13.3640008,11.478574 Z" id="Shape"></path>
                            <path d="M16.1095271,8.67401349 C15.9338479,8.85275566 15.7913918,9.20290988 15.7913918,9.45591181 L15.7913918,18.6785002 L17.5353035,18.6785002 L17.5353035,7.68038747 C17.5353035,7.42738554 17.3928475,7.36688386 17.2171683,7.54607711 L16.1095271,8.67401349 Z" id="Shape"></path>
                            <path d="M10.6733121,14.2226328 C10.6733121,14.2226328 10.5897291,14.3083388 10.4864111,14.4137798 C10.3835354,14.5192207 10.2999524,14.8102265 10.2999524,15.0632284 L10.2999524,18.6785566 L12.1755405,18.6785566 L12.1755405,13.1501234 C12.1755405,12.8971214 12.0330845,12.8366198 11.8574053,13.015813 L10.6733121,14.2226328 Z" id="Shape"></path>
                            <path d="M7.87211909,13.2504896 C7.6964399,13.0717475 7.55398388,13.1317981 7.55398388,13.3848 L7.55398388,18.6785566 L9.42957201,18.6785566 L9.42957201,15.2937325 C9.42957201,15.0407306 9.29474459,14.6983576 9.12807601,14.5292573 L8.82658002,14.2230839 L7.87211909,13.2504896 Z" id="Shape"></path>
                            <path d="M2.76526114,17.0097701 L2.15956044,17.6285451 C1.98432349,17.8077383 1.8423097,18.1153214 1.8423097,18.316054 L1.8423097,18.6790641 L3.93581079,18.6790641 L3.93581079,16.2723036 C3.93581079,16.0193017 3.79379699,15.9592511 3.61811781,16.1384443 L2.76526114,17.0097701 Z" id="Shape"></path>
                            <path d="M19.7968552,7.59648578 C19.9720921,7.77567904 20.1145481,7.71517735 20.1145481,7.46217542 L20.1145481,0.913051084 C20.1145481,0.444148916 19.6741893,0.033493012 19.2171913,0.033493012 L12.833757,0.033493012 C12.5857166,0.033493012 12.5264014,0.178798554 12.7020805,0.357991807 L14.9726428,2.6757759 L14.0465404,3.61628675 L9.75124513,8.0016159 L7.47935615,5.68479036 C7.30367697,5.50559711 7.01964938,5.50604819 6.8439702,5.68479036 L0.526208361,12.1335484 C-0.175679186,12.8499267 -0.175236948,14.0109051 0.526650599,14.7267759 L0.570708595,14.7721663 C1.27259614,15.4880935 2.4108071,15.4880935 3.11219713,14.7717152 L7.16127622,10.639388 L9.4331652,12.9544092 C9.60884438,13.1331513 9.89331421,13.1331513 10.0689934,12.9544092 L17.5582446,5.31399904 L19.7968552,7.59648578 Z" id="Shape"></path>
                        </g>
                    </g>
                </g>
            </g>
        </g>
    </g>
</svg>