<?xml version="1.0" encoding="utf-8"?>
<!-- Generator: Adobe Illustrator 19.1.0, SVG Export Plug-In . SVG Version: 6.00 Build 0)  -->
<svg version="1.1" id="Layer_1" xmlns="http://www.w3.org/2000/svg" xmlns:xlink="http://www.w3.org/1999/xlink" x="0px" y="0px"
	 viewBox="0 0 640.444 560" enable-background="new 0 0 640.444 560" xml:space="preserve">
<g id="Capa_1_86_">
</g>
<g>
	<path fill="#4474DF" d="M271.911,430.665H39.601V99.003h468.616v94.229c13.2,1.498,28.051-2.944,37.951-12.027V39.572
		C546.169,18.005,529.328,0,507.814,0H39.252C17.685,0,0,18.005,0,39.572v390.537c0,21.549,17.685,38.507,39.252,38.507h217.635
		C267.583,458.716,272.923,443.865,271.911,430.665z M127.113,29.861c10.757,0,19.529,8.701,19.529,19.546
		c0,10.757-8.754,19.458-19.529,19.458c-10.827,0-19.564-8.683-19.564-19.458C107.566,38.579,116.285,29.861,127.113,29.861z
		 M68.509,29.861c10.774,0,19.529,8.701,19.529,19.546c0,10.757-8.737,19.458-19.529,19.458c-10.792,0-19.546-8.683-19.546-19.458
		C48.981,38.579,57.717,29.861,68.509,29.861z"/>
	<g id="Settings_1_">
		<g>
			<g>
				<path fill="#DEA721" d="M639.202,339.351c-0.628-5.583-7.138-9.779-12.767-9.779c-18.2,0-34.35-10.686-41.123-27.213
					c-6.919-16.927-2.458-36.668,11.106-49.11c4.27-3.903,4.788-10.437,1.207-14.975c-9.315-11.829-19.902-22.514-31.462-31.774
					c-4.527-3.633-11.168-3.127-15.093,1.219c-11.838,13.11-33.101,17.982-49.532,11.127c-17.099-7.193-27.881-24.519-26.826-43.118
					c0.347-5.842-3.922-10.921-9.746-11.6c-14.835-1.716-29.799-1.769-44.678-0.118c-5.758,0.635-10.027,5.595-9.834,11.363
					c0.647,18.416-10.265,35.439-27.194,42.373c-16.234,6.631-37.348,1.8-49.162-11.193c-3.904-4.28-10.438-4.806-14.987-1.261
					c-11.903,9.339-22.728,20.032-32.129,31.763c-3.667,4.561-3.127,11.171,1.185,15.095c13.822,12.517,18.285,32.43,11.105,49.552
					c-6.856,16.324-23.807,26.845-43.212,26.845c-6.297-0.202-10.782,4.024-11.471,9.749c-1.747,14.92-1.768,30.123-0.086,45.165
					c0.624,5.607,7.332,9.766,13.023,9.766c17.294-0.442,33.897,10.265,40.863,27.215c6.943,16.927,2.48,36.657-11.105,49.109
					c-4.249,3.903-4.788,10.426-1.207,14.965c9.228,11.753,19.817,22.449,31.418,31.786c4.55,3.667,11.171,3.149,15.115-1.197
					c11.882-13.143,33.144-18.006,49.509-11.137c17.142,7.171,27.924,24.495,26.869,43.104c-0.344,5.845,3.946,10.933,9.746,11.601
					c7.589,0.885,15.223,1.327,22.879,1.327c7.267,0,14.535-0.399,21.801-1.207c5.759-0.635,10.026-5.595,9.832-11.374
					c-0.667-18.405,10.265-35.429,27.172-42.351c16.344-6.675,37.369-1.79,49.184,11.19c3.927,4.271,10.414,4.787,14.988,1.253
					c11.88-9.316,22.684-20.001,32.128-31.765c3.665-4.55,3.148-11.171-1.187-15.093c-13.822-12.517-18.308-32.433-11.127-49.543
					c6.751-16.107,23.072-26.922,40.628-26.922l2.456,0.064c5.694,0.463,10.933-3.924,11.623-9.736
					C640.863,369.582,640.883,354.392,639.202,339.351z M442.167,428.066c-36.53,0-66.243-29.714-66.243-66.243
					c0-36.528,29.714-66.243,66.243-66.243c36.528,0,66.242,29.715,66.242,66.243C508.409,398.353,478.695,428.066,442.167,428.066z
					"/>
			</g>
		</g>
	</g>
</g>
</svg>
