<?xml version="1.0" encoding="utf-8"?>
<!-- Generator: Adobe Illustrator 19.1.0, SVG Export Plug-In . SVG Version: 6.00 Build 0)  -->
<svg version="1.1" id="Layer_1" xmlns="http://www.w3.org/2000/svg" xmlns:xlink="http://www.w3.org/1999/xlink" x="0px" y="0px"
	 viewBox="0 0 640.444 560" enable-background="new 0 0 640.444 560" xml:space="preserve">
<g id="Capa_1_86_">
</g>
<g>
	<g>
		<path fill="#007033" d="M453.683,560c1.509-4.959,3.162-10.125,4.267-12.787c26.268-63.404,23.288-130.392,22.124-151.852
			c-0.807-14.485-2.226-26.717-10.314-36.426c-11.947-14.253-30.271-18.69-38.098-19.995c-4.972-12.493-12.572-20.708-22.612-24.473
			c-3.924-1.474-8.205-2.219-12.695-2.219c-7.549,0-14.335,2.07-18.896,3.917c-6.031-10.949-14.081-17.738-23.946-20.211
			c-2.707-0.686-5.573-1.032-8.511-1.032c-9.395,0-17.991,3.543-23.834,6.715c-1.519-10.115-6.816-91.891-9.953-136.727
			c-1.001-14.356-12.942-25.519-27.339-25.519h-0.02c-15.379,0-27.859,12.429-27.922,27.801
			c-0.471,97.201-2.996,193.206-3.589,207.75c-9.442,4.294-25.888,10.027-33.205,19.949c-16.735,22.696-9.455,40.486-1.157,54.373
			c18.73,31.389,51.346,87.492,65.238,110.734H453.683L453.683,560z"/>
	</g>
</g>
<path fill="#D63C33" d="M246.474,268.169c0.144-7.806,0.286-15.881,0.423-24.178c-40.722-15.821-69.665-55.43-69.665-101.676
	c0-60.121,48.912-109.034,109.034-109.034c60.122,0,109.034,48.913,109.034,109.034c0,46.589-29.375,86.44-70.573,102.022
	c0.647,8.917,1.25,16.965,1.784,23.685c53.158-17.058,91.745-66.957,91.745-125.707c0-72.78-59.211-131.99-131.99-131.99
	s-131.989,59.21-131.989,131.99C154.275,201.232,193.081,251.251,246.474,268.169z"/>
<path fill="#D63C33" d="M285.606,52.018c-49.713,0-90.158,40.445-90.158,90.159c0,36.513,21.821,68.022,53.105,82.182l0.728-17.193
	c-22.744-12.762-38.153-37.105-38.153-64.989c0-41.067,33.41-74.478,74.478-74.478c41.068,0,74.478,33.411,74.478,74.478
	c0,28.027-15.567,52.478-38.505,65.185l1.638,16.737c30.985-14.281,52.547-45.628,52.547-81.923
	C375.765,92.463,335.32,52.018,285.606,52.018z"/>
</svg>
