<?xml version="1.0" encoding="utf-8"?>
<!-- Generator: Adobe Illustrator 19.1.0, SVG Export Plug-In . SVG Version: 6.00 Build 0)  -->
<svg version="1.1" id="Layer_1" xmlns="http://www.w3.org/2000/svg" xmlns:xlink="http://www.w3.org/1999/xlink" x="0px" y="0px"
	 viewBox="0 0 640.444 560" enable-background="new 0 0 640.444 560" xml:space="preserve">
<g id="Capa_1_86_">
</g>
<path fill="#4474DF" d="M302.64,141.193c-86.634,0-156.865,70.23-156.865,156.865s70.231,156.865,156.865,156.865
	s156.865-70.23,156.865-156.865S389.274,141.193,302.64,141.193z M241.925,177.938c-2.81,3.892-5.501,8.071-8.05,12.549
	c-3.894,6.84-7.369,14.203-10.413,21.985c-6.487-1.786-12.943-3.791-19.358-6.02C214.884,194.863,227.677,185.169,241.925,177.938z
	 M187.846,227.826c9.201,3.453,18.483,6.481,27.826,9.084c-3.845,15.231-6.23,31.519-7.035,48.336h-39.996
	C170.623,264.358,177.394,244.846,187.846,227.826z M187.846,368.29c-10.453-17.021-17.224-36.533-19.205-57.421h39.996
	c0.806,16.817,3.19,33.105,7.035,48.336C206.328,361.809,197.047,364.836,187.846,368.29z M204.103,389.663
	c6.415-2.228,12.871-4.235,19.357-6.02c3.046,7.782,6.52,15.145,10.414,21.985c2.548,4.477,5.24,8.657,8.05,12.549
	C227.677,410.946,214.884,401.253,204.103,389.663z M289.829,426.019c-16.405-6.152-30.937-23.806-41.066-48.181
	c13.62-2.514,27.332-4.07,41.066-4.666V426.019z M289.829,347.493c-16.449,0.658-32.871,2.591-49.165,5.785
	c-3.346-13.157-5.557-27.455-6.367-42.41h55.532V347.493z M289.829,285.246h-55.532c0.81-14.954,3.021-29.253,6.367-42.41
	c16.293,3.194,32.716,5.127,49.165,5.785V285.246z M289.829,222.942c-13.734-0.596-27.446-2.152-41.066-4.666
	c10.129-24.375,24.662-42.028,41.066-48.181V222.942z M417.435,227.828c10.452,17.019,17.222,36.531,19.203,57.418h-39.996
	c-0.805-16.815-3.19-33.103-7.034-48.333C398.953,234.309,408.235,231.283,417.435,227.828z M401.179,206.455
	c-6.415,2.228-12.871,4.235-19.359,6.02c-3.046-7.784-6.52-15.148-10.415-21.989c-2.549-4.477-5.24-8.657-8.049-12.549
	C377.604,185.17,390.397,194.865,401.179,206.455z M315.451,170.096c16.405,6.152,30.938,23.807,41.067,48.184
	c-13.62,2.513-27.332,4.068-41.067,4.663V170.096z M315.451,248.623c16.451-0.657,32.873-2.589,49.165-5.782
	c3.346,13.156,5.556,27.454,6.366,42.407h-55.532V248.623L315.451,248.623z M315.451,310.869h55.532
	c-0.81,14.953-3.02,29.251-6.366,42.407c-16.292-3.194-32.715-5.125-49.165-5.783V310.869L315.451,310.869z M315.451,426.019
	v-52.847c13.736,0.596,27.448,2.15,41.067,4.664C346.389,402.212,331.856,419.867,315.451,426.019z M363.356,418.177
	c2.81-3.892,5.501-8.071,8.049-12.549c3.895-6.841,7.369-14.206,10.415-21.988c6.487,1.786,12.943,3.792,19.359,6.02
	C390.397,401.251,377.604,410.946,363.356,418.177z M417.435,368.288c-9.2-3.456-18.483-6.482-27.826-9.087
	c3.844-15.23,6.228-31.517,7.034-48.332h39.996C434.657,331.756,427.887,351.268,417.435,368.288z"/>
<g>
	<g>
		<path fill="#DB5F2A" d="M303.023,515.848c-120.138,0-217.88-97.742-217.88-217.88c0-113.761,87.645-207.421,198.951-217.05v34.731
			c0,2.467,1.362,4.735,3.538,5.894c0.986,0.526,2.065,0.784,3.14,0.784c1.302,0,2.603-0.381,3.723-1.136l78.862-52.984
			c1.847-1.24,2.955-3.319,2.955-5.544c0-2.224-1.107-4.304-2.955-5.544L294.495,4.135c-2.047-1.376-4.687-1.514-6.865-0.35
			c-2.176,1.16-3.538,3.428-3.538,5.894v26.941C148.412,46.354,40.988,159.845,40.988,297.966
			C40.988,442.453,158.539,560,303.022,560c66.894,0,130.578-25.205,179.32-70.969l-30.22-32.19
			C411.595,494.893,358.646,515.848,303.023,515.848z"/>
	</g>
	<g>
		<path fill="#DB5F2A" d="M526.698,161.404c-9.027-14.763-19.583-28.703-31.365-41.427l-32.398,29.998
			c9.806,10.588,18.583,22.186,26.097,34.466L526.698,161.404z"/>
	</g>
	<g>
		<path fill="#DB5F2A" d="M518.917,268.378l43.753-5.94c-2.335-17.202-6.402-34.215-12.091-50.568l-41.702,14.502
			C513.599,239.952,516.976,254.085,518.917,268.378z"/>
	</g>
	<g>
		<path fill="#DB5F2A" d="M453.31,83.288c-14.209-9.966-29.456-18.537-45.319-25.48l-17.7,40.45
			c13.182,5.77,25.856,12.895,37.667,21.178L453.31,83.288z"/>
	</g>
	<g>
		<path fill="#DB5F2A" d="M471.34,436.329l34.092,28.059c11.028-13.4,20.752-27.935,28.899-43.203l-38.952-20.789
			C488.604,413.09,480.517,425.181,471.34,436.329z"/>
	</g>
	<g>
		<path fill="#DB5F2A" d="M520.262,314.817c-1.099,14.406-3.64,28.725-7.547,42.552l42.488,12.013
			c4.708-16.648,7.764-33.875,9.089-51.201L520.262,314.817z"/>
	</g>
</g>
</svg>
