<?xml version="1.0" encoding="UTF-8"?>
<svg width="71px" height="62px" viewBox="0 0 71 62" version="1.1" xmlns="http://www.w3.org/2000/svg" xmlns:xlink="http://www.w3.org/1999/xlink">
    <!-- Generator: Sketch 47.1 (45422) - http://www.bohemiancoding.com/sketch -->
    <title>Group 37</title>
    <desc>Created with Sketch.</desc>
    <defs></defs>
    <g id="desktop" stroke="none" stroke-width="1" fill="none" fill-rule="evenodd">
        <g id="angular_js" transform="translate(-723.000000, -2123.000000)">
            <g id="Group-38" transform="translate(723.000000, 2118.000000)">
                <g id="Group-37" transform="translate(0.000000, 5.000000)">
                    <g id="multiple-users-silhouette">
                        <g id="Group-28">
                            <path d="M43.5561591,11.2417374 L43.317514,11.0921091 L43.3218232,10.8104683 C43.4068214,5.25523137 47.9313689,0.78831796 53.4916471,0.786588235 C59.1133188,0.786588235 63.6697647,5.3430341 63.6697647,10.9647059 C63.6697647,16.5856881 59.1131849,21.142 53.4916471,21.142 C51.9942612,21.142 50.5393471,20.8095358 49.1903439,20.1792272 L48.9338551,20.0593854 L48.9046649,19.777789 C48.5391574,16.2517624 46.5464092,13.1165959 43.5561591,11.2417374 Z M37.4814118,31.1338824 C31.8601317,31.1338824 27.3016471,26.5770049 27.3016471,20.9565882 C27.3016471,15.3360277 31.8602757,10.7784706 37.4814118,10.7784706 C43.102404,10.7784706 47.6595294,15.3350604 47.6595294,20.9557647 C47.6595294,26.5768908 43.1028057,31.1338824 37.4814118,31.1338824 Z M53.4869954,54.5031524 C53.2427583,54.6274351 52.8351208,54.8106063 52.2869421,55.0246867 C51.4364574,55.3568266 50.4482739,55.6830975 49.3272262,55.9836107 C46.2011646,56.8215972 42.5962099,57.3196471 38.5487059,57.3196471 C33.2549762,57.3196471 27.57825,56.4632999 21.5507214,54.5799826 L20.5642804,54.2711326 L20.5148112,53.9663389 L20.4828235,53.7289412 L20.4828235,43.686 C20.4828235,36.5768876 26.2656511,30.7935294 33.3744706,30.7935294 L41.5867059,30.7935294 C48.6959534,30.7935294 54.4784527,36.5773553 54.4758824,43.686 L54.4758824,54.2305882 L54.0259476,54.2305882 L53.4869954,54.5031524 Z M69.4978533,44.5142665 C68.7535831,44.8874046 67.5377858,45.3708817 65.8191396,45.8593078 C63.0633902,46.6424706 59.8822074,47.1642033 56.3041915,47.2953117 L55.7858824,47.314304 L55.7858824,43.7008235 C55.7858824,37.3842485 51.5997543,31.8658041 45.6260773,30.0894958 L44.8020929,29.8444792 L45.4224685,29.2494014 C47.5889473,27.1712675 48.8675581,24.3373596 48.9499472,21.288962 L48.9630956,20.8024706 L57.5985882,20.8024706 C64.7067306,20.8024706 70.4894118,26.5851517 70.4894118,33.6932941 L70.4894118,44.2395294 L70.0397436,44.2395294 L69.4978533,44.5142665 Z M20.4994118,21.1436471 C14.87774,21.1436471 10.3212941,16.5872012 10.3212941,10.9671765 C10.3212941,5.34522681 14.8771943,0.789058824 20.4994118,0.789058824 C26.1191586,0.789058824 30.6758824,5.34605039 30.6758824,10.9671765 C30.6758824,11.0844252 30.6711551,11.1819254 30.6590297,11.3632556 C30.6524404,11.4616428 30.6524404,11.4616428 30.6479637,11.5379381 L30.6355465,11.7655871 L30.4555337,11.9054928 C28.141557,13.7039119 26.5871664,16.3134015 26.1406959,19.2255363 L26.1061328,19.4509768 L25.91323,19.5726588 C24.2960772,20.5927502 22.4363293,21.1436471 20.4994118,21.1436471 Z M29.5370235,29.2493655 L30.15741,29.8443301 L29.333536,30.0894708 C23.3585893,31.8672949 19.173564,37.3838249 19.172,43.7008235 L19.172,47.2639814 L18.6428054,47.2330293 C14.1663962,46.9712085 9.48129392,46.1219896 4.56686428,44.5877754 L3.58216604,44.2771265 L3.53219134,43.9740542 L3.5,43.7378824 L3.5,33.6932941 C3.5,26.5850191 9.28281381,20.8024706 16.3916471,20.8024706 L24.6030588,20.8024706 C24.8153036,20.8024706 25.0212716,20.8120421 25.306165,20.8321768 C25.3989654,20.8388426 25.3989654,20.8388426 25.4906813,20.8456348 C25.5101266,20.8470737 25.6792079,20.8595184 25.9979252,20.8829689 L26.0119912,21.3329669 C26.106792,24.3658214 27.3835021,27.1840898 29.5370235,29.2493655 Z" id="Shape" fill="#FFEFF0" fill-rule="nonzero"></path>
                            <path d="M34.4814118,35.6338824 C28.5840288,35.6338824 23.8016471,30.8531867 23.8016471,24.9565882 C23.8016471,19.059859 28.5841596,14.2784706 34.4814118,14.2784706 C40.3785332,14.2784706 45.1595294,19.0589048 45.1595294,24.9557647 C45.1595294,30.8530266 40.3789547,35.6338824 34.4814118,35.6338824 Z M34.4814118,33.6338824 C39.2743589,33.6338824 43.1595294,29.7484834 43.1595294,24.9557647 C43.1595294,20.163527 39.2740163,16.2784706 34.4814118,16.2784706 C29.6886239,16.2784706 25.8016471,20.1645338 25.8016471,24.9565882 C25.8016471,29.7484593 29.6884404,33.6338824 34.4814118,33.6338824 Z M50.7137554,58.9487754 C50.4550165,59.0804375 50.0324125,59.2703339 49.4688291,59.4904303 C48.6014684,59.8291608 47.5958119,60.1612009 46.4566878,60.4665597 C43.2893797,61.3156029 39.6410372,61.8196471 35.5487059,61.8196471 C30.2046889,61.8196471 24.4776782,60.9557144 18.4013252,59.0571416 L17.1202078,58.6560299 L16.9957401,57.8891484 L16.9828235,57.7289412 L16.9828235,47.686 C16.9828235,40.3007555 22.9894985,34.2935294 30.3744706,34.2935294 L38.5867059,34.2935294 C45.9721516,34.2935294 51.9785525,40.3013083 51.9758824,47.686 L51.9758824,58.7305882 L51.1451881,58.7305882 L50.7137554,58.9487754 Z M35.5487059,59.8196471 C39.4617278,59.8196471 42.9365192,59.3395802 45.9388417,58.5347638 C47.782887,58.0404405 49.0986044,57.5266132 49.808934,57.1651578 L49.9758824,57.0807266 L49.9758824,47.6856384 C49.9781532,41.4054962 44.8673589,36.2935294 38.5867059,36.2935294 L30.3744706,36.2935294 C24.0941091,36.2935294 18.9828235,41.4052839 18.9828235,47.686 L18.9828235,57.143469 C24.8799653,58.9860565 30.4058382,59.8196471 35.5487059,59.8196471 Z M16.672,51.7940804 L15.6136108,51.7321762 C11.0967234,51.4679879 6.37138241,50.6114754 1.41643444,49.0646096 L0.138802659,48.6615472 L0.0133238541,47.900579 L0,47.7378824 L0,37.6932941 C0,30.3088716 6.00667657,24.3024706 13.3916471,24.3024706 L15.6030588,24.3024706 C15.8293725,24.3024706 16.0457876,24.3125275 16.3414144,24.3334209 C16.4356362,24.3401889 16.4356362,24.3401889 16.5275866,24.3469986 C16.5469987,24.3484351 16.5326661,24.8964957 16.4845886,25.9911804 C16.3346778,25.9800914 16.3063711,25.9975397 16.2178345,25.9911804 C15.9651414,25.9733214 15.7836491,25.9911804 15.6136108,25.9911804 L13.3502808,25.9911804 C7.06985923,25.9911804 2,31.4134616 2,37.6932941 L2,47.1515503 C6.42403208,48.5327178 12.6372531,49.4766138 16.672,49.7963177 L16.672,51.7940804 Z" id="Shape" fill="#859DBA" fill-rule="nonzero"></path>
                            <path d="M27,15.5 C27,9.70101013 22.2989899,5 16.5,5 C10.7010101,5 6,9.70101013 6,15.5 C6,21.2989899 10.7010101,26 16.5,26 C18.7822918,26 20.9566768,25.268823 22.7515784,23.936845 C23.1950845,23.6077238 23.2878116,22.9813855 22.9586904,22.5378795 C22.6295691,22.0943734 22.0032309,22.0016462 21.5597248,22.3307675 C20.1066684,23.4090656 18.3493391,24 16.5,24 C11.8055796,24 8,20.1944204 8,15.5 C8,10.8055796 11.8055796,7 16.5,7 C21.1944204,7 25,10.8055796 25,15.5 C25,16.0522847 25.4477153,16.5 26,16.5 C26.5522847,16.5 27,16.0522847 27,15.5 Z" id="Oval-3" fill="#859DBA" fill-rule="nonzero"></path>
                            <path d="M68.672,52.4916098 L67.6136108,52.4297057 C63.0967234,52.1655173 58.3713824,51.3090048 53.4164344,49.762139 L52.1388027,49.3590766 L52.0133239,48.5981084 L52,48.4354118 L52,38.3908235 C52,31.006401 58.0066766,24.1489258 65.3916471,24.1489258 L67.6993408,24.5674438 C67.9256545,24.5674438 68.0705231,24.5465505 68.3661499,24.5674438 C68.4603717,24.5742118 68.4356362,24.5606341 68.5275866,24.5674438 C68.5469987,24.5688803 68.5469987,25.0529908 68.5275866,26.0197754 C68.3776758,26.0086864 68.2942861,26.0261347 68.2057495,26.0197754 C67.9530564,26.0019164 67.8693792,26.0197754 67.6993408,26.0197754 L65.3916471,26.0197754 C59.1112255,26.0197754 54,32.110991 54,38.3908235 L54,47.8490797 C58.4240321,49.2302472 64.6372531,50.1741432 68.672,50.4938471 L68.672,52.4916098 Z" id="Path" fill="#859DBA" transform="translate(60.336000, 38.320268) scale(-1, 1) translate(-60.336000, -38.320268) "></path>
                            <path d="M64,15.5 C64,9.70101013 59.2989899,5 53.5,5 C47.7010101,5 43,9.70101013 43,15.5 C43,21.2989899 47.7010101,26 53.5,26 C55.7822918,26 57.9566768,25.268823 59.7515784,23.936845 C60.1950845,23.6077238 60.2878116,22.9813855 59.9586904,22.5378795 C59.6295691,22.0943734 59.0032309,22.0016462 58.5597248,22.3307675 C57.1066684,23.4090656 55.3493391,24 53.5,24 C48.8055796,24 45,20.1944204 45,15.5 C45,10.8055796 48.8055796,7 53.5,7 C58.1944204,7 62,10.8055796 62,15.5 C62,16.0522847 62.4477153,16.5 63,16.5 C63.5522847,16.5 64,16.0522847 64,15.5 Z" id="Oval-3" fill="#859DBA" fill-rule="nonzero" transform="translate(53.500000, 15.500000) scale(-1, 1) translate(-53.500000, -15.500000) "></path>
                        </g>
                    </g>
                    <g id="multiple-users-silhouette" transform="translate(0.000000, 6.000000)">
                        <path d="M34.4814118,29.6338824 C28.5840288,29.6338824 23.8016471,24.8531867 23.8016471,18.9565882 C23.8016471,13.059859 28.5841596,8.27847059 34.4814118,8.27847059 C40.3785332,8.27847059 45.1595294,13.0589048 45.1595294,18.9557647 C45.1595294,24.8530266 40.3789547,29.6338824 34.4814118,29.6338824 Z M34.4814118,27.6338824 C39.2743589,27.6338824 43.1595294,23.7484834 43.1595294,18.9557647 C43.1595294,14.163527 39.2740163,10.2784706 34.4814118,10.2784706 C29.6886239,10.2784706 25.8016471,14.1645338 25.8016471,18.9565882 C25.8016471,23.7484593 29.6884404,27.6338824 34.4814118,27.6338824 Z M50.7137554,52.9487754 C50.4550165,53.0804375 50.0324125,53.2703339 49.4688291,53.4904303 C48.6014684,53.8291608 47.5958119,54.1612009 46.4566878,54.4665597 C43.2893797,55.3156029 39.6410372,55.8196471 35.5487059,55.8196471 C30.2046889,55.8196471 24.4776782,54.9557144 18.4013252,53.0571416 L17.1202078,52.6560299 L16.9957401,51.8891484 L16.9828235,51.7289412 L16.9828235,41.686 C16.9828235,34.3007555 22.9894985,28.2935294 30.3744706,28.2935294 L38.5867059,28.2935294 C45.9721516,28.2935294 51.9785525,34.3013083 51.9758824,41.686 L51.9758824,52.7305882 L51.1451881,52.7305882 L50.7137554,52.9487754 Z M35.5487059,53.8196471 C39.4617278,53.8196471 42.9365192,53.3395802 45.9388417,52.5347638 C47.782887,52.0404405 49.0986044,51.5266132 49.808934,51.1651578 L49.9758824,51.0807266 L49.9758824,41.6856384 C49.9781532,35.4054962 44.8673589,30.2935294 38.5867059,30.2935294 L30.3744706,30.2935294 C24.0941091,30.2935294 18.9828235,35.4052839 18.9828235,41.686 L18.9828235,51.143469 C24.8799653,52.9860565 30.4058382,53.8196471 35.5487059,53.8196471 Z M16.672,45.7940804 L15.6136108,45.7321762 C11.0967234,45.4679879 6.37138241,44.6114754 1.41643444,43.0646096 L0.138802659,42.6615472 L0.0133238541,41.900579 L0,41.7378824 L0,31.6932941 C0,24.3088716 6.00667657,18.3024706 13.3916471,18.3024706 L15.6030588,18.3024706 C15.8293725,18.3024706 16.0457876,18.3125275 16.3414144,18.3334209 C16.4356362,18.3401889 16.4356362,18.3401889 16.5275866,18.3469986 C16.5469987,18.3484351 16.5326661,18.8964957 16.4845886,19.9911804 C16.3346778,19.9800914 16.3063711,19.9975397 16.2178345,19.9911804 C15.9651414,19.9733214 15.7836491,19.9911804 15.6136108,19.9911804 L13.3502808,19.9911804 C7.06985923,19.9911804 2,25.4134616 2,31.6932941 L2,41.1515503 C6.42403208,42.5327178 12.6372531,43.4766138 16.672,43.7963177 L16.672,45.7940804 Z" id="Shape" fill="#859DBA" fill-rule="nonzero"></path>
                        <path d="M26,9.5 C26,4.25329488 21.7467051,0 16.5,0 C11.2532949,0 7,4.25329488 7,9.5 C7,14.7467051 11.2532949,19 16.5,19 L16.5,19 C18.6187841,19 20.5755631,18.3063736 22.1556516,17.1338063" id="Oval-3" stroke="#859DBA" stroke-width="2"></path>
                    </g>
                </g>
            </g>
        </g>
    </g>
</svg>