<svg xmlns="http://www.w3.org/2000/svg" xmlns:xlink="http://www.w3.org/1999/xlink" width="49" height="72" viewBox="0 0 49 72"><defs><path id="f587a" d="M295.05 2189h-35.23c-2.11 0-3.82-1.7-3.82-3.82v-57.36c0-2.11 1.7-3.82 3.82-3.82h35.22c2.11 0 3.82 1.7 3.82 3.82v57.36c0 2.11-1.7 3.82-3.81 3.82z"/><path id="f587b" d="M290.05 2195h-35.23c-2.11 0-3.82-1.7-3.82-3.82v-57.36c0-2.11 1.7-3.82 3.82-3.82h35.22c2.11 0 3.82 1.7 3.82 3.82v57.36c0 2.11-1.7 3.82-3.81 3.82z"/><path id="f587c" d="M251 2136.72h42.86v44.83H251z"/><path id="f587d" d="M268.57 2188.27a3.36 3.36 0 1 1 6.72 0 3.36 3.36 0 0 1-6.72 0z"/><path id="f587e" d="M271.93 2134.48h-4.48a1.12 1.12 0 1 1 0-2.24h4.48a1.12 1.12 0 1 1 0 2.24z"/><path id="f587f" d="M276.41 2134.48h-1.12a1.12 1.12 0 1 1 0-2.24h1.12a1.12 1.12 0 1 1 0 2.24z"/><path id="f587g" d="M254.77 2152.57c-1.55 2.88-.56 7.26 1.15 9.91.86 1.33 1.73 2.52 2.92 2.52h.06c.56-.03.97-.2 1.36-.39.43-.2.89-.4 1.6-.4.67 0 1.1.2 1.52.39.41.19.83.39 1.46.37 1.34-.02 2.16-1.3 2.88-2.44a11.2 11.2 0 0 0 1.27-2.77v-.02a.17.17 0 0 0-.08-.2 4.08 4.08 0 0 1-2.33-3.77 4.27 4.27 0 0 1 1.86-3.53l.02-.01a.16.16 0 0 0 .06-.1c.01-.05 0-.1-.02-.13a4.25 4.25 0 0 0-3.71-2c-.79 0-1.54.32-2.15.57-.41.18-.77.33-1.02.33-.28 0-.64-.15-1.06-.33a4.87 4.87 0 0 0-1.92-.5 4.56 4.56 0 0 0-3.87 2.5z"/><path id="f587h" d="M264.82 2145c-.96.03-2.1.56-2.8 1.27-.58.6-1.15 1.6-1 2.6.01.07.07.12.14.12l.2.01c.94 0 1.95-.46 2.64-1.2.72-.78 1.1-1.78.98-2.68 0-.07-.08-.12-.16-.12z"/><path id="f587i" d="M273.4 2151.2c-.77 0-1.4.56-1.4 1.26v5.38c0 .7.63 1.26 1.4 1.26.78 0 1.41-.56 1.41-1.26v-5.38c0-.7-.63-1.26-1.4-1.26zm10.65-6.27l1.23-1.25a.4.4 0 0 0 0-.56.38.38 0 0 0-.55 0l-1.52 1.54a7.02 7.02 0 0 0-3.39 0l-1.5-1.54a.38.38 0 0 0-.56 0 .4.4 0 0 0 0 .56l1.22 1.24c-2.04.8-3.45 2.6-3.45 4.56.09.05 11.96 0 11.96 0 .05 0-.42-3.63-3.44-4.55zm-4.3 4.11a.71.71 0 0 1-.7-.72c0-.4.3-.72.7-.72.39 0 .7.33.7.72 0 .4-.31.72-.7.72zm3.52 0a.71.71 0 0 1-.7-.72c0-.4.3-.72.7-.72.39 0 .7.33.7.72 0 .4-.31.72-.7.72zm6.32 2.16c-.77 0-1.4.56-1.4 1.26v5.38c0 .7.63 1.26 1.4 1.26.78 0 1.41-.56 1.41-1.26v-5.38c0-.7-.63-1.26-1.4-1.26zm-14.06 8.61c0 1.2.94 2.15 2.1 2.16v3.77c0 .7.63 1.26 1.4 1.26.78 0 1.41-.56 1.41-1.26v-3.77h2.12v3.77c0 .7.63 1.26 1.4 1.26.78 0 1.41-.56 1.41-1.26v-3.77c1.17 0 2.12-.97 2.12-2.16v-8.62h-11.96v8.62z"/></defs><g><g transform="translate(-250 -2124)"><use fill="#ffeff0" xlink:href="#f587a"/></g><g transform="translate(-250 -2124)"><use fill="#fff" fill-opacity="0" stroke="#859dba" stroke-miterlimit="50" stroke-width="2" xlink:href="#f587b"/></g><g transform="translate(-250 -2124)"><use fill="#fff" fill-opacity="0" stroke="#859dba" stroke-miterlimit="50" stroke-width="2" xlink:href="#f587c"/></g><g transform="translate(-250 -2124)"><use fill="#fff" fill-opacity="0" stroke="#859dba" stroke-miterlimit="50" stroke-width="2" xlink:href="#f587d"/></g><g transform="translate(-250 -2124)"><use fill="#859dba" xlink:href="#f587e"/></g><g transform="translate(-250 -2124)"><use fill="#859dba" xlink:href="#f587f"/></g><g transform="translate(-250 -2124)"><use fill="#fff" fill-opacity="0" stroke="#859dba" stroke-miterlimit="50" stroke-width=".9" xlink:href="#f587g"/></g><g transform="translate(-250 -2124)"><use fill="#fff" fill-opacity="0" stroke="#859dba" stroke-miterlimit="50" stroke-width=".9" xlink:href="#f587h"/></g><g transform="translate(-250 -2124)"><use fill="#fff" fill-opacity="0" stroke="#859dba" stroke-miterlimit="50" stroke-width=".9" xlink:href="#f587i"/></g></g></svg>