<svg xmlns="http://www.w3.org/2000/svg" xmlns:xlink="http://www.w3.org/1999/xlink" width="54" height="71" viewBox="0 0 54 71"><defs><path id="wpqsa" d="M294.54 1583.8a7.77 7.77 0 0 0 3.46-6.46V1565h-33v12.34c0 2.6 1.3 5.02 3.46 6.47l10.84 7.22v2.94l-10.84 7.23a7.77 7.77 0 0 0-3.46 6.46V1620h33v-12.34c0-2.6-1.3-5.02-3.46-6.47l-10.84-7.22v-2.94z"/><path id="wpqsb" d="M259 1625v-5h44v5z"/><path id="wpqsc" d="M259 1566v-5h44v5z"/><path id="wpqsd" d="M285.54 1589.8a7.77 7.77 0 0 0 3.46-6.46V1571h-33v12.34c0 2.6 1.3 5.02 3.46 6.47l10.84 7.22v2.94l-10.84 7.23a7.77 7.77 0 0 0-3.46 6.46V1626h33v-12.34c0-2.6-1.3-5.02-3.46-6.47l-10.84-7.22v-2.94z"/><path id="wpqse" d="M283.04 1587.85a4.36 4.36 0 0 0 1.96-3.64c0-1.4-.96-2.63-2.34-2.98l-16.3-4.05a5.91 5.91 0 0 0-7.36 5.71v1.32c0 1.47.73 2.83 1.96 3.64l9.96 7.27v17.11c0 3.91-4.08 6.5-7.65 4.86-1.92-.88-4.25.43-4.27 2.53v6.38h26v-12.1-.04c-.02-2.08-2.05-3.58-4.1-3.22l-2.23.38a4.76 4.76 0 0 1-5.59-4.67v-11.23z"/><path id="wpqsf" d="M250 1631v-5h44v5z"/><path id="wpqsg" d="M250 1571v-5h44v5z"/></defs><g><g transform="translate(-249 -1561)"><use fill="#ffeff0" xlink:href="#wpqsa"/></g><g transform="translate(-249 -1561)"><use fill="#ffeff0" xlink:href="#wpqsb"/></g><g transform="translate(-249 -1561)"><use fill="#ffeff0" xlink:href="#wpqsc"/></g><g transform="translate(-249 -1561)"><use fill="#fff" fill-opacity="0" stroke="#859dba" stroke-miterlimit="50" stroke-width="2" xlink:href="#wpqsd"/></g><g transform="translate(-249 -1561)"><use fill="#fff" fill-opacity="0" stroke="#859dba" stroke-miterlimit="50" stroke-width="2" xlink:href="#wpqse"/></g><g transform="translate(-249 -1561)"><use fill="#fff" fill-opacity="0" stroke="#859dba" stroke-miterlimit="50" stroke-width="2" xlink:href="#wpqsf"/></g><g transform="translate(-249 -1561)"><use fill="#fff" fill-opacity="0" stroke="#859dba" stroke-miterlimit="50" stroke-width="2" xlink:href="#wpqsg"/></g></g></svg>