<?xml version="1.0" encoding="UTF-8"?>
<svg width="43px" height="43px" viewBox="0 0 43 43" version="1.1" xmlns="http://www.w3.org/2000/svg" xmlns:xlink="http://www.w3.org/1999/xlink">
    <!-- Generator: Sketch 47.1 (45422) - http://www.bohemiancoding.com/sketch -->
    <title>Artboard 2 Copy 7</title>
    <desc>Created with Sketch.</desc>
    <defs>
        <linearGradient x1="0%" y1="0%" x2="101.999998%" y2="100.999999%" id="linearGradient-1">
            <stop stop-color="#645F8C" offset="0%"></stop>
            <stop stop-color="#F3408A" offset="100%"></stop>
        </linearGradient>
    </defs>
    <g id="desktop" stroke="none" stroke-width="1" fill="none" fill-rule="evenodd">
        <g id="Artboard-2-Copy-7" fill-rule="nonzero" fill="url(#linearGradient-1)">
            <g id="lifeline-in-a-heart-outline" transform="translate(1.000000, 6.000000)">
                <path d="M41,10.8679215 C41,12.0176008 40.8805186,13.1681404 40.5093725,14.2584648 C37.9710603,21.7849291 23.6176969,31.4133323 22.976269,31.813333 C22.7758501,31.9359139 22.5509791,32 22.3217418,32 C22.0929411,32 21.8650137,31.9432257 21.6645948,31.813333 C21.492121,31.7027952 17.2444623,29.0623607 12.9378569,25.4331072 C12.422182,24.995257 12.218882,24.484943 12.6515948,23.9791357 C13.094787,23.4776295 13.7924727,23.5528984 14.3090208,23.9791357 C17.5192168,26.6806456 20.9746996,29.2405751 22.3217418,30.1205766 C26.849725,27.2126147 36.5841754,19.3800914 38.8284369,13.7762671 C39.1484959,12.8123945 39.2824354,11.7603961 39.2824354,10.8705021 C39.2824354,7.77286251 37.149681,4.409416 34.39272,2.91349951 C30.8720712,0.989195198 25.8393342,1.65481844 23.2635798,4.7133182 C22.8007387,5.26557719 21.8488579,5.26557719 21.377284,4.7133182 C18.79367,1.65266789 13.6850088,1.22760059 10.1691631,3.14373284 C7.40346918,4.6430902 5.3557556,7.77587327 5.3557556,10.8705021 C5.3557556,11.7543746 5.38856309,12.6579365 5.67150746,13.5082605 C5.85315076,14.3039607 6.31423894,15.0541651 6.75655784,15.8614783 L14.6390162,15.8614783 L17.0305645,10.8627128 C17.2405896,10.3874432 17.7422919,10.0885179 18.2584033,10.1418513 C18.784121,10.1870127 19.2225101,10.5594865 19.3395303,11.0652938 L21.091718,18.2775143 L23.5417211,14.2584648 C23.7617889,13.9001846 24.1578237,13.6812595 24.5857334,13.6812595 L29.0180919,13.6812595 C29.6927046,13.6812595 30.0823273,13.9547994 30.0823273,14.6223274 C30.0823273,15.2864145 29.5058682,15.4337401 28.8312555,15.4337401 L25.0857357,15.4337401 L21.8856188,20.1937308 C21.6611845,20.5567422 21.2655863,20.7735167 20.8450996,20.7735167 C20.7782933,20.7735167 20.7136702,20.7683554 20.6538501,20.7593232 C20.1608807,20.6814736 19.7727055,20.3236235 19.6543753,19.8483539 L17.9938776,12.9807977 L16.4706371,16.6881787 C16.2758945,17.1324805 15.9327881,17.5417269 15.4459316,17.5417269 L1.17645324,17.5417269 C0.506643571,17.5412967 0,17.3535562 0,16.6881787 C0,16.0240916 0.506643571,15.8610481 1.17645324,15.8610481 L4.76434504,15.8610481 C4.50978243,15.2627676 4.30412379,14.6821214 4.17662417,14.1204001 C3.8351697,13.1449146 3.6504699,12.0089987 3.6504699,10.8653408 C3.6504699,6.89028038 5.84503534,3.23048929 9.39100945,1.30618498 C13.4980692,-0.931668245 18.932959,-0.228011149 22.3269815,2.91349951 C25.7118345,-0.228441257 31.1427945,-0.931668245 35.2568406,1.30618498 C38.7984483,3.22790864 41,6.89028038 41,10.8679215 Z" id="Shape"></path>
            </g>
        </g>
    </g>
</svg>