<svg xmlns="http://www.w3.org/2000/svg" xmlns:xlink="http://www.w3.org/1999/xlink" width="65" height="72" viewBox="0 0 65 72"><defs><path id="l79aa" d="M737.82 1293.68c2.2 1.56 7.18 6.1 5.1 15.84l-2.7 6.3c5.2-5.66 14.13-5.22 16.69-4.96.43.05.82-.2.99-.6 8.9-21.48 26.03-37.3 32.17-42.51.72-.61.26-1.8-.69-1.75-27.84 1.59-47.67 21.75-51.72 26.2a.99.99 0 0 0 .16 1.48z"/><path id="l79ab" d="M741.96 1311.77c4.55-9.63 18.62-33.99 48.35-45.22a.95.95 0 0 0-.93-.55c-27.84 1.59-47.67 21.75-51.72 26.2a.99.99 0 0 0 .16 1.48c2.2 1.56 7.18 6.1 5.1 15.84z"/><path id="l79ac" d="M737.3 1300.12a.97.97 0 0 0-1.37.19 1 1 0 0 0 .18 1.38 12.3 12.3 0 0 1 3.74 12.39l2.28-1.93a14.07 14.07 0 0 0-4.83-12.03z"/><path id="l79ad" d="M758.12 1298.45a15.26 15.26 0 0 0-10 1.17l.47 1.86c.15 0 .3-.04.46-.12a13.5 13.5 0 0 1 8.63-.99.99.99 0 0 0 .44-1.92z"/><path id="l79ae" d="M755.8 1281.98a.97.97 0 0 0-1.39-.04 1 1 0 0 0-.05 1.39c.02.02 2 2.33.84 7.14l2.22-1.34c.56-4.7-1.53-7.04-1.63-7.15z"/><path id="l79af" d="M736.08 1328a.98.98 0 0 1-.95-1.22l.03-.12c1.92-7.75 10.53-34.58 40.85-54.3a.97.97 0 0 1 1.35.3.99.99 0 0 1-.29 1.35c-29.72 19.33-38.14 45.55-40.01 53.13l-.03.12a.98.98 0 0 1-.95.74z"/><path id="l79ag" d="M729.82 1302.68c2.2 1.56 7.18 6.1 5.1 15.84l-2.7 6.3c5.2-5.66 14.13-5.22 16.69-4.96.43.05.82-.2.99-.6 8.9-21.48 26.03-37.3 32.17-42.51.72-.61.26-1.8-.69-1.75-27.84 1.59-47.67 21.75-51.72 26.2a.99.99 0 0 0 .16 1.48z"/><path id="l79ah" d="M733.96 1320.77c4.55-9.63 18.62-33.99 48.35-45.22a.95.95 0 0 0-.93-.55c-27.84 1.59-47.67 21.75-51.72 26.2a.99.99 0 0 0 .16 1.48c2.2 1.56 7.18 6.1 5.1 15.84z"/><path id="l79ai" d="M729.3 1309.12a.97.97 0 0 0-1.37.19 1 1 0 0 0 .18 1.38 12.3 12.3 0 0 1 3.74 12.39l2.28-1.93a14.07 14.07 0 0 0-4.83-12.03z"/><path id="l79aj" d="M750.12 1307.45a15.26 15.26 0 0 0-10 1.17l.47 1.86c.15 0 .3-.04.46-.12a13.5 13.5 0 0 1 8.63-.99.99.99 0 0 0 .44-1.92z"/><path id="l79ak" d="M747.8 1290.98a.97.97 0 0 0-1.39-.04 1 1 0 0 0-.05 1.39c.02.02 2 2.33.84 7.14l2.22-1.34c.56-4.7-1.53-7.04-1.63-7.15z"/><path id="l79al" d="M728.08 1337a.98.98 0 0 1-.95-1.22l.03-.12c1.92-7.75 10.53-34.58 40.85-54.3a.97.97 0 0 1 1.35.3.99.99 0 0 1-.29 1.35c-29.72 19.33-38.14 45.55-40.01 53.13l-.03.12a.98.98 0 0 1-.95.74z"/></defs><g><g transform="rotate(180 399.76 664)"><g><use fill="#ffeff0" xlink:href="#l79aa"/></g><g><g><use fill="#ffeff0" xlink:href="#l79ab"/></g><g><use fill="#ffeff0" xlink:href="#l79ac"/></g></g><g><use fill="#ffeff0" xlink:href="#l79ad"/></g><g><use fill="#ffeff0" xlink:href="#l79ae"/></g><g><use fill="#ffeff0" xlink:href="#l79af"/></g></g><g transform="rotate(180 391.76 673)"><g><use fill="#fff" fill-opacity="0" stroke="#859dba" stroke-miterlimit="50" stroke-width="2" xlink:href="#l79ag"/></g><g><g><use fill="#fff" fill-opacity="0" stroke="#859dba" stroke-miterlimit="50" stroke-width="2" xlink:href="#l79ah"/></g><g><use fill="#ffeff0" xlink:href="#l79ai"/></g></g><g><use fill="#859dba" xlink:href="#l79aj"/></g><g><use fill="#859dba" xlink:href="#l79ak"/></g><g><use fill="#859dba" xlink:href="#l79al"/></g></g></g></svg>