<?xml version="1.0" encoding="UTF-8"?>
<svg width="43px" height="43px" viewBox="0 0 43 43" version="1.1" xmlns="http://www.w3.org/2000/svg" xmlns:xlink="http://www.w3.org/1999/xlink">
    <!-- Generator: Sketch 47.1 (45422) - http://www.bohemiancoding.com/sketch -->
    <title>Artboard 2 Copy 9</title>
    <desc>Created with Sketch.</desc>
    <defs>
        <linearGradient x1="0%" y1="0%" x2="101.999998%" y2="100.999999%" id="linearGradient-1">
            <stop stop-color="#645F8C" offset="0%"></stop>
            <stop stop-color="#F3408A" offset="100%"></stop>
        </linearGradient>
        <linearGradient x1="-4.8401788%" y1="0%" x2="72.6998618%" y2="83.0110634%" id="linearGradient-2">
            <stop stop-color="#7D5A8C" offset="0%"></stop>
            <stop stop-color="#E0448A" offset="100%"></stop>
        </linearGradient>
    </defs>
    <g id="desktop" stroke="none" stroke-width="1" fill="none" fill-rule="evenodd">
        <g id="Artboard-2-Copy-9" fill="url(#linearGradient-1)">
            <g id="Group-7" transform="translate(0.000000, 3.000000)">
                <polygon id="Line-2" fill-rule="nonzero" points="20.6568627 25.1166268 20.6568627 36.5795455 22.3431373 36.5795455 22.3431373 25.1166268"></polygon>
                <path d="M6.74509804,1.68181818 C3.95118695,1.68181818 1.68627451,3.94074513 1.68627451,6.72727273 L1.68627451,19.6064593 C1.68627451,22.3929869 3.95118695,24.6519139 6.74509804,24.6519139 L36.254902,24.6519139 C39.048813,24.6519139 41.3137255,22.3929869 41.3137255,19.6064593 L41.3137255,6.72727273 C41.3137255,3.94074513 39.048813,1.68181818 36.254902,1.68181818 L6.74509804,1.68181818 Z M6.74509804,0 L36.254902,0 C39.9801167,-6.82502422e-16 43,3.01190259 43,6.72727273 L43,19.6064593 C43,23.3218295 39.9801167,26.3337321 36.254902,26.3337321 L6.74509804,26.3337321 C3.01988326,26.3337321 4.56207236e-16,23.3218295 0,19.6064593 L0,6.72727273 C-4.56207236e-16,3.01190259 3.01988326,6.82502422e-16 6.74509804,0 Z" id="Rectangle-3" fill-rule="nonzero"></path>
                <path d="M9.38917647,18.4596364 L9.38917647,9.71418182 L8.43137255,9.71418182 L8.43137255,8.90690909 L10.2660392,8.90690909 L10.2660392,18.4596364 L9.38917647,18.4596364 Z M17.0111373,13.8850909 L17.0111373,13.0778182 L22.2588235,13.0778182 L22.2588235,13.8850909 L17.0111373,13.8850909 Z M29.4895686,9.04818182 C30.0651532,8.62211908 30.7891198,8.40909091 31.6614902,8.40909091 C32.5338606,8.40909091 33.2285987,8.6445431 33.7457255,9.11545455 C34.2628523,9.58636599 34.5214118,10.1850873 34.5214118,10.9116364 C34.5214118,11.4229116 34.3707727,11.8803616 34.0694902,12.284 C33.7682076,12.6876384 33.3657542,12.9656962 32.8621176,13.1181818 L32.8621176,13.1854545 C33.4377022,13.3289704 33.8873709,13.6294523 34.2111373,14.0869091 C34.5349036,14.5443659 34.6967843,15.1408448 34.6967843,15.8763636 C34.6967843,16.6118825 34.4314798,17.2352702 33.9008627,17.7465455 C33.3702457,18.2578207 32.6350374,18.5134545 31.6952157,18.5134545 C30.755394,18.5134545 29.9887089,18.2780024 29.3951373,17.8070909 C28.8015657,17.3361795 28.4598174,16.6791557 28.3698824,15.836 L29.2467451,15.836 C29.3096997,16.3741845 29.5547691,16.8204225 29.9819608,17.1747273 C30.4091525,17.5290321 30.9712383,17.7061818 31.6682353,17.7061818 C32.3652322,17.7061818 32.900338,17.5223049 33.2735686,17.1545455 C33.6467993,16.786786 33.8334118,16.3069121 33.8334118,15.7149091 C33.8334118,14.9345416 33.5838456,14.3806683 33.0847059,14.0532727 C32.5855661,13.7258772 31.8368677,13.5621818 30.8385882,13.5621818 L30.5418039,13.5621818 L30.5418039,12.7683636 L30.8520784,12.7683636 C32.7137348,12.7593939 33.644549,12.1718846 33.644549,11.0058182 C33.644549,10.4586639 33.4691782,10.023638 33.1184314,9.70072727 C32.7676845,9.37781657 32.2708006,9.21636364 31.6277647,9.21636364 C30.9847288,9.21636364 30.4721065,9.35315015 30.0898824,9.62672727 C29.7076582,9.9003044 29.4760788,10.2927247 29.3951373,10.804 L28.4912941,10.804 C28.5812292,10.0595114 28.9139841,9.47424455 29.4895686,9.04818182 Z" id="1---3" stroke="url(#linearGradient-2)" stroke-width="0.68"></path>
                <path d="M13.2017544,36.5795455 L30.5526316,36.5795455 C31.0182834,36.5795455 31.3957688,36.2030576 31.3957688,35.7386364 C31.3957688,35.2742151 31.0182834,34.8977273 30.5526316,34.8977273 L13.2017544,34.8977273 C12.7361025,34.8977273 12.3586171,35.2742151 12.3586171,35.7386364 C12.3586171,36.2030576 12.7361025,36.5795455 13.2017544,36.5795455 Z" id="Line-3" fill-rule="nonzero"></path>
            </g>
        </g>
    </g>
</svg>