<?xml version="1.0" encoding="UTF-8"?>
<svg width="43px" height="43px" viewBox="0 0 43 43" version="1.1" xmlns="http://www.w3.org/2000/svg" xmlns:xlink="http://www.w3.org/1999/xlink">
    <!-- Generator: Sketch 47.1 (45422) - http://www.bohemiancoding.com/sketch -->
    <title>Artboard 2 Copy 10</title>
    <desc>Created with Sketch.</desc>
    <defs>
        <linearGradient x1="0%" y1="0%" x2="101.999998%" y2="100.999999%" id="linearGradient-1">
            <stop stop-color="#645F8C" offset="0%"></stop>
            <stop stop-color="#F3408A" offset="100%"></stop>
        </linearGradient>
        <linearGradient x1="4.08911612%" y1="2.82437194%" x2="50%" y2="100%" id="linearGradient-2">
            <stop stop-color="#725C8C" offset="0%"></stop>
            <stop stop-color="#ED418A" offset="100%"></stop>
        </linearGradient>
    </defs>
    <g id="desktop" stroke="none" stroke-width="1" fill="none" fill-rule="evenodd">
        <g id="Artboard-2-Copy-10" stroke="url(#linearGradient-2)" stroke-width="0.5" fill="url(#linearGradient-1)" fill-rule="nonzero">
            <g id="share" transform="translate(2.000000, 2.000000)">
                <path d="M26.2057054,28.4288499 C25.8436756,28.7841342 25.5320812,29.1746758 25.2626316,29.5875922 L13.3239396,22.475803 C13.6396793,21.7001441 13.8186215,20.8566828 13.8186215,19.971862 C13.8186215,19.0870413 13.6396793,18.24358 13.3246305,17.467921 L25.2660861,10.4103738 C26.4924274,12.3007034 28.6424974,13.5604712 31.0910347,13.5604712 C34.9006382,13.5604712 38,10.5188575 38,6.78023561 C38,3.0416137 34.9006382,0 31.0910347,0 C27.2814312,0 24.1820694,3.0416137 24.1820694,6.78023561 C24.1820694,7.63183321 24.3499573,8.44410543 24.6428974,9.19535554 L12.6855512,16.2623951 C11.4502282,14.4154589 9.32364866,13.1916264 6.90896529,13.1916264 C3.09936183,13.1916264 0,16.2332401 0,19.971862 C0,23.7104839 3.09936183,26.7520976 6.90896529,26.7520976 C9.32364866,26.7520976 11.4495373,25.5282651 12.6848603,23.6813289 L24.6401338,30.8026104 C24.3430483,31.5660649 24.1813785,32.3817273 24.1813785,33.2231545 C24.1813785,35.0341554 24.8999109,36.7373506 26.2050145,38.0174591 C27.5515718,39.338927 29.3209578,40 31.0903438,40 C32.8597298,40 34.6291158,39.338927 35.9756732,38.0174591 C37.2807767,36.7366726 37.9993091,35.0341554 37.9993091,33.2231545 C37.9993091,31.4121536 37.2807767,29.7089584 35.9756732,28.4288499 C33.2818676,25.784558 28.8995109,25.784558 26.2057054,28.4288499 Z M31.0910347,1.35604712 C34.1385793,1.35604712 36.6182069,3.78947368 36.6182069,6.78023561 C36.6182069,9.77099754 34.1385793,12.2044241 31.0910347,12.2044241 C28.0434901,12.2044241 25.5638625,9.77099754 25.5638625,6.78023561 C25.5638625,3.78947368 28.0427992,1.35604712 31.0910347,1.35604712 Z M6.90965619,25.3960505 C3.8621116,25.3960505 1.38248395,22.962624 1.38248395,19.971862 C1.38248395,16.9811001 3.8621116,14.5476735 6.90965619,14.5476735 C9.95720078,14.5476735 12.4368284,16.9811001 12.4368284,19.971862 C12.4368284,22.962624 9.95720078,25.3960505 6.90965619,25.3960505 Z M34.9987455,37.0587338 C32.8438392,39.1734893 29.3375393,39.1734893 27.182633,37.0587338 C26.1386884,36.0342402 25.5638625,34.6714128 25.5638625,33.2231545 C25.5638625,31.7748962 26.1386884,30.4120688 27.182633,29.3875752 C28.2604316,28.3298585 29.6753877,27.8016781 31.0910347,27.8016781 C32.5066817,27.8016781 33.9216378,28.3298585 34.9994364,29.3875752 C36.043381,30.4120688 36.6182069,31.7748962 36.6182069,33.2231545 C36.6182069,34.6714128 36.043381,36.0342402 34.9987455,37.0587338 Z" id="Shape"></path>
            </g>
        </g>
    </g>
</svg>