<?xml version="1.0" encoding="UTF-8"?>
<svg width="43px" height="43px" viewBox="0 0 43 43" version="1.1" xmlns="http://www.w3.org/2000/svg" xmlns:xlink="http://www.w3.org/1999/xlink">
    <!-- Generator: Sketch 47.1 (45422) - http://www.bohemiancoding.com/sketch -->
    <title>Artboard 2 Copy 5</title>
    <desc>Created with Sketch.</desc>
    <defs>
        <linearGradient x1="0%" y1="0%" x2="101.999998%" y2="100.999999%" id="linearGradient-1">
            <stop stop-color="#645F8C" offset="0%"></stop>
            <stop stop-color="#F3408A" offset="100%"></stop>
        </linearGradient>
    </defs>
    <g id="desktop" stroke="none" stroke-width="1" fill="none" fill-rule="evenodd">
        <g id="Artboard-2-Copy-5" fill-rule="nonzero" fill="url(#linearGradient-1)">
            <g id="play-button" transform="translate(6.000000, 5.000000)">
                <path d="M1.584,32.4980451 C0.592195313,31.8850312 0,30.8229721 0,29.657079 L0,3.34298405 C0,2.17709099 0.592195313,1.1150964 1.584,0.502018022 C2.57586914,-0.111060359 3.79093945,-0.165909991 4.83417773,0.355644914 L31.1534824,13.5127246 C32.2924336,14.0821038 33,15.2267918 33,16.5000638 C33,17.7733358 32.2924336,18.9180238 31.1534824,19.4874029 L4.83417773,32.6444182 C3.8105332,33.1561762 2.59430273,33.1225317 1.584,32.4980451 Z M1.93612132,2.73624587 L1.93612132,29.657079 C1.93612132,32.0031308 3.80022859,31.1211899 4.15920123,30.941636 L30.8447696,17.434649 C31.365811,17.1741724 32.0373586,16.1016366 30.8447696,15.5052408 L3.94491039,1.94622485 C2.31820523,1.13307717 1.93612132,2.33533449 1.93612132,2.73624587 Z" id="Shape"></path>
            </g>
        </g>
    </g>
</svg>