<svg xmlns="http://www.w3.org/2000/svg" xmlns:xlink="http://www.w3.org/1999/xlink" width="64" height="65" viewBox="0 0 64 65"><defs><path id="8bppa" d="M738.15 1841h40.05a9.23 9.23 0 0 1 9.16 9.3v38.4c0 5.13-4.1 9.3-9.16 9.3h-40.05a9.23 9.23 0 0 1-9.15-9.3v-38.4c0-5.13 4.1-9.3 9.15-9.3z"/><path id="8bppb" d="M734.15 1848h40.05a9.23 9.23 0 0 1 9.16 9.3v38.4c0 5.13-4.1 9.3-9.16 9.3h-40.05a9.23 9.23 0 0 1-9.15-9.3v-38.4c0-5.13 4.1-9.3 9.15-9.3z"/><path id="8bppc" d="M760 1874.08v8.58h-11.98v5.99h11.97v7.33l10.39-10.74z"/><path id="8bppd" d="M747.4 1855.08v8.58h11.98v5.99H747.4v7.33l-10.38-10.74z"/></defs><g><g transform="translate(-724 -1841)"><use fill="#ffeff0" xlink:href="#8bppa"/></g><g transform="translate(-724 -1841)"><use fill="#fff" fill-opacity="0" stroke="#859dba" stroke-miterlimit="50" stroke-width="2" xlink:href="#8bppb"/></g><g transform="translate(-724 -1841)"><use fill="#fff" fill-opacity="0" stroke="#859dba" stroke-miterlimit="50" stroke-width="2" xlink:href="#8bppc"/></g><g transform="translate(-724 -1841)"><use fill="#fff" fill-opacity="0" stroke="#859dba" stroke-miterlimit="50" stroke-width="2" xlink:href="#8bppd"/></g></g></svg>