<?xml version="1.0" encoding="UTF-8" standalone="no"?>
<svg width="132px" height="137px" viewBox="0 0 132 137" version="1.1" xmlns="http://www.w3.org/2000/svg" xmlns:xlink="http://www.w3.org/1999/xlink">
    <!-- Generator: Sketch 45.1 (43504) - http://www.bohemiancoding.com/sketch -->
    <title>settings (4)</title>
    <desc>Created with Sketch.</desc>
    <defs></defs>
    <g id="Page-1" stroke="none" stroke-width="1" fill="none" fill-rule="evenodd" opacity="0.100000001">
        <g id="Desktop-HD" transform="translate(-1058.000000, -1896.000000)" fill="#D1D1D1">
            <g id="Group-4" transform="translate(745.000000, 1630.000000)">
                <g id="Group-2">
                    <g id="Group-6">
                        <g id="settings-(4)" transform="translate(313.000000, 266.000000)">
                            <g id="Layer_1" transform="translate(0.000000, 0.000000)">
                                <path d="M154.834292,59.8126688 L140.262739,59.8126688 C138.869381,54.9707735 136.923168,50.3165344 134.448991,45.9102696 L144.755962,35.6930603 L118.827964,9.99086428 L108.520994,20.2083783 C104.075097,17.7551391 99.3811982,15.8261797 94.4964581,14.4449571 L94.4964581,0 L76.1624722,0 L69.9307793,14.3931688 L76.1624722,35.6386425 C104.284992,35.6386425 118.88286,50.1093815 118.88286,77.986988 C118.88286,105.864594 104.284992,120.335333 76.1624722,120.335333 L69.9307793,143.15913 L76.1621649,155.973976 L94.4961508,155.973976 L94.4961508,141.529323 C99.3808909,140.148101 104.074482,138.219141 108.520687,135.765902 L118.827657,145.983416 L144.755655,120.28122 L134.448684,110.064011 C136.922861,105.657746 138.869381,101.003812 140.262431,96.1616118 L154.834292,96.1616118 L154.834292,59.8126688 Z" id="Shape"></path>
                                <g id="Group">
                                    <path d="M78.6721267,155.973976 L78.6721267,120.335333 C50.5496072,120.335333 35.9517385,105.864594 35.9517385,77.986988 C35.9517385,50.1093815 50.5496072,35.6386425 78.6721267,35.6386425 L78.6721267,0 L60.3381407,0 L60.3381407,14.4446524 C55.4534007,15.8258751 50.7598093,17.7548345 46.3136049,20.2080736 L36.0066344,9.99055965 L10.078637,35.6927556 L20.3856075,45.909965 C17.9114306,50.3162298 15.9649101,54.9701642 14.5718603,59.8123641 L0,59.8123641 L0,96.1610025 L14.571553,96.1610025 C15.9649101,101.002898 17.9111233,105.657137 20.3853002,110.063402 L10.0783297,120.280611 L36.006327,145.982807 L46.3132976,135.765293 C50.7591947,138.218532 55.4530933,140.147492 60.3378334,141.528714 L60.3378334,155.973976 L78.6721267,155.973976 Z" id="Shape"></path>
                                </g>
                            </g>
                        </g>
                    </g>
                </g>
            </g>
        </g>
    </g>
</svg>