<?xml version="1.0" encoding="UTF-8" standalone="no"?>
<svg width="155px" height="66px" viewBox="0 0 155 66" version="1.1" xmlns="http://www.w3.org/2000/svg" xmlns:xlink="http://www.w3.org/1999/xlink">
    <!-- Generator: Sketch 42 (36781) - http://www.bohemiancoding.com/sketch -->
    <title>Group 22</title>
    <desc>Created with Sketch.</desc>
    <defs>
        <filter x="-50%" y="-50%" width="200%" height="200%" filterUnits="objectBoundingBox" id="filter-1">
            <feGaussianBlur stdDeviation="10 0" in="SourceGraphic"></feGaussianBlur>
        </filter>
    </defs>
    <g id="Page-1" stroke="none" stroke-width="1" fill="none" fill-rule="evenodd">
        <g id="Large-Device-Desktops" transform="translate(-135.000000, -1009.000000)">
            <g id="iot_solutions_manufacturing" transform="translate(80.000000, 633.000000)">
                <g id="Group-15" transform="translate(33.000000, 365.000000)">
                    <g id="Group-14">
                        <g id="Group-20" transform="translate(0.000000, 11.000000)">
                            <g id="Group-22" transform="translate(46.000000, 0.000000)">
                                <g id="electric-tower-(2)" transform="translate(22.000000, 0.000000)">
                                    <g id="Layer_1">
                                        <g id="Group" transform="translate(6.252235, 0.862672)" stroke="#898686" stroke-width="0.5">
                                            <path d="M29.6613906,0.263072201 L52.8117443,10.5886561" id="Shape"></path>
                                            <path d="M25.8468437,0.263072201 L48.9971974,10.5886561" id="Shape"></path>
                                            <path d="M3.94608301,0.1315361 L30.6479114,10.3913519" id="Shape"></path>
                                            <path d="M0,0.197304151 L27.556813,10.5886561" id="Shape"></path>
                                        </g>
                                        <rect id="Rectangle-path" fill="#2B3B4E" fill-rule="nonzero" x="35.5190177" y="0.204991325" width="0.789216602" height="4.07761911"></rect>
                                        <g id="Group" transform="translate(34.532497, 0.698252)" fill-rule="nonzero" fill="#E6E9EE">
                                            <path d="M2.23611371,0.822100627 L0.394608301,0.822100627 C0.197304151,0.822100627 0.0657680502,0.690564527 0.0657680502,0.493260376 L0.0657680502,0.427492326 C0.0657680502,0.230188176 0.197304151,0.0986520753 0.394608301,0.0986520753 L2.23611371,0.0986520753 C2.43341786,0.0986520753 2.56495396,0.230188176 2.56495396,0.427492326 L2.56495396,0.493260376 C2.63072201,0.624796477 2.43341786,0.822100627 2.23611371,0.822100627 Z" id="Shape"></path>
                                            <path d="M2.23611371,2.07169358 L0.394608301,2.07169358 C0.197304151,2.07169358 0.0657680502,1.94015748 0.0657680502,1.74285333 L0.0657680502,1.67708528 C0.0657680502,1.47978113 0.197304151,1.34824503 0.394608301,1.34824503 L2.23611371,1.34824503 C2.43341786,1.34824503 2.56495396,1.47978113 2.56495396,1.67708528 L2.56495396,1.74285333 C2.63072201,1.94015748 2.43341786,2.07169358 2.23611371,2.07169358 Z" id="Shape"></path>
                                        </g>
                                        <rect id="Rectangle-path" fill="#2B3B4E" fill-rule="nonzero" x="31.5071667" y="0.204991325" width="0.789216602" height="4.07761911"></rect>
                                        <g id="Group" transform="translate(30.586414, 0.698252)" fill-rule="nonzero" fill="#E6E9EE">
                                            <path d="M2.23611371,0.822100627 L0.394608301,0.822100627 C0.197304151,0.822100627 0.0657680502,0.690564527 0.0657680502,0.493260376 L0.0657680502,0.427492326 C0.0657680502,0.230188176 0.197304151,0.0986520753 0.394608301,0.0986520753 L2.23611371,0.0986520753 C2.43341786,0.0986520753 2.56495396,0.230188176 2.56495396,0.427492326 L2.56495396,0.493260376 C2.56495396,0.624796477 2.43341786,0.822100627 2.23611371,0.822100627 Z" id="Shape"></path>
                                            <path d="M2.23611371,2.07169358 L0.394608301,2.07169358 C0.197304151,2.07169358 0.0657680502,1.94015748 0.0657680502,1.74285333 L0.0657680502,1.67708528 C0.0657680502,1.47978113 0.197304151,1.34824503 0.394608301,1.34824503 L2.23611371,1.34824503 C2.43341786,1.34824503 2.56495396,1.47978113 2.56495396,1.67708528 L2.56495396,1.74285333 C2.56495396,1.94015748 2.43341786,2.07169358 2.23611371,2.07169358 Z" id="Shape"></path>
                                        </g>
                                        <rect id="Rectangle-path" fill="#2B3B4E" fill-rule="nonzero" x="8.55411718" y="0.204991325" width="0.789216602" height="4.07761911"></rect>
                                        <g id="Group" transform="translate(7.567596, 0.698252)" fill-rule="nonzero" fill="#E6E9EE">
                                            <path d="M2.30188176,0.822100627 L0.460376351,0.822100627 C0.263072201,0.822100627 0.1315361,0.690564527 0.1315361,0.493260376 L0.1315361,0.427492326 C0.1315361,0.230188176 0.263072201,0.0986520753 0.460376351,0.0986520753 L2.30188176,0.0986520753 C2.49918591,0.0986520753 2.63072201,0.230188176 2.63072201,0.427492326 L2.63072201,0.493260376 C2.63072201,0.624796477 2.49918591,0.822100627 2.30188176,0.822100627 Z" id="Shape"></path>
                                            <path d="M2.30188176,2.07169358 L0.460376351,2.07169358 C0.263072201,2.07169358 0.1315361,1.94015748 0.1315361,1.74285333 L0.1315361,1.67708528 C0.1315361,1.47978113 0.263072201,1.34824503 0.460376351,1.34824503 L2.30188176,1.34824503 C2.49918591,1.34824503 2.63072201,1.47978113 2.63072201,1.67708528 L2.63072201,1.74285333 C2.63072201,1.94015748 2.49918591,2.07169358 2.30188176,2.07169358 Z" id="Shape"></path>
                                        </g>
                                        <rect id="Rectangle-path" fill="#2B3B4E" fill-rule="nonzero" x="4.54226612" y="0.204991325" width="0.789216602" height="4.07761911"></rect>
                                        <g id="Group" transform="translate(3.621513, 0.698252)" fill-rule="nonzero" fill="#E6E9EE">
                                            <path d="M2.23611371,0.822100627 L0.394608301,0.822100627 C0.197304151,0.822100627 0.0657680502,0.690564527 0.0657680502,0.493260376 L0.0657680502,0.427492326 C0.0657680502,0.230188176 0.197304151,0.0986520753 0.394608301,0.0986520753 L2.23611371,0.0986520753 C2.43341786,0.0986520753 2.56495396,0.230188176 2.56495396,0.427492326 L2.56495396,0.493260376 C2.63072201,0.624796477 2.43341786,0.822100627 2.23611371,0.822100627 Z" id="Shape"></path>
                                            <path d="M2.23611371,2.07169358 L0.394608301,2.07169358 C0.197304151,2.07169358 0.0657680502,1.94015748 0.0657680502,1.74285333 L0.0657680502,1.67708528 C0.0657680502,1.47978113 0.197304151,1.34824503 0.394608301,1.34824503 L2.23611371,1.34824503 C2.43341786,1.34824503 2.56495396,1.47978113 2.56495396,1.67708528 L2.56495396,1.74285333 C2.63072201,1.94015748 2.43341786,2.07169358 2.23611371,2.07169358 Z" id="Shape"></path>
                                        </g>
                                        <rect id="Rectangle-path" fill="#324A5E" fill-rule="nonzero" x="19.0112372" y="2.11226478" width="2.76225811" height="38.2112372"></rect>
                                        <g id="Group" transform="translate(0.661951, 3.822234)" fill-rule="nonzero" fill="#2B3B4E">
                                            <path d="M38.8031496,2.82802616 L0.657680502,2.82802616 C0.394608301,2.82802616 0.1315361,2.63072201 0.1315361,2.30188176 L0.1315361,0.591912452 C0.1315361,0.328840251 0.328840251,0.0657680502 0.657680502,0.0657680502 L38.8031496,0.0657680502 C39.0662218,0.0657680502 39.329294,0.263072201 39.329294,0.591912452 L39.329294,2.30188176 C39.329294,2.63072201 39.1319899,2.82802616 38.8031496,2.82802616 Z" id="Shape"></path>
                                            <path d="M22.3538875,29.5298545 L22.3538875,59.1929637 L17.033925,59.1929637 L17.033925,29.5298545 C17.033925,29.0037101 17.4285333,28.6091018 17.9546777,28.6091018 L21.3743037,28.6091018 C21.9004481,28.6091018 22.3538875,29.0037101 22.3538875,29.5298545 Z" id="Shape"></path>
                                        </g>
                                        <rect id="Rectangle-path" fill="#324A5E" fill-rule="nonzero" x="58.7351395" y="10.7278794" width="0.591912452" height="3.22263446"></rect>
                                        <g id="Group" transform="translate(58.044575, 11.056720)" fill-rule="nonzero" fill="#E6E9EE">
                                            <path d="M1.74285333,0.723448552 L0.295956226,0.723448552 C0.164420125,0.723448552 0.0328840251,0.591912452 0.0328840251,0.460376351 L0.0328840251,0.394608301 C0.0328840251,0.263072201 0.164420125,0.1315361 0.295956226,0.1315361 L1.74285333,0.1315361 C1.87438943,0.1315361 2.00592553,0.263072201 2.00592553,0.394608301 L2.00592553,0.460376351 C2.00592553,0.591912452 1.87438943,0.723448552 1.74285333,0.723448552 Z" id="Shape"></path>
                                            <path d="M1.74285333,1.7099693 L0.295956226,1.7099693 C0.164420125,1.7099693 0.0328840251,1.5784332 0.0328840251,1.4468971 L0.0328840251,1.315361 C0.0328840251,1.1838249 0.164420125,1.0522888 0.295956226,1.0522888 L1.74285333,1.0522888 C1.87438943,1.0522888 2.00592553,1.1838249 2.00592553,1.315361 L2.00592553,1.38112905 C2.00592553,1.5784332 1.87438943,1.7099693 1.74285333,1.7099693 Z" id="Shape"></path>
                                        </g>
                                        <rect id="Rectangle-path" fill="#324A5E" fill-rule="nonzero" x="55.6440411" y="10.7278794" width="0.591912452" height="3.22263446"></rect>
                                        <g id="Group" transform="translate(54.920593, 11.056720)" fill-rule="nonzero" fill="#E6E9EE">
                                            <path d="M1.7099693,0.723448552 L0.263072201,0.723448552 C0.1315361,0.723448552 0,0.591912452 0,0.460376351 L0,0.394608301 C0,0.263072201 0.1315361,0.1315361 0.263072201,0.1315361 L1.7099693,0.1315361 C1.84150541,0.1315361 1.97304151,0.263072201 1.97304151,0.394608301 L1.97304151,0.460376351 C1.97304151,0.591912452 1.90727346,0.723448552 1.7099693,0.723448552 Z" id="Shape"></path>
                                            <path d="M1.7099693,1.7099693 L0.263072201,1.7099693 C0.1315361,1.7099693 0,1.5784332 0,1.4468971 L0,1.315361 C0,1.1838249 0.1315361,1.0522888 0.263072201,1.0522888 L1.7099693,1.0522888 C1.84150541,1.0522888 1.97304151,1.1838249 1.97304151,1.315361 L1.97304151,1.38112905 C1.97304151,1.5784332 1.90727346,1.7099693 1.7099693,1.7099693 Z" id="Shape"></path>
                                        </g>
                                        <rect id="Rectangle-path" fill="#324A5E" fill-rule="nonzero" x="37.6235954" y="10.7278794" width="0.591912452" height="3.22263446"></rect>
                                        <g id="Group" transform="translate(36.834379, 11.056720)" fill-rule="nonzero" fill="#E6E9EE">
                                            <path d="M1.77573735,0.723448552 L0.328840251,0.723448552 C0.197304151,0.723448552 0.0657680502,0.591912452 0.0657680502,0.460376351 L0.0657680502,0.394608301 C0.0657680502,0.263072201 0.197304151,0.1315361 0.328840251,0.1315361 L1.77573735,0.1315361 C1.90727346,0.1315361 2.03880956,0.263072201 2.03880956,0.394608301 L2.03880956,0.460376351 C2.10457761,0.591912452 1.97304151,0.723448552 1.77573735,0.723448552 Z" id="Shape"></path>
                                            <path d="M1.77573735,1.7099693 L0.328840251,1.7099693 C0.197304151,1.7099693 0.0657680502,1.5784332 0.0657680502,1.4468971 L0.0657680502,1.315361 C0.0657680502,1.1838249 0.197304151,1.0522888 0.328840251,1.0522888 L1.77573735,1.0522888 C1.90727346,1.0522888 2.03880956,1.1838249 2.03880956,1.315361 L2.03880956,1.38112905 C2.10457761,1.5784332 1.97304151,1.7099693 1.77573735,1.7099693 Z" id="Shape"></path>
                                        </g>
                                        <rect id="Rectangle-path" fill="#324A5E" fill-rule="nonzero" x="34.4667289" y="10.7278794" width="0.591912452" height="3.22263446"></rect>
                                        <g id="Group" transform="translate(33.710396, 11.056720)" fill-rule="nonzero" fill="#E6E9EE">
                                            <path d="M1.80862138,0.723448552 L0.361724276,0.723448552 C0.230188176,0.723448552 0.0986520753,0.591912452 0.0986520753,0.460376351 L0.0986520753,0.394608301 C0.0986520753,0.263072201 0.230188176,0.1315361 0.361724276,0.1315361 L1.80862138,0.1315361 C1.94015748,0.1315361 2.07169358,0.263072201 2.07169358,0.394608301 L2.07169358,0.460376351 C2.07169358,0.591912452 1.94015748,0.723448552 1.80862138,0.723448552 Z" id="Shape"></path>
                                            <path d="M1.80862138,1.7099693 L0.361724276,1.7099693 C0.230188176,1.7099693 0.0986520753,1.5784332 0.0986520753,1.4468971 L0.0986520753,1.315361 C0.0986520753,1.1838249 0.230188176,1.0522888 0.361724276,1.0522888 L1.80862138,1.0522888 C1.94015748,1.0522888 2.07169358,1.1838249 2.07169358,1.315361 L2.07169358,1.38112905 C2.07169358,1.5784332 1.94015748,1.7099693 1.80862138,1.7099693 Z" id="Shape"></path>
                                        </g>
                                        <rect id="Rectangle-path" fill="#324A5E" fill-rule="nonzero" x="45.8446016" y="12.2405445" width="2.17034566" height="29.9902309"></rect>
                                        <g id="Group" transform="translate(31.572935, 13.523021)" fill-rule="nonzero" fill="#2B3B4E">
                                            <path d="M30.3190711,2.26899773 L0.394608301,2.26899773 C0.197304151,2.26899773 0,2.07169358 0,1.87438943 L0,0.493260376 C0,0.295956226 0.197304151,0.0986520753 0.394608301,0.0986520753 L30.3190711,0.0986520753 C30.5163753,0.0986520753 30.7136794,0.295956226 30.7136794,0.493260376 L30.7136794,1.87438943 C30.7136794,2.13746163 30.5163753,2.26899773 30.3190711,2.26899773 Z" id="Shape"></path>
                                            <path d="M17.4943013,23.2490057 L17.4943013,49.427418 L13.4019188,49.427418 L13.2193781,23.2490057 C13.2193781,22.8543974 13.5482183,22.5255572 13.9428266,22.5255572 L16.7708528,22.5255572 C17.1654611,22.5255572 17.4943013,23.2490057 17.4943013,23.2490057 Z" id="Shape"></path>
                                        </g>
                                    </g>
                                </g>
                                <ellipse id="Oval-7" fill-opacity="0.560000002" fill="#D8D8D8" filter="url(#filter-1)" cx="53.0750008" cy="64.5" rx="52.9249992" ry="1.5"></ellipse>
                            </g>
                        </g>
                    </g>
                </g>
            </g>
        </g>
    </g>
</svg>