<?xml version="1.0" encoding="UTF-8" standalone="no"?>
<svg width="137px" height="77px" viewBox="0 0 137 77" version="1.1" xmlns="http://www.w3.org/2000/svg" xmlns:xlink="http://www.w3.org/1999/xlink">
    <!-- Generator: Sketch 42 (36781) - http://www.bohemiancoding.com/sketch -->
    <title>battery</title>
    <desc>Created with Sketch.</desc>
    <defs>
        <filter x="-50%" y="-50%" width="200%" height="200%" filterUnits="objectBoundingBox" id="filter-1">
            <feGaussianBlur stdDeviation="10 0" in="SourceGraphic"></feGaussianBlur>
        </filter>
    </defs>
    <g id="Page-1" stroke="none" stroke-width="1" fill="none" fill-rule="evenodd">
        <g id="Large-Device-Desktops" transform="translate(-1020.000000, -998.000000)">
            <g id="iot_solutions_manufacturing" transform="translate(80.000000, 633.000000)">
                <g id="Group-15" transform="translate(33.000000, 365.000000)">
                    <g id="Group-14">
                        <g id="Group-4" transform="translate(879.000000, 0.000000)">
                            <g id="battery" transform="translate(55.000000, 0.000000)">
                                <ellipse id="Oval-7" fill="#000000" opacity="0.1" filter="url(#filter-1)" cx="41.5" cy="75.3943662" rx="41.5" ry="1.3943662"></ellipse>
                                <g id="idea-(3)" transform="translate(9.000000, 0.000000)" fill-rule="nonzero">
                                    <g id="Layer_1">
                                        <g id="Group">
                                            <path d="M32.9378472,0 L32.9378472,7.90960159 L32.4661458,7.90960159 L31.9944444,7.90960159 L31.9944444,0 L32.9378472,0 Z" id="Shape" fill="#DCDCDC"></path>
                                            <path d="M32.9378472,57.2653944 L32.9378472,65.174996 L32.1518287,65.174996 L32.1518287,57.2653944 L32.6235301,57.2653944 C32.6233796,57.2653944 32.7806134,57.2653944 32.9378472,57.2653944 Z" id="Shape" fill="#F2F2F2"></path>
                                            <path d="M22.4042361,6.96050996 L23.5047222,9.64972908 C23.3474884,9.64972908 23.1902546,9.80793625 23.1902546,9.80793625 C23.0330208,9.80793625 22.875787,9.96614343 22.875787,9.96614343 L21.7753009,7.2769243 L22.4042361,6.96050996 Z" id="Shape" fill="#DCDCDC"></path>
                                            <path d="M42.2137384,55.2088526 L43.3142245,57.8980717 L42.528206,58.2144861 L41.4277199,55.5252669 C41.5849537,55.5252669 41.7421875,55.3670598 41.7421875,55.3670598 C41.8992708,55.3670598 42.0565046,55.2088526 42.2137384,55.2088526 Z" id="Shape" fill="#F2F2F2"></path>
                                            <path d="M7.3112963,21.6722629 L9.98396991,22.7795618 C9.98396991,22.9377689 9.82673611,23.0959761 9.82673611,23.0959761 C9.82673611,23.2541833 9.66950231,23.4123904 9.66950231,23.4123904 L6.9968287,22.3050916 L7.3112963,21.6722629 Z" id="Shape" fill="#F2F2F2"></path>
                                            <path d="M55.2629398,41.6043984 L57.9356134,42.7116972 L57.6211458,43.5025817 L54.9484722,42.3952829 C54.9484722,42.2370757 55.105706,42.0788685 55.105706,42.0788685 C55.105706,41.9208127 55.2629398,41.7626056 55.2629398,41.6043984 Z" id="Shape" fill="#F2F2F2"></path>
                                            <path d="M6.9968287,42.7116972 L9.66950231,41.6043984 C9.66950231,41.7626056 9.82673611,41.9208127 9.82673611,41.9208127 C9.82673611,42.0790199 9.98396991,42.2372271 9.98396991,42.2372271 L7.3112963,43.5027331 L6.9968287,42.7116972 Z" id="Shape" fill="#F2F2F2"></path>
                                            <path d="M54.9484722,22.7795618 L57.6211458,21.6722629 L57.9356134,22.4631474 L55.2629398,23.5704462 C55.2629398,23.412239 55.105706,23.2540319 55.105706,23.2540319 C55.105706,23.0959761 54.9484722,22.9377689 54.9484722,22.7795618 Z" id="Shape" fill="#F2F2F2"></path>
                                            <path d="M42.528206,6.96050996 L41.4277199,9.64972908 C41.5849537,9.64972908 41.7421875,9.80793625 41.7421875,9.80793625 C41.8994213,9.80793625 42.0566551,9.96614343 42.0566551,9.96614343 L43.1571412,7.2769243 L42.528206,6.96050996 Z" id="Shape" fill="#DCDCDC"></path>
                                            <path d="M22.7187037,55.2088526 L21.6182176,57.8980717 L22.4043866,58.2144861 L23.5048727,55.5252669 C23.3476389,55.5252669 23.1904051,55.3670598 23.1904051,55.3670598 C23.0331713,55.3670598 22.8759375,55.2088526 22.7187037,55.2088526 Z" id="Shape" fill="#F2F2F2"></path>
                                            <path d="M57.6211458,21.6722629 L54.9484722,22.7795618 C54.9484722,22.9377689 55.105706,23.0959761 55.105706,23.0959761 C55.105706,23.2541833 55.2629398,23.4123904 55.2629398,23.4123904 L57.9356134,22.3050916 L57.6211458,21.6722629 Z" id="Shape" fill="#DCDCDC"></path>
                                            <path d="M9.66950231,41.6043984 L6.9968287,42.7116972 L7.3112963,43.5025817 L9.98396991,42.3952829 C9.98396991,42.2370757 9.82673611,42.0788685 9.82673611,42.0788685 C9.82673611,41.9208127 9.66950231,41.7626056 9.66950231,41.6043984 Z" id="Shape" fill="#DCDCDC"></path>
                                            <path d="M57.9356134,42.7116972 L55.2629398,41.6043984 C55.2629398,41.7626056 55.105706,41.9208127 55.105706,41.9208127 C55.105706,42.0790199 54.9484722,42.2372271 54.9484722,42.2372271 L57.6211458,43.3445259 L57.9356134,42.7116972 Z" id="Shape" fill="#DCDCDC"></path>
                                            <path d="M9.98396991,22.7795618 L7.3112963,21.6722629 L6.9968287,22.4631474 L9.66950231,23.5704462 C9.66950231,23.412239 9.82673611,23.2540319 9.82673611,23.2540319 C9.82673611,23.0959761 9.98396991,22.9377689 9.98396991,22.7795618 Z" id="Shape" fill="#DCDCDC"></path>
                                            <path d="M55.7344907,9.80793625 L50.0746759,15.5027888 C49.9174421,15.3445817 49.9174421,15.3445817 49.7602083,15.1863745 C49.6029745,15.0281673 49.6029745,15.0281673 49.4457407,14.8699602 L55.1055556,9.17510757 L55.7344907,9.80793625 Z" id="Shape" fill="#DCDCDC"></path>
                                            <path d="M15.4867014,50.3050359 L9.82688657,55.9998884 L9.19795139,55.3670598 L14.8577662,49.6722072 C15.015,49.8304143 15.015,49.8304143 15.1722338,49.9886215 C15.1722338,50.1468287 15.3294676,50.3050359 15.4867014,50.3050359 Z" id="Shape" fill="#DCDCDC"></path>
                                            <path d="M64.8531481,33.0621195 L56.9923611,33.0621195 L56.9923611,32.587498 L56.9923611,32.1128765 L64.8532986,32.1128765 L64.8532986,33.0621195 L64.8531481,33.0621195 Z" id="Shape" fill="#DCDCDC"></path>
                                            <path d="M7.94008102,33.0621195 L0.0792939815,33.0621195 L0.0792939815,32.2712351 L7.94023148,32.2712351 L7.94023148,32.7458566 C7.94008102,32.9039124 7.94008102,32.9039124 7.94008102,33.0621195 Z" id="Shape" fill="#DCDCDC"></path>
                                            <path d="M55.105706,55.9998884 L49.4458912,50.3050359 L49.7603588,49.9886215 L50.0748264,49.6722072 L55.7346412,55.3670598 L55.105706,55.9998884 Z" id="Shape" fill="#DCDCDC"></path>
                                            <path d="M14.8577662,15.5027888 L9.19795139,9.80793625 L9.82688657,9.17510757 L15.4867014,14.8699602 C15.3294676,15.0281673 15.3294676,15.0281673 15.1722338,15.1863745 C15.015,15.1863745 14.8577662,15.3445817 14.8577662,15.5027888 Z" id="Shape" fill="#DCDCDC"></path>
                                        </g>
                                        <path d="M55.7344907,32.1128765 C55.7344907,18.6666295 44.4147106,7.75139442 30.7367245,8.70048606 C19.1026273,9.49137052 9.82673611,18.9828924 9.04056713,30.5309562 C8.56886574,37.8077291 11.3987731,44.4518247 16.2725694,49.0393785 C19.2597106,51.8868048 20.9891319,55.8416813 20.9891319,59.9546135 L43.6285417,59.9546135 C43.6285417,55.8416813 45.357963,51.8868048 48.3451042,49.0393785 C53.0618171,44.9264462 55.7344907,38.7569721 55.7344907,32.1128765 Z" id="Shape" fill="#BBC0C5"></path>
                                        <path d="M26.806331,71.9772988 C27.5925,74.3501036 29.7934722,75.9320239 32.4661458,75.9320239 C34.9815856,75.9320239 37.1827083,74.1918964 38.1259606,71.9772988 L26.806331,71.9772988 Z" id="Shape" fill="#FFAC74"></path>
                                        <path d="M21.1465162,59.9546135 L21.1465162,69.920757 C21.1465162,71.0280558 22.0897685,71.9772988 23.1904051,71.9772988 L41.8994213,71.9772988 C42.9999074,71.9772988 43.9433102,71.0282072 43.9433102,69.920757 L43.9433102,59.9546135 L21.1465162,59.9546135 Z" id="Shape" fill="#CDD5DF"></path>
                                        <g id="Group" transform="translate(19.861111, 61.768924)" fill="#ABB2B9">
                                            <path d="M24.3965162,6.72811952 L0.813703704,6.72811952 C0.342002315,6.72811952 0.0276851852,7.04453386 0.0276851852,7.51900398 L0.0276851852,7.67721116 C0.0276851852,8.15183267 0.342152778,8.46809562 0.813703704,8.46809562 L24.3965162,8.46809562 C24.8682176,8.46809562 25.1825347,8.15168127 25.1825347,7.67721116 L25.1825347,7.51900398 C25.1825347,7.04453386 24.8682176,6.72811952 24.3965162,6.72811952 Z" id="Shape"></path>
                                            <path d="M24.3965162,3.40607171 L0.813703704,3.40607171 C0.342002315,3.40607171 0.0276851852,3.72248606 0.0276851852,4.19695618 L0.0276851852,4.35516335 C0.0276851852,4.82978486 0.342152778,5.14604781 0.813703704,5.14604781 L24.3965162,5.14604781 C24.8682176,5.14604781 25.1825347,4.82963347 25.1825347,4.35516335 L25.1825347,4.19695618 C25.1825347,3.72248606 24.8682176,3.40607171 24.3965162,3.40607171 Z" id="Shape"></path>
                                            <path d="M24.3965162,0.0840239044 L0.813703704,0.0840239044 C0.342002315,0.0840239044 0.0276851852,0.400438247 0.0276851852,0.874908367 L0.0276851852,1.03311554 C0.0276851852,1.50773705 0.342152778,1.824 0.813703704,1.824 L24.3965162,1.824 C24.8682176,1.824 25.1825347,1.50758566 25.1825347,1.03311554 L25.1825347,0.874908367 C25.1825347,0.400438247 24.8682176,0.0840239044 24.3965162,0.0840239044 Z" id="Shape"></path>
                                        </g>
                                        <path d="M30.736875,11.7061195 C43.7860764,10.7570279 54.9484722,20.8812271 55.7346412,33.6947968 L55.7346412,32.2710837 C55.7346412,18.8248367 44.4148611,7.90960159 30.736875,8.85869323 C19.1026273,9.64972908 9.82673611,19.141251 9.04071759,30.6891633 L9.04071759,33.6947968 C9.98396991,21.9886773 19.2598611,12.4971554 30.736875,11.7061195 Z" id="Shape" fill="#ABADAE"></path>
                                    </g>
                                </g>
                                <g id="graph-(2)" transform="translate(25.000000, 14.000000)" fill-rule="nonzero">
                                    <g id="Capa_1">
                                        <g id="Group">
                                            <g transform="translate(4.450000, 14.500000)" id="Shape" fill="#38454F">
                                                <path d="M3.4490625,4.19036883 L0.1906125,7.44881883 C-0.0635375,7.70296883 -0.0635375,8.11376883 0.1906125,8.36791883 C0.3173625,8.49466883 0.4837625,8.55836883 0.6501625,8.55836883 C0.8165625,8.55836883 0.9829625,8.49466883 1.1097125,8.36791883 L4.3681625,5.10946883 C4.6223125,4.85531883 4.6223125,4.44451883 4.3681625,4.19036883 C4.1140125,3.93621883 3.7025625,3.93686883 3.4490625,4.19036883 Z"></path>
                                                <path d="M10.1097125,4.1906125 C9.8555625,3.9364625 9.4447625,3.9364625 9.1906125,4.1906125 C8.9364625,4.4447625 8.9364625,4.8555625 9.1906125,5.1097125 L13.1068625,9.0259625 C13.2336125,9.1527125 13.4000125,9.2164125 13.5664125,9.2164125 C13.7328125,9.2164125 13.8992125,9.1527125 14.0259625,9.0259625 C14.2801125,8.7718125 14.2801125,8.3610125 14.0259625,8.1068625 L10.1097125,4.1906125 Z"></path>
                                                <path d="M19.9266906,7.06842755 C19.8289446,6.97719082 19.6709512,6.97719082 19.5732053,7.06842755 L17.0733094,9.40184768 C16.9755635,9.49308441 16.9755635,9.64055656 17.0733094,9.73179329 C17.1220574,9.77729498 17.1860547,9.8001625 17.2500521,9.8001625 C17.3140494,9.8001625 17.3780467,9.77729498 17.4267947,9.73179329 L19.9266906,7.39837315 C20.0244365,7.30713643 20.0244365,7.15966427 19.9266906,7.06842755 Z"></path>
                                                <path d="M19.9266906,7.06842755 C19.8289446,6.97719082 19.6709512,6.97719082 19.5732053,7.06842755 L17.0733094,9.40184768 C16.9755635,9.49308441 16.9755635,9.64055656 17.0733094,9.73179329 C17.1220574,9.77729498 17.1860547,9.8001625 17.2500521,9.8001625 C17.3140494,9.8001625 17.3780467,9.77729498 17.4267947,9.73179329 L19.9266906,7.39837315 C20.0244365,7.30713643 20.0244365,7.15966427 19.9266906,7.06842755 Z"></path>
                                                <path d="M25.9022541,0.897991757 C25.7719262,0.767663854 25.5612683,0.767663854 25.4309404,0.897991757 L22.0977459,4.23118621 C21.967418,4.36151411 21.967418,4.572172 22.0977459,4.7024999 C22.1627432,4.76749719 22.248073,4.8001625 22.3334028,4.8001625 C22.4187326,4.8001625 22.5040623,4.76749719 22.5690596,4.7024999 L25.9022541,1.36930545 C26.032582,1.23897755 26.032582,1.02831966 25.9022541,0.897991757 Z"></path>
                                                <path d="M25.9022541,0.897991757 C25.7719262,0.767663854 25.5612683,0.767663854 25.4309404,0.897991757 L22.0977459,4.23118621 C21.967418,4.36151411 21.967418,4.572172 22.0977459,4.7024999 C22.1627432,4.76749719 22.248073,4.8001625 22.3334028,4.8001625 C22.4187326,4.8001625 22.5040623,4.76749719 22.5690596,4.7024999 L25.9022541,1.36930545 C26.032582,1.23897755 26.032582,1.02831966 25.9022541,0.897991757 Z"></path>
                                            </g>
                                            <path d="M5.85,17.85 L4.55,17.85 C4.19055,17.85 3.9,17.55945 3.9,17.2 C3.9,16.84055 4.19055,16.55 4.55,16.55 L5.85,16.55 C6.20945,16.55 6.5,16.84055 6.5,17.2 C6.5,17.55945 6.20945,17.85 5.85,17.85 Z" id="Shape" fill="#BDC3C7"></path>
                                            <path d="M5.85,15.25 L4.55,15.25 C4.19055,15.25 3.9,14.95945 3.9,14.6 C3.9,14.24055 4.19055,13.95 4.55,13.95 L5.85,13.95 C6.20945,13.95 6.5,14.24055 6.5,14.6 C6.5,14.95945 6.20945,15.25 5.85,15.25 Z" id="Shape" fill="#BDC3C7"></path>
                                            <path d="M5.85,12.65 L4.55,12.65 C4.19055,12.65 3.9,12.35945 3.9,12 C3.9,11.64055 4.19055,11.35 4.55,11.35 L5.85,11.35 C6.20945,11.35 6.5,11.64055 6.5,12 C6.5,12.35945 6.20945,12.65 5.85,12.65 Z" id="Shape" fill="#BDC3C7"></path>
                                            <path d="M5.85,10.05 L4.55,10.05 C4.19055,10.05 3.9,9.75945 3.9,9.4 C3.9,9.04055 4.19055,8.75 4.55,8.75 L5.85,8.75 C6.20945,8.75 6.5,9.04055 6.5,9.4 C6.5,9.75945 6.20945,10.05 5.85,10.05 Z" id="Shape" fill="#BDC3C7"></path>
                                            <path d="M5.85,7.45 L4.55,7.45 C4.19055,7.45 3.9,7.15945 3.9,6.8 C3.9,6.44055 4.19055,6.15 4.55,6.15 L5.85,6.15 C6.20945,6.15 6.5,6.44055 6.5,6.8 C6.5,7.15945 6.20945,7.45 5.85,7.45 Z" id="Shape" fill="#BDC3C7"></path>
                                            <path d="M5.85,4.85 L4.55,4.85 C4.19055,4.85 3.9,4.55945 3.9,4.2 C3.9,3.84055 4.19055,3.55 4.55,3.55 L5.85,3.55 C6.20945,3.55 6.5,3.84055 6.5,4.2 C6.5,4.55945 6.20945,4.85 5.85,4.85 Z" id="Shape" fill="#BDC3C7"></path>
                                            <path d="M5.85,2.25 L4.55,2.25 C4.19055,2.25 3.9,1.95945 3.9,1.6 C3.9,1.24055 4.19055,0.95 4.55,0.95 L5.85,0.95 C6.20945,0.95 6.5,1.24055 6.5,1.6 C6.5,1.95945 6.20945,2.25 5.85,2.25 Z" id="Shape" fill="#BDC3C7"></path>
                                            <circle id="Oval" fill="#E86049" cx="3.25" cy="25.25" r="3.25"></circle>
                                            <ellipse id="Oval" fill="#FE944E" cx="11.25" cy="17.25" rx="3.25" ry="3.25"></ellipse>
                                            <ellipse id="Oval" stroke="#FF7058" fill="#BBC0C4" cx="31.25" cy="15.25" rx="3.25" ry="3.25"></ellipse>
                                            <circle id="Oval" fill="#FF7058" cx="19.25" cy="25.25" r="3.25"></circle>
                                        </g>
                                    </g>
                                </g>
                            </g>
                        </g>
                    </g>
                </g>
            </g>
        </g>
    </g>
</svg>