<?xml version="1.0" encoding="UTF-8" standalone="no"?>
<svg width="139px" height="70px" viewBox="0 0 139 70" version="1.1" xmlns="http://www.w3.org/2000/svg" xmlns:xlink="http://www.w3.org/1999/xlink">
    <!-- Generator: Sketch 42 (36781) - http://www.bohemiancoding.com/sketch -->
    <title>predictive_asset_maintenance</title>
    <desc>Created with Sketch.</desc>
    <defs>
        <filter x="-50%" y="-50%" width="200%" height="200%" filterUnits="objectBoundingBox" id="filter-1">
            <feGaussianBlur stdDeviation="10 0" in="SourceGraphic"></feGaussianBlur>
        </filter>
    </defs>
    <g id="Page-1" stroke="none" stroke-width="1" fill="none" fill-rule="evenodd">
        <g id="Large-Device-Desktops" transform="translate(-734.000000, -1007.000000)">
            <g id="iot_solutions_manufacturing" transform="translate(80.000000, 633.000000)">
                <g id="Group-15" transform="translate(33.000000, 365.000000)">
                    <g id="Group-14">
                        <g id="Group-8" transform="translate(601.000000, 10.000000)">
                            <g id="predictive_asset_maintenance" transform="translate(29.000000, 0.000000)">
                                <g id="clouds-(1)" fill-rule="nonzero" stroke="#DCDCDC" fill="#FFFFFF">
                                    <g id="Layer_1">
                                        <path d="M89.7341289,65.8974268 C99.269877,65.8974268 107,58.1224586 107,48.5316497 C107,40.293 101.293682,33.3991529 93.6406738,31.6179936 C93.4841445,14.1860064 79.3879395,0.102573248 62.0190391,0.102573248 C50.0943906,0.102573248 39.7130918,6.7414586 34.3248477,16.5439299 C32.6853652,15.8303312 30.8782773,15.4330701 28.9784004,15.4330701 C22.1341621,15.4330701 16.4855234,20.5661465 15.6207461,27.2125987 C6.71487695,28.9887134 0,36.8881146 0,46.3668917 C0,57.1534777 8.69395898,65.8974268 19.4182012,65.8974268 L89.7341289,65.8974268 Z" id="Shape"></path>
                                    </g>
                                </g>
                                <g id="settings-(5)" transform="translate(34.000000, 13.000000)" fill-rule="nonzero">
                                    <g id="Layer_1">
                                        <path d="M33.4970179,14.0219682 C33.1853877,12.7755467 32.6661034,11.5291252 32.0428429,10.3866799 L33.2892644,7.47842942 L28.926839,3.21988072 L26.0185885,4.46630219 C24.8760437,3.84314115 23.733499,3.32375746 22.3833002,3.01212724 L21.3446322,0 L15.216501,0 L14.0739563,3.01212724 C12.8275348,3.32375746 11.5811133,3.84304175 10.438668,4.46630219 L7.53031809,3.21988072 L3.27176938,7.47842942 L4.51819085,10.3866799 C3.89502982,11.5292247 3.37564612,12.6717694 3.0640159,14.0219682 L0.051888668,15.1645129 L0.051888668,21.2926441 L3.0640159,22.4351889 C3.37564612,23.6816103 3.89493042,24.9280318 4.51819085,26.0704771 L3.27176938,28.9787276 L7.63419483,33.2372763 L10.5424453,31.9908549 C11.6849901,32.6140159 12.8275348,33.1333996 14.1777336,33.4450298 L15.3202783,36.4571571 L21.3445328,36.4571571 L22.4870775,33.4450298 C23.733499,33.1333996 24.9799205,32.6141153 26.1223658,31.9908549 L29.0306163,33.2372763 L33.3930417,28.9787276 L32.1466203,26.0704771 C32.7697813,24.9279324 33.289165,23.7853877 33.6007952,22.4351889 L36.6129225,21.2926441 L36.6129225,15.1645129 L33.4970179,14.0219682 Z M18.2286282,25.6550696 C14.0739563,25.6550696 10.7501988,22.3313121 10.7501988,18.1766402 C10.7501988,14.0219682 14.0739563,10.6982107 18.2286282,10.6982107 C22.3833002,10.6982107 25.7070577,14.0219682 25.7070577,18.1766402 C25.7070577,22.3313121 22.3833002,25.6550696 18.2286282,25.6550696 Z" id="Shape" fill="#FE944E"></path>
                                        <g id="Group" transform="translate(7.057654, 6.958250)">
                                            <path d="M16.4680915,16.5156064 C13.559841,19.4238569 8.88578529,19.4238569 5.97753479,16.5156064 L3.27703777,19.2161034 C7.63946322,23.5785288 14.8062624,23.5785288 19.1685885,19.2161034 C23.5309145,14.8536779 23.5310139,7.79075547 19.1685885,3.32455268 L16.4680915,6.0250497 C19.3764414,8.9333002 19.3764414,13.6073559 16.4680915,16.5156064 Z" id="Shape" fill="#E86049"></path>
                                            <path d="M3.27703777,3.32455268 C-1.08538767,7.68697813 -1.08538767,14.7499006 3.27703777,19.2161034 L5.97753479,16.5156064 C3.06928429,13.6073559 3.06928429,8.9333002 5.97753479,6.0250497 C8.88578529,3.1167992 13.559841,3.1167992 16.4680915,6.0250497 L19.1685885,3.32455268 C14.8062624,-1.03787276 7.63946322,-1.03787276 3.27703777,3.32455268 Z" id="Shape" fill="#F5745E"></path>
                                        </g>
                                        <path d="M35.2627237,42.5852883 C35.3666004,41.9621272 35.3666004,41.4427435 35.2627237,40.8195825 L36.3013917,39.7809145 L35.2627237,37.1842942 L33.8085487,37.1842942 C33.4969185,36.7687873 32.9776342,36.3533797 32.5621272,35.9378728 L32.5621272,34.4836978 L29.965507,33.4450298 L28.926839,34.4836978 C28.3036779,34.3798211 27.7842942,34.3798211 27.1611332,34.4836978 L26.1224652,33.4450298 L23.5258449,34.4836978 L23.5258449,35.9378728 C23.110338,36.249503 22.6949304,36.7687873 22.2794235,37.1842942 L20.8252485,37.1842942 L19.7865805,39.7809145 L20.8252485,40.8195825 C20.7213718,41.4427435 20.7213718,41.9621272 20.8252485,42.5852883 L19.7865805,43.6239563 L20.8252485,46.2205765 L22.2794235,46.2205765 C22.5910537,46.6360835 23.110338,47.0514911 23.5258449,47.466998 L23.5258449,48.921173 L26.1224652,49.959841 L27.1611332,48.921173 C27.7842942,49.0250497 28.3036779,49.0250497 28.926839,48.921173 L29.965507,49.959841 L32.5621272,48.921173 L32.5621272,47.466998 C32.9776342,47.1553678 33.3930417,46.6360835 33.8085487,46.2205765 L35.2627237,46.2205765 L36.3013917,43.6239563 L35.2627237,42.5852883 Z M26.9533797,44.766501 C25.187674,44.0394632 24.3567594,42.066004 25.0837972,40.4040755 C25.810835,38.6383698 27.7842942,37.8074553 29.4462227,38.534493 C31.2119284,39.2615308 32.0428429,41.2349901 31.3158052,42.8969185 C30.588668,44.6626243 28.6152087,45.4935388 26.9533797,44.766501 Z" id="Shape" fill="#FE944E"></path>
                                        <path d="M48.8691849,28.978827 C48.9730616,28.355666 48.9730616,27.8362823 48.8691849,27.2131213 L49.9078529,26.1744533 L48.8691849,23.577833 L47.4150099,23.577833 C47.1033797,23.162326 46.5840954,22.7469185 46.1685885,22.3314115 L46.1685885,20.8772366 L43.5719682,19.8385686 L42.5333002,20.8772366 C41.9101392,20.7733598 41.3907555,20.7733598 40.7675944,20.8772366 L39.7289264,19.8385686 L37.1323062,20.8772366 L37.1323062,22.3314115 C36.7167992,22.6430417 36.3013917,23.162326 35.8858847,23.577833 L34.4317097,23.577833 L33.3930417,26.1744533 L34.4317097,27.2131213 C34.327833,27.8362823 34.327833,28.355666 34.4317097,28.978827 L33.3930417,30.017495 L34.4317097,32.6141153 L35.8858847,32.6141153 C36.1975149,33.0296223 36.7167992,33.4450298 37.1323062,33.8605368 L37.1323062,35.3147117 L39.7289264,36.3533797 L40.7675944,35.3147117 C41.3907555,35.4185885 41.9101392,35.4185885 42.5333002,35.3147117 L43.5719682,36.3533797 L46.1685885,35.3147117 L46.1685885,33.8605368 C46.5840954,33.5489066 46.999503,33.0296223 47.4150099,32.6141153 L48.8691849,32.6141153 L49.9078529,30.017495 L48.8691849,28.978827 Z M40.4560636,31.2638171 C38.6903579,30.5367793 37.8594433,28.5633201 38.5864811,26.9013917 C39.3135189,25.1356859 41.2869781,24.3047714 42.9489066,25.0318091 C44.7146123,25.7588469 45.5455268,27.7323062 44.8184891,29.3942346 C44.1952286,31.1599404 42.2217694,31.9909543 40.4560636,31.2638171 Z" id="Shape" fill="#FF7058"></path>
                                    </g>
                                </g>
                                <ellipse id="Oval-8" fill="#000000" opacity="0.1" filter="url(#filter-1)" cx="60.5" cy="67.5" rx="42.5" ry="1.5"></ellipse>
                            </g>
                        </g>
                    </g>
                </g>
            </g>
        </g>
    </g>
</svg>