<?xml version="1.0" encoding="UTF-8"?>
<svg width="81px" height="69px" viewBox="0 0 81 69" version="1.1" xmlns="http://www.w3.org/2000/svg" xmlns:xlink="http://www.w3.org/1999/xlink">
    <!-- Generator: Sketch 47.1 (45422) - http://www.bohemiancoding.com/sketch -->
    <title>Group 20</title>
    <desc>Created with Sketch.</desc>
    <defs></defs>
    <g id="Page-1" stroke="none" stroke-width="1" fill="none" fill-rule="evenodd">
        <g id="Desktop-HD" transform="translate(-1030.000000, -807.000000)" fill-rule="nonzero">
            <g id="Group-4" transform="translate(240.000000, 807.000000)">
                <g id="Group-31" transform="translate(698.000000, 0.000000)">
                    <g id="Group-20" transform="translate(92.000000, 0.000000)">
                        <g id="Group-18" transform="translate(19.206186, 3.365854)">
                            <g id="file-(1)" transform="translate(3.340206, 0.000000)" fill="#FFEFF0">
                                <path d="M43.0164974,10.8044445 L32.6397207,0.398148604 C32.3934327,0.151729659 32.0548715,0 31.6811424,0 L2.85391044,0 C1.28017751,0 0,1.28369188 0,2.86188446 L0,55.1989778 C0,56.7770569 1.28006443,58.0608622 2.85379736,58.0608622 L40.5596105,58.0608622 C42.1332303,58.0608622 43.4134079,56.7771703 43.4134079,55.1989778 L43.4134079,11.7656258 C43.4067361,11.4027447 43.2721711,11.0609561 43.0164974,10.8044445 Z" id="Shape"></path>
                            </g>
                            <g id="file-(1)" transform="translate(0.000000, 3.365854)" fill="#859DBA">
                                <path d="M43.0210206,10.8044445 L32.6442439,0.398148604 C32.3979559,0.151729659 32.0593947,0 31.6856656,0 L2.85843363,0 C1.28470071,0 0.00452319588,1.28369188 0.00452319588,2.86188446 L0.00452319588,55.1989778 C0.00452319588,56.7770569 1.28458763,58.0608622 2.85832055,58.0608622 L40.5641337,58.0608622 C42.1377535,58.0608622 43.4179311,56.7771703 43.4179311,55.1989778 L43.4179311,11.7656258 C43.4112593,11.4027447 43.2766943,11.0609561 43.0210206,10.8044445 Z M33.0412674,3.27417811 L40.1432275,10.4061825 L33.1839742,10.4061825 C33.1053837,10.4061825 33.0412674,10.3418845 33.0412674,10.2630712 L33.0412674,3.27417811 Z M2.02338209,56.0405546 C1.9709884,56.0405546 1.9709884,38.0456509 2.02338209,2.05584345 C2.02338209,2.00330129 11.7372932,1.99149382 31.1651153,2.02042104 L31.1651153,11.1045347 C31.1651153,12.4037275 31.1651153,12.2837191 33.1840873,12.2837191 L41.3932309,12.2837191 L41.3932309,56.0405546 L2.02338209,56.0405546 Z" id="Shape"></path>
                                <path d="M33.7077603,18.5992439 L9.7149201,18.5992439 C8.96633119,18.5992439 8.2874177,18.8041769 8.2874177,19.5550006 C8.2874177,20.3057108 8.96633119,20.4766671 9.7149201,20.4766671 L33.7076472,20.4766671 C34.4562361,20.4766671 35.0726237,20.3057108 35.0726237,19.5550006 C35.0727367,18.8041769 34.4562361,18.5992439 33.7077603,18.5992439 Z" id="Shape"></path>
                                <path d="M33.7077603,26.8025113 L9.7149201,26.8025113 C8.96633119,26.8025113 8.36295153,27.0075577 8.36295153,27.758268 C8.36295153,28.5089783 8.96633119,28.6799345 9.7149201,28.6799345 L33.7076472,28.6799345 C34.4562361,28.6799345 35.0800649,28.5089783 35.0800649,27.758268 C35.080178,27.0075577 34.4562361,26.8025113 33.7077603,26.8025113 Z" id="Shape"></path>
                                <path d="M33.7077603,35.0056653 L9.7149201,35.0056653 C8.96633119,35.0056653 8.34358388,35.2107271 8.34358388,35.9614374 C8.34358388,36.712261 8.96633119,36.8830885 9.7149201,36.8830885 L33.7076472,36.8830885 C34.4562361,36.8830885 35.104988,36.712261 35.104988,35.9614374 C35.1051011,35.2108405 34.4562361,35.0056653 33.7077603,35.0056653 Z" id="Shape"></path>
                                <path d="M21.7113402,43.2090461 L9.7149201,43.2090461 C8.96633119,43.2090461 8.33756972,43.4141079 8.33756972,44.1648182 C8.33756972,44.9156419 8.96633119,45.0864693 9.7149201,45.0864693 L21.7113402,45.0864693 C22.4599291,45.0864693 23.1194703,44.9156419 23.1194703,44.1648182 C23.1194703,43.4139945 22.4599291,43.2090461 21.7113402,43.2090461 Z" id="Shape"></path>
                            </g>
                        </g>
                        <g id="upload" transform="translate(65.134021, 0.000000)" fill="#FFEFF0">
                            <path d="M1.85767497,9.07457828 L6.86462726,3.85347415 L6.86462726,26.6251369 C6.86462726,27.2486764 7.3429985,27.747508 7.94096254,27.747508 C8.53892659,27.747508 9.01729783,27.2486764 9.01729783,26.6251369 L9.01729783,3.85347415 L14.0242501,9.07457828 C14.2315443,9.29073864 14.5105942,9.40713269 14.7816712,9.40713269 C15.0607211,9.40713269 15.3317982,9.2990525 15.5390924,9.07457828 C15.9616536,8.6339437 15.9616536,7.92726559 15.5390924,7.48663101 L8.69838367,0.353339054 C8.49906232,0.145492551 8.22001243,0.0207846502 7.94096254,0.0207846502 C7.6539398,0.0207846502 7.38286277,0.137178691 7.18354142,0.353339054 L0.34283272,7.48663101 C-0.0797285396,7.92726559 -0.0797285396,8.6339437 0.34283272,9.07457828 C0.757421126,9.50689901 1.44308657,9.50689901 1.85767497,9.07457828 Z" id="Shape"></path>
                        </g>
                        <g id="upload" transform="translate(63.463918, 2.524390)" fill="#859DBA">
                            <path d="M1.85767497,9.07457828 L6.86462726,3.85347415 L6.86462726,26.6251369 C6.86462726,27.2486764 7.3429985,27.747508 7.94096254,27.747508 C8.53892659,27.747508 9.01729783,27.2486764 9.01729783,26.6251369 L9.01729783,3.85347415 L14.0242501,9.07457828 C14.2315443,9.29073864 14.5105942,9.40713269 14.7816712,9.40713269 C15.0607211,9.40713269 15.3317982,9.2990525 15.5390924,9.07457828 C15.9616536,8.6339437 15.9616536,7.92726559 15.5390924,7.48663101 L8.69838367,0.353339054 C8.49906232,0.145492551 8.22001243,0.0207846502 7.94096254,0.0207846502 C7.6539398,0.0207846502 7.38286277,0.137178691 7.18354142,0.353339054 L0.34283272,7.48663101 C-0.0797285396,7.92726559 -0.0797285396,8.6339437 0.34283272,9.07457828 C0.757421126,9.50689901 1.44308657,9.50689901 1.85767497,9.07457828 Z" id="Shape"></path>
                        </g>
                        <g id="upload" transform="translate(8.768041, 53.323848) scale(1, -1) translate(-8.768041, -53.323848) translate(0.000000, 38.177507)">
                            <path d="M1.85767497,8.90143818 L6.86462726,3.77995107 L6.86462726,26.1171377 C6.86462726,26.7287802 7.3429985,27.2180943 7.94096254,27.2180943 C8.53892659,27.2180943 9.01729783,26.7287802 9.01729783,26.1171377 L9.01729783,3.77995107 L14.0242501,8.90143818 C14.2315443,9.11347427 14.5105942,9.22764755 14.7816712,9.22764755 C15.0607211,9.22764755 15.3317982,9.12162951 15.5390924,8.90143818 C15.9616536,8.46921077 15.9616536,7.77601585 15.5390924,7.34378844 L8.69838367,0.346597455 C8.49906232,0.142716599 8.22001243,0.0203880856 7.94096254,0.0203880856 C7.6539398,0.0203880856 7.38286277,0.134561365 7.18354142,0.346597455 L0.34283272,7.34378844 C-0.0797285396,7.77601585 -0.0797285396,8.46921077 0.34283272,8.90143818 C0.757421126,9.32551036 1.44308657,9.32551036 1.85767497,8.90143818 Z" id="Shape" fill="#FFEFF0"></path>
                            <path d="M3.52777807,11.4258284 L8.53473035,6.30434132 L8.53473035,28.6415279 C8.53473035,29.2531705 9.01310159,29.7424845 9.61106564,29.7424845 C10.2090297,29.7424845 10.6874009,29.2531705 10.6874009,28.6415279 L10.6874009,6.30434132 L15.6943532,11.4258284 C15.9016474,11.6378645 16.1806973,11.7520378 16.4517743,11.7520378 C16.7308242,11.7520378 17.0019013,11.6460197 17.2091955,11.4258284 C17.6317567,10.993601 17.6317567,10.3004061 17.2091955,9.86817868 L10.3684868,2.8709877 C10.1691654,2.66710684 9.89011553,2.54477833 9.61106564,2.54477833 C9.32404289,2.54477833 9.05296586,2.65895161 8.85364451,2.8709877 L2.01293581,9.86817868 C1.59037455,10.3004061 1.59037455,10.993601 2.01293581,11.4258284 C2.42752422,11.8499006 3.11318966,11.8499006 3.52777807,11.4258284 Z" id="Shape" fill="#859DBA"></path>
                        </g>
                    </g>
                </g>
            </g>
        </g>
    </g>
</svg>