<?xml version="1.0" encoding="UTF-8"?>
<svg width="43px" height="69px" viewBox="0 0 43 69" version="1.1" xmlns="http://www.w3.org/2000/svg" xmlns:xlink="http://www.w3.org/1999/xlink">
    <!-- Generator: Sketch 47.1 (45422) - http://www.bohemiancoding.com/sketch -->
    <title>Group 33</title>
    <desc>Created with Sketch.</desc>
    <defs></defs>
    <g id="Page-1" stroke="none" stroke-width="1" fill="none" fill-rule="evenodd">
        <g id="Desktop-HD" transform="translate(-699.000000, -1207.000000)">
            <g id="Group-4" transform="translate(240.000000, 807.000000)">
                <g id="Group-36" transform="translate(342.000000, 400.000000)">
                    <g id="Group-33" transform="translate(117.000000, 0.000000)">
                        <rect id="Rectangle-12" fill="#FFEFF0" x="4.47916667" y="0" width="38.1136364" height="64.288465" rx="4.8148375"></rect>
                        <g id="smartphone-(8)" transform="translate(0.000000, 2.792476)" fill-rule="nonzero" fill="#859DBA">
                            <path d="M34.0263369,0 L5.06457219,0 C2.27302139,0 0,2.1815379 0,4.86073569 L0,61.3456845 C0,64.0259857 2.27302139,66.2075236 5.06457219,66.2075236 L34.0251872,66.2075236 C36.8178877,66.2075236 39.0909091,64.0259857 39.0909091,61.3467879 L39.0909091,4.86073569 C39.0909091,2.1815379 36.8178877,0 34.0263369,0 Z M2.29946524,8.82766982 L36.7914439,8.82766982 L36.7914439,50.7591014 L2.29946524,50.7591014 L2.29946524,8.82766982 Z M5.06457219,2.20691745 L34.0251872,2.20691745 C35.5508824,2.20691745 36.7914439,3.39754942 36.7914439,4.86073569 L36.7914439,6.62075236 L2.29946524,6.62075236 L2.29946524,4.86073569 C2.29946524,3.39754942 3.54002674,2.20691745 5.06457219,2.20691745 Z M34.0263369,64.0006062 L5.06457219,64.0006062 C3.54002674,64.0006062 2.29946524,62.8099742 2.29946524,61.3467879 L2.29946524,52.9660189 L36.7914439,52.9660189 L36.7914439,61.3467879 C36.7914439,62.8099742 35.5508824,64.0006062 34.0263369,64.0006062 Z" id="Shape"></path>
                            <path d="M19.5454545,54.8610893 C17.4640261,54.8610893 15.7713322,56.4856564 15.7713322,58.4833125 C15.7713322,60.4809686 17.4640261,62.1055357 19.5454545,62.1055357 C21.626883,62.1055357 23.3195768,60.4809686 23.3195768,58.4833125 C23.3195768,56.4856564 21.626883,54.8610893 19.5454545,54.8610893 Z M19.5454545,60.2944241 C18.5047403,60.2944241 17.6583934,59.4821406 17.6583934,58.4833125 C17.6583934,57.4844845 18.5047403,56.6722009 19.5454545,56.6722009 C20.5861688,56.6722009 21.4325157,57.4844845 21.4325157,58.4833125 C21.4325157,59.4821406 20.5861688,60.2944241 19.5454545,60.2944241 Z" id="Shape"></path>
                            <path d="M14.9465241,5.51729364 L19.5454545,5.51729364 C20.1812567,5.51729364 20.6951872,5.02404758 20.6951872,4.41383491 C20.6951872,3.80362223 20.1812567,3.31037618 19.5454545,3.31037618 L14.9465241,3.31037618 C14.3107219,3.31037618 13.7967914,3.80362223 13.7967914,4.41383491 C13.7967914,5.02404758 14.3107219,5.51729364 14.9465241,5.51729364 Z" id="Shape"></path>
                            <path d="M22.9946524,5.51729364 L24.144385,5.51729364 C24.7801872,5.51729364 25.2941176,5.02404758 25.2941176,4.41383491 C25.2941176,3.80362223 24.7801872,3.31037618 24.144385,3.31037618 L22.9946524,3.31037618 C22.3588503,3.31037618 21.8449198,3.80362223 21.8449198,4.41383491 C21.8449198,5.02404758 22.3588503,5.51729364 22.9946524,5.51729364 Z" id="Shape"></path>
                        </g>
                        <g id="line-chart" transform="translate(2.931818, 22.942592)" fill-rule="nonzero" fill="#859DBA">
                            <path d="M29.6413829,0.04284849 C27.699822,0.04284849 26.1202635,1.57727746 26.1202635,3.46336605 C26.1202635,4.15126993 26.3310915,4.791858 26.6922519,5.32875399 L22.8880854,9.02423176 C22.3353339,8.67339008 21.6759053,8.46858563 20.9677693,8.46858563 C20.2339841,8.46858563 19.5520154,8.68805043 18.9873461,9.06261293 L15.1439934,5.32850231 C15.505089,4.79160632 15.7157875,4.15108117 15.7157875,3.46330313 C15.7157875,1.57721454 14.136229,0.04278557 12.1946682,0.04278557 C10.2531073,0.04278557 8.67354882,1.57721454 8.67354882,3.46330313 C8.67354882,4.15108117 8.88431207,4.79141756 9.24527813,5.32831355 L5.4409821,9.02398008 C4.88836009,8.67326424 4.22906105,8.46858563 3.52111935,8.46858563 C1.57955848,8.46858563 0,10.0030775 0,11.8891661 C0,13.7752547 1.57955848,15.3096837 3.52111935,15.3096837 C5.46268022,15.3096837 7.0422387,13.7752547 7.0422387,11.8891661 C7.0422387,11.2012622 6.83141069,10.5606742 6.47025031,10.0237153 L10.2744168,6.32823749 C10.8271684,6.67907916 11.4865969,6.88388362 12.1947329,6.88388362 C12.9028042,6.88388362 13.5622328,6.67907916 14.1149195,6.32823749 L17.9795169,10.0829229 C17.6423216,10.6075495 17.4467147,11.2264302 17.4467147,11.8891032 C17.4467147,13.7751918 19.0262732,15.3096208 20.967834,15.3096208 C22.9093949,15.3096208 24.4889534,13.7751918 24.4889534,11.8891032 C24.4889534,11.2013252 24.2781901,10.5609258 23.9172241,10.0240928 L27.7215849,6.32842625 C28.2742717,6.67914208 28.9335707,6.8838207 29.6414476,6.8838207 C31.5830085,6.8838207 33.162567,5.34939173 33.162567,3.46330313 C33.162567,1.57715162 31.5829437,0.04284849 29.6413829,0.04284849 Z M3.52111935,13.8958093 C2.38206512,13.8958093 1.45539341,12.9956135 1.45539341,11.8891661 C1.45539341,10.7826558 2.38206512,9.88245996 3.52111935,9.88245996 C4.66010881,9.88245996 5.5868453,10.7826558 5.5868453,11.8891661 C5.5868453,12.9956135 4.66017358,13.8958093 3.52111935,13.8958093 Z M12.1947329,5.47000929 C11.0557435,5.47000929 10.129007,4.56981348 10.129007,3.46330313 C10.129007,2.35685571 11.0556787,1.45659698 12.1947329,1.45659698 C13.3337872,1.45659698 14.2604589,2.35679279 14.2604589,3.46330313 C14.2604589,4.56981348 13.3337872,5.47000929 12.1947329,5.47000929 Z M20.9677693,13.8958093 C19.8287798,13.8958093 18.9020433,12.9956135 18.9020433,11.8891032 C18.9020433,10.7825928 19.828715,9.88239704 20.9677693,9.88239704 C22.1067587,9.88239704 23.0334952,10.7825928 23.0334952,11.8891032 C23.0334304,12.9956135 22.1067587,13.8958093 20.9677693,13.8958093 Z M29.6413829,5.47000929 C28.5023934,5.47000929 27.5756569,4.56981348 27.5756569,3.46330313 C27.5756569,2.35685571 28.5023286,1.45659698 29.6413829,1.45659698 C30.7803723,1.45659698 31.7071088,2.35679279 31.7071088,3.46330313 C31.7071088,4.56981348 30.7803723,5.47000929 29.6413829,5.47000929 Z" id="Shape"></path>
                            <path d="M11.4497425,8.72806753 C11.1655295,8.45203768 10.7048169,8.45203768 10.4206038,8.72806753 L8.94033856,10.1660402 C8.65619032,10.44207 8.65619032,10.8896826 8.94040333,11.1657754 C9.08250984,11.3038218 9.26872506,11.372845 9.45494028,11.372845 C9.6411555,11.372845 9.8274355,11.3037588 9.96947723,11.1657754 L11.4497425,9.72780271 C11.7340203,9.45177286 11.7340203,9.00409737 11.4497425,8.72806753 Z" id="Shape"></path>
                            <path d="M24.2217103,4.21179893 C23.9374973,3.93576908 23.4768494,3.93576908 23.1925068,4.21186185 L21.7122415,5.64983452 C21.4280933,5.92586437 21.4280933,6.37347694 21.7122415,6.6495697 C21.8544128,6.78755317 22.040628,6.85657636 22.2268433,6.85657636 C22.4131233,6.85657636 22.5992737,6.78749025 22.7413802,6.64950678 L24.2216455,5.21153411 C24.5058585,4.93544134 24.5058585,4.48782878 24.2217103,4.21179893 Z" id="Shape"></path>
                        </g>
                    </g>
                </g>
            </g>
        </g>
    </g>
</svg>