<?xml version="1.0" encoding="UTF-8" standalone="no"?>
<svg width="22px" height="17px" viewBox="0 0 22 17" version="1.1" xmlns="http://www.w3.org/2000/svg" xmlns:xlink="http://www.w3.org/1999/xlink">
    <!-- Generator: Sketch 41 (35326) - http://www.bohemiancoding.com/sketch -->
    <title>cctv (2)</title>
    <desc>Created with Sketch.</desc>
    <defs></defs>
    <g id="Page-1" stroke="none" stroke-width="1" fill="none" fill-rule="evenodd">
        <g id="ExSitu" transform="translate(-987.000000, -264.000000)">
            <g id="cctv-(2)" transform="translate(987.000000, 264.000000)">
                <g id="Layer_1">
                    <g id="Group">
                        <path d="M21.9703175,16.9811802 L21.2127143,16.9811802 C20.7941468,16.9811802 20.4551111,16.6364308 20.4551111,16.2108094 L20.4551111,9.19083029 C20.4551111,8.76560836 20.7941468,8.42045953 21.2127143,8.42045953 L21.9703175,8.42045953 L21.9703175,16.9811802 Z" id="Shape" fill="#5C6C58"></path>
                        <g transform="translate(0.916667, 0.000000)" id="Shape">
                            <path d="M14.2352659,12.744141 C14.2352659,11.6806423 13.387131,10.8182141 12.3412579,10.8182141 C11.2953849,10.8182141 10.44725,11.6806423 10.44725,12.744141 C10.44725,13.8076397 11.2953849,14.6700679 12.3412579,14.6700679 C13.387131,14.6700679 14.2352659,13.8076397 14.2352659,12.744141" fill="#5D6C58"></path>
                            <polygon fill="#86B179" points="14.9325 4.32013055 4.31924603 15.112201 0.0335238095 10.7546527 10.8259206 0.0330234987"></polygon>
                        </g>
                        <polygon id="Shape" fill="#5D6C58" points="4.70005556 14.5676684 3.68940873 15.5953473 0.474920635 12.3270862 1.48591667 11.2994073"></polygon>
                        <polygon id="Shape" fill="#A7BAA1" points="3.15350794 15.0507702 2.14286111 16.0784491 0 13.8998747 1.01064683 12.8717963"></polygon>
                        <g transform="translate(9.559524, 1.819843)" id="Shape">
                            <path d="M5.20500794,9.76874151 C5.44478175,10.0915196 5.59253968,10.4886449 5.59253968,10.9242977 C5.59253968,11.3599504 5.4448254,11.7570757 5.20500794,12.0798538 L10.8957183,12.0798538 L10.8957183,9.76874151 L5.20500794,9.76874151 Z" fill="#86B179"></path>
                            <path d="M3.35425794,9.03365796 L1.60949206,7.25948825 L0.00222619048,8.89344125 L1.82237698,10.7442663 C1.90195238,9.88339164 2.53074206,9.18772324 3.35425794,9.03365796" fill="#86B179"></path>
                            <path d="M3.61109921,3.43013838 C3.70809127,3.43013838 3.80503968,3.39240992 3.87889683,3.31726371 L5.48576984,1.6833107 C5.48956746,1.67944909 5.49070238,1.67407833 5.4945,1.67021671 L4.97138889,1.12404178 C4.96492857,1.13021149 4.95663492,1.1321201 4.9501746,1.1386893 L3.34330159,2.7726423 C3.19519444,2.92324543 3.19519444,3.16670496 3.34330159,3.31730809 C3.41715873,3.39236554 3.51410714,3.43013838 3.61109921,3.43013838" fill="#5D6C58"></path>
                            <path d="M3.07541667,1.79614099 C3.17240873,1.79614099 3.26935714,1.75841253 3.34321429,1.68326632 L4.43906746,0.568545692 L3.91141667,0.0173550914 C3.90988889,0.0185091384 3.90840476,0.0189086162 3.90687698,0.0204177546 L2.80761905,1.13860052 C2.6595119,1.28920366 2.6595119,1.53266319 2.80761905,1.68326632 C2.88147619,1.75841253 2.97846825,1.79614099 3.07541667,1.79614099" fill="#5D6C58"></path>
                        </g>
                    </g>
                </g>
            </g>
        </g>
    </g>
</svg>