<?xml version="1.0" encoding="UTF-8" standalone="no"?>
<svg width="44px" height="45px" viewBox="0 0 44 45" version="1.1" xmlns="http://www.w3.org/2000/svg" xmlns:xlink="http://www.w3.org/1999/xlink">
    <!-- Generator: Sketch 41 (35326) - http://www.bohemiancoding.com/sketch -->
    <title>z</title>
    <desc>Created with Sketch.</desc>
    <defs>
        <linearGradient x1="50%" y1="0%" x2="50%" y2="100%" id="linearGradient-1">
            <stop stop-color="#01C3C4" offset="0%"></stop>
            <stop stop-color="#06AAC6" offset="100%"></stop>
        </linearGradient>
        <ellipse id="path-2" cx="21.0087891" cy="21.6653137" rx="20.5" ry="21.140625"></ellipse>
    </defs>
    <g id="Page-1" stroke="none" stroke-width="1" fill="none" fill-rule="evenodd">
        <g id="ExSitu_mobile" transform="translate(-24.000000, -1273.000000)">
            <g id="Group-6" transform="translate(0.000000, 1274.000000)">
                <g id="Group-3">
                    <g id="z" transform="translate(25.000000, 0.000000)">
                        <mask id="mask-3" fill="white">
                            <use xlink:href="#path-2"></use>
                        </mask>
                        <use id="Combined-Shape" stroke="url(#linearGradient-1)" stroke-width="1.5" fill="#FFFFFF" xlink:href="#path-2"></use>
                        <g id="fire-truck" mask="url(#mask-3)">
                            <g transform="translate(6.140793, 11.920469)" id="Layer_1">
                                <g>
                                    <path d="M25.8764439,2.88902291 C25.8290785,2.71022524 25.6448342,2.5639696 25.4670968,2.5639696 L23.5603473,2.5639696 C23.3826099,2.5639696 23.1983656,2.71016407 23.1510589,2.88902291 L22.7239498,4.50083222 C22.676643,4.67962989 22.7832738,4.82588553 22.9610112,4.82588553 L26.0665502,4.82588553 C26.2442876,4.82588553 26.350977,4.67956872 26.303553,4.50083222 L25.8764439,2.88902291 Z" id="Shape" fill="#FF8189"></path>
                                    <rect id="Rectangle-path" fill="#A4A9AD" x="4.29313208" y="2.19530263" width="1.63205378" height="1.70032119"></rect>
                                    <rect id="Rectangle-path" fill="#000000" opacity="0.1" x="4.29313208" y="2.19530263" width="1.63205378" height="0.741921636"></rect>
                                    <rect id="Rectangle-path" fill="#A4A9AD" x="8.23594797" y="2.19530263" width="1.63205378" height="1.70032119"></rect>
                                    <rect id="Rectangle-path" fill="#000000" opacity="0.1" x="8.23594797" y="2.19530263" width="1.63205378" height="0.741921636"></rect>
                                    <rect id="Rectangle-path" fill="#A4A9AD" x="12.1787639" y="2.19530263" width="1.63205378" height="1.70032119"></rect>
                                    <rect id="Rectangle-path" fill="#000000" opacity="0.1" x="12.1787639" y="2.19530263" width="1.63205378" height="0.741921636"></rect>
                                    <path d="M1.01917629,16.2604339 L1.01917629,5.5822431 C1.01917629,4.65485635 1.74630516,3.896052 2.63510942,3.896052 L27.3786532,3.896052 C28.2673989,3.896052 28.9945864,4.65479518 28.9945864,5.5822431 L28.9945864,16.2604339 L1.01917629,16.2604339 Z" id="Shape" fill="#FF5959"></path>
                                    <rect id="Rectangle-path" fill="#D1D3D3" x="1.01917629" y="10.4912576" width="27.9752342" height="1.32504794"></rect>
                                    <g id="Group" transform="translate(0.000000, 15.108801)" fill="#A4A9AD">
                                        <path d="M30.013704,1.66135639 C30.013704,2.00641204 29.7431117,2.28883039 29.4124334,2.28883039 L28.0595305,2.28883039 C27.7288522,2.28883039 27.4582013,2.00641204 27.4582013,1.66135639 L27.4582013,0.64184877 C27.4582013,0.296793122 27.7287936,0.0143747699 28.0595305,0.0143747699 L29.4124334,0.0143747699 C29.7431117,0.0143747699 30.013704,0.296731953 30.013704,0.64184877 L30.013704,1.66135639 Z" id="Shape"></path>
                                        <path d="M2.29686904,1.66135639 C2.29686904,2.00641204 2.02621812,2.28883039 1.69553979,2.28883039 L0.601270629,2.28883039 C0.2705923,2.28883039 0,2.00641204 0,1.66135639 L0,0.64184877 C0,0.296793122 0.270475059,0.0143747699 0.601270629,0.0143747699 L1.69559842,0.0143747699 C2.02627674,0.0143747699 2.29692766,0.296731953 2.29692766,0.64184877 L2.29692766,1.66135639 L2.29686904,1.66135639 L2.29686904,1.66135639 Z" id="Shape"></path>
                                    </g>
                                    <path d="M11.6098517,16.2604339 C11.6098517,13.992401 9.84777767,12.1537762 7.67430481,12.1537762 C5.50083195,12.1537762 3.73875787,13.9924622 3.73875787,16.2604339 L11.6098517,16.2604339 Z" id="Shape" fill="#000000" opacity="0.2"></path>
                                    <ellipse id="Oval" fill="#333E48" cx="7.67424619" cy="16.2606174" rx="3.25701447" ry="3.3986238"></ellipse>
                                    <ellipse id="Oval" fill="#A4A9AD" cx="7.67424619" cy="16.2606174" rx="1.65081234" ry="1.72258679"></ellipse>
                                    <path d="M26.2749461,16.2604339 C26.2749461,13.992401 24.5128721,12.1537762 22.3393992,12.1537762 C20.1659263,12.1537762 18.4038523,13.9924622 18.4038523,16.2604339 L26.2749461,16.2604339 Z" id="Shape" fill="#000000" opacity="0.2"></path>
                                    <ellipse id="Oval" fill="#333E48" cx="22.3395751" cy="16.2606174" rx="3.25701447" ry="3.3986238"></ellipse>
                                    <ellipse id="Oval" fill="#A4A9AD" cx="22.3395751" cy="16.2606174" rx="1.65081234" ry="1.72258679"></ellipse>
                                    <path d="M22.3393992,0.711704034 C22.3393992,0.340773801 22.0485242,0.0372520633 21.6930494,0.0372520633 L3.17699747,0.0372520633 C2.82152266,0.0372520633 2.53064766,0.340773801 2.53064766,0.711704034 L2.53064766,1.52103417 C2.53064766,1.8919644 2.82152266,2.19548614 3.17699747,2.19548614 L21.6929908,2.19548614 C22.0484656,2.19548614 22.3393406,1.8919644 22.3393406,1.52103417 L22.3393406,0.711704034 L22.3393992,0.711704034 Z" id="Shape" fill="#D1D3D3"></path>
                                    <path d="M22.6625741,8.16511399 C22.6625741,8.46190712 22.8952389,8.70468781 23.1796657,8.70468781 L26.9429855,8.70468781 C27.2274123,8.70468781 27.4600771,8.46190712 27.4600771,8.16511399 L27.4600771,5.82692004 C27.4600771,5.53012691 27.2274123,5.28734622 26.9429855,5.28734622 L23.1796657,5.28734622 C22.8952389,5.28734622 22.6625741,5.53012691 22.6625741,5.82692004 L22.6625741,8.16511399 Z" id="Shape" fill="#333E48"></path>
                                    <path d="M26.9429855,5.28734622 L23.1796657,5.28734622 C22.8952389,5.28734622 22.6625741,5.53012691 22.6625741,5.82692004 L22.6625741,6.52369878 C22.6625741,6.22690565 22.8952389,5.98412497 23.1796657,5.98412497 L26.9429855,5.98412497 C27.2274123,5.98412497 27.4600771,6.22690565 27.4600771,6.52369878 L27.4600771,5.82692004 C27.4600771,5.53012691 27.2273537,5.28734622 26.9429855,5.28734622 Z" id="Shape" fill="#000000" opacity="0.1"></path>
                                    <path d="M17.9506571,8.16511399 C17.9506571,8.46190712 18.1833219,8.70468781 18.4677486,8.70468781 L20.6804972,8.70468781 C20.964924,8.70468781 21.1975888,8.46190712 21.1975888,8.16511399 L21.1975888,5.82692004 C21.1975888,5.53012691 20.964924,5.28734622 20.6804972,5.28734622 L18.4677486,5.28734622 C18.1833219,5.28734622 17.9506571,5.53012691 17.9506571,5.82692004 L17.9506571,8.16511399 Z" id="Shape" fill="#333E48"></path>
                                    <path d="M20.6804972,5.28734622 L18.4677486,5.28734622 C18.1833219,5.28734622 17.9506571,5.53012691 17.9506571,5.82692004 L17.9506571,6.52369878 C17.9506571,6.22690565 18.1833219,5.98412497 18.4677486,5.98412497 L20.6804972,5.98412497 C20.964924,5.98412497 21.1975888,6.22690565 21.1975888,6.52369878 L21.1975888,5.82692004 C21.1975888,5.53012691 20.9649826,5.28734622 20.6804972,5.28734622 Z" id="Shape" fill="#000000" opacity="0.1"></path>
                                    <rect id="Rectangle-path" fill="#A4A9AD" x="12.5794937" y="9.68186631" width="4.85418904" height="6.57875109"></rect>
                                    <g id="Group" transform="translate(13.541339, 10.888124)" fill="#D1D3D3">
                                        <ellipse id="Oval" cx="0.503491609" cy="0.525137872" rx="0.452198658" ry="0.471859469"></ellipse>
                                        <ellipse id="Oval" cx="2.42771004" cy="0.525137872" rx="0.452198658" ry="0.471859469"></ellipse>
                                        <path d="M2.42765141,2.69003939 L0.502964024,2.69003939 C0.235244129,2.69003939 0.0181723599,2.46352972 0.0181723599,2.18416983 C0.0181723599,1.90480994 0.235244129,1.67830027 0.502964024,1.67830027 L2.42765141,1.67830027 C2.69542993,1.67830027 2.91244308,1.90480994 2.91244308,2.18416983 C2.91244308,2.46352972 2.69537131,2.69003939 2.42765141,2.69003939 Z" id="Shape"></path>
                                        <path d="M2.42765141,4.23462371 L0.502964024,4.23462371 C0.235244129,4.23462371 0.0181723599,4.00811404 0.0181723599,3.72875415 C0.0181723599,3.44939426 0.235244129,3.22288459 0.502964024,3.22288459 L2.42765141,3.22288459 C2.69542993,3.22288459 2.91244308,3.44939426 2.91244308,3.72875415 C2.91244308,4.00811404 2.69537131,4.23462371 2.42765141,4.23462371 Z" id="Shape"></path>
                                    </g>
                                    <g id="Group" transform="translate(0.996549, 6.483939)" fill="#FFB819">
                                        <path d="M27.997979,8.63923673 L26.6143589,8.63923673 C26.4366215,8.63923673 26.291184,8.48747586 26.291184,8.30201074 L26.291184,7.44723187 C26.291184,7.26176675 26.4366215,7.11000588 26.6143589,7.11000588 L27.997979,7.11000588 L27.997979,8.63923673 Z" id="Shape"></path>
                                        <path d="M0.022627519,8.63923673 L1.40624755,8.63923673 C1.58398495,8.63923673 1.72942245,8.48747586 1.72942245,8.30201074 L1.72942245,7.44723187 C1.72942245,7.26176675 1.58398495,7.11000588 1.40624755,7.11000588 L0.022627519,7.11000588 L0.022627519,8.63923673 Z" id="Shape"></path>
                                        <rect id="Rectangle-path" x="3.05096336" y="0.00636160031" width="10.6430236" height="1.01167796"></rect>
                                    </g>
                                    <g id="Group" transform="translate(3.165508, 5.749908)" fill="#D1D3D3">
                                        <path d="M12.3984149,0.369095156 C12.3984149,0.18363004 12.2529774,0.0318691708 12.07524,0.0318691708 L10.9753433,0.0318691708 C10.7976059,0.0318691708 10.6521684,0.18363004 10.6521684,0.369095156 L10.6521684,2.1231841 C10.6521684,2.30864922 10.7976059,2.46041009 10.9753433,2.46041009 L12.07524,2.46041009 C12.2529774,2.46041009 12.3984149,2.30864922 12.3984149,2.1231841 L12.3984149,0.369095156 Z" id="Shape"></path>
                                        <path d="M1.7552741,0.369095156 C1.7552741,0.18363004 1.6098366,0.0318691708 1.4320992,0.0318691708 L0.332202462,0.0318691708 C0.154465059,0.0318691708 0.00902755941,0.18363004 0.00902755941,0.369095156 L0.00902755941,2.1231841 C0.00902755941,2.30864922 0.154465059,2.46041009 0.332202462,2.46041009 L1.43204058,2.46041009 C1.60977798,2.46041009 1.75521548,2.30864922 1.75521548,2.1231841 L1.75521548,0.369095156 L1.7552741,0.369095156 Z" id="Shape"></path>
                                    </g>
                                </g>
                            </g>
                        </g>
                    </g>
                </g>
            </g>
        </g>
    </g>
</svg>