<?xml version="1.0" encoding="UTF-8" standalone="no"?>
<svg width="43px" height="43px" viewBox="0 0 43 43" version="1.1" xmlns="http://www.w3.org/2000/svg" xmlns:xlink="http://www.w3.org/1999/xlink">
    <!-- Generator: Sketch 41 (35326) - http://www.bohemiancoding.com/sketch -->
    <title>Group 4</title>
    <desc>Created with Sketch.</desc>
    <defs>
        <linearGradient x1="50%" y1="0%" x2="50%" y2="100%" id="linearGradient-1">
            <stop stop-color="#01C3C4" offset="0%"></stop>
            <stop stop-color="#06AAC6" offset="100%"></stop>
        </linearGradient>
        <circle id="path-2" cx="20.6131292" cy="20.6131292" r="20.5"></circle>
    </defs>
    <g id="Page-1" stroke="none" stroke-width="1" fill="none" fill-rule="evenodd">
        <g id="ExSitu_mobile" transform="translate(-25.000000, -1831.000000)">
            <g id="Group-5" transform="translate(0.000000, 1817.000000)">
                <g id="Group-4" transform="translate(26.000000, 15.000000)">
                    <mask id="mask-3" fill="white">
                        <use xlink:href="#path-2"></use>
                    </mask>
                    <use id="Combined-Shape" stroke="url(#linearGradient-1)" stroke-width="1.5" fill="#FFFFFF" xlink:href="#path-2"></use>
                    <g id="safe-box" mask="url(#mask-3)">
                        <g transform="translate(8.509434, 8.509434)" id="Layer_1">
                            <g>
                                <g id="Group" transform="translate(2.006816, 20.903766)" fill="#26443E">
                                    <path d="M5.06743874,1.30208459 C5.06743874,2.00075629 4.5039339,2.56708332 3.80902821,2.56708332 L1.29010911,2.56708332 C0.595157807,2.56708332 0.0316985728,2.00071045 0.0316985728,1.30208459 L0.0316985728,1.30208459 C0.0316985728,0.603596245 0.595203417,0.0372692145 1.29010911,0.0372692145 L3.80880016,0.0372692145 C4.5039339,0.0372692145 5.06743874,0.60345872 5.06743874,1.30208459 L5.06743874,1.30208459 Z" id="Shape"></path>
                                    <path d="M18.7592154,1.30208459 C18.7592154,2.00075629 18.1957105,2.56708332 17.5008048,2.56708332 L14.9821138,2.56708332 C14.2871625,2.56708332 13.7237032,2.00071045 13.7237032,1.30208459 L13.7237032,1.30208459 C13.7237032,0.603596245 14.2872081,0.0372692145 14.9821138,0.0372692145 L17.5008048,0.0372692145 C18.1957561,0.0372692145 18.7592154,0.60345872 18.7592154,1.30208459 L18.7592154,1.30208459 Z" id="Shape"></path>
                                </g>
                                <path d="M22.77116,21.8211938 C22.77116,22.0132701 22.6161791,22.1692232 22.424893,22.1692232 L0.379881169,22.1692232 C0.188595106,22.1692232 0.03361417,22.0132243 0.03361417,21.8211938 L0.03361417,0.348029368 C0.0333861227,0.15576973 0.188595106,0 0.379881169,0 L22.4247106,0 C22.6159967,0 22.7709776,0.15576973 22.7709776,0.348029368 L22.7709776,21.8211938 L22.77116,21.8211938 Z" id="Shape" fill="#416B62"></path>
                                <g id="Group" opacity="0.6" transform="translate(2.098035, 1.741981)" fill="#65A598">
                                    <path d="M18.5735849,17.2666483 C18.5735849,18.0355952 17.9533875,18.6589491 17.1883344,18.6589491 L1.42018728,18.6589491 C0.655134243,18.6589491 0.0349368442,18.0355952 0.0349368442,17.2666483 L0.0349368442,1.41843055 C0.0349368442,0.649483679 0.655134243,0.0261297076 1.42018728,0.0261297076 L17.1883344,0.0261297076 C17.9533875,0.0261297076 18.5735849,0.649483679 18.5735849,1.41843055 L18.5735849,17.2666483 L18.5735849,17.2666483 Z" id="Shape"></path>
                                </g>
                                <g id="Group" transform="translate(6.476543, 5.317625)" fill="#416B62">
                                    <rect id="Rectangle-path" x="4.5068529" y="0.0065095061" width="0.838712309" height="4.6756132"></rect>
                                    <polygon id="Shape" points="3.39585214 6.03499978 0.0171035465 8.91380593 0.83442502 9.30070896 4.21321922 6.42190281"></polygon>
                                    <polygon id="Shape" points="6.45560818 6.03499978 5.6382411 6.42190281 9.0170353 9.30070896 9.83435677 8.91380593"></polygon>
                                </g>
                                <g id="Group" transform="translate(5.336306, 4.950892)" fill="#26443E">
                                    <path d="M6.06605781,0.0409365419 C2.71823243,0.0409365419 0.00419607006,2.76878633 0.00419607006,6.13365088 C0.00419607006,9.49851544 2.71823243,12.2263652 6.06605781,12.2263652 C9.41388319,12.2263652 12.1279195,9.49851544 12.1279195,6.13365088 C12.1279195,2.76878633 9.41370075,0.0409365419 6.06605781,0.0409365419 Z M6.06605781,10.658812 C3.57938459,10.658812 1.56362902,8.63298033 1.56362902,6.13365088 C1.56362902,3.63432143 3.57938459,1.60848979 6.06605781,1.60848979 C8.55254859,1.60848979 10.5683042,3.63432143 10.5683042,6.13365088 C10.5683042,8.63298033 8.55254859,10.658812 6.06605781,10.658812 Z" id="Shape"></path>
                                    <path d="M6.06605781,4.59717824 C5.22164432,4.59717824 4.53718319,5.28512301 4.53718319,6.13383425 C4.53718319,6.98254549 5.22164432,7.67049026 6.06605781,7.67049026 C6.91028886,7.67049026 7.59493242,6.98254549 7.59493242,6.13383425 C7.59493242,5.28512301 6.91028886,4.59717824 6.06605781,4.59717824 Z" id="Shape"></path>
                                </g>
                                <g id="Group" opacity="0.5" transform="translate(10.627004, 10.314358)" fill="#5F7C77">
                                    <path d="M0.775360772,0.0106352494 C0.357851801,0.0106352494 0.0196576761,0.350734022 0.0196576761,0.770184591 C0.0196576761,1.18963516 0.358034239,1.52973393 0.775360772,1.52973393 C1.19268731,1.52973393 1.53106387,1.18963516 1.53106387,0.770184591 C1.53106387,0.350734022 1.19268731,0.0106352494 0.775360772,0.0106352494 Z" id="Shape"></path>
                                </g>
                                <g id="Group" transform="translate(1.550722, 5.363466)" fill="#26443E">
                                    <path d="M1.12085241,3.91835594 C1.12085241,4.21738064 0.879715211,4.45974514 0.582204721,4.45974514 L0.582204721,4.45974514 C0.284739841,4.45974514 0.0435570316,4.21738064 0.0435570316,3.91835594 L0.0435570316,0.545698314 C0.0435570316,0.246902816 0.284694232,0.00430910967 0.582204721,0.00430910967 L0.582204721,0.00430910967 C0.879669601,0.00430910967 1.12085241,0.246856974 1.12085241,0.545698314 L1.12085241,3.91835594 Z" id="Shape"></path>
                                    <path d="M1.12085241,12.198081 C1.12085241,12.4970598 0.879715211,12.7396535 0.582204721,12.7396535 L0.582204721,12.7396535 C0.284739841,12.7396535 0.0435570316,12.4971057 0.0435570316,12.198081 L0.0435570316,8.8256067 C0.0435570316,8.52662784 0.284694232,8.2842175 0.582204721,8.2842175 L0.582204721,8.2842175 C0.879669601,8.2842175 1.12085241,8.526582 1.12085241,8.8256067 L1.12085241,12.198081 Z" id="Shape"></path>
                                </g>
                            </g>
                        </g>
                    </g>
                </g>
            </g>
        </g>
    </g>
</svg>