<?xml version="1.0" encoding="UTF-8" standalone="no"?>
<svg width="43px" height="43px" viewBox="0 0 43 43" version="1.1" xmlns="http://www.w3.org/2000/svg" xmlns:xlink="http://www.w3.org/1999/xlink">
    <!-- Generator: Sketch 41 (35326) - http://www.bohemiancoding.com/sketch -->
    <title>Group 4</title>
    <desc>Created with Sketch.</desc>
    <defs>
        <linearGradient x1="50%" y1="0%" x2="50%" y2="100%" id="linearGradient-1">
            <stop stop-color="#01C3C4" offset="0%"></stop>
            <stop stop-color="#06AAC6" offset="100%"></stop>
        </linearGradient>
        <circle id="path-2" cx="20.5" cy="20.5" r="20.3868708"></circle>
    </defs>
    <g id="Page-1" stroke="none" stroke-width="1" fill="none" fill-rule="evenodd">
        <g id="ExSitu_mobile" transform="translate(-25.000000, -1551.000000)">
            <g id="Group-5" transform="translate(0.000000, 1537.000000)">
                <g id="Group-4" transform="translate(26.000000, 15.000000)">
                    <mask id="mask-3" fill="white">
                        <use xlink:href="#path-2"></use>
                    </mask>
                    <use id="Combined-Shape" stroke="url(#linearGradient-1)" stroke-width="1.5" fill="#FFFFFF" xlink:href="#path-2"></use>
                    <g id="Layer_1" mask="url(#mask-3)">
                        <g transform="translate(8.509434, 12.377358)" id="Group">
                            <g>
                                <path d="M22.6378556,17.7477772 L1.34565555,17.7477772 C0.611899521,17.7477772 0.0173197065,17.140306 0.0173197065,16.3906409 L0.0173197065,1.38659599 C0.0173197065,0.636930921 0.611899521,0.029459635 1.34565555,0.029459635 L22.6378556,0.029459635 C23.3716116,0.029459635 23.9661914,0.636930921 23.9661914,1.38659599 L23.9661914,16.3906409 C23.9661914,17.1402573 23.3716116,17.7477772 22.6378556,17.7477772" id="Shape" fill="#F0C419"></path>
                                <polygon id="Shape" fill="#7F6E5D" points="0 6.77926482 23.9488717 6.77926482 23.9488717 3.40438653 0 3.40438653"></polygon>
                                <g transform="translate(2.854897, 9.285132)" id="Shape" fill="#FFFFFF">
                                    <path d="M2.92603118,0.869059233 C1.78764114,0.869059233 0.861465072,1.81531632 0.861465072,2.97838855 C0.861465072,4.14146077 1.78764114,5.08771786 2.92603118,5.08771786 C4.06442123,5.08771786 4.9905973,4.14146077 4.9905973,2.97838855 C4.9905973,1.81531632 4.06442123,0.869059233 2.92603118,0.869059233 M2.92603118,5.93144958 C1.33261819,5.93144958 0.0356386268,4.60639798 0.0356386268,2.97838855 C0.0356386268,1.35037911 1.3325706,0.025327508 2.92603118,0.025327508 C4.51949176,0.025327508 5.81642374,1.35042772 5.81642374,2.97838855 C5.81642374,4.60634937 4.51944418,5.93144958 2.92603118,5.93144958"></path>
                                    <path d="M10.7713348,6.35331544 C10.5429907,6.35331544 10.3584216,6.16474461 10.3584216,5.93144958 L10.3584216,3.82212027 C10.3584216,3.58882524 10.5429907,3.40025441 10.7713348,3.40025441 C10.999679,3.40025441 11.1842481,3.58882524 11.1842481,3.82212027 L11.1842481,5.93144958 C11.1842481,6.16474461 10.999679,6.35331544 10.7713348,6.35331544"></path>
                                    <path d="M12.4229877,5.50958372 C12.1946436,5.50958372 12.0100745,5.32101289 12.0100745,5.08771786 L12.0100745,3.82212027 C12.0100745,3.58882524 12.1946436,3.40025441 12.4229877,3.40025441 C12.6513319,3.40025441 12.8359009,3.58882524 12.8359009,3.82212027 L12.8359009,5.08771786 C12.8359009,5.32101289 12.6513319,5.50958372 12.4229877,5.50958372"></path>
                                    <path d="M16.5521199,5.50958372 C16.4463936,5.50958372 16.3407148,5.46826245 16.2602068,5.3859602 C16.0987624,5.22101541 16.0987624,4.95437169 16.2602068,4.7894269 L18.0328597,2.97833993 L16.2602068,1.16730158 C16.0987624,1.00235679 16.0987624,0.735713063 16.2602068,0.570768275 C16.4216512,0.405823487 16.6826363,0.405823487 16.8440807,0.570768275 L18.9086468,2.68009759 C19.0700912,2.84504238 19.0700912,3.1116861 18.9086468,3.27663089 L16.8440807,5.3859602 C16.763525,5.46821384 16.6577987,5.50958372 16.5521199,5.50958372"></path>
                                    <path d="M5.78616184,3.40025441 L13.248719,3.40025441 C13.4766349,3.40025441 13.6616322,3.21124606 13.6616322,2.97838855 C13.6616322,2.74553103 13.4766349,2.55652268 13.248719,2.55652268 L5.78616184,2.55652268 C5.80638402,2.69657748 5.816281,2.83750732 5.816281,2.97838855 C5.816281,3.11926977 5.80638402,3.26019961 5.78616184,3.40025441 M13.248719,4.24398613 L5.25967131,4.24398613 C5.12549117,4.24398613 4.99997087,4.17777487 4.92231768,4.06552686 C4.84509273,3.95371636 4.82567943,3.81074477 4.87031098,3.68162795 C4.95043842,3.45086081 4.99045455,3.21421147 4.99045455,2.97838855 C4.99045455,2.74256563 4.95039084,2.50591628 4.87031098,2.27514914 C4.82572701,2.14608094 4.84514031,2.00262321 4.92231768,1.89125023 C4.99992329,1.77905083 5.12549117,1.71279096 5.25967131,1.71279096 L13.2486714,1.71279096 C13.9320385,1.71279096 14.4874111,2.28064244 14.4874111,2.97838855 C14.4874111,3.67613465 13.9320861,4.24398613 13.248719,4.24398613"></path>
                                </g>
                            </g>
                        </g>
                    </g>
                </g>
            </g>
        </g>
    </g>
</svg>