<?xml version="1.0" encoding="UTF-8" standalone="no"?>
<svg width="66px" height="53px" viewBox="0 0 66 53" version="1.1" xmlns="http://www.w3.org/2000/svg" xmlns:xlink="http://www.w3.org/1999/xlink">
    <!-- Generator: Sketch 41 (35326) - http://www.bohemiancoding.com/sketch -->
    <title>caution-sign</title>
    <desc>Created with Sketch.</desc>
    <defs></defs>
    <g id="Page-1" stroke="none" stroke-width="1" fill="none" fill-rule="evenodd">
        <g id="ExSitu" transform="translate(-1127.000000, -626.000000)">
            <g id="section2" transform="translate(176.000000, 626.000000)">
                <g id="caution-sign" transform="translate(950.500000, 1.000000)">
                    <g id="Capa_1" transform="translate(11.000000, 0.000000)">
                        <g id="Group">
                            <path d="M24.0349121,3.49047852 L25.1388638,1.87560783 C26.071817,0.510875311 27.4775903,0.581968649 28.2766908,2.03067246 L53.6105163,47.9588295 C54.410537,49.4092018 53.7151632,50.5920793 52.065482,50.6008173 L2.00409809,50.8659796 C0.35077844,50.8747368 -0.343264586,49.7001448 0.451262298,48.2472956 L2.12939453,45.1787109" id="Path-5" stroke="#3F3F3F" stroke-width="2" stroke-linecap="round"></path>
                            <path d="M25.4194807,19.5090785 L25.4194807,33.9761571 C25.4194807,35.3612024 25.9813757,35.6970215 26.6744116,35.6970215 C27.3673674,35.6970215 27.9293425,35.3612024 27.9293425,33.9761571 L27.9293425,19.5090785 C27.9293425,18.1238731 27.3673674,17.75 26.6744116,17.75 C25.9813757,17.75 25.4194807,18.1240332 25.4194807,19.5090785 Z" id="Shape" fill="#3F3F3F"></path>
                            <path d="M26.643021,38 C25.7371687,38 25,38.7363099 25,39.641994 C25,40.5473795 25.7371687,41.2839879 26.643021,41.2839879 C27.5488732,41.2839879 28.2860419,40.5473795 28.2860419,39.641994 C28.2860419,38.7364094 27.5487736,38 26.643021,38 Z" id="Shape" fill="#3F3F3F"></path>
                        </g>
                    </g>
                    <g id="Capa_1" transform="translate(0.500000, 5.000000)" fill="#3F3F3F">
                        <g id="Group">
                            <path d="M31.0322685,7.36666667 L19.3795591,7.36666667 C18.7543695,7.36666667 18.2490172,7.76151667 18.2490172,8.25 C18.2490172,8.73848333 18.7543695,9.13333333 19.3795591,9.13333333 L31.0322685,9.13333333 C31.6574581,9.13333333 32.1628103,8.73848333 32.1628103,8.25 C32.1628103,7.76151667 31.6574581,7.36666667 31.0322685,7.36666667 Z" id="Shape"></path>
                            <path d="M35.2835,0.366666667 L34.8869483,0.366666667 C34.4006897,0.366666667 34.0076379,0.761516667 34.0076379,1.25 C34.0076379,1.73848333 34.4006897,2.13333333 34.8869483,2.13333333 L35.2835,2.13333333 C35.7697586,2.13333333 36.1628103,1.73848333 36.1628103,1.25 C36.1628103,0.761516667 35.7697586,0.366666667 35.2835,0.366666667 Z" id="Shape"></path>
                            <path d="M32.2835,0.366666667 L23.8869483,0.366666667 C23.4006897,0.366666667 23.0076379,0.761516667 23.0076379,1.25 C23.0076379,1.73848333 23.4006897,2.13333333 23.8869483,2.13333333 L32.2835,2.13333333 C32.7697586,2.13333333 33.1628103,1.73848333 33.1628103,1.25 C33.1628103,0.761516667 32.7697586,0.366666667 32.2835,0.366666667 Z" id="Shape"></path>
                            <path d="M28.2835,13.7333333 L26.0938448,13.7333333 C25.6075862,13.7333333 25.2145345,14.1281833 25.2145345,14.6166667 C25.2145345,15.10515 25.6075862,15.5 26.0938448,15.5 L28.2835,15.5 C28.7697586,15.5 29.1628103,15.10515 29.1628103,14.6166667 C29.1628103,14.1281833 28.7697586,13.7333333 28.2835,13.7333333 Z" id="Shape"></path>
                            <path d="M23.2835,13.7333333 L15.0938448,13.7333333 C14.6075862,13.7333333 14.2145345,14.1281833 14.2145345,14.6166667 C14.2145345,15.10515 14.6075862,15.5 15.0938448,15.5 L23.2835,15.5 C23.7697586,15.5 24.1628103,15.10515 24.1628103,14.6166667 C24.1628103,14.1281833 23.7697586,13.7333333 23.2835,13.7333333 Z" id="Shape"></path>
                            <path d="M23.2835,21.9166667 L17.5766034,21.9166667 C17.0903448,21.9166667 16.6972931,22.3115167 16.6972931,22.8 C16.6972931,23.2884833 17.0903448,23.6833333 17.5766034,23.6833333 L23.2835,23.6833333 C23.7697586,23.6833333 24.1628103,23.2884833 24.1628103,22.8 C24.1628103,22.3115167 23.7697586,21.9166667 23.2835,21.9166667 Z" id="Shape"></path>
                            <path d="M13.2835,21.9166667 L10.5766034,21.9166667 C10.0903448,21.9166667 9.6972931,22.3115167 9.6972931,22.8 C9.6972931,23.2884833 10.0903448,23.6833333 10.5766034,23.6833333 L13.2835,23.6833333 C13.7697586,23.6833333 14.1628103,23.2884833 14.1628103,22.8 C14.1628103,22.3115167 13.7697586,21.9166667 13.2835,21.9166667 Z" id="Shape"></path>
                            <path d="M15.9379663,21.9166667 L14.7593268,21.9166667 C14.7250222,21.9166667 14.6972931,22.3115167 14.6972931,22.8 C14.6972931,23.2884833 14.7250222,23.6833333 14.7593268,23.6833333 L15.9379663,23.6833333 C15.972271,23.6833333 16,23.2884833 16,22.8 C16,22.3115167 15.972271,21.9166667 15.9379663,21.9166667 Z" id="Shape"></path>
                            <path d="M19.2835,29.1 L8.85246552,29.1 C8.3662069,29.1 7.97315517,29.49485 7.97315517,29.9833333 C7.97315517,30.4718167 8.3662069,30.8666667 8.85246552,30.8666667 L19.2835,30.8666667 C19.7697586,30.8666667 20.1628103,30.4718167 20.1628103,29.9833333 C20.1628103,29.49485 19.7697586,29.1 19.2835,29.1 Z" id="Shape"></path>
                            <path d="M6.2835,29.1 L5.85246552,29.1 C5.3662069,29.1 4.97315517,29.49485 4.97315517,29.9833333 C4.97315517,30.4718167 5.3662069,30.8666667 5.85246552,30.8666667 L6.2835,30.8666667 C6.76975862,30.8666667 7.16281034,30.4718167 7.16281034,29.9833333 C7.16281034,29.49485 6.76975862,29.1 6.2835,29.1 Z" id="Shape"></path>
                            <path d="M15.4712644,36.9 L0.683908046,36.9 C0.305706897,36.9 0,37.29485 0,37.7833333 C0,38.2718167 0.305706897,38.6666667 0.683908046,38.6666667 L15.4712644,38.6666667 C15.8494655,38.6666667 16.1551724,38.2718167 16.1551724,37.7833333 C16.1551724,37.29485 15.8494655,36.9 15.4712644,36.9 Z" id="Shape"></path>
                        </g>
                    </g>
                </g>
            </g>
        </g>
    </g>
</svg>