<?xml version="1.0" encoding="UTF-8" standalone="no"?>
<svg width="64px" height="53px" viewBox="0 0 64 53" version="1.1" xmlns="http://www.w3.org/2000/svg" xmlns:xlink="http://www.w3.org/1999/xlink">
    <!-- Generator: Sketch 41 (35326) - http://www.bohemiancoding.com/sketch -->
    <title>casino-cctv</title>
    <desc>Created with Sketch.</desc>
    <defs></defs>
    <g id="Page-1" stroke="none" stroke-width="1" fill="none" fill-rule="evenodd">
        <g id="ExSitu" transform="translate(-290.000000, -626.000000)" fill="#3F3F3F">
            <g id="section2" transform="translate(176.000000, 626.000000)">
                <g id="casino-cctv" transform="translate(146.000000, 26.500000) scale(-1, 1) translate(-146.000000, -26.500000) translate(114.000000, 0.000000)">
                    <g id="Capa_1">
                        <g id="Group">
                            <path d="M63.6365686,20.9500393 C63.6113567,20.3678052 63.2891637,19.2884509 61.4149572,18.6016909 L11.4468695,0.308041783 C8.88551579,-0.630326985 6.04300017,0.703871388 5.11065505,3.28292338 L3.75798838,7.02457707 C3.75798838,7.02457707 3.75786479,7.02495038 3.7577412,7.02519925 L0.714642853,15.4436401 C-0.217578682,18.0228165 1.10777512,20.8845862 3.66962322,21.8234527 L18.2326958,27.1541488 C17.9559831,28.8489615 18.4175829,30.5234912 19.4223504,31.8045556 L16.3200536,40.386007 C16.1773099,40.7809656 15.8006148,41.0463867 15.382765,41.0463867 L6.29375948,41.0463867 L6.29375948,38.0599326 C6.29375948,36.4132765 4.963215,35.0734785 3.32765623,35.0734785 L1.35025406,35.0734785 C0.804243888,35.0734785 0.361552978,35.5192068 0.361552978,36.0689632 L0.361552978,51.9967184 C0.361552978,52.5464749 0.804243888,52.9922031 1.35025406,52.9922031 L3.32765623,52.9922031 C4.963215,52.9922031 6.29375948,51.6524052 6.29375948,50.005749 L6.29375948,47.0192949 L15.382765,47.0192949 C18.2855913,47.0192949 20.9024359,45.174164 21.8944739,42.4281195 L24.9315165,34.0269752 C26.6695294,33.7813394 28.2489794,32.7595987 29.1865152,31.1638368 L46.2049033,37.3933312 C46.7611713,37.5971567 47.3304159,37.6938431 47.8907623,37.6938431 C49.5902158,37.6937187 51.2050119,36.8042531 52.1093026,35.3196121 L54.0622344,36.0352412 C54.2828384,36.1159999 54.5114755,36.156317 54.7394947,36.156317 C55.024117,36.156317 55.3077506,36.0936014 55.5733405,35.968917 C56.0517482,35.7443108 56.4146015,35.3454947 56.5950394,34.8462591 L59.3012379,27.3599653 C59.6303518,26.4494701 59.2547689,25.4516211 58.4572579,24.9722952 L61.6267864,23.4842945 C63.4343792,22.6356437 63.6617804,21.5322734 63.6365686,20.9500393 Z M4.31635732,50.005749 C4.31635732,50.5546344 3.87280129,51.0012337 3.32765623,51.0012337 L2.33895515,51.0012337 L2.33895515,37.0644479 L3.32765623,37.0644479 C3.87280129,37.0644479 4.31635732,37.5110472 4.31635732,38.0599326 L4.31635732,50.005749 Z M20.0363338,41.7473324 C19.3273115,43.709806 17.4571834,45.0283255 15.382765,45.0283255 L6.29375948,45.0283255 L6.29375948,43.0373561 L15.382765,43.0373561 C16.6287755,43.0373561 17.7520635,42.2455725 18.1781937,41.067043 L21.0163837,33.215904 C21.3420372,33.4128856 21.6909251,33.5819935 22.0614408,33.7177528 C22.3244353,33.8141903 22.5897779,33.8904694 22.8556149,33.9483319 L20.0363338,41.7473324 Z M24.2268198,32.0892642 C24.203956,32.0891398 24.1812159,32.0891398 24.1584758,32.0905086 C23.6876069,32.0968548 23.2072218,32.0189581 22.7377123,31.8468637 C22.1881181,31.6454025 21.7088453,31.3354334 21.3162073,30.9493098 C21.2802433,30.9052596 21.2403245,30.8644447 21.1966981,30.8269896 C20.460363,30.0373214 20.0661184,28.9653088 20.1407653,27.8526058 L27.27894,30.4655042 C26.5566939,31.4642243 25.4261142,32.052058 24.2268198,32.0892642 Z M57.443345,26.6790537 L54.7388767,34.1644765 L52.8793772,33.4830672 L55.4445621,26.386879 L55.969686,26.1403721 L57.443345,26.6790537 Z M60.791334,21.679854 L55.5058616,24.1613485 C55.5052437,24.1615974 54.2384704,24.7563995 54.2384704,24.7563995 C54.2379761,24.7566483 52.7530706,25.4537365 52.7530706,25.4537365 C51.0114737,26.2714028 48.0143499,26.4030556 46.2081166,25.7411827 L17.6088255,15.2785141 C17.0958132,15.0909896 16.5284223,15.3575306 16.3419286,15.8741872 C16.1554349,16.3909682 16.4202832,16.9620031 16.9335426,17.1499009 L45.5323394,27.6123206 C46.5274671,27.9770414 47.7540743,28.1546109 49.0057699,28.1546109 C50.3742558,28.1546109 51.7715376,27.9412039 52.9279471,27.5279533 L50.6833485,33.7374136 C50.1239908,35.2848946 48.4184815,36.0855131 46.8812985,35.5221932 L4.345524,19.9524392 C2.80858816,19.3892437 2.01342531,17.672157 2.57278295,16.124676 L4.26445051,11.4449025 C4.82862806,12.3181914 5.66766452,13.0213769 6.71272157,13.4043897 L7.64210059,13.7448454 C8.1547421,13.932992 8.7225037,13.666451 8.90924462,13.1497944 C9.09598553,12.6332623 8.83138441,12.0619785 8.31824854,11.8739564 L7.38899311,11.5335006 C5.85230445,10.9703051 5.05701802,9.25359176 5.61600489,7.70623522 L5.95438784,6.7701063 L6.96879515,3.96383492 C7.52827638,2.41635395 9.23366216,1.61536207 10.7708452,2.17893085 L60.7389329,20.4727044 C61.373679,20.7052745 61.6084955,20.947675 61.6562003,21.0370198 C61.6164051,21.1303464 61.4035872,21.3922834 60.791334,21.679854 Z" id="Shape"></path>
                            <path d="M9.67151541,10.9835491 L7.37991781,10.1436028 C6.74731678,9.91144374 6.04766096,10.2402718 5.8172363,10.8772132 C5.58696404,11.5141546 5.91309418,12.2186109 6.5458476,12.4506165 L8.83744521,13.2905628 C8.97505993,13.3410455 9.115875,13.3648292 9.25440411,13.3648292 C9.75243836,13.3648292 10.2198408,13.0551815 10.4001267,12.556799 C10.6305514,11.920011 10.3042688,11.2155548 9.67151541,10.9835491 Z" id="Shape"></path>
                        </g>
                    </g>
                </g>
            </g>
        </g>
    </g>
</svg>