<?xml version="1.0" encoding="utf-8"?>
<!-- Generator: Adobe Illustrator 19.1.0, SVG Export Plug-In . SVG Version: 6.00 Build 0)  -->
<svg version="1.1" id="Layer_1" xmlns="http://www.w3.org/2000/svg" xmlns:xlink="http://www.w3.org/1999/xlink" x="0px" y="0px"
	 viewBox="-478 1558 1480 448" style="enable-background:new -478 1558 1480 448;" xml:space="preserve">
<style type="text/css">
	.st0{fill:#303030;}
	.st1{fill:#3DC4BD;}
	.st2{fill:none;stroke:#B3B3B3;stroke-miterlimit:10;stroke-opacity:0.51;}
	.st3{fill:#0A0A0A;}
	.st4{fill:#FF8B00;}
	.st5{fill:#E8E8E8;}
	.st6{fill:#7C7C7C;}
	.st7{fill:#333333;}
	.st8{fill:#00FF00;}
	.st9{fill:#FF0000;}
	.st10{fill:#FFB600;}
	.st11{opacity:0.32;fill:#B8E7FF;enable-background:new    ;}
	.st12{fill:#EFEFEF;}
	.st13{fill:#666666;}
	.st14{font-family:'OpenSans';}
	.st15{font-size:20.3427px;}
	.st16{fill:#E83434;}
	.st17{fill:#FF6C6C;}
</style>
<path class="st0" d="M352.6,1996.3H173.1c-16.4,0-29.8-13.3-29.8-29.8v-366.4c0-16.4,13.3-29.8,29.8-29.8h179.6
	c16.4,0,29.8,13.3,29.8,29.8v366.4C382.4,1983,369.1,1996.3,352.6,1996.3z"/>
<rect x="143.3" y="1609.5" class="st1" width="239.1" height="343.4"/>
<circle class="st2" cx="186" cy="1973.6" r="4.4"/>
<polygon class="st2" points="341.5,1969.5 341.5,1978 335.1,1973.5 "/>
<rect x="235.8" y="1589.8" class="st3" width="54.1" height="4"/>
<g>
	<rect x="213" y="1723.7" class="st4" width="101" height="110.3"/>
	<path d="M328.7,1809.1v33.9c0,1.4-1.1,2.5-2.5,2.5h-125c-1.4,0-2.5-1.1-2.5-2.5v-33.9c0-1.4,1.1-2.5,2.5-2.5h7.2v-5.1h-7.2
		c-1.4,0-2.5-1.1-2.5-2.5v-33.9c0-1.4,1.1-2.5,2.5-2.5h7.2v-5.1h-7.2c-1.4,0-2.5-1.1-2.5-2.5v-33.9c0-1.4,1.1-2.5,2.5-2.5h125
		c1.4,0,2.5,1.1,2.5,2.5v33.9c0,1.4-1.1,2.5-2.5,2.5H319v5.1h7.2c1.4,0,2.5,1.1,2.5,2.5v33.9c0,1.4-1.1,2.5-2.5,2.5H319v5.1h7.2
		C327.5,1806.6,328.7,1807.7,328.7,1809.1z M323.7,1840.5v-29h-12.9v29H323.7z M323.7,1796.6v-29h-12.9v29L323.7,1796.6
		L323.7,1796.6z M323.7,1752.7v-29h-12.9v29H323.7z M314.1,1806.6v-5.1H213.3v5.1H314.1z M314.1,1762.7v-5.1H213.3v5.1H314.1z
		 M305.9,1840.5v-29h-12.8v29H305.9z M305.9,1796.6v-29h-12.8v29L305.9,1796.6L305.9,1796.6z M305.9,1752.7v-29h-12.8v29H305.9z
		 M288.1,1840.5v-29h-84.5v29H288.1z M288.1,1796.6v-29h-84.5v29L288.1,1796.6L288.1,1796.6z M288.1,1752.7v-29h-84.5v29H288.1z"/>
	<rect x="310.8" y="1811.6" class="st5" width="12.9" height="29"/>
	<rect x="310.8" y="1767.6" class="st5" width="12.9" height="29"/>
	<rect x="310.8" y="1723.7" class="st5" width="12.9" height="29"/>
	<rect x="293.1" y="1723.7" class="st6" width="12.9" height="29"/>
	<rect x="293" y="1767.6" class="st7" width="13" height="29.1"/>
	<rect x="293.1" y="1811.6" class="st6" width="12.9" height="29"/>
	<path class="st5" d="M288.1,1811.6v29h-84.5v-29H288.1z M223.4,1826c0-0.6-0.3-1.3-0.7-1.7c-0.5-0.5-1.1-0.7-1.7-0.7
		c-0.7,0-1.3,0.3-1.7,0.7c-0.5,0.5-0.7,1.1-0.7,1.7c0,0.6,0.3,1.3,0.7,1.7c0.5,0.5,1.1,0.7,1.7,0.7c0.6,0,1.3-0.3,1.7-0.7
		C223.1,1827.3,223.4,1826.7,223.4,1826z M215.5,1826c0-0.6-0.3-1.3-0.7-1.7c-0.5-0.5-1.1-0.7-1.7-0.7c-0.7,0-1.3,0.3-1.7,0.7
		c-0.5,0.5-0.7,1.1-0.7,1.7c0,0.7,0.3,1.3,0.7,1.7c0.5,0.5,1.1,0.7,1.7,0.7c0.6,0,1.3-0.3,1.7-0.7
		C215.2,1827.3,215.5,1826.7,215.5,1826z"/>
	<path class="st6" d="M288.1,1767.6v29h-84.5v-29H288.1L288.1,1767.6z M223.4,1782.1c0-0.6-0.3-1.3-0.7-1.7
		c-0.5-0.5-1.1-0.7-1.7-0.7c-0.7,0-1.3,0.3-1.7,0.7c-0.5,0.5-0.7,1.1-0.7,1.7c0,0.7,0.3,1.3,0.7,1.7c0.5,0.5,1.1,0.7,1.7,0.7
		c0.6,0,1.3-0.3,1.7-0.7C223.1,1783.4,223.4,1782.8,223.4,1782.1z M215.5,1782.1c0-0.6-0.3-1.3-0.7-1.7c-0.5-0.5-1.1-0.7-1.7-0.7
		c-0.7,0-1.3,0.3-1.7,0.7c-0.5,0.5-0.7,1.1-0.7,1.7c0,0.6,0.3,1.3,0.7,1.7c0.5,0.5,1.1,0.7,1.7,0.7c0.6,0,1.3-0.3,1.7-0.7
		C215.2,1783.4,215.5,1782.8,215.5,1782.1z"/>
	<path class="st5" d="M288.1,1723.7v29h-84.5v-29H288.1z M223.4,1738.2c0-0.6-0.3-1.3-0.7-1.7c-0.5-0.5-1.1-0.7-1.7-0.7
		c-0.7,0-1.3,0.3-1.7,0.7c-0.5,0.5-0.7,1.1-0.7,1.7s0.3,1.3,0.7,1.7c0.5,0.5,1.1,0.7,1.7,0.7c0.6,0,1.3-0.3,1.7-0.7
		C223.1,1739.5,223.4,1738.9,223.4,1738.2z M215.5,1738.2c0-0.6-0.3-1.3-0.7-1.7c-0.5-0.5-1.1-0.7-1.7-0.7c-0.7,0-1.3,0.3-1.7,0.7
		c-0.5,0.5-0.7,1.1-0.7,1.7s0.3,1.3,0.7,1.7c0.5,0.5,1.1,0.7,1.7,0.7c0.6,0,1.3-0.3,1.7-0.7C215.2,1739.5,215.5,1738.9,215.5,1738.2
		z"/>
	<path class="st8" d="M222.7,1736.5c0.5,0.5,0.7,1.1,0.7,1.7s-0.3,1.3-0.7,1.7c-0.5,0.5-1.1,0.7-1.7,0.7c-0.7,0-1.3-0.3-1.7-0.7
		c-0.5-0.5-0.7-1.1-0.7-1.7s0.3-1.3,0.7-1.7c0.5-0.5,1.1-0.7,1.7-0.7C221.6,1735.7,222.2,1736,222.7,1736.5z"/>
	<path class="st9" d="M222.7,1780.4c0.5,0.5,0.7,1.1,0.7,1.7c0,0.7-0.3,1.3-0.7,1.7c-0.5,0.5-1.1,0.7-1.7,0.7
		c-0.7,0-1.3-0.3-1.7-0.7c-0.5-0.5-0.7-1.1-0.7-1.7c0-0.6,0.3-1.3,0.7-1.7c0.5-0.5,1.1-0.7,1.7-0.7
		C221.6,1779.7,222.2,1779.9,222.7,1780.4z"/>
	<path class="st10" d="M222.7,1824.3c0.5,0.5,0.7,1.1,0.7,1.7c0,0.7-0.3,1.3-0.7,1.7c-0.5,0.5-1.1,0.7-1.7,0.7
		c-0.7,0-1.3-0.3-1.7-0.7c-0.5-0.5-0.7-1.1-0.7-1.7c0-0.6,0.3-1.3,0.7-1.7c0.5-0.5,1.1-0.7,1.7-0.7
		C221.6,1823.6,222.2,1823.8,222.7,1824.3z"/>
	<path class="st8" d="M214.8,1736.5c0.5,0.5,0.7,1.1,0.7,1.7s-0.3,1.3-0.7,1.7c-0.5,0.5-1.1,0.7-1.7,0.7c-0.7,0-1.3-0.3-1.7-0.7
		c-0.5-0.5-0.7-1.1-0.7-1.7s0.3-1.3,0.7-1.7c0.5-0.5,1.1-0.7,1.7-0.7C213.7,1735.7,214.3,1736,214.8,1736.5z"/>
	<path class="st9" d="M214.8,1780.4c0.5,0.5,0.7,1.1,0.7,1.7c0,0.6-0.3,1.3-0.7,1.7c-0.5,0.5-1.1,0.7-1.7,0.7
		c-0.7,0-1.3-0.3-1.7-0.7c-0.5-0.5-0.7-1.1-0.7-1.7c0-0.6,0.3-1.3,0.7-1.7c0.5-0.5,1.1-0.7,1.7-0.7
		C213.7,1779.7,214.3,1779.9,214.8,1780.4z"/>
	<path class="st10" d="M214.8,1824.3c0.5,0.5,0.7,1.1,0.7,1.7c0,0.6-0.3,1.3-0.7,1.7c-0.5,0.5-1.1,0.7-1.7,0.7
		c-0.7,0-1.3-0.3-1.7-0.7c-0.5-0.5-0.7-1.1-0.7-1.7c0-0.6,0.3-1.3,0.7-1.7c0.5-0.5,1.1-0.7,1.7-0.7
		C213.7,1823.6,214.3,1823.8,214.8,1824.3z"/>
</g>
<polygon class="st11" points="383.1,1609.7 144,1953 144,1609.9 "/>
<path class="st12" d="M56.6,1671.6h-493.4c-11.7,0-21.3-9.5-21.3-21.3v-11.5c0-11.7,9.5-21.3,21.3-21.3H56.6
	c11.7,0,21.3,9.5,21.3,21.3v11.5C77.9,1662.1,68.4,1671.6,56.6,1671.6z"/>
<path class="st12" d="M57.2,1763.4h-493.4c-11.7,0-21.3-9.5-21.3-21.3v-11.5c0-11.7,9.5-21.3,21.3-21.3H57.2
	c11.7,0,21.3,9.5,21.3,21.3v11.5C78.4,1753.9,68.9,1763.4,57.2,1763.4z"/>
<path class="st12" d="M57.2,1853.8h-493.4c-11.7,0-21.3-9.5-21.3-21.3V1821c0-11.7,9.5-21.3,21.3-21.3H57.2
	c11.7,0,21.3,9.5,21.3,21.3v11.5C78.4,1844.3,68.9,1853.8,57.2,1853.8z"/>
<path class="st12" d="M57.2,1949.2h-493.4c-11.7,0-21.3-9.5-21.3-21.3v-11.5c0-11.7,9.5-21.3,21.3-21.3H57.2
	c11.7,0,21.3,9.5,21.3,21.3v11.5C78.4,1939.7,68.9,1949.2,57.2,1949.2z"/>
<text transform="matrix(1 0 0 1 -378.7432 1650.521)" class="st13 st14 st15">Unlimited capacity for fast growing data</text>
<text transform="matrix(1 0 0 1 -353.5312 1742.0723)" class="st13 st14 st15">Ability to handle diverse data types</text>
<text transform="matrix(1 0 0 1 -438.7534 1834.335)" class="st13 st14 st15">Capacity to store and query complex-structured data </text>
<text transform="matrix(1 0 0 1 -327.1528 1928.626)" class="st13 st14 st15">Support for dynamic schema</text>
<path class="st12" d="M962.2,1671.6H468.8c-11.7,0-21.3-9.5-21.3-21.3v-11.5c0-11.7,9.5-21.3,21.3-21.3h493.4
	c11.7,0,21.3,9.5,21.3,21.3v11.5C983.5,1662,973.9,1671.6,962.2,1671.6z"/>
<path class="st12" d="M962.7,1763.3H469.4c-11.7,0-21.3-9.5-21.3-21.3v-11.5c0-11.7,9.5-21.3,21.3-21.3h493.4
	c11.7,0,21.3,9.5,21.3,21.3v11.5C984,1753.8,974.5,1763.3,962.7,1763.3z"/>
<path class="st12" d="M962.7,1853.8H469.4c-11.7,0-21.3-9.5-21.3-21.3V1821c0-11.7,9.5-21.3,21.3-21.3h493.4
	c11.7,0,21.3,9.5,21.3,21.3v11.5C984,1844.3,974.5,1853.8,962.7,1853.8z"/>
<path class="st12" d="M962.7,1949.1H469.4c-11.7,0-21.3-9.5-21.3-21.3v-11.5c0-11.7,9.5-21.3,21.3-21.3h493.4
	c11.7,0,21.3,9.5,21.3,21.3v11.5C984,1939.6,974.5,1949.1,962.7,1949.1z"/>
<text transform="matrix(1 0 0 1 571.3457 1650.4844)" class="st13 st14 st15">Support for agile development</text>
<text transform="matrix(1 0 0 1 607.999 1742.0356)" class="st13 st14 st15">Faster response times</text>
<text transform="matrix(1 0 0 1 617.2197 1833.0273)" class="st13 st14 st15">High fault-tolerance</text>
<text transform="matrix(1 0 0 1 559.3643 1928.5889)" class="st13 st14 st15">Capacity for high-speed analytics</text>
<path class="st2" d="M290.5,1978h-51.6c-1.9,0-3.5-1.6-3.5-3.5v-1.9c0-1.9,1.6-3.5,3.5-3.5h51.6c1.9,0,3.5,1.6,3.5,3.5v1.9
	C293.9,1976.4,292.4,1978,290.5,1978z"/>
<g>
	<circle class="st16" cx="96.1" cy="1644.7" r="5.7"/>
	<circle class="st17" cx="119" cy="1644.7" r="5.7"/>
</g>
<g>
	<circle class="st16" cx="96.1" cy="1736.2" r="5.7"/>
	<circle class="st17" cx="119" cy="1736.2" r="5.7"/>
</g>
<g>
	<circle class="st16" cx="96.1" cy="1827.7" r="5.7"/>
	<circle class="st17" cx="119" cy="1827.7" r="5.7"/>
</g>
<g>
	<circle class="st16" cx="96.1" cy="1921.8" r="5.7"/>
	<circle class="st17" cx="119" cy="1921.8" r="5.7"/>
</g>
<g>
	<circle class="st16" cx="429.2" cy="1644.7" r="5.7"/>
	<circle class="st17" cx="406.3" cy="1644.7" r="5.7"/>
</g>
<g>
	<circle class="st16" cx="429.2" cy="1736.2" r="5.7"/>
	<circle class="st17" cx="406.3" cy="1736.2" r="5.7"/>
</g>
<g>
	<circle class="st16" cx="429.2" cy="1827.7" r="5.7"/>
	<circle class="st17" cx="406.3" cy="1827.7" r="5.7"/>
</g>
<g>
	<circle class="st16" cx="429.2" cy="1921.8" r="5.7"/>
	<circle class="st17" cx="406.3" cy="1921.8" r="5.7"/>
</g>
</svg>
