<?xml version="1.0" encoding="UTF-8" standalone="no"?>
<svg width="77px" height="79px" viewBox="0 0 77 79" version="1.1" xmlns="http://www.w3.org/2000/svg" xmlns:xlink="http://www.w3.org/1999/xlink">
    <!-- Generator: Sketch 47.1 (45422) - http://www.bohemiancoding.com/sketch -->
    <title>mobile-purchase</title>
    <desc>Created with Sketch.</desc>
    <defs></defs>
    <g id="Page-1" stroke="none" stroke-width="1" fill="none" fill-rule="evenodd">
        <g id="chatbots" transform="translate(-334.000000, -680.000000)">
            <g id="mobile-purchase" transform="translate(334.000000, 680.000000)">
                <path d="M9.7,0.000213789841 L50.3,0.000213789841 L50.3,0.000213789841 C51.7911688,0.000213789841 53,1.20904497 53,2.70021379 L53,69.3 L53,69.3 C53,70.7911688 51.7911688,72 50.3,72 L9.7,72 L9.7,72 C8.20883118,72 7,70.7911688 7,69.3 L7,2.70021379 L7,2.70021379 C7,1.20904497 8.20883118,0.000213789841 9.7,0.000213789841 Z" id="Rectangle-9" fill="#FFEFF0"></path>
                <path d="M50,16 L72.4892825,16 L72.4892825,16 C74.6984215,16 76.4892825,17.790861 76.4892825,20 C76.4892825,20.3870394 76.4331092,20.77203 76.3225191,21.1429334 L70.4018555,41 L50,41 L50,16 Z" id="Rectangle-3" fill="#FFEFF0"></path>
                <path d="M71.3521372,19.9148747 C70.6676304,18.951963 69.5225604,18.3996222 68.2105891,18.3996222 L46.9315726,18.3996222 L46.9315726,9.63449692 C46.9315726,7.07898973 44.8667343,5 42.3289586,5 L4.60261403,5 C2.06483829,5 0,7.07898973 0,9.63449692 L0,74.3655031 C0,76.9210103 2.06483829,79 4.60261403,79 L42.3289586,79 C44.8667343,79 46.9315726,76.9210103 46.9315726,74.3655031 L46.9315726,54.3791211 L49.5294087,54.3791211 C49.5274469,54.4408131 49.5248815,54.5022012 49.5248815,54.5643491 C49.5248815,57.5744928 51.9568726,60.0234825 54.946459,60.0234825 C57.9360455,60.0234825 60.3680366,57.5744928 60.3680366,54.5643491 C60.3680366,51.5542053 57.9360455,49.1052156 54.946459,49.1052156 C53.2220633,49.1052156 51.6844884,49.9208871 50.6907765,51.1881561 L41.2635666,51.1881561 C40.2698547,49.9208871 38.7322798,49.1052156 37.007884,49.1052156 C35.4390717,49.1052156 34.0243338,49.7804846 33.0334891,50.8565996 C32.9245354,50.7139179 32.8573825,50.5371992 32.8573825,50.3425503 L32.8573825,46.7694292 C33.1418391,46.8242834 33.4327847,46.8537618 33.7275029,46.8537618 L59.665572,46.8537618 C62.0009836,46.8537618 64.4199969,45.1102793 65.1727129,42.8846571 L71.763958,23.3975852 C72.1867949,22.1473347 72.0367949,20.8777864 71.3521372,19.9148747 Z M54.946459,52.2961807 C56.1884103,52.2961807 57.1990236,53.3136427 57.1990236,54.5643491 C57.1990236,55.8150554 56.1885612,56.8325175 54.946459,56.8325175 C53.7045078,56.8325175 52.6938945,55.8150554 52.6938945,54.5643491 C52.6938945,53.3136427 53.7043569,52.2961807 54.946459,52.2961807 Z M42.3289586,75.8090349 L4.60261403,75.8090349 C3.81217166,75.8090349 3.16901294,75.1614209 3.16901294,74.3655031 L3.16901294,65.3244353 L43.7625597,65.3244353 L43.7625597,74.3655031 C43.7625597,75.1614209 43.1195518,75.8090349 42.3289586,75.8090349 Z M37.007884,52.2961807 C38.2499862,52.2961807 39.2605995,53.3136427 39.2605995,54.5643491 C39.2605995,55.8150554 38.2501371,56.8325175 37.007884,56.8325175 C35.7659328,56.8325175 34.7554703,55.8150554 34.7554703,54.5643491 C34.7554703,53.3136427 35.7657819,52.2961807 37.007884,52.2961807 Z M28.8146274,42.3844353 C28.8997381,43.2274579 29.2137721,44.0166899 29.6883696,44.6902875 L29.6883696,50.3425503 C29.6883696,51.8185996 30.4658341,53.1068378 31.6394252,53.8106735 C31.6053206,54.0571376 31.5864574,54.3084641 31.5864574,54.5643491 C31.5864574,57.5744928 34.0184485,60.0234825 37.007884,60.0234825 C39.9973196,60.0234825 42.4296124,57.5744928 42.4296124,54.5643491 C42.4296124,54.5022012 42.4268961,54.4408131 42.4249344,54.3791211 L43.7627106,54.3791211 L43.7627106,62.1334702 L3.16916385,62.1334702 L3.16916385,9.63449692 C3.16916385,8.83857906 3.81232257,8.19096509 4.60276494,8.19096509 L42.3291095,8.19096509 C43.1195518,8.19096509 43.7627106,8.83857906 43.7627106,9.63449692 L43.7627106,18.3996222 L31.1821819,18.3996222 C30.6340936,18.3996222 30.1072829,18.4961109 29.6195567,18.6810349 L29.162917,14.0843737 C29.0818808,13.2687023 28.4002413,12.6476797 27.5862576,12.6476797 L20.4347009,12.6476797 C19.5596006,12.6476797 18.8501944,13.362 18.8501944,14.2431622 C18.8501944,15.1243244 19.5596006,15.8386448 20.4347009,15.8386448 L26.1523547,15.8386448 L28.8146274,42.3844353 Z M68.7639591,22.3691828 L62.172714,41.8562546 C61.8529455,42.8018439 60.6577749,43.6631006 59.6654211,43.6631006 L33.7272011,43.6631006 C32.8756421,43.6631006 32.0533586,42.9150472 31.9673426,42.0624517 L30.0378664,22.8961478 C30.0378664,22.8958439 30.0378664,22.89554 30.0378664,22.8952361 L30.0374137,22.8917413 C30.0014982,22.5314661 30.1015485,22.1993018 30.3197577,21.9563326 C30.5311761,21.7206571 30.837514,21.5908912 31.182031,21.5908912 L68.2104381,21.5908912 C68.4792006,21.5908912 68.6955989,21.6604846 68.775277,21.7726242 C68.854955,21.884308 68.8505788,22.1129938 68.7639591,22.3691828 Z" id="Shape" fill="#859DBA" fill-rule="nonzero"></path>
                <path d="M25.4686862,68 L21.5313138,68 C20.6855911,68 20,68.6715714 20,69.5 C20,70.3284286 20.6855911,71 21.5313138,71 L25.4686862,71 C26.3144089,71 27,70.3284286 27,69.5 C27,68.6715714 26.3144089,68 25.4686862,68 Z" id="Shape" fill="#859DBA" fill-rule="nonzero"></path>
            </g>
        </g>
    </g>
</svg>