<?xml version="1.0" encoding="UTF-8" standalone="no"?>
<svg width="89px" height="60px" viewBox="0 0 89 60" version="1.1" xmlns="http://www.w3.org/2000/svg" xmlns:xlink="http://www.w3.org/1999/xlink">
    <!-- Generator: Sketch 47.1 (45422) - http://www.bohemiancoding.com/sketch -->
    <title>hand-shake</title>
    <desc>Created with Sketch.</desc>
    <defs></defs>
    <g id="Page-1" stroke="none" stroke-width="1" fill="none" fill-rule="evenodd">
        <g id="chatbots" transform="translate(-501.000000, -1043.000000)">
            <g id="hand-shake" transform="translate(501.000000, 1043.000000)">
                <path d="M4.81081081,0 C14.9210304,0.737109375 20.9832863,2.21269531 22.9975784,4.42675781 C25.0118705,6.64082031 28.3484701,7.74785156 33.007377,7.74785156 L43.0447767,4.42675781 C47.7158203,4.99511719 52.9948708,6.75488281 58.8819283,9.70605469 L61.7815106,8.72607422 C72.7393381,5.24052734 80.7012731,4.12070312 85.6673155,5.36660156 C87.7184091,6.17246094 88.6820002,6.92460938 88.558089,7.62304688 C88.4341777,8.32148438 88.3722221,17.7666016 88.3722221,35.9583984 L75.3630074,35.9583984 L62.3869728,43.5591797 L45.5688081,51.8165039 L22.9975784,35.9583984 C20.0360404,33.6140625 16.8163051,31.9828125 13.3383723,31.0646484 L6.03964646,31.2758789 L4.81081081,0 Z" id="Path-6" fill="#FFEFF0"></path>
                <path d="M66.7433668,43.3562972 C65.0754403,39.8898864 59.1083864,35.0783779 53.3433496,30.4293599 C50.1278435,27.8382803 47.0894549,25.3885112 45.152449,23.4576531 C44.6672431,22.9705123 43.9413431,22.8151368 43.300433,23.0446424 C42.1070887,23.4753583 41.370399,23.8071237 40.7897454,24.064759 C39.9044894,24.4600645 39.6070248,24.5942599 38.4135144,24.7142249 C37.8858135,24.767175 37.4113973,25.0496307 37.1174186,25.4872963 C34.6137028,29.2184575 32.0215112,28.900757 30.2898422,28.3219463 C29.7374079,28.1384411 29.6383083,27.9018204 29.5851897,27.6759552 C29.2133589,26.1263377 31.0796506,22.5186163 33.4982105,20.107567 C39.2527896,14.3677772 42.2202979,12.9310096 48.4883022,15.7232995 C55.5990676,18.8931898 62.7241086,21.3748944 62.7949889,21.3995492 C63.7263918,21.7207246 64.7285089,21.2335838 65.0507069,20.3122522 C65.3694189,19.3909206 64.884213,18.3848689 63.959948,18.0636935 C63.8890677,18.0390386 56.9057871,15.6068093 49.9366162,12.4968188 C41.8165959,8.87850746 37.3615985,11.2612615 30.9979806,17.6083227 C28.5757687,20.0228469 25.2858964,24.9083201 26.1357953,28.4913866 C26.5004883,30.0163492 27.5771375,31.1460063 29.1776698,31.6718669 C33.1899561,32.9921443 36.8514932,31.7282918 39.5783075,28.1207359 C40.7044235,27.9478208 41.3171143,27.6936604 42.2377274,27.2806497 C42.5705492,27.1323894 42.9601415,26.9594743 43.4772187,26.7511487 C45.5028663,28.646762 48.2366524,30.8529606 51.1156849,33.1721746 C56.3213157,37.3692966 62.2246271,42.1278551 63.5525941,44.8812598 C64.2077798,46.240257 63.5029613,47.1263437 63.0248932,47.5322392 C62.3237266,48.1323954 61.3641044,48.3230157 60.8435414,47.9593148 C60.2698596,47.5674841 59.5227122,47.5428293 58.9312688,47.8957747 C58.3363396,48.2487202 58.0035179,48.9158913 58.077884,49.6007676 C58.198231,50.7233096 57.1677286,51.3658258 56.7215317,51.5882162 C55.5882779,52.1600772 54.4055572,52.0612922 53.9628462,51.6517563 C53.4670166,51.1929107 52.7552262,51.0587153 52.1249399,51.2916957 C51.4946535,51.5281509 51.0554284,52.1071271 50.991686,52.7777731 C50.8854487,53.9355599 50.024926,55.0475118 48.9022959,55.4817026 C48.3604854,55.6863878 47.5743289,55.8099931 46.8696764,55.1674769 C46.4306173,54.7721713 45.8214124,54.6202708 45.2513826,54.757941 C44.6742149,54.8990861 44.2102564,55.3157371 44.0084055,55.8698929 C43.9411771,56.0464484 43.7887929,56.4700491 42.1314901,56.4700491 C40.9522554,56.4700491 38.830994,55.6757977 37.7935198,54.9909214 C36.5505427,54.17549 28.7562063,48.3792752 22.0244094,42.7594504 C21.0788969,41.9651991 19.4428416,40.263681 17.9980134,38.7598984 C16.7160273,37.4255561 15.5439304,36.2148192 14.9418633,35.7064983 C14.1875781,35.0710972 13.0720858,35.1664074 12.4452853,35.9148238 C11.814999,36.6596 11.9069607,37.7751922 12.6542742,38.4034781 C13.2032225,38.8659641 14.2655961,39.9848657 15.437693,41.2027178 C17.0171438,42.8476454 18.6495473,44.5491635 19.747444,45.4670202 C26.3412982,50.9703548 34.2666054,56.911355 35.8458902,57.9455365 C37.1491238,58.7998531 39.9572761,60 42.1316561,60 C43.8774347,60 45.2196774,59.6010542 46.1509142,58.8210331 C47.3973773,59.3046991 48.8139861,59.308174 50.1773103,58.7786731 C51.7886322,58.1573368 53.1129473,56.9042398 53.8637467,55.3863924 C55.258942,55.6829129 56.8561544,55.4745874 58.3079543,54.7475165 C59.7280491,54.0345104 60.7548996,52.9437385 61.2648389,51.669296 C62.6743099,51.7434261 64.1261098,51.2456953 65.326592,50.2184635 C67.3595435,48.4853409 67.9189496,45.7885266 66.7433668,43.3562972 Z" id="Shape" fill="#859DBA" fill-rule="nonzero"></path>
                <path d="M35.5343533,14.4 L19.789971,14.4 C18.8243156,14.4 18.0405405,15.206431 18.0405405,16.2 C18.0405405,17.193569 18.8243156,18 19.789971,18 L35.5343533,18 C36.5000088,18 37.2837838,17.193569 37.2837838,16.2 C37.2837838,15.206431 36.5000088,14.4 35.5343533,14.4 Z" id="Shape" fill="#859DBA" fill-rule="nonzero"></path>
                <path d="M73.0741259,40.4057028 C72.5440469,39.5742467 71.4840493,39.3454899 70.7010327,39.9119353 L65.7017483,43.4775798 C64.9187317,44.0367064 64.7100342,45.1660229 65.2367471,45.9974789 C65.568387,46.5167773 66.1087246,46.8 66.6593207,46.8 C66.9842285,46.8 67.3158685,46.7019614 67.6100006,46.4914166 L72.609285,42.9257721 C73.3921412,42.3664754 73.6006785,41.2373291 73.0741259,40.4057028 Z" id="Shape" fill="#859DBA" fill-rule="nonzero"></path>
                <path d="M61.8534058,48.3855121 C60.5619967,47.3704816 54.7864204,41.4711235 51.2150495,37.7565442 C50.5259711,37.0366082 49.3825236,37.0114686 48.6645293,37.7025532 C47.9429839,38.3900946 47.9213392,39.5309914 48.6104176,40.2473842 C49.5375874,41.2119668 57.7155533,49.717402 59.6167333,51.2148081 C59.9449545,51.4739648 60.3418298,51.6 60.7314339,51.6 C61.2617284,51.6 61.7920229,51.3624397 62.152711,50.9124586 C62.7697533,50.1348198 62.6363342,49.0010092 61.8534058,48.3855121 Z" id="Shape" fill="#859DBA" fill-rule="nonzero"></path>
                <path d="M54.6809847,50.9482472 C52.6225693,49.3057622 47.4510001,43.8229901 46.2825405,42.5543598 C45.6364568,41.8548691 44.5540128,41.8137226 43.8530015,42.4514935 C43.1553729,43.0926396 43.1073716,44.1796468 43.7499116,44.8757621 C43.8117656,44.9408572 49.9834679,51.589554 52.533171,53.6263061 C52.8493671,53.8765605 53.2307997,54 53.605306,54 C54.1070639,54 54.6086606,53.7770695 54.9488573,53.3588538 C55.5401745,52.618056 55.4198493,51.5379602 54.6809847,50.9482472 Z" id="Shape" fill="#859DBA" fill-rule="nonzero"></path>
                <path d="M46.2948711,54.5734145 C43.8448997,52.5134341 38.8317276,47.1901977 37.8524478,46.1447026 C37.2030306,45.4523653 36.1137428,45.4146073 35.4230928,46.0624383 C34.7290604,46.7102693 34.6945923,47.7933618 35.3406271,48.4858597 C36.7494694,49.9905565 41.546169,55.0636259 44.0786061,57.1955876 C44.401543,57.4663206 44.7932549,57.6 45.1849669,57.6 C45.6728351,57.6 46.1608643,57.3909652 46.5010352,56.989927 C47.112602,56.2632059 47.0198281,55.1834875 46.2948711,54.5734145 Z" id="Shape" fill="#859DBA" fill-rule="nonzero"></path>
                <path d="M19.9148794,11.1558265 C16.9943861,8.32992161 5.3160869,7.41459792 1.80615969,7.2023655 C1.32231272,7.1780591 0.875844486,7.34151558 0.53512293,7.67218055 C0.194241637,7.99925665 0,8.45863136 0,8.93888674 L0,40.2598899 C0,41.2204007 0.763388801,42 1.70392725,42 L11.9271713,42 C12.6632449,42 13.3175325,41.5163189 13.5457984,40.7993615 C13.7945107,40.0197622 19.666167,21.6170415 20.4396193,12.5686974 C20.4840266,12.0396661 20.2931394,11.5176493 19.9148794,11.1558265 Z M10.68329,38.5199429 L3.40769477,38.5199429 L3.40769477,10.8042809 C8.88399907,11.2462006 14.7930341,12.2067114 16.9399154,13.2716255 C16.0369154,20.8930696 11.9509723,34.4341833 10.68329,38.5199429 Z" id="Shape" fill="#859DBA" fill-rule="nonzero"></path>
                <path d="M83.5831827,10.8 C69.3815853,10.8 61.5030942,14.2974055 61.1739759,14.4435657 C60.7037827,14.6557916 60.3527911,15.0490866 60.2081554,15.5259018 C60.0635197,16.0027169 60.1357527,16.5142777 60.4070506,16.9387296 C62.6425454,20.4013894 69.6420313,39.6318994 70.9876689,44.3228924 C71.2047072,45.0779992 71.9173729,45.6 72.7312666,45.6 L83.5831827,45.6 C84.581559,45.6 85.3918919,44.8204244 85.3918919,43.8599429 L85.3918919,12.539894 C85.3918919,11.5759868 84.581559,10.8 83.5831827,10.8 Z M81.774643,42.1200489 L74.0841953,42.1200489 C72.3695926,36.7468662 67.3053085,22.7363643 64.4802495,16.945744 C67.240197,16.0444769 73.1690736,14.4957658 81.774643,14.3009942 L81.774643,42.1200489 Z" id="Shape" fill="#859DBA" fill-rule="nonzero"></path>
            </g>
        </g>
    </g>
</svg>