<?xml version="1.0" encoding="UTF-8" standalone="no"?>
<svg width="83px" height="87px" viewBox="0 0 83 87" version="1.1" xmlns="http://www.w3.org/2000/svg" xmlns:xlink="http://www.w3.org/1999/xlink">
    <!-- Generator: Sketch 47.1 (45422) - http://www.bohemiancoding.com/sketch -->
    <title>search (5)</title>
    <desc>Created with Sketch.</desc>
    <defs></defs>
    <g id="Page-1" stroke="none" stroke-width="1" fill="none" fill-rule="evenodd">
        <g id="chatbots" transform="translate(-665.000000, -673.000000)">
            <g id="Group-13" transform="translate(240.000000, 587.000000)">
                <g id="Group-11" transform="translate(0.000000, 86.000000)">
                    <g id="Group-2">
                        <g id="Group-18" transform="translate(336.000000, 0.000000)">
                            <g id="search-(5)" transform="translate(90.000000, 0.000000)">
                                <ellipse id="Oval" fill="#FFEFF0" cx="38.3108108" cy="31.974359" rx="31.7432432" ry="31.974359"></ellipse>
                                <path d="M78.8657115,73.4722847 L63.6751862,58.1752934 C63.4523733,57.9509212 63.1502782,57.8250305 62.835365,57.8250305 C62.5204519,57.8250305 62.218515,57.9509212 61.9957021,58.1752934 L61.3847072,58.7905641 L57.2246884,54.6014326 C66.0020623,42.2031138 64.873597,24.8306793 53.8345452,13.7142144 C47.8766729,7.71448812 39.9551032,4.41025641 31.5295143,4.41025641 C23.1036088,4.41025641 15.1821974,7.71448812 9.22432507,13.714055 C-3.07485415,26.0993067 -3.0746959,46.2512159 9.22432507,58.6363082 C15.1821974,64.6360345 23.1036088,67.9401069 31.5295143,67.9401069 C38.1809869,67.9401069 44.5170715,65.8794837 49.8221716,62.0608532 L53.9796585,66.2474351 L53.3686636,66.8627058 C53.146009,67.0869187 53.0209932,67.3911279 53.0209932,67.7082449 C53.0209932,68.0253619 53.146009,68.3295712 53.3686636,68.5536247 L68.5593471,83.850616 C69.9357867,85.2366882 71.7659228,86 73.7125293,86 C75.6591358,86 77.4891137,85.2366882 78.8655532,83.850616 C80.2419928,82.4645438 80.9999999,80.6216 80.9999999,78.66153 C81.0003164,76.7013007 80.2423093,74.8583569 78.8657115,73.4722847 Z M49.2121263,59.5322036 C49.1834834,59.5541946 49.1567395,59.5780979 49.1304704,59.6023199 C44.0896442,63.4593551 37.9694095,65.5488215 31.5291978,65.5488215 C23.7380244,65.5486622 16.413049,62.4933434 10.9034927,56.9453894 C-0.469461954,45.4926848 -0.469461954,26.8578378 10.9034927,15.4051333 C16.4128908,9.85717921 23.7378661,6.80170109 31.5295143,6.80170109 C39.320846,6.80170109 46.6458213,9.85701985 52.1552193,15.4049739 C62.5772628,25.8999532 63.4468346,42.4250957 54.7678909,53.9287939 C54.7504837,53.9488727 54.7326016,53.968314 54.7163021,53.9896676 C53.9261707,55.0299389 53.0618211,56.0244752 52.1471487,56.9453894 C51.232951,57.8661442 50.2453263,58.7363833 49.2121263,59.5322036 Z M51.7154486,60.5853827 C52.4456041,59.9709087 53.1534466,59.3221734 53.834387,58.6363082 C54.5151691,57.9507618 55.1559146,57.240356 55.7613708,56.5098714 L59.7055396,60.4816424 L55.6589844,64.5565162 L51.7154486,60.5853827 Z M77.1865438,82.1596971 C77.1863856,82.1596971 77.1863856,82.1596971 77.1865438,82.1596971 C75.2707956,84.0888521 72.1541047,84.0886928 70.2388313,82.1596971 L55.8876525,67.7080856 L56.4986474,67.0928148 L62.2245284,61.3270221 C62.2250032,61.3265441 62.2254779,61.3259066 62.2259527,61.3254286 L62.835365,60.7117514 L77.1865438,75.1633629 C78.1143508,76.0978223 78.6254913,77.3399967 78.6254913,78.66153 C78.6254913,79.982904 78.1143508,81.2252378 77.1865438,82.1596971 Z" id="Shape" stroke="#859DBA" stroke-width="0.55" fill="#859DBA" fill-rule="nonzero"></path>
                                <path d="M31.1653775,11.025641 C23.2744139,11.025641 15.7994597,14.9927771 11.1700167,21.6379831 C10.7878356,22.186171 10.9064706,22.9521969 11.4349789,23.3486819 C11.9634872,23.7453302 12.7014163,23.622041 13.0834401,23.0736899 C17.270283,17.0638723 24.0299652,13.476075 31.1653775,13.476075 C43.4603146,13.476075 53.4629512,23.8573519 53.4629512,36.6177021 C53.4629512,38.2692874 53.2945964,39.9174435 52.962607,41.5162839 C52.8254057,42.1777999 53.230716,42.8296813 53.8681042,42.9722395 C53.9519669,42.9910187 54.0356723,43 54.118119,43 C54.6623614,43 55.1516917,42.6071075 55.2709562,42.0326289 C55.6380326,40.2642862 55.8243243,38.4425455 55.8243243,36.6177021 C55.824167,22.506233 44.762311,11.025641 31.1653775,11.025641 Z" id="Shape" stroke="#859DBA" stroke-width="0.55" fill="#859DBA" fill-rule="nonzero"></path>
                                <path d="M53.9706945,43.489588 C53.3573213,43.2538456 52.666939,43.553298 52.4279727,44.1576815 C51.2895088,47.0390304 49.5684754,49.6245271 47.3730026,51.7872215 C46.1781713,49.1394236 44.229445,46.7591449 41.7538815,44.9629001 C40.1487586,43.798276 38.3575437,42.9088413 36.4843975,42.3226159 C38.8051489,40.7422336 40.3297696,38.1028886 40.3297696,35.1180698 L40.3297696,28.5977403 C40.3297696,23.9228077 36.592369,20.0922276 31.9084714,19.8575809 C31.7574701,19.8499107 31.6053573,19.8461538 31.4524507,19.8461538 L31.4522919,19.8461538 C31.2525447,19.8461538 31.0550204,19.8550764 30.8584488,19.8679123 C26.2396517,20.1704954 22.574973,23.9689857 22.574973,28.5977403 L22.574973,35.1180698 C22.574973,38.1028886 24.0997524,40.7423901 26.4203451,42.3226159 C24.5471989,42.9089979 22.755984,43.7984326 21.1508611,44.9630566 C18.6789495,46.7564838 16.7321287,49.1326926 15.536821,51.7757944 C11.4691547,47.7598763 8.95024384,42.2188329 8.95024384,36.1087829 C8.95024384,32.7227636 9.70350362,29.4729302 11.1892228,26.4497602 C11.4761411,25.8660394 11.2286006,25.1635081 10.6365041,24.8804919 C10.0444077,24.5974757 9.33163718,24.8416711 9.04487766,25.4255485 C7.40101204,28.7705555 6.56756757,32.36508 6.56756757,36.1087829 C6.56756757,43.4845789 9.88689633,50.1101002 15.1297051,54.6111219 C15.164637,54.6497861 15.2014743,54.6870416 15.2419636,54.7213228 C17.2003755,56.3805991 19.3952132,57.7153772 21.7393056,58.6948198 C21.7531196,58.7006116 21.7667748,58.7067165 21.7805888,58.7125083 C21.8360035,58.7355191 21.8918947,58.7572775 21.947627,58.7798186 C24.0519592,59.6404508 26.3009414,60.223702 28.6478918,60.4844901 C28.666628,60.4865251 28.6852054,60.4887166 28.7039417,60.4907516 C28.8544666,60.5071878 29.0054679,60.5220587 29.1567867,60.5356773 C29.2098198,60.5405299 29.2630116,60.5450694 29.3160446,60.5496089 C29.4446577,60.5604099 29.5737471,60.5705847 29.7029953,60.5795072 C29.7834976,60.5851425 29.8643174,60.5898385 29.9449784,60.5946911 C30.053585,60.6011091 30.1623504,60.6076836 30.2712746,60.6126927 C30.3832156,60.6180149 30.4954741,60.6216152 30.6075739,60.6253721 C30.6899816,60.6280332 30.7722304,60.6316335 30.8549556,60.6335119 C31.0539089,60.638208 31.2528622,60.6410256 31.4521331,60.6410256 C31.7341292,60.6410256 32.0154901,60.6347642 32.2965335,60.6253721 C32.3575056,60.6233371 32.4186366,60.6217718 32.4797675,60.6192672 C32.7288957,60.6089359 32.9773889,60.5950042 33.2254057,60.5776288 C33.3290901,60.5704281 33.4327745,60.5619752 33.5361413,60.5536788 C33.7007977,60.5400602 33.8652955,60.5245632 34.0294756,60.5076574 C34.2406551,60.4863686 34.4508819,60.4617925 34.6609499,60.4351815 C34.7250977,60.4268851 34.7892454,60.4187452 34.8533932,60.4099793 C38.2500486,59.9532087 41.4979256,58.8120649 44.4323679,57.0383612 C44.4893705,57.0039234 44.546373,56.9696421 44.6032168,56.9348913 C44.7365934,56.8528667 44.8701287,56.770529 45.0022349,56.6855302 C45.1741954,56.5754858 45.344568,56.4626237 45.5139879,56.3483528 C45.5605109,56.3168891 45.6083042,56.2874605 45.6546684,56.2556838 C45.7084954,56.2187414 45.7602582,56.179451 45.8139263,56.1421955 C45.9639749,56.0376298 46.1130708,55.9311857 46.2608965,55.8231762 C46.3722023,55.7419343 46.4823967,55.6594401 46.5921148,55.5764762 C46.7129476,55.4850595 46.8331452,55.392547 46.9523902,55.2989388 C47.0656015,55.2100267 47.1784952,55.1204884 47.2899598,55.0298543 C47.4149209,54.9281062 47.5394057,54.8255755 47.6624614,54.7213228 C47.6645255,54.7196009 47.6661134,54.717566 47.6681775,54.7156876 C50.7655297,52.0954399 53.1572565,48.7820531 54.6477391,45.0103304 C54.8873405,44.4059468 54.5839089,43.7250174 53.9706945,43.489588 Z M24.9619364,28.5939834 C24.9619364,25.0655168 27.8738316,22.1949689 31.4527682,22.1949689 C35.0317049,22.1949689 37.9434414,25.0656734 37.9434414,28.5939834 L37.9434414,30.5322059 C35.2185908,29.8623905 34.0961639,27.0957822 34.045195,26.9664839 C33.8799034,26.5364809 33.4772333,26.2378112 33.0118445,26.2072867 C32.5483611,26.1773885 32.1077422,26.4136005 31.8864007,26.8182448 C31.8036755,26.9646055 29.9335462,30.1715481 24.9617776,30.6248749 L24.9617776,28.5939834 L24.9619364,28.5939834 Z M26.6616931,57.1967752 L27.4892626,57.943606 C26.3050697,57.7346311 25.1416771,57.4337699 24.0108347,57.0432138 C24.0082942,57.0422746 24.0057537,57.0414919 24.0032132,57.0405527 C23.8622152,56.9917137 23.7215347,56.9414658 23.5814894,56.8899656 C23.5557668,56.8804169 23.5302029,56.8707117 23.5044803,56.8610065 C23.3834888,56.8159243 23.2624972,56.7702159 23.1422995,56.7230987 C23.0209904,56.6753554 22.8999989,56.6266729 22.7798012,56.5768946 C22.7529671,56.5657806 22.7259743,56.5554492 22.699299,56.5443352 C20.7899506,55.7464738 19.0155665,54.6947118 17.4175887,53.4341315 C19.000641,49.3119258 22.6326107,46.0451865 26.9381318,44.6250965 L28.3477946,47.3250207 L26.3050697,56.0667454 C26.2085305,56.4792164 26.3449239,56.9110979 26.6616931,57.1967752 Z M24.9582844,35.1177567 L24.9582844,32.982143 C28.9730764,32.6790902 31.4435589,30.8776798 32.7622399,29.5119076 C33.6858723,30.841207 35.3379945,32.5217721 37.9470933,32.9325212 L37.9470933,35.1179132 C37.9470933,38.5660771 35.1673043,41.3849683 31.7009438,41.5142666 C31.6236172,41.5122317 31.5462906,41.5086313 31.468964,41.5075356 L31.4688052,41.5075356 C31.4578493,41.5073791 31.4472109,41.5073791 31.436255,41.5075356 C31.3589283,41.5086313 31.2816017,41.5120751 31.2042751,41.5142666 C27.7380734,41.3848118 24.9582844,38.5660771 24.9582844,35.1177567 Z M33.5896506,44.0462282 L32.5721783,45.9952517 L30.3333582,45.9952517 L29.3158859,44.0462282 C29.438624,44.0263482 29.5618385,44.0069378 29.6853706,43.9901885 C29.7077588,43.9872144 29.7299882,43.983614 29.7522176,43.9807964 C29.9041716,43.9609164 30.0569194,43.9444802 30.2098261,43.9292962 C30.2487276,43.9255394 30.2876291,43.9205302 30.3265306,43.9170865 C30.4700691,43.9039375 30.614084,43.8942323 30.7582577,43.8853098 C30.8030341,43.8824921 30.8479692,43.8784222 30.8927456,43.8760742 C31.0069096,43.8699693 31.1215499,43.8676212 31.2360314,43.8641775 C31.3081182,43.8658994 31.3798875,43.8696562 31.4524507,43.8696562 C31.5250139,43.8696562 31.5966244,43.8658994 31.66887,43.8641775 C31.7833515,43.8676212 31.8979918,43.8699693 32.0121557,43.8760742 C32.0569321,43.8784222 32.1017085,43.8826487 32.1464849,43.8853098 C32.2906586,43.8942323 32.4348323,43.9039375 32.5783708,43.9170865 C32.6171135,43.9206868 32.6558562,43.9255394 32.6947577,43.9292962 C32.8476644,43.9444802 33.000571,43.9609164 33.1526838,43.9807964 C33.1749132,43.983614 33.1969838,43.9872144 33.2192132,43.9901885 C33.3435392,44.0069378 33.4665949,44.0263482 33.5896506,44.0462282 Z M31.5018318,58.2908017 C31.4867475,58.2908017 31.471822,58.2915844 31.4567378,58.2915844 C31.4534034,58.2915844 31.4499102,58.2915844 31.4465758,58.2915844 C31.4322854,58.2915844 31.4179951,58.2911148 31.4037047,58.2911148 L28.7830149,55.9264896 L30.5546997,48.3442233 L32.3505193,48.3442233 L34.122204,55.9264896 L31.5018318,58.2908017 Z M45.0798791,53.760821 C44.998583,53.8218699 44.9164929,53.881823 44.8344028,53.9419326 C44.7059485,54.0356974 44.576224,54.1282099 44.4455467,54.21947 C44.3317003,54.2988335 44.2169013,54.3771013 44.1016259,54.4544298 C44.0042927,54.5197051 43.9063245,54.5838847 43.8081975,54.6477512 C43.6213116,54.7687531 43.4329967,54.8872505 43.2427763,55.0026171 C43.2021282,55.0273497 43.1614802,55.0520823 43.1206733,55.0765019 C40.7541927,56.4914262 38.1406481,57.4631986 35.4159563,57.9440756 L36.2435258,57.1972448 C36.5602951,56.9114109 36.6965297,56.4796861 36.6001493,56.067215 L34.5574243,47.3253338 L35.9669283,44.6255661 C40.2762602,46.0464388 43.9104528,49.3169349 45.4917585,53.4438367 C45.3556827,53.5504373 45.2186542,53.6565684 45.0798791,53.760821 Z" id="Shape" stroke="#859DBA" stroke-width="0.55" fill="#859DBA" fill-rule="nonzero"></path>
                            </g>
                        </g>
                    </g>
                </g>
            </g>
        </g>
    </g>
</svg>