<?xml version="1.0" encoding="UTF-8" standalone="no"?>
<svg width="80px" height="50px" viewBox="0 0 80 50" version="1.1" xmlns="http://www.w3.org/2000/svg" xmlns:xlink="http://www.w3.org/1999/xlink">
    <!-- Generator: Sketch 46.1 (44463) - http://www.bohemiancoding.com/sketch -->
    <title>Group 33</title>
    <desc>Created with Sketch.</desc>
    <defs></defs>
    <g id="Page-1" stroke="none" stroke-width="1" fill="none" fill-rule="evenodd">
        <g id="Desktop-HD" transform="translate(-854.000000, -5453.000000)" fill-rule="nonzero">
            <g id="Group-46" transform="translate(244.000000, 4831.000000)">
                <g id="Group-4" transform="translate(1.000000, 237.000000)">
                    <g id="Group-36" transform="translate(609.000000, 385.000000)">
                        <g id="Group-33">
                            <g id="smartphone-(8)" transform="translate(0.000000, 0.900541)">
                                <g id="group-(3)">
                                    <path d="M56,16.047228 L56,22.0211056 C56,23.1461594 56.4408792,24.1919841 57.1966721,24.9842756 L57.1966721,27.0125417 C57.1966721,27.8840623 57.8894822,28.5812788 58.7554949,28.5812788 C59.1969257,28.5812788 62.2508725,30.2997383 63.4481027,33.6165041 C64.6453329,36.9332699 63.9043338,41.5912595 63.9043338,42.0185418 C63.9043338,42.8900623 64.597144,43.5872788 65.4631566,43.5872788 L77.9494848,43.5872788 C78.8154974,43.5872788 79.5083076,42.8900623 79.5083076,42.0185418 L79.5083076,37.9303179 C79.5083076,36.5834224 78.9257172,35.3316019 77.886502,34.4759271 C74.7531107,31.893057 71.3992798,30.0074034 69.8719484,29.1992661 L69.8719484,24.9684297 C70.6277413,24.1761383 71.0686205,23.1303136 71.0686205,22.0052597 L71.0686205,16.0313822 C71.0686205,12.1966916 67.9667205,9.09090909 64.1720105,9.09090909 L62.89661,9.09090909 C59.1018999,9.10675492 56,12.2125374 56,16.047228 Z" id="Shape" fill="#FFEFF0"></path>
                                    <path d="M3.84453709,43.571433 L16.5198134,43.571433 C17.3858261,43.571433 18.0786362,42.8742165 18.0786362,42.0026959 C18.0786362,41.4925262 17.0450859,35.9280054 18.8974119,31.9327661 C20.7497378,27.9375268 24.5973498,27.4848133 24.5973498,27.1234625 L24.5973498,24.9684297 C25.3531427,24.1761383 25.7940219,23.1303136 25.7940219,22.0052597 L25.7940219,16.0313822 C25.7940219,12.1966916 22.6921219,9.09090909 18.8974119,9.09090909 L17.6220114,9.09090909 C13.8115556,9.09090909 10.7254014,12.2125374 10.7254014,16.0313822 L10.7254014,22.0052597 C10.7254014,23.1303136 11.1662806,24.1761383 11.9220734,24.9684297 L11.9220734,29.1992661 C10.3789963,30.0074034 7.04091113,31.8772112 3.90751983,34.4759271 C2.88405031,35.3316019 2.28571429,36.5834224 2.28571429,37.9303179 L2.28571429,42.0026959 C2.28571429,42.8742165 2.97852442,43.571433 3.84453709,43.571433 Z" id="Shape" fill="#FFEFF0"></path>
                                    <path d="M50.0945878,16.2419747 L50.0945878,8.525056 C50.0945878,3.81884479 46.2998777,0 41.6234093,0 L39.9701124,0 C35.293644,0 31.4989339,3.81884479 31.4989339,8.525056 L31.4989339,16.2419747 C31.4989339,17.6364077 32.0657786,18.9357657 33.042011,19.8865154 L33.042011,25.8287013 C31.1997659,26.779451 26.6965,29.2514003 22.4924021,32.7374827 C21.2642387,33.7516158 20.5714286,35.2411237 20.5714286,36.8415524 L20.5714286,42.1340593 C20.5714286,43.0055799 21.2642387,43.7027964 22.1302514,43.7027964 L59.4475246,43.7027964 C60.3135373,43.7027964 61.0063474,43.0055799 61.0063474,42.1340593 L61.0063474,36.8415524 C61.0063474,35.2411237 60.3135373,33.7516158 59.0853739,32.7374827 C54.881276,29.2672462 50.3780101,26.779451 48.535765,25.8287013 L48.535765,19.8865154 C49.5277431,18.9516115 50.0945878,17.6364077 50.0945878,16.2419747 Z" id="Shape" fill="#FFEFF0"></path>
                                    <path d="M53.6298028,20.716123 L53.6298028,26.6900006 C53.6298028,27.8150544 54.070682,28.8608791 54.8264748,29.6531706 L54.8264748,31.6814367 C54.8264748,32.5529573 55.519285,33.2501738 56.3852977,33.2501738 C57.2513103,33.2501738 56.9441205,32.5529573 56.9441205,31.6814367 L56.9441205,28.9242625 C56.9441205,28.4013501 56.6764438,27.9101294 56.2513103,27.6249045 C55.9363966,27.4189087 55.7474484,27.0703005 55.7474484,26.6900006 L55.7474484,20.716123 C55.7474484,18.6244736 58.4479824,15.9131241 60.5264128,15.9131241 L61.8018133,15.9131241 C63.8802437,15.9131241 66.5807776,18.6244736 66.5807776,20.716123 L66.5807776,26.6900006 C66.5807776,27.0703005 66.3918294,27.4189087 66.0769157,27.6249045 C65.6360365,27.9101294 65.3841056,28.4013501 65.3841056,28.9242625 L65.3841056,34.6762984 C65.3841056,35.3735149 66.1891409,35.7671379 66.8032227,36.0682087 C67.5432698,36.4326627 71.1496051,38.2938348 74.7081299,41.2253132 C75.0072979,41.4788464 75.0204648,42.1872213 75.0204648,42.5992129 L75.0204648,46.1186997 L63.0929594,46.1186997 C62.2269468,46.1186997 61.4572754,46.3091148 61.4572754,47.1806354 C61.4572754,48.052156 62.2269468,48.2561738 63.0929594,48.2561738 L75.5792876,48.2561738 C76.4453002,48.2561738 77.1381104,47.5589574 77.1381104,46.6874368 L77.1381104,42.5992129 C77.1381104,41.2523174 76.55552,40.0004969 75.5163048,39.1448222 C72.3829135,36.561952 69.0290826,34.6762984 67.5017512,33.8681611 L67.5017512,29.6373248 C68.2575441,28.8450333 68.6984233,27.7992086 68.6984233,26.6741547 L68.6984233,20.7002772 C68.6984233,16.8655866 65.5965233,13.7598041 61.8018133,13.7598041 L60.5264128,13.7598041 C56.7317027,13.7756499 53.6298028,16.8814324 53.6298028,20.716123 Z" id="Shape" fill="#859DBA"></path>
                                    <path d="M1.55882281,48.2561738 L14.2340992,48.2561738 C15.1001118,48.2561738 15.7442627,48.1623855 15.7442627,47.2908649 C15.7442627,46.4193443 15.1001118,46.1186997 14.2340992,46.1186997 L2.11764561,46.1186997 L2.11764561,42.5992129 C2.11764561,42.2030672 2.1855732,41.3890027 2.48474121,41.1354694 C6.02752032,38.203991 10.3739665,35.8443071 11.1140137,35.4956989 C11.7438411,35.1946281 11.7540048,34.3735149 11.7540048,33.6762984 L11.7540048,28.9242625 C11.7540048,28.4013501 11.4863281,27.9101294 11.0611946,27.6249045 C10.7462809,27.4189087 10.5573327,27.0703005 10.5573327,26.6900006 L10.5573327,20.716123 C10.5573327,18.6244736 13.2578667,15.9131241 15.3362971,15.9131241 L16.6116976,15.9131241 C18.690128,15.9131241 21.390662,18.6244736 21.390662,20.716123 L21.390662,26.6900006 C21.390662,27.0703005 21.2017137,27.4189087 20.8868,27.6249045 C20.4459209,27.9101294 20.1939899,28.4013501 20.1939899,28.9242625 L20.1939899,31.8082033 C20.1939899,32.6797239 19.8868,33.3769404 20.7528127,33.3769404 C21.6188254,33.3769404 22.3116355,32.6797239 22.3116355,31.8082033 L22.3116355,29.6531706 C23.0674284,28.8608791 23.5083076,27.8150544 23.5083076,26.6900006 L23.5083076,20.716123 C23.5083076,16.8814324 20.4064076,13.7756499 16.6116976,13.7756499 L15.3362971,13.7756499 C11.5258414,13.7756499 8.43968711,16.8972783 8.43968711,20.716123 L8.43968711,26.6900006 C8.43968711,27.8150544 8.88056629,28.8608791 9.63635916,29.6531706 L9.63635916,33.8840069 C8.09328204,34.6921442 4.75519684,36.561952 1.62180555,39.160668 C0.598336026,40.0163428 0,41.2681633 0,42.6150587 L0,46.6874368 C5.59399102e-16,47.5589574 0.692810136,48.2561738 1.55882281,48.2561738 Z" id="Shape" fill="#859DBA"></path>
                                    <path d="M47.9298649,20.7953522 L47.9298649,13.0784335 C47.9298649,8.37222225 44.1351548,4.55337746 39.4586864,4.55337746 L37.8053895,4.55337746 C33.128921,4.55337746 29.334211,8.37222225 29.334211,13.0784335 L29.334211,20.7953522 C29.334211,22.1897851 29.9010556,23.4891431 30.8772881,24.4398929 L30.8772881,30.3820787 C29.035043,31.3328285 24.5317771,33.8047778 20.3276792,37.2908602 C19.0995158,38.3049932 18.4067057,39.7945012 18.4067057,41.3949299 L18.4067057,46.6874368 C18.4067057,47.5589574 19.0995158,48.2561738 19.9655285,48.2561738 L57.2828017,48.2561738 C58.1488144,48.2561738 58.8416245,47.5589574 58.8416245,46.6874368 L58.8416245,41.3949299 C58.8416245,39.7945012 58.1488144,38.3049932 56.9206509,37.2908602 C52.7165531,33.8206236 48.2132872,31.3328285 46.3710421,30.3820787 L46.3710421,24.4398929 C47.3630202,23.5049889 47.9298649,22.1897851 47.9298649,20.7953522 Z M55.9524403,39.715272 C56.4563022,40.1272636 56.7397246,40.7452509 56.7397246,41.3949299 L56.7397246,46.1186997 L20.540097,46.1186997 L20.540097,41.3949299 C20.540097,40.7452509 20.8235193,40.1272636 21.3273812,39.715272 C25.9566126,35.8805814 30.5071155,33.202397 31.4676023,32.7270221 C32.1131754,32.4101056 33.0106794,31.8557408 33.0106794,31.1426785 L33.0106794,23.6951389 C33.0106794,23.1722265 32.7430028,22.6810058 32.3178693,22.3957809 C31.782516,22.0313268 31.4676023,21.4450312 31.4676023,20.811198 L31.4676023,13.0942793 C31.4676023,10.1152634 34.8766921,6.70669743 37.8211351,6.70669743 L39.4744321,6.70669743 C42.4346208,6.70669743 45.8279649,10.1311093 45.8279649,13.0942793 L45.8279649,20.811198 C45.8279649,21.4450312 45.5130512,22.0471727 44.9776979,22.3957809 C44.5368188,22.6810058 44.2848878,23.1722265 44.2848878,23.6951389 L44.2848878,31.1426785 C44.2848878,31.8715867 45.1823919,32.4101056 45.8279649,32.7270221 C46.772706,33.202397 51.323209,35.8964272 55.9524403,39.715272 Z" id="Shape" fill="#859DBA"></path>
                                </g>
                            </g>
                        </g>
                    </g>
                </g>
            </g>
        </g>
    </g>
</svg>