<?xml version="1.0" encoding="UTF-8" standalone="no"?>
<svg width="289px" height="223px" viewBox="0 0 289 223" version="1.1" xmlns="http://www.w3.org/2000/svg" xmlns:xlink="http://www.w3.org/1999/xlink">
    <!-- Generator: Sketch 46.2 (44496) - http://www.bohemiancoding.com/sketch -->
    <title>Artboard 3</title>
    <desc>Created with Sketch.</desc>
    <defs>
        <linearGradient x1="62.5568001%" y1="16.0508164%" x2="50%" y2="62.438415%" id="linearGradient-1">
            <stop stop-color="#FFFFFF" offset="0%"></stop>
            <stop stop-color="#D3DCE4" offset="100%"></stop>
        </linearGradient>
    </defs>
    <g id="Page-1" stroke="none" stroke-width="1" fill="none" fill-rule="evenodd">
        <g id="Artboard-3">
            <g id="billboard-(2)" transform="translate(20.000000, 0.000000)">
                <path d="M186.727273,183.54239 L163,183.54239 L202.545455,223 L242.090909,183.54239 L218.363636,183.54239 C218.363636,183.54239 209.910992,148.502547 250,124.568369 C250,124.568369 219.403477,118.601618 197.232026,145.333452 C197.230057,145.331476 185.943453,157.442795 186.727273,183.54239 Z" id="z" fill="url(#linearGradient-1)" fill-rule="nonzero" transform="translate(206.500000, 173.500000) scale(-1, 1) translate(-206.500000, -173.500000) "></path>
                <g id="Group">
                    <rect id="Rectangle-path" fill="#F9A53D" fill-rule="nonzero" x="72.1040462" y="151.075145" width="52.6473988" height="46.9248555"></rect>
                    <rect id="Rectangle-path" fill="#D68400" fill-rule="nonzero" x="73.2485549" y="151.075145" width="52.6473988" height="4.57803468"></rect>
                    <rect id="Rectangle-path" fill="#EAEAEA" fill-rule="nonzero" x="4.57803468" y="20.6011561" width="188.843931" height="131.618497"></rect>
                    <rect id="Rectangle-4" fill="#D0D0D0" x="12.5895954" y="48.0693642" width="109.872832" height="70.9595376"></rect>
                    <rect id="Rectangle-4" fill="#D0D0D0" x="132.763006" y="48.0693642" width="52.6473988" height="91.5606936"></rect>
                    <rect id="Rectangle-4" fill="#D0D0D0" x="12.5895954" y="124.751445" width="109.872832" height="4.57803468"></rect>
                    <rect id="Rectangle-4" fill="#D0D0D0" x="12.5895954" y="133.907514" width="109.872832" height="4.57803468"></rect>
                    <g id="copyright-symbol" opacity="0.5" transform="translate(45.780347, 64.092486)" fill-rule="nonzero" fill="#424A60">
                        <path d="M20.0285202,0 C8.98541792,0 0,8.98182842 0,20.0288472 C0,31.0715052 8.98541792,40.0578035 20.0285202,40.0578035 C31.0729306,40.0578035 40.0578035,31.0715052 40.0578035,20.0288472 C40.0578035,8.98182842 31.0729306,0 20.0285202,0 Z M20.0285202,35.5954528 C11.4446974,35.5954528 4.46202247,28.6124208 4.46202247,20.0289562 C4.46202247,11.4417849 11.4446974,4.45886195 20.0285202,4.45886195 C28.6133241,4.45886195 35.595999,11.4418939 35.595999,20.0289562 C35.59589,28.6124208 28.6132151,35.5954528 20.0285202,35.5954528 Z" id="Shape"></path>
                        <path d="M25.8787095,23.7063251 C24.6139559,25.9305255 22.2621412,27.3102564 19.7412544,27.3102564 C15.8265202,27.3102564 12.6377504,24.0431411 12.6377504,20.0311656 C12.6377504,16.0158771 15.8265202,12.7476575 19.7412544,12.7476575 C22.2622489,12.7476575 24.6139559,14.1324682 25.8787095,16.3522514 L26.0421782,16.6423549 L30.813695,16.6423549 L30.5272747,15.8550889 C29.6970006,13.6008511 28.2401147,11.6842024 26.3115727,10.3161773 C24.3781817,8.94461833 22.1071854,8.21698533 19.7412544,8.21698533 C13.3855897,8.21698533 8.21698533,13.5183588 8.21698533,20.0311656 C8.21698533,26.5444141 13.3855897,31.8408181 19.7412544,31.8408181 C22.1071854,31.8408181 24.378074,31.1156146 26.3115727,29.7419575 C28.2401147,28.3736011 29.6970006,26.4576149 30.5272747,24.2033772 L30.813695,23.4156695 L26.0421782,23.4156695 L25.8787095,23.7063251 Z" id="Shape"></path>
                    </g>
                    <rect id="Rectangle-path" fill="#9BAAAB" fill-rule="nonzero" x="0" y="0" width="198" height="20.6011561"></rect>
                    <rect id="Rectangle-path" fill="#424A60" fill-rule="nonzero" x="29.7572254" y="0" width="5.72254335" height="25.1791908"></rect>
                    <rect id="Rectangle-path" fill="#F05244" fill-rule="nonzero" x="18.3121387" y="24.0346821" width="29.7572254" height="13.734104"></rect>
                    <rect id="Rectangle-path" fill="#424A60" fill-rule="nonzero" x="96.1387283" y="0" width="5.72254335" height="25.1791908"></rect>
                    <rect id="Rectangle-path" fill="#F05244" fill-rule="nonzero" x="85.8381503" y="25.1791908" width="29.7572254" height="13.734104"></rect>
                    <rect id="Rectangle-path" fill="#424A60" fill-rule="nonzero" x="162.520231" y="0" width="5.72254335" height="25.1791908"></rect>
                    <rect id="Rectangle-path" fill="#F05244" fill-rule="nonzero" x="151.075145" y="25.1791908" width="29.7572254" height="13.734104"></rect>
                </g>
            </g>
        </g>
    </g>
</svg>