<?xml version="1.0" encoding="UTF-8" standalone="no"?>
<svg width="121px" height="139px" viewBox="0 0 121 139" version="1.1" xmlns="http://www.w3.org/2000/svg" xmlns:xlink="http://www.w3.org/1999/xlink">
    <!-- Generator: Sketch 46.1 (44463) - http://www.bohemiancoding.com/sketch -->
    <title>analytics (12)</title>
    <desc>Created with Sketch.</desc>
    <defs></defs>
    <g id="Page-1" stroke="none" stroke-width="1" fill="none" fill-rule="evenodd">
        <g id="Desktop-HD" transform="translate(-341.000000, -2754.000000)">
            <g id="Group-9" transform="translate(339.000000, 2314.000000)">
                <g id="Group-25">
                    <g id="Group-18" transform="translate(2.000000, 440.000000)">
                        <g id="analytics-(12)">
                            <g id="analytics-(13)">
                                <path d="M73.0911091,0 L6.00042866,0 C6.04310221,5.44045727 6.00042866,2.43586286 6.00042866,5.44045727 L6.00042866,125.309543 C6.00042866,128.314137 5.99946417,125.309543 6.00042866,130.75 L94.6615569,130.75 C94.6615569,125.063996 94.6615569,128.314137 94.6615569,125.309543 L94.6615569,24.7983448 L73.0911091,0 Z" id="Shape" fill="#BDBFC2" fill-rule="nonzero"></path>
                                <path d="M67.0911091,8 L0.000428663265,8 C0.0431022141,13.4404573 0.000428663265,10.4358629 0.000428663265,13.4404573 L0.000428663265,133.309543 C0.000428663265,136.314137 -0.000535829081,133.309543 0.000428663265,138.75 L88.6615569,138.75 C88.6615569,133.063996 88.6615569,136.314137 88.6615569,133.309543 L88.6615569,32.7983448 L67.0911091,8 Z" id="Shape" fill="#EAEAEA" fill-rule="nonzero"></path>
                                <g id="Group" transform="translate(6.716094, 8.000000)">
                                    <path d="M60.0188063,19.3581536 C60.0188063,22.362748 59.9764921,18.4135438 60.0188063,24.7986108 L81.5892542,24.7986108 L60.0188063,0 L60.0188063,19.3581536 Z" id="Shape" fill="#9BAAAB" fill-rule="nonzero"></path>
                                    <rect id="Rectangle-path" fill="#424A60" fill-rule="nonzero" x="0" y="96" width="72.9653261" height="4.24127962"></rect>
                                    <rect id="Rectangle-path" fill="#424A60" fill-rule="nonzero" x="57.1916204" y="94.6514893" width="15.7737057" height="6.16052246"></rect>
                                    <path d="M50.8947454,82.6831055 L66.8119474,82.6831055 L66.8119474,89.4460449 L50.8947454,89.4460449 L50.8947454,82.6831055 Z M0.283905594,84 L50.6882025,84 L50.6882025,88.2403149 L0.283905594,88.2403149 L0.283905594,84 Z" id="Rectangle-path" fill="#424A60" fill-rule="nonzero"></path>
                                    <g id="search-engine-(2)" transform="translate(81.783906, 98.000000) scale(-1, 1) translate(-81.783906, -98.000000) translate(49.283906, 65.000000)">
                                        <rect id="Rectangle-path" fill="#747B82" fill-rule="nonzero" transform="translate(27.759724, 37.307755) rotate(-135.000000) translate(-27.759724, -37.307755) " x="26.6753079" y="30.5556144" width="2.16883307" height="13.5042803"></rect>
                                        <path d="M45.0694004,39.8572929 C34.0631129,39.8572929 25.140754,30.934934 25.140754,19.9286464 C25.140754,8.92235893 34.0631129,0 45.0694004,0 C56.0756879,0 64.9980469,8.92235893 64.9980469,19.9286464 C64.9980469,30.934934 56.0756879,39.8572929 45.0694004,39.8572929 Z M45.0694004,35.5899536 C53.7189015,35.5899536 60.7307075,28.5781475 60.7307075,19.9286464 C60.7307075,11.2791454 53.7189015,4.26733934 45.0694004,4.26733934 C36.4198993,4.26733934 29.4080933,11.2791454 29.4080933,19.9286464 C29.4080933,28.5781475 36.4198993,35.5899536 45.0694004,35.5899536 Z" id="Combined-Shape" fill="#56616D" fill-rule="nonzero"></path>
                                        <circle id="Oval-11" fill="#FFFFFF" opacity="0.302238806" cx="45.0943849" cy="19.953631" r="15.6613071"></circle>
                                        <path d="M36.9642999,13.0926745 C36.6868869,13.0926745 36.4093468,12.9868179 36.1975064,12.7751046 C35.7739528,12.351551 35.7739528,11.6649442 36.1975064,11.2416447 C38.551387,8.88763707 41.6813379,7.59105208 45.0104212,7.59105208 C48.3395045,7.59105208 51.4693282,8.88738291 53.8232088,11.2415177 C54.2467625,11.6650713 54.2467625,12.3516781 53.8232088,12.7749775 C53.3996552,13.198277 52.7130484,13.1985312 52.289749,12.7748505 C50.3451892,10.8304178 47.7601522,9.75977887 45.0102941,9.75977887 C42.260436,9.75977887 39.6752719,10.8305448 37.7309663,12.7749775 C37.519253,12.9866908 37.2417129,13.0926745 36.9642999,13.0926745 Z" id="Shape" fill="#FFFFFF" fill-rule="nonzero"></path>
                                        <path d="M23.942027,47.4326702 L7.21362804,64.1610692 C5.47150478,65.9031924 3.66380886,64.88491 1.9216856,63.1427867 C0.179562343,61.4006635 -0.838720076,59.5929676 0.903403184,57.8508443 L17.6318022,41.1224453 L22.8316125,42.2327328 L23.942027,47.4326702 Z" id="Shape" fill="#31475B" fill-rule="nonzero"></path>
                                        <path d="M25.9794814,45.3949616 L23.9417729,47.4326702 L17.631548,41.1224453 L19.6692566,39.0847368 C21.4113798,37.3426135 24.2373582,37.3426135 25.9794814,39.0847368 C27.7217318,40.8269871 27.7217318,43.6528384 25.9794814,45.3949616 Z" id="Shape" fill="#747B82" fill-rule="nonzero"></path>
                                    </g>
                                </g>
                                <g id="Group-3" transform="translate(7.000000, 39.000000)" fill-rule="nonzero">
                                    <rect id="Rectangle-path" fill="#D18B33" x="0.270234827" y="38.9069079" width="9.43631226" height="3.33337744"></rect>
                                    <rect id="Rectangle-path" fill="#F9A53D" x="0.270234827" y="12.2409654" width="9.43631226" height="26.6672888"></rect>
                                    <rect id="Rectangle-path" fill="#BE3B2F" x="14.0490924" y="38.9069079" width="9.43631226" height="3.33337744"></rect>
                                    <rect id="Rectangle-path" fill="#F05244" x="14.0490924" y="0.476135543" width="9.43631226" height="38.4321187"></rect>
                                    <rect id="Rectangle-path" fill="#D18B33" x="27.8212187" y="38.9069079" width="9.43631226" height="3.33337744"></rect>
                                    <rect id="Rectangle-path" fill="#F9A53D" x="27.8212187" y="18.1233804" width="9.43631226" height="20.7891819"></rect>
                                    <rect id="Rectangle-path" fill="#BE3B2F" x="41.5933449" y="38.9069079" width="9.43631226" height="3.33337744"></rect>
                                    <rect id="Rectangle-path" fill="#F05244" x="41.5933449" y="7.92723037" width="9.43631226" height="30.9810238"></rect>
                                </g>
                            </g>
                        </g>
                    </g>
                </g>
            </g>
        </g>
    </g>
</svg>