<?xml version="1.0" encoding="UTF-8" standalone="no"?>
<svg width="51px" height="51px" viewBox="0 0 51 51" version="1.1" xmlns="http://www.w3.org/2000/svg" xmlns:xlink="http://www.w3.org/1999/xlink">
    <!-- Generator: Sketch 46.2 (44496) - http://www.bohemiancoding.com/sketch -->
    <title>blogging</title>
    <desc>Created with Sketch.</desc>
    <defs></defs>
    <g id="Page-1" stroke="none" stroke-width="1" fill="none" fill-rule="evenodd">
        <g id="Desktop-HD" transform="translate(-371.000000, -3635.000000)" fill-rule="nonzero" fill="#93CF51">
            <g id="Group-5" transform="translate(300.000000, 3158.000000)">
                <g id="blogging" transform="translate(72.000000, 478.000000)">
                    <path d="M47.1399809,3.41206809 L39.9674234,3.41206809 L39.9674234,0.781914894 C39.9674234,0.349985106 39.6174383,0 39.1855085,0 L9.81449149,0 C9.38266596,0 9.0325766,0.349985106 9.0325766,0.781914894 L9.0325766,3.41206809 L1.86001915,3.41206809 C0.834355319,3.41206809 0,4.24631915 0,5.27198298 L0,39.5932511 C0,40.6189149 0.834355319,41.4532702 1.86001915,41.4532702 L18.9377702,41.4532702 L18.9377702,47.4361702 L11.5628532,47.4361702 C11.1310277,47.4361702 10.7809383,47.7861553 10.7809383,48.2180851 C10.7809383,48.6500149 11.1310277,49 11.5628532,49 L33.9755574,49 C34.4074872,49 34.7574723,48.6500149 34.7574723,48.2180851 C34.7574723,47.7861553 34.4074872,47.4361702 33.9755574,47.4361702 L30.0622298,47.4361702 L30.0622298,41.4532702 L33.2802787,41.4532702 C33.7122085,41.4532702 34.0621936,41.1032851 34.0621936,40.6713553 C34.0621936,40.2394255 33.7122085,39.8894404 33.2802787,39.8894404 L1.86001915,39.8894404 C1.69946596,39.8894404 1.56382979,39.7538043 1.56382979,39.5932511 L1.56382979,5.27198298 C1.56382979,5.11142979 1.69946596,4.97579362 1.86001915,4.97579362 L9.0325766,4.97579362 L9.0325766,33.5274681 L4.01622766,33.5274681 C3.58440213,33.5274681 3.23431277,33.8774532 3.23431277,34.309383 C3.23431277,34.7413128 3.58440213,35.0912979 4.01622766,35.0912979 L33.280383,35.0912979 C33.7123128,35.0912979 34.0622979,34.7413128 34.0622979,34.309383 C34.0622979,33.8774532 33.7123128,33.5274681 33.280383,33.5274681 L27.1414128,33.5274681 L27.1414128,27.137034 C27.1414128,26.7051043 26.7914277,26.3551191 26.3594979,26.3551191 L13.9847043,26.3551191 C13.5528787,26.3551191 13.2027894,26.7051043 13.2027894,27.137034 L13.2027894,33.5274681 L10.5964064,33.5274681 L10.5964064,4.19492128 C10.5964064,4.19283617 10.5964064,1.56382979 10.5964064,1.56382979 L38.4036979,1.56382979 L38.4036979,8.68853404 C38.4036979,9.12046383 38.753683,9.47044894 39.1856128,9.47044894 C39.6175426,9.47044894 39.9675277,9.12046383 39.9675277,8.68853404 L39.9675277,4.97589787 L47.1400851,4.97589787 C47.3006383,4.97589787 47.4362745,5.11153404 47.4362745,5.27208723 L47.4362745,39.5933553 C47.4362745,39.7539085 47.3006383,39.8895447 47.1400851,39.8895447 L45.0904255,39.8895447 C44.6584957,39.8895447 44.3085106,40.2395298 44.3085106,40.6714596 C44.3085106,41.1033894 44.6584957,41.4533745 45.0904255,41.4533745 L47.1399809,41.4533745 C48.1656447,41.4533745 49,40.6190191 49,39.5933553 L49,5.27198298 C49,4.24631915 48.1656447,3.41206809 47.1399809,3.41206809 Z M28.4985043,47.4361702 L20.5016,47.4361702 L20.5016,41.4532702 L28.4985043,41.4532702 L28.4985043,47.4361702 Z M14.7666191,27.9190532 L25.577583,27.9190532 L25.577583,33.5275723 L14.7666191,33.5275723 L14.7666191,27.9190532 Z" id="Shape" stroke="#93CF51" stroke-width="0.5"></path>
                    <path d="M41.9901583,18.5887929 C41.988518,18.5775232 41.9872878,18.5661491 41.985135,18.5549838 C41.9819569,18.538601 41.9777537,18.5226355 41.9735505,18.5065658 C41.9713976,18.4984265 41.9697573,18.4901829 41.9673994,18.4820437 C41.9624786,18.4653478 41.9566351,18.4491737 41.9506891,18.4329996 C41.9484337,18.4269473 41.9467934,18.4206864 41.9444355,18.4147385 L41.9406423,18.405034 C41.9399247,18.4033644 41.9393096,18.4016949 41.9386945,18.4000253 L39.2134708,11.4909628 C39.0963958,11.1944025 38.8140625,11 38.4999487,11 C38.185835,11 37.9035017,11.1944025 37.7864267,11.4909628 L35.0607929,18.4006514 C35.0595627,18.4036775 35.055257,18.4146341 35.055257,18.4146341 C35.052694,18.4212081 35.0508487,18.4280952 35.0483883,18.4347735 C35.0427498,18.4503216 35.0370088,18.4658696 35.0323955,18.481835 C35.0299351,18.4901829 35.0281923,18.4987396 35.0260395,18.5071919 C35.0219388,18.5230529 35.0177355,18.5387053 35.01466,18.5549838 C35.0125071,18.5662535 35.0112769,18.5776275 35.0095341,18.5890016 C35.0074838,18.602567 35.0051259,18.6158193 35.0037931,18.6295934 C35.0013327,18.6550546 35,18.6806202 35,18.7062901 L35,45.4374152 C35,47.4017882 36.5700561,49 38.5000513,49 C40.4298414,49 42,47.4018926 42,45.4374152 L42,18.7062901 C42,18.6806202 41.9986673,18.6550546 41.9962069,18.6295934 C41.9946691,18.615715 41.9922087,18.6023583 41.9901583,18.5887929 L41.9901583,18.5887929 Z M36.5376605,19.4888044 L40.4620319,19.4888044 L40.4620319,41.8389343 L36.5376605,41.8389343 L36.5376605,19.4888044 Z M38.4998462,13.883063 L40.0936864,17.9236713 L36.9060061,17.9236713 L38.4998462,13.883063 L38.4998462,13.883063 Z M38.4998462,47.4346582 C37.4178761,47.4346582 36.537558,46.5386119 36.537558,45.4373109 L36.537558,43.4041718 L40.4620319,43.4041718 L40.4620319,45.4373109 C40.4620319,46.5386119 39.5818163,47.4346582 38.4998462,47.4346582 Z" id="Shape" stroke="#93CF51" stroke-width="0.2"></path>
                    <path d="M13.7959469,11 L35.2040531,11 C35.6437342,11 36,10.6533815 36,10.2256066 L36,4.77439339 C36,4.34661848 35.6437342,4 35.2040531,4 L13.7959469,4 C13.356372,4 13,4.34661848 13,4.77439339 L13,10.2256066 C13,10.6533815 13.356372,11 13.7959469,11 Z M14.5918938,5.54878678 L34.4081062,5.54878678 L34.4081062,9.45121322 L14.5918938,9.45121322 L14.5918938,5.54878678 Z" id="Shape"></path>
                    <path d="M32.30778,12 L13.6921277,12 C13.3098887,12 13,12.4476 13,13 C13,13.5524 13.3098887,14 13.6921277,14 L32.3078723,14 C32.6902036,14 33,13.5524 33,13 C33,12.4476 32.6901113,12 32.30778,12 L32.30778,12 Z" id="Shape"></path>
                    <path d="M26.2146421,16 L13.7853579,16 C13.3516309,16 13,16.4476 13,17 C13,17.5524 13.3516309,18 13.7853579,18 L26.2146421,18 C26.6484738,18 27,17.5524 27,17 C27,16.4476 26.6484738,16 26.2146421,16 Z" id="Shape"></path>
                    <path d="M32.2901492,16 L28.7098508,16 C28.3177292,16 28,16.4476 28,17 C28,17.5524 28.3177292,18 28.7098508,18 L32.2901492,18 C32.6822708,18 33,17.5524 33,17 C33,16.4476 32.6822708,16 32.2901492,16 Z" id="Shape"></path>
                    <path d="M26.2146421,19 L13.7853579,19 C13.3516309,19 13,19.4476 13,20 C13,20.5524 13.3516309,21 13.7853579,21 L26.2146421,21 C26.6484738,21 27,20.5524 27,20 C27,19.4476 26.6484738,19 26.2146421,19 Z" id="Shape"></path>
                    <path d="M32.2702008,19 L28.7297992,19 C28.3266581,19 28,19.4476 28,20 C28,20.5524 28.3266581,21 28.7297992,21 L32.2702008,21 C32.6733419,21 33,20.5524 33,20 C33,19.4476 32.6732446,19 32.2702008,19 Z" id="Shape"></path>
                    <path d="M26.2146421,22 L13.7853579,22 C13.3516309,22 13,22.4476 13,23 C13,23.5524 13.3516309,24 13.7853579,24 L26.2146421,24 C26.6484738,24 27,23.5524 27,23 C27,22.4476 26.6484738,22 26.2146421,22 Z" id="Shape"></path>
                    <path d="M32.2702008,22 L28.7297992,22 C28.3266581,22 28,22.4476 28,23 C28,23.5524 28.3266581,24 28.7297992,24 L32.2702008,24 C32.6733419,24 33,23.5524 33,23 C33,22.4476 32.6732446,22 32.2702008,22 Z" id="Shape"></path>
                </g>
            </g>
        </g>
    </g>
</svg>