<?xml version="1.0" encoding="UTF-8" standalone="no"?>
<svg width="80px" height="73px" viewBox="0 0 80 73" version="1.1" xmlns="http://www.w3.org/2000/svg" xmlns:xlink="http://www.w3.org/1999/xlink">
    <!-- Generator: Sketch 46.1 (44463) - http://www.bohemiancoding.com/sketch -->
    <title>Group 16</title>
    <desc>Created with Sketch.</desc>
    <defs></defs>
    <g id="Page-1" stroke="none" stroke-width="1" fill="none" fill-rule="evenodd">
        <g id="Desktop-HD" transform="translate(-741.000000, -7840.000000)">
            <g id="Group-4" transform="translate(741.000000, 7840.000000)">
                <g id="Group-30">
                    <g id="Group-16">
                        <circle id="Oval-2" fill="#FFEFF0" transform="translate(59.832819, 49.461686) rotate(-360.000000) translate(-59.832819, -49.461686) " cx="59.8328189" cy="49.4616865" r="15.7606596"></circle>
                        <circle id="Oval-2" fill="#FFEFF0" transform="translate(38.915051, 32.869796) rotate(-360.000000) translate(-38.915051, -32.869796) " cx="38.9150506" cy="32.8697955" r="32.7516314"></circle>
                        <g id="globe" transform="translate(0.000000, 2.000000)" fill-rule="nonzero" fill="#859DBA">
                            <path d="M33.8774432,0 C15.1977386,0 0,15.1977386 0,33.8774432 C0,52.5571478 15.1977386,67.7548864 33.8774432,67.7548864 C52.5571478,67.7548864 67.7548864,52.5571478 67.7548864,33.8774432 C67.7548864,15.1977386 52.5571478,0 33.8774432,0 Z M62.178474,21.160698 C60.2962909,23.4003146 58.1510283,25.3675883 57.2702147,25.6383432 C56.110971,24.5547943 53.3084066,22.514737 51.5150194,23.6492344 C50.8009464,24.1014188 50.1145312,25.1008034 50.8988734,27.2939709 C51.9106974,30.1281631 54.4084971,32.696232 55.8792546,34.0305534 C54.4828687,35.7287925 52.2276367,38.7986712 52.2276367,40.9353321 C52.2276367,41.2992499 52.1586908,41.4012793 51.5522052,41.926512 C50.6975938,42.6695661 49.4045606,43.791624 49.4045606,46.5816167 C49.4045606,48.3777829 46.337461,49.9078259 44.2532042,50.6068128 C43.4619806,49.5742125 42.346804,47.8414342 42.346804,46.5814844 C42.346804,45.7764981 42.4929005,45.5889812 42.7824468,45.212624 C43.2965634,44.5468528 43.7584083,43.8258985 43.7584083,42.346804 C43.7584083,40.9324208 43.3338815,39.9579149 42.9588477,39.0977455 C42.6170296,38.3134033 42.346804,37.6930226 42.346804,36.7005194 C42.346804,33.0158181 35.2710501,32.465839 31.0543671,32.465839 C29.9157674,32.465839 28.2312909,32.0178892 28.2312909,31.0542347 C28.2312909,30.6144896 28.1913261,30.1347797 28.1458033,29.6275444 C27.9982511,27.9499493 27.8577127,26.3660465 29.2293521,24.9945394 C31.4046545,22.819237 35.1788134,22.5850063 36.7006517,22.5850063 C38.219711,22.5850063 38.7200649,22.8221484 39.355664,23.1212227 C40.4061294,23.6174743 41.3971769,23.9966105 43.7585406,23.9966105 L45.3879662,24.0159312 C48.4054407,24.058675 51.0108278,24.1110792 52.5464288,22.6002246 C53.2714854,21.8876073 53.6395056,20.9322899 53.6395056,19.7619301 C53.6395056,14.6657569 44.7552785,14.1156454 40.9354644,14.1156454 C38.2804522,14.1156454 36.4195748,15.004796 34.7778421,15.7891382 C33.7632392,16.2744061 32.8576792,16.7072699 31.8761597,16.869908 C31.8774831,16.8299433 31.8817177,16.7858761 31.8899224,16.7375743 C32.0912021,15.4763012 33.9397724,13.558785 35.9274255,12.5511957 C37.3321484,11.8385784 38.9724254,10.8102127 39.1861444,9.16570106 C39.271632,8.50959027 39.0993335,7.92507204 38.837445,7.43570178 C40.7082474,6.73578851 44.2500282,6.16820901 47.3627829,5.94734396 C53.9117162,9.12242792 59.1792616,14.5133084 62.178474,21.160698 Z M11.292437,49.4045606 L11.292437,55.1256138 C6.08867641,49.5976355 2.8683343,42.1866802 2.83048685,34.0223487 C5.25193003,34.5061609 6.22722986,36.2381452 7.23415746,38.0693798 C7.7387461,38.9875115 8.21567698,39.8545623 8.88277148,40.5216568 C10.0875381,41.7264233 11.7058476,41.9083823 12.8871911,42.040716 C13.3297152,42.0903412 13.9995887,42.1661684 14.1153808,42.346804 C14.1153808,43.0787421 13.7459049,43.6467186 13.0925731,44.5868176 C12.2904982,45.7406357 11.292437,47.1783097 11.292437,49.4045606 Z M33.8774432,64.9318103 C26.3762362,64.9318103 19.4887932,62.2573449 14.1156454,57.8135772 L14.1156454,49.4046929 C14.1156454,48.0620345 14.7167054,47.1977627 15.4114577,46.1969225 C16.126854,45.1672335 16.9387216,43.9996527 16.9387216,42.346804 C16.9387216,39.6546059 14.5084121,39.3817337 13.2016162,39.2356373 C12.2669428,39.1308289 11.3848059,39.0315786 10.878894,38.5256666 C10.4956554,38.142428 10.1124168,37.4463525 9.70721082,36.7101797 C8.60288557,34.7005592 6.97663596,31.7917308 2.95951227,31.1841865 C4.33154872,15.3194857 17.6631166,2.82307616 33.8774432,2.82307616 C36.5441009,2.82307616 39.1190512,3.1967867 41.5903842,3.83198876 C39.1968635,4.28073255 36.7869333,4.9754848 35.7025905,6.05982765 C35.4282626,6.33415554 35.2780638,6.71051276 35.2890475,7.09917703 C35.3014868,7.48651795 35.4723297,7.8532148 35.761876,8.11232431 C36.2691113,8.56305311 36.3670383,8.79053484 36.386359,8.79053484 C36.3545989,8.85802506 36.0954894,9.30054917 34.6508017,10.0339429 C32.266015,11.2428118 29.5118847,13.7171885 29.1024441,16.2922712 C28.9149271,17.4611753 29.2540985,18.5460475 30.0563058,19.3483871 C30.3209733,19.6130546 30.6793332,19.7619301 31.0543671,19.7619301 C33.0146271,19.7619301 34.5294517,19.0368734 35.9947834,18.3365631 C37.4987566,17.6182555 38.9198889,16.9387216 40.9351998,16.9387216 C46.4753527,16.9387216 50.8161648,18.1793506 50.8161648,19.7617978 C50.8161648,20.3420813 50.6355292,20.5199379 50.5667157,20.5861048 C49.8732868,21.2684176 47.5120554,21.2243505 45.4360034,21.1925904 C44.8860242,21.18293 44.3236058,21.1732697 43.7584083,21.1732697 C41.8423477,21.1732697 41.2481691,20.8933838 40.5602982,20.5681074 C39.7594143,20.1904268 38.8523987,19.7616654 36.7005194,19.7616654 C34.3736948,19.7616654 30.0494245,20.1820898 27.2330973,22.9982846 C24.9296959,25.3003627 25.173587,28.054493 25.3335785,29.8755379 C25.3707643,30.2946389 25.4080824,30.6916402 25.4080824,31.0541024 C25.4080824,33.8344347 28.249156,35.2887828 31.0543671,35.2887828 C35.368977,35.2887828 39.0992011,36.0937691 39.5237279,36.700387 C39.5237279,38.2801875 39.9937774,39.3595017 40.3714579,40.2250968 C40.6857506,40.9488301 40.9351998,41.5194533 40.9351998,42.3465393 C40.9351998,42.9861084 40.8303914,43.1226769 40.5478588,43.4865947 C40.0088634,44.186905 39.5235955,44.9491475 39.5235955,46.5812197 C39.5235955,49.551848 42.3839898,52.810567 42.7092662,53.1731615 C42.9808151,53.4736914 43.3640536,53.6391086 43.7582759,53.6391086 C43.8753913,53.6391086 43.992639,53.6253459 44.1084311,53.5950415 C44.9396194,53.3813225 52.2276367,51.375672 52.2276367,46.5813521 C52.2276367,45.0788345 52.6949072,44.6734962 53.4034222,44.0586736 C54.0981745,43.4548346 55.0507129,42.6292043 55.0507129,40.9350674 C55.0507129,39.8033491 57.0591424,36.882346 58.9201521,34.8242913 C59.1834963,34.5334217 59.3143744,34.1447574 59.2799676,33.7531818 C59.2455608,33.3617385 59.0497069,33.001923 58.7396488,32.7620019 C57.6423373,31.9114928 54.6124235,29.1421442 53.5979528,26.4555041 C54.1728107,26.7560341 54.8923094,27.2454044 55.4643882,27.8174832 C55.9344377,28.2903118 56.5644788,28.5163378 57.2811985,28.4874891 C59.1475015,28.380828 61.5898534,26.0819259 63.3430111,24.1341053 C64.3605254,27.2023959 64.9316779,30.4719662 64.9316779,33.8773109 C64.9318103,51.0009027 51.0009027,64.9318103 33.8774432,64.9318103 Z" id="Shape"></path>
                        </g>
                        <g id="search-(1)" transform="translate(38.659789, 31.381440)">
                            <circle id="Oval" fill-opacity="0.639999986" fill="#EEF2F3" fill-rule="nonzero" cx="16.9971628" cy="16.2371113" r="15.4639155"></circle>
                            <path d="M27.3997387,27.6788624 L39.4198403,40.1798917" id="Shape" stroke="#859DBA" stroke-width="2.5" stroke-linecap="round"></path>
                            <path d="M2.32113372,21.0719045 C2.97680374,23.068296 4.05309226,24.9518009 5.54304052,26.5971615 L27.357213,4.78298907 C25.7110792,3.29226762 23.8283474,2.21675229 21.8319559,1.56108227 L2.32113372,21.0719045 Z" id="Shape" fill-opacity="0.280000001" fill="#DADFE0" fill-rule="nonzero"></path>
                            <path d="M16.9971628,32.4742226 C8.04355566,32.4742226 0.760051448,25.1907184 0.760051448,16.2371113 C0.760051448,7.28350422 8.04355566,0 16.9971628,0 C25.9507699,0 33.2342741,7.28350422 33.2342741,16.2371113 C33.2342741,25.1907184 25.9499967,32.4742226 16.9971628,32.4742226 Z M16.9971628,1.54639155 C8.89639061,1.54639155 2.306443,8.13633916 2.306443,16.2371113 C2.306443,24.3378835 8.89639061,30.9278311 16.9971628,30.9278311 C25.0979349,30.9278311 31.6878825,24.3378835 31.6878825,16.2371113 C31.6878825,8.13633916 25.0971617,1.54639155 16.9971628,1.54639155 Z" id="Shape" stroke="#859DBA" fill="#859DBA" fill-rule="nonzero"></path>
                        </g>
                    </g>
                </g>
            </g>
        </g>
    </g>
</svg>