<?xml version="1.0" encoding="UTF-8" standalone="no"?>
<svg width="65px" height="60px" viewBox="0 0 65 60" version="1.1" xmlns="http://www.w3.org/2000/svg" xmlns:xlink="http://www.w3.org/1999/xlink">
    <!-- Generator: Sketch 46.1 (44463) - http://www.bohemiancoding.com/sketch -->
    <title>Group 34</title>
    <desc>Created with Sketch.</desc>
    <defs></defs>
    <g id="Page-1" stroke="none" stroke-width="1" fill="none" fill-rule="evenodd">
        <g id="Desktop-HD" transform="translate(-415.000000, -5445.000000)">
            <g id="Group-46" transform="translate(244.000000, 4831.000000)">
                <g id="Group-4" transform="translate(1.000000, 237.000000)">
                    <g id="Group-35" transform="translate(170.000000, 377.000000)">
                        <g id="Group-34">
                            <rect id="Rectangle-7" fill="#FFEFF0" x="5.57142857" y="1" width="59.4285714" height="52.546875" rx="4"></rect>
                            <g id="profits" transform="translate(0.000000, 0.687500)" fill-rule="nonzero" fill="#859DBA">
                                <g id="line-chart-(1)">
                                    <polygon id="Shape" points="2.44052238 56.1328822 2.44052238 0 0 0 0 58.5734046 58.5734046 58.5734046 58.5734046 56.1328822"></polygon>
                                    <polygon id="Shape" points="49.153251 14.7411666 49.153251 17.181689 54.4073392 17.181689 36.168611 35.4202932 27.9687186 27.2204008 18.7188512 36.4690288 14.6195867 32.3696403 5.18976612 41.7980975 6.91530914 43.5237645 14.6195867 35.8207263 18.7188512 39.9201148 27.9687186 30.6714868 36.168611 38.8713793 56.1328822 18.907232 56.1328822 24.1613203 58.5734046 24.1613203 58.5734046 14.7411666"></polygon>
                                </g>
                            </g>
                        </g>
                    </g>
                </g>
            </g>
        </g>
    </g>
</svg>