<?xml version="1.0" encoding="UTF-8" standalone="no"?>
<svg width="289px" height="223px" viewBox="0 0 289 223" version="1.1" xmlns="http://www.w3.org/2000/svg" xmlns:xlink="http://www.w3.org/1999/xlink">
    <!-- Generator: Sketch 46.2 (44496) - http://www.bohemiancoding.com/sketch -->
    <title>Artboard 3</title>
    <desc>Created with Sketch.</desc>
    <defs></defs>
    <g id="Page-1" stroke="none" stroke-width="1" fill="none" fill-rule="evenodd">
        <g id="Artboard-3" fill-rule="nonzero">
            <g id="Group-11" transform="translate(23.000000, 17.000000)">
                <g id="Group-5">
                    <g id="gauge">
                        <path d="M32.8763766,0 C51.0319803,0 65.7509434,14.7093138 65.7509434,32.8553555 C65.7509434,49.0418983 54.0388556,62.4939889 38.6214418,65.2082164 C36.755616,65.5370741 34.8373036,65.7087379 32.8765412,65.7087379 C30.9177532,65.7087379 28.9974664,65.5372385 27.133615,65.2082164 C11.7140623,62.4939889 0,49.0418983 0,32.8553555 C-0.000164534901,14.7093138 14.7186341,0 32.8763766,0 Z" id="Shape" fill="#F05244"></path>
                        <path d="M32.8766983,62.9708738 C31.1079217,62.9708738 29.3363647,62.8164201 27.611419,62.5120892 C20.7229212,61.2995053 14.4240156,57.6777709 9.87507863,52.3143876 C5.27380611,46.8890593 2.73962264,39.9783607 2.73962264,32.8553496 C2.73962264,16.2485561 16.2590294,2.73786408 32.8765348,2.73786408 C49.4930588,2.73786408 63.0113208,16.2485561 63.0113208,32.8553496 C63.0113208,39.9783607 60.4776279,46.8892228 55.8771732,52.3143876 C51.3290539,57.6779344 45.0314567,61.2995053 38.1441037,62.5120892 C36.4170319,62.8165836 34.6448208,62.9708738 32.8766983,62.9708738 Z" id="Shape" fill="#F9A53D"></path>
                        <path d="M13.4946444,13.4846942 C24.1803703,2.80582748 41.5696525,2.80582748 52.2568513,13.4861662 C62.9440501,24.1665049 62.9425773,41.5431529 52.2568513,52.2220197 C41.5696525,62.9023584 24.1818432,62.9038303 13.4946444,52.2234916 C2.80744558,41.5431529 2.80744558,24.1650329 13.4946444,13.4846942 Z" id="Shape" fill="#F0F0F0"></path>
                        <path d="M51.3785064,12.776699 C62.0192185,23.4106227 62.017752,40.7117547 51.3785064,51.3442128 C40.7377943,61.9781365 23.4256178,61.979602 12.7849057,51.3456783" id="Shape" fill="#FFFFFF"></path>
                        <path d="M35.6150943,32.8543689 C35.6150943,31.3422869 34.3900245,30.1165049 32.8764377,30.1165049 C31.3628509,30.1165049 30.1358491,31.3422869 30.1358491,32.8543689 C30.1358491,34.366451 31.3628509,35.592233 32.8764377,35.592233 C34.3900245,35.592233 35.6150943,34.366451 35.6150943,32.8543689 Z" id="Shape" fill="#FFFFFF"></path>
                        <g id="Group" transform="translate(10.045283, 10.038835)" fill="#666666">
                            <path d="M24.0455196,19.5854548 L24.0455196,11.0466436 L22.2203443,11.0466436 L22.2203443,19.5856194 C20.6071643,19.9928644 19.4082261,21.4471932 19.4082261,23.1792189 C19.4082261,25.225485 21.0794032,26.8903499 23.1334277,26.8903499 C25.1864607,26.8903499 26.8566465,25.225485 26.8566465,23.1792189 C26.856977,21.4471932 25.6583692,19.9925352 24.0455196,19.5854548 Z M23.1337582,25.0723978 C22.0860091,25.0723978 21.2335666,24.2233397 21.2335666,23.1793835 C21.2335666,22.136415 22.0848524,21.2876861 23.1316101,21.2866985 L23.1354105,21.2866985 C24.1811768,21.2876861 25.0316364,22.136415 25.0316364,23.1793835 C25.0319669,24.2233397 24.1803506,25.0723978 23.1337582,25.0723978 Z" id="Shape"></path>
                            <rect id="Rectangle-path" x="22.2201791" y="0.0720991519" width="1.8251753" height="5.50109945"></rect>
                            <rect id="Rectangle-path" transform="translate(16.144391, 4.048300) rotate(-109.998771) translate(-16.144391, -4.048300) " x="13.3834126" y="3.13915977" width="5.52195691" height="1.81828143"></rect>
                            <rect id="Rectangle-path" transform="translate(9.999279, 7.585475) rotate(-130.002181) translate(-9.999279, -7.585475) " x="7.23845487" y="6.67644017" width="5.52164741" height="1.81806932"></rect>
                            <rect id="Rectangle-path" transform="translate(5.436941, 12.999528) rotate(-149.999272) translate(-5.436941, -12.999528) " x="2.67610645" y="12.0904899" width="5.52166994" height="1.81807674"></rect>
                            <rect id="Rectangle-path" transform="translate(3.007663, 19.644832) rotate(-169.996999) translate(-3.007663, -19.644832) " x="0.246681065" y="18.7356898" width="5.52196419" height="1.81828383"></rect>
                            <rect id="Rectangle-path" transform="translate(43.254613, 26.717100) rotate(-169.996999) translate(-43.254613, -26.717100) " x="40.4936308" y="25.8079584" width="5.52196419" height="1.81828383"></rect>
                            <rect id="Rectangle-path" transform="translate(3.009507, 26.715165) rotate(-99.997359) translate(-3.009507, -26.715165) " x="2.09701643" y="23.9646597" width="1.82498086" height="5.50101143"></rect>
                            <rect id="Rectangle-path" transform="translate(43.257969, 19.644341) rotate(-99.997359) translate(-43.257969, -19.644341) " x="42.3454782" y="16.893835" width="1.82498086" height="5.50101143"></rect>
                            <rect id="Rectangle-path" transform="translate(40.832429, 13.000406) rotate(-120.000728) translate(-40.832429, -13.000406) " x="39.9199445" y="10.2499994" width="1.82496991" height="5.50081382"></rect>
                            <rect id="Rectangle-path" transform="translate(36.266289, 7.586026) rotate(-139.997819) translate(-36.266289, -7.586026) " x="35.3538074" y="4.8356304" width="1.82496247" height="5.50079137"></rect>
                            <rect id="Rectangle-path" transform="translate(30.123144, 4.048739) rotate(-160.001229) translate(-30.123144, -4.048739) " x="29.2105563" y="1.298189" width="1.82517538" height="5.5010997"></rect>
                        </g>
                    </g>
                    <g id="protest" transform="translate(0.000000, 21.902913)">
                        <path d="M162.092664,75.5911754 L153.418868,77.5728155 L153.418868,48.368932 L162.092664,50.3505721 C164.483208,50.8964329 166.203774,53.2932581 166.203774,56.077479 L166.203774,69.8639378 C166.203774,72.6481587 164.483208,75.0456455 162.092664,75.5911754 Z" id="Shape" fill="#31475B"></path>
                        <path d="M162.092664,66.8579424 L153.418868,68.8344179 L153.418868,77.5728155 L162.092664,75.59634 C164.483208,75.0515719 166.203774,72.6609933 166.203774,69.8840287 L166.203774,61.1456311 C166.203774,63.9225957 164.483208,66.3131742 162.092664,66.8579424 Z" id="Shape" fill="#556778"></path>
                        <path d="M8.21886792,83.0485437 L5.47914183,83.0485437 C2.45296726,83.0485437 0,80.4803903 0,77.312113 L0,48.6296346 C0,45.4613573 2.45296726,42.8932039 5.47914183,42.8932039 L8.21886792,42.8932039 L8.21886792,83.0485437 Z" id="Shape" fill="#E09538"></path>
                        <path d="M73.9698113,30.5073962 L73.9698113,93.6087837 C93.8847481,93.6087837 125.179879,102.213592 147.939623,122.291262 L147.939623,1.82524272 C125.179879,21.9029126 93.8847481,30.5073962 73.9698113,30.5073962 Z" id="Shape" fill="#DFE0E0"></path>
                        <path d="M153.418868,125.941748 L150.679245,125.941748 C149.16637,125.941748 147.939623,124.660003 147.939623,123.079302 L147.939623,2.86244509 C147.939623,1.28174507 149.16637,0 150.679245,0 L153.418868,0 C154.931743,0 156.158491,1.28174507 156.158491,2.86244509 L156.158491,123.079627 C156.15818,124.660003 154.931743,125.941748 153.418868,125.941748 Z" id="Shape" fill="#31475B"></path>
                        <path d="M78.392046,160.329386 L78.392046,160.329386 C77.017944,160.329386 75.8342631,159.359118 75.5644727,158.011198 L62.7654332,94 L31.0490566,94 L44.0747723,159.142196 C44.8834903,163.186285 48.4335531,166.097087 52.5568388,166.097087 L78.392046,166.097087 C79.9843319,166.097087 81.2754717,164.805684 81.2754717,163.213073 C81.2754717,161.620462 79.9846585,160.329386 78.392046,160.329386 Z" id="Shape" fill="#F9A53D"></path>
                        <path d="M69.4037736,94 L69.4037736,97.0561599 C69.4037736,98.3522575 68.3999505,99.4579646 67.0295501,99.6708777 L21.572358,106.739955 C19.8408516,107.009325 18.2641509,105.763378 18.2641509,104.125237 L18.2641509,94 L69.4037736,94 Z" id="Shape" fill="#CE801F"></path>
                        <path d="M74.8826913,94 L17.0464317,94 C10.6581082,94 5.47924528,88.8739661 5.47924528,82.5508092 L5.47924528,42.478317 C5.47924528,36.1551601 10.6581082,31.0291262 17.0464317,31.0291262 L74.8830189,31.0291262 L74.8830189,94 L74.8826913,94 Z" id="Shape" fill="#F9A53D"></path>
                        <rect id="Rectangle-path" fill="#31475B" x="69.4037736" y="31.0291262" width="6.39245283" height="62.9708738"></rect>
                        <path d="M5.47924528,73.9223301 L68.490566,73.9223301 L68.490566,94 L16.9360555,94 C10.6088698,94 5.47956974,88.8633683 5.47956974,82.5271386 L5.47956974,73.9223301 L5.47924528,73.9223301 Z" id="Shape" fill="#DC8E2D"></path>
                        <rect id="Rectangle-path" fill="#556778" x="69.4037736" y="73.9223301" width="6.39245283" height="20.0776699"></rect>
                        <path d="M75.7962264,93.8389113 C95.2194364,93.8389113 125.741848,102.374681 147.939623,122.291262 L147.939623,88.1485055 C125.741534,78.6641737 95.2194364,73.9223301 75.7962264,73.9223301 L75.7962264,93.8389113 Z" id="Shape" fill="#B8BCC0"></path>
                        <path d="M153.418868,91.4026646 L150.679245,91.4026646 C149.16637,91.4026646 147.939623,90.1137785 147.939623,88.5242718 L147.939623,123.063355 C147.939623,124.652861 149.16637,125.941748 150.679245,125.941748 L153.418868,125.941748 C154.931743,125.941748 156.158491,124.652861 156.158491,123.063355 L156.158491,88.5242718 C156.15818,90.1137785 154.931743,91.4026646 153.418868,91.4026646 Z" id="Shape" fill="#556778"></path>
                    </g>
                    <g id="chat-(4)" transform="translate(166.203774, 6.388350)">
                        <path d="M32.5448276,0 L3.07026675,0 C1.39881353,0 0,1.41524295 0,3.10632781 L0,23.6080913 C0,25.2991762 1.39881353,26.7144191 3.07026675,26.7144191 L4.29837345,26.7144191 L7.98269356,26.7144191 L9.21080026,26.7144191 L9.21080026,31.9417476 L14.272442,26.3081115 L17.3420947,22.6979373 C17.5631539,22.4382483 17.9506216,22.4084275 18.208524,22.6320831 C18.4651983,22.8557387 18.4946729,23.2483786 18.2736137,23.5080676 L15.5478308,26.7144191 L32.5448276,26.7144191 C34.2162808,26.7144191 35.6150943,25.2991762 35.6150943,23.6080913 L35.6150943,3.10632781 C35.6150943,1.41524295 34.2162808,0 32.5448276,0 Z" id="Shape" fill="#F05244"></path>
                        <ellipse id="Oval" fill="#FFFFFF" cx="9.13207547" cy="13.6893204" rx="1.82641509" ry="1.82524272"></ellipse>
                        <ellipse id="Oval" fill="#FFFFFF" cx="17.3509434" cy="13.6893204" rx="1.82641509" ry="1.82524272"></ellipse>
                        <ellipse id="Oval" fill="#FFFFFF" cx="26.4830189" cy="13.6893204" rx="1.82641509" ry="1.82524272"></ellipse>
                    </g>
                    <g id="chat-(4)" transform="translate(213.881132, 130.558252) scale(1, -1) translate(-213.881132, -130.558252) translate(185.381132, 105.058252)">
                        <path d="M51.737931,0 L4.88093689,0 C2.22375485,0 0,2.22395321 0,4.88137227 L0,37.0984292 C0,39.7558483 2.22375485,41.9798015 4.88093689,41.9798015 L6.83331165,41.9798015 L12.6904359,41.9798015 L14.6428107,41.9798015 L14.6428107,50.1941748 L22.6895232,41.341318 L27.5694839,35.6681872 C27.9209114,35.2601044 28.5368856,35.2132433 28.9468843,35.5647021 C29.3549306,35.9161609 29.4017876,36.5331663 29.0503602,36.941249 L24.7170644,41.9798015 L51.737931,41.9798015 C54.3951131,41.9798015 56.6188679,39.7558483 56.6188679,37.0984292 L56.6188679,4.88137227 C56.6188679,2.22395321 54.3951131,0 51.737931,0 Z" id="Shape" fill="#31475B"></path>
                        <ellipse id="Oval" fill="#FFFFFF" cx="14.6113208" cy="20.9902913" rx="2.73962264" ry="2.73786408"></ellipse>
                        <ellipse id="Oval" fill="#FFFFFF" cx="27.3962264" cy="20.9902913" rx="2.73962264" ry="2.73786408"></ellipse>
                        <ellipse id="Oval" fill="#FFFFFF" cx="41.0943396" cy="20.9902913" rx="2.73962264" ry="2.73786408"></ellipse>
                    </g>
                </g>
            </g>
        </g>
    </g>
</svg>