<?xml version="1.0" encoding="UTF-8" standalone="no"?>
<svg width="158px" height="211px" viewBox="0 0 158 211" version="1.1" xmlns="http://www.w3.org/2000/svg" xmlns:xlink="http://www.w3.org/1999/xlink">
    <!-- Generator: Sketch 46.2 (44496) - http://www.bohemiancoding.com/sketch -->
    <title>report (1)</title>
    <desc>Created with Sketch.</desc>
    <defs></defs>
    <g id="Page-1" stroke="none" stroke-width="1" fill="none" fill-rule="evenodd">
        <g id="Artboard-3" transform="translate(-77.000000, -27.000000)" fill-rule="nonzero">
            <g id="report-(1)" transform="translate(77.000000, 27.000000)">
                <path d="M154.90928,19 L123.214377,19 C121.507279,19 120.123657,20.386225 120.123657,22.096315 L120.123657,37.1314928 L37.8763431,37.1314928 L37.8763431,22.096315 C37.8763431,20.3866376 36.4927211,19 34.7856229,19 L3.09072013,19 C1.38403353,19 0,20.386225 0,22.096315 L0,207.903685 C0,209.613362 1.38362198,211 3.09072013,211 L154.90928,211 C156.616378,211 158,209.613775 158,207.903685 L158,22.096315 C158,20.3858124 156.615966,19 154.90928,19 Z" id="Shape" fill="#424A60"></path>
                <g id="Group" transform="translate(26.000000, 19.000000)">
                    <path d="M11.58135,3.34129336 C11.58135,1.63755032 10.194525,0.25572591 8.483475,0.25572591 L0.22275,0.25572591 L0.22275,18.2790578 L11.58135,18.2790578 L11.58135,3.34129336 Z" id="Shape" fill="#465A65"></path>
                    <path d="M128.885213,0.25572591 L120.624488,0.25572591 L120.624488,191.589276 L128.885213,191.589276 C130.596263,191.589276 131.983088,190.207863 131.983088,188.503709 L131.983088,3.34129336 C131.983088,1.63672805 130.59585,0.25572591 128.885213,0.25572591 Z" id="Shape" fill="#363C4F"></path>
                </g>
                <path d="M141.898143,30 L124.380023,30 C122.666545,30 121.277752,31.3828081 121.277752,33.0886829 L121.277752,36.4086568 L38.723074,36.4086568 L38.723074,33.0886829 C38.723074,31.3832196 37.3342813,30 35.6208036,30 L18.1022704,30 C16.3892058,30 15,31.3828081 15,33.0886829 L15,193.911317 C15,195.61678 16.3887927,197 18.1022704,197 L141.89773,197 C143.611207,197 145,195.617192 145,193.911317 L145,33.0882713 C145,31.3823965 143.61162,30 141.898143,30 Z" id="Shape" fill="#E3E3E3"></path>
                <path d="M139.999927,30 L132,30 L132,197 L139.999927,197 C141.656958,197 143,195.617192 143,193.911317 L143,33.0882713 C142.999601,31.3823965 141.656958,30 139.999927,30 Z" id="Shape" fill="#D7D4D4"></path>
                <path d="M108.930529,102.015876 L74.59187,102 C74.5914611,102 74.5906433,102 74.5906433,102 C73.6338614,102 72.7310518,102.455402 72.1504405,103.232511 L51.6303299,130.668623 C50.6073092,132.036501 50.8555001,133.991389 52.1864083,135.047588 C58.7420002,140.250038 66.6035585,143 74.9206104,143 C95.3573092,143 111.990595,126.021848 112,105.153139 C112.000817,103.421357 110.626977,102.016712 108.930529,102.015876 Z" id="Shape" fill="#FF6137"></path>
                <path d="M110.845768,102 L99.0654034,102 C100.808277,102.000836 102.220475,103.405607 102.219635,105.138478 C102.211232,124.026607 88.2186612,139.727774 70,142.548183 C71.9332117,142.8441 73.9012977,143 75.8966949,143 C96.8977356,143 113.990336,126.015271 114,105.138478 C114.00084,103.406025 112.589062,102.000836 110.845768,102 Z" id="Shape" fill="#E04F32"></path>
                <path d="M78.5155887,104.338377 L56.4965992,69.4441182 C56.0536838,68.7423979 55.3514405,68.2478245 54.546701,68.0714585 C53.7411383,67.8942606 52.8997636,68.0498287 52.2082227,68.5023905 C39.554672,76.7853521 32,90.808943 32,106.015933 C32,119.931791 38.2551515,132.809003 49.1613268,141.345699 C49.7063268,141.772055 50.3731697,142 51.0552431,142 C51.1877884,142 51.3215686,141.991265 51.4545256,141.973795 C52.2712024,141.866478 53.0117273,141.433882 53.5114479,140.772925 L78.3649316,107.910619 C79.1527942,106.869894 79.2128924,105.44316 78.5155887,104.338377 Z" id="Shape" fill="#F05244"></path>
                <path d="M53.3235571,139.799593 L78.3608162,107.651475 C79.1536751,106.633367 79.2146324,105.237233 78.5117579,104.156867 L73.8611756,97 L67.5813344,105.797965 L44,136.00061 C45.5214433,137.554629 47.1693625,139.013428 48.9412696,140.359919 C49.4902996,140.777009 50.1620734,141 50.8491902,141 C50.9827156,141 51.1174851,140.991455 51.2514252,140.974364 C52.0737261,140.869379 52.8197268,140.446592 53.3235571,139.799593 Z" id="Shape" fill="#D3333C"></path>
                <g id="Group" transform="translate(37.000000, 156.000000)" fill="#424A60">
                    <path d="M80.7109515,6.27778846 L3.19852427,6.27778846 C1.50751456,6.27778846 0.136194175,4.92086538 0.136194175,3.24692308 C0.136194175,1.57298077 1.5071068,0.216057692 3.19852427,0.216057692 L80.7113592,0.216057692 C82.4027767,0.216057692 83.7736893,1.57298077 83.7736893,3.24692308 C83.7736893,4.92086538 82.4027767,6.27778846 80.7109515,6.27778846 Z" id="Shape"></path>
                    <path d="M56.6416893,20.7504231 L3.19852427,20.7504231 C1.50751456,20.7504231 0.136194175,19.3935 0.136194175,17.7195577 C0.136194175,16.0456154 1.5071068,14.6886923 3.19852427,14.6886923 L56.6416893,14.6886923 C58.3331068,14.6886923 59.7040194,16.0456154 59.7040194,17.7195577 C59.7040194,19.3935 58.3331068,20.7504231 56.6416893,20.7504231 Z" id="Shape"></path>
                </g>
                <path d="M123.896119,11.7672286 L96.6616396,11.7672286 C93.9230669,4.73006251 87.1801529,0 79.5,0 C71.8194338,0 65.0769331,4.73006251 62.3383604,11.7672286 L35.1034678,11.7672286 C33.389742,11.7672286 32,13.1674938 32,14.8949043 L32,40.8723243 C32,42.5993181 33.3893287,44 35.1034678,44 L123.896532,44 C125.610671,44 127,42.5997348 127,40.8723243 L127,14.8949043 C126.999587,13.1674938 125.610258,11.7672286 123.896119,11.7672286 Z" id="Shape" fill="#F9A53D"></path>
                <path d="M32,32 L32,39.9999637 C32,41.6564794 33.3893287,43 35.1034678,43 L123.896532,43 C125.610671,43 127,41.6568791 127,39.9999637 L127,32 L32,32 Z" id="Shape" fill="#C08D50"></path>
                <path d="M75.6977775,55 C65.9760206,55 56.5402703,57.759235 48.4100412,62.9786043 C46.9861725,63.8926366 46.572367,65.776196 47.4838074,67.1953944 L72.7633339,106.562439 C73.330005,107.444644 74.3104814,107.978781 75.3645141,107.979189 L122.912691,108 C122.913102,108 122.913513,108 122.913924,108 C123.732083,108 124.516547,107.667031 125.095545,107.092905 C125.674544,106.51837 126,105.729201 126,104.916365 C125.999589,77.3929754 103.434248,55 75.6977775,55 Z" id="Shape" fill="#F9A53D"></path>
                <path d="M75.7506946,55 C73.8197025,55 71.900615,55.1138451 70,55.329702 C95.0051972,58.1766459 114.491222,79.3269457 114.491222,104.916797 C114.491222,105.729218 114.166106,106.518789 113.587711,107.09332 C113.033126,107.644183 112.288889,107.969396 111.507708,107.995103 L122.915913,108 C122.916324,108 122.916734,108 122.917145,108 C123.73445,108 124.518095,107.667034 125.096489,107.092912 C125.674884,106.518381 126,105.729218 126,104.916389 C126,77.3923949 103.458213,55 75.7506946,55 Z" id="Shape" fill="#DD8D2B"></path>
            </g>
        </g>
    </g>
</svg>