<?xml version="1.0" encoding="UTF-8" standalone="no"?>
<svg width="289px" height="223px" viewBox="0 0 289 223" version="1.1" xmlns="http://www.w3.org/2000/svg" xmlns:xlink="http://www.w3.org/1999/xlink">
    <!-- Generator: Sketch 46.2 (44496) - http://www.bohemiancoding.com/sketch -->
    <title>Artboard 3</title>
    <desc>Created with Sketch.</desc>
    <defs></defs>
    <g id="Page-1" stroke="none" stroke-width="1" fill="none" fill-rule="evenodd">
        <g id="Artboard-3" fill-rule="nonzero">
            <g id="report-(1)" transform="translate(70.000000, 12.000000)">
                <path d="M146.085334,18 L116.195837,18 C114.585978,18 113.28117,19.3068059 113.28117,20.918922 L113.28117,35.0927094 L35.7188299,35.0927094 L35.7188299,20.918922 C35.7188299,19.3071948 34.4140218,18 32.8041634,18 L2.91466645,18 C1.30519618,18 0,19.3068059 0,20.918922 L0,196.081078 C0,197.692805 1.30480807,199 2.91466645,199 L146.085334,199 C147.695192,199 149,197.693194 149,196.081078 L149,20.918922 C149,19.3064169 147.694804,18 146.085334,18 Z" id="Shape" fill="#424A60"></path>
                <g id="Group" transform="translate(25.000000, 18.000000)">
                    <path d="M10.87945,3.1498651 C10.87945,1.54373233 9.576675,0.241074946 7.969325,0.241074946 L0.20925,0.241074946 L0.20925,17.2318201 L10.87945,17.2318201 L10.87945,3.1498651 Z" id="Shape" fill="#465A65"></path>
                    <path d="M121.073987,0.241074946 L113.313913,0.241074946 L113.313913,180.612807 L121.073987,180.612807 C122.681337,180.612807 123.984112,179.310537 123.984112,177.704017 L123.984112,3.1498651 C123.984112,1.54295717 122.68095,0.241074946 121.073987,0.241074946 Z" id="Shape" fill="#363C4F"></path>
                </g>
                <path d="M133.089026,29 L116.648944,29 C115.040911,29 113.737583,30.3000052 113.737583,31.9037318 L113.737583,35.0249049 L36.2631925,35.0249049 L36.2631925,31.9037318 C36.2631925,30.3003921 34.959864,29 33.3518311,29 L16.9113614,29 C15.3037162,29 14,30.3000052 14,31.9037318 L14,183.096268 C14,184.699608 15.3033285,186 16.9113614,186 L133.088639,186 C134.696671,186 136,184.699995 136,183.096268 L136,31.9033449 C136,30.2996183 134.697059,29 133.089026,29 Z" id="Shape" fill="#E3E3E3"></path>
                <path d="M132.999927,29 L125,29 L125,186 L132.999927,186 C134.656958,186 136,184.699995 136,183.096268 L136,31.9033449 C135.999601,30.2996183 134.656958,29 132.999927,29 Z" id="Shape" fill="#D7D4D4"></path>
                <path d="M103.081486,96.0147147 L70.4316141,96 C70.4312253,96 70.4304478,96 70.4304478,96 C69.5207207,96 68.6623115,96.4220802 68.1102549,97.1423272 L48.5993301,122.570919 C47.6266219,123.838709 47.8626067,125.650556 49.1280604,126.629472 C55.3612461,131.451255 62.8361704,134 70.744187,134 C90.1758022,134 105.991058,118.264152 106,98.9224216 C106.000777,97.317355 104.694502,96.0154892 103.081486,96.0147147 Z" id="Shape" fill="#FF6137"></path>
                <path d="M104.060829,96 L93.0836713,96 C94.7077128,96.0007748 96.0236249,97.3027575 96.0228418,98.9088333 C96.0150113,116.414904 82.9764798,130.967205 66,133.581243 C67.8014018,133.855507 69.6353002,134 71.4946475,134 C91.0637991,134 106.990995,118.258056 107,98.9088333 C107.000783,97.3031449 105.685262,96.0007748 104.060829,96 Z" id="Shape" fill="#E04F32"></path>
                <path d="M74.5362019,98.3741399 L53.4541907,65.3660578 C53.0301227,64.7022683 52.3577622,64.2344286 51.5872669,64.0675959 C50.8159834,63.8999763 50.0104119,64.0471353 49.3482984,64.4752342 C37.2331966,72.3104682 30,85.5760272 30,99.9610178 C30,113.124667 35.9889748,125.305814 46.4310575,133.381066 C46.9528661,133.784377 47.5913327,134 48.2443817,134 C48.3712868,134 48.4993742,133.991737 48.6266734,133.975211 C49.408598,133.873695 50.1176113,133.464483 50.5960672,132.839254 L74.3919558,101.753289 C75.1462923,100.768818 75.2038331,99.419205 74.5362019,98.3741399 Z" id="Shape" fill="#F05244"></path>
                <path d="M50.7907824,131.854157 L74.397341,101.167317 C75.1448937,100.195487 75.2023677,98.8628133 74.5396575,97.8315546 L70.1548227,91 L64.2338296,99.3980579 L42,128.227855 C43.4345037,129.711236 44.9882561,131.103727 46.6589114,132.389013 C47.1765682,132.787145 47.8099549,133 48.4578079,133 C48.5837033,133 48.7107716,132.991843 48.837058,132.975529 C49.6123703,132.875317 50.3157424,132.471747 50.7907824,131.854157 Z" id="Shape" fill="#D3333C"></path>
                <g id="Group" transform="translate(35.000000, 147.000000)" fill="#424A60">
                    <path d="M75.9067282,5.97884615 L3.00813592,5.97884615 C1.41778155,5.97884615 0.128087379,4.68653846 0.128087379,3.09230769 C0.128087379,1.49807692 1.41739806,0.205769231 3.00813592,0.205769231 L75.9071117,0.205769231 C77.4978495,0.205769231 78.7871602,1.49807692 78.7871602,3.09230769 C78.7871602,4.68653846 77.4978495,5.97884615 75.9067282,5.97884615 Z" id="Shape"></path>
                    <path d="M53.2701602,19.7623077 L3.00813592,19.7623077 C1.41778155,19.7623077 0.128087379,18.47 0.128087379,16.8757692 C0.128087379,15.2815385 1.41739806,13.9892308 3.00813592,13.9892308 L53.2701602,13.9892308 C54.8608981,13.9892308 56.1502087,15.2815385 56.1502087,16.8757692 C56.1502087,18.47 54.8608981,19.7623077 53.2701602,19.7623077 Z" id="Shape"></path>
                </g>
                <path d="M116.092154,10.9649176 L90.5777466,10.9649176 C88.0121363,4.40755825 81.6950907,0 74.5,0 C67.3045222,0 60.9878637,4.40755825 58.4222534,10.9649176 L32.9074593,10.9649176 C31.3019688,10.9649176 30,12.2697102 30,13.8793427 L30,38.0855749 C30,39.6948191 31.3015816,41 32.9074593,41 L116.092541,41 C117.698418,41 119,39.6952074 119,38.0855749 L119,13.8793427 C118.999613,12.2697102 117.698031,10.9649176 116.092154,10.9649176 Z" id="Shape" fill="#F9A53D"></path>
                <path d="M30,30 L30,37.9999637 C30,39.6564794 31.3015816,41 32.9074593,41 L116.092541,41 C117.698418,41 119,39.6568791 119,37.9999637 L119,30 L30,30 Z" id="Shape" fill="#C08D50"></path>
                <path d="M71.8814625,52 C62.7750067,52 53.9364557,54.6030519 46.3207981,59.5269852 C44.9870476,60.3892798 44.5994324,62.1662227 45.4531867,63.5050891 L69.1327432,100.643811 C69.6635489,101.476079 70.5819699,101.979982 71.5692917,101.980367 L116.10809,102 C116.108475,102 116.10886,102 116.109245,102 C116.875622,102 117.610436,101.685878 118.152789,101.14425 C118.695143,100.602236 119,99.8577368 119,99.0909105 C118.999615,73.1254485 97.8624603,52 71.8814625,52 Z" id="Shape" fill="#F9A53D"></path>
                <path d="M71.4426216,52 C69.6150756,52 67.7987964,52.107401 66,52.3110396 C89.6656331,54.9968357 108.107764,74.9499488 108.107764,99.0913178 C108.107764,99.8577533 107.800065,100.602632 107.252655,101.144641 C106.72778,101.664324 106.023413,101.971129 105.284081,101.995381 L116.081132,102 C116.081521,102 116.081909,102 116.082298,102 C116.855819,102 117.597483,101.685881 118.144892,101.144256 C118.692301,100.602247 119,99.8577533 119,99.0909329 C119,73.1249009 97.665809,52 71.4426216,52 Z" id="Shape" fill="#DD8D2B"></path>
            </g>
        </g>
    </g>
</svg>