<?xml version="1.0" encoding="UTF-8" standalone="no"?>
<svg width="289px" height="223px" viewBox="0 0 289 223" version="1.1" xmlns="http://www.w3.org/2000/svg" xmlns:xlink="http://www.w3.org/1999/xlink">
    <!-- Generator: Sketch 46.2 (44496) - http://www.bohemiancoding.com/sketch -->
    <title>Artboard 3</title>
    <desc>Created with Sketch.</desc>
    <defs>
        <linearGradient x1="62.5568001%" y1="16.0508164%" x2="50%" y2="62.438415%" id="linearGradient-1">
            <stop stop-color="#FFFFFF" offset="0%"></stop>
            <stop stop-color="#D3DCE4" offset="100%"></stop>
        </linearGradient>
    </defs>
    <g id="Page-1" stroke="none" stroke-width="1" fill="none" fill-rule="evenodd">
        <g id="Artboard-3" fill-rule="nonzero">
            <g id="planning">
                <path d="M217.727273,178.75965 L191,178.75965 L235.545455,223 L280.090909,178.75965 L253.363636,178.75965 C253.363636,178.75965 243.842267,139.472553 289,112.637262 C289,112.637262 254.534951,105.947268 229.560214,135.919325 C229.557995,135.91711 216.84435,149.496467 217.727273,178.75965 Z" id="Shape" fill="url(#linearGradient-1)" transform="translate(240.000000, 167.500000) scale(-1, 1) translate(-240.000000, -167.500000) "></path>
                <path d="M210.648733,0 L28.3695735,0 C12.7267056,0 0,12.6099801 0,28.1093764 L0,136.119785 C0,136.282539 0.0117031021,136.44281 0.0346913385,136.599766 C0.0112851342,137.059456 0,137.48063 0,137.890624 C0,153.39002 12.7267056,166 28.3695735,166 L210.649151,166 C212.499913,166 214,164.513671 214,162.679884 L214,3.32011596 C213.999582,1.48674271 212.499913,0 210.648733,0 Z" id="Shape" fill="#EEF2F3"></path>
                <path d="M210.625063,0 L121,0 L121,166 L210.625063,166 C212.489129,166 214,164.513668 214,162.679876 L214,3.32012424 C214,1.48674642 212.48955,0 210.625063,0 Z" id="Shape" fill="#DDDDDD"></path>
                <path d="M56.9995801,28.1093764 C56.9995801,12.6099801 44.2143646,0 28.4995801,0 C12.7847956,0 0,12.6099801 0,28.1093764 L0,136.119785 C0,136.282539 0.0117569061,136.44281 0.0348508287,136.599766 C0.0113370166,137.060284 0,137.48063 0,137.890624 C0,153.39002 12.7852155,166 28.5,166 C44.2147845,166 57,153.390434 57,137.890624 C57,137.48063 56.988663,137.060284 56.9651492,136.599766 C56.9882431,136.443224 57,136.282954 57,136.119785 L57,28.1093764 L56.9995801,28.1093764 Z" id="Shape" fill="#D6D6D6"></path>
                <path d="M28.5,110 C12.7852155,110 0,122.785215 0,138.5 C0,154.214785 12.7852155,167 28.5,167 C44.2147845,167 57,154.215204 57,138.5 C57,122.784796 44.2147845,110 28.5,110 Z" id="Shape" fill="#A8ACAC"></path>
                <path d="M28,125 C20.2802495,125 14,131.280665 14,139 C14,146.719751 20.2806653,153 28,153 C35.7193347,153 42,146.719335 42,139 C42,131.280249 35.7193347,125 28,125 Z" id="Shape" fill="#FFFFFF"></path>
                <path d="M39.5,52 C37.5672945,52 36,53.5062428 36,55.3645997 L36,87.6634141 L36,96.6354003 C36,98.4933375 37.5668579,100 39.5,100 C41.4327055,100 43,98.4937572 43,96.6354003 L43,87.6634141 L43,55.3645997 C43,53.5062428 41.4331421,52 39.5,52 Z" id="Shape" fill="#FFFFFF"></path>
                <g id="Group" transform="translate(67.000000, 19.000000)">
                    <path d="M23.123028,94.5739634 L35.710729,81.9034762 C36.998243,80.6074945 36.998243,78.5064396 35.710729,77.2108718 C34.423215,75.9148901 32.3358879,75.9148901 31.048785,77.2108718 L18.4610841,89.881359 L5.87338318,77.2108718 C4.58586916,75.9148901 2.49854206,75.9148901 1.21143925,77.2108718 C-0.0760747664,78.5068535 -0.0760747664,80.6079084 1.21143925,81.9034762 L13.7991402,94.5739634 L1.21143925,107.244451 C-0.0760747664,108.540432 -0.0760747664,110.641487 1.21143925,111.937055 C1.85499065,112.584839 2.69880374,112.908938 3.54220561,112.908938 C4.38560748,112.908938 5.22983178,112.585253 5.87297196,111.937055 L18.4606729,99.2665678 L31.0483738,111.937055 C31.6919252,112.584839 32.5357383,112.908938 33.3791402,112.908938 C34.2225421,112.908938 35.0663551,112.585253 35.7099065,111.937055 C36.9974206,110.641073 36.9974206,108.540018 35.7099065,107.244451 L23.123028,94.5739634 Z" id="Shape" fill="#31475B"></path>
                    <path d="M30.1560374,18.4748791 L42.7437383,5.80439194 C44.0312523,4.50841026 44.0312523,2.40735531 42.7437383,1.11178755 C41.4558131,-0.184194139 39.368486,-0.184194139 38.0813832,1.11178755 L25.4936822,13.7822747 L12.9059813,1.11178755 C11.6184673,-0.184194139 9.53114019,-0.184194139 8.24403738,1.11178755 C6.95652336,2.40776923 6.95652336,4.50882418 8.24403738,5.80439194 L20.8317383,18.4748791 L8.24403738,31.1453663 C6.95652336,32.441348 6.95652336,34.5424029 8.24403738,35.8379707 C8.88758879,36.4857546 9.73140187,36.8098535 10.5748037,36.8098535 C11.4182056,36.8098535 12.2620187,36.4861685 12.9055701,35.8379707 L25.493271,23.1674835 L38.080972,35.8379707 C38.7245234,36.4857546 39.5683364,36.8098535 40.4117383,36.8098535 C41.2551402,36.8098535 42.0989533,36.4861685 42.7429159,35.8379707 C44.0304299,34.541989 44.0304299,32.4409341 42.7429159,31.1453663 L30.1560374,18.4748791 Z" id="Shape" fill="#2C4053"></path>
                </g>
                <path d="M183.606846,130.000051 L196.045777,117.561085 C197.318074,116.288784 197.318074,114.22612 196.045777,112.954226 C194.773073,111.681925 192.710822,111.681925 191.438525,112.954226 L179,125.392785 L166.561475,112.954226 C165.288772,111.681925 163.22652,111.681925 161.954223,112.954226 C160.681926,114.226527 160.681926,116.28919 161.954223,117.561085 L174.393154,130.000051 L161.954223,142.439017 C160.681926,143.711318 160.681926,145.773981 161.954223,147.045876 C162.590575,147.681823 163.424415,148 164.257849,148 C165.091283,148 165.925123,147.68223 166.561475,147.045876 L179,134.607316 L191.438525,147.045876 C192.074877,147.68223 192.908311,148 193.742151,148 C194.575585,148 195.409425,147.68223 196.045777,147.045876 C197.318074,145.773575 197.318074,143.710912 196.045777,142.439017 L183.606846,130.000051 Z" id="Shape" fill="#345E83"></path>
                <g id="Group" transform="translate(80.000000, 76.000000)" fill="#F05244">
                    <path d="M3.51797015,73.8586893 C1.6678806,73.8586893 0.16758209,72.3582034 0.16758209,70.5069492 C0.16758209,68.656113 1.66746269,67.155209 3.51797015,67.155209 C38.1247164,67.155209 66.2797612,38.9892203 66.2797612,4.3680904 C66.2797612,2.51725424 67.7792239,1.01635028 69.6301493,1.01635028 C71.4806567,1.01635028 72.9805373,2.51683616 72.9805373,4.3680904 C72.9797015,42.6854576 41.8194627,73.8586893 3.51797015,73.8586893 Z" id="Shape"></path>
                    <path d="M55.3351045,20.2329379 C54.4779701,20.2329379 53.6204179,19.906 52.9659701,19.2512881 C51.6574925,17.9422825 51.6574925,15.820113 52.9659701,14.5115254 L66.3671045,1.10498305 C67.676,-0.204022599 69.7968955,-0.204022599 71.1053731,1.10498305 L82.7195224,12.7238192 C84.028,14.0328249 84.028,16.1549944 82.7195224,17.4635819 C81.4106269,18.7725876 79.2897313,18.7725876 77.9812537,17.4635819 L68.7362388,8.21441808 L57.7046567,19.2508701 C57.050209,19.9055819 56.1922388,20.2329379 55.3351045,20.2329379 Z" id="Shape"></path>
                </g>
                <circle id="Oval" fill="#F9A53D" cx="152.5" cy="43.5" r="18.5"></circle>
            </g>
        </g>
    </g>
</svg>