<?xml version="1.0" encoding="UTF-8" standalone="no"?>
<svg width="47px" height="47px" viewBox="0 0 47 47" version="1.1" xmlns="http://www.w3.org/2000/svg" xmlns:xlink="http://www.w3.org/1999/xlink">
    <!-- Generator: Sketch 46.2 (44496) - http://www.bohemiancoding.com/sketch -->
    <title>briefcase (1)</title>
    <desc>Created with Sketch.</desc>
    <defs></defs>
    <g id="Page-1" stroke="none" stroke-width="1" fill="none" fill-rule="evenodd">
        <g id="Desktop-HD" transform="translate(-373.000000, -4382.000000)" fill-rule="nonzero" fill="#DF6254">
            <g id="Group-5" transform="translate(300.000000, 3158.000000)">
                <g id="briefcase-(1)" transform="translate(73.000000, 1224.000000)">
                    <path d="M32.8107777,7.39530612 L32.8107777,3.79836735 C32.8107777,1.6977551 31.1126761,0 29.011635,0 L18.1994285,0 C16.0983874,0 14.4002858,1.6977551 14.4002858,3.79836735 L14.4002858,7.39530612 L0,7.39530612 L0,20.6991837 C0,20.6991837 1.14166156,20.9773469 1.69810165,21.1020408 L1.69810165,47 L45.503368,47 L45.503368,21.0444898 C45.9350888,20.9485714 47,20.6991837 47,20.6991837 L47,7.39530612 L32.8107777,7.39530612 Z M16.2998571,3.79836735 C16.2998571,2.69530612 17.2016738,1.89918367 18.1994285,1.89918367 L29.0020412,1.89918367 C30.1053276,1.89918367 30.9016126,2.80081633 30.9016126,3.79836735 L30.9016126,7.39530612 L16.2998571,7.39530612 L16.2998571,3.79836735 Z M2.10104103,9.4 L14.4002858,9.4 L32.8107777,9.4 L44.9085528,9.4 L44.9085528,19.2028571 C42.5868545,19.7591837 35.3243519,21.2746939 29.0020412,21.9653061 L29.0020412,19.4042857 L18.3049602,19.4042857 L18.3049602,22.0036735 C11.6372729,21.2555102 4.39395795,19.682449 2.10104103,19.2028571 L2.10104103,9.4 Z M26.9010002,21.3034694 L26.9010002,27.7012245 L20.1949377,27.7012245 L20.1949377,21.3034694 L26.9010002,21.3034694 L26.9010002,21.3034694 Z M43.6133905,44.9953061 L3.60726679,44.9953061 L3.60726679,21.5240816 C6.98428251,22.2626531 12.8844662,23.4328571 18.314554,23.9412245 L18.314554,29.6963265 L28.9156971,29.6963265 L29.011635,29.6963265 L29.011635,23.8644898 C34.2978159,23.2602041 40.2843437,22.1091837 43.6133905,21.4281633 L43.6133905,44.9953061 Z" id="Shape"></path>
                </g>
            </g>
        </g>
    </g>
</svg>