<?xml version="1.0" encoding="UTF-8" standalone="no"?>
<svg width="95px" height="139px" viewBox="0 0 95 139" version="1.1" xmlns="http://www.w3.org/2000/svg" xmlns:xlink="http://www.w3.org/1999/xlink">
    <!-- Generator: Sketch 46.1 (44463) - http://www.bohemiancoding.com/sketch -->
    <title>analytics (13)</title>
    <desc>Created with Sketch.</desc>
    <defs></defs>
    <g id="Page-1" stroke="none" stroke-width="1" fill="none" fill-rule="evenodd">
        <g id="Desktop-HD" transform="translate(-339.000000, -2314.000000)" fill-rule="nonzero">
            <g id="Group-9" transform="translate(339.000000, 2314.000000)">
                <g id="Group-25">
                    <g id="Group-9">
                        <g id="Group-23">
                            <g id="analytics-(13)">
                                <path d="M73.1366258,0 L6.0459454,0 C6.08861895,5.44045727 6.0459454,2.43586286 6.0459454,5.44045727 L6.0459454,125.309543 C6.0459454,128.314137 6.04498091,125.309543 6.0459454,130.75 L94.7070737,130.75 C94.7070737,125.063996 94.7070737,128.314137 94.7070737,125.309543 L94.7070737,24.7983448 L73.1366258,0 Z" id="Shape" fill="#BDBFC2"></path>
                                <path d="M67.1366258,8 L0.0459454034,8 C0.0886189542,13.4404573 0.0459454034,10.4358629 0.0459454034,13.4404573 L0.0459454034,133.309543 C0.0459454034,136.314137 0.044980911,133.309543 0.0459454034,138.75 L88.7070737,138.75 C88.7070737,133.063996 88.7070737,136.314137 88.7070737,133.309543 L88.7070737,32.7983448 L67.1366258,8 Z" id="Shape" fill="#EAEAEA"></path>
                                <g id="Group" transform="translate(6.716094, 8.000000)">
                                    <path d="M60.4205314,19.3581536 C60.4205314,22.362748 60.3782172,18.4135438 60.4205314,24.7986108 L81.9909793,24.7986108 L60.4205314,0 L60.4205314,19.3581536 Z" id="Shape" fill="#9BAAAB"></path>
                                    <rect id="Rectangle-path" fill="#424A60" x="0.154102724" y="117.123054" width="72.9653261" height="4.24127962"></rect>
                                    <rect id="Rectangle-path" fill="#424A60" x="0.154102724" y="105.444106" width="72.9653261" height="4.24127962"></rect>
                                    <rect id="Rectangle-path" fill="#424A60" x="0.154102724" y="93.7542521" width="72.9653261" height="4.24127962"></rect>
                                </g>
                                <rect id="Rectangle-path" fill="#424A60" x="6.88968785" y="90.053977" width="46.5280418" height="4.24031494"></rect>
                                <path d="M28,36 C15.8496258,36 6,45.7673189 6,57.8158995 C6,66.9371393 11.649715,74.7414778 19.6643724,78 L28,57.8158995 L28,36 Z" id="Shape" fill="#F9A53D"></path>
                                <path d="M50,45.0690016 C46.2976979,37.9138885 38.7423743,33 30,33 L30,55 L50,45.0690016 Z" id="Shape" fill="#D18B33"></path>
                                <path d="M50.6122378,47 L31,56.8299669 L49.2458219,69 C51.616096,65.5254714 53,61.3376289 53,56.8299669 C53,53.2889411 52.1277289,49.9556398 50.6122378,47 Z" id="Shape" fill="#BE3B2F"></path>
                                <path d="M21,78.3546279 C23.6120926,79.4092443 26.4681076,80 29.4668801,80 C37.1827131,80 43.9850286,76.150064 48,70.2949707 L29.4668801,58 L21,78.3546279 Z" id="Shape" fill="#F05244"></path>
                            </g>
                        </g>
                    </g>
                </g>
            </g>
        </g>
    </g>
</svg>