<?xml version="1.0" encoding="UTF-8" standalone="no"?>
<svg width="119px" height="126px" viewBox="0 0 119 126" version="1.1" xmlns="http://www.w3.org/2000/svg" xmlns:xlink="http://www.w3.org/1999/xlink">
    <!-- Generator: Sketch 46.1 (44463) - http://www.bohemiancoding.com/sketch -->
    <title>idea (5)</title>
    <desc>Created with Sketch.</desc>
    <defs></defs>
    <g id="Page-1" stroke="none" stroke-width="1" fill="none" fill-rule="evenodd">
        <g id="Desktop-HD" transform="translate(-341.000000, -3194.000000)" fill-rule="nonzero">
            <g id="Group-9" transform="translate(339.000000, 2314.000000)">
                <g id="Group-25">
                    <g id="Group-18" transform="translate(2.000000, 880.000000)">
                        <g id="idea-(5)">
                            <path d="M59.4249278,21.347496 C38.4640587,21.347496 21.4738238,38.3401028 21.4738238,59.2986 C21.4738238,76.113311 32.4203454,90.3497189 47.5652078,95.3331733 L47.5652078,118.5972 L52.3090958,118.5972 L52.3090958,125.713032 L66.5407598,125.713032 L66.5407598,118.5972 L71.2846479,118.5972 L71.2846479,95.3331733 C86.4295103,90.3497189 97.3760319,76.113311 97.3760319,59.2986 C97.3760319,38.3401028 80.385797,21.347496 59.4249278,21.347496 Z" id="Shape" fill="#F9A53D"></path>
                            <g id="Group" fill="#F9A53D">
                                <path d="M59.4249278,0 C58.1132428,0 57.0529838,1.06025897 57.0529838,2.371944 L57.0529838,11.85972 C57.0529838,13.171405 58.1132428,14.231664 59.4249278,14.231664 C60.7366129,14.231664 61.7968718,13.171405 61.7968718,11.85972 L61.7968718,2.371944 C61.7968718,1.06025897 60.7366129,0 59.4249278,0 Z" id="Shape"></path>
                                <path d="M116.351584,56.926656 L106.863808,56.926656 C105.552123,56.926656 104.491864,57.986915 104.491864,59.2986 C104.491864,60.610285 105.552123,61.670544 106.863808,61.670544 L116.351584,61.670544 C117.663269,61.670544 118.723528,60.610285 118.723528,59.2986 C118.723528,57.986915 117.663269,56.926656 116.351584,56.926656 Z" id="Shape"></path>
                                <path d="M11.9860478,56.926656 L2.49827183,56.926656 C1.1865868,56.926656 0.12632783,57.986915 0.12632783,59.2986 C0.12632783,60.610285 1.1865868,61.670544 2.49827183,61.670544 L11.9860478,61.670544 C13.2977329,61.670544 14.3579918,60.610285 14.3579918,59.2986 C14.3579918,57.986915 13.2977329,56.926656 11.9860478,56.926656 Z" id="Shape"></path>
                                <path d="M98.0022251,17.367374 L91.2943674,24.0752316 C90.3669373,25.0026617 90.3669373,26.5017303 91.2943674,27.4291604 C91.7568965,27.8916895 92.3641142,28.12414 92.9713318,28.12414 C93.5785495,28.12414 94.1857672,27.8916895 94.6482963,27.4291604 L101.356154,20.7213028 C102.283584,19.7938727 102.283584,18.2948041 101.356154,17.367374 C100.428724,16.4399439 98.9272832,16.4423158 98.0022251,17.367374 Z" id="Shape"></path>
                                <path d="M24.2015594,91.1680396 L17.4937018,97.8758972 C16.5662717,98.8033273 16.5662717,100.302396 17.4937018,101.229826 C17.9562309,101.692355 18.5634485,101.924806 19.1706662,101.924806 C19.7778839,101.924806 20.3851015,101.692355 20.8476306,101.229826 L27.5554883,94.5219684 C28.4829184,93.5945383 28.4829184,92.0954697 27.5554883,91.1680396 C26.6280582,90.2406095 25.1289895,90.2406095 24.2015594,91.1680396 Z" id="Shape"></path>
                                <path d="M94.6482963,91.1680396 C93.7208662,90.2406095 92.2217975,90.2406095 91.2943674,91.1680396 C90.3669373,92.0954697 90.3669373,93.5945383 91.2943674,94.5219684 L98.0022251,101.229826 C98.4647542,101.692355 99.0719718,101.924806 99.6791895,101.924806 C100.286407,101.924806 100.893625,101.692355 101.356154,101.229826 C102.283584,100.302396 102.283584,98.8033273 101.356154,97.8758972 L94.6482963,91.1680396 Z" id="Shape"></path>
                                <path d="M20.8476306,17.367374 C19.9202005,16.4399439 18.4211319,16.4399439 17.4937018,17.367374 C16.5662717,18.2948041 16.5662717,19.7938727 17.4937018,20.7213028 L24.2015594,27.4291604 C24.6640885,27.8916895 25.2713062,28.12414 25.8785238,28.12414 C26.4857415,28.12414 27.0929592,27.8916895 27.5554883,27.4291604 C28.4829184,26.5017303 28.4829184,25.0026617 27.5554883,24.0752316 L20.8476306,17.367374 Z" id="Shape"></path>
                            </g>
                            <path d="M33.3335438,61.670544 C32.0218588,61.670544 30.9615998,60.610285 30.9615998,59.2986 C30.9615998,43.6034466 43.7297744,30.835272 59.4249278,30.835272 C60.7366129,30.835272 61.7968718,31.895531 61.7968718,33.207216 C61.7968718,34.518901 60.7366129,35.57916 59.4249278,35.57916 C46.3460286,35.57916 35.7054878,46.2197008 35.7054878,59.2986 C35.7054878,60.610285 34.6452289,61.670544 33.3335438,61.670544 Z" id="Shape" fill="#FFF0DD"></path>
                            <polygon id="Shape" fill="#424A60" points="47.5652078 101.993592 47.5652078 118.5972 52.3090958 118.5972 52.3090958 125.713032 66.5407598 125.713032 66.5407598 118.5972 71.2846479 118.5972 71.2846479 101.993592"></polygon>
                        </g>
                    </g>
                </g>
            </g>
        </g>
    </g>
</svg>