<?xml version="1.0" encoding="UTF-8" standalone="no"?>
<svg width="151px" height="141px" viewBox="0 0 151 141" version="1.1" xmlns="http://www.w3.org/2000/svg" xmlns:xlink="http://www.w3.org/1999/xlink">
    <!-- Generator: Sketch 46.1 (44463) - http://www.bohemiancoding.com/sketch -->
    <title>diagram</title>
    <desc>Created with Sketch.</desc>
    <defs></defs>
    <g id="Page-1" stroke="none" stroke-width="1" fill="none" fill-rule="evenodd">
        <g id="Desktop-HD" transform="translate(-949.000000, -2533.000000)" fill-rule="nonzero">
            <g id="Group-9" transform="translate(339.000000, 2314.000000)">
                <g id="Group-25">
                    <g id="Group-21" transform="translate(0.000000, 219.000000)">
                        <g id="diagram" transform="translate(610.000000, 0.000000)">
                            <path d="M106.559885,140.540126 L44.1833814,140.540126 C44.1833814,134.798928 48.8381686,130.14414 54.5793673,130.14414 L96.163605,130.14414 C101.905098,130.143846 106.559885,134.798928 106.559885,140.540126" id="Shape" fill="#DADFE0"></path>
                            <polygon id="Shape" fill="#B0B6BB" points="93.5647558 130.143846 57.1785109 130.143846 62.3765039 109.351874 88.3667629 109.351874"></polygon>
                            <path d="M150.743267,88.5596083 L0,88.5596083 L0,9.28955381 C0,4.26556338 4.07271799,0.19284539 9.09670842,0.19284539 L141.646853,0.19284539 C146.670843,0.19284539 150.743561,4.26556338 150.743561,9.28955381 L150.743561,88.5596083 L150.743267,88.5596083 Z" id="Shape" fill="#424A60"></path>
                            <path d="M141.646558,109.351874 L9.09670842,109.351874 C4.07271799,109.351874 0,105.279156 0,100.255166 L0,88.5596083 L150.743267,88.5596083 L150.743267,100.255166 C150.743267,105.279156 146.670549,109.351874 141.646558,109.351874" id="Shape" fill="#DADFE0"></path>
                            <polygon id="Shape" fill="#F05244" points="67.5744968 28.7822481 83.16877 28.7822481 83.16877 13.1879749 67.5744968 13.1879749"></polygon>
                            <g id="Group" transform="translate(33.563930, 28.558783)" fill="#FFFFFF">
                                <polygon id="Shape" points="39.2085592 26.2134297 44.4068466 26.2134297 44.4068466 0.223465116 39.2085592 0.223465116"></polygon>
                                <polygon id="Shape" points="83.3919406 28.0956596 78.1939477 28.0956596 78.1939477 18.416882 5.42145803 18.416882 5.42145803 28.0956596 0.223465116 28.0956596 0.223465116 13.2185946 83.3919406 13.2185946"></polygon>
                            </g>
                            <g id="Group" transform="translate(25.908999, 54.762202)" fill="#F9A53D">
                                <path d="M20.8735261,10.4062906 C20.8735261,16.1474892 16.2187389,20.8022764 10.4775403,20.8022764 C4.73634166,20.8022764 0.0815544627,16.1474892 0.0815544627,10.4062906 C0.0815544627,4.66509192 4.73634166,0.0103047155 10.4775403,0.0103047155 C16.2187389,0.0103047155 20.8735261,4.66509192 20.8735261,10.4062906" id="Shape"></path>
                                <path d="M59.8586202,10.4062906 C59.8586202,16.1474892 55.203833,20.8022764 49.4626344,20.8022764 C43.7214358,20.8022764 39.0666486,16.1474892 39.0666486,10.4062906 C39.0666486,4.66509192 43.7214358,0.0103047155 49.4626344,0.0103047155 C55.203833,0.0103047155 59.8586202,4.66509192 59.8586202,10.4062906" id="Shape"></path>
                                <path d="M98.8440087,10.4062906 C98.8440087,16.1474892 94.1892215,20.8022764 88.4480229,20.8022764 C82.7068243,20.8022764 78.0520371,16.1474892 78.0520371,10.4062906 C78.0520371,4.66509192 82.7068243,0.0103047155 88.4480229,0.0103047155 C94.1892215,0.0100102951 98.8440087,4.66509192 98.8440087,10.4062906" id="Shape"></path>
                            </g>
                        </g>
                    </g>
                </g>
            </g>
        </g>
    </g>
</svg>