<?xml version="1.0" encoding="UTF-8" standalone="no"?>
<svg width="112px" height="133px" viewBox="0 0 112 133" version="1.1" xmlns="http://www.w3.org/2000/svg" xmlns:xlink="http://www.w3.org/1999/xlink">
    <!-- Generator: Sketch 46.2 (44496) - http://www.bohemiancoding.com/sketch -->
    <title>target</title>
    <desc>Created with Sketch.</desc>
    <defs></defs>
    <g id="Page-1" stroke="none" stroke-width="1" fill="none" fill-rule="evenodd">
        <g id="Desktop-HD" transform="translate(-444.000000, -946.000000)" fill-rule="nonzero">
            <g id="Group-3" transform="translate(300.000000, 892.000000)">
                <g id="Group-27">
                    <g id="target" transform="translate(144.000000, 54.000000)">
                        <path d="M13.5757576,133 L24.9094788,133 L35.7707636,109.276551 C32.5278545,108.093533 29.4305455,106.607685 26.5090424,104.855154 L13.5757576,133 Z" id="XMLID_1294_" fill="#C6C6C8"></path>
                        <path d="M83.6965818,133 L95.030303,133 L82.0970182,104.855495 C79.1755152,106.608026 76.0782061,108.093874 72.835297,109.276892 L83.6965818,133 Z" id="XMLID_1295_" fill="#ACACB3"></path>
                        <path d="M13.5757576,57.974359 C13.5757576,35.3735667 31.8100364,17.0512821 54.3030303,17.0512821 L54.3030303,3.41025641 C24.3121455,3.41025641 0,27.8396282 0,57.974359 C0,77.9025333 10.6338909,95.3323538 26.5090424,104.855495 C29.4302061,106.608026 32.5278545,108.093874 35.7707636,109.276892 C41.5540364,111.386477 47.7944727,112.538462 54.3030303,112.538462 L54.3030303,98.8974359 C31.8100364,98.8974359 13.5757576,80.5751513 13.5757576,57.974359 Z" id="XMLID_1296_" fill="#516C86"></path>
                        <path d="M79.2756364,25.6471744 L82.0013091,22.9083974 L83.2014061,14.4686949 L84.8226909,12.8396154 C76.124703,6.88974103 65.6187636,3.41025641 54.3030303,3.41025641 L54.3030303,17.0512821 C63.7144242,17.0512821 72.3791515,20.2603333 79.2756364,25.6471744 Z" id="XMLID_1297_" fill="#374C60"></path>
                        <path d="M108.606061,57.974359 C108.606061,46.6042231 105.143224,36.0474333 99.2221576,27.3076282 L97.6008727,28.9367077 L89.2015515,30.1425744 L86.4755394,32.8813513 C91.8362667,39.8113333 95.030303,48.5177179 95.030303,57.974359 C95.030303,80.5751513 76.7960242,98.8974359 54.3030303,98.8974359 L54.3030303,112.538462 C60.8115879,112.538462 67.0520242,111.386477 72.835297,109.276551 C76.0782061,108.093533 79.1755152,106.607685 82.0970182,104.855154 C97.9721697,95.3323538 108.606061,77.9025333 108.606061,57.974359 Z" id="XMLID_1298_" fill="#374C60"></path>
                        <path d="M81.4545455,57.974359 C81.4545455,73.0415538 69.2984727,85.2564103 54.3030303,85.2564103 C39.3075879,85.2564103 27.1515152,73.0415538 27.1515152,57.974359 C27.1515152,42.9064821 39.3075879,30.6923077 54.3030303,30.6923077 C59.9607273,30.6923077 65.2128485,32.4329026 69.5621818,35.4073282 L79.2756364,25.6471744 C72.3791515,20.2603333 63.7144242,17.0512821 54.3030303,17.0512821 C31.8100364,17.0512821 13.5757576,35.3735667 13.5757576,57.974359 C13.5757576,80.5751513 31.8100364,98.8974359 54.3030303,98.8974359 C76.7960242,98.8974359 95.030303,80.5751513 95.030303,57.974359 C95.030303,48.5177179 91.8362667,39.8113333 86.4752,32.8816923 L76.7617455,42.6418462 C79.7222788,47.0117487 81.4545455,52.2894615 81.4545455,57.974359 Z" id="XMLID_1299_" fill="#F05244"></path>
                        <path d="M27.1515152,57.974359 C27.1515152,73.0415538 39.3075879,85.2564103 54.3030303,85.2564103 C69.2984727,85.2564103 81.4545455,73.0415538 81.4545455,57.974359 C81.4545455,52.2894615 79.7222788,47.0117487 76.7617455,42.6418462 L66.8039273,52.6471974 C67.4956121,54.2841205 67.8787879,56.0840538 67.8787879,57.974359 C67.8787879,65.5079564 61.8005818,71.6153846 54.3030303,71.6153846 C46.8054788,71.6153846 40.7272727,65.5079564 40.7272727,57.974359 C40.7272727,50.4404205 46.8054788,44.3333333 54.3030303,44.3333333 C56.1839515,44.3333333 57.9756121,44.7183513 59.6043636,45.4130205 L69.5621818,35.4073282 C65.2128485,32.4329026 59.9607273,30.6923077 54.3030303,30.6923077 C39.3075879,30.6923077 27.1515152,42.9064821 27.1515152,57.974359 Z" id="XMLID_1300_" fill="#F9A53D"></path>
                        <path d="M40.7272727,57.974359 C40.7272727,65.5079564 46.8054788,71.6153846 54.3030303,71.6153846 C61.8005818,71.6153846 67.8787879,65.5079564 67.8787879,57.974359 C67.8787879,56.0840538 67.4959515,54.2841205 66.8039273,52.6471974 L59.2025212,60.2851487 C57.2143515,62.2828769 53.9907879,62.2828769 52.0026182,60.2851487 C50.0144485,58.2877615 50.0147879,55.0487 52.0026182,53.0509718 L59.6040242,45.4126795 C57.9756121,44.7183513 56.1839515,44.3333333 54.3030303,44.3333333 C46.8054788,44.3333333 40.7272727,50.4404205 40.7272727,57.974359 Z" id="XMLID_1301_" fill="#FFDA44"></path>
                        <path d="M80.8015515,31.348441 L82.0016485,22.9083974 L79.2759758,25.6471744 L69.5625212,35.4073282 L59.604703,45.4130205 L52.003297,53.0513128 C50.0151273,55.0487 50.0151273,58.2877615 52.003297,60.2854897 C53.9914667,62.2832179 57.2150303,62.2832179 59.2032,60.2854897 L66.8046061,52.6475385 L76.7624242,42.6421872 L86.4758788,32.8820333 L89.2018909,30.1432564 L80.8015515,31.348441 Z" id="XMLID_1302_" fill="#FFFFFF"></path>
                        <polygon id="XMLID_1303_" fill="#C5392C" points="82.0013091 22.9083974 80.8015515 31.348441 95.2006788 16.8797462 97.6008727 0 84.8226909 12.8392744 83.2014061 14.4686949"></polygon>
                        <polygon id="XMLID_1304_" fill="#F05244" points="80.8015515 31.348441 89.2012121 30.1429154 97.6005333 28.9370487 99.2221576 27.3076282 112 14.4686949 95.2006788 16.8797462"></polygon>
                    </g>
                </g>
            </g>
        </g>
    </g>
</svg>