<?xml version="1.0" encoding="UTF-8" standalone="no"?>
<svg width="61px" height="62px" viewBox="0 0 61 62" version="1.1" xmlns="http://www.w3.org/2000/svg" xmlns:xlink="http://www.w3.org/1999/xlink">
    <!-- Generator: Sketch 46.1 (44463) - http://www.bohemiancoding.com/sketch -->
    <title>update (1)</title>
    <desc>Created with Sketch.</desc>
    <defs></defs>
    <g id="Page-1" stroke="none" stroke-width="1" fill="none" fill-rule="evenodd">
        <g id="Desktop-HD" transform="translate(-727.000000, -741.000000)">
            <g id="Group-42" transform="translate(0.000000, 580.000000)">
                <g id="Group-39" transform="translate(349.000000, 63.000000)">
                    <g id="Group-38" transform="translate(0.000000, 91.000000)">
                        <g id="Group-36" transform="translate(378.000000, 7.000000)">
                            <g id="update-(1)">
                                <path d="M15,2.51992302e-20 L57,1.0824863e-15 L57,1.33226763e-15 C58.6568542,1.02790844e-15 60,1.34314575 60,3 L60,53 L60,53 C60,54.6568542 58.6568542,56 57,56 L15,56 L15,56 C13.3431458,56 12,54.6568542 12,53 L12,3 L12,3 C12,1.34314575 13.3431458,3.04359188e-16 15,0 Z" id="Rectangle-17" fill="#FFEFF0"></path>
                                <path d="M53.8203444,20.961114 L53.5883429,20.961114 L53.5883429,7.14363613 C53.5882308,6.51199555 53.869873,4 50.4445947,4 L10.1545887,4 C6.62854004,4 7.0109526,6.51199555 7.0109526,7.14363613 L7.0109526,32.2833247 L6.77895111,32.2833247 C3.05840529,32.2833247 0.0313970112,35.3102209 0.0313970112,39.0308788 C0.0313970112,42.7515368 3.05840529,45.7784329 6.77895111,45.7784329 L7.0109526,45.7784329 L7.0109526,58.2679293 C7.0109526,58.8995699 6.6151123,61.4115655 10.1545887,61.4115655 L50.4445947,61.4115655 C53.883667,61.4115655 53.5882308,58.8995699 53.5882308,58.2679293 L53.5882308,34.4562222 L53.8202323,34.4562222 C57.5407781,34.4562222 60.5677864,31.429326 60.5677864,27.7086681 C60.5677864,23.9880101 57.5408902,20.961114 53.8203444,20.961114 Z M7.01084047,43.4912728 L6.77883898,43.4912728 C4.31944381,43.4912728 2.31855714,41.4903861 2.31855714,39.030991 C2.31855714,36.5715958 4.31944381,34.5707091 6.77883898,34.5707091 L7.01084047,34.5707091 L7.01084047,43.4912728 Z M48.0213164,20.961114 L48.0213164,18.8880142 C48.0213164,17.9557472 47.5392602,17.120811 46.7319085,16.6547896 C45.9244446,16.1886561 44.9604442,16.188544 44.1528683,16.6549018 L38.5823657,19.8715256 C37.7749018,20.337659 37.2930698,21.1725953 37.2930698,22.1047501 C37.2930698,23.0369049 37.775014,23.8718412 38.5822536,24.3378625 L44.1528683,27.5545985 C44.5566563,27.7878334 44.9994662,27.9042266 45.4425005,27.9042266 C45.8853105,27.9042266 46.3281205,27.7877213 46.7319085,27.5545985 C47.5393723,27.088465 48.0213164,26.2535287 48.0213164,25.3212618 L48.0213164,23.248162 L51.3009585,23.248162 L51.3009585,59.1242932 L9.29822486,59.1242932 L9.29822486,45.7785451 L30.2139409,45.7785451 L30.2139409,47.8516449 C30.2139409,48.7839118 30.6959971,49.6188481 31.5033489,50.0849815 C31.9070247,50.3181044 32.3498347,50.4346097 32.7927568,50.4346097 C33.2356789,50.4346097 33.6786011,50.3181044 34.0823891,50.0848694 L39.6528916,46.8682456 C40.4603555,46.4021121 40.9421875,45.5671759 40.9421875,44.6350211 C40.9421875,43.7028662 40.4602434,42.86793 39.6530038,42.4017965 L34.0823891,39.1850606 C33.2747009,38.718815 32.3105884,38.718815 31.5033489,39.1850606 C30.695885,39.6511941 30.2139409,40.4860182 30.2139409,41.4182851 L30.2139409,43.4913849 L9.298337,43.4913849 L9.298337,6.28727226 L51.3010707,6.28727226 L51.3010707,20.961114 L48.0213164,20.961114 Z M45.733932,18.8880142 L45.733932,25.3215982 C45.733932,25.4606421 45.6546546,25.5356585 45.5882723,25.5740077 C45.5218901,25.6123569 45.4170465,25.6435297 45.2967287,25.5740077 L39.7260018,22.3572718 C39.6055719,22.2877498 39.5804542,22.1815606 39.5804542,22.1048622 C39.5804542,22.0281638 39.605684,21.9219746 39.7261139,21.8523406 L45.2966165,18.6357168 C45.4171586,18.5661948 45.5216658,18.5972554 45.5882723,18.6357168 C45.6545425,18.674066 45.733932,18.7489703 45.733932,18.8880142 Z M32.5012131,47.8515327 L32.5012131,41.4179487 C32.5012131,41.2789048 32.5804906,41.2040005 32.6468729,41.1655392 C32.6846614,41.1436734 32.7346724,41.1242746 32.792869,41.1242746 C32.8372733,41.1243867 32.8862751,41.1355999 32.9383044,41.1656513 L38.5090312,44.3823873 C38.6294612,44.4519092 38.6545788,44.5580984 38.6545788,44.6347968 C38.6545788,44.7114952 38.6293491,44.8176844 38.5089191,44.8872063 L32.9384165,48.1038301 C32.8178744,48.1735764 32.713143,48.1422915 32.6467607,48.1038301 C32.5804906,48.0655931 32.5012131,47.9905766 32.5012131,47.8515327 Z M53.8203444,32.169062 L53.5883429,32.169062 L53.5883429,23.2484984 L53.8203444,23.2484984 C56.2797396,23.2484984 58.2806262,25.249385 58.2806262,27.7087802 C58.2806262,30.1681754 56.2796274,32.169062 53.8203444,32.169062 Z" id="Shape" fill="#859DBA" fill-rule="nonzero"></path>
                                <path d="M38.9223141,10.9763038 L38.1218025,10.9763038 C37.490274,10.9763038 36.9781663,11.4882993 36.9781663,12.1199399 C36.9781663,12.7515805 37.490274,13.263576 38.1218025,13.263576 L38.9223141,13.263576 C39.5538426,13.263576 40.0659502,12.7515805 40.0659502,12.1199399 C40.0659502,11.4882993 39.5538426,10.9763038 38.9223141,10.9763038 Z" id="Shape" fill="#859DBA" fill-rule="nonzero"></path>
                                <path d="M33.6615206,10.9763038 L14.6767571,10.9763038 C14.0452287,10.9763038 13.533121,11.4882993 13.533121,12.1199399 C13.533121,12.7515805 14.0452287,13.263576 14.6767571,13.263576 L33.6615206,13.263576 C34.2930491,13.263576 34.8051568,12.7515805 34.8051568,12.1199399 C34.8051568,11.4882993 34.2930491,10.9763038 33.6615206,10.9763038 Z" id="Shape" fill="#859DBA" fill-rule="nonzero"></path>
                                <path d="M30.1161253,30.8759537 L14.6767571,30.8759537 C14.0452287,30.8759537 13.533121,31.3879493 13.533121,32.0195898 C13.533121,32.6512304 14.0452287,33.163226 14.6767571,33.163226 L30.1161253,33.163226 C30.7476537,33.163226 31.2597614,32.6512304 31.2597614,32.0195898 C31.2597614,31.3879493 30.7476537,30.8759537 30.1161253,30.8759537 Z" id="Shape" fill="#859DBA" fill-rule="nonzero"></path>
                                <path d="M24.9697066,17.8382327 L14.6767571,17.8382327 C14.0452287,17.8382327 13.533121,18.3502282 13.533121,18.9818688 C13.533121,19.6135094 14.0452287,20.1255049 14.6767571,20.1255049 L24.9697066,20.1255049 C25.6012351,20.1255049 26.1133427,19.6135094 26.1133427,18.9818688 C26.1133427,18.3502282 25.6012351,17.8382327 24.9697066,17.8382327 Z" id="Shape" fill="#859DBA" fill-rule="nonzero"></path>
                                <path d="M24.9697066,24.0140248 L14.6767571,24.0140248 C14.0452287,24.0140248 13.533121,24.5260203 13.533121,25.1576609 C13.533121,25.7893015 14.0452287,26.301297 14.6767571,26.301297 L24.9697066,26.301297 C25.6012351,26.301297 26.1133427,25.7893015 26.1133427,25.1576609 C26.1133427,24.5260203 25.6012351,24.0140248 24.9697066,24.0140248 Z" id="Shape" fill="#859DBA" fill-rule="nonzero"></path>
                            </g>
                        </g>
                    </g>
                </g>
            </g>
        </g>
    </g>
</svg>