<?xml version="1.0" encoding="UTF-8" standalone="no"?>
<svg width="55px" height="61px" viewBox="0 0 55 61" version="1.1" xmlns="http://www.w3.org/2000/svg" xmlns:xlink="http://www.w3.org/1999/xlink">
    <!-- Generator: Sketch 46.1 (44463) - http://www.bohemiancoding.com/sketch -->
    <title>Group 20</title>
    <desc>Created with Sketch.</desc>
    <defs></defs>
    <g id="Page-1" stroke="none" stroke-width="1" fill="none" fill-rule="evenodd">
        <g id="Desktop-HD" transform="translate(-950.000000, -5071.000000)" fill-rule="nonzero">
            <g id="Group-46" transform="translate(244.000000, 4831.000000)">
                <g id="Group-4" transform="translate(1.000000, 237.000000)">
                    <g id="Group-31" transform="translate(698.000000, 2.000000)">
                        <g id="Group-20" transform="translate(7.000000, 0.000000)">
                            <g id="Group-18" transform="translate(0.206186, 0.365854)">
                                <g id="file-(1)" transform="translate(0.000000, 0.365854)">
                                    <g id="telemarketer-(2)" transform="translate(0.031223, 0.317073)">
                                        <g id="Group-3" transform="translate(3.000000, 0.000000)" fill="#FFEFF0">
                                            <path d="M42.3482258,44.3655007 C40.8218757,43.6975893 39.0898591,42.9425445 37.119543,42.0401465 L37.0305032,42 L36.9606394,42.0679574 L34.8858589,42.8967756 L34.587401,43.0105746 L34.8103371,43.1148657 C35.9903617,43.6633549 32.8790568,46.4135785 25.8372689,46.3232898 C21.1427437,46.2630974 17.7484734,45.3361756 15.6544582,43.5425246 L14.7128893,42.0679574 L14.6430255,42 L14.5539856,42.0401465 C12.5826603,42.9415352 10.8515408,43.6975893 9.32530284,44.3655007 C2.53875838,47.3281517 0,48.4373376 0,52.1109622 C0,54.8745631 2.51677876,57.3913419 5.2803797,57.3913419 L46.3941582,57.3913419 C49.1577591,57.3913419 51.6745379,54.8745631 51.6745379,52.1109622 C51.6745379,48.4373376 49.1357795,47.3281517 42.3482258,44.3655007 Z" id="Shape"></path>
                                            <path d="M46.0621149,17.224846 L43.1913072,17.224846 C43.1913072,7.71193136 35.4793759,0 25.9664613,0 C16.4535467,0 8.74161532,7.71193136 8.74161532,17.224846 L5.87080766,17.224846 C4.28513499,17.224846 3,18.509981 3,20.0956536 L3,28.7080766 C3,30.2937493 4.28513499,31.5788843 5.87080766,31.5788843 L8.74161532,31.5788843 C9.58940071,31.5788843 10.3311008,31.195138 10.8573781,30.6114445 C10.9445116,30.7349117 11.022001,30.8602852 11.1252828,30.9798274 C13.1128685,38.8468497 19.0133876,44.5683918 25.9664613,44.5683918 C33.0879707,44.5683918 39.0927807,38.5607782 40.9329012,30.3990496 C41.456375,31.0975754 42.2515663,31.5789964 43.1913072,31.5789964 L46.0621149,31.5789964 C47.6477876,31.5789964 48.9329226,30.2938614 48.9329226,28.7081887 L48.9329226,20.0957658 C48.9329226,18.509981 47.6477876,17.224846 46.0621149,17.224846 Z" id="Shape"></path>
                                        </g>
                                        <path d="M42.4155103,47.390312 C40.8891602,46.7224007 39.1571436,45.9673558 37.1868276,45.0649578 L37.0977877,45.0248114 L37.0279239,45.0927688 L34.9531434,45.9215869 L34.6546855,46.035386 L34.8776217,46.139677 C37.3522355,47.2899065 39.4958092,48.232451 41.3092401,49.025848 C48.0374713,51.9616974 49.8872752,53.5349618 49.8872752,55.1348764 C49.8872752,58.2129383 47.8039939,58.5617181 46.4604335,58.5617181 L5.34766425,58.5617181 C4.00410384,58.5617181 1.92082251,57.6711902 1.92082251,55.1348764 C1.92082251,53.5348497 3.16294317,52.3271324 9.89027722,49.391283 C11.7037081,48.5979981 13.3698076,47.8845201 15.8435243,46.7341785 L15.7217428,46.567336 L14.7801738,45.0927688 L14.71031,45.0248114 L14.6212701,45.0649578 C12.6499448,45.9663466 10.9188254,46.7224007 9.39258739,47.390312 C2.60604294,50.3529631 0.0672845545,51.462149 0.0672845545,55.1357735 C0.0672845545,57.8993744 2.58406332,60.4161532 5.34766425,60.4161532 L46.4614427,60.4161532 C49.2250437,60.4161532 51.7418224,57.8993744 51.7418224,55.1357735 C51.7418224,51.462149 49.2030641,50.3529631 42.4155103,47.390312 Z" id="Shape" fill="#859DBA"></path>
                                        <path d="M46.0002071,20.224846 L43.1293995,20.224846 C43.1293995,10.7119314 35.4174681,3 25.9045535,3 C16.3916389,3 8.67970754,10.7119314 8.67970754,20.224846 L5.80889988,20.224846 C4.22322721,20.224846 2.93809221,21.509981 2.93809221,23.0956536 L2.93809221,31.7080766 C2.93809221,33.2937493 4.22322721,34.5788843 5.80889988,34.5788843 L8.67970754,34.5788843 C9.52749292,34.5788843 10.269193,34.195138 10.7954704,33.6114445 C10.8826039,33.7349117 10.9600932,33.8602852 11.063375,33.9798274 C13.0509608,41.8468497 18.9514798,47.5683918 25.9045535,47.5683918 C33.0260629,47.5683918 39.030873,41.5607782 40.8709934,33.3990496 C41.3944672,34.0975754 42.1896585,34.5789964 43.1293995,34.5789964 L46.0002071,34.5789964 C47.5858798,34.5789964 48.8710148,33.2938614 48.8710148,31.7081887 L48.8710148,23.0957658 C48.8710148,21.509981 47.5858798,20.224846 46.0002071,20.224846 Z M8.67970754,32.7080766 L4.80889988,32.7080766 L4.80889988,22.0956536 L8.67970754,22.0956536 L8.67970754,32.7080766 Z M25.9045535,45.8175525 C21.0682557,45.8175525 16.5334657,42.96599 12.9284852,35.382616 C16.3303923,36.8629883 22.6299535,38.370531 25.6883729,38.370531 C26.4816578,38.370531 27.2170594,38.0729956 27.2170594,37.2797107 C27.2170594,36.4864258 26.6978384,36.0142881 25.9045535,36.0142881 C20.8576512,36.0142881 14.0450021,33.9308414 12.2382997,32.4916248 C11.9406777,31.0868354 11.8364442,29.2757874 11.8364442,27.7494373 C11.8364442,18.6183625 18.0289372,10.3557605 25.9045535,10.3557605 C33.7801698,10.3557605 40.0811952,18.6183625 40.0811952,27.7494373 C40.0811952,36.880512 33.3077577,45.8175525 25.9045535,45.8175525 Z M40.6545594,20.523241 C38.2813211,13.5788021 32.3265278,8.74161532 25.9045535,8.74161532 C19.4825792,8.74161532 13.7105371,13.2804071 11.3372987,20.224846 C11.334383,20.1081073 10.4592469,19.8626359 10.4592469,19.7458972 C10.4592469,11.831103 17.9897592,4.65092654 25.9045535,4.65092654 C33.8193478,4.65092654 41.3711122,12.0590082 41.3711122,19.9738025 C41.3711122,20.0905412 40.657363,20.4065023 40.6545594,20.523241 Z M47.0002071,32.7080766 L43.1293995,32.7080766 L43.1293995,22.0956536 L47.0002071,22.0956536 L47.0002071,32.7080766 Z" id="Shape" fill="#859DBA"></path>
                                    </g>
                                </g>
                            </g>
                        </g>
                    </g>
                </g>
            </g>
        </g>
    </g>
</svg>