<?xml version="1.0" encoding="UTF-8" standalone="no"?>
<svg width="171px" height="254px" viewBox="0 0 171 254" version="1.1" xmlns="http://www.w3.org/2000/svg" xmlns:xlink="http://www.w3.org/1999/xlink">
    <!-- Generator: Sketch 46.1 (44463) - http://www.bohemiancoding.com/sketch -->
    <title>Group 23</title>
    <desc>Created with Sketch.</desc>
    <defs></defs>
    <g id="Page-1" stroke="none" stroke-width="1" fill="none" fill-rule="evenodd">
        <g id="Desktop-HD" transform="translate(-972.000000, -4912.000000)" fill-rule="nonzero">
            <g id="Group-17" transform="translate(0.000000, 3737.000000)">
                <g id="Group-6">
                    <g id="Group-9">
                        <g id="Group-25">
                            <g id="Group-39" transform="translate(298.000000, 1168.000000)">
                                <g id="Group-23" transform="translate(674.000000, 0.000000)">
                                    <g id="settings-(9)" transform="translate(107.861590, 94.837607) rotate(17.000000) translate(-107.861590, -94.837607) translate(64.361590, 51.337607)">
                                        <path d="M83.3788465,34.7967384 L78.734974,34.7967384 C77.8184857,30.861393 76.2677611,27.1712817 74.1873992,23.8390798 L77.471482,20.5615584 C78.6253939,19.4099521 78.6253939,17.5408701 77.471482,16.3892638 L69.9121143,8.8449995 C68.7582025,7.69339316 66.8853787,7.69339316 65.7314668,8.8449995 L62.447384,12.1225209 C59.1101713,10.0479725 55.4126725,8.50034609 51.4694486,7.58568897 L51.4694486,2.95109481 C51.4694486,1.32061907 50.1461857,0 48.5124458,0 L37.8217432,0 C36.1896636,0 34.8664007,1.32061907 34.8664007,2.95109481 L34.8664007,7.58568897 C30.9231768,8.50034609 27.225678,10.0479725 23.8868051,12.1241778 L20.6043825,8.84665649 C19.4504707,7.69505014 17.5776469,7.69505014 16.423735,8.84665649 L8.8643673,16.3909208 C7.71045547,17.5425271 7.71045547,19.4116091 8.8643673,20.5632154 L12.1484502,23.8407368 C10.0680883,27.1712817 8.5173636,30.861393 7.60087535,34.7967384 L2.95700284,34.7967384 C1.32326292,34.7967384 0,36.1173574 0,37.7478332 L0,48.417176 C0,50.0459947 1.32326292,51.3666138 2.95700284,51.3666138 L7.60087535,51.3666138 C8.5173636,55.3019592 10.0680883,58.9920705 12.1484502,62.3242724 L8.8643673,65.6001368 C7.71045547,66.7534001 7.71045547,68.6208251 8.8643673,69.7724314 L16.423735,77.3166957 C17.5776469,78.468302 19.4504707,78.468302 20.6043825,77.3166957 L23.8884654,74.0391743 C27.2273383,76.1137227 30.9248371,77.6630061 34.868061,78.5776632 L34.868061,83.2122574 C34.8664007,84.8427331 36.1896636,86.1633522 37.8234035,86.1633522 L48.5141061,86.1633522 C50.1461857,86.1633522 51.4694486,84.8427331 51.4694486,83.2122574 L51.4694486,78.5776632 C55.4126725,77.6630061 59.1101713,76.1153797 62.4490443,74.0391743 L65.7331271,77.3166957 C66.887039,78.468302 68.7598628,78.468302 69.9137746,77.3166957 L77.4731423,69.7724314 C78.6270542,68.6208251 78.6270542,66.7517431 77.4731423,65.6001368 L74.1890595,62.3226154 C76.2677611,58.9920705 77.8184857,55.3003022 78.7366343,51.3649568 L83.3805068,51.3649568 C85.0125864,51.3666138 86.3358493,50.0459947 86.3358493,48.415519 L86.3358493,37.7461762 C86.3358493,36.1173574 85.0125864,34.7967384 83.3788465,34.7967384 Z M43.1679247,57.994564 C34.9145495,57.994564 28.2251815,51.3169042 28.2251815,43.0816761 C28.2251815,34.844791 34.9145495,28.1687882 43.1679247,28.1687882 C51.4212998,28.1687882 58.1106678,34.844791 58.1106678,43.0816761 C58.1106678,51.3169042 51.4212998,57.994564 43.1679247,57.994564 Z" id="Shape" fill="#31475B" opacity="0.25"></path>
                                        <path d="M43.1679247,21.540838 C31.2469362,21.540838 21.5839623,31.1845055 21.5839623,43.0816761 C21.5839623,54.9788466 31.2469362,64.6225141 43.1679247,64.6225141 C55.0889131,64.6225141 64.751887,54.9788466 64.751887,43.0816761 C64.751887,31.1845055 55.0889131,21.540838 43.1679247,21.540838 Z M43.1679247,57.994564 C34.9145495,57.994564 28.2251815,51.3169042 28.2251815,43.0816761 C28.2251815,34.844791 34.9145495,28.1687882 43.1679247,28.1687882 C51.4212998,28.1687882 58.1106678,34.844791 58.1106678,43.0816761 C58.1106678,51.3169042 51.4212998,57.994564 43.1679247,57.994564 Z" id="Shape" fill="#E5E5E5"></path>
                                    </g>
                                    <g id="settings-(9)" transform="translate(143.683275, 34.713546) rotate(17.000000) translate(-143.683275, -34.713546) translate(116.183275, 7.213546)">
                                        <path d="M52.8341206,22.0494184 L49.8914687,22.0494184 C49.3107236,19.5557342 48.3280862,17.2174458 47.0098371,15.1059515 L49.0908401,13.0291063 C49.8220318,12.2993756 49.8220318,11.1150068 49.0908401,10.3852761 L44.3007457,5.60475216 C43.569554,4.87502141 42.3828142,4.87502141 41.6516225,5.60475216 L39.5706195,7.68159737 C37.4559501,6.36703205 35.1129806,5.38635792 32.6143041,4.80677321 L32.6143041,1.87000067 C32.6143041,0.836827926 31.7758009,0 30.7405597,0 L23.9662531,0 C22.9320641,0 22.0935608,0.836827926 22.0935608,1.87000067 L22.0935608,4.80677321 C19.5948843,5.38635792 17.2519148,6.36703205 15.1361933,7.68264735 L13.0562424,5.60580213 C12.3250507,4.87607138 11.1383109,4.87607138 10.4071192,5.60580213 L5.61702482,10.386326 C4.88583317,11.1160568 4.88583317,12.3004255 5.61702482,13.0301563 L7.69802784,15.1070015 C6.37977871,17.2174458 5.39714129,19.5557342 4.81639626,22.0494184 L1.87374437,22.0494184 C0.838503237,22.0494184 0,22.8862463 0,23.919419 L0,30.6801907 C0,31.7123135 0.838503237,32.5491414 1.87374437,32.5491414 L4.81639626,32.5491414 C5.39714129,35.0428256 6.37977871,37.381114 7.69802784,39.4926083 L5.61702482,41.5684035 C4.88583317,42.2991842 4.88583317,43.482503 5.61702482,44.2122338 L10.4071192,48.9927577 C11.1383109,49.7224884 12.3250507,49.7224884 13.0562424,48.9927577 L15.1372454,46.9159124 C17.2529669,48.2304778 19.5959364,49.2122019 22.0946129,49.7917866 L22.0946129,52.7285591 C22.0935608,53.7617319 22.9320641,54.5985598 23.9673052,54.5985598 L30.7416118,54.5985598 C31.7758009,54.5985598 32.6143041,53.7617319 32.6143041,52.7285591 L32.6143041,49.7917866 C35.1129806,49.2122019 37.4559501,48.2315277 39.5716716,46.9159124 L41.6526746,48.9927577 C42.3838663,49.7224884 43.5706061,49.7224884 44.3017978,48.9927577 L49.0918922,44.2122338 C49.8230838,43.482503 49.8230838,42.2981343 49.0918922,41.5684035 L47.0108892,39.4915583 C48.3280862,37.381114 49.3107236,35.0417757 49.8925207,32.5480914 L52.8351726,32.5480914 C53.8693617,32.5491414 54.7078649,31.7123135 54.7078649,30.6791407 L54.7078649,23.9183691 C54.7078649,22.8862463 53.8693617,22.0494184 52.8341206,22.0494184 Z M27.3539325,36.7490306 C22.124071,36.7490306 17.8852635,32.5176422 17.8852635,27.2992799 C17.8852635,22.0798676 22.124071,17.8495292 27.3539325,17.8495292 C32.5837939,17.8495292 36.8226014,22.0798676 36.8226014,27.2992799 C36.8226014,32.5176422 32.5837939,36.7490306 27.3539325,36.7490306 Z" id="Shape" fill="#31475B" opacity="0.25"></path>
                                        <path d="M27.3539325,13.6496399 C19.8000388,13.6496399 13.6769662,19.7604788 13.6769662,27.2992799 C13.6769662,34.838081 19.8000388,40.9489198 27.3539325,40.9489198 C34.9078261,40.9489198 41.0308987,34.838081 41.0308987,27.2992799 C41.0308987,19.7604788 34.9078261,13.6496399 27.3539325,13.6496399 Z M27.3539325,36.7490306 C22.124071,36.7490306 17.8852635,32.5176422 17.8852635,27.2992799 C17.8852635,22.0798676 22.124071,17.8495292 27.3539325,17.8495292 C32.5837939,17.8495292 36.8226014,22.0798676 36.8226014,27.2992799 C36.8226014,32.5176422 32.5837939,36.7490306 27.3539325,36.7490306 Z" id="Shape" fill="#E5E5E5"></path>
                                    </g>
                                    <g id="analytics-(12)" transform="translate(0.000000, 70.718899)">
                                        <polygon id="Shape" fill="#EAEAEA" points="104.433145 0 0.322091175 0 0.322091175 189.597909 144.65674 189.597909 144.65674 39.435532"></polygon>
                                        <polygon id="Shape" fill="#9BAAAB" points="104.433145 39.435532 144.65674 39.435532 104.433145 0"></polygon>
                                        <polygon id="Shape" fill="#E9ECED" points="144.65674 39.435532 104.433145 39.435532 144.65674 66.7708507"></polygon>
                                        <g id="Group" transform="translate(18.901159, 86.405297)" fill="#424A60">
                                            <rect id="Rectangle-path" x="0.109935311" y="0.367222513" width="106.945071" height="5.17043127"></rect>
                                            <rect id="Rectangle-path" x="0.109935311" y="20.7175987" width="106.945071" height="5.17043127"></rect>
                                            <rect id="Rectangle-path" x="0.109935311" y="41.0598744" width="106.945071" height="5.17043127"></rect>
                                            <rect id="Rectangle-path" x="0.109935311" y="61.4098649" width="106.945071" height="5.17043127"></rect>
                                            <rect id="Rectangle-path" x="0.109935311" y="81.7640984" width="106.945071" height="5.17043127"></rect>
                                        </g>
                                        <rect id="Rectangle-path" fill="#D18B33" x="19.0110941" y="65.7667748" width="13.5185716" height="4.77543562"></rect>
                                        <rect id="Rectangle-path" fill="#F9A53D" x="19.0110941" y="27.5648328" width="13.5185716" height="38.2038707"></rect>
                                        <rect id="Rectangle-path" fill="#BE3B2F" x="38.7508471" y="65.7667748" width="13.5185716" height="4.77543562"></rect>
                                        <rect id="Rectangle-path" fill="#F05244" x="38.7508471" y="10.7103995" width="13.5185716" height="55.058304"></rect>
                                        <rect id="Rectangle-path" fill="#D18B33" x="58.4809567" y="65.7667748" width="13.5185716" height="4.77543562"></rect>
                                        <rect id="Rectangle-path" fill="#F9A53D" x="58.4809567" y="35.9920494" width="13.5185716" height="29.7828259"></rect>
                                        <rect id="Rectangle-path" fill="#BE3B2F" x="78.2110663" y="65.7667748" width="13.5185716" height="4.77543562"></rect>
                                        <rect id="Rectangle-path" fill="#F05244" x="78.2110663" y="21.3849253" width="13.5185716" height="44.3837782"></rect>
                                    </g>
                                </g>
                            </g>
                        </g>
                    </g>
                </g>
            </g>
        </g>
    </g>
</svg>