<?xml version="1.0" encoding="UTF-8" standalone="no"?>
<svg width="37px" height="37px" viewBox="0 0 37 37" version="1.1" xmlns="http://www.w3.org/2000/svg" xmlns:xlink="http://www.w3.org/1999/xlink">
    <!-- Generator: Sketch 46.1 (44463) - http://www.bohemiancoding.com/sketch -->
    <title>google-plus (1)</title>
    <desc>Created with Sketch.</desc>
    <defs></defs>
    <g id="Page-1" stroke="none" stroke-width="1" fill="none" fill-rule="evenodd">
        <g id="Desktop-HD" transform="translate(-802.000000, -1069.000000)">
            <g id="Group-42" transform="translate(0.000000, 580.000000)">
                <g id="Group-40" transform="translate(0.000000, 427.000000)">
                    <g id="Group-47" transform="translate(300.000000, 61.000000)">
                        <g id="Group-41" transform="translate(95.000000, 0.000000)">
                            <g id="google-plus-(1)" transform="translate(407.326743, 0.771997)">
                                <path d="M17.9665644,36.2530795 C8.04390486,36.2530795 0,28.2091746 0,18.2865151 C0,8.36385562 8.04390486,0.319950761 17.9665644,0.319950761 C27.8892239,0.319950761 35.9331287,8.36385562 35.9331287,18.2865151 C35.9331287,28.2091746 27.8892239,36.2530795 17.9665644,36.2530795 Z M6.25521353,19.0907157 C6.19147959,22.1819717 8.32096169,25.1319882 11.2491997,26.0937621 C14.0083347,27.0206264 17.4000049,26.3272397 19.2357985,23.9646003 C20.576453,22.3094396 20.8807105,20.1024519 20.7356277,18.0402267 C18.3729883,18.0190888 16.0103489,18.0261348 13.6512325,18.0296578 C13.6477095,18.87133 13.6512325,19.7097996 13.6547555,20.5514719 C15.0693926,20.5905449 16.48435,20.57293 17.8989872,20.6011139 C17.541885,21.8248695 16.7280763,22.9637533 15.4937517,23.4057273 C13.1099744,24.4562163 10.0683604,23.0838549 9.31828568,20.5831787 C8.4125592,18.1888325 9.89477354,15.2990269 12.3422848,14.6021172 C13.8597289,14.0682254 15.4229718,14.6693741 16.7213506,15.4582016 C17.378867,14.8426407 17.9944279,14.1851243 18.5994199,13.5199214 C17.1245718,12.2855968 15.2285673,11.5287963 13.2797181,11.695017 C9.45600223,11.7408158 6.11013075,15.2708431 6.25521353,19.0907157 Z M25.3340792,15.9072216 C25.326713,16.6111774 25.319667,17.3186561 25.316144,18.0219713 C24.6089856,18.0290172 23.9050298,18.0325402 23.2010741,18.0360632 C23.2010741,18.7400189 23.2010741,19.4401314 23.2010741,20.1440871 C23.9050298,20.1479304 24.6125086,20.1511331 25.316144,20.1584993 C25.3235102,20.862455 25.3235102,21.5660905 25.3302359,22.2735692 C26.0303484,22.2735692 26.7346244,22.2700462 27.4382599,22.2735692 C27.4421031,21.5660905 27.4456261,20.862455 27.4526721,20.1549763 C28.1566278,20.1514533 28.8641065,20.1479304 29.567742,20.1444074 C29.567742,19.4404517 29.567742,18.7403392 29.567742,18.0363834 C28.8637862,18.0328605 28.1563075,18.0293375 27.4526721,18.0222915 C27.4488288,17.3186561 27.4421031,16.6111774 27.4382599,15.9072216 C26.7346244,15.9072216 26.0345119,15.9072216 25.3340792,15.9072216 Z" id="Combined-Shape" fill="#FFFFFF" fill-rule="nonzero"></path>
                                <g id="Group" transform="translate(23.189908, 15.554406)">
                                    <g transform="translate(0.000000, -0.000000)"></g>
                                </g>
                            </g>
                        </g>
                    </g>
                </g>
            </g>
        </g>
    </g>
</svg>