<?xml version="1.0" encoding="UTF-8" standalone="no"?>
<svg width="232px" height="162px" viewBox="0 0 232 162" version="1.1" xmlns="http://www.w3.org/2000/svg" xmlns:xlink="http://www.w3.org/1999/xlink">
    <!-- Generator: Sketch 46.1 (44463) - http://www.bohemiancoding.com/sketch -->
    <title>Group 31</title>
    <desc>Created with Sketch.</desc>
    <defs></defs>
    <g id="Page-1" stroke="none" stroke-width="1" fill="none" fill-rule="evenodd">
        <g id="Desktop-HD" transform="translate(-296.000000, -4565.000000)">
            <g id="Group-17" transform="translate(0.000000, 3737.000000)">
                <g id="Group-6">
                    <g id="Group-9">
                        <g id="Group-25">
                            <g id="Group-24">
                                <g id="Group-47" transform="translate(296.000000, 811.000000)">
                                    <g id="Group-31" transform="translate(0.000000, 17.000000)">
                                        <g id="Group-29" transform="translate(1.659348, 0.000000)" fill-rule="nonzero">
                                            <g id="Group-50" transform="translate(81.333782, 81.500000) scale(-1, 1) translate(-81.333782, -81.500000) translate(0.333782, 0.000000)">
                                                <g id="Group" fill="#C1D1D5">
                                                    <path d="M116.469164,103.25831 L58.0502998,44.8397631 C57.0588905,43.8480363 55.4509853,43.8480363 54.4592586,44.8397631 L44.8819845,54.4164022 C44.4054858,54.8925835 44.1381894,55.5386026 44.1381894,56.2119229 C44.1381894,56.8852431 44.4058032,57.5315798 44.8819845,58.0074435 L103.300849,116.426625 C103.77703,116.903124 104.423049,117.17042 105.096369,117.17042 C105.769689,117.17042 106.416026,116.902806 106.89189,116.426625 L116.468529,106.849351 C117.460891,105.857942 117.460891,104.250036 116.469164,103.25831 Z" id="Shape"></path>
                                                    <path d="M66.6691799,22.8128898 L44.6423066,0.786016463 C43.6505798,-0.205710286 42.0426746,-0.205710286 41.0509478,0.786016463 L31.4746261,10.3626557 C30.4828994,11.3543824 30.4828994,12.9622876 31.4746261,13.9536969 L47.8749421,30.354013 L30.3971867,47.8317684 L13.9965532,31.4320872 C13.0048265,30.4403605 11.3969213,30.4403605 10.405512,31.4320872 L0.828555318,41.0087264 C-0.16317143,42.0004532 -0.16317143,43.6083584 0.828555318,44.5997677 L22.8554286,66.626641 C23.333832,67.1050444 23.9804861,67.3704361 24.6509493,67.3704361 C24.7274557,67.3704361 24.8042796,67.3669441 24.8811035,67.3599601 L45.9505351,65.4444418 C46.5419522,65.3904746 47.0959097,65.1311145 47.516219,64.7111227 L64.7546139,47.4727277 C65.1749232,47.0524184 65.4342833,46.498461 65.487933,45.9070439 L67.4034513,24.8376123 C67.471069,24.0874682 67.2021854,23.3452604 66.6691799,22.8128898 Z" id="Shape"></path>
                                                </g>
                                                <path d="M51.8608165,24.2608542 C51.2109879,24.2608542 50.5608418,24.0129225 50.0652958,23.5170591 L43.293364,16.7451273 C42.3016373,15.7534005 42.3016373,14.1454953 43.293364,13.154086 C44.2850908,12.1623593 45.892996,12.1623593 46.8844053,13.154086 L53.6563371,19.9260178 C54.6480639,20.9177446 54.6480639,22.5256498 53.6563371,23.5170591 C53.1604738,24.0129225 52.5106451,24.2608542 51.8608165,24.2608542 Z" id="Shape" fill="#FFFFFF"></path>
                                                <path d="M160.54866,116.734273 L138.521786,94.7074001 C137.988781,94.1743946 137.246573,93.9058284 136.496429,93.974081 L115.426997,95.8895993 C114.83558,95.9435665 114.281623,96.2029265 113.861313,96.6229184 L96.6229184,113.861313 C96.2026091,114.281623 95.9432491,114.83558 95.8895993,115.426997 L93.974081,136.496429 C93.9058284,137.247208 94.1743946,137.989416 94.7074001,138.521786 L116.734273,160.54866 C117.229819,161.044205 117.879965,161.292455 118.529794,161.292455 C119.179623,161.292455 119.829769,161.044523 120.325315,160.54866 L129.901954,150.97202 C130.893681,149.980294 130.893681,148.372388 129.901954,147.380979 L113.501638,130.980663 L130.979393,113.502908 L147.379709,129.903224 C148.371436,130.89495 149.979341,130.89495 150.970751,129.903224 L160.54739,120.326584 C161.540386,119.333588 161.540386,117.725683 160.54866,116.734273 Z" id="Shape" fill="#C1D1D5"></path>
                                                <path d="M54.1709303,54.9598599 L49.2186456,59.9118271 C48.742147,60.3880083 48.4748506,61.0340275 48.4748506,61.7073478 C48.4748506,62.380668 48.7424644,63.0270046 49.2186456,63.5028684 L107.637827,121.92205 C108.114008,122.398549 108.760028,122.665845 109.433348,122.665845 C110.106668,122.665845 110.753005,122.398231 111.228868,121.92205 L116.180836,116.969765 L54.1709303,54.9598599 Z" id="Shape" fill="#8B9FA2"></path>
                                                <g id="Group" transform="translate(0.000000, 31.025727)" fill="#9BAAAB">
                                                    <path d="M39.2995533,8.45412133 L30.3968693,17.3568054 L13.9965532,0.956489339 C13.0048265,-0.0352374101 11.3969213,-0.0352374101 10.405512,0.956489339 L0.828555318,10.5331285 C-0.16317143,11.5248553 -0.16317143,13.1327605 0.828555318,14.1241698 L22.8554286,36.1510431 C23.333832,36.6294465 23.9804861,36.8948382 24.6509493,36.8948382 C24.7274557,36.8948382 24.8042796,36.8913462 24.8811035,36.8843622 L45.9505351,34.9688439 C46.5419522,34.9148767 47.0959097,34.6555166 47.516219,34.2355248 L56.2989053,25.4528384 L39.2995533,8.45412133 Z" id="Shape"></path>
                                                    <path d="M96.5971694,83.3174276 C96.1768601,83.7377369 95.9175001,84.2916944 95.8638503,84.8831114 L93.948332,105.952543 C93.8800794,106.703322 94.1486456,107.44553 94.6816511,107.9779 L116.708524,130.004774 C117.20407,130.50032 117.854216,130.748569 118.504045,130.748569 C119.153874,130.748569 119.80402,130.500637 120.299566,130.004774 L129.876205,120.428135 C130.867932,119.436408 130.867932,117.828503 129.876205,116.837093 L113.475889,100.43646 L122.378573,91.5337758 L105.379856,74.5350587 L96.5971694,83.3174276 Z" id="Shape"></path>
                                                </g>
                                            </g>
                                            <g id="Group-28" transform="translate(81.666891, 7.091595)">
                                                <g id="Group" transform="translate(52.300512, 0.000000)" fill="#C1D1D5">
                                                    <path d="M63.0470281,40.1449337 L55.3855898,32.4831779 C54.393863,31.4914512 52.7859578,31.4914512 51.7945485,32.4831779 L1.03680524,83.2406037 C0.0450784886,84.2323304 0.0450784886,85.8402357 1.03680524,86.8319624 L8.69824357,94.4934008 C9.19378949,94.9889467 9.84393558,95.2371958 10.4937642,95.2371958 C11.1439103,95.2371958 11.7937389,94.9892641 12.2892849,94.4934008 L63.0467106,43.735975 C64.0387548,42.7442482 64.0387548,41.136343 63.0470281,40.1449337 Z" id="Shape"></path>
                                                    <path d="M94.6505406,8.54110377 L86.9891022,0.879347981 C86.2405454,0.130791108 85.1065992,-0.0752366323 84.1424909,0.363484996 L63.0730593,9.94075909 C62.7956044,10.0667884 62.5435458,10.2413882 62.3283119,10.4566221 L46.048311,26.7372579 C45.0565842,27.7289846 45.0565842,29.3368899 46.048311,30.3282992 L65.2019068,49.481895 C65.6974527,49.9780758 66.3475988,50.2256901 66.9974275,50.2256901 C67.6472561,50.2256901 68.2974022,49.9777584 68.7929481,49.481895 L85.0735839,33.2012592 C85.2888178,32.9860253 85.4637351,32.7336492 85.5894469,32.4565118 L95.1660861,11.3870802 C95.6048077,10.4236068 95.3994149,9.28934319 94.6505406,8.54110377 Z" id="Shape"></path>
                                                </g>
                                                <g id="Group-26" transform="translate(0.000000, 4.432247)">
                                                    <path d="M63.3552281,105.42407 L38.4553947,80.5242369 C37.463668,79.5325101 35.8557628,79.5325101 34.8643535,80.5242369 L5.17604183,110.212549 C4.18431508,111.204275 4.18431508,112.81218 5.17604183,113.803907 L30.0758751,138.703741 C30.5714211,139.199286 31.2215671,139.447536 31.8713958,139.447536 C32.5212244,139.447536 33.1713705,139.199604 33.6669164,138.703741 L63.3552281,109.015429 C64.3469548,108.023702 64.3469548,106.415797 63.3552281,105.42407 Z" id="Shape" fill="#F05244"></path>
                                                    <path d="M38.4553947,80.5242369 C37.463668,79.5325101 35.8557628,79.5325101 34.8643535,80.5242369 L5.17604183,110.212549 C4.18431508,111.204275 4.18431508,112.81218 5.17604183,113.803907 L17.5211986,126.149381 L50.800869,92.8697111 L38.4553947,80.5242369 Z" id="Shape" fill="#FF8B81"></path>
                                                    <g id="Group-18">
                                                        <g id="Group" transform="translate(15.956088, 90.417834)" fill="#424A60">
                                                            <rect id="Rectangle-path" transform="translate(18.747636, 18.686552) rotate(-135.000000) translate(-18.747636, -18.686552) " x="16.2081858" y="-4.84530481" width="5.07890016" height="47.0637129"></rect>
                                                            <rect id="Rectangle-path" transform="translate(25.932003, 24.911777) rotate(-135.000000) translate(-25.932003, -24.911777) " x="23.3925532" y="2.05720288" width="5.07890016" height="45.7091491"></rect>
                                                        </g>
                                                        <g id="Group-15">
                                                            <rect id="Rectangle-path" fill="#757D93" transform="translate(29.480129, 101.282526) rotate(-135.000000) translate(-29.480129, -101.282526) " x="26.9406785" y="78.4279517" width="5.07890016" height="45.7091491"></rect>
                                                            <path d="M114.627341,29.2528287 L60.278556,83.6012957 L64.2137176,87.5364573 C64.7092635,88.0320032 65.3594096,88.2802524 66.0092383,88.2802524 C66.6593843,88.2802524 67.309213,88.0323207 67.8047589,87.5364573 L118.562502,36.7790315 C119.554229,35.7873048 119.554229,34.1793995 118.562502,33.1879902 L114.627341,29.2528287 Z" id="Shape" fill="#8B9FA2"></path>
                                                            <path d="M143.341692,0 L108.146821,35.1951887 L117.82822,44.8765877 C118.323766,45.3727686 118.973912,45.6203828 119.623741,45.6203828 C120.273569,45.6203828 120.923716,45.3724511 121.419261,44.8765877 L137.699897,28.5959519 C137.915131,28.380718 138.090048,28.128342 138.21576,27.8512045 L147.792399,6.7817729 C148.230486,5.81798211 148.025093,4.68371845 147.276536,3.93516158 L143.341692,0 Z" id="Shape" fill="#9BAAAB"></path>
                                                            <path d="M23.6092584,144.267106 C24.03052,144.267106 24.4546388,144.162346 24.8416154,143.94743 L33.4604954,139.158951 L5.10739589,110.806169 L0.319552478,119.425367 C-0.230913009,120.416459 -0.0579005001,121.652625 0.743671216,122.454197 L21.8131028,143.523311 C22.3016647,144.01219 22.9518108,144.267106 23.6092584,144.267106 Z" id="Shape" fill="#F9A53D"></path>
                                                            <path d="M5.1080308,110.806169 L0.319552478,119.425367 C-0.230913009,120.416459 -0.0579005001,121.652625 0.743671216,122.454197 L11.1736271,132.884153 L19.1798207,124.877959 L5.1080308,110.806169 Z" id="Shape" fill="#F7C588"></path>
                                                            <path d="M51.6617861,74.3189032 C50.9278321,73.5852667 49.820552,73.3716201 48.8656499,73.780501 L35.4579741,79.5267385 L63.6923458,107.76111 L69.4385833,94.3534343 C69.8474642,93.3988497 69.6344525,92.2918871 68.900181,91.5572982 L51.6617861,74.3189032 Z" id="Shape" fill="#F9A53D"></path>
                                                            <path d="M51.6617861,74.3189032 C50.9278321,73.5852667 49.820552,73.3716201 48.8656499,73.780501 L35.4579741,79.5267385 L49.4707175,93.5394819 L60.1762237,82.8339758 L51.6617861,74.3189032 Z" id="Shape" fill="#F7C588"></path>
                                                            <path d="M111.572586,22.9557655 C110.922758,22.9557655 110.272611,22.7078338 109.777066,22.2119704 C108.785339,21.2202437 108.785339,19.6123384 109.777066,18.6209292 L117.903257,10.4947379 C118.894983,9.5030112 120.502889,9.5030112 121.494298,10.4947379 C122.486025,11.4864647 122.486025,13.0943699 121.494298,14.0857792 L113.368107,22.2119704 C112.872243,22.7075164 112.222732,22.9557655 111.572586,22.9557655 Z" id="Shape" fill="#FFFFFF"></path>
                                                        </g>
                                                    </g>
                                                </g>
                                            </g>
                                        </g>
                                        <g id="checked-(6)">
                                            <path d="M37.5120203,0 C16.7956816,0 0,16.7949783 0,37.5120203 C0,58.2290622 16.7956816,75.0240405 37.5120203,75.0240405 C58.2306448,75.0240405 75.0240405,58.2290622 75.0240405,37.5120203 C75.0240405,16.7949783 58.2299414,0 37.5120203,0 Z" id="Path" fill="#FFFFFF"></path>
                                            <path d="M37.5120203,0 C16.7956816,0 0,16.7949783 0,37.5120203 C0,58.2290622 16.7956816,75.0240405 37.5120203,75.0240405 C58.2306448,75.0240405 75.0240405,58.2290622 75.0240405,37.5120203 C75.0240405,16.7949783 58.2299414,0 37.5120203,0 Z M30.6307811,56.7812132 L14.1134508,40.2645863 L19.6187586,34.7592784 L30.6307811,45.7705975 L55.4052819,20.9953933 L60.9105897,26.5007012 L30.6307811,56.7812132 Z" id="Shape" fill="#F9A53D" fill-rule="nonzero"></path>
                                        </g>
                                    </g>
                                </g>
                            </g>
                        </g>
                    </g>
                </g>
            </g>
        </g>
    </g>
</svg>