<?xml version="1.0" encoding="UTF-8" standalone="no"?>
<svg width="289px" height="223px" viewBox="0 0 289 223" version="1.1" xmlns="http://www.w3.org/2000/svg" xmlns:xlink="http://www.w3.org/1999/xlink">
    <!-- Generator: Sketch 46.2 (44496) - http://www.bohemiancoding.com/sketch -->
    <title>Artboard 3</title>
    <desc>Created with Sketch.</desc>
    <defs></defs>
    <g id="Page-1" stroke="none" stroke-width="1" fill="none" fill-rule="evenodd">
        <g id="Artboard-3">
            <g id="Group-11" transform="translate(30.000000, 1.000000)">
                <path d="M58,207.420679 C84.0811018,218.625064 106.477969,222.344651 125.190603,218.579438 C153.259553,212.93162 154.788619,198.90125 158.216864,197.752913 C161.645108,196.604575 166.407953,174.211992 149.713687,161.589666 C133.019421,148.967339 130.06009,146.426603 125.190603,137.981472 C120.321115,129.536341 129.428076,109.294935 145.916899,112.076603 C162.405721,114.858271 193.614353,124.66764 202.440594,114.858271 C211.266834,105.048903 206.712569,96.894767 193.651992,84.6588702 C180.591414,72.4229734 189.895978,50.060116 206.712569,54.598709" id="Path-5" stroke="#31475B" stroke-width="2" stroke-dasharray="5"></path>
                <g id="placeholder-(4)" transform="translate(0.000000, 57.000000)" fill-rule="nonzero">
                    <path d="M58.2500204,0 L58.2500204,32.3958132 C71.9791596,32.3958132 83.1498421,43.5295467 83.1498421,57.2201912 C83.1498421,70.9077326 71.9791596,82.0445691 58.2500204,82.0445691 L58.2500204,150.901187 L103.826032,93.7740877 C112.008736,83.4564556 116.33508,71.0566788 116.33508,57.9090677 C116.33508,25.9787115 90.2774161,0 58.2500204,0 Z" id="Shape" fill="#DC9032"></path>
                    <path d="M33.3501987,57.2201912 C33.3501987,43.5295467 44.5208812,32.3958132 58.2500204,32.3958132 L58.2500204,0 C26.2226247,0 0.164961319,25.9787115 0.164961319,57.9090677 C0.164961319,71.0566788 4.49130534,83.4564556 12.6864592,93.7864999 L58.2500204,150.901187 L58.2500204,82.0445691 C44.5208812,82.0445691 33.3501987,70.9077326 33.3501987,57.2201912 Z" id="Shape" fill="#F9A53D"></path>
                </g>
                <g id="placeholder-(4)" transform="translate(185.000000, 0.000000)" fill-rule="nonzero">
                    <path d="M22.395307,0 L22.395307,12.3523143 C27.6737307,12.3523143 31.968508,16.597535 31.968508,21.8176893 C31.968508,27.0366604 27.6737307,31.2830642 22.395307,31.2830642 L22.395307,57.537648 L39.9178547,35.7554539 C43.0638479,31.8214074 44.7271916,27.0934527 44.7271916,22.0803534 C44.7271916,9.9055149 34.7088368,0 22.395307,0 Z" id="Shape" fill="#CB4135"></path>
                    <path d="M12.822106,21.8176893 C12.822106,16.597535 17.1168833,12.3523143 22.395307,12.3523143 L22.395307,0 C10.0817773,0 0.0634224564,9.9055149 0.0634224564,22.0803534 C0.0634224564,27.0934527 1.72676612,31.8214074 4.87754589,35.7601866 L22.395307,57.537648 L22.395307,31.2830642 C17.1168833,31.2830642 12.822106,27.0366604 12.822106,21.8176893 Z" id="Shape" fill="#F05244"></path>
                </g>
            </g>
        </g>
    </g>
</svg>