<?xml version="1.0" encoding="UTF-8" standalone="no"?>
<svg width="682px" height="176px" viewBox="0 0 682 176" version="1.1" xmlns="http://www.w3.org/2000/svg" xmlns:xlink="http://www.w3.org/1999/xlink">
    <!-- Generator: Sketch 46.2 (44496) - http://www.bohemiancoding.com/sketch -->
    <title>Steps</title>
    <desc>Created with Sketch.</desc>
    <defs></defs>
    <g id="Page-1" stroke="none" stroke-width="1" fill="none" fill-rule="evenodd">
        <g id="Steps">
            <g id="Group-5-Copy" transform="translate(4.000000, 6.000000)">
                <path d="M108.5,51.5 L570.504329,51.5" id="Line-2" stroke="#E8E8E8" stroke-width="3" stroke-linecap="square" stroke-dasharray="7"></path>
                <g id="right-arrow-(5)" transform="translate(191.000000, 40.000000)" fill-rule="nonzero" fill="#E8E8E8">
                    <path d="M12.6470314,10.6025398 L2.79979729,0.367436037 C2.57204279,0.130519264 2.26801031,0 1.94382894,0 C1.61964756,0 1.31561509,0.130519264 1.08786058,0.367436037 L0.362680161,1.12100715 C-0.10919983,1.6120438 -0.10919983,2.41011862 0.362680161,2.90040731 L8.63164391,11.4952317 L0.353505216,20.0995927 C0.125750711,20.3365095 0,20.6523362 0,20.9891058 C0,21.3262494 0.125750711,21.6420761 0.353505216,21.8791798 L1.07868564,22.632564 C1.30662004,22.8694807 1.61047262,23 1.93465399,23 C2.25883537,23 2.56286784,22.8694807 2.79062235,22.632564 L12.6470314,12.3881107 C12.8753256,12.1504459 13.0007165,11.8331233 12.9999969,11.4957927 C13.0007165,11.1571532 12.8753256,10.8400176 12.6470314,10.6025398 Z" id="Shape"></path>
                    <path d="M291.647031,10.6025398 L281.799797,0.367436037 C281.572043,0.130519264 281.26801,0 280.943829,0 C280.619648,0 280.315615,0.130519264 280.087861,0.367436037 L279.36268,1.12100715 C278.8908,1.6120438 278.8908,2.41011862 279.36268,2.90040731 L287.631644,11.4952317 L279.353505,20.0995927 C279.125751,20.3365095 279,20.6523362 279,20.9891058 C279,21.3262494 279.125751,21.6420761 279.353505,21.8791798 L280.078686,22.632564 C280.30662,22.8694807 280.610473,23 280.934654,23 C281.258835,23 281.562868,22.8694807 281.790622,22.632564 L291.647031,12.3881107 C291.875326,12.1504459 292.000717,11.8331233 291.999997,11.4957927 C292.000717,11.1571532 291.875326,10.8400176 291.647031,10.6025398 Z" id="Shape"></path>
                </g>
                <g id="Group-9">
                    <path d="M11.03,133 L10.03,130.16 L4.21,130.16 L3.21,133 L0.83,133 L5.81,119.08 L8.45,119.08 L13.43,133 L11.03,133 Z M4.83,128.38 L9.41,128.38 L7.13,121.84 L4.83,128.38 Z M28.15,121.98 L30.39,121.98 L26.97,133 L24.57,133 L22.35,124.86 L20.13,133 L17.73,133 L14.29,121.98 L16.61,121.98 L18.91,130.84 L21.25,121.98 L23.63,121.98 L25.87,130.8 L28.15,121.98 Z M40.35,127.48 C40.35,126.346661 40.0200033,125.44667 39.36,124.78 C38.6999967,124.11333 37.9166712,123.78 37.01,123.78 C36.1033288,123.78 35.3200033,124.106663 34.66,124.76 C33.9999967,125.413337 33.67,126.306661 33.67,127.44 C33.67,128.573339 33.9999967,129.48333 34.66,130.17 C35.3200033,130.85667 36.1033288,131.2 37.01,131.2 C37.9166712,131.2 38.6999967,130.863337 39.36,130.19 C40.0200033,129.516663 40.35,128.613339 40.35,127.48 Z M32.83,131.57 C31.829995,130.496661 31.33,129.123342 31.33,127.45 C31.33,125.776658 31.8266617,124.416672 32.82,123.37 C33.8133383,122.323328 35.0499926,121.8 36.53,121.8 C37.396671,121.8 38.1599967,121.996665 38.82,122.39 C39.4800033,122.783335 39.9899982,123.299997 40.35,123.94 L40.35,121.98 L42.65,121.98 L42.65,133 L40.35,133 L40.35,130.94 C39.9766648,131.620003 39.4633366,132.163331 38.81,132.57 C38.1566634,132.976669 37.396671,133.18 36.53,133.18 C35.063326,133.18 33.830005,132.643339 32.83,131.57 Z M47.93,121.98 L47.93,123.9 C48.6366702,122.499993 49.7366592,121.8 51.23,121.8 L51.23,124.16 L50.65,124.16 C49.7566622,124.16 49.0800023,124.386664 48.62,124.84 C48.1599977,125.293336 47.93,126.079994 47.93,127.2 L47.93,133 L45.65,133 L45.65,121.98 L47.93,121.98 Z M57.97,133.18 C56.369992,133.18 55.070005,132.660005 54.07,131.62 C53.069995,130.579995 52.57,129.200009 52.57,127.48 C52.57,125.759991 53.0766616,124.383339 54.09,123.35 C55.1033384,122.316662 56.4133253,121.8 58.02,121.8 C59.6266747,121.8 60.929995,122.296662 61.93,123.29 C62.930005,124.283338 63.43,125.579992 63.43,127.18 C63.43,127.566669 63.4033336,127.926665 63.35,128.26 L54.91,128.26 C54.9633336,129.180005 55.2733305,129.909997 55.84,130.45 C56.4066695,130.990003 57.1166624,131.26 57.97,131.26 C59.2100062,131.26 60.0833308,130.746672 60.59,129.72 L63.05,129.72 C62.716665,130.733338 62.1100044,131.56333 61.23,132.21 C60.3499956,132.85667 59.2633398,133.18 57.97,133.18 Z M60.15,124.53 C59.5633304,123.989997 58.8500042,123.72 58.01,123.72 C57.1699958,123.72 56.4666695,123.989997 55.9,124.53 C55.3333305,125.070003 55.0100004,125.793329 54.93,126.7 L61.05,126.7 C61.0366666,125.793329 60.7366696,125.070003 60.15,124.53 Z M67.95,121.98 L67.95,123.72 C68.683337,122.439994 69.8566586,121.8 71.47,121.8 C72.7100062,121.8 73.7333293,122.213329 74.54,123.04 C75.3466707,123.866671 75.75,125.019993 75.75,126.5 L75.75,133 L73.49,133 L73.49,126.84 C73.49,125.853328 73.2433358,125.096669 72.75,124.57 C72.2566642,124.043331 71.5833376,123.78 70.73,123.78 C69.8766624,123.78 69.2000025,124.043331 68.7,124.57 C68.1999975,125.096669 67.95,125.853328 67.95,126.84 L67.95,133 L65.67,133 L65.67,121.98 L67.95,121.98 Z M83.29,133.18 C81.689992,133.18 80.390005,132.660005 79.39,131.62 C78.389995,130.579995 77.89,129.200009 77.89,127.48 C77.89,125.759991 78.3966616,124.383339 79.41,123.35 C80.4233384,122.316662 81.7333253,121.8 83.34,121.8 C84.9466747,121.8 86.249995,122.296662 87.25,123.29 C88.250005,124.283338 88.75,125.579992 88.75,127.18 C88.75,127.566669 88.7233336,127.926665 88.67,128.26 L80.23,128.26 C80.2833336,129.180005 80.5933305,129.909997 81.16,130.45 C81.7266695,130.990003 82.4366624,131.26 83.29,131.26 C84.5300062,131.26 85.4033308,130.746672 85.91,129.72 L88.37,129.72 C88.036665,130.733338 87.4300044,131.56333 86.55,132.21 C85.6699956,132.85667 84.5833398,133.18 83.29,133.18 Z M85.47,124.53 C84.8833304,123.989997 84.1700042,123.72 83.33,123.72 C82.4899958,123.72 81.7866695,123.989997 81.22,124.53 C80.6533305,125.070003 80.3300004,125.793329 80.25,126.7 L86.37,126.7 C86.3566666,125.793329 86.0566696,125.070003 85.47,124.53 Z M90.49,125.14 C90.49,124.206662 90.8833294,123.41667 91.67,122.77 C92.4566706,122.12333 93.4899936,121.8 94.77,121.8 C96.0500064,121.8 97.0666629,122.116664 97.82,122.75 C98.5733371,123.383336 98.9766664,124.246661 99.03,125.34 L96.69,125.34 C96.6499998,124.793331 96.4600017,124.366668 96.12,124.06 C95.7799983,123.753332 95.3033364,123.6 94.69,123.6 C94.0766636,123.6 93.5966684,123.736665 93.25,124.01 C92.9033316,124.283335 92.73,124.643331 92.73,125.09 C92.73,125.536669 92.9499978,125.886665 93.39,126.14 C93.8300022,126.393335 94.3666635,126.579999 95,126.7 C95.6333365,126.820001 96.2666635,126.966666 96.9,127.14 C97.5333365,127.313334 98.0699978,127.629998 98.51,128.09 C98.9500022,128.550002 99.17,129.166663 99.17,129.94 C99.17,130.900005 98.7666707,131.679997 97.96,132.28 C97.1533293,132.880003 96.116673,133.18 94.85,133.18 C93.583327,133.18 92.5566706,132.873336 91.77,132.26 C90.9833294,131.646664 90.5500004,130.773339 90.47,129.64 L92.83,129.64 C92.8700002,130.186669 93.0699982,130.613332 93.43,130.92 C93.7900018,131.226668 94.2799969,131.38 94.9,131.38 C95.5200031,131.38 96.0133315,131.243335 96.38,130.97 C96.7466685,130.696665 96.93,130.333336 96.93,129.88 C96.93,129.426664 96.7100022,129.073335 96.27,128.82 C95.8299978,128.566665 95.2933365,128.376667 94.66,128.25 C94.0266635,128.123333 93.3933365,127.976668 92.76,127.81 C92.1266635,127.643332 91.5900022,127.340002 91.15,126.9 C90.7099978,126.459998 90.49,125.873337 90.49,125.14 Z M101.17,125.14 C101.17,124.206662 101.563329,123.41667 102.35,122.77 C103.136671,122.12333 104.169994,121.8 105.45,121.8 C106.730006,121.8 107.746663,122.116664 108.5,122.75 C109.253337,123.383336 109.656666,124.246661 109.71,125.34 L107.37,125.34 C107.33,124.793331 107.140002,124.366668 106.8,124.06 C106.459998,123.753332 105.983336,123.6 105.37,123.6 C104.756664,123.6 104.276668,123.736665 103.93,124.01 C103.583332,124.283335 103.41,124.643331 103.41,125.09 C103.41,125.536669 103.629998,125.886665 104.07,126.14 C104.510002,126.393335 105.046663,126.579999 105.68,126.7 C106.313336,126.820001 106.946663,126.966666 107.58,127.14 C108.213336,127.313334 108.749998,127.629998 109.19,128.09 C109.630002,128.550002 109.85,129.166663 109.85,129.94 C109.85,130.900005 109.446671,131.679997 108.64,132.28 C107.833329,132.880003 106.796673,133.18 105.53,133.18 C104.263327,133.18 103.236671,132.873336 102.45,132.26 C101.663329,131.646664 101.23,130.773339 101.15,129.64 L103.51,129.64 C103.55,130.186669 103.749998,130.613332 104.11,130.92 C104.470002,131.226668 104.959997,131.38 105.58,131.38 C106.200003,131.38 106.693331,131.243335 107.06,130.97 C107.426668,130.696665 107.61,130.333336 107.61,129.88 C107.61,129.426664 107.390002,129.073335 106.95,128.82 C106.509998,128.566665 105.973336,128.376667 105.34,128.25 C104.706663,128.123333 104.073336,127.976668 103.44,127.81 C102.806663,127.643332 102.270002,127.340002 101.83,126.9 C101.389998,126.459998 101.17,125.873337 101.17,125.14 Z M30.17,146.3 C29.7433312,146.646668 29.53,147.149997 29.53,147.81 C29.53,148.470003 29.7833308,148.973332 30.29,149.32 C30.7966692,149.666668 31.4099964,149.919999 32.13,150.08 C32.8500036,150.240001 33.5699964,150.423332 34.29,150.63 C35.0100036,150.836668 35.6233308,151.219997 36.13,151.78 C36.6366692,152.340003 36.89,153.133328 36.89,154.16 C36.89,155.186672 36.456671,156.106663 35.59,156.92 C34.723329,157.733337 33.5633406,158.14 32.11,158.14 C30.6566594,158.14 29.4766712,157.800003 28.57,157.12 C27.6633288,156.439997 27.21,155.500006 27.21,154.3 L29.65,154.3 C29.7033336,154.913336 29.929998,155.399998 30.33,155.76 C30.730002,156.120002 31.3166628,156.3 32.09,156.3 C32.8633372,156.3 33.4733311,156.100002 33.92,155.7 C34.3666689,155.299998 34.59,154.826669 34.59,154.28 C34.59,153.733331 34.4533347,153.306668 34.18,153 C33.9066653,152.693332 33.5533355,152.463334 33.12,152.31 C32.6866645,152.156666 32.2100026,152.020001 31.69,151.9 C31.1699974,151.779999 30.6466693,151.640001 30.12,151.48 C29.5933307,151.319999 29.1133355,151.113335 28.68,150.86 C28.2466645,150.606665 27.8933347,150.236669 27.62,149.75 C27.3466653,149.263331 27.21,148.66667 27.21,147.96 C27.21,146.746661 27.6466623,145.770004 28.52,145.03 C29.3933377,144.289996 30.5266597,143.92 31.92,143.92 C33.3133403,143.92 34.4266625,144.239997 35.26,144.88 C36.0933375,145.520003 36.5566662,146.446661 36.65,147.66 L34.13,147.66 C34.0766664,147.126664 33.850002,146.680002 33.45,146.32 C33.049998,145.959998 32.5100034,145.78 31.83,145.78 C31.1499966,145.78 30.5966688,145.953332 30.17,146.3 Z M44.93,148.84 L42.25,148.84 L42.25,154.94 C42.25,155.353335 42.3466657,155.649999 42.54,155.83 C42.7333343,156.010001 43.063331,156.1 43.53,156.1 L44.93,156.1 L44.93,158 L43.13,158 C41.0099894,158 39.95,156.98001 39.95,154.94 L39.95,148.84 L38.65,148.84 L38.65,146.98 L39.95,146.98 L39.95,144.24 L42.25,144.24 L42.25,146.98 L44.93,146.98 L44.93,148.84 Z M55.29,152.48 C55.29,151.346661 54.9600033,150.44667 54.3,149.78 C53.6399967,149.11333 52.8566712,148.78 51.95,148.78 C51.0433288,148.78 50.2600033,149.106663 49.6,149.76 C48.9399967,150.413337 48.61,151.306661 48.61,152.44 C48.61,153.573339 48.9399967,154.48333 49.6,155.17 C50.2600033,155.85667 51.0433288,156.2 51.95,156.2 C52.8566712,156.2 53.6399967,155.863337 54.3,155.19 C54.9600033,154.516663 55.29,153.613339 55.29,152.48 Z M47.77,156.57 C46.769995,155.496661 46.27,154.123342 46.27,152.45 C46.27,150.776658 46.7666617,149.416672 47.76,148.37 C48.7533383,147.323328 49.9899926,146.8 51.47,146.8 C52.336671,146.8 53.0999967,146.996665 53.76,147.39 C54.4200033,147.783335 54.9299982,148.299997 55.29,148.94 L55.29,146.98 L57.59,146.98 L57.59,158 L55.29,158 L55.29,155.94 C54.9166648,156.620003 54.4033366,157.163331 53.75,157.57 C53.0966634,157.976669 52.336671,158.18 51.47,158.18 C50.003326,158.18 48.770005,157.643339 47.77,156.57 Z M61.33,156.57 C60.329995,155.496661 59.83,154.123342 59.83,152.45 C59.83,150.776658 60.3266617,149.416672 61.32,148.37 C62.3133383,147.323328 63.5499926,146.8 65.03,146.8 C65.896671,146.8 66.6599967,146.996665 67.32,147.39 C67.9800033,147.783335 68.4899982,148.299997 68.85,148.94 L68.85,146.98 L71.15,146.98 L71.15,158.18 C71.15,159.726674 70.6733381,160.989995 69.72,161.97 C68.7666619,162.950005 67.4966746,163.44 65.91,163.44 C64.3233254,163.44 63.0366716,163.090003 62.05,162.39 C61.0633284,161.689997 60.503334,160.740006 60.37,159.54 L62.63,159.54 C62.8033342,160.113336 63.1733305,160.576665 63.74,160.93 C64.3066695,161.283335 65.0166624,161.46 65.87,161.46 C66.7233376,161.46 67.4333305,161.180003 68,160.62 C68.5666695,160.059997 68.85,159.246672 68.85,158.18 L68.85,155.94 C68.4766648,156.620003 67.9633366,157.163331 67.31,157.57 C66.6566634,157.976669 65.896671,158.18 65.03,158.18 C63.563326,158.18 62.330005,157.643339 61.33,156.57 Z M68.85,152.48 C68.85,151.346661 68.5200033,150.44667 67.86,149.78 C67.1999967,149.11333 66.4166712,148.78 65.51,148.78 C64.6033288,148.78 63.8200033,149.106663 63.16,149.76 C62.4999967,150.413337 62.17,151.306661 62.17,152.44 C62.17,153.573339 62.4999967,154.48333 63.16,155.17 C63.8200033,155.85667 64.6033288,156.2 65.51,156.2 C66.4166712,156.2 67.1999967,155.863337 67.86,155.19 C68.5200033,154.516663 68.85,153.613339 68.85,152.48 Z M78.79,158.18 C77.189992,158.18 75.890005,157.660005 74.89,156.62 C73.889995,155.579995 73.39,154.200009 73.39,152.48 C73.39,150.759991 73.8966616,149.383339 74.91,148.35 C75.9233384,147.316662 77.2333253,146.8 78.84,146.8 C80.4466747,146.8 81.749995,147.296662 82.75,148.29 C83.750005,149.283338 84.25,150.579992 84.25,152.18 C84.25,152.566669 84.2233336,152.926665 84.17,153.26 L75.73,153.26 C75.7833336,154.180005 76.0933305,154.909997 76.66,155.45 C77.2266695,155.990003 77.9366624,156.26 78.79,156.26 C80.0300062,156.26 80.9033308,155.746672 81.41,154.72 L83.87,154.72 C83.536665,155.733338 82.9300044,156.56333 82.05,157.21 C81.1699956,157.85667 80.0833398,158.18 78.79,158.18 Z M80.97,149.53 C80.3833304,148.989997 79.6700042,148.72 78.83,148.72 C77.9899958,148.72 77.2866695,148.989997 76.72,149.53 C76.1533305,150.070003 75.8300004,150.793329 75.75,151.7 L81.87,151.7 C81.8566666,150.793329 81.5566696,150.070003 80.97,149.53 Z" id="Awareness-Stage" fill="#F05244"></path>
                    <circle id="Oval-11" stroke="#F05244" stroke-width="5" fill="#FFFFFF" cx="58" cy="49" r="49"></circle>
                    <path d="M56.5742188,48.7226562 C56.5742188,53.7096604 55.7571696,57.4010297 54.1230469,59.796875 C52.4889241,62.1927203 49.9726732,63.390625 46.5742188,63.390625 C43.2799314,63.390625 40.7962323,62.1536582 39.1230469,59.6796875 C37.4498614,57.2057168 36.6132812,53.5534096 36.6132812,48.7226562 C36.6132812,43.6835686 37.4270752,39.969413 39.0546875,37.5800781 C40.6822998,35.1907433 43.1887852,33.9960938 46.5742188,33.9960938 C49.8685061,33.9960938 52.3587155,35.2460813 54.0449219,37.7460938 C55.7311282,40.2461062 56.5742188,43.9049238 56.5742188,48.7226562 Z M42.609375,48.7226562 C42.609375,52.2252779 42.9121063,54.7350185 43.5175781,56.2519531 C44.1230499,57.7688878 45.1419199,58.5273438 46.5742188,58.5273438 C47.9804758,58.5273438 48.9960906,57.7591223 49.6210938,56.2226562 C50.2460969,54.6861902 50.5585938,52.1862152 50.5585938,48.7226562 C50.5585938,45.2200346 50.2428417,42.7037837 49.6113281,41.1738281 C48.9798146,39.6438726 47.9674549,38.8789062 46.5742188,38.8789062 C45.1549408,38.8789062 44.139326,39.6438726 43.5273438,41.1738281 C42.9153615,42.7037837 42.609375,45.2200346 42.609375,48.7226562 Z M74.5234375,63 L68.4882812,63 L68.4882812,46.4765625 L68.546875,43.7617188 L68.6445312,40.7929688 C67.6419221,41.7955779 66.9453145,42.4531234 66.5546875,42.765625 L63.2734375,45.4023438 L60.3632812,41.7695312 L69.5625,34.4453125 L74.5234375,34.4453125 L74.5234375,63 Z" id="01" fill="#F05244"></path>
                </g>
                <g id="Group-8" transform="translate(272.000000, 3.000000)">
                    <path d="M2.92,128.12 C1.5466598,126.78666 0.86,125.09001 0.86,123.03 C0.86,120.96999 1.5466598,119.270007 2.92,117.93 C4.2933402,116.589993 5.9733234,115.92 7.96,115.92 C9.4400074,115.92 10.7566609,116.28333 11.91,117.01 C13.0633391,117.73667 13.8999974,118.76666 14.42,120.1 L11.68,120.1 C10.9333296,118.699993 9.693342,118 7.96,118 C6.559993,118 5.4166711,118.459995 4.53,119.38 C3.6433289,120.300005 3.2,121.516659 3.2,123.03 C3.2,124.543341 3.6433289,125.759995 4.53,126.68 C5.4166711,127.600005 6.559993,128.06 7.96,128.06 C9.693342,128.06 10.9333296,127.360007 11.68,125.96 L14.42,125.96 C13.8999974,127.29334 13.0633391,128.319996 11.91,129.04 C10.7566609,129.760004 9.4400074,130.12 7.96,130.12 C5.9733234,130.12 4.2933402,129.45334 2.92,128.12 Z M25.24,124.48 C25.24,123.293327 24.9166699,122.370003 24.27,121.71 C23.6233301,121.049997 22.8400046,120.72 21.92,120.72 C20.9999954,120.72 20.2266698,121.049997 19.6,121.71 C18.9733302,122.370003 18.66,123.296661 18.66,124.49 C18.66,125.683339 18.9666636,126.609997 19.58,127.27 C20.1933364,127.930003 20.9566621,128.26 21.87,128.26 C22.7833379,128.26 23.57333,127.92667 24.24,127.26 C24.90667,126.59333 25.24,125.666673 25.24,124.48 Z M17.9,128.61 C16.8599948,127.563328 16.34,126.190009 16.34,124.49 C16.34,122.789991 16.8766613,121.416672 17.95,120.37 C19.0233387,119.323328 20.359992,118.8 21.96,118.8 C23.560008,118.8 24.8966613,119.323328 25.97,120.37 C27.0433387,121.416672 27.58,122.786658 27.58,124.48 C27.58,126.173342 27.0300055,127.546661 25.93,128.6 C24.8299945,129.653339 23.4766747,130.18 21.87,130.18 C20.2633253,130.18 18.9400052,129.656672 17.9,128.61 Z M32.12,118.98 L32.12,120.72 C32.853337,119.439994 34.0266586,118.8 35.64,118.8 C36.8800062,118.8 37.9033293,119.213329 38.71,120.04 C39.5166707,120.866671 39.92,122.019993 39.92,123.5 L39.92,130 L37.66,130 L37.66,123.84 C37.66,122.853328 37.4133358,122.096669 36.92,121.57 C36.4266642,121.043331 35.7533376,120.78 34.9,120.78 C34.0466624,120.78 33.3700025,121.043331 32.87,121.57 C32.3699975,122.096669 32.12,122.853328 32.12,123.84 L32.12,130 L29.84,130 L29.84,118.98 L32.12,118.98 Z M42.32,122.14 C42.32,121.206662 42.7133294,120.41667 43.5,119.77 C44.2866706,119.12333 45.3199936,118.8 46.6,118.8 C47.8800064,118.8 48.8966629,119.116664 49.65,119.75 C50.4033371,120.383336 50.8066664,121.246661 50.86,122.34 L48.52,122.34 C48.4799998,121.793331 48.2900017,121.366668 47.95,121.06 C47.6099983,120.753332 47.1333364,120.6 46.52,120.6 C45.9066636,120.6 45.4266684,120.736665 45.08,121.01 C44.7333316,121.283335 44.56,121.643331 44.56,122.09 C44.56,122.536669 44.7799978,122.886665 45.22,123.14 C45.6600022,123.393335 46.1966635,123.579999 46.83,123.7 C47.4633365,123.820001 48.0966635,123.966666 48.73,124.14 C49.3633365,124.313334 49.8999978,124.629998 50.34,125.09 C50.7800022,125.550002 51,126.166663 51,126.94 C51,127.900005 50.5966707,128.679997 49.79,129.28 C48.9833293,129.880003 47.946673,130.18 46.68,130.18 C45.413327,130.18 44.3866706,129.873336 43.6,129.26 C42.8133294,128.646664 42.3800004,127.773339 42.3,126.64 L44.66,126.64 C44.7000002,127.186669 44.8999982,127.613332 45.26,127.92 C45.6200018,128.226668 46.1099969,128.38 46.73,128.38 C47.3500031,128.38 47.8433315,128.243335 48.21,127.97 C48.5766685,127.696665 48.76,127.333336 48.76,126.88 C48.76,126.426664 48.5400022,126.073335 48.1,125.82 C47.6599978,125.566665 47.1233365,125.376667 46.49,125.25 C45.8566635,125.123333 45.2233365,124.976668 44.59,124.81 C43.9566635,124.643332 43.4200022,124.340002 42.98,123.9 C42.5399978,123.459998 42.32,122.873337 42.32,122.14 Z M55.68,117.1 C55.3999986,117.380001 55.0566687,117.52 54.65,117.52 C54.2433313,117.52 53.9000014,117.380001 53.62,117.1 C53.3399986,116.819999 53.2,116.473335 53.2,116.06 C53.2,115.646665 53.3399986,115.300001 53.62,115.02 C53.9000014,114.739999 54.2433313,114.6 54.65,114.6 C55.0566687,114.6 55.3999986,114.739999 55.68,115.02 C55.9600014,115.300001 56.1,115.646665 56.1,116.06 C56.1,116.473335 55.9600014,116.819999 55.68,117.1 Z M53.5,130 L53.5,118.98 L55.78,118.98 L55.78,130 L53.5,130 Z M67.04,124.48 C67.04,123.346661 66.7100033,122.44667 66.05,121.78 C65.3899967,121.11333 64.6066712,120.78 63.7,120.78 C62.7933288,120.78 62.0100033,121.106663 61.35,121.76 C60.6899967,122.413337 60.36,123.306661 60.36,124.44 C60.36,125.573339 60.6899967,126.48333 61.35,127.17 C62.0100033,127.85667 62.7933288,128.2 63.7,128.2 C64.6066712,128.2 65.3899967,127.863337 66.05,127.19 C66.7100033,126.516663 67.04,125.613339 67.04,124.48 Z M59.52,128.57 C58.519995,127.496661 58.02,126.123342 58.02,124.45 C58.02,122.776658 58.5166617,121.416672 59.51,120.37 C60.5033383,119.323328 61.7399926,118.8 63.22,118.8 C64.086671,118.8 64.8499967,118.996665 65.51,119.39 C66.1700033,119.783335 66.6799982,120.299997 67.04,120.94 L67.04,115.2 L69.34,115.2 L69.34,130 L67.04,130 L67.04,127.94 C66.6666648,128.620003 66.1533366,129.163331 65.5,129.57 C64.8466634,129.976669 64.086671,130.18 63.22,130.18 C61.753326,130.18 60.520005,129.643339 59.52,128.57 Z M76.98,130.18 C75.379992,130.18 74.080005,129.660005 73.08,128.62 C72.079995,127.579995 71.58,126.200009 71.58,124.48 C71.58,122.759991 72.0866616,121.383339 73.1,120.35 C74.1133384,119.316662 75.4233253,118.8 77.03,118.8 C78.6366747,118.8 79.939995,119.296662 80.94,120.29 C81.940005,121.283338 82.44,122.579992 82.44,124.18 C82.44,124.566669 82.4133336,124.926665 82.36,125.26 L73.92,125.26 C73.9733336,126.180005 74.2833305,126.909997 74.85,127.45 C75.4166695,127.990003 76.1266624,128.26 76.98,128.26 C78.2200062,128.26 79.0933308,127.746672 79.6,126.72 L82.06,126.72 C81.726665,127.733338 81.1200044,128.56333 80.24,129.21 C79.3599956,129.85667 78.2733398,130.18 76.98,130.18 Z M79.16,121.53 C78.5733304,120.989997 77.8600042,120.72 77.02,120.72 C76.1799958,120.72 75.4766695,120.989997 74.91,121.53 C74.3433305,122.070003 74.0200004,122.793329 73.94,123.7 L80.06,123.7 C80.0466666,122.793329 79.7466696,122.070003 79.16,121.53 Z M86.96,118.98 L86.96,120.9 C87.6666702,119.499993 88.7666592,118.8 90.26,118.8 L90.26,121.16 L89.68,121.16 C88.7866622,121.16 88.1100023,121.386664 87.65,121.84 C87.1899977,122.293336 86.96,123.079994 86.96,124.2 L86.96,130 L84.68,130 L84.68,118.98 L86.96,118.98 Z M100.62,124.48 C100.62,123.346661 100.290003,122.44667 99.63,121.78 C98.9699967,121.11333 98.1866712,120.78 97.28,120.78 C96.3733288,120.78 95.5900033,121.106663 94.93,121.76 C94.2699967,122.413337 93.94,123.306661 93.94,124.44 C93.94,125.573339 94.2699967,126.48333 94.93,127.17 C95.5900033,127.85667 96.3733288,128.2 97.28,128.2 C98.1866712,128.2 98.9699967,127.863337 99.63,127.19 C100.290003,126.516663 100.62,125.613339 100.62,124.48 Z M93.1,128.57 C92.099995,127.496661 91.6,126.123342 91.6,124.45 C91.6,122.776658 92.0966617,121.416672 93.09,120.37 C94.0833383,119.323328 95.3199926,118.8 96.8,118.8 C97.666671,118.8 98.4299967,118.996665 99.09,119.39 C99.7500033,119.783335 100.259998,120.299997 100.62,120.94 L100.62,118.98 L102.92,118.98 L102.92,130 L100.62,130 L100.62,127.94 C100.246665,128.620003 99.7333366,129.163331 99.08,129.57 C98.4266634,129.976669 97.666671,130.18 96.8,130.18 C95.333326,130.18 94.100005,129.643339 93.1,128.57 Z M111.26,120.84 L108.58,120.84 L108.58,126.94 C108.58,127.353335 108.676666,127.649999 108.87,127.83 C109.063334,128.010001 109.393331,128.1 109.86,128.1 L111.26,128.1 L111.26,130 L109.46,130 C107.339989,130 106.28,128.98001 106.28,126.94 L106.28,120.84 L104.98,120.84 L104.98,118.98 L106.28,118.98 L106.28,116.24 L108.58,116.24 L108.58,118.98 L111.26,118.98 L111.26,120.84 Z M115.54,117.1 C115.259999,117.380001 114.916669,117.52 114.51,117.52 C114.103331,117.52 113.760001,117.380001 113.48,117.1 C113.199999,116.819999 113.06,116.473335 113.06,116.06 C113.06,115.646665 113.199999,115.300001 113.48,115.02 C113.760001,114.739999 114.103331,114.6 114.51,114.6 C114.916669,114.6 115.259999,114.739999 115.54,115.02 C115.820001,115.300001 115.96,115.646665 115.96,116.06 C115.96,116.473335 115.820001,116.819999 115.54,117.1 Z M113.36,130 L113.36,118.98 L115.64,118.98 L115.64,130 L113.36,130 Z M126.8,124.48 C126.8,123.293327 126.47667,122.370003 125.83,121.71 C125.18333,121.049997 124.400005,120.72 123.48,120.72 C122.559995,120.72 121.78667,121.049997 121.16,121.71 C120.53333,122.370003 120.22,123.296661 120.22,124.49 C120.22,125.683339 120.526664,126.609997 121.14,127.27 C121.753336,127.930003 122.516662,128.26 123.43,128.26 C124.343338,128.26 125.13333,127.92667 125.8,127.26 C126.46667,126.59333 126.8,125.666673 126.8,124.48 Z M119.46,128.61 C118.419995,127.563328 117.9,126.190009 117.9,124.49 C117.9,122.789991 118.436661,121.416672 119.51,120.37 C120.583339,119.323328 121.919992,118.8 123.52,118.8 C125.120008,118.8 126.456661,119.323328 127.53,120.37 C128.603339,121.416672 129.14,122.786658 129.14,124.48 C129.14,126.173342 128.590006,127.546661 127.49,128.6 C126.389995,129.653339 125.036675,130.18 123.43,130.18 C121.823325,130.18 120.500005,129.656672 119.46,128.61 Z M133.68,118.98 L133.68,120.72 C134.413337,119.439994 135.586659,118.8 137.2,118.8 C138.440006,118.8 139.463329,119.213329 140.27,120.04 C141.076671,120.866671 141.48,122.019993 141.48,123.5 L141.48,130 L139.22,130 L139.22,123.84 C139.22,122.853328 138.973336,122.096669 138.48,121.57 C137.986664,121.043331 137.313338,120.78 136.46,120.78 C135.606662,120.78 134.930003,121.043331 134.43,121.57 C133.929998,122.096669 133.68,122.853328 133.68,123.84 L133.68,130 L131.4,130 L131.4,118.98 L133.68,118.98 Z M46.17,143.3 C45.7433312,143.646668 45.53,144.149997 45.53,144.81 C45.53,145.470003 45.7833308,145.973332 46.29,146.32 C46.7966692,146.666668 47.4099964,146.919999 48.13,147.08 C48.8500036,147.240001 49.5699964,147.423332 50.29,147.63 C51.0100036,147.836668 51.6233308,148.219997 52.13,148.78 C52.6366692,149.340003 52.89,150.133328 52.89,151.16 C52.89,152.186672 52.456671,153.106663 51.59,153.92 C50.723329,154.733337 49.5633406,155.14 48.11,155.14 C46.6566594,155.14 45.4766712,154.800003 44.57,154.12 C43.6633288,153.439997 43.21,152.500006 43.21,151.3 L45.65,151.3 C45.7033336,151.913336 45.929998,152.399998 46.33,152.76 C46.730002,153.120002 47.3166628,153.3 48.09,153.3 C48.8633372,153.3 49.4733311,153.100002 49.92,152.7 C50.3666689,152.299998 50.59,151.826669 50.59,151.28 C50.59,150.733331 50.4533347,150.306668 50.18,150 C49.9066653,149.693332 49.5533355,149.463334 49.12,149.31 C48.6866645,149.156666 48.2100026,149.020001 47.69,148.9 C47.1699974,148.779999 46.6466693,148.640001 46.12,148.48 C45.5933307,148.319999 45.1133355,148.113335 44.68,147.86 C44.2466645,147.606665 43.8933347,147.236669 43.62,146.75 C43.3466653,146.263331 43.21,145.66667 43.21,144.96 C43.21,143.746661 43.6466623,142.770004 44.52,142.03 C45.3933377,141.289996 46.5266597,140.92 47.92,140.92 C49.3133403,140.92 50.4266625,141.239997 51.26,141.88 C52.0933375,142.520003 52.5566662,143.446661 52.65,144.66 L50.13,144.66 C50.0766664,144.126664 49.850002,143.680002 49.45,143.32 C49.049998,142.959998 48.5100034,142.78 47.83,142.78 C47.1499966,142.78 46.5966688,142.953332 46.17,143.3 Z M60.93,145.84 L58.25,145.84 L58.25,151.94 C58.25,152.353335 58.3466657,152.649999 58.54,152.83 C58.7333343,153.010001 59.063331,153.1 59.53,153.1 L60.93,153.1 L60.93,155 L59.13,155 C57.0099894,155 55.95,153.98001 55.95,151.94 L55.95,145.84 L54.65,145.84 L54.65,143.98 L55.95,143.98 L55.95,141.24 L58.25,141.24 L58.25,143.98 L60.93,143.98 L60.93,145.84 Z M71.29,149.48 C71.29,148.346661 70.9600033,147.44667 70.3,146.78 C69.6399967,146.11333 68.8566712,145.78 67.95,145.78 C67.0433288,145.78 66.2600033,146.106663 65.6,146.76 C64.9399967,147.413337 64.61,148.306661 64.61,149.44 C64.61,150.573339 64.9399967,151.48333 65.6,152.17 C66.2600033,152.85667 67.0433288,153.2 67.95,153.2 C68.8566712,153.2 69.6399967,152.863337 70.3,152.19 C70.9600033,151.516663 71.29,150.613339 71.29,149.48 Z M63.77,153.57 C62.769995,152.496661 62.27,151.123342 62.27,149.45 C62.27,147.776658 62.7666617,146.416672 63.76,145.37 C64.7533383,144.323328 65.9899926,143.8 67.47,143.8 C68.336671,143.8 69.0999967,143.996665 69.76,144.39 C70.4200033,144.783335 70.9299982,145.299997 71.29,145.94 L71.29,143.98 L73.59,143.98 L73.59,155 L71.29,155 L71.29,152.94 C70.9166648,153.620003 70.4033366,154.163331 69.75,154.57 C69.0966634,154.976669 68.336671,155.18 67.47,155.18 C66.003326,155.18 64.770005,154.643339 63.77,153.57 Z M77.33,153.57 C76.329995,152.496661 75.83,151.123342 75.83,149.45 C75.83,147.776658 76.3266617,146.416672 77.32,145.37 C78.3133383,144.323328 79.5499926,143.8 81.03,143.8 C81.896671,143.8 82.6599967,143.996665 83.32,144.39 C83.9800033,144.783335 84.4899982,145.299997 84.85,145.94 L84.85,143.98 L87.15,143.98 L87.15,155.18 C87.15,156.726674 86.6733381,157.989995 85.72,158.97 C84.7666619,159.950005 83.4966746,160.44 81.91,160.44 C80.3233254,160.44 79.0366716,160.090003 78.05,159.39 C77.0633284,158.689997 76.503334,157.740006 76.37,156.54 L78.63,156.54 C78.8033342,157.113336 79.1733305,157.576665 79.74,157.93 C80.3066695,158.283335 81.0166624,158.46 81.87,158.46 C82.7233376,158.46 83.4333305,158.180003 84,157.62 C84.5666695,157.059997 84.85,156.246672 84.85,155.18 L84.85,152.94 C84.4766648,153.620003 83.9633366,154.163331 83.31,154.57 C82.6566634,154.976669 81.896671,155.18 81.03,155.18 C79.563326,155.18 78.330005,154.643339 77.33,153.57 Z M84.85,149.48 C84.85,148.346661 84.5200033,147.44667 83.86,146.78 C83.1999967,146.11333 82.4166712,145.78 81.51,145.78 C80.6033288,145.78 79.8200033,146.106663 79.16,146.76 C78.4999967,147.413337 78.17,148.306661 78.17,149.44 C78.17,150.573339 78.4999967,151.48333 79.16,152.17 C79.8200033,152.85667 80.6033288,153.2 81.51,153.2 C82.4166712,153.2 83.1999967,152.863337 83.86,152.19 C84.5200033,151.516663 84.85,150.613339 84.85,149.48 Z M94.79,155.18 C93.189992,155.18 91.890005,154.660005 90.89,153.62 C89.889995,152.579995 89.39,151.200009 89.39,149.48 C89.39,147.759991 89.8966616,146.383339 90.91,145.35 C91.9233384,144.316662 93.2333253,143.8 94.84,143.8 C96.4466747,143.8 97.749995,144.296662 98.75,145.29 C99.750005,146.283338 100.25,147.579992 100.25,149.18 C100.25,149.566669 100.223334,149.926665 100.17,150.26 L91.73,150.26 C91.7833336,151.180005 92.0933305,151.909997 92.66,152.45 C93.2266695,152.990003 93.9366624,153.26 94.79,153.26 C96.0300062,153.26 96.9033308,152.746672 97.41,151.72 L99.87,151.72 C99.536665,152.733338 98.9300044,153.56333 98.05,154.21 C97.1699956,154.85667 96.0833398,155.18 94.79,155.18 Z M96.97,146.53 C96.3833304,145.989997 95.6700042,145.72 94.83,145.72 C93.9899958,145.72 93.2866695,145.989997 92.72,146.53 C92.1533305,147.070003 91.8300004,147.793329 91.75,148.7 L97.87,148.7 C97.8566666,147.793329 97.5566696,147.070003 96.97,146.53 Z" id="Consideration-Stage" fill="#F5A623"></path>
                    <circle id="Oval-11" stroke="#F5A623" stroke-width="5" fill="#FFFFFF" cx="71" cy="49" r="49"></circle>
                    <path d="M69.5742188,48.7226562 C69.5742188,53.7096604 68.7571696,57.4010297 67.1230469,59.796875 C65.4889241,62.1927203 62.9726732,63.390625 59.5742188,63.390625 C56.2799314,63.390625 53.7962323,62.1536582 52.1230469,59.6796875 C50.4498614,57.2057168 49.6132812,53.5534096 49.6132812,48.7226562 C49.6132812,43.6835686 50.4270752,39.969413 52.0546875,37.5800781 C53.6822998,35.1907433 56.1887852,33.9960938 59.5742188,33.9960938 C62.8685061,33.9960938 65.3587155,35.2460813 67.0449219,37.7460938 C68.7311282,40.2461062 69.5742188,43.9049238 69.5742188,48.7226562 Z M55.609375,48.7226562 C55.609375,52.2252779 55.9121063,54.7350185 56.5175781,56.2519531 C57.1230499,57.7688878 58.1419199,58.5273438 59.5742188,58.5273438 C60.9804758,58.5273438 61.9960906,57.7591223 62.6210938,56.2226562 C63.2460969,54.6861902 63.5585938,52.1862152 63.5585938,48.7226562 C63.5585938,45.2200346 63.2428417,42.7037837 62.6113281,41.1738281 C61.9798146,39.6438726 60.9674549,38.8789062 59.5742188,38.8789062 C58.1549408,38.8789062 57.139326,39.6438726 56.5273438,41.1738281 C55.9153615,42.7037837 55.609375,45.2200346 55.609375,48.7226562 Z M92.5625,63 L72.6015625,63 L72.6015625,58.8007812 L79.7695312,51.5546875 C81.8919377,49.3801975 83.2786426,47.8730511 83.9296875,47.0332031 C84.5807324,46.1933552 85.0494777,45.4153682 85.3359375,44.6992188 C85.6223973,43.9830693 85.765625,43.2408893 85.765625,42.4726562 C85.765625,41.3268172 85.4498729,40.4739611 84.8183594,39.9140625 C84.1868458,39.3541639 83.3437553,39.0742188 82.2890625,39.0742188 C81.1822861,39.0742188 80.1080781,39.3281225 79.0664062,39.8359375 C78.0247344,40.3437525 76.9375057,41.0664016 75.8046875,42.0039062 L72.5234375,38.1171875 C73.9296945,36.9192648 75.0950475,36.0729191 76.0195312,35.578125 C76.944015,35.0833309 77.9531195,34.7024753 79.046875,34.4355469 C80.1406305,34.1686185 81.3645766,34.0351562 82.71875,34.0351562 C84.5026131,34.0351562 86.0781182,34.3606738 87.4453125,35.0117188 C88.8125068,35.6627637 89.8736941,36.5742129 90.6289062,37.7460938 C91.3841184,38.9179746 91.7617188,40.259107 91.7617188,41.7695312 C91.7617188,43.084642 91.5306013,44.3183536 91.0683594,45.4707031 C90.6061175,46.6230526 89.8899788,47.8046814 88.9199219,49.015625 C87.9498649,50.2265686 86.2408977,51.9518117 83.7929688,54.1914062 L80.1210938,57.6484375 L80.1210938,57.921875 L92.5625,57.921875 L92.5625,63 Z" id="02" fill="#F5A623"></path>
                </g>
                <g id="Group-6" transform="translate(574.000000, 6.000000)">
                    <path d="M9.53,125.26 L11.79,125.26 C13.4033414,125.26 14.6466623,124.800005 15.52,123.88 C16.3933377,122.959995 16.83,121.696675 16.83,120.09 C16.83,118.483325 16.3933377,117.223338 15.52,116.31 C14.6466623,115.396662 13.4033414,114.94 11.79,114.94 L9.53,114.94 L9.53,125.26 Z M11.79,113.1 C14.0300112,113.1 15.8199933,113.729994 17.16,114.99 C18.5000067,116.250006 19.17,117.949989 19.17,120.09 C19.17,122.230011 18.5000067,123.916661 17.16,125.15 C15.8199933,126.38334 14.0300112,127 11.79,127 L7.25,127 L7.25,113.1 L11.79,113.1 Z M26.07,127.18 C24.469992,127.18 23.170005,126.660005 22.17,125.62 C21.169995,124.579995 20.67,123.200009 20.67,121.48 C20.67,119.759991 21.1766616,118.383339 22.19,117.35 C23.2033384,116.316662 24.5133253,115.8 26.12,115.8 C27.7266747,115.8 29.029995,116.296662 30.03,117.29 C31.030005,118.283338 31.53,119.579992 31.53,121.18 C31.53,121.566669 31.5033336,121.926665 31.45,122.26 L23.01,122.26 C23.0633336,123.180005 23.3733305,123.909997 23.94,124.45 C24.5066695,124.990003 25.2166624,125.26 26.07,125.26 C27.3100062,125.26 28.1833308,124.746672 28.69,123.72 L31.15,123.72 C30.816665,124.733338 30.2100044,125.56333 29.33,126.21 C28.4499956,126.85667 27.3633398,127.18 26.07,127.18 Z M28.25,118.53 C27.6633304,117.989997 26.9500042,117.72 26.11,117.72 C25.2699958,117.72 24.5666695,117.989997 24,118.53 C23.4333305,119.070003 23.1100004,119.793329 23.03,120.7 L29.15,120.7 C29.1366666,119.793329 28.8366696,119.070003 28.25,118.53 Z M34.51,125.62 C33.509995,124.579995 33.01,123.203342 33.01,121.49 C33.01,119.776658 33.5133283,118.400005 34.52,117.36 C35.5266717,116.319995 36.8233254,115.8 38.41,115.8 C39.74334,115.8 40.8466623,116.116664 41.72,116.75 C42.5933377,117.383336 43.1833318,118.286661 43.49,119.46 L41.03,119.46 C40.6166646,118.299994 39.74334,117.72 38.41,117.72 C37.476662,117.72 36.7333361,118.049997 36.18,118.71 C35.6266639,119.370003 35.35,120.293327 35.35,121.48 C35.35,122.666673 35.6266639,123.59333 36.18,124.26 C36.7333361,124.92667 37.476662,125.26 38.41,125.26 C39.7300066,125.26 40.6033312,124.680006 41.03,123.52 L43.49,123.52 C43.1699984,124.640006 42.5700044,125.529997 41.69,126.19 C40.8099956,126.850003 39.7166732,127.18 38.41,127.18 C36.809992,127.18 35.510005,126.660005 34.51,125.62 Z M47.95,114.1 C47.6699986,114.380001 47.3266687,114.52 46.92,114.52 C46.5133313,114.52 46.1700014,114.380001 45.89,114.1 C45.6099986,113.819999 45.47,113.473335 45.47,113.06 C45.47,112.646665 45.6099986,112.300001 45.89,112.02 C46.1700014,111.739999 46.5133313,111.6 46.92,111.6 C47.3266687,111.6 47.6699986,111.739999 47.95,112.02 C48.2300014,112.300001 48.37,112.646665 48.37,113.06 C48.37,113.473335 48.2300014,113.819999 47.95,114.1 Z M45.77,127 L45.77,115.98 L48.05,115.98 L48.05,127 L45.77,127 Z M50.55,119.14 C50.55,118.206662 50.9433294,117.41667 51.73,116.77 C52.5166706,116.12333 53.5499936,115.8 54.83,115.8 C56.1100064,115.8 57.1266629,116.116664 57.88,116.75 C58.6333371,117.383336 59.0366664,118.246661 59.09,119.34 L56.75,119.34 C56.7099998,118.793331 56.5200017,118.366668 56.18,118.06 C55.8399983,117.753332 55.3633364,117.6 54.75,117.6 C54.1366636,117.6 53.6566684,117.736665 53.31,118.01 C52.9633316,118.283335 52.79,118.643331 52.79,119.09 C52.79,119.536669 53.0099978,119.886665 53.45,120.14 C53.8900022,120.393335 54.4266635,120.579999 55.06,120.7 C55.6933365,120.820001 56.3266635,120.966666 56.96,121.14 C57.5933365,121.313334 58.1299978,121.629998 58.57,122.09 C59.0100022,122.550002 59.23,123.166663 59.23,123.94 C59.23,124.900005 58.8266707,125.679997 58.02,126.28 C57.2133293,126.880003 56.176673,127.18 54.91,127.18 C53.643327,127.18 52.6166706,126.873336 51.83,126.26 C51.0433294,125.646664 50.6100004,124.773339 50.53,123.64 L52.89,123.64 C52.9300002,124.186669 53.1299982,124.613332 53.49,124.92 C53.8500018,125.226668 54.3399969,125.38 54.96,125.38 C55.5800031,125.38 56.0733315,125.243335 56.44,124.97 C56.8066685,124.696665 56.99,124.333336 56.99,123.88 C56.99,123.426664 56.7700022,123.073335 56.33,122.82 C55.8899978,122.566665 55.3533365,122.376667 54.72,122.25 C54.0866635,122.123333 53.4533365,121.976668 52.82,121.81 C52.1866635,121.643332 51.6500022,121.340002 51.21,120.9 C50.7699978,120.459998 50.55,119.873337 50.55,119.14 Z M63.91,114.1 C63.6299986,114.380001 63.2866687,114.52 62.88,114.52 C62.4733313,114.52 62.1300014,114.380001 61.85,114.1 C61.5699986,113.819999 61.43,113.473335 61.43,113.06 C61.43,112.646665 61.5699986,112.300001 61.85,112.02 C62.1300014,111.739999 62.4733313,111.6 62.88,111.6 C63.2866687,111.6 63.6299986,111.739999 63.91,112.02 C64.1900014,112.300001 64.33,112.646665 64.33,113.06 C64.33,113.473335 64.1900014,113.819999 63.91,114.1 Z M61.73,127 L61.73,115.98 L64.01,115.98 L64.01,127 L61.73,127 Z M75.17,121.48 C75.17,120.293327 74.8466699,119.370003 74.2,118.71 C73.5533301,118.049997 72.7700046,117.72 71.85,117.72 C70.9299954,117.72 70.1566698,118.049997 69.53,118.71 C68.9033302,119.370003 68.59,120.296661 68.59,121.49 C68.59,122.683339 68.8966636,123.609997 69.51,124.27 C70.1233364,124.930003 70.8866621,125.26 71.8,125.26 C72.7133379,125.26 73.50333,124.92667 74.17,124.26 C74.83667,123.59333 75.17,122.666673 75.17,121.48 Z M67.83,125.61 C66.7899948,124.563328 66.27,123.190009 66.27,121.49 C66.27,119.789991 66.8066613,118.416672 67.88,117.37 C68.9533387,116.323328 70.289992,115.8 71.89,115.8 C73.490008,115.8 74.8266613,116.323328 75.9,117.37 C76.9733387,118.416672 77.51,119.786658 77.51,121.48 C77.51,123.173342 76.9600055,124.546661 75.86,125.6 C74.7599945,126.653339 73.4066747,127.18 71.8,127.18 C70.1933253,127.18 68.8700052,126.656672 67.83,125.61 Z M82.05,115.98 L82.05,117.72 C82.783337,116.439994 83.9566586,115.8 85.57,115.8 C86.8100062,115.8 87.8333293,116.213329 88.64,117.04 C89.4466707,117.866671 89.85,119.019993 89.85,120.5 L89.85,127 L87.59,127 L87.59,120.84 C87.59,119.853328 87.3433358,119.096669 86.85,118.57 C86.3566642,118.043331 85.6833376,117.78 84.83,117.78 C83.9766624,117.78 83.3000025,118.043331 82.8,118.57 C82.2999975,119.096669 82.05,119.853328 82.05,120.84 L82.05,127 L79.77,127 L79.77,115.98 L82.05,115.98 Z M23.17,140.3 C22.7433312,140.646668 22.53,141.149997 22.53,141.81 C22.53,142.470003 22.7833308,142.973332 23.29,143.32 C23.7966692,143.666668 24.4099964,143.919999 25.13,144.08 C25.8500036,144.240001 26.5699964,144.423332 27.29,144.63 C28.0100036,144.836668 28.6233308,145.219997 29.13,145.78 C29.6366692,146.340003 29.89,147.133328 29.89,148.16 C29.89,149.186672 29.456671,150.106663 28.59,150.92 C27.723329,151.733337 26.5633406,152.14 25.11,152.14 C23.6566594,152.14 22.4766712,151.800003 21.57,151.12 C20.6633288,150.439997 20.21,149.500006 20.21,148.3 L22.65,148.3 C22.7033336,148.913336 22.929998,149.399998 23.33,149.76 C23.730002,150.120002 24.3166628,150.3 25.09,150.3 C25.8633372,150.3 26.4733311,150.100002 26.92,149.7 C27.3666689,149.299998 27.59,148.826669 27.59,148.28 C27.59,147.733331 27.4533347,147.306668 27.18,147 C26.9066653,146.693332 26.5533355,146.463334 26.12,146.31 C25.6866645,146.156666 25.2100026,146.020001 24.69,145.9 C24.1699974,145.779999 23.6466693,145.640001 23.12,145.48 C22.5933307,145.319999 22.1133355,145.113335 21.68,144.86 C21.2466645,144.606665 20.8933347,144.236669 20.62,143.75 C20.3466653,143.263331 20.21,142.66667 20.21,141.96 C20.21,140.746661 20.6466623,139.770004 21.52,139.03 C22.3933377,138.289996 23.5266597,137.92 24.92,137.92 C26.3133403,137.92 27.4266625,138.239997 28.26,138.88 C29.0933375,139.520003 29.5566662,140.446661 29.65,141.66 L27.13,141.66 C27.0766664,141.126664 26.850002,140.680002 26.45,140.32 C26.049998,139.959998 25.5100034,139.78 24.83,139.78 C24.1499966,139.78 23.5966688,139.953332 23.17,140.3 Z M37.93,142.84 L35.25,142.84 L35.25,148.94 C35.25,149.353335 35.3466657,149.649999 35.54,149.83 C35.7333343,150.010001 36.063331,150.1 36.53,150.1 L37.93,150.1 L37.93,152 L36.13,152 C34.0099894,152 32.95,150.98001 32.95,148.94 L32.95,142.84 L31.65,142.84 L31.65,140.98 L32.95,140.98 L32.95,138.24 L35.25,138.24 L35.25,140.98 L37.93,140.98 L37.93,142.84 Z M48.29,146.48 C48.29,145.346661 47.9600033,144.44667 47.3,143.78 C46.6399967,143.11333 45.8566712,142.78 44.95,142.78 C44.0433288,142.78 43.2600033,143.106663 42.6,143.76 C41.9399967,144.413337 41.61,145.306661 41.61,146.44 C41.61,147.573339 41.9399967,148.48333 42.6,149.17 C43.2600033,149.85667 44.0433288,150.2 44.95,150.2 C45.8566712,150.2 46.6399967,149.863337 47.3,149.19 C47.9600033,148.516663 48.29,147.613339 48.29,146.48 Z M40.77,150.57 C39.769995,149.496661 39.27,148.123342 39.27,146.45 C39.27,144.776658 39.7666617,143.416672 40.76,142.37 C41.7533383,141.323328 42.9899926,140.8 44.47,140.8 C45.336671,140.8 46.0999967,140.996665 46.76,141.39 C47.4200033,141.783335 47.9299982,142.299997 48.29,142.94 L48.29,140.98 L50.59,140.98 L50.59,152 L48.29,152 L48.29,149.94 C47.9166648,150.620003 47.4033366,151.163331 46.75,151.57 C46.0966634,151.976669 45.336671,152.18 44.47,152.18 C43.003326,152.18 41.770005,151.643339 40.77,150.57 Z M54.33,150.57 C53.329995,149.496661 52.83,148.123342 52.83,146.45 C52.83,144.776658 53.3266617,143.416672 54.32,142.37 C55.3133383,141.323328 56.5499926,140.8 58.03,140.8 C58.896671,140.8 59.6599967,140.996665 60.32,141.39 C60.9800033,141.783335 61.4899982,142.299997 61.85,142.94 L61.85,140.98 L64.15,140.98 L64.15,152.18 C64.15,153.726674 63.6733381,154.989995 62.72,155.97 C61.7666619,156.950005 60.4966746,157.44 58.91,157.44 C57.3233254,157.44 56.0366716,157.090003 55.05,156.39 C54.0633284,155.689997 53.503334,154.740006 53.37,153.54 L55.63,153.54 C55.8033342,154.113336 56.1733305,154.576665 56.74,154.93 C57.3066695,155.283335 58.0166624,155.46 58.87,155.46 C59.7233376,155.46 60.4333305,155.180003 61,154.62 C61.5666695,154.059997 61.85,153.246672 61.85,152.18 L61.85,149.94 C61.4766648,150.620003 60.9633366,151.163331 60.31,151.57 C59.6566634,151.976669 58.896671,152.18 58.03,152.18 C56.563326,152.18 55.330005,151.643339 54.33,150.57 Z M61.85,146.48 C61.85,145.346661 61.5200033,144.44667 60.86,143.78 C60.1999967,143.11333 59.4166712,142.78 58.51,142.78 C57.6033288,142.78 56.8200033,143.106663 56.16,143.76 C55.4999967,144.413337 55.17,145.306661 55.17,146.44 C55.17,147.573339 55.4999967,148.48333 56.16,149.17 C56.8200033,149.85667 57.6033288,150.2 58.51,150.2 C59.4166712,150.2 60.1999967,149.863337 60.86,149.19 C61.5200033,148.516663 61.85,147.613339 61.85,146.48 Z M71.79,152.18 C70.189992,152.18 68.890005,151.660005 67.89,150.62 C66.889995,149.579995 66.39,148.200009 66.39,146.48 C66.39,144.759991 66.8966616,143.383339 67.91,142.35 C68.9233384,141.316662 70.2333253,140.8 71.84,140.8 C73.4466747,140.8 74.749995,141.296662 75.75,142.29 C76.750005,143.283338 77.25,144.579992 77.25,146.18 C77.25,146.566669 77.2233336,146.926665 77.17,147.26 L68.73,147.26 C68.7833336,148.180005 69.0933305,148.909997 69.66,149.45 C70.2266695,149.990003 70.9366624,150.26 71.79,150.26 C73.0300062,150.26 73.9033308,149.746672 74.41,148.72 L76.87,148.72 C76.536665,149.733338 75.9300044,150.56333 75.05,151.21 C74.1699956,151.85667 73.0833398,152.18 71.79,152.18 Z M73.97,143.53 C73.3833304,142.989997 72.6700042,142.72 71.83,142.72 C70.9899958,142.72 70.2866695,142.989997 69.72,143.53 C69.1533305,144.070003 68.8300004,144.793329 68.75,145.7 L74.87,145.7 C74.8566666,144.793329 74.5566696,144.070003 73.97,143.53 Z" id="Decision-Stage" fill="#4A90E2"></path>
                    <circle id="Oval-11" stroke="#4A90E2" stroke-width="5" fill="#FFFFFF" cx="49" cy="49" r="49"></circle>
                    <path d="M46.5742188,45.7226562 C46.5742188,50.7096604 45.7571696,54.4010297 44.1230469,56.796875 C42.4889241,59.1927203 39.9726732,60.390625 36.5742188,60.390625 C33.2799314,60.390625 30.7962323,59.1536582 29.1230469,56.6796875 C27.4498614,54.2057168 26.6132812,50.5534096 26.6132812,45.7226562 C26.6132812,40.6835686 27.4270752,36.969413 29.0546875,34.5800781 C30.6822998,32.1907433 33.1887852,30.9960938 36.5742188,30.9960938 C39.8685061,30.9960938 42.3587155,32.2460813 44.0449219,34.7460938 C45.7311282,37.2461062 46.5742188,40.9049238 46.5742188,45.7226562 Z M32.609375,45.7226562 C32.609375,49.2252779 32.9121063,51.7350185 33.5175781,53.2519531 C34.1230499,54.7688878 35.1419199,55.5273438 36.5742188,55.5273438 C37.9804758,55.5273438 38.9960906,54.7591223 39.6210938,53.2226562 C40.2460969,51.6861902 40.5585938,49.1862152 40.5585938,45.7226562 C40.5585938,42.2200346 40.2428417,39.7037837 39.6113281,38.1738281 C38.9798146,36.6438726 37.9674549,35.8789062 36.5742188,35.8789062 C35.1549408,35.8789062 34.139326,36.6438726 33.5273438,38.1738281 C32.9153615,39.7037837 32.609375,42.2200346 32.609375,45.7226562 Z M68.4492188,37.8320312 C68.4492188,39.6158943 67.9088596,41.1328063 66.828125,42.3828125 C65.7473904,43.6328187 64.2304785,44.4921852 62.2773438,44.9609375 L62.2773438,45.078125 C64.5820428,45.3645848 66.326817,46.0644476 67.5117188,47.1777344 C68.6966205,48.2910212 69.2890625,49.7916572 69.2890625,51.6796875 C69.2890625,54.4270971 68.2929787,56.5657476 66.3007812,58.0957031 C64.3085838,59.6256587 61.4635602,60.390625 57.765625,60.390625 C54.6666512,60.390625 51.9192828,59.8763072 49.5234375,58.8476562 L49.5234375,53.7109375 C50.6302139,54.2708361 51.8476496,54.7265607 53.1757812,55.078125 C54.5039129,55.4296893 55.8190039,55.6054688 57.1210938,55.6054688 C59.1132912,55.6054688 60.5846307,55.2669305 61.5351562,54.5898438 C62.4856818,53.912757 62.9609375,52.8255283 62.9609375,51.328125 C62.9609375,49.9869725 62.414068,49.0364611 61.3203125,48.4765625 C60.226557,47.9166639 58.4817828,47.6367188 56.0859375,47.6367188 L53.9179688,47.6367188 L53.9179688,43.0078125 L56.125,43.0078125 C58.3385527,43.0078125 59.9563751,42.7181019 60.9785156,42.1386719 C62.0006562,41.5592419 62.5117188,40.5664133 62.5117188,39.1601562 C62.5117188,36.9986871 61.1575656,35.9179688 58.4492188,35.9179688 C57.5117141,35.9179688 56.5579476,36.0742172 55.5878906,36.3867188 C54.6178337,36.6992203 53.5403705,37.2395795 52.3554688,38.0078125 L49.5625,33.8476562 C52.1666797,31.9726469 55.2721174,31.0351562 58.8789062,31.0351562 C61.8346502,31.0351562 64.1686112,31.6341086 65.8808594,32.8320312 C67.5931075,34.0299539 68.4492188,35.6966039 68.4492188,37.8320312 Z" id="03" fill="#4A90E2"></path>
                </g>
            </g>
        </g>
    </g>
</svg>