<?xml version="1.0" encoding="UTF-8" standalone="no"?>
<svg width="29px" height="50px" viewBox="0 0 29 50" version="1.1" xmlns="http://www.w3.org/2000/svg" xmlns:xlink="http://www.w3.org/1999/xlink">
    <!-- Generator: Sketch 46.2 (44496) - http://www.bohemiancoding.com/sketch -->
    <title>smartphone (12)</title>
    <desc>Created with Sketch.</desc>
    <defs></defs>
    <g id="Page-1" stroke="none" stroke-width="1" fill="none" fill-rule="evenodd">
        <g id="Desktop-HD" transform="translate(-382.000000, -3323.000000)" fill-rule="nonzero" fill="#38AFA5">
            <g id="Group-5" transform="translate(300.000000, 3158.000000)">
                <g id="smartphone-(12)" transform="translate(83.000000, 166.000000)">
                    <path d="M23.5019118,0 L3.49808824,0 C1.56997059,0 0,1.5816 0,3.524 L0,44.4752 C0,46.4184 1.56997059,48 3.49808824,48 L23.5011176,48 C25.4300294,48 27,46.4184 27,44.476 L27,3.524 C27,1.5816 25.4300294,0 23.5019118,0 Z M1.58823529,6.4 L25.4117647,6.4 L25.4117647,36.8 L1.58823529,36.8 L1.58823529,6.4 Z M3.49808824,1.6 L23.5011176,1.6 C24.5549118,1.6 25.4117647,2.4632 25.4117647,3.524 L25.4117647,4.8 L1.58823529,4.8 L1.58823529,3.524 C1.58823529,2.4632 2.44508824,1.6 3.49808824,1.6 Z M23.5019118,46.4 L3.49808824,46.4 C2.44508824,46.4 1.58823529,45.5368 1.58823529,44.476 L1.58823529,38.4 L25.4117647,38.4 L25.4117647,44.476 C25.4117647,45.5368 24.5549118,46.4 23.5019118,46.4 Z" id="Shape" stroke="#38AFA5" stroke-width="0.2"></path>
                    <path d="M23.5256312,10 L22.8974457,10 C22.4018663,10 22,10.3597517 22,10.8035714 C22,11.2473912 22.4018663,11.6071429 22.8974457,11.6071429 L23.5256312,11.6071429 C24.0212106,11.6071429 24.4230769,11.2473912 24.4230769,10.8035714 C24.4230769,10.3597517 24.0212106,10 23.5256312,10 Z" id="Shape"></path>
                    <path d="M18.2853763,10 L3.86846987,10 C3.38889125,10 3,10.3597517 3,10.8035714 C3,11.2473912 3.38889125,11.6071429 3.86846987,11.6071429 L18.2853763,11.6071429 C18.7649549,11.6071429 19.1538462,11.2473912 19.1538462,10.8035714 C19.1538462,10.3597517 18.7649549,10 18.2853763,10 Z" id="Shape"></path>
                    <path d="M16.6005111,25 L3.93795043,25 C3.42000388,25 3,25.3597517 3,25.8035714 C3,26.2473912 3.42000388,26.6071429 3.93795043,26.6071429 L16.6005111,26.6071429 C17.1184577,26.6071429 17.5384615,26.2473912 17.5384615,25.8035714 C17.5384615,25.3597517 17.1184577,25 16.6005111,25 Z" id="Shape"></path>
                    <path d="M11.8112045,15 L3.88110317,15 C3.39454831,15 3,15.3597517 3,15.8035714 C3,16.2473912 3.39454831,16.6071429 3.88110317,16.6071429 L11.8112045,16.6071429 C12.2977594,16.6071429 12.6923077,16.2473912 12.6923077,15.8035714 C12.6923077,15.3597517 12.2977594,15 11.8112045,15 Z" id="Shape"></path>
                    <path d="M11.8112045,20 L3.88110317,20 C3.39454831,20 3,20.3597517 3,20.8035714 C3,21.2473912 3.39454831,21.6071429 3.88110317,21.6071429 L11.8112045,21.6071429 C12.2977594,21.6071429 12.6923077,21.2473912 12.6923077,20.8035714 C12.6923077,20.3597517 12.2977594,20 11.8112045,20 Z" id="Shape"></path>
                    <path d="M13.5,39.2 C11.7481765,39.2 10.3235294,40.6352 10.3235294,42.4 C10.3235294,44.1648 11.7481765,45.6 13.5,45.6 C15.2518235,45.6 16.6764706,44.1648 16.6764706,42.4 C16.6764706,40.6352 15.2518235,39.2 13.5,39.2 Z M13.5,44 C12.6240882,44 11.9117647,43.2824 11.9117647,42.4 C11.9117647,41.5176 12.6240882,40.8 13.5,40.8 C14.3759118,40.8 15.0882353,41.5176 15.0882353,42.4 C15.0882353,43.2824 14.3759118,44 13.5,44 Z" id="Shape"></path>
                    <path d="M10.3235294,4 L13.5,4 C13.9391471,4 14.2941176,3.6424 14.2941176,3.2 C14.2941176,2.7576 13.9391471,2.4 13.5,2.4 L10.3235294,2.4 C9.88438235,2.4 9.52941176,2.7576 9.52941176,3.2 C9.52941176,3.6424 9.88438235,4 10.3235294,4 Z" id="Shape"></path>
                    <path d="M15.8823529,4 L16.6764706,4 C17.1156176,4 17.4705882,3.6424 17.4705882,3.2 C17.4705882,2.7576 17.1156176,2.4 16.6764706,2.4 L15.8823529,2.4 C15.4432059,2.4 15.0882353,2.7576 15.0882353,3.2 C15.0882353,3.6424 15.4432059,4 15.8823529,4 Z" id="Shape"></path>
                </g>
            </g>
        </g>
    </g>
</svg>