<?xml version="1.0" encoding="UTF-8" standalone="no"?>
<svg width="289px" height="223px" viewBox="0 0 289 223" version="1.1" xmlns="http://www.w3.org/2000/svg" xmlns:xlink="http://www.w3.org/1999/xlink">
    <!-- Generator: Sketch 46.2 (44496) - http://www.bohemiancoding.com/sketch -->
    <title>Artboard 3</title>
    <desc>Created with Sketch.</desc>
    <defs></defs>
    <g id="Page-1" stroke="none" stroke-width="1" fill="none" fill-rule="evenodd">
        <g id="Artboard-3">
            <g id="Group-2" transform="translate(26.000000, 0.000000)">
                <g id="cloud-computing-(11)" transform="translate(1.000000, 0.000000)" fill-rule="nonzero">
                    <g id="Group">
                        <g transform="translate(0.000000, 9.372210)" id="settings-(9)">
                            <g transform="translate(0.000000, 0.062452)">
                                <path d="M70.0858402,29.2702098 L66.1823357,29.2702098 C65.4119622,25.9598885 64.108468,22.8558524 62.3597761,20.0528814 L65.120281,17.2959064 C66.0902258,16.3272018 66.0902258,14.7549734 65.120281,13.7862688 L58.7660957,7.44020858 C57.7961509,6.47150401 56.2219095,6.47150401 55.2519647,7.44020858 L52.4914598,10.1971836 C49.6862957,8.45212154 46.5782854,7.15029412 43.2637258,6.38090574 L43.2637258,2.48239256 C43.2637258,1.11087415 42.1514294,0 40.778155,0 L31.7918605,0 C30.4199817,0 29.3076852,1.11087415 29.3076852,2.48239256 L29.3076852,6.38090574 C25.9931256,7.15029412 22.8851153,8.45212154 20.0785556,10.1985774 L17.3194464,7.4416024 C16.3495015,6.47289783 14.7752602,6.47289783 13.8053153,7.4416024 L7.45113007,13.7876627 C6.48118525,14.7563672 6.48118525,16.3285956 7.45113007,17.2973002 L10.2116349,20.0542752 C8.46294301,22.8558524 7.15944882,25.9598885 6.38907538,29.2702098 L2.48557083,29.2702098 C1.11229643,29.2702098 0,30.381084 0,31.7526024 L0,40.7274063 C0,42.0975308 1.11229643,43.208405 2.48557083,43.208405 L6.38907538,43.208405 C7.15944882,46.5187263 8.46294301,49.6227624 10.2116349,52.4257335 L7.45113007,55.1813146 C6.48118525,56.151413 6.48118525,57.7222476 7.45113007,58.6909522 L13.8053153,65.0370124 C14.7752602,66.005717 16.3495015,66.005717 17.3194464,65.0370124 L20.0799512,62.2800374 C22.886511,64.0250995 25.9945212,65.3283207 29.3090808,66.0977091 L29.3090808,69.9962223 C29.3076852,71.3677407 30.4199817,72.4786148 31.7932561,72.4786148 L40.7795506,72.4786148 C42.1514294,72.4786148 43.2637258,71.3677407 43.2637258,69.9962223 L43.2637258,66.0977091 C46.5782854,65.3283207 49.6862957,64.0264933 52.4928554,62.2800374 L55.2533603,65.0370124 C56.2233051,66.005717 57.7975465,66.005717 58.7674913,65.0370124 L65.1216766,58.6909522 C66.0916214,57.7222476 66.0916214,56.1500192 65.1216766,55.1813146 L62.3611717,52.4243396 C64.108468,49.6227624 65.4119622,46.5173325 66.1837313,43.2070112 L70.0872358,43.2070112 C71.4591146,43.208405 72.571411,42.0975308 72.571411,40.7260124 L72.571411,31.7512086 C72.571411,30.381084 71.4591146,29.2702098 70.0858402,29.2702098 Z M36.2857055,48.7836831 C29.3481577,48.7836831 23.725269,43.1665904 23.725269,36.2393074 C23.725269,29.3106306 29.3481577,23.6949318 36.2857055,23.6949318 C43.2232533,23.6949318 48.846142,29.3106306 48.846142,36.2393074 C48.846142,43.1665904 43.2232533,48.7836831 36.2857055,48.7836831 Z" id="Shape" fill="#31475B" opacity="0.25"></path>
                                <path d="M36.2857055,18.1196537 C26.2652684,18.1196537 18.1428528,26.2316833 18.1428528,36.2393074 C18.1428528,46.2469315 26.2652684,54.3589611 36.2857055,54.3589611 C46.3061427,54.3589611 54.4285583,46.2469315 54.4285583,36.2393074 C54.4285583,26.2316833 46.3061427,18.1196537 36.2857055,18.1196537 Z M36.2857055,48.7836831 C29.3481577,48.7836831 23.725269,43.1665904 23.725269,36.2393074 C23.725269,29.3106306 29.3481577,23.6949318 36.2857055,23.6949318 C43.2232533,23.6949318 48.846142,29.3106306 48.846142,36.2393074 C48.846142,43.1665904 43.2232533,48.7836831 36.2857055,48.7836831 Z" id="Shape" fill="#E5E5E5"></path>
                            </g>
                        </g>
                        <g transform="translate(104.629512, 0.729216)" id="Shape" fill="#91BAE1">
                            <path d="M8.83112763,0.92038307 C8.83112763,0.92038307 4.37960851,0.264277763 0.045742948,0.92038307"></path>
                        </g>
                    </g>
                </g>
                <g id="gauge" transform="translate(165.000000, 21.000000)" fill-rule="nonzero">
                    <path d="M35.3504151,0 C54.8535378,0 70.6649506,15.836337 70.6649506,35.3727231 C70.6649506,52.799474 58.0835851,67.2822598 41.5218822,70.2044505 C39.5175738,70.5585052 37.4568831,70.7433218 35.3505918,70.7433218 C33.2464215,70.7433218 31.1836099,70.5586823 29.1814225,70.2044505 C12.6174219,67.2822598 0.0339353804,52.799474 0.0339353804,35.3727231 C0.0337586337,15.836337 15.8449947,0 35.3504151,0 Z" id="Shape" fill="#F05244"></path>
                    <path d="M35.3504151,67.9910774 C33.4388987,67.9910774 31.5243777,67.8237865 29.6602295,67.4941615 C22.2158321,66.1807955 15.4086069,62.2580461 10.4925722,56.4488931 C5.51997847,50.5726467 2.78128722,43.0875757 2.78128722,35.372546 C2.78128722,17.3855035 17.3917057,2.7518904 35.3502384,2.7518904 C53.3077105,2.7518904 67.9168918,17.3855035 67.9168918,35.372546 C67.9168918,43.0875757 65.1787308,50.5728238 60.2070208,56.4488931 C55.2918698,62.2582231 48.4860585,66.1807955 41.0428984,67.4941615 C39.1764525,67.8239635 37.2612245,67.9910774 35.3504151,67.9910774 Z" id="Shape" fill="#F9A53D"></path>
                    <path d="M14.4184715,14.4059559 C25.9591521,2.84695409 44.7397339,2.84695409 56.2820052,14.4075492 C67.8242765,25.9681443 67.8226857,44.7769478 56.2820052,56.3359497 C44.7397339,67.8965447 25.9607428,67.898138 14.4184715,56.3375429 C2.87620024,44.7769478 2.87620024,25.966551 14.4184715,14.4059559 Z" id="Shape" fill="#F0F0F0"></path>
                    <path d="M56.2818284,14.4073722 C67.8240997,25.9679672 67.822509,44.7767708 56.2818284,56.3357726 C44.7395572,67.8963677 25.960566,67.897961 14.4182948,56.3373659" id="Shape" fill="#FFFFFF"></path>
                    <path d="M38.3568777,35.3727231 C38.3568777,33.7084888 37.0120115,32.3593633 35.3504151,32.3593633 C33.6888187,32.3593633 32.3418315,33.7084888 32.3418315,35.3727231 C32.3418315,37.0369573 33.6888187,38.3860829 35.3504151,38.3860829 C37.0120115,38.3860829 38.3568777,37.0369573 38.3568777,35.3727231 Z" id="Shape" fill="#FFFFFF"></path>
                    <g id="Group" transform="translate(10.604806, 10.444615)" fill="#666666">
                        <path d="M25.7208974,21.062893 L25.7208974,11.8799525 L23.7685526,11.8799525 L23.7685526,21.06307 C22.0429738,21.5010357 20.7604992,23.0650725 20.7604992,24.9277544 C20.7604992,27.1283816 22.5481161,28.9188364 24.7452552,28.9188364 C26.9413339,28.9188364 28.7278903,27.1283816 28.7278903,24.9277544 C28.7282437,23.0650725 27.4461227,21.5006817 25.7208974,21.062893 Z M24.7456087,26.9637462 C23.6248574,26.9637462 22.7130208,26.050639 22.7130208,24.9279315 C22.7130208,23.8062861 23.6236202,22.893533 24.743311,22.8924708 L24.7473762,22.8924708 C25.8660065,22.893533 26.7757221,23.8062861 26.7757221,24.9279315 C26.7760756,26.050639 25.8651228,26.9637462 24.7456087,26.9637462 Z" id="Shape"></path>
                        <rect id="Rectangle-path" x="23.7683758" y="0.0775379862" width="1.95234486" height="5.91607753"></rect>
                        <rect id="Rectangle-path" transform="translate(17.269256, 4.353686) rotate(-109.998771) translate(-17.269256, -4.353686) " x="14.3159054" y="3.3759638" width="5.90670068" height="1.95544437"></rect>
                        <rect id="Rectangle-path" transform="translate(10.695981, 8.157689) rotate(-130.002181) translate(-10.695981, -8.157689) " x="7.74279608" y="7.18008065" width="5.90636962" height="1.95521626"></rect>
                        <rect id="Rectangle-path" transform="translate(5.815762, 13.980154) rotate(-149.999272) translate(-5.815762, -13.980154) " x="2.86256486" y="13.0025418" width="5.90639372" height="1.95522424"></rect>
                        <rect id="Rectangle-path" transform="translate(3.217223, 21.126749) rotate(-169.996999) translate(-3.217223, -21.126749) " x="0.263868632" y="20.1490256" width="5.90670847" height="1.95544695"></rect>
                        <rect id="Rectangle-path" transform="translate(46.268389, 28.732518) rotate(-169.996999) translate(-46.268389, -28.732518) " x="43.3150349" y="27.7547942" width="5.90670847" height="1.95544695"></rect>
                        <rect id="Rectangle-path" transform="translate(3.219195, 28.730437) rotate(-99.997359) translate(-3.219195, -28.730437) " x="2.24312659" y="25.7724454" width="1.95213687" height="5.91598287"></rect>
                        <rect id="Rectangle-path" transform="translate(46.271979, 21.126221) rotate(-99.997359) translate(-46.271979, -21.126221) " x="45.2959103" y="18.1682296" width="1.95213687" height="5.91598287"></rect>
                        <rect id="Rectangle-path" transform="translate(43.677440, 13.981098) rotate(-120.000728) translate(-43.677440, -13.981098) " x="42.7013769" y="11.023213" width="1.95212516" height="5.91577035"></rect>
                        <rect id="Rectangle-path" transform="translate(38.793152, 8.158282) rotate(-139.997819) translate(-38.793152, -8.158282) " x="37.817093" y="5.2004085" width="1.9521172" height="5.91574622"></rect>
                        <rect id="Rectangle-path" transform="translate(32.221982, 4.354157) rotate(-160.001229) translate(-32.221982, -4.354157) " x="31.2458093" y="1.39611851" width="1.95234494" height="5.9160778"></rect>
                    </g>
                </g>
                <g id="Group" transform="translate(0.000000, 78.000000)">
                    <g id="analytics-(9)" fill-rule="nonzero">
                        <path d="M77.2268347,126.103187 L77.2268347,133.499704 L136.066268,133.499704 L136.066268,126.103187 L198.583765,126.103187 L198.583765,7.75765019 C198.583765,3.67123663 195.292296,0.361132714 191.228888,0.361132714 L22.065048,0.361132714 C18.0016398,0.361132714 14.7101708,3.67123663 14.7101708,7.75765019 L14.7101708,126.103187 L77.2268347,126.103187 Z" id="Shape" fill="#31475B"></path>
                        <path d="M136.066685,126.103187 L136.066685,133.499704 L77.2268347,133.499704 L77.2268347,126.103187 L0,126.103187 L0,137.198172 C0,141.284586 3.29146894,144.59469 7.35487713,144.59469 L205.938643,144.59469 C210.002051,144.59469 213.29352,141.284586 213.29352,137.198172 L213.29352,126.103187 L136.066685,126.103187 Z" id="Shape" fill="#DDDDDD"></path>
                        <polygon id="Shape" fill="#F9F8F8" points="22.065048 118.706669 191.228472 118.706669 191.228472 7.75765019 22.065048 7.75765019"></polygon>
                    </g>
                    <polygon id="Path-4" stroke="#31475B" stroke-width="1.6245" fill="#F9A53D" points="21.306103 91.4872098 48.0289463 79.7678756 77.1494947 85.7953287 107.536464 57.4406124 133.698863 74.6316971 167.86371 57.4406124 191.995499 80.2454722 191.995499 119.528158 21.306103 120.11119"></polygon>
                    <ellipse id="Oval-8" stroke="#F05244" stroke-width="1.6245" fill="#F7F7F7" cx="48.6609687" cy="79.5217596" rx="3.64957265" ry="3.67023506"></ellipse>
                    <ellipse id="Oval-8" stroke="#F05244" stroke-width="1.6245" fill="#F7F7F7" cx="76.6410256" cy="85.6388181" rx="3.64957265" ry="3.67023506"></ellipse>
                    <ellipse id="Oval-8" stroke="#F05244" stroke-width="1.6245" fill="#F7F7F7" cx="107.054131" cy="57.5003493" rx="3.64957265" ry="3.67023506"></ellipse>
                    <ellipse id="Oval-8" stroke="#F05244" stroke-width="1.6245" fill="#F7F7F7" cx="133.817664" cy="73.4047012" rx="3.64957265" ry="3.67023506"></ellipse>
                    <ellipse id="Oval-8" stroke="#F05244" stroke-width="1.6245" fill="#F7F7F7" cx="167.880342" cy="57.5003493" rx="3.64957265" ry="3.67023506"></ellipse>
                </g>
                <g id="light-bulb-(2)" transform="translate(53.000000, 46.000000)" fill-rule="nonzero">
                    <path d="M12.4081504,48.6199276 C12.4081504,52.4560034 15.5684395,55.5656316 19.4666791,55.5656316 C23.3649187,55.5656316 26.5252078,52.4560034 26.5252078,48.6199276 L26.5252078,48.2543643 L12.4081504,48.2543643 L12.4081504,48.6199276 Z" id="XMLID_1088_" fill="#ACABB1"></path>
                    <polygon id="XMLID_1089_" fill="#565659" points="19.4666791 43.8676039 17.23767 43.8676039 12.4081504 43.8676039 12.4081504 48.2543643 26.5252078 48.2543643 26.5252078 43.8676039 21.6956882 43.8676039"></polygon>
                    <path d="M17.23767,29.6697077 C13.8113859,28.7122241 11.2936459,25.6080062 11.2936459,21.9338019 L15.751664,21.9338019 C15.751664,23.9495183 17.4182198,25.5894356 19.4666791,25.5894356 C19.4666791,16.3542814 19.4666791,5.88498529 19.4666791,0 C8.74633434,0 0.0557252264,8.5515507 0.0557252264,19.1006859 C0.0557252264,26.1790162 3.96852772,32.3577682 9.78178334,35.6576356 L12.4081504,43.8676039 L17.23767,43.8676039 L17.23767,29.6697077 Z" id="XMLID_1090_" fill="#FFE98F"></path>
                    <path d="M19.4666791,0 C19.4666791,5.88498529 19.4666791,16.3542814 19.4666791,25.5894356 C21.5151384,25.5894356 23.1816942,23.9495183 23.1816942,21.9338019 L27.6397123,21.9338019 C27.6397123,25.6080062 25.1219723,28.7122241 21.6956882,29.6697077 L21.6956882,43.8676039 L26.5252078,43.8676039 L29.1515748,35.6576356 C34.9648305,32.3579144 38.877633,26.1791624 38.877633,19.1006859 C38.877633,8.5515507 30.1870239,0 19.4666791,0 Z" id="XMLID_1091_" fill="#FFDA44"></path>
                    <path d="M15.751664,21.9338019 L11.2936459,21.9338019 C11.2936459,25.6080062 13.8113859,28.7122241 17.23767,29.6697077 L17.23767,43.8676039 L21.6956882,43.8676039 L21.6956882,29.6697077 C25.1219723,28.7122241 27.6397123,25.6080062 27.6397123,21.9338019 L23.1816942,21.9338019 C23.1816942,23.9495183 21.5151384,25.5894356 19.4666791,25.5894356 C17.4182198,25.5894356 15.751664,23.9495183 15.751664,21.9338019 Z" id="XMLID_1092_" fill="#FF9811"></path>
                </g>
            </g>
        </g>
    </g>
</svg>