<?xml version="1.0" encoding="UTF-8" standalone="no"?>
<svg width="82px" height="73px" viewBox="0 0 82 73" version="1.1" xmlns="http://www.w3.org/2000/svg" xmlns:xlink="http://www.w3.org/1999/xlink">
    <!-- Generator: Sketch 46.1 (44463) - http://www.bohemiancoding.com/sketch -->
    <title>Group 16</title>
    <desc>Created with Sketch.</desc>
    <defs></defs>
    <g id="Page-1" stroke="none" stroke-width="1" fill="none" fill-rule="evenodd">
        <g id="Desktop-HD" transform="translate(-238.000000, -7842.000000)">
            <g id="Group-4" transform="translate(240.000000, 7842.000000)">
                <g id="Group-30">
                    <g id="Group-16">
                        <circle id="Oval-2" fill="#FFEFF0" transform="translate(59.832819, 47.461686) rotate(-360.000000) translate(-59.832819, -47.461686) " cx="59.8328189" cy="47.4616865" r="15.7606596"></circle>
                        <g id="chat-(3)" transform="translate(3.092783, 0.000000)" fill-rule="nonzero" fill="#FFEFF0">
                            <path d="M55.6982159,20.15699 L55.6982159,46.9187169 C55.6982159,50.3644111 52.904444,53.158183 49.4587499,53.158183 L27.849108,53.2480596 L15.1904225,67.1726136 L15.1904225,53.2480596 L6.23946605,53.2480596 C2.79377188,53.2480596 0,50.4542877 0,47.0085936 L0,20.2468667 C0,16.8011725 2.79377188,14.0074006 6.23946605,14.0074006 L49.457484,13.917524 C52.904444,13.917524 55.6982159,16.7112959 55.6982159,20.15699 Z" id="Shape"></path>
                            <path d="M67.2422527,0.088610798 L24.0242348,0 C20.5772747,-5.62158561e-16 17.7835029,2.79377188 17.7835029,6.23946605 L17.7835029,13.9891133 L49.5200931,13.9232881 C52.9657873,13.9232881 55.7595592,16.71706 55.7595592,20.16402 L55.7595592,43.5079018 L64.620639,53.2550896 L64.620639,39.3305356 L67.2422527,39.3305356 C70.6879469,39.3305356 73.4817188,36.5367638 73.4817188,33.0910696 L73.4817188,6.32934272 C73.4817188,2.88238267 70.6879469,0.088610798 67.2422527,0.088610798 Z" id="Shape"></path>
                        </g>
                        <g id="chat-(3)" transform="translate(0.000000, 1.546392)" fill-rule="nonzero">
                            <path d="M55.6982159,20.7526489 L55.6982159,47.5143758 C55.6982159,50.96007 52.904444,53.7538418 49.4587499,53.7538418 L27.849108,53.8437185 L15.1904225,67.7682725 L15.1904225,53.8437185 L6.23946605,53.8437185 C2.79377188,53.8437185 0,51.0499466 0,47.6042524 L0,20.8425256 C0,17.3968314 2.79377188,14.6030595 6.23946605,14.6030595 L49.457484,14.5131829 C52.904444,14.5131829 55.6982159,17.3069547 55.6982159,20.7526489 Z" id="Shape" stroke="#859DBA" stroke-width="2.5"></path>
                            <path d="M27.849108,28.4377368 L11.3928169,28.4377368 C10.6927916,28.4377368 10.1269483,27.8706277 10.1269483,27.1718683 C10.1269483,26.4731088 10.6927916,25.9059997 11.3928169,25.9059997 L27.849108,25.9059997 C28.5491333,25.9059997 29.1149765,26.4731088 29.1149765,27.1718683 C29.1149765,27.8706277 28.5491333,28.4377368 27.849108,28.4377368 Z" id="Shape" fill="#8CA1BD"></path>
                            <path d="M44.305399,36.0329481 L11.3928169,36.0329481 C10.6927916,36.0329481 10.1269483,35.465839 10.1269483,34.7670795 C10.1269483,34.0683201 10.6927916,33.501211 11.3928169,33.501211 L44.305399,33.501211 C45.0054243,33.501211 45.5712676,34.0683201 45.5712676,34.7670795 C45.5712676,35.465839 45.0054243,36.0329481 44.305399,36.0329481 Z" id="Shape" fill="#8CA1BD"></path>
                            <path d="M44.305399,36.8061439 L42.320648,36.8061439 C41.6206227,36.8061439 42.3199905,35.3328463 42.601171,34.7670795 C42.8823514,34.2013128 43.5535405,33.0361864 44.2535658,33.0361864 L44.305399,32.7280152 C45.0054243,32.7280152 45.5712676,34.0683201 45.5712676,34.7670795 C45.5712676,35.465839 45.0054243,36.8061439 44.305399,36.8061439 Z" id="Shape" fill="#8CA1BD"></path>
                            <path d="M44.305399,43.6281594 L11.3928169,43.6281594 C10.6927916,43.6281594 10.1269483,43.0610502 10.1269483,42.3622908 C10.1269483,41.6635314 10.6927916,41.0964223 11.3928169,41.0964223 L44.305399,41.0964223 C45.0054243,41.0964223 45.5712676,41.6635314 45.5712676,42.3622908 C45.5712676,43.0610502 45.0054243,43.6281594 44.305399,43.6281594 Z" id="Shape" fill="#8CA1BD"></path>
                            <path d="M44.305399,44.4013551 L41.5474522,44.4013551 C40.8474269,44.4013551 40.2815836,43.0610502 40.2815836,42.3622908 C40.2815836,41.6635314 40.8474269,40.3232265 41.5474522,40.3232265 L44.305399,40.3232265 C45.0054243,40.3232265 45.5712676,41.6635314 45.5712676,42.3622908 C45.5712676,43.0610502 45.0054243,44.4013551 44.305399,44.4013551 Z" id="Shape" fill="#8CA1BD"></path>
                            <path d="M67.1809095,0.677239671 L23.9628915,0.588628873 C20.5159315,0.588628873 17.7221596,3.38240075 17.7221596,6.82809492 L17.7221596,14.5777421 L49.4587499,14.511917 C52.904444,14.511917 55.6982159,17.3056889 55.6982159,20.7526489 L55.6982159,44.0965307 L64.5592957,53.8437185 L64.5592957,39.9191645 L67.1809095,39.9191645 C70.6266036,39.9191645 73.4203755,37.1253926 73.4203755,33.6796985 L73.4203755,6.91797159 C73.4203755,3.47101155 70.6266036,0.677239671 67.1809095,0.677239671 Z" id="Shape" stroke="#859DBA" stroke-width="2.5"></path>
                        </g>
                        <g id="search-(1)" transform="translate(38.659789, 29.381440)">
                            <circle id="Oval" fill-opacity="0.639999986" fill="#EEF2F3" fill-rule="nonzero" cx="16.9971628" cy="16.2371113" r="15.4639155"></circle>
                            <path d="M27.3997387,27.6788624 L39.4198403,40.1798917" id="Shape" stroke="#859DBA" stroke-width="2.5" stroke-linecap="round"></path>
                            <path d="M2.32113372,21.0719045 C2.97680374,23.068296 4.05309226,24.9518009 5.54304052,26.5971615 L27.357213,4.78298907 C25.7110792,3.29226762 23.8283474,2.21675229 21.8319559,1.56108227 L2.32113372,21.0719045 Z" id="Shape" fill-opacity="0.280000001" fill="#DADFE0" fill-rule="nonzero"></path>
                            <path d="M16.9971628,32.4742226 C8.04355566,32.4742226 0.760051448,25.1907184 0.760051448,16.2371113 C0.760051448,7.28350422 8.04355566,0 16.9971628,0 C25.9507699,0 33.2342741,7.28350422 33.2342741,16.2371113 C33.2342741,25.1907184 25.9499967,32.4742226 16.9971628,32.4742226 Z M16.9971628,1.54639155 C8.89639061,1.54639155 2.306443,8.13633916 2.306443,16.2371113 C2.306443,24.3378835 8.89639061,30.9278311 16.9971628,30.9278311 C25.0979349,30.9278311 31.6878825,24.3378835 31.6878825,16.2371113 C31.6878825,8.13633916 25.0971617,1.54639155 16.9971628,1.54639155 Z" id="Shape" stroke="#859DBA" fill="#859DBA" fill-rule="nonzero"></path>
                        </g>
                    </g>
                </g>
            </g>
        </g>
    </g>
</svg>