<?xml version="1.0" encoding="UTF-8" standalone="no"?>
<svg width="76px" height="75px" viewBox="0 0 76 75" version="1.1" xmlns="http://www.w3.org/2000/svg" xmlns:xlink="http://www.w3.org/1999/xlink">
    <!-- Generator: Sketch 46.1 (44463) - http://www.bohemiancoding.com/sketch -->
    <title>optimization</title>
    <desc>Created with Sketch.</desc>
    <defs></defs>
    <g id="Page-1" stroke="none" stroke-width="1" fill="none" fill-rule="evenodd">
        <g id="Desktop-HD" transform="translate(-349.000000, -734.000000)">
            <g id="Group-42" transform="translate(0.000000, 580.000000)">
                <g id="Group-39" transform="translate(349.000000, 63.000000)">
                    <g id="Group-38" transform="translate(0.000000, 91.000000)">
                        <g id="Group-3">
                            <g id="optimization" transform="translate(0.277344, 0.453425)">
                                <path d="M7.40432692,-1.443661e-13 L65.5127404,-6.86191555e-15 L65.5127404,0 C67.0039092,-4.24719938e-15 68.2127404,1.20883118 68.2127404,2.7 L68.2127404,57.2801683 L68.2127404,57.2801683 C68.2127404,58.7713371 67.0039092,59.9801683 65.5127404,59.9801683 L7.40432692,59.9801683 L7.40432692,59.9801683 C5.9131581,59.9801683 4.70432692,58.7713371 4.70432692,57.2801683 L4.70432692,2.7 L4.70432692,2.7 C4.70432692,1.20883118 5.9131581,-1.4938414e-13 7.40432692,-1.49658064e-13 Z" id="Rectangle-9" fill="#FFEFF0"></path>
                                <path d="M55.6127449,8.20911188 C53.9837167,8.20911188 52.6584907,9.53448543 52.6584907,11.1633661 C52.6584907,12.7922468 53.9837167,14.1176204 55.6127449,14.1176204 C57.2417731,14.1176204 58.5669992,12.7922468 58.5669992,11.1633661 C58.5671466,9.53448543 57.2419206,8.20911188 55.6127449,8.20911188 Z M55.6127449,11.8613736 C55.2344671,11.8613736 54.9147375,11.541644 54.9147375,11.1633661 C54.9147375,10.7850883 55.2343196,10.4653587 55.6127449,10.4653587 C55.9910228,10.4653587 56.3107524,10.7849408 56.3107524,11.1633661 C56.3107524,11.5417915 55.9911703,11.8613736 55.6127449,11.8613736 Z" id="Shape" fill="#859DBA" fill-rule="nonzero"></path>
                                <path d="M48.1552881,8.20911188 C46.5264074,8.20911188 45.2010339,9.53448543 45.2010339,11.1633661 C45.2010339,12.7922468 46.5264074,14.1176204 48.1552881,14.1176204 C49.7841688,14.1174729 51.1095424,12.7922468 51.1095424,11.1633661 C51.1095424,9.53448543 49.7841688,8.20911188 48.1552881,8.20911188 Z M48.1552881,11.8613736 C47.7770103,11.8613736 47.4572807,11.541644 47.4572807,11.1633661 C47.4572807,10.7850883 47.7768628,10.4653587 48.1552881,10.4653587 C48.533566,10.4653587 48.8532956,10.7849408 48.8532956,11.1633661 C48.8531481,11.5417915 48.533566,11.8613736 48.1552881,11.8613736 Z" id="Shape" fill="#859DBA" fill-rule="nonzero"></path>
                                <path d="M40.6976838,8.20911188 C39.0686557,8.20911188 37.7434296,9.53448543 37.7434296,11.1633661 C37.7434296,12.7922468 39.0686557,14.1176204 40.6976838,14.1176204 C42.326712,14.1176204 43.6519381,12.7922468 43.6519381,11.1633661 C43.6519381,9.53448543 42.326712,8.20911188 40.6976838,8.20911188 Z M40.6976838,11.8613736 C40.319406,11.8613736 39.9996764,11.541644 39.9996764,11.1633661 C39.9996764,10.7850883 40.3192585,10.4653587 40.6976838,10.4653587 C41.0761092,10.4653587 41.3956913,10.7849408 41.3956913,11.1633661 C41.3955438,11.5417915 41.0759617,11.8613736 40.6976838,11.8613736 Z" id="Shape" fill="#859DBA" fill-rule="nonzero"></path>
                                <path d="M31.7492371,8.20911188 L8.21784692,8.20911188 C6.58896622,8.20911188 5.26359267,9.53448543 5.26359267,11.1633661 C5.26359267,12.7922468 6.58896622,14.1176204 8.21784692,14.1176204 L31.7492371,14.1176204 C33.3781178,14.1176204 34.7034914,12.7922468 34.7034914,11.1633661 C34.7034914,9.53448543 33.3781178,8.20911188 31.7492371,8.20911188 Z M31.7492371,11.8613736 L8.21784692,11.8613736 C7.83956906,11.8613736 7.51983947,11.5417915 7.51983947,11.1633661 C7.51983947,10.7850883 7.83942158,10.4653587 8.21784692,10.4653587 L31.7492371,10.4653587 C32.127515,10.4653587 32.4472446,10.7849408 32.4472446,11.1633661 C32.4472446,11.5417915 32.127515,11.8613736 31.7492371,11.8613736 Z" id="Shape" fill="#859DBA" fill-rule="nonzero"></path>
                                <path d="M74.5657194,57.8061327 L70.7471039,56.0641373 C69.9247736,55.6889565 69.887167,54.9144086 69.8952782,54.6861146 C69.903242,54.4578206 69.9954149,53.6879919 70.8422264,53.3720968 L74.7742515,51.9036708 C75.357817,51.6857001 75.6543928,51.0357701 75.4364221,50.4520571 L73.0773841,44.1347431 C72.8595609,43.551325 72.2094834,43.2553392 71.6259179,43.4725725 L67.6938928,44.940851 C66.8475237,45.2567462 66.2729543,44.7363007 66.1173663,44.5689146 C65.9614834,44.4018235 65.4824789,43.7924495 65.8576598,42.9701192 L67.5996551,39.1515037 C67.8581819,38.5846031 67.6083563,37.9153536 67.0416031,37.6568268 L60.9062754,34.8578656 C60.6341808,34.7338376 60.3235947,34.7226294 60.0433889,34.8273379 C59.7630356,34.9320464 59.5357739,35.143823 59.4115985,35.4159176 L57.6694557,39.2346806 C57.2942748,40.0571584 56.5203168,40.0953549 56.2917279,40.0865063 C56.0632864,40.0783951 55.2936052,39.9863696 54.9774151,39.1394106 L53.5091366,35.2073855 C53.4044281,34.9271797 53.1927989,34.699918 52.9205569,34.5757426 C52.6483148,34.4514197 52.3378762,34.4405064 52.0576704,34.5452149 L45.7400614,36.9044004 C45.1564959,37.1223711 44.8599202,37.7723011 45.0778908,38.3560141 L46.5461693,42.2880392 C46.8623595,43.1347032 46.3414716,43.7088302 46.1742329,43.8645657 C46.0069943,44.0201536 45.3977679,44.4993056 44.57529,44.1242722 L40.7566745,42.3822768 C40.1897739,42.1233077 39.5208194,42.3734282 39.2621452,42.9403289 L38.5089814,44.5913311 C38.2504547,45.1582317 38.5002803,45.8274812 39.0670334,46.0860079 C39.6337866,46.3449771 40.3030361,46.0948565 40.5615628,45.5279559 L40.8466354,44.9033919 L43.6389601,46.1771486 C45.0315831,46.8123309 46.5926245,46.5591133 47.7127104,45.5154204 C48.8327963,44.4718749 49.1957366,42.9328075 48.6602485,41.4987436 L47.5867653,38.6236844 L51.7904425,37.0537944 L52.8642207,39.9290011 C53.3997088,41.363065 54.6827565,42.2875968 56.2126803,42.3414258 C57.7430466,42.3996791 59.0875921,41.5637809 59.7227745,40.1711579 L60.9966786,37.3788332 L65.07913,39.241317 L63.8053733,42.0336418 C63.1700435,43.4264122 63.4234085,44.9873061 64.4671015,46.1072446 C65.510647,47.227183 67.0497143,47.5901233 68.4839257,47.0549302 L71.3591324,45.981152 L72.928875,50.1848292 L70.0538157,51.2586075 C68.6197518,51.7940955 67.6953675,53.0769958 67.6412436,54.6069196 C67.5871196,56.1368434 68.418741,57.4819788 69.8115114,58.1173086 L72.6036887,59.3912128 L70.7412049,63.4736642 L67.9488801,62.1999075 C66.5562571,61.5647251 64.9952157,61.8179427 63.8751298,62.8614882 C62.7551914,63.9050337 62.3921036,65.444396 62.9275917,66.8784599 L64.001075,69.7535192 L59.7973977,71.3232617 L58.7236195,68.448055 C58.1881314,67.0141385 56.9050837,66.0896068 55.3753074,66.0356303 C53.8453836,65.9815063 52.5002481,66.8131277 51.8650658,68.2058981 L50.5911616,70.9982229 L46.5087102,69.135739 L47.7824669,66.3435617 C48.4177967,64.9506438 48.1644317,63.3897499 47.1207387,62.269664 C46.0770458,61.1495781 44.5378309,60.7866378 43.1039145,61.3221259 L40.2288553,62.3959041 L38.6591127,58.1922268 L41.5343194,57.1187436 C42.9683834,56.583108 43.8927676,55.3000603 43.9467441,53.770284 C44.0007206,52.2403602 43.1692467,50.8952247 41.7764763,50.2598949 L38.984299,48.9859907 L39.2649472,48.3708652 C39.523474,47.8039646 39.2736483,47.1347151 38.7068952,46.8761884 C38.1401421,46.6172192 37.4708926,46.8673398 37.2122183,47.4342404 L36.4633314,49.0758041 C36.339156,49.3480462 36.3280952,49.6583372 36.4328037,49.938838 C36.5375122,50.2190438 36.7491413,50.4463055 37.0213834,50.5704809 L40.8399989,52.3124763 C41.6623293,52.6876572 41.6999358,53.462205 41.6918246,53.6904991 C41.6838609,53.9187931 41.5916879,54.6886217 40.7448764,55.0046644 L36.8128513,56.4729429 C36.532498,56.5776514 36.3053838,56.789428 36.1810609,57.0615226 C36.056738,57.3336172 36.0458247,57.6440558 36.1505332,57.9245565 L38.5095713,64.2420181 C38.6142798,64.5222239 38.8259089,64.7494856 39.098151,64.873661 C39.1151108,64.8814772 39.1328081,64.8875238 39.1502103,64.8944552 L4.43742792,64.8944552 C3.23475503,64.8944552 2.25639427,63.915947 2.25639427,62.7132741 L2.25639427,25.4444247 L60.6070451,25.4444247 L60.6070451,31.7164633 C60.6070451,32.3397001 61.1121529,32.8446605 61.7352422,32.8446605 C62.3583315,32.8446605 62.8634393,32.3397001 62.8634393,31.7164633 L62.8634393,24.3162275 L62.8634393,16.4302033 L62.8634393,9.25708166 C62.8634393,6.81014743 60.8729456,4.81965374 58.4260114,4.81965374 L16.7927351,4.81965374 C16.1696458,4.81965374 15.6645379,5.32461413 15.6645379,5.94785088 C15.6645379,6.57108762 16.1696458,7.07604801 16.7927351,7.07604801 L58.4258639,7.07604801 C59.6285368,7.07604801 60.6068976,8.05455625 60.6068976,9.25708166 L60.6068976,15.3021536 L2.25624679,15.3021536 L2.25624679,9.25708166 C2.25624679,8.05440877 3.23475503,7.07604801 4.43728044,7.07604801 L10.0077722,7.07604801 C10.6308615,7.07604801 11.1359694,6.57108762 11.1359694,5.94785088 C11.1359694,5.32461413 10.6308615,4.81965374 10.0077722,4.81965374 L4.43742792,4.81965374 C1.99049369,4.81965374 0,6.81029491 0,9.25708166 L0,62.7128316 C0,65.1597659 1.99049369,67.1502596 4.43742792,67.1502596 L40.6978313,67.1502596 C41.3209206,67.1502596 41.8260285,66.6452992 41.8260285,66.0220624 C41.8260285,65.3988257 41.3209206,64.8938653 40.6978313,64.8938653 L39.9874358,64.8938653 L43.8929151,63.4353202 C44.7397266,63.1195725 45.3138536,63.6398705 45.469589,63.8071091 C45.625472,63.9743478 46.1044764,64.5838692 45.7292956,65.4061995 L43.9873002,69.224815 C43.7287735,69.7917156 43.9785991,70.4609651 44.5453522,70.7194919 L50.6805325,73.5183056 C51.2472857,73.7772748 51.9165351,73.5271542 52.1750619,72.9602536 L53.9172047,69.1416381 C54.2923856,68.3193078 55.0673759,68.2818487 55.29508,68.2896649 C55.523374,68.2977762 56.2932026,68.3898016 56.6093928,69.2367606 L58.0776713,73.1687857 C58.2469746,73.6224242 58.6773118,73.9024826 59.1346372,73.9024826 C59.265744,73.9024826 59.399063,73.8794762 59.5291375,73.8308089 L65.8467465,71.4717708 C66.1270998,71.3670623 66.354214,71.1552857 66.4785369,70.8831911 C66.6028598,70.6110965 66.6137731,70.3005104 66.5090646,70.0201571 L65.0407861,66.088132 C64.7245959,65.2413205 65.2454838,64.6671935 65.4127224,64.5114581 C65.5799611,64.3555752 66.18904,63.8764232 67.0116653,64.2517515 L70.8302808,65.9937469 C71.3968865,66.2527161 72.0662835,66.0025955 72.3248102,65.4356949 L75.1237714,59.3005146 C75.2480943,59.0282725 75.2590076,58.7179814 75.1542991,58.4374807 C75.0497381,58.1575698 74.8379615,57.9303081 74.5657194,57.8061327 Z M2.32334871,17.5584004 L60.6068976,17.5584004 L60.6068976,23.1880304 L2.32334871,23.1880304 L2.32334871,17.5584004 Z" id="Shape" fill="#859DBA" fill-rule="nonzero"></path>
                                <path d="M61.2969413,52.1328496 C60.7480328,50.6629489 59.6596544,49.4947855 58.231932,48.8433807 C56.8040621,48.1918284 55.2083637,48.1354923 53.7384629,48.6845483 C50.7039813,49.8177596 49.1570977,53.2083976 50.290309,56.2430266 C50.83907,57.7130749 51.9274484,58.8810907 53.3551708,59.5324955 C54.1329632,59.8873246 54.9606027,60.065624 55.7906019,60.065624 C56.484185,60.065624 57.1793904,59.9411536 57.8486399,59.691328 C60.8831215,58.5581167 62.4300052,55.1674787 61.2969413,52.1328496 Z M57.0590494,57.5776912 C56.1536896,57.9160029 55.1709046,57.8810509 54.2916482,57.4800616 C53.4123918,57.0789249 52.7419625,56.3593858 52.4037983,55.4538785 C51.7057909,53.5847582 52.6586382,51.4964874 54.527611,50.79848 C54.9398085,50.6446617 55.3679335,50.5678264 55.7950262,50.5678264 C56.3061806,50.5678264 56.8161552,50.6776965 57.2950122,50.8962571 C58.1742686,51.2973938 58.8446979,52.0169329 59.1828621,52.9224401 C59.8808695,54.791413 58.9280223,56.8798312 57.0590494,57.5776912 Z" id="Shape" stroke="#859DBA" stroke-width="0.5" fill="#859DBA" fill-rule="nonzero"></path>
                                <path d="M42.523741,34.4736887 L8.67605718,34.4736887 C8.05296792,34.4736887 7.54786005,34.9786491 7.54786005,35.6018858 L7.54786005,49.4405141 C7.54786005,50.0637508 8.05296792,50.5687112 8.67605718,50.5687112 L32.3446007,50.5687112 C32.96769,50.5687112 33.4727979,50.0637508 33.4727979,49.4405141 C33.4727979,48.8172773 32.96769,48.3123169 32.3446007,48.3123169 L9.80410684,48.3123169 L9.80410684,36.7300829 L42.523741,36.7300829 L42.523741,36.7300829 C43.1468302,36.7300829 43.6519381,36.2251225 43.6519381,35.6018858 C43.6519381,34.9786491 43.1468302,34.4736887 42.523741,34.4736887 Z" id="Shape" fill="#859DBA" fill-rule="nonzero"></path>
                            </g>
                        </g>
                    </g>
                </g>
            </g>
        </g>
    </g>
</svg>