<?xml version="1.0" encoding="UTF-8" standalone="no"?>
<svg width="82px" height="74px" viewBox="0 0 82 74" version="1.1" xmlns="http://www.w3.org/2000/svg" xmlns:xlink="http://www.w3.org/1999/xlink">
    <!-- Generator: Sketch 46.1 (44463) - http://www.bohemiancoding.com/sketch -->
    <title>Group 16</title>
    <desc>Created with Sketch.</desc>
    <defs></defs>
    <g id="Page-1" stroke="none" stroke-width="1" fill="none" fill-rule="evenodd">
        <g id="Desktop-HD" transform="translate(-239.000000, -8181.000000)" fill-rule="nonzero">
            <g id="Group-4" transform="translate(240.000000, 8181.000000)">
                <g id="Group-30">
                    <g id="Group-16" transform="translate(1.000000, 0.000000)">
                        <g id="chat-(3)" transform="translate(3.092783, 0.000000)" fill="#FFEFF0">
                            <path d="M42,33.6864749 L42,53.7872593 C42,56.3753268 39.8933182,58.4737343 37.2950455,58.4737343 L21,58.5412408 L11.4545455,69 L11.4545455,58.5412408 L4.70495455,58.5412408 C2.10668182,58.5412408 0,56.4428334 0,53.8547659 L0,33.7539815 C0,31.165914 2.10668182,29.0675065 4.70495455,29.0675065 L37.2940909,29 C39.8933182,29 42,31.0984074 42,33.6864749 Z" id="Shape"></path>
                            <path d="M70.2422527,0.088610798 L23.0242348,0 C19.5772747,-5.62158561e-16 20.7835029,4.79377188 20.7835029,8.23946605 L20.7835029,28.9891133 L35.5200931,28.9232881 C38.9657873,28.9232881 41.7595592,31.71706 41.7595592,35.16402 L41.7595592,43.5079018 L49.620639,53.2550896 L49.620639,39.3305356 L70.2422527,39.3305356 C73.6879469,39.3305356 76.4817188,36.5367638 76.4817188,33.0910696 L76.4817188,6.32934272 C76.4817188,2.88238267 73.6879469,0.088610798 70.2422527,0.088610798 Z" id="Shape"></path>
                        </g>
                        <g id="chat-(3)" transform="translate(0.000000, 1.546392)" stroke="#859DBA">
                            <path d="M42,33.6864749 L42,53.7872593 C42,56.3753268 39.8933182,58.4737343 37.2950455,58.4737343 L21,58.5412408 L11.4545455,69 L11.4545455,58.5412408 L4.70495455,58.5412408 C2.10668182,58.5412408 0,56.4428334 0,53.8547659 L0,33.7539815 C0,31.165914 2.10668182,29.0675065 4.70495455,29.0675065 L37.2940909,29 C39.8933182,29 42,31.0984074 42,33.6864749 Z" id="Shape" stroke-width="2.5"></path>
                            <g id="like-(6)" transform="translate(12.000000, 6.000000)" stroke-width="0.5" fill="#859DBA">
                                <path d="M20.3697538,40.9565036 C20.8124763,40.3814304 21.0248024,39.7649519 20.997697,39.1300711 C20.9705915,38.4307821 20.6633963,37.8833124 20.410412,37.5474697 C20.7040545,36.8021748 20.8169939,35.6290255 19.8366797,34.7181096 C19.118385,34.0510247 17.8986393,33.7519866 16.2090655,33.8347972 C15.0209428,33.8900042 14.027076,34.1154329 13.9864178,34.124634 L13.9819002,34.124634 C13.7560213,34.1660393 13.5165898,34.2166458 13.2726406,34.2718528 C13.2545703,33.9774153 13.3042637,33.2459222 13.8373377,31.5989126 C14.4697985,29.6390632 14.4336579,28.1392723 13.7198807,27.1363446 C12.969963,26.0828105 11.7728051,26 11.4204341,26 C11.0816159,26 10.7699031,26.1426182 10.5485418,26.4048515 C10.0470908,26.9983271 10.1058193,28.0932664 10.1690654,28.5993308 C9.57274523,30.2279381 7.90124182,34.2212463 6.48724028,35.3299875 C6.46013482,35.3483898 6.43754694,35.3713927 6.41495905,35.3943957 C5.99934199,35.8406524 5.71925222,36.3237139 5.529514,36.7469678 C5.26297697,36.5997491 4.96029932,36.5169385 4.63503379,36.5169385 L1.87931195,36.5169385 C0.840269284,36.5169385 0,37.377248 0,38.4307821 L0,45.9067336 C0,46.9648683 0.844786861,47.8205772 1.87931195,47.8205772 L4.63503379,47.8205772 C5.03709813,47.8205772 5.412057,47.6917608 5.71925222,47.4709327 L6.78088277,47.5997491 C6.94351554,47.622752 9.83476469,47.9953994 12.8028126,47.9355918 C13.3404043,47.9769971 13.8463729,48 14.3162009,48 C15.1248471,48 15.8295891,47.9355918 16.4168741,47.8067754 C17.7992526,47.5077373 18.7434261,46.9096612 19.2222893,46.0309494 C19.588213,45.3592639 19.588213,44.692179 19.5294845,44.2689251 C20.4284823,43.4408197 20.5865975,42.5253032 20.5549744,41.8812212 C20.5369041,41.5085738 20.4555877,41.1911334 20.3697538,40.9565036 Z M1.87931195,46.5784191 C1.51338823,46.5784191 1.21974574,46.2747804 1.21974574,45.9067336 L1.21974574,38.4261815 C1.21974574,38.0535341 1.5179058,37.754496 1.87931195,37.754496 L4.63503379,37.754496 C5.00095751,37.754496 5.29460001,38.0581347 5.29460001,38.4261815 L5.29460001,45.902133 C5.29460001,46.2747804 4.99643994,46.5738185 4.63503379,46.5738185 L1.87931195,46.5738185 L1.87931195,46.5784191 Z M19.2132541,40.418235 C19.0235159,40.6206608 18.9873753,40.9289 19.1319377,41.1681305 C19.1319377,41.1727311 19.3171584,41.4947721 19.3397463,41.9364283 C19.3713693,42.539105 19.086762,43.0727729 18.4904418,43.5282309 C18.2781157,43.6938519 18.1922818,43.9790882 18.2826333,44.236721 C18.2826333,44.2413216 18.4768891,44.8485989 18.1606587,45.4236721 C17.8579811,45.9757424 17.1848621,46.3713927 16.1638898,46.5922208 C15.3462084,46.7716437 14.2348845,46.8038478 12.8705763,46.6934337 C12.852506,46.6934337 12.8299181,46.6934337 12.8073302,46.6934337 C9.90252834,46.7578419 6.96610342,46.3713927 6.93448038,46.3667921 L6.92996281,46.3667921 L6.47368755,46.3115851 C6.50079301,46.1827687 6.51434574,46.0447512 6.51434574,45.9067336 L6.51434574,38.4261815 C6.51434574,38.2283563 6.4827227,38.0351317 6.42851178,37.8557089 C6.50982816,37.5474697 6.735707,36.8619824 7.26878107,36.2777081 C9.29717305,34.6398996 11.2803893,29.1145964 11.3662232,28.875366 C11.4023638,28.7787537 11.411399,28.6729402 11.3933287,28.5671267 C11.3165299,28.0518611 11.3436353,27.4215809 11.4520572,27.2329569 C11.6914888,27.2375575 12.3375022,27.3065663 12.7260138,27.854036 C13.1868067,28.5027185 13.1687364,29.6620661 12.6718029,31.1986616 C11.91285,33.5403597 11.8496039,34.7733166 12.4504417,35.3161857 C12.7486017,35.5876202 13.1461485,35.601422 13.4352734,35.4956085 C13.7108456,35.4312003 13.972865,35.3759933 14.2213318,35.334588 C14.2394021,35.3299875 14.2619899,35.3253869 14.2800603,35.3207863 C15.6669563,35.0125471 18.1516236,34.823923 19.0144807,35.6244249 C19.7463282,36.3053116 19.2268068,37.2070263 19.1680783,37.3036386 C19.000928,37.5612714 19.0506214,37.8971142 19.2765002,38.1041405 C19.2810178,38.1087411 19.7553633,38.5641991 19.7779512,39.176077 C19.7960215,39.5855291 19.6062833,40.0041824 19.2132541,40.418235 Z" id="Shape"></path>
                                <path d="M53.2545427,19.6505918 C53.8469014,18.8950323 54.1309918,18.0850725 54.0947249,17.2509348 C54.0584581,16.3321744 53.6474337,15.6128818 53.308943,15.171635 C53.701834,14.1924299 53.8529459,12.6510885 52.5412946,11.4542822 C51.5802229,10.5778332 49.9482143,10.1849422 47.6875803,10.2937428 C46.097883,10.3662765 44.7680983,10.6624558 44.713698,10.6745448 L44.7076535,10.6745448 C44.4054297,10.7289451 44.0850725,10.7954343 43.7586708,10.867968 C43.7344929,10.4811216 43.8009821,9.52004986 44.5142303,7.35612742 C45.360457,4.7811806 45.3121011,2.81068139 44.3570739,1.4929856 C43.3536909,0.10880057 41.7519047,0 41.2804356,0 C40.8270999,0 40.410031,0.187378759 40.1138517,0.531913897 C39.4429149,1.31165131 39.521493,2.75023663 39.6061157,3.415129 C38.8082449,5.55487354 36.5717887,10.8014788 34.6798677,12.2581975 C34.6436008,12.2823754 34.6133784,12.3125978 34.5831561,12.3428202 C34.0270643,12.9291344 33.6523067,13.5638044 33.3984387,14.1198962 C33.0418147,13.9264729 32.6368348,13.8176724 32.2016325,13.8176724 L28.5145021,13.8176724 C27.1242726,13.8176724 26,14.9479894 26,16.3321744 L26,26.1544481 C26,27.5446776 27.130317,28.6689502 28.5145021,28.6689502 L32.2016325,28.6689502 C32.7395909,28.6689502 33.2412824,28.4997048 33.6523067,28.20957 L35.0727586,28.3788153 C35.2903598,28.4090377 39.1588245,28.8986402 43.1300453,28.8200621 C43.8493379,28.8744623 44.5263193,28.9046847 45.1549448,28.9046847 C46.236906,28.9046847 47.1798443,28.8200621 47.9656262,28.6508167 C49.8152358,28.2579258 51.0785313,27.4721439 51.7192458,26.317649 C52.2088484,25.4351554 52.2088484,24.5587064 52.1302702,24.0026146 C53.3331209,22.9146089 53.5446776,21.7117582 53.5023663,20.8655315 C53.4781884,20.3759289 53.3693878,19.9588601 53.2545427,19.6505918 Z M28.5145021,27.0369416 C28.0248995,27.0369416 27.6320085,26.6380062 27.6320085,26.1544481 L27.6320085,16.32613 C27.6320085,15.8365274 28.030944,15.4436364 28.5145021,15.4436364 L32.2016325,15.4436364 C32.691235,15.4436364 33.084126,15.8425719 33.084126,16.32613 L33.084126,26.1484036 C33.084126,26.6380062 32.6851906,27.0308971 32.2016325,27.0308971 L28.5145021,27.0308971 L28.5145021,27.0369416 Z M51.7071569,18.9433881 C51.4532889,19.2093451 51.4049331,19.614325 51.5983563,19.9286377 C51.5983563,19.9346822 51.8461798,20.3577955 51.8764022,20.9380652 C51.9187135,21.7298916 51.5379115,22.4310508 50.7400407,23.029454 C50.4559503,23.2470551 50.3411053,23.6218126 50.4619948,23.9603033 C50.4619948,23.9663477 50.7219073,24.7642186 50.2987939,25.5197781 C49.893814,26.2451152 48.9931871,26.7649402 47.6271355,27.055075 C46.5330853,27.2908096 45.0461442,27.3331209 43.2207124,27.1880535 C43.1965345,27.1880535 43.1663121,27.1880535 43.1360898,27.1880535 C39.2494916,27.2726762 35.3205822,26.7649402 35.2782708,26.7588957 L35.2722263,26.7588957 L34.6617343,26.686362 C34.6980011,26.5171167 34.7161345,26.3357824 34.7161345,26.1544481 L34.7161345,16.32613 C34.7161345,16.0662175 34.6738232,15.8123495 34.6012895,15.5766149 C34.7100901,15.171635 35.0123139,14.2710081 35.725562,13.5033596 C38.4395318,11.3515261 41.0930568,4.09211032 41.2079019,3.77779756 C41.2562577,3.65086357 41.2683466,3.51184062 41.2441687,3.37281767 C41.1414126,2.69583634 41.1776795,1.86774312 41.3227469,1.6199196 C41.6431042,1.62596407 42.5074642,1.71663121 43.0272892,2.43592387 C43.6438257,3.288195 43.6196478,4.81140298 42.9547555,6.830258 C41.9392835,9.90689633 41.8546608,11.5268159 42.6585761,12.2400641 C43.0575116,12.5966882 43.5894255,12.6148216 43.9762719,12.4757987 C44.344985,12.391176 44.6955646,12.3186423 45.0280108,12.264242 C45.0521887,12.2581975 45.0824111,12.2521531 45.106589,12.2461086 C46.9622431,11.8411287 50.286705,11.5933052 51.4411999,12.645044 C52.420405,13.5396265 51.7252903,14.7243438 51.6467121,14.8512778 C51.4230665,15.1897684 51.4895557,15.6310152 51.7917795,15.9030166 C51.797824,15.9090611 52.432494,16.5074642 52.4627164,17.3113796 C52.4868943,17.8493379 52.2330263,18.3993853 51.7071569,18.9433881 Z" id="Shape" transform="translate(40.048903, 14.452342) scale(-1, -1) translate(-40.048903, -14.452342) "></path>
                            </g>
                            <path d="M69.1809095,0.677239671 L25.9628915,0.588628873 C22.5159315,0.588628873 19.7221596,3.38240075 19.7221596,6.82809492 L19.7221596,28.5777421 L36.4587499,28.511917 C39.904444,28.511917 42.6982159,31.3056889 42.6982159,34.7526489 L42.6982159,43.0965307 L50.5592957,53.8437185 L50.5592957,39.9191645 L69.1809095,39.9191645 C72.6266036,39.9191645 75.4203755,37.1253926 75.4203755,33.6796985 L75.4203755,6.91797159 C75.4203755,3.47101155 72.6266036,0.677239671 69.1809095,0.677239671 Z" id="Shape" stroke-width="2.5"></path>
                        </g>
                    </g>
                </g>
            </g>
        </g>
    </g>
</svg>