<?xml version="1.0" encoding="UTF-8" standalone="no"?>
<svg width="193px" height="159px" viewBox="0 0 193 159" version="1.1" xmlns="http://www.w3.org/2000/svg" xmlns:xlink="http://www.w3.org/1999/xlink">
    <!-- Generator: Sketch 46.1 (44463) - http://www.bohemiancoding.com/sketch -->
    <title>megaphone (4)</title>
    <desc>Created with Sketch.</desc>
    <defs></defs>
    <g id="Page-1" stroke="none" stroke-width="1" fill="none" fill-rule="evenodd">
        <g id="Desktop-HD" transform="translate(-119.000000, -2420.000000)">
            <g id="Group-17" transform="translate(0.000000, 1517.000000)">
                <g id="Group-6">
                    <g id="Group-9">
                        <g id="Group-25">
                            <g id="Group-8" transform="translate(119.000000, 775.000000)">
                                <g id="megaphone-(4)" transform="translate(96.043852, 208.046860) rotate(-360.000000) translate(-96.043852, -208.046860) translate(0.043852, 128.546860)">
                                    <path d="M13.6478432,37.996504 L5.50566927,37.996504 C2.50755691,37.996504 0.0775533066,40.4265076 0.0775533066,43.4246199 L0.0775533066,75.9930079 C0.0775533066,78.9911203 2.50755691,81.4211239 5.50566927,81.4211239 L13.6478432,81.4211239 L13.6478432,37.996504 Z" id="Shape" fill="#DFE0E0" fill-rule="nonzero"></path>
                                    <path d="M0.0775533066,59.7086601 L0.0775533066,75.9927002 C0.0775533066,78.9908125 2.50755691,81.4208161 5.50566927,81.4208161 L13.6478432,81.4208161 L13.6478432,65.136776 L5.50566927,65.136776 C2.50755691,65.136776 0.0775533066,62.7061569 0.0775533066,59.7086601 Z" id="Shape" fill="#8B9FA2" fill-rule="nonzero"></path>
                                    <g id="Group" transform="translate(70.475029, 2.462010)">
                                        <path d="M82.6524365,68.9753569 L73.4460589,70.8169402 L73.4460589,43.6766682 L82.6527443,45.5182515 C85.190153,46.0257332 87.0163488,48.2532365 87.0163488,50.8408087 L87.0163488,63.6531074 C87.016041,66.2400641 85.1895375,68.4681829 82.6524365,68.9753569 Z" id="Shape" fill="#595E6E" fill-rule="nonzero"></path>
                                        <path d="M0.167416662,27.3923203 L0.167416662,87.1009803 C19.1655148,87.1009803 51.7339028,95.2431543 73.4460589,114.241252 L73.4460589,0.252048246 C51.7339028,19.2501464 19.1655148,27.3923203 0.167416662,27.3923203 Z" id="Shape" fill="#DFE0E0" fill-rule="nonzero"></path>
                                        <path d="M104.592104,81.6084211 C113.74135,76.5419114 119.923796,66.8773951 119.923796,55.7879887 C119.923796,44.4306539 113.438996,34.5678938 103.923796,29.6084211" id="Oval-3" stroke="#F05244" stroke-width="3.5999999" stroke-linecap="round" transform="translate(111.923796, 55.608421) rotate(1.000000) translate(-111.923796, -55.608421) "></path>
                                        <path d="M95.9296541,72.6583986 C101.647933,69.6379794 105.511962,63.8764408 105.511962,57.2654485 C105.511962,50.4947297 101.458962,44.6150074 95.5119616,41.6583986" id="Oval-3-Copy" stroke="#F05244" stroke-width="2.15999981" stroke-linecap="round" transform="translate(100.511962, 57.158399) rotate(1.000000) translate(-100.511962, -57.158399) "></path>
                                    </g>
                                    <path d="M70.7604268,157.413516 L70.6421375,157.413516 C70.7047108,157.724668 70.7372832,157.678381 70.7604268,157.413516 Z" id="Shape" fill="#FF6464" fill-rule="nonzero"></path>
                                    <g id="Group" transform="translate(10.771293, 29.851868)" fill-rule="nonzero" fill="#F9A53D">
                                        <path d="M13.7324748,59.7111221 L27.3024569,124.847898 L59.8708449,124.847898 L47.9614884,67.6821863 C47.1050167,63.5709378 50.2431559,59.7111221 54.4430367,59.7111221 L54.4430367,59.7111221 L13.7324748,59.7111221 Z" id="Shape"></path>
                                        <path d="M54.4430367,59.7111221 L11.0184168,59.7111221 C5.02280761,59.7111221 0.162184891,54.8504993 0.162184891,48.8548901 L0.162184891,10.8586939 C0.162184891,4.86308473 5.02280761,0.00246200973 11.0184168,0.00246200973 L54.442729,0.00246200973 L54.442729,59.7111221 L54.4430367,59.7111221 Z" id="Shape"></path>
                                    </g>
                                    <rect id="Rectangle-path" fill="#606677" fill-rule="nonzero" x="65.2146371" y="29.85433" width="5.42811596" height="59.7086601"></rect>
                                    <path d="M70.6424453,89.5629901 C89.6405434,89.5629901 122.208931,97.705164 143.921087,116.703262 L143.921087,81.4208161 C122.208931,74.1834308 89.6405434,67.8505262 70.6424453,67.8505262 L70.6424453,89.5629901 Z" id="Shape" fill="#8B9FA2" fill-rule="nonzero"></path>
                                    <path d="M145.277963,119.41732 L145.277963,119.41732 C143.02984,119.41732 141.20703,117.59451 141.20703,115.346387 L141.20703,4.07093309 C141.20703,1.82281046 143.02984,-1.13686838e-13 145.277963,-1.13686838e-13 L145.277963,-1.13686838e-13 C147.526085,-1.13686838e-13 149.348896,1.82281046 149.348896,4.07093309 L149.348896,115.346079 C149.349203,117.59451 147.526393,119.41732 145.277963,119.41732 Z" id="Shape" fill="#606677" fill-rule="nonzero"></path>
                                    <g id="Group" transform="translate(64.935507, 67.705268)" fill-rule="nonzero" fill="#707487">
                                        <path d="M80.3424559,16.4296065 C78.0943332,16.4296065 76.2715228,14.606796 76.2715228,12.3586734 L76.2715228,47.6411193 C76.2715228,49.889242 78.0943332,51.7120524 80.3424559,51.7120524 C82.5905785,51.7120524 84.413389,49.889242 84.413389,47.6411193 L84.413389,12.3586734 C84.4136967,14.606796 82.5908863,16.4296065 80.3424559,16.4296065 Z" id="Shape"></path>
                                        <rect id="Rectangle-path" x="0.279130354" y="0.145566325" width="5.42811596" height="21.7121561"></rect>
                                    </g>
                                    <g id="Group" transform="translate(10.771293, 62.165746)" fill-rule="nonzero" fill="#E19332">
                                        <path d="M5.5906086,5.68508823 C2.59249625,5.68508823 0.162492642,3.25508462 0.162492642,0.256972266 L0.162492642,0.256972266 L0.162492642,16.5410124 C0.162492642,22.5366216 5.02311536,27.3972443 11.0187246,27.3972443 L54.4430367,27.3972443 L54.4430367,5.68508823 L5.5906086,5.68508823 Z" id="Shape"></path>
                                        <path d="M59.8711527,95.2477706 L27.3027647,95.2477706 C25.8040163,95.2477706 24.5887067,94.032461 24.5887067,92.5337126 L24.5887067,92.5337126 C24.5887067,91.0349642 25.8040163,89.8196546 27.3027647,89.8196546 L59.8711527,89.8196546 C61.3699011,89.8196546 62.5852107,91.0349642 62.5852107,92.5337126 L62.5852107,92.5337126 C62.5849029,94.0327688 61.3699011,95.2477706 59.8711527,95.2477706 Z" id="Shape"></path>
                                    </g>
                                </g>
                            </g>
                        </g>
                    </g>
                </g>
            </g>
        </g>
    </g>
</svg>