<?xml version="1.0" encoding="UTF-8" standalone="no"?>
<svg width="159px" height="161px" viewBox="0 0 159 161" version="1.1" xmlns="http://www.w3.org/2000/svg" xmlns:xlink="http://www.w3.org/1999/xlink">
    <!-- Generator: Sketch 46.1 (44463) - http://www.bohemiancoding.com/sketch -->
    <title>presentation</title>
    <desc>Created with Sketch.</desc>
    <defs></defs>
    <g id="Page-1" stroke="none" stroke-width="1" fill="none" fill-rule="evenodd">
        <g id="Desktop-HD" transform="translate(-1200.000000, -2753.000000)" fill-rule="nonzero">
            <g id="Group-17" transform="translate(0.000000, 1517.000000)">
                <g id="Group-6">
                    <g id="Group-9">
                        <g id="Group-25">
                            <g id="Group-24">
                                <g id="presentation" transform="translate(1279.626036, 1317.333143) rotate(-360.000000) translate(-1279.626036, -1317.333143) translate(1200.126036, 1236.833143)">
                                    <path d="M87.6394278,159.970303 L87.6394278,7.99851517 C87.6394278,3.66588197 83.9947871,0 79.6872586,0 L79.6872586,0 C75.3797301,0 71.7350894,3.66588197 71.7350894,7.99851517 L71.7350894,159.970303 L87.6394278,159.970303 Z" id="Shape" fill="#FFBE6E"></path>
                                    <g id="Group" transform="translate(17.395370, 103.418302)" fill="#F9A53D">
                                        <polygon id="Shape" points="124.584088 56.5520018 77.8650936 0.229019985 65.6053959 10.227164 104.040777 56.5520018"></polygon>
                                        <polygon id="Shape" points="20.5430002 56.5520018 58.9786918 10.227164 46.718994 0.229019985 0 56.5520018"></polygon>
                                    </g>
                                    <path d="M9.77464485,28.6612419 L9.77464485,115.645094 C9.77464485,119.310976 12.7567083,122.31042 16.401349,122.31042 L143.304612,122.31042 C146.949253,122.31042 149.931316,119.310976 149.931316,115.645094 L149.931316,28.6612419 L9.77464485,28.6612419 Z" id="Shape" fill="#E3E3E3"></path>
                                    <path d="M149.600183,9.33170518 L9.77464485,9.33170518 C4.47309517,9.33170518 0.165566648,13.6640259 0.165566648,18.9964735 C0.165566648,24.3289211 4.47309517,28.6612419 9.77464485,28.6612419 L149.26905,28.6612419 C154.570599,28.6612419 158.877817,24.3286087 158.877817,18.9964735 C158.877817,13.6643384 154.901733,9.33170518 149.600183,9.33170518 Z" id="Shape" fill="#424A60"></path>
                                    <g id="Group" transform="translate(9.629580, 28.432222)" fill="#231F20" opacity="0.1">
                                        <rect id="Rectangle-path" x="62.1055095" y="94.2115733" width="15.9043384" height="4.99907198"></rect>
                                        <rect id="Rectangle-path" x="0.145064962" y="0.229019985" width="140.156982" height="4.99907198"></rect>
                                        <polygon id="Shape" points="101.203778 94.2115733 80.6607781 94.2115733 84.967996 99.2106452 105.511307 99.2106452"></polygon>
                                        <polygon id="Shape" points="38.9118898 94.2115733 59.45489 94.2115733 55.1473615 99.2106452 34.6043613 99.2106452"></polygon>
                                    </g>
                                    <polygon id="Shape" fill="#CDD6E0" points="34.2937297 96.3155577 29.6550678 91.6495489 64.7769414 56.3229818 94.5975759 85.9840381 125.081098 55.3231674 129.71976 59.9888638 94.5975759 95.3157433 64.7769414 65.6543746"></polygon>
                                    <g id="Group" transform="translate(22.676107, 47.803626)" fill="#F05244">
                                        <ellipse id="Oval" cx="9.29813596" cy="46.1789274" rx="9.27763427" ry="9.33170518"></ellipse>
                                        <ellipse id="Oval" cx="42.4322778" cy="12.8516767" rx="9.27763427" ry="9.33170518"></ellipse>
                                        <ellipse id="Oval" cx="71.2588912" cy="41.8462942" rx="9.27763427" ry="9.33170518"></ellipse>
                                        <ellipse id="Oval" cx="104.724166" cy="9.51917038" rx="9.27763427" ry="9.33170518"></ellipse>
                                    </g>
                                </g>
                            </g>
                        </g>
                    </g>
                </g>
            </g>
        </g>
    </g>
</svg>