<?xml version="1.0" encoding="UTF-8" standalone="no"?>
<svg width="67px" height="62px" viewBox="0 0 67 62" version="1.1" xmlns="http://www.w3.org/2000/svg" xmlns:xlink="http://www.w3.org/1999/xlink">
    <!-- Generator: Sketch 46.1 (44463) - http://www.bohemiancoding.com/sketch -->
    <title>Group 15</title>
    <desc>Created with Sketch.</desc>
    <defs></defs>
    <g id="Page-1" stroke="none" stroke-width="1" fill="none" fill-rule="evenodd">
        <g id="Desktop-HD" transform="translate(-355.000000, -883.000000)">
            <g id="Group-42" transform="translate(0.000000, 580.000000)">
                <g id="Group-39" transform="translate(349.000000, 63.000000)">
                    <g id="Group-38" transform="translate(0.000000, 91.000000)">
                        <g id="Group-35" transform="translate(6.000000, 149.000000)">
                            <g id="Group-15">
                                <path d="M30.0435994,37.4778037 C55.3521222,45.9476843 29.7049413,37.6167865 58.9188362,47.3650039 C59.0169501,37.7060235 58.9188362,47.3650039 59.0779129,34.1437427 C61.6143664,34.7442317 67,31.7979436 67,25.7303716 C67,19.6627996 63.7859446,16.8217241 59.3430408,15.8295349 C59.3649786,0.876333736 59.3438125,14.8915644 59.3430408,-2.06057393e-13 C22.3792541,12.6138385 54.2435459,1.77492218 22.33604,12.5069286 C3.46687251,12.3727458 4.00153788,12.9557362 4.00153788,25.7303716 C4.00153788,33.518368 3.79296326,37.8556974 11.7953053,37.4778037 C20.1693775,55.3328444 19.8016159,57.0418752 23.4759245,56.9175107 C26.2413132,57.1067201 36.4693087,56.9101883 38.0492486,56.9175107 C39.6291886,56.924833 28.3204486,37.4778037 30.0435994,37.4778037 Z" id="Oval-2" fill="#FFEFF0"></path>
                                <g id="megaphone-(3)" transform="translate(0.000000, 6.000000)" fill-rule="nonzero" fill="#859DBA">
                                    <path d="M55.3109238,13.4015154 L55.3109238,3.24010573 C55.3109238,2.12109251 54.736541,1.11518943 53.7744375,0.54939207 C52.8086426,-0.0186255507 51.646957,-0.0303436123 50.6673809,0.51892511 C41.3128652,5.76318943 31.1367656,8.82579736 20.4218438,9.62225551 C20.3397715,9.62829956 10.6553672,9.67073128 10.6553672,9.67073128 C8.22309961,9.67073128 6.21275977,11.5114537 5.93455078,13.8757885 L3.94672852,13.8757885 C1.77064453,13.8757885 0,15.6505198 0,17.8320529 L0,26.524141 C0,28.705674 1.77064453,30.4805286 3.94672852,30.4805286 L5.93430469,30.4805286 C6.134625,32.1821145 7.23171094,33.6114714 8.73792773,34.2795242 L15.8112773,53.8484405 C16.2533848,55.0665022 17.4191309,55.8850396 18.7124766,55.8850396 L25.8106816,55.8850396 C26.816959,55.8850396 27.7622051,55.3917709 28.339418,54.5655859 C28.9166309,53.7391542 29.0557969,52.6799648 28.71225,51.7335154 L22.6350879,34.9289515 C32.5381465,35.9602643 41.9582461,38.9502203 50.6672578,43.8325815 C51.1477559,44.1019736 51.6720586,44.2362996 52.1955,44.2362996 C52.738998,44.2361762 53.2820039,44.0913656 53.7740684,43.8019912 C54.7361719,43.2360705 55.3108008,42.2302907 55.3108008,41.1110308 L55.3108008,30.9496211 C59.6421738,30.3871542 63,26.6683348 63,22.17563 C63,17.6828018 59.6421738,13.963859 55.3109238,13.4015154 Z M5.9002207,28.4291454 L3.94672852,28.4291454 C3.44875781,28.4291454 2.04381055,28.023207 2.04381055,27.5240176 L2.04381055,16.8320529 C2.04381055,16.3332335 3.44875781,15.9270485 3.94672852,15.9270485 L5.9002207,15.9270485 L5.9002207,28.4291454 Z M9.95818359,32.4839648 C9.36140625,32.2158062 7.94403125,31.6157181 7.94403125,30.9189251 L7.94403125,13.4371454 C7.9441543,12.4914361 9.71184375,11.7219912 10.6552441,11.7219912 L18.9403594,11.7219912 L18.9403594,32.6342026 C18.9403594,32.6342026 10.5830156,32.6309956 10.5469629,32.6287753 C10.2416836,32.5933744 10.1774531,32.5775859 9.95818359,32.4839648 Z M27.104248,52.3249512 C27.0952659,52.3542453 27.376384,53.0429792 27.248291,53.4061279 C27.120198,53.7692767 26.5828762,53.8068899 26.576416,53.8068899 L17.7123535,53.8334097 C17.7002949,53.8334097 15.503498,47.4507195 11.1219629,34.6853392 L20.3092539,34.6853392 L27.104248,52.3249512 Z M53.2671133,42.1111542 C53.1951309,42.1929339 51.9579121,42.1216388 51.939209,42.1111542 C42.5834629,36.8663965 31.6539336,33.7762819 20.9841699,32.7999824 L20.9841699,11.5527577 C31.6547949,10.574978 42.8409844,7.42627313 52.1955,2.18200881 C52.3099336,2.20063436 53.2671133,2.21802643 53.2671133,2.24010573 L53.2671133,42.1111542 Z M55.3109238,28.8609868 L55.3109238,15.4901498 C56.1938536,15.6677195 60.9561895,16.9130859 60.9561895,22.1755066 C60.9561895,27.4379273 55.9535531,28.7317689 55.3109238,28.8609868 Z" id="Shape"></path>
                                </g>
                            </g>
                        </g>
                    </g>
                </g>
            </g>
        </g>
    </g>
</svg>