<?xml version="1.0" encoding="UTF-8" standalone="no"?>
<svg width="57px" height="66px" viewBox="0 0 57 66" version="1.1" xmlns="http://www.w3.org/2000/svg" xmlns:xlink="http://www.w3.org/1999/xlink">
    <!-- Generator: Sketch 46.1 (44463) - http://www.bohemiancoding.com/sketch -->
    <title>line-chart (3)</title>
    <desc>Created with Sketch.</desc>
    <defs></defs>
    <g id="Page-1" stroke="none" stroke-width="1" fill="none" fill-rule="evenodd">
        <g id="Desktop-HD" transform="translate(-727.000000, -881.000000)">
            <g id="Group-42" transform="translate(0.000000, 580.000000)">
                <g id="Group-39" transform="translate(349.000000, 63.000000)">
                    <g id="Group-38" transform="translate(0.000000, 91.000000)">
                        <g id="Group-37" transform="translate(378.000000, 147.000000)">
                            <g id="line-chart-(3)">
                                <rect id="Rectangle-5" fill="#FFEFF0" x="5" y="2" width="52" height="41" rx="3"></rect>
                                <path d="M49.7577863,5.10130242 L32.9087637,5.10130242 C32.3138873,2.19381506 29.736004,0 26.6553848,0 C23.5747656,0 20.9967542,2.19381506 20.4018778,5.10130242 L3.55298339,5.10130242 C1.66006661,5.10130242 0.119949232,6.6414198 0.119949232,8.53433658 L0.119949232,45.001466 C0.119949232,46.8943828 1.65993846,48.4345002 3.55298339,48.4345002 L19.5596701,48.4345002 L14.3611012,63.9235855 C14.1359401,64.5944554 14.4973256,65.3209428 15.1683236,65.5462321 C15.3035228,65.5915975 15.4410287,65.6131268 15.5762279,65.6131268 C16.1117705,65.6131268 16.6111745,65.2746803 16.7909702,64.7390096 L22.2632694,48.4345002 L31.0475002,48.4345002 L36.5197995,64.7390096 C36.6995952,65.2748085 37.1989992,65.6131268 37.7345418,65.6131268 C37.8697409,65.6131268 38.0072468,65.5914693 38.142446,65.5462321 C38.8134441,65.3209428 39.1748296,64.5944554 38.9496685,63.9235855 L33.7510995,48.4345002 L49.7577863,48.4345002 C51.6507031,48.4345002 53.1908204,46.8943828 53.1908204,45.001466 L53.1908204,8.53433658 C53.1906923,6.64129165 51.6507031,5.10130242 49.7577863,5.10130242 Z M26.6553848,2.56301777 C28.3123758,2.56301777 29.7262646,3.62333822 30.2541181,5.10130242 L23.0567797,5.10130242 C23.5846332,3.62333822 24.998522,2.56301777 26.6553848,2.56301777 Z M50.6276745,45.001466 C50.6276745,45.4811348 50.2374551,45.8714824 49.7576581,45.8714824 L46.4102288,45.8714824 L46.4102288,27.6022917 C46.4102288,26.8946425 45.8364972,26.3207829 45.1287199,26.3207829 C44.4209425,26.3207829 43.847211,26.8946425 43.847211,27.6022917 L43.847211,45.8716106 L39.9049052,45.8716106 L39.9049052,31.5224274 C39.9049052,30.8147782 39.3311737,30.2409185 38.6233963,30.2409185 C37.915619,30.2409185 37.3418874,30.8147782 37.3418874,31.5224274 L37.3418874,45.8714824 L33.7428979,45.8714824 L33.7428979,35.7148838 C33.7428979,35.0072345 33.1691664,34.4333749 32.461389,34.4333749 C31.7536116,34.4333749 31.1798801,35.0072345 31.1798801,35.7148838 L31.1798801,45.8714824 L27.9366374,45.8714824 L27.9366374,32.4576726 C27.9366374,31.7500234 27.3629059,31.1761637 26.6551285,31.1761637 C25.9473512,31.1761637 25.3736196,31.7500234 25.3736196,32.4576726 L25.3736196,45.8714824 L21.6525023,45.8714824 L21.6525023,38.8202361 C21.6525023,38.1125869 21.0787708,37.5387272 20.3709934,37.5387272 C19.663216,37.5387272 19.0894845,38.1125869 19.0894845,38.8202361 L19.0894845,45.8714824 L16.1136927,45.8714824 L16.1136927,39.3377094 C16.1136927,38.6300602 15.5399612,38.0562005 14.8321838,38.0562005 C14.1244065,38.0562005 13.550675,38.6300602 13.550675,39.3377094 L13.550675,45.8714824 L10.1191786,45.8714824 L10.1191786,40.8304109 C10.1191786,40.1227617 9.54544709,39.548902 8.83766973,39.548902 C8.12989237,39.548902 7.55616085,40.1227617 7.55616085,40.8304109 L7.55616085,45.8714824 L3.55272709,45.8714824 C3.07305831,45.8714824 2.6827107,45.4811348 2.6827107,45.001466 L2.6827107,8.53433658 C2.6827107,8.0546678 3.07293016,7.6643202 3.55272709,7.6643202 L21.5538261,7.6643202 L31.756431,7.6643202 L49.75753,7.6643202 C50.2371988,7.6643202 50.6275464,8.0546678 50.6275464,8.53433658 L50.6275464,45.001466 L50.6276745,45.001466 Z" id="Shape" fill="#859DBA" fill-rule="nonzero"></path>
                                <path d="M46.4040775,13.6972796 C46.4024116,13.6797229 46.3990796,13.662807 46.3966448,13.6455066 C46.3933128,13.6214143 46.3903654,13.5971937 46.3856238,13.5732295 C46.3816511,13.5529817 46.3760125,13.5332464 46.3710146,13.5133831 C46.3658886,13.4927508 46.3612751,13.4719903 46.3551239,13.4516143 C46.3492289,13.4320072 46.3417962,13.4130409 46.334876,13.3938183 C46.3276996,13.3735704 46.3209076,13.3531944 46.3127059,13.3332029 C46.3052732,13.3153899 46.2966871,13.2983459 46.2884854,13.2810455 C46.2788741,13.2604132 46.2696472,13.2396528 46.2588826,13.2195331 C46.2501683,13.2032579 46.2401725,13.1876235 46.2306894,13.1717328 C46.2187713,13.1517412 46.2074941,13.1314934 46.1944227,13.1120145 C46.1830172,13.0948423 46.170074,13.0788234 46.1578997,13.0622919 C46.1453409,13.0452479 46.1334228,13.0279475 46.1198389,13.011416 C46.0968998,12.9834791 46.072423,12.9569519 46.0471773,12.9310654 C46.0429483,12.9268364 46.0394882,12.9220949 46.0352593,12.9178659 C46.0311584,12.913765 46.026545,12.910305 46.0224442,12.9063323 C45.9964295,12.8809584 45.969646,12.8563534 45.941581,12.8332863 C45.9259466,12.8204712 45.9095432,12.8091939 45.8933962,12.7972759 C45.8759677,12.7842045 45.8589236,12.7707487 45.8408544,12.7585743 C45.8224006,12.7462718 45.8033062,12.7356353 45.784468,12.724358 C45.7674239,12.714106 45.7506361,12.7034694 45.7330795,12.6939863 C45.7143694,12.6839905 45.6951468,12.6755325 45.6760523,12.666562 C45.6572141,12.6575914 45.6386323,12.6482364 45.6191533,12.6401629 C45.6010841,12.6327301 45.5826303,12.6267071 45.5644329,12.6201714 C45.5431599,12.6124823 45.5222713,12.6044088 45.5004856,12.5978731 C45.4826726,12.5924908 45.4647315,12.5886462 45.4467904,12.5840328 C45.4242358,12.578266 45.4019376,12.5719866 45.3788704,12.5675013 C45.3588789,12.5635287 45.338631,12.561222 45.3185113,12.5582745 C45.2972383,12.5550707 45.2763497,12.5512262 45.2548204,12.5490476 C45.2206041,12.5457157 45.1862596,12.5444342 45.151787,12.5437934 C45.144098,12.5436653 45.1366652,12.5426401 45.1289762,12.5426401 L39.5932422,12.5426401 C38.8854649,12.5426401 38.3117334,13.1164998 38.3117334,13.824149 C38.3117334,14.5317982 38.8854649,15.1056578 39.5932422,15.1056578 L42.0350293,15.1056578 L31.3949173,25.7457698 L28.6016124,22.9523368 C28.3613295,22.7120538 28.0353136,22.5769828 27.6954574,22.5769828 C27.3556013,22.5769828 27.0295854,22.7120538 26.7893025,22.9523368 L17.5418062,32.1999612 L14.7810516,29.4392066 C14.2806224,28.9389055 13.469171,28.9389055 12.9687418,29.4392066 L8.29225955,34.1156888 C7.79183033,34.616118 7.79183033,35.4275695 8.29225955,35.9281268 C8.54253824,36.1782774 8.87047636,36.3034808 9.19841448,36.3034808 C9.52635261,36.3034808 9.85441888,36.1782774 10.1045694,35.9281268 L13.8747686,32.1577995 L16.6355232,34.918426 C17.1359524,35.418727 17.9474038,35.418727 18.447833,34.918426 L27.6953293,25.6709297 L30.4886342,28.4643628 C30.7289171,28.7046457 31.054933,28.8397167 31.3947891,28.8397167 C31.7346453,28.8397167 32.0606612,28.7046457 32.3009441,28.4643628 L43.847211,16.9180959 L43.847211,19.3598829 C43.847211,20.0675321 44.4209425,20.6413918 45.1287199,20.6413918 C45.8364972,20.6413918 46.4102288,20.0675321 46.4102288,19.3598829 L46.4102288,13.8249179 C46.4104851,13.7821155 46.4083065,13.7395694 46.4040775,13.6972796 Z" id="Shape" fill="#859DBA" fill-rule="nonzero"></path>
                                <circle id="Oval" fill="#859DBA" fill-rule="nonzero" cx="9.19854263" cy="13.8235082" r="1.28150889"></circle>
                                <circle id="Oval" fill="#859DBA" fill-rule="nonzero" cx="9.19854263" cy="19.0482199" r="1.28150889"></circle>
                                <circle id="Oval" fill="#859DBA" fill-rule="nonzero" cx="9.19854263" cy="24.2729317" r="1.28150889"></circle>
                            </g>
                        </g>
                    </g>
                </g>
            </g>
        </g>
    </g>
</svg>