<?xml version="1.0" encoding="UTF-8" standalone="no"?>
<svg width="142px" height="182px" viewBox="0 0 142 182" version="1.1" xmlns="http://www.w3.org/2000/svg" xmlns:xlink="http://www.w3.org/1999/xlink">
    <!-- Generator: Sketch 46.1 (44463) - http://www.bohemiancoding.com/sketch -->
    <title>analytics (13)</title>
    <desc>Created with Sketch.</desc>
    <defs></defs>
    <g id="Page-1" stroke="none" stroke-width="1" fill="none" fill-rule="evenodd">
        <g id="Desktop-HD" transform="translate(-998.000000, -5670.000000)" fill-rule="nonzero">
            <g id="Group-17" transform="translate(0.000000, 3737.000000)">
                <g id="Group-6">
                    <g id="Group-9">
                        <g id="Group-25">
                            <g id="Group-12" transform="translate(298.000000, 1588.000000)">
                                <g id="Group-10">
                                    <g id="analytics-(13)" transform="translate(700.000000, 345.000000)">
                                        <path d="M106.956165,0 L0.0637773945,0 C0.131767132,7.53974146 0.0637773945,3.37577804 0.0637773945,7.53974146 L0.0637773945,173.662159 C0.0637773945,177.826122 0.0622407148,173.662159 0.0637773945,181.2019 L141.323333,181.2019 C141.323333,173.321864 141.323333,177.826122 141.323333,173.662159 L141.323333,34.3671679 L106.956165,0 Z" id="Shape" fill="#EAEAEA"></path>
                                        <g id="graph-(8)" transform="translate(9.863176, 32.056258)">
                                            <rect id="Rectangle-path" fill="#D18B33" x="5.1526569" y="68.7082328" width="17.175523" height="24.0457322"></rect>
                                            <rect id="Rectangle-path" fill="#F9A53D" x="30.9159414" y="53.2502621" width="17.175523" height="39.5037029"></rect>
                                            <rect id="Rectangle-path" fill="#BE3B2F" x="56.6792259" y="39.5098437" width="17.175523" height="53.2441213"></rect>
                                            <rect id="Rectangle-path" fill="#F05244" x="82.4425104" y="25.7694253" width="17.175523" height="66.9845397"></rect>
                                            <path d="M101.335586,94.4715173 L1.7175523,94.4715173 C0.76946343,94.4715173 0,93.7037714 0,92.753965 C0,91.8041585 0.76946343,91.0364127 1.7175523,91.0364127 L101.335586,91.0364127 C102.283675,91.0364127 103.053138,91.8041585 103.053138,92.753965 C103.053138,93.7037714 102.283675,94.4715173 101.335586,94.4715173 Z" id="Shape" fill="#424A60"></path>
                                            <path d="M13.791945,43.5117405 C13.1976719,43.5117405 12.6205743,43.2042987 12.3028271,42.6529644 C11.8287827,41.8302568 12.1104613,40.7808324 12.9314513,40.306788 L79.8661819,1.66186122 C80.6871719,1.18609924 81.7365964,1.46949537 82.2123584,2.29048536 C82.6864028,3.11319292 82.4047242,4.16261737 81.5837342,4.63666181 L14.6490036,43.2815885 C14.3793478,43.4378858 14.0822113,43.5117405 13.791945,43.5117405 Z" id="Shape" fill="#BDC3C7"></path>
                                            <path d="M80.7266756,4.86681381 C80.6717139,4.86681381 80.6167523,4.86337871 80.5583555,4.85822605 L65.8526727,3.43265764 C64.9097365,3.34162737 64.2175629,2.5017443 64.3103107,1.55709053 C64.401341,0.61415432 65.2326363,-0.081454361 66.1858779,0.0147285678 L80.8915606,1.44029698 C81.8344968,1.53132725 82.5266704,2.37121032 82.4339226,3.31586409 C82.348045,4.20212107 81.6009097,4.86681381 80.7266756,4.86681381 Z" id="Shape" fill="#BDC3C7"></path>
                                            <path d="M74.6053192,18.3152483 C74.3665795,18.3152483 74.1261221,18.2671569 73.8942526,18.1606686 C73.0303238,17.7673491 72.6490272,16.7505582 73.0423466,15.8866294 L79.1602679,2.43819486 C79.5535874,1.57426606 80.5720959,1.18953434 81.4343072,1.58628892 C82.298236,1.9796084 82.6795326,2.99639936 82.2862131,3.86032817 L76.1682918,17.3087627 C75.8831781,17.9408219 75.2579891,18.3152483 74.6053192,18.3152483 Z" id="Shape" fill="#BDC3C7"></path>
                                        </g>
                                        <g id="Group" transform="translate(10.691008, 0.000000)">
                                            <path d="M96.2651569,26.8277951 C96.2651569,30.9917585 96.1977397,25.5186931 96.2651569,34.3675366 L130.632325,34.3675366 L96.2651569,0 L96.2651569,26.8277951 Z" id="Shape" fill="#9BAAAB"></path>
                                            <rect id="Rectangle-path" fill="#424A60" x="0.245524536" y="162.316787" width="116.252181" height="5.87784265"></rect>
                                            <polygon id="Rectangle-path" fill="#424A60" points="0.245524536 146.131338 48.2868784 146.131338 48.2868784 152.00918 0.245524536 152.00918"></polygon>
                                        </g>
                                    </g>
                                </g>
                            </g>
                        </g>
                    </g>
                </g>
            </g>
        </g>
    </g>
</svg>