<?xml version="1.0" encoding="UTF-8" standalone="no"?>
<svg width="49px" height="39px" viewBox="0 0 49 39" version="1.1" xmlns="http://www.w3.org/2000/svg" xmlns:xlink="http://www.w3.org/1999/xlink">
    <!-- Generator: Sketch 46.2 (44496) - http://www.bohemiancoding.com/sketch -->
    <title>video-player (1)</title>
    <desc>Created with Sketch.</desc>
    <defs></defs>
    <g id="Page-1" stroke="none" stroke-width="1" fill="none" fill-rule="evenodd">
        <g id="Desktop-HD" transform="translate(-372.000000, -4237.000000)" fill-rule="nonzero" fill="#F06736">
            <g id="Group-5" transform="translate(300.000000, 3158.000000)">
                <g id="video-player-(1)" transform="translate(72.000000, 1079.000000)">
                    <path d="M30.6082308,19.2613965 L21.3005385,13.1363145 C21.0399231,12.9656873 20.7099231,12.9543121 20.4383077,13.1074392 C20.1683846,13.2614412 20,13.5554452 20,13.8748244 L20,26.1249883 C20,26.4443676 20.1683846,26.7383715 20.4391538,26.8923736 C20.5660769,26.9641245 20.7056923,27 20.8461538,27 C21.0043846,27 21.1626154,26.9536244 21.3005385,26.8634982 L30.6082308,20.7384162 C30.8519231,20.5774141 31,20.2991604 31,19.9999064 C31,19.7006524 30.8519231,19.4223986 30.6082308,19.2613965 Z M21.6923077,24.531592 L21.6923077,15.4682207 L28.5774615,19.9999064 L21.6923077,24.531592 Z" id="Shape"></path>
                    <path d="M48.1551724,0 L39.7068966,0 L9.29310345,0 L0.844827586,0 C0.378482759,0 0,0.378978261 0,0.847826087 L0,10.173913 L0,19.5 L0,28.826087 L0,38.1521739 C0,38.6210217 0.378482759,39 0.844827586,39 L9.29310345,39 L39.7068966,39 L48.1551724,39 C48.6215172,39 49,38.6210217 49,38.1521739 L49,28.826087 L49,19.5 L49,10.173913 L49,0.847826087 C49,0.378978261 48.6215172,0 48.1551724,0 Z M8.44827586,18.6521739 L1.68965517,18.6521739 L1.68965517,11.0217391 L8.44827586,11.0217391 L8.44827586,18.6521739 Z M1.68965517,20.3478261 L8.44827586,20.3478261 L8.44827586,27.9782609 L1.68965517,27.9782609 L1.68965517,20.3478261 Z M10.137931,28.826087 L10.137931,19.5 L10.137931,10.173913 L10.137931,1.69565217 L38.862069,1.69565217 L38.862069,10.173913 L38.862069,19.5 L38.862069,28.826087 L38.862069,37.3043478 L10.137931,37.3043478 L10.137931,28.826087 Z M47.3103448,18.6521739 L40.5517241,18.6521739 L40.5517241,11.0217391 L47.3103448,11.0217391 L47.3103448,18.6521739 Z M40.5517241,20.3478261 L47.3103448,20.3478261 L47.3103448,27.9782609 L40.5517241,27.9782609 L40.5517241,20.3478261 Z M47.3103448,1.69565217 L47.3103448,9.32608696 L40.5517241,9.32608696 L40.5517241,1.69565217 L47.3103448,1.69565217 Z M1.68965517,1.69565217 L8.44827586,1.69565217 L8.44827586,9.32608696 L1.68965517,9.32608696 L1.68965517,1.69565217 Z M1.68965517,37.3043478 L1.68965517,29.673913 L8.44827586,29.673913 L8.44827586,37.3043478 L1.68965517,37.3043478 Z M47.3103448,37.3043478 L40.5517241,37.3043478 L40.5517241,29.673913 L47.3103448,29.673913 L47.3103448,37.3043478 Z" id="Shape"></path>
                </g>
            </g>
        </g>
    </g>
</svg>