<?xml version="1.0" encoding="UTF-8" standalone="no"?>
<svg width="50px" height="37px" viewBox="0 0 50 37" version="1.1" xmlns="http://www.w3.org/2000/svg" xmlns:xlink="http://www.w3.org/1999/xlink">
    <!-- Generator: Sketch 46.2 (44496) - http://www.bohemiancoding.com/sketch -->
    <title>browser (4)</title>
    <desc>Created with Sketch.</desc>
    <defs></defs>
    <g id="Page-1" stroke="none" stroke-width="1" fill="none" fill-rule="evenodd">
        <g id="Desktop-HD" transform="translate(-374.000000, -3194.000000)" fill-rule="nonzero" fill="#2BB5C5">
            <g id="browser-(4)" transform="translate(374.000000, 3194.000000)">
                <path d="M49.1900648,3.05337362e-15 L0.809935205,3.05337362e-15 C0.362526998,3.05337362e-15 0,0.360753411 0,0.805732752 L0,36.1942672 C0,36.6392466 0.362526998,37 0.809935205,37 L49.1900648,37 C49.637473,37 50,36.6392466 50,36.1942672 L50,0.805732752 C50,0.360753411 49.637473,0 49.1900648,3.05337362e-15 Z M48.3801296,1.6114655 L48.3801296,7.53725389 L1.61987041,7.53725389 L1.61987041,1.6114655 L48.3801296,1.6114655 Z M1.61987041,35.3884271 L1.61987041,9.14871939 L48.3801296,9.14871939 L48.3801296,35.3885345 L1.61987041,35.3885345 L1.61987041,35.3884271 Z" id="Shape"></path>
                <path d="M15.1989902,12 L5.80100976,12 C5.35853197,12 5,12.4477333 5,13 C5,13.5522667 5.35853197,14 5.80100976,14 L15.1989902,14 C15.641468,14 16,13.5522667 16,13 C16,12.4477333 15.641468,12 15.1989902,12 Z" id="Shape"></path>
                <path d="M15.1989902,15 L5.80100976,15 C5.35853197,15 5,15.4477333 5,16 C5,16.5522667 5.35853197,17 5.80100976,17 L15.1989902,17 C15.641468,17 16,16.5522667 16,16 C16,15.4477333 15.641468,15 15.1989902,15 Z" id="Shape"></path>
                <path d="M15.1989902,20 L5.80100976,20 C5.35853197,20 5,20.4477333 5,21 C5,21.5522667 5.35853197,22 5.80100976,22 L15.1989902,22 C15.641468,22 16,21.5522667 16,21 C16,20.4477333 15.641468,20 15.1989902,20 L15.1989902,20 Z" id="Shape"></path>
                <path d="M15.1989902,23 L5.80100976,23 C5.35853197,23 5,23.4477333 5,24 C5,24.5522667 5.35853197,25 5.80100976,25 L15.1989902,25 C15.641468,25 16,24.5522667 16,24 C16,23.4477333 15.641468,23 15.1989902,23 Z" id="Shape"></path>
                <path d="M15.1989902,28 L5.80100976,28 C5.35853197,28 5,28.4477333 5,29 C5,29.5522667 5.35853197,30 5.80100976,30 L15.1989902,30 C15.641468,30 16,29.5522667 16,29 C16,28.4477333 15.641468,28 15.1989902,28 Z" id="Shape"></path>
                <path d="M15.1989902,31 L5.80100976,31 C5.35853197,31 5,31.4477333 5,32 C5,32.5522667 5.35853197,33 5.80100976,33 L15.1989902,33 C15.641468,33 16,32.5522667 16,32 C16,31.4477333 15.641468,31 15.1989902,31 Z" id="Shape"></path>
                <path d="M30.1989902,23 L20.8010098,23 C20.358532,23 20,23.4477333 20,24 C20,24.5522667 20.358532,25 20.8010098,25 L30.1989902,25 C30.641468,25 31,24.5522667 31,24 C31,23.4477333 30.641468,23 30.1989902,23 Z" id="Shape"></path>
                <path d="M30.1989902,28 L20.8010098,28 C20.358532,28 20,28.4477333 20,29 C20,29.5522667 20.358532,30 20.8010098,30 L30.1989902,30 C30.641468,30 31,29.5522667 31,29 C31,28.4477333 30.641468,28 30.1989902,28 Z" id="Shape"></path>
                <path d="M30.1989902,31 L20.8010098,31 C20.358532,31 20,31.4477333 20,32 C20,32.5522667 20.358532,33 20.8010098,33 L30.1989902,33 C30.641468,33 31,32.5522667 31,32 C31,31.4477333 30.641468,31 30.1989902,31 Z" id="Shape"></path>
                <path d="M30.1989902,12 L20.8010098,12 C20.358532,12 20,12.3500266 20,12.7817748 L20,20.2182252 C20,20.6499734 20.358532,21 20.8010098,21 L30.1989902,21 C30.641468,21 31,20.6499734 31,20.2182252 L31,12.7817748 C31,12.3500266 30.641468,12 30.1989902,12 Z M29.6989902,19.6632089 L21.3010098,19.6632089 L21.3010098,13.3367911 L29.6989902,13.3367911 L29.6989902,19.6632089 Z" id="Shape"></path>
                <path d="M44.1989902,20 L34.8010098,20 C34.358532,20 34,20.4477333 34,21 C34,21.5522667 34.358532,22 34.8010098,22 L44.1989902,22 C44.641468,22 45,21.5522667 45,21 C45,20.4477333 44.6413612,20 44.1989902,20 L44.1989902,20 Z" id="Shape"></path>
                <path d="M44.1989902,15 L34.8010098,15 C34.358532,15 34,15.4477333 34,16 C34,16.5522667 34.358532,17 34.8010098,17 L44.1989902,17 C44.641468,17 45,16.5522667 45,16 C45,15.4477333 44.6413612,15 44.1989902,15 Z" id="Shape"></path>
                <path d="M44.1989902,12 L34.8010098,12 C34.358532,12 34,12.4477333 34,13 C34,13.5522667 34.358532,14 34.8010098,14 L44.1989902,14 C44.641468,14 45,13.5522667 45,13 C45,12.4477333 44.6413612,12 44.1989902,12 Z" id="Shape"></path>
                <path d="M44.1989902,23 L34.8010098,23 C34.358532,23 34,23.3500266 34,23.7817748 L34,31.2182252 C34,31.6499734 34.358532,32 34.8010098,32 L44.1989902,32 C44.641468,32 45,31.6499734 45,31.2182252 L45,23.7817748 C45,23.3500266 44.6413612,23 44.1989902,23 Z M43.6989902,30.6633131 L35.3010098,30.6633131 L35.3010098,24.3368953 L43.6989902,24.3368953 L43.6989902,30.6633131 Z" id="Shape"></path>
                <path d="M10.8084462,7 L45.1915538,7 C45.6381395,7 46,6.68762791 46,6.30232558 L46,3.69767442 C46,3.31237209 45.6381395,3 45.1915538,3 L10.8084462,3 C10.3618605,3 10,3.31237209 10,3.69767442 L10,6.30232558 C10,6.68762791 10.3618605,7 10.8084462,7 Z M11,4 L45,4 L45,6 L11,6 L11,4 Z" id="Shape"></path>
                <path d="M4,6 C4.264,6 4.52133333,5.89333333 4.70813333,5.70666667 C4.89346667,5.52 5,5.26266667 5,5 C5,4.73733333 4.89333333,4.47866667 4.70813333,4.292 C4.52146667,4.10666667 4.26413333,4 4,4 C3.73733333,4 3.47866667,4.10666667 3.29333333,4.292 C3.10666667,4.47866667 3,4.736 3,5 C3,5.26266667 3.10666667,5.52133333 3.29333333,5.70666667 C3.48,5.89333333 3.73733333,6 4,6 Z" id="Shape"></path>
                <path d="M7,6 C7.26266667,6 7.52133333,5.89333333 7.70666667,5.70666667 C7.89333333,5.52 8,5.26266667 8,5 C8,4.736 7.89333333,4.47866667 7.70666667,4.292 C7.52133333,4.10666667 7.26266667,4 7,4 C6.73733333,4 6.48,4.10666667 6.29333333,4.292 C6.10666667,4.47866667 6,4.736 6,5 C6,5.26266667 6.10666667,5.52133333 6.29333333,5.70666667 C6.47986667,5.89333333 6.73733333,6 7,6 Z" id="Shape"></path>
            </g>
        </g>
    </g>
</svg>