<?xml version="1.0" encoding="UTF-8" standalone="no"?>
<svg width="33px" height="44px" viewBox="0 0 33 44" version="1.1" xmlns="http://www.w3.org/2000/svg" xmlns:xlink="http://www.w3.org/1999/xlink">
    <!-- Generator: Sketch 46.2 (44496) - http://www.bohemiancoding.com/sketch -->
    <title>paper-sheet-hand-drawn-interface-file-symbol</title>
    <desc>Created with Sketch.</desc>
    <defs></defs>
    <g id="Page-1" stroke="none" stroke-width="1" fill="none" fill-rule="evenodd">
        <g id="Desktop-HD" transform="translate(-380.000000, -3937.000000)" fill-rule="nonzero" fill="#F9D337">
            <g id="Group-5" transform="translate(300.000000, 3158.000000)">
                <g id="paper-sheet-hand-drawn-interface-file-symbol" transform="translate(80.000000, 779.000000)">
                    <path d="M32.1435976,10.1805506 C32.0508559,7.36550998 31.9992594,4.54208569 32.0269407,1.72563211 C32.0279764,1.60025335 32.0078275,1.48956962 31.9795812,1.38529141 C32.0351321,0.771585432 31.6741454,0.123402649 30.888053,0.144032213 C20.9710867,0.404209636 11.0564742,0.0158274798 1.13903706,2.06089373e-06 C0.313588276,-0.00141092294 -0.0473984514,0.724014976 0.0543821047,1.3601403 C0.0211457159,1.47091823 -0.0012629542,1.58998567 5.52028631e-05,1.72563211 C0.149948492,13.5650236 0.556411637,30.576407 0.569499054,42.4181535 C0.569499054,42.683135 0.644728161,42.8994158 0.765245378,43.0697274 C0.838120633,43.5719019 1.19873074,44.0158614 1.85055941,43.999565 C6.13701787,43.8934028 10.4252653,43.8240724 14.7086166,43.6140088 C18.5258112,43.4270239 23.2836049,43.6776873 26.9320754,42.4310587 C28.2239635,41.9894542 29.3799872,41.3371266 30.3706764,40.3923115 C32.18173,38.6649858 32.8000399,36.346562 32.9558649,33.9031361 C33.1059464,31.5564526 32.8296042,29.0953173 32.7746183,26.9332637 C32.6331988,21.3478328 32.3271981,15.7648511 32.1435976,10.1805506 Z M25.8684168,32.2783931 C25.1709234,32.2822553 24.4962153,32.8275728 24.8079594,33.6646244 C25.4352139,35.3493722 25.7221014,37.4416244 24.7577753,39.0526144 C23.5911122,41.0009307 21.5099305,40.9478025 19.5314709,41.1975238 C18.3209319,41.3501261 17.0347872,41.2693034 15.8146446,41.3042512 C14.8658539,41.3310037 2.8436966,41.624245 2.8436966,41.671156 C2.81526207,30.2732749 2.43873992,13.7043438 2.28649278,2.30815825 C11.4427884,2.347816 20.5962593,2.6623462 29.7520841,2.46650664 C29.7210133,10.8438994 30.5395888,24.371053 30.5955163,32.7454314 C29.1750138,32.2977039 27.7072459,32.1077989 26.191177,32.2092511 C26.0725428,32.2162218 25.9673727,32.2434453 25.8684168,32.2783931 Z M26.7629747,40.067702 C27.6823892,38.5007029 27.9123135,36.5764073 27.4337283,34.4917852 C28.5410744,34.5348341 29.6330734,34.7486656 30.6672617,35.1872558 C30.6715928,35.2007263 30.6744174,35.2145735 30.6792193,35.2270078 C30.3440308,37.6974687 28.7815439,39.213412 26.7629747,40.067702 Z" id="Shape"></path>
                </g>
            </g>
        </g>
    </g>
</svg>