<?xml version="1.0" encoding="UTF-8" standalone="no"?>
<svg width="37px" height="37px" viewBox="0 0 37 37" version="1.1" xmlns="http://www.w3.org/2000/svg" xmlns:xlink="http://www.w3.org/1999/xlink">
    <!-- Generator: Sketch 46.1 (44463) - http://www.bohemiancoding.com/sketch -->
    <title>youtube-logo</title>
    <desc>Created with Sketch.</desc>
    <defs></defs>
    <g id="Page-1" stroke="none" stroke-width="1" fill="none" fill-rule="evenodd">
        <g id="Desktop-HD" transform="translate(-904.000000, -1069.000000)" fill-rule="nonzero" fill="#FFFFFF">
            <g id="Group-42" transform="translate(0.000000, 580.000000)">
                <g id="Group-40" transform="translate(0.000000, 427.000000)">
                    <g id="Group-47" transform="translate(300.000000, 61.000000)">
                        <g id="Group-41" transform="translate(95.000000, 0.000000)">
                            <g id="youtube-logo" transform="translate(508.958377, 0.808511)">
                                <g id="youtube-logotype" transform="translate(0.041623, 0.191489)">
                                    <polygon id="Shape" points="9.47594596 19.368928 10.9060476 19.368928 10.9060476 27.1091919 12.2590161 27.1091919 12.2590161 19.368928 13.71569 19.368928 13.71569 18.1012121 9.47594596 18.1012121"></polygon>
                                    <path d="M20.9160212,20.315194 C20.4687223,20.315194 20.0513172,20.5595107 19.659008,21.0429774 L19.659008,18.100843 L18.4429602,18.100843 L18.4429602,27.1091919 L19.659008,27.1091919 L19.659008,26.4589108 C20.0660795,26.9611994 20.4831156,27.2018255 20.9160212,27.2018255 C21.3998569,27.2018255 21.7253665,26.9471752 21.8877523,26.44747 C21.9693142,26.1629259 22.0110178,25.715996 22.0110178,25.0948706 L22.0110178,22.422149 C22.0110178,21.7866302 21.9693142,21.3430219 21.8877523,21.0732402 C21.7257356,20.5698444 21.3994879,20.315194 20.9160212,20.315194 Z M20.7942319,25.1900877 C20.7942319,25.7968198 20.6163457,26.0957572 20.265002,26.0957572 C20.0653414,26.0957572 19.8619902,26.0001711 19.6586389,25.7964508 L19.6586389,21.7058064 C19.8619902,21.5046695 20.0653414,21.4094524 20.265002,21.4094524 C20.6159767,21.4094524 20.7942319,21.7201997 20.7942319,22.3254556 L20.7942319,25.1900877 Z" id="Shape"></path>
                                    <path d="M16.1736196,25.526669 C15.9038378,25.9079065 15.6488184,26.0957572 15.4045016,26.0957572 C15.2421159,26.0957572 15.1494822,26.0001711 15.1199575,25.8112131 C15.1088858,25.7720929 15.1088858,25.6237314 15.1088858,25.3388183 L15.1088858,20.397125 L13.892469,20.397125 L13.892469,25.7038171 C13.892469,26.1780573 13.9334345,26.4984001 13.999865,26.7021203 C14.1220234,27.0423923 14.3921742,27.2018255 14.7833762,27.2018255 C15.2310442,27.2018255 15.6901529,26.9316747 16.1736196,26.3773489 L16.1736196,27.1095609 L17.3907745,27.1095609 L17.3907745,20.397125 L16.1736196,20.397125 L16.1736196,25.526669 L16.1736196,25.526669 Z" id="Shape"></path>
                                    <path d="M17.217686,14.1962041 C17.6136858,14.1962041 17.8037509,13.8821353 17.8037509,13.2547359 L17.8037509,10.4015447 C17.8037509,9.77377616 17.6136858,9.46118362 17.217686,9.46118362 C16.8213172,9.46118362 16.630883,9.77414522 16.630883,10.4015447 L16.630883,13.2547359 C16.630883,13.8825044 16.8213172,14.1962041 17.217686,14.1962041 Z" id="Shape"></path>
                                    <path d="M18.037734,0 C8.07573802,0 0,8.07573802 0,18.037734 C0,27.99973 8.07573802,36.075468 18.037734,36.075468 C27.99973,36.075468 36.075468,27.99973 36.075468,18.037734 C36.075468,8.07573802 27.99973,0 18.037734,0 Z M20.043936,8.43667723 L21.2695793,8.43667723 L21.2695793,13.4307768 C21.2695793,13.7190115 21.2695793,13.8684802 21.2843416,13.9087076 C21.3112829,14.0991417 21.4079762,14.1965732 21.5725763,14.1965732 C21.8183693,14.1965732 22.0763411,14.006139 22.3490754,13.621211 L22.3490754,8.43667723 L23.5780402,8.43667723 L23.5780402,15.2196033 L22.3490754,15.2196033 L22.3490754,14.4800101 C21.8597038,15.040979 21.3932139,15.3129751 20.9448078,15.3129751 C20.5491771,15.3129751 20.2760738,15.1524347 20.1528083,14.8092103 C20.0849015,14.6036447 20.043936,14.2792423 20.043936,13.8005734 L20.043936,8.43667723 L20.043936,8.43667723 Z M15.4019182,10.6484448 C15.4019182,9.92324485 15.5251838,9.39327685 15.7864772,9.05042151 C16.1263801,8.58651498 16.6050489,8.35474624 17.217686,8.35474624 C17.8332756,8.35474624 18.3115754,8.58651498 18.6514783,9.05042151 C18.9090811,9.3929078 19.0323467,9.92324485 19.0323467,10.6484448 L19.0323467,13.0237053 C19.0323467,13.7448456 18.9090811,14.2796113 18.6514783,14.6187761 C18.3115754,15.0815755 17.8332756,15.3129751 17.217686,15.3129751 C16.6050489,15.3129751 16.1263801,15.0815755 15.7864772,14.6187761 C15.5251838,14.2796113 15.4019182,13.7444765 15.4019182,13.0237053 L15.4019182,10.6484448 Z M12.1150833,6.11751364 L13.0827546,9.69184518 L14.012413,6.11751364 L15.3908465,6.11751364 L13.7511196,11.5334471 L13.7511196,15.2199724 L12.3885556,15.2199724 L12.3885556,11.5334471 C12.264921,10.8802135 11.9921868,9.92324485 11.5548525,8.65368363 C11.267725,7.80890873 10.9684185,6.96155042 10.681291,6.11751364 L12.1150833,6.11751364 Z M27.7480321,27.7018998 C27.501501,28.7718004 26.6264633,29.5615856 25.5728013,29.6793152 C23.0768587,29.9579544 20.5521296,29.9594306 18.0366268,29.9579544 C15.5222313,29.9594306 12.9960259,29.9579544 10.5008214,29.6793152 C9.44715939,29.5615856 8.57175264,28.7721694 8.32595968,27.7018998 C7.97498505,26.1780573 7.97498505,24.5139725 7.97498505,22.9447358 C7.97498505,21.3754991 7.97941375,19.7117834 8.33001933,18.1875718 C8.57618134,17.1173021 9.45084998,16.3275169 10.504512,16.2101563 C13.0000855,15.9315172 15.5259219,15.9300409 18.0410555,15.9315172 C20.5554511,15.9300409 23.0812874,15.9315172 25.576861,16.2101563 C26.630523,16.327886 27.5059297,17.1173021 27.7528299,18.1875718 C28.1026973,19.7117834 28.100483,21.3754991 28.100483,22.9447358 C28.100483,24.5139725 28.0990067,26.1780573 27.7480321,27.7018998 Z" id="Shape"></path>
                                    <path d="M24.7896592,20.315194 C24.1674266,20.315194 23.684329,20.5436412 23.3329853,21.003119 C23.0750134,21.3426529 22.9572838,21.867454 22.9572838,22.5845347 L22.9572838,24.9358064 C22.9572838,25.6491964 23.0890377,26.1776882 23.3481167,26.5139005 C23.6990914,26.9722712 24.1836652,27.2014565 24.819922,27.2014565 C25.4550717,27.2014565 25.9536697,26.9611994 26.2902511,26.4736731 C26.4378745,26.258143 26.5338297,26.0141953 26.5744261,25.7447826 C26.5858669,25.6229933 26.6002602,25.3532115 26.6002602,24.9609024 L26.6002602,24.7841233 L25.3598546,24.7841233 C25.3598546,25.2712805 25.3439851,25.5418004 25.3332824,25.6078619 C25.2638994,25.9330024 25.0889657,26.0953882 24.7896592,26.0953882 C24.371885,26.0953882 24.1674266,25.785379 24.1674266,25.1646226 L24.1674266,23.9740399 L26.6002602,23.9740399 L26.6002602,22.5837966 C26.6002602,21.8667159 26.47884,21.3419147 26.2238205,21.0023809 C25.8839177,20.5440103 25.400082,20.315194 24.7896592,20.315194 Z M25.3845815,22.9620815 L24.1681647,22.9620815 L24.1681647,22.3409561 C24.1681647,21.7201997 24.3722541,21.4098215 24.7785875,21.4098215 C25.1808612,21.4098215 25.3845815,21.7205688 25.3845815,22.3409561 L25.3845815,22.9620815 L25.3845815,22.9620815 Z" id="Shape"></path>
                                </g>
                            </g>
                        </g>
                    </g>
                </g>
            </g>
        </g>
    </g>
</svg>