<?xml version="1.0" encoding="UTF-8"?>
<svg width="51px" height="51px" viewBox="0 0 51 51" version="1.1" xmlns="http://www.w3.org/2000/svg" xmlns:xlink="http://www.w3.org/1999/xlink">
    <!-- Generator: Sketch 47.1 (45422) - http://www.bohemiancoding.com/sketch -->
    <title>settings (18)</title>
    <desc>Created with Sketch.</desc>
    <defs>
        <linearGradient x1="50%" y1="0%" x2="50%" y2="100%" id="linearGradient-1">
            <stop stop-color="#FE0000" offset="0%"></stop>
            <stop stop-color="#DC4848" offset="100%"></stop>
        </linearGradient>
    </defs>
    <g id="Page-1" stroke="none" stroke-width="1" fill="none" fill-rule="evenodd">
        <g id="Artboard-3" transform="translate(-203.000000, -523.000000)" fill-rule="nonzero" fill="url(#linearGradient-1)">
            <g id="Group-28" transform="translate(62.000000, 486.000000)">
                <g id="settings-(18)" transform="translate(141.000000, 37.000000)">
                    <path d="M48.726416,20.5749141 C47.7672773,20.4312773 46.7826387,20.2935176 45.7999922,20.1654199 C45.680959,20.1499805 45.5843379,20.0691973 45.5542559,19.9598262 C45.1007344,18.3139805 44.4426152,16.7258086 43.5983262,15.2394375 C43.5415488,15.1396289 43.552207,15.0137227 43.6255195,14.9183965 C44.2298496,14.1329766 44.8289004,13.3389902 45.4061367,12.5586504 C46.1854805,11.5049824 46.0723242,10.0098457 45.143168,9.08058984 L41.9192109,5.85663281 C40.9899551,4.92747656 39.494918,4.81432031 38.4410508,5.59386328 C37.6624043,6.16980469 36.8685176,6.76885547 36.0814043,7.37438086 C35.986377,7.44769336 35.8601719,7.45835156 35.7603633,7.40167383 C34.2740918,6.55738477 32.6859199,5.89926563 31.0399746,5.44564453 C30.9305039,5.41566211 30.8497207,5.31904102 30.8341816,5.19970898 C30.7057852,4.21556836 30.568125,3.2310293 30.4248867,2.27358398 C30.2309473,0.977367187 29.0938066,0 27.7796602,0 L23.2202402,0 C21.9059941,0 20.7688535,0.977367187 20.5752129,2.27348437 C20.431875,3.23112891 20.2942148,4.21556836 20.1658184,5.1999082 C20.1501797,5.31914063 20.0694961,5.4155625 19.9599258,5.44564453 C18.3139805,5.89946484 16.725709,6.55748438 15.2397363,7.40167383 C15.1398281,7.45835156 15.0137227,7.44739453 14.9184961,7.37438086 C14.1314824,6.76885547 13.3374961,6.16980469 12.55875,5.59376367 C11.5047832,4.81432031 10.0097461,4.92767578 9.08068945,5.85673242 L5.85673242,9.08068945 C4.92747656,10.0100449 4.81441992,11.5052812 5.59396289,12.5588496 C6.1720957,13.3403848 6.77114648,14.1341719 7.37448047,14.9183965 C7.44769336,15.0135234 7.45845117,15.1395293 7.40177344,15.2394375 C6.55728516,16.7261074 5.89926563,18.3142793 5.44574414,19.9598262 C5.41576172,20.0690977 5.31914063,20.1498809 5.20000781,20.1655195 C4.21785938,20.2937168 3.23332031,20.431377 2.27368359,20.5750137 C0.977367188,20.7687539 0,21.9060937 0,23.2201406 L0,27.7796602 C0,29.0938066 0.977367188,30.2310469 2.27348438,30.4248867 C3.23312109,30.5685234 4.21775977,30.7061836 5.1999082,30.8342812 C5.31914063,30.8499199 5.4155625,30.9306035 5.44564453,31.0400742 C5.89916602,32.6857207 6.55728516,34.2738926 7.40167383,35.7604629 C7.45835156,35.8603711 7.44759375,35.986377 7.37438086,36.0815039 C6.76955273,36.8676211 6.17050195,37.6615078 5.59386328,38.4411504 C4.81441992,39.4948184 4.92737695,40.9900547 5.85663281,41.9193105 L9.08058984,45.1432676 C10.0099453,46.0725234 11.5051816,46.1856797 12.55875,45.4060371 C13.3373965,44.8300957 14.1312832,44.2310449 14.9183965,43.6255195 C15.0135234,43.552207 15.1396289,43.5416484 15.2394375,43.5982266 C16.7256094,44.4425156 18.3136816,45.1004355 19.9598262,45.5542559 C20.0692969,45.5843379 20.1500801,45.6808594 20.1656191,45.7999922 C20.2940156,46.7841328 20.4317754,47.7687715 20.5750137,48.7261172 C20.7688535,50.022334 21.9059941,50.9997012 23.2202402,50.9997012 L27.7796602,50.9997012 C29.0938066,50.9997012 30.2310469,50.022334 30.4247871,48.725918 C30.568125,47.767377 30.7057852,46.7828379 30.834082,45.799793 C30.8497207,45.6805605 30.9304043,45.5840391 31.039875,45.5538574 C32.6858203,45.1000371 34.2740918,44.4420176 35.7601641,43.5978281 C35.8600723,43.5413496 35.9860781,43.5521074 36.0813047,43.6251211 C36.8683184,44.2306465 37.6623047,44.8296973 38.4409512,45.4056387 C39.4946191,46.185082 40.9897559,46.072125 41.9191113,45.1428691 L45.1430684,41.9189121 C46.0722246,40.9896562 46.1853809,39.4945195 45.4059375,38.440752 C44.8287012,37.6607109 44.2295508,36.8667246 43.6253203,36.0811055 C43.5521074,35.9859785 43.5413496,35.8599727 43.598127,35.7600645 C44.4425156,34.2734941 45.1005352,32.6853223 45.5540566,31.0397754 C45.5843379,30.9302051 45.6807598,30.8495215 45.7999922,30.8338828 C46.7824395,30.7057852 47.7670781,30.5680254 48.7263164,30.4244883 C50.0225332,30.230748 50.9999004,29.0935078 50.9999004,27.7793613 L50.9999004,23.2198418 C50.9999004,21.9059941 50.0225332,20.7686543 48.726416,20.5749141 Z M48.6184395,27.7798594 C48.6184395,27.924293 48.5134512,28.0488047 48.3740977,28.0698223 C47.4296016,28.211168 46.4600039,28.3466367 45.4921992,28.473041 C44.4206016,28.6126934 43.5438398,29.371916 43.2583594,30.4074551 C42.8570332,31.8635449 42.2747168,33.2689336 41.5276465,34.5842754 C40.9964297,35.5195078 41.0790059,36.6772676 41.7380215,37.5339082 C42.3332871,38.3076738 42.9232734,39.0895078 43.4915449,39.8576953 C43.575416,39.9709512 43.5614707,40.1335137 43.4593711,40.2356133 L40.2353145,43.4595703 C40.1331152,43.5617695 39.9706523,43.575416 39.8574961,43.4918438 C39.0908027,42.9245684 38.3087695,42.334582 37.5336094,41.7382207 C36.6770684,41.0791055 35.5194082,40.9965293 34.5842754,41.5276465 C33.2689336,42.2747168 31.8635449,42.8571328 30.4072559,43.2585586 C29.371916,43.5439395 28.6126934,44.4207012 28.4727422,45.4923984 C28.3465371,46.4608008 28.2108691,47.4303984 28.069623,48.3742969 C28.0488047,48.5136504 27.9240938,48.6186387 27.7796602,48.6186387 L23.2202402,48.6186387 C23.0758066,48.6186387 22.9510957,48.5136504 22.9302773,48.3741973 C22.7893301,47.4313945 22.6535625,46.4617969 22.5271582,45.492498 C22.3874063,44.4208008 21.6279844,43.5440391 20.5926445,43.2586582 C19.1362559,42.8572324 17.7308672,42.2748164 16.415625,41.5276465 C16.0055332,41.2948594 15.5526094,41.1799102 15.1011797,41.1799102 C14.5230469,41.1799102 13.9472051,41.3681719 13.4663906,41.7384199 C12.6911309,42.3347813 11.9091973,42.9247676 11.1425039,43.492043 C11.0291484,43.5756152 10.8668848,43.5619688 10.7647852,43.4597695 L7.54072852,40.2358125 C7.4385293,40.1336133 7.42458398,39.97125 7.50845508,39.8579941 C8.07632813,39.0903047 8.66621484,38.3084707 9.26197852,37.5341074 C9.92089453,36.6774668 10.0035703,35.5199063 9.47255273,34.5847734 C8.72518359,33.2690332 8.1429668,31.8637441 7.74164063,30.4077539 C7.45625977,29.3724141 6.57949805,28.6130918 5.50790039,28.4733398 C4.54049414,28.3471348 3.57079688,28.2113672 2.62580273,28.0701211 C2.48644922,28.0492031 2.38146094,27.9245918 2.38146094,27.7801582 L2.38146094,23.2206387 C2.38146094,23.0762051 2.48644922,22.9515938 2.62580273,22.9306758 C3.57079688,22.7893301 4.54039453,22.6536621 5.50770117,22.527457 C6.57939844,22.3878047 7.45616016,21.6284824 7.74154102,20.593043 C8.14266797,19.1371523 8.72508398,17.7317637 9.47245313,16.4160234 C10.0035703,15.480791 9.92089453,14.3231309 9.26197852,13.4666895 C8.66780859,12.6941191 8.07782227,11.9123848 7.50845508,11.1428027 C7.4247832,11.0295469 7.43862891,10.8669844 7.54072852,10.7649844 L10.7645859,7.54092773 C10.8665859,7.43872852 11.0290488,7.42508203 11.1423047,7.5086543 C11.908998,8.07583008 12.6909316,8.66581641 13.4661914,9.26227734 C14.322832,9.92109375 15.4803926,10.0038691 16.4157246,9.47265234 C17.7308672,8.72558203 19.1362559,8.14316602 20.5925449,7.74174023 C21.6279844,7.45635938 22.3874063,6.57959766 22.5271582,5.50790039 C22.6536621,4.53860156 22.7892305,3.56900391 22.930377,2.62590234 C22.9511953,2.48674805 23.0759063,2.38166016 23.2203398,2.38166016 L27.7797598,2.38166016 C27.9241934,2.38166016 28.0489043,2.48664844 28.0697227,2.62600195 C28.2108691,3.56880469 28.3464375,4.53830273 28.4729414,5.50790039 C28.6126934,6.57959766 29.3721152,7.45635938 30.4074551,7.74174023 C31.8637441,8.14316602 33.2690332,8.72558203 34.5844746,9.47265234 C35.5196074,10.0035703 36.6772676,9.92109375 37.533709,9.26207813 C38.3089688,8.6657168 39.0909023,8.07573047 39.8574961,7.50855469 C39.970752,7.42468359 40.1333145,7.4385293 40.2354141,7.54082813 L43.4593711,10.7647852 C43.5615703,10.8669844 43.5753164,11.0294473 43.4916445,11.1426035 C42.923373,11.9109902 42.3333867,12.6927246 41.7381211,13.4664902 C41.0792051,14.3232305 40.9965293,15.4808906 41.5277461,16.416123 C42.274916,17.7314648 42.8572324,19.1367539 43.2586582,20.593043 C43.5440391,21.6283828 44.421,22.3876055 45.4922988,22.5272578 C46.4601035,22.6535625 47.4298008,22.7892305 48.3743965,22.9304766 C48.51375,22.9513945 48.6187383,23.0760059 48.6187383,23.2204395 L48.6187383,27.7798594 L48.6184395,27.7798594 Z" id="Shape"></path>
                    <path d="M25.5,14.4300117 C19.3959375,14.4300117 14.4300117,19.3959375 14.4300117,25.5 C14.4300117,31.6040625 19.3959375,36.5699883 25.5,36.5699883 C31.6040625,36.5699883 36.5699883,31.6040625 36.5699883,25.5 C36.5699883,19.3959375 31.6040625,14.4300117 25.5,14.4300117 Z M25.5,34.1884277 C20.7090879,34.1884277 16.8115723,30.2908125 16.8115723,25.5 C16.8115723,20.7090879 20.7092871,16.8115723 25.5,16.8115723 C30.2908125,16.8115723 34.1884277,20.7091875 34.1884277,25.5 C34.1884277,30.2908125 30.2909121,34.1884277 25.5,34.1884277 Z" id="Shape"></path>
                </g>
            </g>
        </g>
    </g>
</svg>