<?xml version="1.0" encoding="UTF-8"?>
<svg width="116px" height="105px" viewBox="0 0 116 105" version="1.1" xmlns="http://www.w3.org/2000/svg" xmlns:xlink="http://www.w3.org/1999/xlink">
    <!-- Generator: Sketch 47.1 (45422) - http://www.bohemiancoding.com/sketch -->
    <title>Group 10</title>
    <desc>Created with Sketch.</desc>
    <defs></defs>
    <g id="Page-1" stroke="none" stroke-width="1" fill="none" fill-rule="evenodd">
        <g id="cloud" transform="translate(-235.000000, -985.000000)" fill-rule="nonzero">
            <g id="migrate_to_cloud" transform="translate(233.000000, 852.000000)">
                <g id="Group-13" transform="translate(2.000000, 135.000000)">
                    <g id="cloud_migration">
                        <g id="Group-11">
                            <g id="Group-12">
                                <g id="Group-10">
                                    <g id="Group-3" transform="translate(58.783947, 36.014331) scale(1, -1) translate(-58.783947, -36.014331) translate(3.283947, 0.014331)">
                                        <path d="M87.99121,69.6435411 C98.9643865,69.6435411 107.943756,60.7431661 107.943756,49.8665242 C107.943756,40.2344642 100.898488,31.91334 91.665822,30.1899347 C91.4577568,14.5896201 78.6517974,1.49640288 62.8641736,1.49640288 C52.8064839,1.49640288 43.3621341,6.88540683 38.1478398,14.6523872 C35.8573136,13.1405968 33.1054254,12.2564773 30.1454721,12.2564773 C22.1521508,12.2564773 15.6713728,18.6802418 15.6713728,26.6032433 C15.6713728,26.8776252 15.6967025,27.1448337 15.7129859,27.4174222 C15.6948932,27.7438112 15.6713728,28.0737868 15.6713728,28.396589 C8.45603433,31.8254661 3.00653595,39.9762225 3.00653595,48.4013607 C3.00653595,60.0850083 12.6499046,69.6435411 24.4372492,69.6435411" id="Shape" fill="#EEF2F3" transform="translate(55.475146, 35.569972) scale(1, -1) translate(-55.475146, -35.569972) "></path>
                                        <path d="M89.51719,71.855826 C101.075603,71.855826 110.533872,62.4710769 110.533872,51.0025089 C110.533872,40.8462552 103.112856,32.0722806 93.3877813,30.2550846 C93.1686193,13.8057733 79.6796754,0 63.050045,0 C52.4559451,0 42.5078967,5.68228308 37.0155067,13.8719563 C34.6028191,12.2778915 31.7041636,11.3456567 28.5863461,11.3456567 C20.1667143,11.3456567 13.3402949,18.1190138 13.3402949,26.473199 C13.3402949,26.7625133 13.3669754,27.0442638 13.3841273,27.3316871 C13.3650697,27.6758387 13.3402949,28.0237721 13.3402949,28.3641418 C5.7401383,31.9796244 0,40.5739594 0,49.4576086 C0,61.7771009 10.1576817,71.855826 22.5736847,71.855826 L89.51719,71.855826 Z" id="Shape" stroke="#31475B" stroke-width="2.625" stroke-linecap="round" transform="translate(55.266936, 35.927913) scale(1, -1) translate(-55.266936, -35.927913) "></path>
                                    </g>
                                    <g id="send-(6)" transform="translate(0.000000, 50.794848)">
                                        <polygon id="Shape" fill="#A94D45" points="12.8474134 24.4456894 18.3292596 51.1967529 58.6438533 2.16701855"></polygon>
                                        <polygon id="Shape" fill="#B07123" points="29.1493596 38.8650646 17.5776256 50.4485514 19.5481687 33.6033859 26.9326555 33.8050658"></polygon>
                                        <g id="Group" transform="translate(0.912975, 0.911547)" fill="#F9A53D">
                                            <polygon id="Shape" points="56.5851835 0.0969658398 12.1121013 28.8332653 0.0194007256 22.0311857"></polygon>
                                            <polygon id="Shape" points="57.8038522 0.12110137 57.7454217 0.283698613 34.409316 40.4979733 19.4598015 32.3056702"></polygon>
                                        </g>
                                        <polygon id="Shape" fill="#B07123" points="35.3222913 41.4095206 58.6583971 1.19524587 42.755394 45.4833392"></polygon>
                                        <path d="M58.5428284,0.752020294 C58.2812609,0.497584665 57.8948441,0.41884977 57.5547608,0.551024123 L0.988978082,22.4850161 C0.652774919,22.6153674 0.422134528,22.9273444 0.396457097,23.286494 C0.370779666,23.6456437 0.554630072,23.9871321 0.868693583,24.1638583 L12.5911826,30.758333 L16.659743,50.6139972 C16.6850781,50.7543755 16.7422532,50.8850686 16.8243068,50.9973029 C16.8325236,51.0085833 16.8392568,51.017243 16.8461041,51.0259027 C16.9894412,51.2049078 17.1926924,51.3299037 17.4296095,51.3677329 C17.4598518,51.3726324 17.4902082,51.3759368 17.5203364,51.3777599 C17.5398512,51.3790133 17.559252,51.379583 17.5786527,51.379583 C17.7565688,51.379583 17.9251268,51.3287642 18.0688063,51.2396605 C18.1174223,51.2095794 18.1636416,51.1748267 18.2065515,51.1354023 C18.2199037,51.1230964 18.2315442,51.1120439 18.2428422,51.1005356 L27.0670911,42.2676426 C27.4306835,41.9035935 27.4299988,41.3141642 27.0653793,40.9510266 C26.7004174,40.5878889 26.1104071,40.5886865 25.7467005,40.9527357 L18.8150495,47.8912056 L20.3127855,35.0846502 L41.4818302,46.6856843 C41.69501,46.8019066 41.9319271,46.8268602 42.148987,46.7745602 C42.1728384,46.7687491 42.1946357,46.7625961 42.2162048,46.7556456 C42.4305257,46.686254 42.6185986,46.5417738 42.7381984,46.3343968 C42.7442469,46.3236861 42.7496106,46.3140009 42.7548602,46.3043157 C42.7790541,46.2582826 42.7984548,46.213161 42.8138612,46.1673558 L58.7698169,1.73295909 C58.8929544,1.38976155 58.8043958,1.00622804 58.5428284,0.752020294 Z M3.50182854,23.508 L49.7362684,5.58003036 L13.3860418,29.0683244 L3.50182854,23.508 Z M18.9639786,32.8768828 C18.8767895,32.9467301 18.8008984,33.033441 18.741555,33.1351925 C18.7337947,33.1485239 18.7264909,33.1619692 18.7194154,33.1755284 C18.6628109,33.2848002 18.6299438,33.4002248 18.6191022,33.5157635 L17.3257585,44.5747688 L14.4604996,30.5918617 L45.8560091,10.3051495 L18.9639786,32.8768828 Z M41.421688,44.5285077 L21.1896983,33.4410166 L55.8490947,4.34978339 L41.421688,44.5285077 Z" id="Shape" fill="#31475B"></path>
                                    </g>
                                </g>
                            </g>
                        </g>
                    </g>
                </g>
            </g>
        </g>
    </g>
</svg>