<?xml version="1.0" encoding="UTF-8"?>
<svg width="111px" height="103px" viewBox="0 0 111 103" version="1.1" xmlns="http://www.w3.org/2000/svg" xmlns:xlink="http://www.w3.org/1999/xlink">
    <!-- Generator: Sketch 47.1 (45422) - http://www.bohemiancoding.com/sketch -->
    <title>icon</title>
    <desc>Created with Sketch.</desc>
    <defs></defs>
    <g id="Page-1" stroke="none" stroke-width="1" fill="none" fill-rule="evenodd">
        <g id="cloud" transform="translate(-609.000000, -987.000000)">
            <g id="migrate_to_cloud" transform="translate(233.000000, 852.000000)">
                <g id="Group-13" transform="translate(2.000000, 135.000000)">
                    <g id="cloud_hosting" transform="translate(376.000000, 2.000000)">
                        <g id="Group-9">
                            <g id="icon">
                                <g id="Group-8">
                                    <g id="cloud-(9)" transform="translate(0.804131, 2.152287)">
                                        <path d="M85.5524736,68.7116168 C96.5190166,68.7116168 105.492958,59.737518 105.492958,48.7707824 C105.492958,39.0589378 98.4519489,30.6688877 89.2248642,28.9312071 C89.0169248,13.2016714 76.2187069,0 60.440627,0 C50.3890174,0 40.9503769,5.43364233 35.7392347,13.2649585 C33.4500932,11.7406455 30.6998686,10.8492027 27.7417047,10.8492027 C19.7532155,10.8492027 13.2763553,17.3261766 13.2763553,25.3148062 C13.2763553,25.5914609 13.3016696,25.8608827 13.3179432,26.1357292 C13.2998615,26.4648217 13.2763553,26.7975306 13.2763553,27.1230067 C6.06537861,30.5802859 0.619174557,38.7985569 0.619174557,47.2934826 C0.619174557,59.0739085 10.2567136,68.7116168 22.0369325,68.7116168" id="Shape" fill="#EEF2F3" fill-rule="nonzero"></path>
                                        <g id="Group-5" transform="translate(62.041781, 26.577260)">
                                            <ellipse id="Oval" fill="#31475B" cx="2.72167332" cy="2.71298454" rx="2.72167332" ry="2.71298454"></ellipse>
                                            <ellipse id="Oval" stroke="#31475B" stroke-width="1.7982" cx="38.1034265" cy="55.6161831" rx="2.72167332" ry="2.71298454"></ellipse>
                                            <polyline id="Path-2" stroke="#31475B" stroke-width="2.1312" points="2.72167332 3.61731272 2.72167332 23.5189559 6.58978066 26.2696739 6.58978066 34.6267622"></polyline>
                                            <polyline id="Path-9" stroke="#31475B" stroke-width="2.1312" stroke-dasharray="2.247749984264374" points="6.59177407 34.179896 6.59177407 55.5788754 35.2906689 55.5788754"></polyline>
                                        </g>
                                        <g id="Group-5" transform="translate(52.969536, 38.785691)">
                                            <ellipse id="Oval" stroke="#F05244" stroke-width="1.7982" cx="2.72167332" cy="2.71298454" rx="2.72167332" ry="2.71298454"></ellipse>
                                            <ellipse id="Oval" fill="#F05244" cx="37.1962021" cy="56.9726753" rx="2.72167332" ry="2.71298454"></ellipse>
                                            <polyline id="Path-2" stroke="#F05244" stroke-width="2.1312" points="2.72167332 4.97380499 2.72167332 24.8754482 6.58978066 27.6261661 6.58978066 35.9832545"></polyline>
                                            <polyline id="Path-9" stroke="#F05244" stroke-width="2.1312" stroke-dasharray="2.247749984264374" points="6.59177407 35.5363883 6.59177407 56.9353676 35.2906689 56.9353676"></polyline>
                                        </g>
                                        <g id="Group-5" transform="translate(32.701475, 46.725322) scale(-1, 1) translate(-32.701475, -46.725322) translate(14.701475, 15.725322)">
                                            <ellipse id="Oval" fill="#F9A53D" cx="2.72167332" cy="2.71298454" rx="2.72167332" ry="2.71298454"></ellipse>
                                            <ellipse id="Oval" stroke="#F9A53D" stroke-width="1.7982" cx="33.1136921" cy="58.7813317" rx="2.72167332" ry="2.71298454"></ellipse>
                                            <path d="M2.72167332,4.97380499 L2.72167332,36.2967658" id="Path-2" stroke="#F9A53D" stroke-width="2.1312"></path>
                                            <polyline id="Path-9" stroke="#F9A53D" stroke-width="2.1312" stroke-dasharray="2.247749984264374" points="2.73623631 37.3321289 2.73623631 58.7813317 31.2081589 58.744024"></polyline>
                                        </g>
                                        <g id="Group-5" transform="translate(20.722006, 61.003230) scale(-1, 1) translate(-20.722006, -61.003230) translate(0.722006, 32.003230)">
                                            <ellipse id="Oval" stroke="#F05244" stroke-width="1.7982" cx="2.72167332" cy="2.71298454" rx="2.72167332" ry="2.71298454"></ellipse>
                                            <ellipse id="Oval" fill="#F05244" cx="37.1962021" cy="55.164019" rx="2.72167332" ry="2.71298454"></ellipse>
                                            <polyline id="Path-2" stroke="#F05244" stroke-width="2.1312" points="2.72167332 4.5216409 2.72167332 24.4232841 6.58978066 27.174002 6.58978066 28.296465"></polyline>
                                            <polyline id="Path-9" stroke="#F05244" stroke-width="2.1312" stroke-dasharray="2.247749984264374" points="6.59177407 28.753927 6.59177407 55.1267113 35.2906689 55.1267113"></polyline>
                                        </g>
                                        <path d="M90.1657382,29.4016995 C90.1657382,29.4016995 85.3390249,28.7270231 80.6398816,29.4016995" id="Shape" fill-rule="nonzero"></path>
                                    </g>
                                    <g id="cloud-(9)" stroke="#31475B" stroke-width="2.625" stroke-linecap="round">
                                        <path d="M86.6142546,70.524045 C97.7978417,70.524045 106.94939,61.3132336 106.94939,50.0572248 C106.94939,40.0892078 99.7690296,31.4778507 90.3593272,29.6943347 C90.1472724,13.5498961 77.0957588,0 61.0054074,0 C50.7548616,0 41.1294164,5.57696724 35.8151381,13.6148525 C33.4806911,12.0503322 30.6760355,11.1353755 27.6593251,11.1353755 C19.5127319,11.1353755 12.907685,17.7831947 12.907685,25.9825429 C12.907685,26.266495 12.9335004,26.5430235 12.950096,26.8251197 C12.9316565,27.1628927 12.907685,27.5043776 12.907685,27.8384388 C5.55399248,31.3869118 0,39.8219588 0,48.5409578 C0,60.6321198 9.82828018,70.524045 21.8416471,70.524045" id="Shape" fill-rule="nonzero"></path>
                                        <path d="M86.8681757,70.7515419 L86.8681757,77.0514566" id="Line-2"></path>
                                        <path d="M90.7039134,29.8763323 C90.7039134,29.8763323 85.9021946,29.1974336 81.2273851,29.8763323" id="Shape" fill="#7FABDA" fill-rule="nonzero"></path>
                                        <path d="M12.9287582,25.9346488 C12.9287582,17.6427273 19.2020974,10.9198521 27.3014267,10.9198521 C35.4007559,10.9198521 41.9674823,17.6427273 41.9674823,25.9346488" id="Shape" fill-rule="nonzero"></path>
                                    </g>
                                </g>
                            </g>
                        </g>
                    </g>
                </g>
            </g>
        </g>
    </g>
</svg>