<?xml version="1.0" encoding="UTF-8"?>
<svg width="25px" height="36px" viewBox="0 0 25 36" version="1.1" xmlns="http://www.w3.org/2000/svg" xmlns:xlink="http://www.w3.org/1999/xlink">
    <!-- Generator: Sketch 47.1 (45422) - http://www.bohemiancoding.com/sketch -->
    <title>strategy (2)</title>
    <desc>Created with Sketch.</desc>
    <defs></defs>
    <g id="Page-1" stroke="none" stroke-width="1" fill="none" fill-rule="evenodd">
        <g id="Artboard-3" transform="translate(-87.000000, -656.000000)" fill-rule="nonzero" fill="#FFFFFF">
            <g id="Group-28" transform="translate(62.000000, 486.000000)">
                <g id="strategy-(2)" transform="translate(25.000000, 170.000000)">
                    <path d="M1.18154762,26.2342286 C1.17410714,26.2709633 1.17410714,26.307698 1.17410714,26.3444327 C1.17410714,26.3885143 1.17410714,26.4619837 1.16666667,26.4913714 L1.16666667,26.4913714 C0.861607143,27.497902 1.11458333,28.3281061 1.93303571,29.0481061 C2.25297619,29.3199429 2.38690476,29.7166776 2.31994048,30.1354531 C2.23809524,30.5909633 1.93303571,30.9656571 1.49404762,31.1346367 C1.48660714,31.1346367 1.47916667,31.1419837 1.47172619,31.1419837 C0.683035714,31.4725959 0.28125,32.0162694 0.229166667,32.7950449 C0.214285714,33.0007592 0.177083333,33.2285143 0.147321429,33.4636163 C0.110119048,33.7134122 0.0729166667,33.9705551 0.0505952381,34.220351 C-0.00148809524,34.7272898 0.102678571,35.1460653 0.370535714,35.4619837 C0.638392857,35.777902 1.04761905,35.9542286 1.57589286,35.9836163 C1.59077381,35.9836163 1.60565476,35.9836163 1.62053571,35.9836163 L22.7291667,35.9836163 C22.7589286,35.9836163 22.7886905,35.9836163 22.8258929,35.9836163 C22.8705357,35.9836163 22.9077381,35.9836163 22.952381,35.9836163 C23.2276786,35.9836163 23.577381,35.9468816 23.9122024,35.6823918 C24.3511905,35.3591265 24.5595238,34.8448408 24.485119,34.2570857 C24.4479167,33.9558612 24.4032738,33.6619837 24.3511905,33.3681061 C24.3065476,33.0742286 24.2619048,32.8023918 24.2247024,32.5232082 C24.2247024,32.5085143 24.2172619,32.4864735 24.2172619,32.4717796 C24.046131,31.6489224 23.5104167,31.3256571 23.078869,31.1934122 C22.625,31.0685143 22.2901786,30.6791265 22.1934524,30.1942286 C22.1488095,29.9444327 22.1041667,29.305249 22.7589286,28.8130041 C23.2872024,28.460351 23.5252976,27.9313714 23.4657738,27.2995347 C23.4285714,26.8072898 23.3541667,26.3150449 23.2797619,25.8448408 C23.1532738,24.9925959 22.5877976,24.500351 21.7098214,24.500351 L3.18303571,24.500351 C1.82886905,24.5370857 1.375,24.9191265 1.18154762,26.2342286 Z M21.7916667,25.9917061 C21.7991071,26.0137469 21.8065476,26.0504816 21.8139881,26.0945633 C21.8883929,26.5574204 21.9553571,26.9982367 21.9925595,27.4537469 C22.0074405,27.5786449 21.985119,27.5933388 21.9181548,27.6374204 C21.9032738,27.6447673 21.8958333,27.6521143 21.8809524,27.6594612 C20.9657738,28.3427265 20.5342262,29.4006857 20.7425595,30.4806857 C20.9360119,31.5166041 21.6800595,32.3321143 22.6622024,32.611298 C22.7142857,32.6259918 22.7366071,32.6333388 22.766369,32.7508898 C22.8035714,33.0374204 22.8482143,33.331298 22.8928571,33.6104816 C22.9375,33.9043592 22.9821429,34.1761959 23.0193452,34.4553796 C23.0267857,34.4921143 23.0193452,34.521502 23.0193452,34.5361959 L23.0193452,34.5361959 C22.9970238,34.5361959 22.922619,34.5361959 22.8556548,34.5361959 C22.8110119,34.5361959 22.7738095,34.5361959 22.7291667,34.5361959 L1.64285714,34.5361959 C1.57589286,34.528849 1.53869048,34.521502 1.50892857,34.5141551 C1.50892857,34.4847673 1.50892857,34.4406857 1.51636905,34.3672163 C1.51636905,34.3598694 1.51636905,34.3525224 1.51636905,34.3451755 C1.53125,34.1394612 1.56845238,33.9117061 1.59821429,33.6766041 C1.63541667,33.4268082 1.67261905,33.1696653 1.69494048,32.8978286 C1.70982143,32.6994612 1.72470238,32.611298 2.04464286,32.4790531 C2.95982143,32.1190531 3.60714286,31.3329306 3.77083333,30.3778286 C3.92708333,29.4594612 3.60714286,28.5557878 2.9077381,27.9533388 C2.47619048,27.5786449 2.45386905,27.321502 2.58035714,26.9174204 C2.63988095,26.7264 2.64732143,26.5353796 2.64732143,26.3957878 C2.67708333,26.1827265 2.70684524,26.0725224 2.72916667,26.0064 C2.80357143,25.9990531 2.9375,25.9843592 3.19047619,25.9843592 L21.7098214,25.9843592 C21.7395833,25.9917061 21.7693452,25.9917061 21.7916667,25.9917061 Z" id="Shape"></path>
                    <path d="M8.13839286,30.9949714 L16.375,30.9949714 C16.7842262,30.9949714 17.1116071,30.6717061 17.1116071,30.2676245 C17.1116071,29.8635429 16.7842262,29.5402776 16.375,29.5402776 L8.13839286,29.5402776 C7.72916667,29.5402776 7.40178571,29.8635429 7.40178571,30.2676245 C7.40178571,30.6717061 7.73660714,30.9949714 8.13839286,30.9949714 Z" id="Shape"></path>
                    <path d="M3.32440476,14.8685143 C3.2797619,15.6399429 3.27232143,16.4113714 3.27232143,17.1534122 C3.27232143,17.6383102 3.26488095,18.137902 3.25,18.6374939 C3.25,18.6448408 3.25,18.6521878 3.25,18.6595347 L3.25,20.9958612 C3.25,22.0097388 4.05357143,22.8032082 5.08035714,22.8032082 L15.3110119,22.8032082 L19.8422619,22.8766776 C20.8095238,22.8766776 21.5610119,22.1493306 21.5610119,21.2162694 L21.5610119,19.6293306 C21.5610119,18.5860653 21.0252976,17.6309633 20.110119,17.065249 C20.1026786,17.057902 18.9270833,16.337902 17.6026786,15.1991265 C17.297619,14.9346367 16.828869,14.9640245 16.5610119,15.2725959 C16.2931548,15.5738204 16.3229167,16.0366776 16.6354167,16.3011673 C18.0714286,17.5354531 19.3363095,18.3068816 19.3363095,18.3068816 C19.8125,18.6007592 20.0877976,19.0856571 20.0877976,19.6366776 L20.0877976,21.2236163 C20.0877976,21.377902 19.953869,21.4293306 19.8497024,21.4293306 L15.3184524,21.3558612 L5.08035714,21.3558612 C4.86458333,21.3558612 4.72321429,21.2162694 4.72321429,21.0032082 L4.72321429,18.6742286 C4.73809524,18.1672898 4.73809524,17.660351 4.74553571,17.1681061 C4.75297619,16.4113714 4.75297619,15.6987184 4.79761905,14.9493306 C4.87946429,13.1346367 5.08035714,11.6211673 5.4375,10.1885143 C5.77232143,8.8072898 6.20386905,7.35994286 7.11160714,6.1183102 C8.00446429,4.8472898 8.8452381,4.3550449 10.0133929,4.40647347 C11.4940476,4.4505551 12.5654762,3.83341224 13.2053571,2.57708571 C13.4136905,2.18035102 13.7485119,1.87177959 14.2098214,1.65137143 C14.202381,2.87096327 14.7678571,3.91422857 15.891369,4.75912653 C17.1116071,5.69218776 18.3244048,6.63259592 19.5372024,7.56565714 C20.75,8.49871837 21.9627976,9.43912653 23.1830357,10.3721878 C23.391369,10.5338204 23.4732143,10.6587184 23.4806548,10.7174939 C23.4880952,10.7762694 23.4434524,10.9085143 23.2872024,11.1068816 L22.0967262,12.4881061 C21.5982143,13.0244327 21.1889881,13.097902 20.5565476,12.7599429 C20.5491071,12.7599429 20.5416667,12.7525959 20.5342262,12.7525959 C20.1770833,12.5762694 19.8497024,12.4146367 19.5595238,12.2236163 C19.5520833,12.2162694 19.5446429,12.2162694 19.5446429,12.2089224 C18.8303571,11.7681061 17.9821429,11.6358612 17.0967262,11.8268816 C17.0892857,11.8268816 17.0818452,11.8342286 17.0744048,11.8342286 C16.233631,12.0472898 15.4747024,11.8709633 14.6860119,11.2832082 L14.1502976,10.8570857 C13.8303571,10.6072898 13.3690476,10.6587184 13.1160714,10.9672898 C12.8630952,11.2832082 12.9151786,11.7387184 13.2276786,11.9885143 L13.7708333,12.4219837 C13.7782738,12.4293306 13.7782738,12.4293306 13.7857143,12.4366776 C14.9315476,13.2962694 16.1592262,13.5681061 17.4241071,13.2521878 C17.922619,13.1493306 18.3690476,13.2081061 18.7485119,13.4432082 C19.1056548,13.6783102 19.4925595,13.8693306 19.8645833,14.0530041 C21.1071429,14.7068816 22.2232143,14.5085143 23.1904762,13.465249 C23.1979167,13.457902 23.2053571,13.4505551 23.2053571,13.4432082 L24.4107143,12.0399429 C24.4181548,12.0325959 24.4181548,12.025249 24.4255952,12.017902 C24.827381,11.5109633 24.9985119,11.0334122 24.9315476,10.5411673 C24.8720238,10.0562694 24.5892857,9.63014694 24.0758929,9.22606531 C22.8556548,8.29300408 21.6428571,7.35259592 20.4300595,6.41953469 C19.2172619,5.48647347 18.0044643,4.54606531 16.7767857,3.60565714 C15.8839286,2.93708571 15.5491071,2.17300408 15.7127976,1.2105551 C15.7127976,1.19586122 15.7202381,1.18116735 15.7202381,1.17382041 C15.7797619,0.644840816 15.5342262,0.350963265 15.3779762,0.226065306 C15.1845238,0.0644326531 14.827381,-0.0972 14.2619048,0.0717795918 C13.1830357,0.395044898 12.3645833,1.02688163 11.8958333,1.91586122 C11.5089286,2.67259592 10.9657738,2.98116735 10.0729167,2.95177959 C7.91517857,2.85626939 6.70982143,4.14198367 5.90625,5.26606531 C4.84970238,6.70606531 4.35119048,8.38851429 4.0014881,9.83586122 C3.62202381,11.3640245 3.40625,12.9656571 3.32440476,14.8685143 Z" id="Shape"></path>
                </g>
            </g>
        </g>
    </g>
</svg>