<?xml version="1.0" encoding="UTF-8"?>
<svg width="36px" height="53px" viewBox="0 0 36 53" version="1.1" xmlns="http://www.w3.org/2000/svg" xmlns:xlink="http://www.w3.org/1999/xlink">
    <!-- Generator: Sketch 47.1 (45422) - http://www.bohemiancoding.com/sketch -->
    <title>strategy (2)</title>
    <desc>Created with Sketch.</desc>
    <defs>
        <linearGradient x1="50%" y1="0%" x2="50%" y2="100%" id="linearGradient-1">
            <stop stop-color="#FE0000" offset="0%"></stop>
            <stop stop-color="#DC4848" offset="100%"></stop>
        </linearGradient>
    </defs>
    <g id="Page-1" stroke="none" stroke-width="1" fill="none" fill-rule="evenodd">
        <g id="Artboard-3" transform="translate(-203.000000, -941.000000)" fill-rule="nonzero" fill="url(#linearGradient-1)">
            <g id="Group-28" transform="translate(62.000000, 906.000000)">
                <g id="strategy-(2)" transform="translate(141.000000, 35.000000)">
                    <path d="M1.70142857,38.6226143 C1.69071429,38.6766959 1.69071429,38.7307776 1.69071429,38.7848592 C1.69071429,38.8497571 1.69071429,38.9579204 1.68,39.0011857 L1.68,39.0011857 C1.24071429,40.4830224 1.605,41.7052673 2.78357143,42.7652673 C3.24428571,43.1654714 3.43714286,43.7495531 3.34071429,44.3660837 C3.22285714,45.0366959 2.78357143,45.5883286 2.15142857,45.8371041 C2.14071429,45.8371041 2.13,45.8479204 2.11928571,45.8479204 C0.983571429,46.3346551 0.405,47.1350633 0.33,48.2815939 C0.308571429,48.584451 0.255,48.9197571 0.212142857,49.2658796 C0.158571429,49.6336347 0.105,50.0122061 0.0728571429,50.3799612 C-0.00214285714,51.1262878 0.147857143,51.7428184 0.533571429,52.2079204 C0.919285714,52.6730224 1.50857143,52.9326143 2.26928571,52.9758796 C2.29071429,52.9758796 2.31214286,52.9758796 2.33357143,52.9758796 L32.73,52.9758796 C32.7728571,52.9758796 32.8157143,52.9758796 32.8692857,52.9758796 C32.9335714,52.9758796 32.9871429,52.9758796 33.0514286,52.9758796 C33.4478571,52.9758796 33.9514286,52.921798 34.4335714,52.5324102 C35.0657143,52.0564918 35.3657143,51.299349 35.2585714,50.4340429 C35.205,49.9905735 35.1407143,49.5579204 35.0657143,49.1252673 C35.0014286,48.6926143 34.9371429,48.2924102 34.8835714,47.8813898 C34.8835714,47.8597571 34.8728571,47.8273082 34.8728571,47.8056755 C34.6264286,46.5942469 33.855,46.1183286 33.2335714,45.9236347 C32.58,45.7397571 32.0978571,45.1664918 31.9585714,44.4526143 C31.8942857,44.0848592 31.83,43.1438388 32.7728571,42.4191449 C33.5335714,41.8999612 33.8764286,41.1211857 33.7907143,40.1909816 C33.7371429,39.4662878 33.63,38.7415939 33.5228571,38.049349 C33.3407143,36.7946551 32.5264286,36.0699612 31.2621429,36.0699612 L4.58357143,36.0699612 C2.63357143,36.1240429 1.98,36.6864918 1.70142857,38.6226143 Z M31.38,38.2655673 C31.3907143,38.2980163 31.4014286,38.352098 31.4121429,38.4169959 C31.5192857,39.0984245 31.6157143,39.7474041 31.6692857,40.4180163 C31.6907143,40.6018939 31.6585714,40.6235265 31.5621429,40.6884245 C31.5407143,40.6992408 31.53,40.7100571 31.5085714,40.7208735 C30.1907143,41.7267918 29.5692857,43.2843429 29.8692857,44.8743429 C30.1478571,46.3994449 31.2192857,47.6000571 32.6335714,48.0110776 C32.7085714,48.0327102 32.7407143,48.0435265 32.7835714,48.2165878 C32.8371429,48.6384245 32.9014286,49.0710776 32.9657143,49.482098 C33.03,49.914751 33.0942857,50.3149551 33.1478571,50.7259755 C33.1585714,50.7800571 33.1478571,50.8233224 33.1478571,50.8449551 L33.1478571,50.8449551 C33.1157143,50.8449551 33.0085714,50.8449551 32.9121429,50.8449551 C32.8478571,50.8449551 32.7942857,50.8449551 32.73,50.8449551 L2.36571429,50.8449551 C2.26928571,50.8341388 2.21571429,50.8233224 2.17285714,50.8125061 C2.17285714,50.7692408 2.17285714,50.7043429 2.18357143,50.5961796 C2.18357143,50.5853633 2.18357143,50.5745469 2.18357143,50.5637306 C2.205,50.2608735 2.25857143,49.9255673 2.30142857,49.5794449 C2.355,49.2116898 2.40857143,48.8331184 2.44071429,48.4329143 C2.46214286,48.1408735 2.48357143,48.0110776 2.94428571,47.8163837 C4.26214286,47.2863837 5.19428571,46.1290367 5.43,44.7229143 C5.655,43.3708735 5.19428571,42.0404653 4.18714286,41.1535265 C3.56571429,40.6018939 3.53357143,40.2233224 3.71571429,39.6284245 C3.80142857,39.3472 3.81214286,39.0659755 3.81214286,38.8604653 C3.855,38.5467918 3.89785714,38.3845469 3.93,38.2872 C4.03714286,38.2763837 4.23,38.254751 4.59428571,38.254751 L31.2621429,38.254751 C31.305,38.2655673 31.3478571,38.2655673 31.38,38.2655673 Z" id="Shape"></path>
                    <path d="M11.7192857,45.6314857 L23.58,45.6314857 C24.1692857,45.6314857 24.6407143,45.1555673 24.6407143,44.5606694 C24.6407143,43.9657714 24.1692857,43.4898531 23.58,43.4898531 L11.7192857,43.4898531 C11.13,43.4898531 10.6585714,43.9657714 10.6585714,44.5606694 C10.6585714,45.1555673 11.1407143,45.6314857 11.7192857,45.6314857 Z" id="Shape"></path>
                    <path d="M3.58714286,21.8897571 C3.52285714,23.0254714 3.51214286,24.1611857 3.51214286,25.2536347 C3.51214286,25.9675122 3.50142857,26.7030224 3.48,27.4385327 C3.48,27.449349 3.48,27.4601653 3.48,27.4709816 L3.48,30.9105735 C3.48,32.4032265 4.63714286,33.5713898 6.11571429,33.5713898 L20.8478571,33.5713898 L27.3728571,33.6795531 C28.7657143,33.6795531 29.8478571,32.6087367 29.8478571,31.2350633 L29.8478571,28.8987367 C29.8478571,27.3628184 29.0764286,25.9566959 27.7585714,25.1238388 C27.7478571,25.1130224 26.055,24.0530224 24.1478571,22.3764918 C23.7085714,21.9871041 23.0335714,22.0303694 22.6478571,22.4846551 C22.2621429,22.9281245 22.305,23.6095531 22.755,23.9989408 C24.8228571,25.8160837 26.6442857,26.951798 26.6442857,26.951798 C27.33,27.384451 27.7264286,28.0983286 27.7264286,28.9095531 L27.7264286,31.2458796 C27.7264286,31.4730224 27.5335714,31.5487367 27.3835714,31.5487367 L20.8585714,31.4405735 L6.11571429,31.4405735 C5.805,31.4405735 5.60142857,31.2350633 5.60142857,30.9213898 L5.60142857,27.4926143 C5.62285714,26.7462878 5.62285714,25.9999612 5.63357143,25.2752673 C5.64428571,24.1611857 5.64428571,23.112002 5.70857143,22.0087367 C5.82642857,19.3371041 6.11571429,17.1089408 6.63,14.9997571 C7.11214286,12.9662878 7.73357143,10.8354714 9.04071429,9.00751224 C10.3264286,7.13628776 11.5371429,6.41159388 13.2192857,6.48730816 C15.3514286,6.55220612 16.8942857,5.64363469 17.8157143,3.79404286 C18.1157143,3.20996122 18.5978571,2.75567551 19.2621429,2.43118571 C19.2514286,4.22669592 20.0657143,5.76261429 21.6835714,7.00649184 C23.4407143,8.38016531 25.1871429,9.7646551 26.9335714,11.1383286 C28.68,12.512002 30.4264286,13.8964918 32.1835714,15.2701653 C32.4835714,15.5081245 32.6014286,15.692002 32.6121429,15.7785327 C32.6228571,15.8650633 32.5585714,16.0597571 32.3335714,16.351798 L30.6192857,18.3852673 C29.9014286,19.1748592 29.3121429,19.2830224 28.4014286,18.7854714 C28.3907143,18.7854714 28.38,18.7746551 28.3692857,18.7746551 C27.855,18.5150633 27.3835714,18.2771041 26.9657143,17.9958796 C26.955,17.9850633 26.9442857,17.9850633 26.9442857,17.9742469 C25.9157143,17.3252673 24.6942857,17.1305735 23.4192857,17.411798 C23.4085714,17.411798 23.3978571,17.4226143 23.3871429,17.4226143 C22.1764286,17.7362878 21.0835714,17.4766959 19.9478571,16.6113898 L19.1764286,15.9840429 C18.7157143,15.6162878 18.0514286,15.692002 17.6871429,16.1462878 C17.3228571,16.6113898 17.3978571,17.282002 17.8478571,17.6497571 L18.63,18.2879204 C18.6407143,18.2987367 18.6407143,18.2987367 18.6514286,18.3095531 C20.3014286,19.5750633 22.0692857,19.9752673 23.8907143,19.5101653 C24.6085714,19.3587367 25.2514286,19.4452673 25.7978571,19.7913898 C26.3121429,20.1375122 26.8692857,20.4187367 27.405,20.6891449 C29.1942857,21.651798 30.8014286,21.3597571 32.1942857,19.8238388 C32.205,19.8130224 32.2157143,19.8022061 32.2157143,19.7913898 L33.9514286,17.7254714 C33.9621429,17.7146551 33.9621429,17.7038388 33.9728571,17.6930224 C34.5514286,16.9466959 34.7978571,16.2436347 34.7014286,15.5189408 C34.6157143,14.8050633 34.2085714,14.1777163 33.4692857,13.5828184 C31.7121429,12.2091449 29.9657143,10.8246551 28.2192857,9.45098163 C26.4728571,8.07730816 24.7264286,6.69281837 22.9585714,5.30832857 C21.6728571,4.32404286 21.1907143,3.1991449 21.4264286,1.78220612 C21.4264286,1.76057347 21.4371429,1.73894082 21.4371429,1.72812449 C21.5228571,0.94934898 21.1692857,0.516695918 20.9442857,0.332818367 C20.6657143,0.0948591837 20.1514286,-0.1431 19.3371429,0.10567551 C17.7835714,0.581593878 16.605,1.51179796 15.93,2.82057347 C15.3728571,3.9346551 14.5907143,4.38894082 13.305,4.34567551 C10.1978571,4.20506327 8.46214286,6.09792041 7.305,7.75281837 C5.78357143,9.87281837 5.06571429,12.3497571 4.56214286,14.4805735 C4.01571429,16.7303694 3.705,19.0883286 3.58714286,21.8897571 Z" id="Shape"></path>
                </g>
            </g>
        </g>
    </g>
</svg>