<?xml version="1.0" encoding="UTF-8"?>
<svg width="55px" height="54px" viewBox="0 0 55 54" version="1.1" xmlns="http://www.w3.org/2000/svg" xmlns:xlink="http://www.w3.org/1999/xlink">
    <!-- Generator: Sketch 47.1 (45422) - http://www.bohemiancoding.com/sketch -->
    <title>monitoring-system</title>
    <desc>Created with Sketch.</desc>
    <defs>
        <linearGradient x1="50%" y1="0%" x2="50%" y2="100%" id="linearGradient-1">
            <stop stop-color="#FE0000" offset="0%"></stop>
            <stop stop-color="#DC4848" offset="100%"></stop>
        </linearGradient>
        <linearGradient x1="50%" y1="0%" x2="50%" y2="100%" id="linearGradient-2">
            <stop stop-color="#FA0808" offset="0%"></stop>
            <stop stop-color="#DD4646" offset="100%"></stop>
        </linearGradient>
    </defs>
    <g id="Page-1" stroke="none" stroke-width="1" fill="none" fill-rule="evenodd">
        <g id="Artboard-3" transform="translate(-200.000000, -1788.000000)" stroke="url(#linearGradient-2)" fill-rule="nonzero" fill="url(#linearGradient-1)">
            <g id="Group-28" transform="translate(60.000000, 1746.000000)">
                <g id="monitoring-system" transform="translate(141.000000, 43.000000)">
                    <path d="M27.6587135,32.2307421 C26.2341213,32.2307421 25.0751807,33.3940377 25.0751807,34.8238742 C25.0751807,36.2537107 26.2341213,37.4170063 27.6587135,37.4170063 C29.0831971,37.4170063 30.2421377,36.2537107 30.2421377,34.8238742 C30.2421377,33.3939287 29.0831971,32.2307421 27.6587135,32.2307421 Z M27.6587135,36.4903816 C26.7431602,36.4903816 25.9983364,35.7428679 25.9983364,34.8238742 C25.9983364,33.9048805 26.7431602,33.1573669 27.6587135,33.1573669 C28.5741582,33.1573669 29.3189819,33.9048805 29.3189819,34.8238742 C29.3189819,35.7427589 28.5741582,36.4903816 27.6587135,36.4903816 Z" id="Shape"></path>
                    <path d="M49.2644775,0.0284528302 L3.64429303,0.0284528302 C1.63485451,0.0284528302 0,1.66945073 0,3.68654927 L0,36.5792201 C0,38.5963187 1.63485451,40.2373166 3.64429303,40.2373166 L19.6634344,40.2373166 L17.7647746,46.5665996 L17.552123,46.5665996 C16.0039365,46.5665996 14.7444262,47.8310608 14.7444262,49.385174 L14.7444262,51.5256771 C14.7444262,51.7816436 14.9511045,51.9889895 15.2060041,51.9889895 L37.7032008,51.9889895 C37.9581004,51.9889895 38.1647787,51.7816436 38.1647787,51.5256771 L38.1647787,49.385174 C38.1647787,47.8309518 36.9050512,46.5665996 35.3566475,46.5665996 L35.1441045,46.5665996 L33.2454447,40.2373166 L49.2648033,40.2373166 C51.2742418,40.2373166 52.9090963,38.5963187 52.9090963,36.5792201 L52.9090963,3.68654927 C52.9087705,1.66945073 51.273916,0.0284528302 49.2644775,0.0284528302 Z M0.923155738,18.5875472 L13.9080471,18.5875472 C14.0874652,18.5875472 14.2507008,18.4831111 14.3265082,18.3198071 L17.2200041,12.0831866 L20.339293,24.34374 C20.3869713,24.5312453 20.5456455,24.6690398 20.7373361,24.6897526 C20.9288094,24.7109015 21.1132234,24.6094088 21.1993484,24.4362935 L24.2402234,18.3314717 C24.2417439,18.3284193 25.9536004,14.5835835 29.375793,7.09696436 L32.579252,18.2525451 C32.6361619,18.4509518 32.8171004,18.5875472 33.0228012,18.5875472 L37.5294303,18.5875472 L39.8207029,26.3232285 C39.8769611,26.5131321 40.0472561,26.64613 40.2444857,26.6540881 C40.4530102,26.6545241 40.6243914,26.5374423 40.6934652,26.3585493 L43.6927439,18.5875472 L51.9856148,18.5875472 L51.9856148,28.9465577 L0.923155738,28.9465577 L0.923155738,18.5875472 Z M3.64429303,0.955077568 L49.2645861,0.955077568 C50.7649857,0.955077568 51.9857234,2.18040252 51.9857234,3.68665828 L51.9856148,17.6610314 L43.3765902,17.6610314 C43.1859857,17.6610314 43.0150389,17.7785493 42.9461824,17.9570063 L40.3206189,24.75974 L38.3161762,17.992327 C38.2579631,17.7957736 38.078002,17.6610314 37.8737131,17.6610314 L33.370125,17.6610314 L29.9185,5.64085535 C29.8650656,5.45465828 29.7018299,5.32155136 29.5093791,5.30705241 C29.3183402,5.29255346 29.1358811,5.3998239 29.0554037,5.5758826 L23.4110123,17.9239748 L20.9272889,22.9101971 L17.7944242,10.5965535 C17.7462029,10.4068679 17.5842705,10.2679832 17.3899734,10.2498868 C17.1962193,10.2305912 17.0111537,10.3380797 16.9287213,10.5156646 L13.6137234,17.6609224 L0.923155738,17.6609224 L0.923155738,3.68654927 C0.923155738,2.18040252 2.14389344,0.955077568 3.64429303,0.955077568 Z M37.2414057,49.385283 L37.2414057,51.0624738 L15.6673648,51.0624738 L15.6673648,49.385283 C15.6673648,48.3421216 16.5127582,47.4933333 17.5519057,47.4933333 L35.3564303,47.4933333 C36.3957951,47.4932243 37.2414057,48.3420126 37.2414057,49.385283 Z M34.1797869,46.5665996 L18.7287664,46.5665996 L20.6274262,40.2373166 L32.2810184,40.2373166 L34.1797869,46.5665996 Z M49.2644775,39.3108008 L3.64429303,39.3108008 C2.14389344,39.3108008 0.923155738,38.0854759 0.923155738,36.5793291 L0.923155738,29.8731824 L51.9856148,29.8731824 L51.9856148,36.5793291 C51.9856148,38.0853669 50.764877,39.3108008 49.2644775,39.3108008 Z" id="Shape"></path>
                </g>
            </g>
        </g>
    </g>
</svg>