<?xml version="1.0" encoding="UTF-8" standalone="no"?>
<svg width="188px" height="72px" viewBox="0 0 188 72" version="1.1" xmlns="http://www.w3.org/2000/svg" xmlns:xlink="http://www.w3.org/1999/xlink">
    <!-- Generator: Sketch 42 (36781) - http://www.bohemiancoding.com/sketch -->
    <title>in_store_analysis</title>
    <desc>Created with Sketch.</desc>
    <defs>
        <filter x="-50%" y="-50%" width="200%" height="200%" filterUnits="objectBoundingBox" id="filter-1">
            <feGaussianBlur stdDeviation="24.654182 0" in="SourceGraphic"></feGaussianBlur>
        </filter>
        <ellipse id="path-2" cx="69.9075794" cy="20.8117239" rx="20.8007539" ry="20.8117239"></ellipse>
        <mask id="mask-3" maskContentUnits="userSpaceOnUse" maskUnits="objectBoundingBox" x="-2" y="-2" width="45.6015078" height="45.6234478">
            <rect x="47.1068255" y="-2" width="45.6015078" height="45.6234478" fill="white"></rect>
            <use xlink:href="#path-2" fill="black"></use>
        </mask>
    </defs>
    <g id="Page-1" stroke="none" stroke-width="1" fill="none" fill-rule="evenodd">
        <g id="Large-Device-Desktops" transform="translate(-63.000000, -1008.000000)">
            <g id="Group-23" transform="translate(79.000000, 636.000000)">
                <g id="iot_solutions_retail">
                    <g id="Group-10" transform="translate(23.000000, 374.000000)">
                        <g id="Group-4">
                            <g id="Group-15">
                                <g id="Group-14">
                                    <g id="Group-20">
                                        <g id="in_store_analysis" transform="translate(12.000000, 0.000000)">
                                            <g id="Group-2">
                                                <g id="store" transform="translate(0.000000, 13.931524)">
                                                    <ellipse id="Oval-9" fill-opacity="0.142408288" fill="#000000" filter="url(#filter-1)" cx="43" cy="54.5" rx="43" ry="1.5"></ellipse>
                                                    <g id="Capa_1" transform="translate(8.000000, 0.000000)">
                                                        <g id="Group">
                                                            <rect id="Rectangle-path" fill="#DEDEDE" x="4.37910609" y="9.858185" width="61.3074852" height="42.7188017"></rect>
                                                            <rect id="Rectangle-path" fill="#B0B6BB" x="4.37910609" y="46.0048633" width="61.3074852" height="6.57212333"></rect>
                                                            <rect id="Rectangle-path" fill="#B0B6BB" x="4.37910609" y="7.66747722" width="61.3074852" height="7.66747722"></rect>
                                                            <path d="M26.2746365,17.5256622 L10.9477652,17.5256622 C10.3431749,17.5256622 9.85298869,18.0161069 9.85298869,18.6210161 L9.85298869,51.4816328 L27.369413,51.4816328 L27.369413,18.6210161 C27.369413,18.0161069 26.8792268,17.5256622 26.2746365,17.5256622 Z" id="Shape" fill="#38454F"></path>
                                                            <path d="M68.9709208,53.6723406 L1.09477652,53.6723406 C0.489638799,53.6723406 0,53.1824435 0,52.5769867 C0,51.9715298 0.489638799,51.4816328 1.09477652,51.4816328 L68.9709208,51.4816328 C69.5760586,51.4816328 70.0656974,51.9715298 70.0656974,52.5769867 C70.0656974,53.1824435 69.5760586,53.6723406 68.9709208,53.6723406 Z" id="Shape" fill="#38454F"></path>
                                                            <path d="M24.0850835,38.3373861 C23.4799457,38.3373861 22.9903069,37.8474891 22.9903069,37.2420322 L22.9903069,35.0513244 C22.9903069,34.4458676 23.4799457,33.9559706 24.0850835,33.9559706 C24.6902212,33.9559706 25.17986,34.4458676 25.17986,35.0513244 L25.17986,37.2420322 C25.17986,37.8474891 24.6902212,38.3373861 24.0850835,38.3373861 Z" id="Shape" fill="#C8C3D1"></path>
                                                            <path d="M5.47388261,13.1442467 L5.47388261,13.1442467 C3.65997476,13.1442467 2.18955304,11.6730495 2.18955304,9.858185 L2.18955304,2.19070778 C2.18955304,0.980752488 3.16978857,0 4.37910609,0 L8.75821217,0 L8.75821217,9.858185 C8.75821217,11.6730495 7.28779046,13.1442467 5.47388261,13.1442467 Z" id="Shape" fill="#E15036"></path>
                                                            <path d="M12.0425417,13.1442467 L12.0425417,13.1442467 C10.2286339,13.1442467 8.75821217,11.6730495 8.75821217,9.858185 L8.75821217,0 L15.3268713,0 L15.3268713,9.858185 C15.3268713,11.6730495 13.8564496,13.1442467 12.0425417,13.1442467 Z" id="Shape" fill="#D1364A"></path>
                                                            <path d="M18.6112009,13.1442467 L18.6112009,13.1442467 C16.797293,13.1442467 15.3268713,11.6730495 15.3268713,9.858185 L15.3268713,0 L21.8955304,0 L21.8955304,9.858185 C21.8955304,11.6730495 20.4251087,13.1442467 18.6112009,13.1442467 Z" id="Shape" fill="#E15036"></path>
                                                            <path d="M25.17986,13.1442467 L25.17986,13.1442467 C23.3659521,13.1442467 21.8955304,11.6730495 21.8955304,9.858185 L21.8955304,0 L28.4641896,0 L28.4641896,9.858185 C28.4641896,11.6730495 26.9937678,13.1442467 25.17986,13.1442467 Z" id="Shape" fill="#D1364A"></path>
                                                            <path d="M31.7485191,13.1442467 L31.7485191,13.1442467 C29.9346113,13.1442467 28.4641896,11.6730495 28.4641896,9.858185 L28.4641896,0 L35.0328487,0 L35.0328487,9.858185 C35.0328487,11.6730495 33.562427,13.1442467 31.7485191,13.1442467 Z" id="Shape" fill="#E15036"></path>
                                                            <path d="M38.3171782,13.1442467 L38.3171782,13.1442467 C36.5032704,13.1442467 35.0328487,11.6730495 35.0328487,9.858185 L35.0328487,0 L41.6015078,0 L41.6015078,9.858185 C41.6015078,11.6730495 40.1310861,13.1442467 38.3171782,13.1442467 Z" id="Shape" fill="#D1364A"></path>
                                                            <path d="M44.8858374,13.1442467 L44.8858374,13.1442467 C43.0719295,13.1442467 41.6015078,11.6730495 41.6015078,9.858185 L41.6015078,0 L48.1701669,0 L48.1701669,9.858185 C48.1701669,11.6730495 46.6997452,13.1442467 44.8858374,13.1442467 Z" id="Shape" fill="#E15036"></path>
                                                            <path d="M51.4544965,13.1442467 L51.4544965,13.1442467 C49.6405887,13.1442467 48.1701669,11.6730495 48.1701669,9.858185 L48.1701669,0 L54.7388261,0 L54.7388261,9.858185 C54.7388261,11.6730495 53.2684043,13.1442467 51.4544965,13.1442467 Z" id="Shape" fill="#E9001E"></path>
                                                            <path d="M58.0231556,13.1442467 L58.0231556,13.1442467 C56.2092478,13.1442467 54.7388261,11.6730495 54.7388261,9.858185 L54.7388261,0 L61.3074852,0 L61.3074852,9.858185 C61.3074852,11.6730495 59.8370635,13.1442467 58.0231556,13.1442467 Z" id="Shape" fill="#FF4F19"></path>
                                                            <path d="M64.5918148,13.1442467 L64.5918148,13.1442467 C62.7779069,13.1442467 61.3074852,11.6730495 61.3074852,9.858185 L61.3074852,0 L65.6865913,0 C66.8959088,0 67.8761443,0.980752488 67.8761443,2.19070778 L67.8761443,9.858185 C67.8761443,11.6730495 66.4057226,13.1442467 64.5918148,13.1442467 Z" id="Shape" fill="#E9001E"></path>
                                                            <path d="M60.2127087,18.6210161 L32.8432956,18.6210161 C32.2387053,18.6210161 31.7485191,19.1114608 31.7485191,19.71637 L31.7485191,41.6234478 C31.7485191,42.228357 32.2387053,42.7188017 32.8432956,42.7188017 L60.2127087,42.7188017 C60.817299,42.7188017 61.3074852,42.228357 61.3074852,41.6234478 L61.3074852,19.71637 C61.3074852,19.1114608 60.817299,18.6210161 60.2127087,18.6210161 Z" id="Shape" fill="#53DCFF"></path>
                                                            <path d="M54.4087509,42.7188017 L60.2127087,42.7188017 C60.817299,42.7188017 61.3074852,42.228357 61.3074852,41.6234478 L61.3074852,40.3268226 L39.61312,18.6210161 L31.7485191,18.6210161 C31.3605577,18.6210161 31.0359564,18.8346101 30.8414968,19.1391185 L54.4087509,42.7188017 Z" id="Shape" fill="#B3F4FF"></path>
                                                            <polygon id="Shape" fill="#FFFFFF" points="45.7149937 18.6210161 61.3074852 34.2217308 61.3074852 29.574555 50.35972 18.6210161"></polygon>
                                                            <path d="M60.2127087,43.8141556 L32.8432956,43.8141556 C31.6363045,43.8141556 30.6537426,42.8310754 30.6537426,41.6234478 L30.6537426,19.71637 C30.6537426,18.5087423 31.6363045,17.5256622 32.8432956,17.5256622 L60.2127087,17.5256622 C61.4196998,17.5256622 62.4022617,18.5087423 62.4022617,19.71637 L62.4022617,41.6234478 C62.4022617,42.8310754 61.4196998,43.8141556 60.2127087,43.8141556 Z M32.8432956,19.71637 L32.8432956,41.6234478 L60.2148982,41.6234478 L60.2127087,19.71637 L32.8432956,19.71637 Z" id="Shape" fill="#38454F"></path>
                                                            <path d="M24.0850835,31.7652628 L13.1373183,31.7652628 C12.5327279,31.7652628 12.0425417,31.2748181 12.0425417,30.6699089 L12.0425417,20.8117239 C12.0425417,20.2068147 12.5327279,19.71637 13.1373183,19.71637 L24.0850835,19.71637 C24.6896738,19.71637 25.17986,20.2068147 25.17986,20.8117239 L25.17986,30.6699089 C25.17986,31.2748181 24.6896738,31.7652628 24.0850835,31.7652628 Z" id="Shape" fill="#53DCFF"></path>
                                                            <path d="M18.6247487,19.71637 L13.1373183,19.71637 C12.5327279,19.71637 12.0425417,20.2068147 12.0425417,20.8117239 L12.0425417,22.4251802 L21.3777011,31.7652628 L24.0850835,31.7652628 C24.6896738,31.7652628 25.17986,31.2748181 25.17986,30.6699089 L25.17986,26.2749383 L18.6247487,19.71637 Z" id="Shape" fill="#B3F4FF"></path>
                                                        </g>
                                                    </g>
                                                </g>
                                                <g id="Oval-11" opacity="0.756413246">
                                                    <use fill="#FFFFFF" fill-rule="evenodd" xlink:href="#path-2"></use>
                                                    <use stroke="#E1E1E1" mask="url(#mask-3)" stroke-width="4" xlink:href="#path-2"></use>
                                                </g>
                                            </g>
                                            <g id="loss" transform="translate(49.000000, 0.000000)">
                                                <g id="Layer_1">
                                                    <circle id="Oval" fill="#DBDBDB" cx="21" cy="21" r="21"></circle>
                                                    <path d="M6.38267717,36.080315 C10.1527559,39.7511811 15.311811,42 21,42 C26.688189,42 31.8472441,39.7511811 35.6173228,36.080315 L6.38267717,36.080315 Z" id="Shape" fill="#C7C4C3"></path>
                                                    <polygon id="Shape" fill="#324A5E" points="25.9606299 36.080315 24.3401575 36.080315 23.0834646 32.376378 18.9165354 32.376378 17.6929134 36.080315 16.1385827 36.080315 18.4866142 29.1685039 19.9086614 29.1685039 19.2472441 31.1858268 22.7858268 31.1858268 22.0913386 29.1685039 23.5795276 29.1685039"></polygon>
                                                    <path d="M35.4850394,13.0299213 L35.4850394,27.8456693 C35.4850394,28.5732283 34.8897638,29.1685039 34.1622047,29.1685039 L7.93700787,29.1685039 C7.20944882,29.1685039 6.61417323,28.5732283 6.61417323,27.8456693 L6.61417323,13.0299213 L35.4850394,13.0299213 Z" id="Shape" fill="#FFFFFF"></path>
                                                    <path d="M35.9480315,13.0299213 L6.0519685,13.0299213 C5.82047244,13.0299213 5.62204724,12.8314961 5.62204724,12.6 L5.62204724,11.1779528 C5.62204724,10.9464567 5.82047244,10.7480315 6.0519685,10.7480315 L35.9480315,10.7480315 C36.1795276,10.7480315 36.3779528,10.9464567 36.3779528,11.1779528 L36.3779528,12.6 C36.3779528,12.8645669 36.1795276,13.0299213 35.9480315,13.0299213 Z" id="Shape" fill="#324A5E"></path>
                                                    <g id="Group" transform="translate(11.657480, 16.039370)" fill="#E6E9EE">
                                                        <polygon id="Shape" points="0.744094488 0.661417323 0.744094488 10.880315 0.0165354331 10.880315 0.0165354331 0.0330708661"></polygon>
                                                        <path d="M2.99291339,2.67874016 L2.99291339,10.9133858 L2.2984252,10.9133858 L2.2984252,2.0503937 L2.89370079,2.57952756 C2.89370079,2.61259843 2.95984252,2.64566929 2.99291339,2.67874016 Z" id="Shape"></path>
                                                        <polygon id="Shape" points="5.24173228 1.42204724 5.24173228 10.880315 4.54724409 10.880315 4.54724409 1.91811024"></polygon>
                                                        <polygon id="Shape" points="7.49055118 1.09133858 7.49055118 10.880315 6.79606299 10.880315 6.79606299 0.264566929 6.86220472 0.231496063"></polygon>
                                                        <polygon id="Shape" points="9.73937008 4.16692913 9.73937008 10.880315 9.04488189 10.880315 9.04488189 3.20787402"></polygon>
                                                        <path d="M11.988189,5.52283465 L11.988189,10.9133858 L11.2937008,10.9133858 L11.2937008,5.95275591 C11.4590551,5.95275591 11.5913386,5.91968504 11.723622,5.82047244 L11.988189,5.52283465 Z" id="Shape"></path>
                                                        <polygon id="Shape" points="14.2370079 3.96850394 14.2370079 10.880315 13.5425197 10.880315 13.5425197 4.1007874 13.9724409 3.70393701"></polygon>
                                                        <polygon id="Shape" points="16.4858268 6.0519685 16.4858268 10.880315 15.7913386 10.880315 15.7913386 5.39055118"></polygon>
                                                        <polygon id="Shape" points="18.7346457 8.3007874 18.7346457 10.880315 18.0401575 10.880315 18.0401575 8.13543307"></polygon>
                                                    </g>
                                                    <path d="M31.615748,24.6047244 L28.2094488,23.8440945 L29.1023622,22.9511811 L25.6299213,19.7433071 L23.3480315,21.7937008 C23.215748,21.8929134 23.0834646,21.9590551 22.9181102,21.9259843 C22.7527559,21.9259843 22.6204724,21.8267717 22.5212598,21.6944882 L18.519685,16.2377953 L15.2456693,18.6519685 C15.0141732,18.8173228 14.7165354,18.784252 14.5181102,18.6188976 L10.6488189,15.1464567 C10.4173228,14.9480315 10.384252,14.584252 10.615748,14.3527559 C10.7149606,14.2204724 10.880315,14.1543307 11.0456693,14.1543307 C11.1779528,14.1543307 11.3102362,14.1874016 11.4425197,14.2866142 L14.9480315,17.4614173 L18.288189,14.9811024 C18.4204724,14.8818898 18.5527559,14.8488189 18.7181102,14.8818898 C18.8834646,14.9149606 19.015748,14.9811024 19.0818898,15.1133858 L23.0503937,20.5370079 L25.2330709,18.5527559 C25.4645669,18.3543307 25.7952756,18.3543307 25.9937008,18.5527559 L29.9291339,22.1574803 L30.888189,21.1984252 L31.615748,24.6047244 Z" id="Shape" fill="#FF7058"></path>
                                                </g>
                                            </g>
                                        </g>
                                    </g>
                                </g>
                            </g>
                        </g>
                    </g>
                </g>
            </g>
        </g>
    </g>
</svg>