<?xml version="1.0" encoding="UTF-8" standalone="no"?>
<svg width="112px" height="67px" viewBox="0 0 112 67" version="1.1" xmlns="http://www.w3.org/2000/svg" xmlns:xlink="http://www.w3.org/1999/xlink">
    <!-- Generator: Sketch 42 (36781) - http://www.bohemiancoding.com/sketch -->
    <title>smart_mirrors</title>
    <desc>Created with Sketch.</desc>
    <defs>
        <filter x="-50%" y="-50%" width="200%" height="200%" filterUnits="objectBoundingBox" id="filter-1">
            <feGaussianBlur stdDeviation="10 0" in="SourceGraphic"></feGaussianBlur>
        </filter>
    </defs>
    <g id="Page-1" stroke="none" stroke-width="1" fill="none" fill-rule="evenodd">
        <g id="Large-Device-Desktops" transform="translate(-350.000000, -1010.000000)">
            <g id="Group-23" transform="translate(79.000000, 636.000000)">
                <g id="iot_solutions_retail">
                    <g id="Group-10" transform="translate(23.000000, 374.000000)">
                        <g id="Group-4">
                            <g id="smart_mirrors" transform="translate(273.000000, 0.000000)">
                                <g id="Layer_1" transform="translate(7.000000, 0.000000)">
                                    <g id="Group">
                                        <polygon id="Shape" fill="#DFDFDF" points="0.0474653465 0 0.0474653465 65.0324329 50.9073416 65.0324329 50.9073416 0"></polygon>
                                        <polyline id="Shape" fill="#94BDDF" points="50 0.971014493 50 64.0869565 1 64.0869565 1 0.971014493 50 0.971014493"></polyline>
                                        <polygon id="Shape" fill="#ACD0ED" points="42.0771484 0.848689425 0.923583984 22.7553074 0.923583984 63.6341641 49.8654785 34.4084296 49.8654785 0.848689425"></polygon>
                                        <polygon id="Shape" fill="#ACD0ED" points="16.0169678 64.0484336 50.0464478 64.0484336 50.0464478 45.1359285"></polygon>
                                        <polygon id="Shape" fill="#75B0D8" points="5.6355 3.1587357 45.3195594 3.1587357 45.3195594 61.8735545 45.3195594 3.1587357"></polygon>
                                    </g>
                                </g>
                                <ellipse id="Oval-5" fill="#D8D8D8" filter="url(#filter-1)" cx="31" cy="66.0289855" rx="31" ry="0.971014493"></ellipse>
                                <path d="M9.89285714,17.9637681 L42.6785714,17.9637681" id="Line" stroke="#798996" stroke-linecap="square" opacity="0.451259328"></path>
                                <path d="M9.89285714,20.8768116 L26.9229475,20.8768116" id="Line" stroke="#798996" stroke-linecap="square" opacity="0.451259328"></path>
                                <path d="M24.83843,27.5434298 L54.6850773,27.5434298" id="Line" stroke="#798996" stroke-linecap="square" opacity="0.451259328"></path>
                                <path d="M24.83843,30.4564733 L54.6850773,30.4564733" id="Line" stroke="#798996" stroke-linecap="square" opacity="0.451259328"></path>
                                <path d="M24.83843,33.3695168 L54.6850773,33.3695168" id="Line" stroke="#798996" stroke-linecap="square" opacity="0.451259328"></path>
                                <path d="M24.83843,36.4130435 L40.3418622,36.4130435" id="Line" stroke="#798996" stroke-linecap="square" opacity="0.451259328"></path>
                                <text id="12:15-PM" opacity="0.648670709" font-family="OpenSans-Extrabold, Open Sans" font-size="7" font-weight="600" fill="#535353">
                                    <tspan x="9.35219029" y="12.826087">12:15 PM</tspan>
                                </text>
                                <g id="dress" transform="translate(10.000000, 23.000000)">
                                    <g id="Layer_1">
                                        <path d="M9.4732967,6.46336549 C9.16879121,6.51216156 8.84934066,6.53944125 8.51681319,6.53944125 C8.18428571,6.53944125 7.86483516,6.51254578 7.56032967,6.46374971 L0.329912088,22.7539512 L8.51681319,23.4532334 L16.7033407,22.7539512 L9.4732967,6.46336549 Z" id="Shape" fill="#4990E2"></path>
                                        <g id="Group" transform="translate(4.576923, 2.641519)">
                                            <path d="M7.84802198,1.92494716 C7.84802198,4.68519075 4.07701099,6.9228938 3.93989011,6.9228938 C3.8023956,6.9228938 0.0317582418,4.68519075 0.0317582418,1.92494716 C0.0317582418,-0.836064874 1.57072527,0.644722821 3.93989011,0.644722821 C6.30905495,0.644722821 7.84802198,-0.836064874 7.84802198,1.92494716 Z" id="Shape" fill="#DB9C2E"></path>
                                            <path d="M7.84802198,1.92494716 C7.84802198,4.68519075 4.07701099,6.9228938 3.93989011,6.9228938 C3.8023956,6.9228938 0.0317582418,4.68519075 0.0317582418,1.92494716 C0.0317582418,-0.836064874 1.57072527,0.254354295 3.93989011,0.254354295 C6.30905495,0.254354295 7.84802198,-0.836064874 7.84802198,1.92494716 Z" id="Shape" fill="#4990E2"></path>
                                        </g>
                                        <path d="M8.51681319,4.19723009 C6.47494505,4.19723009 5.05292308,3.29277388 4.6976044,4.91610757 C5.26626374,7.32517317 8.39164835,9.5644131 8.51681319,9.5644131 C8.64123077,9.5644131 11.7666154,7.32517317 12.336022,4.91610757 C11.9807033,3.29277388 10.5586813,4.19723009 8.51681319,4.19723009 Z" id="Shape" fill="#4990E2"></path>
                                        <g id="Group" transform="translate(4.670330, 4.322486)" fill="#4990E2">
                                            <path d="M3.78857143,1.19262195 C1.7467033,1.19262195 0.382593407,-1.02932803 0.0276483516,0.593621429 C0.596307692,3.00268704 3.72169231,5.24192696 3.84685714,5.24192696 C3.97127473,5.24192696 7.09665934,3.00268704 7.66606593,0.593621429 C7.31037363,-1.02971225 5.83043956,1.19262195 3.78857143,1.19262195 Z" id="Shape"></path>
                                            <polygon id="Shape" points="5.59804396 5.31992383 2.09417582 5.31992383 0.916131868 1.34554191 6.77608791 1.34554191"></polygon>
                                        </g>
                                        <g id="Group" transform="translate(5.697802, 0.000000)" fill="#4990E2">
                                            <path d="M0.710948718,3.21554546 C0.710948718,3.33772774 0.551280891,3.43685675 0.356473812,3.43685675 L0.356473812,3.43685675 C0.161666734,3.43685675 0.00261538461,3.33772774 0.00261538461,3.21554546 L0.00261538461,0.220542848 C0.00261538461,0.0991290154 0.161666734,0 0.356473812,0 L0.356473812,0 C0.551280891,0 0.710948718,0.0991290154 0.710948718,0.220542848 L0.710948718,3.21554546 Z" id="Shape"></path>
                                            <path d="M5.91481685,3.21554546 C5.91481685,3.33772774 5.75638198,3.43685675 5.56034194,3.43685675 L5.56034194,3.43685675 C5.36553487,3.43685675 5.20648352,3.33772774 5.20648352,3.21554546 L5.20648352,0.220542848 C5.20648352,0.0991290154 5.36553487,0 5.56034194,0 L5.56034194,0 C5.75638198,0 5.91481685,0.0991290154 5.91481685,0.220542848 L5.91481685,3.21554546 Z" id="Shape"></path>
                                        </g>
                                        <path d="M16.9958901,22.7139923 C16.9958901,23.0532594 13.1994725,24.144447 8.51681319,24.144447 C3.83415385,24.144447 0.0377362637,23.0532594 0.0377362637,22.7139923 C0.0377362637,22.3747251 3.83415385,22.1011598 8.51681319,22.1011598 C13.1994725,22.1011598 16.9958901,22.3747251 16.9958901,22.7139923 Z" id="Shape" fill="#4990E2"></path>
                                        <g id="Group" transform="translate(2.288462, 8.885110)" fill="#B8E986">
                                            <path d="M6.84178388,12.231291 C6.84178388,12.2854662 6.68391077,12.3288831 6.48831577,12.3288831 C6.29272077,12.3288831 6.13345055,12.2854662 6.13345055,12.231291 L6.13345055,0.583247463 C6.13345055,0.529072303 6.29272077,0.485655331 6.48831577,0.485655331 C6.68391077,0.485655331 6.84178388,0.529072303 6.84178388,0.583247463 L6.84178388,12.231291 Z" id="Shape"></path>
                                            <ellipse id="Oval" cx="6.47566117" cy="13.18786" rx="0.354166667" ry="0.355263158"></ellipse>
                                            <ellipse id="Oval" cx="6.47566117" cy="13.9447753" rx="0.354166667" ry="0.355263158"></ellipse>
                                            <ellipse id="Oval" cx="6.47566117" cy="14.7016907" rx="0.354166667" ry="0.355263158"></ellipse>
                                            <path d="M4.40281319,12.3492468 C4.39758242,12.403422 4.35087912,12.4422283 4.29931868,12.4372334 L4.29931868,12.4372334 C4.24738462,12.4318543 4.2089011,12.3845952 4.21375824,12.3308042 L5.29017582,0.735783196 C5.29540659,0.681608036 5.34210989,0.642801716 5.39367033,0.647412368 L5.39367033,0.647412368 C5.44597802,0.653559904 5.48408791,0.700819085 5.47923077,0.754610024 L4.40281319,12.3492468 Z" id="Shape"></path>
                                            <ellipse id="Oval" cx="4.49058425" cy="13.2935208" rx="0.354166667" ry="0.355263158"></ellipse>
                                            <ellipse id="Oval" cx="4.42034249" cy="14.0446728" rx="0.354166667" ry="0.355263158"></ellipse>
                                            <ellipse id="Oval" cx="4.35047436" cy="14.7977459" rx="0.354166667" ry="0.355263158"></ellipse>
                                            <path d="M2.55298901,11.9588783 C2.54252747,12.0115166 2.49208791,12.045328 2.4409011,12.0345698 L2.4409011,12.0345698 C2.38934066,12.0241959 2.35646154,11.972326 2.36692308,11.9189193 L4.65052747,0.511013917 C4.66098901,0.457607199 4.71142857,0.423795752 4.76261538,0.43455394 L4.76261538,0.43455394 C4.8138022,0.445696348 4.84742857,0.497566182 4.83621978,0.550204457 L2.55298901,11.9588783 Z" id="Shape"></path>
                                            <ellipse id="Oval" cx="2.56827656" cy="12.8808674" rx="0.354166667" ry="0.355263158"></ellipse>
                                            <ellipse id="Oval" cx="2.41807875" cy="13.6220297" rx="0.354166667" ry="0.355263158"></ellipse>
                                            <ellipse id="Oval" cx="2.27161722" cy="14.3635762" rx="0.354166667" ry="0.355263158"></ellipse>
                                            <path d="M0.863824176,11.2196371 C0.847010989,11.2707385 0.793208791,11.2984024 0.743516484,11.2818809 L0.743516484,11.2818809 C0.693824176,11.2653594 0.666175824,11.2111843 0.682241758,11.1596987 L4.16742857,0.076459977 C4.18274725,0.0245901434 4.23654945,-0.00307376792 4.28624176,0.0126792927 L4.28624176,0.0126792927 C4.33668132,0.0299692372 4.36358242,0.0849128388 4.34751648,0.136398451 L0.863824176,11.2196371 Z" id="Shape"></path>
                                            <path d="M1.14417189,12.221528 C1.08568172,12.4083705 0.884077281,12.510511 0.699895452,12.4507215 C0.510735737,12.3896863 0.411177991,12.1878964 0.470912638,12.0035452 C0.530647286,11.8167027 0.731007248,11.7145621 0.91767802,11.7743517 C1.10434879,11.8316501 1.20515101,12.03344 1.14417189,12.221528 Z" id="Shape"></path>
                                            <path d="M0.918551211,12.94132 C0.857794392,13.1257292 0.656924909,13.2303939 0.473414518,13.1705855 C0.286184321,13.1095311 0.185749579,12.9126618 0.242786593,12.7232685 C0.306023282,12.5363673 0.504412895,12.4341946 0.687923286,12.494003 C0.877633354,12.5538114 0.97682816,12.7556647 0.918551211,12.94132 Z" id="Shape"></path>
                                            <ellipse id="Oval" cx="0.354540293" cy="13.5528699" rx="0.354166667" ry="0.355263158"></ellipse>
                                            <path d="M8.05389011,12.3492468 C8.05912088,12.403422 8.10507692,12.4422283 8.15738462,12.4372334 L8.15738462,12.4372334 C8.20931868,12.4318543 8.2478022,12.3845952 8.24294505,12.3308042 L7.16652747,0.735783196 C7.1612967,0.681608036 7.11459341,0.642801716 7.06303297,0.647412368 L7.06303297,0.647412368 C7.01072527,0.653559904 6.97261538,0.700819085 6.97747253,0.754610024 L8.05389011,12.3492468 Z" id="Shape"></path>
                                            <ellipse id="Oval" cx="8.45999084" cy="13.2935208" rx="0.354166667" ry="0.355263158"></ellipse>
                                            <ellipse id="Oval" cx="8.53097985" cy="14.0446728" rx="0.354166667" ry="0.355263158"></ellipse>
                                            <ellipse id="Oval" cx="8.60084799" cy="14.7977459" rx="0.354166667" ry="0.355263158"></ellipse>
                                            <path d="M9.90371429,11.9588783 C9.9138022,12.0115166 9.96461538,12.045328 10.0161758,12.0345698 L10.0161758,12.0345698 C10.0673626,12.0241959 10.1006154,11.972326 10.0897802,11.9189193 L7.80654945,0.511013917 C7.79571429,0.457607199 7.74527473,0.423795752 7.69408791,0.43455394 L7.69408791,0.43455394 C7.6429011,0.445696348 7.60927473,0.497566182 7.62048352,0.550204457 L9.90371429,11.9588783 Z" id="Shape"></path>
                                            <ellipse id="Oval" cx="10.3841667" cy="12.8808674" rx="0.354166667" ry="0.355263158"></ellipse>
                                            <ellipse id="Oval" cx="10.5313755" cy="13.6220297" rx="0.354166667" ry="0.355263158"></ellipse>
                                            <ellipse id="Oval" cx="10.6793315" cy="14.3639604" rx="0.354166667" ry="0.355263158"></ellipse>
                                            <path d="M11.5928791,11.2196371 C11.6096923,11.2707385 11.6631209,11.2984024 11.7131868,11.2818809 L11.7131868,11.2818809 C11.7628791,11.2653594 11.7905275,11.2111843 11.7740879,11.1596987 L8.28927473,0.076459977 C8.27320879,0.0245901434 8.22015385,-0.00307376792 8.17046154,0.0126792927 L8.17046154,0.0126792927 C8.12002198,0.0299692372 8.09312088,0.0849128388 8.10918681,0.136398451 L11.5928791,11.2196371 Z" id="Shape"></path>
                                            <ellipse id="Oval" cx="12.1443205" cy="12.1128097" rx="0.354166667" ry="0.355263158"></ellipse>
                                            <path d="M12.0336777,12.94132 C12.0943541,13.1257292 12.2949578,13.2303939 12.4782254,13.1705855 C12.6652078,13.1095311 12.7655096,12.9126618 12.7085481,12.7232685 C12.6453951,12.5363673 12.447268,12.4341946 12.2640005,12.494003 C12.0745414,12.5538114 11.9730013,12.7556647 12.0336777,12.94132 Z" id="Shape"></path>
                                            <ellipse id="Oval" cx="12.5956612" cy="13.5528699" rx="0.354166667" ry="0.355263158"></ellipse>
                                        </g>
                                    </g>
                                </g>
                            </g>
                        </g>
                    </g>
                </g>
            </g>
        </g>
    </g>
</svg>