<?xml version="1.0" encoding="UTF-8" standalone="no"?>
<svg width="120px" height="66px" viewBox="0 0 120 66" version="1.1" xmlns="http://www.w3.org/2000/svg" xmlns:xlink="http://www.w3.org/1999/xlink">
    <!-- Generator: Sketch 42 (36781) - http://www.bohemiancoding.com/sketch -->
    <title>smart_shelves</title>
    <desc>Created with Sketch.</desc>
    <defs>
        <filter x="-50%" y="-50%" width="200%" height="200%" filterUnits="objectBoundingBox" id="filter-1">
            <feGaussianBlur stdDeviation="10 0" in="SourceGraphic"></feGaussianBlur>
        </filter>
        <rect id="path-2" x="3.72222222" y="0" width="62.3472222" height="63.2777778" rx="6"></rect>
        <mask id="mask-3" maskContentUnits="userSpaceOnUse" maskUnits="objectBoundingBox" x="0" y="0" width="62.3472222" height="63.2777778" fill="white">
            <use xlink:href="#path-2"></use>
        </mask>
    </defs>
    <g id="Page-1" stroke="none" stroke-width="1" fill="none" fill-rule="evenodd">
        <g id="Large-Device-Desktops" transform="translate(-479.000000, -1185.000000)">
            <g id="Group-23" transform="translate(79.000000, 636.000000)">
                <g id="iot_solutions_retail">
                    <g id="Group-10" transform="translate(23.000000, 374.000000)">
                        <g id="Group-4">
                            <g id="smart_shelves" transform="translate(402.000000, 175.000000)">
                                <g id="Layer_1">
                                    <g id="Group">
                                        <ellipse id="Oval-5" fill="#D8D8D8" filter="url(#filter-1)" cx="34.8958333" cy="64.2083333" rx="34.8958333" ry="0.930555556"></ellipse>
                                        <use id="Rectangle-5" stroke="#CFA67E" mask="url(#mask-3)" stroke-width="4" fill="#A58868" xlink:href="#path-2"></use>
                                        <path d="M64.4813345,31.1914695 L5.36548646,31.1914695 C4.97189309,31.1914695 4.65277778,30.8763226 4.65277778,30.4876238 L4.65277778,29.0799326 C4.65277778,28.6912338 4.97189309,28.376087 5.36548646,28.376087 L64.4813345,28.376087 C64.8749278,28.376087 65.1940431,28.6912338 65.1940431,29.0799326 L65.1940431,30.4876238 C65.1940431,30.8763226 64.8749278,31.1914695 64.4813345,31.1914695 Z" id="Shape" fill="#E6BE8A"></path>
                                        <path d="M4.65277778,29.5550791 L4.65277778,30.4876238 C4.65277778,31.0026217 5.07558259,31.4201686 5.59706546,31.4201686 L64.1946012,31.4201686 C64.7160841,31.4201686 65.1388889,31.0026217 65.1388889,30.4876238 L65.1388889,29.5550791 L4.65277778,29.5550791 Z" id="Shape" fill="#C9A07C"></path>
                                        <path d="M63.2931007,62.0415705 L6.49856601,62.0415705 C5.99312876,62.0415705 5.58333333,61.6946854 5.58333333,61.266841 L5.58333333,59.717382 C5.58333333,59.2895377 5.99312876,58.9426525 6.49856601,58.9426525 L63.2931007,58.9426525 C63.7985379,58.9426525 64.2083333,59.2895377 64.2083333,59.717382 L64.2083333,61.266841 C64.2083333,61.6946854 63.7985379,62.0415705 63.2931007,62.0415705 Z" id="Shape" fill="#E6BE8A"></path>
                                        <path d="M5.58333333,60.4212277 L5.58333333,61.1959572 C5.58333333,61.6238015 5.99312876,61.9706867 6.49856601,61.9706867 L63.2931007,61.9706867 C63.7985379,61.9706867 64.2083333,61.6238015 64.2083333,61.1959572 L64.2083333,60.4212277 L5.58333333,60.4212277 Z" id="Shape" fill="#C9A07C"></path>
                                        <g id="wifi-(2)" transform="translate(77.175870, 31.230195) rotate(91.000000) translate(-77.175870, -31.230195) translate(65.675870, 20.730195)">
                                            <g id="Layer_1" transform="translate(0.089426, 0.000668)">
                                                <ellipse id="Oval" fill="#C9673B" cx="10.7774781" cy="17.2217472" rx="2.21787331" ry="2.40653237"></ellipse>
                                                <path d="M12.3369203,15.5296542 C13.2032771,16.4697059 13.2032771,17.9737886 12.3369203,18.9138403 C11.4705635,19.853892 10.0843927,19.853892 9.21803596,18.9138403" id="Shape" fill="#D52727"></path>
                                                <path d="M17.3617895,10.1901605 C17.0845554,10.1901605 16.8073212,10.0773543 16.5993956,9.85174188 C15.0399534,8.12204674 12.9260429,7.18199503 10.7081696,7.18199503 C8.49029628,7.18199503 6.37638578,8.12204674 4.8169436,9.81413981 C4.40109236,10.2653646 3.70800695,10.2653646 3.2921557,9.81413981 C2.87630445,9.36291499 2.87630445,8.61087362 3.2921557,8.15964881 C5.26744912,6.01633092 7.93582795,4.81306473 10.7428239,4.81306473 L10.7428239,4.81306473 C13.5498198,4.81306473 16.1835443,6.01633092 18.193492,8.15964881 C18.6093433,8.61087362 18.6093433,9.36291499 18.193492,9.81413981 C17.9509121,10.0397522 17.6390237,10.1901605 17.3617895,10.1901605 Z" id="Shape" fill="#F45F5F"></path>
                                                <path d="M10.7081696,6.05393298 C7.90117368,6.05393298 5.26744912,7.25719917 3.25750143,9.40051706 C3.18819289,9.47572119 3.15353862,9.55092533 3.08423008,9.62612947 C3.11888435,9.7013336 3.18819289,9.77653774 3.25750143,9.85174188 C3.67335268,10.3029667 4.36643809,10.3029667 4.78228933,9.85174188 C6.37638578,8.12204674 8.45564201,7.18199503 10.6735153,7.18199503 C12.8913886,7.18199503 15.0052991,8.12204674 16.5647413,9.85174188 C16.7726669,10.0773543 17.0499011,10.1901605 17.3271353,10.1901605 C17.6043694,10.1901605 17.8816036,10.0773543 18.0895292,9.85174188 C18.1588378,9.77653774 18.193492,9.7013336 18.2628006,9.62612947 C18.2281463,9.55092533 18.1588378,9.47572119 18.0895292,9.40051706 C16.1488901,7.2195971 13.5151655,6.05393298 10.7081696,6.05393298 Z" id="Shape" fill="#F45F5F"></path>
                                                <path d="M20.3420568,6.69316814 C20.0648226,6.69316814 19.7875885,6.58036194 19.5796629,6.35474953 C17.1885182,3.79780889 14.0696338,2.3689303 10.7081696,2.3689303 C7.34670535,2.3689303 4.22782101,3.79780889 1.83667634,6.35474953 C1.42082509,6.80597435 0.727739681,6.80597435 0.311888435,6.35474953 C-0.103962812,5.90352471 -0.103962812,5.15148335 0.311888435,4.70025853 C3.08423008,1.69209307 6.79223702,0.0376020682 10.7081696,0.0376020682 L10.7081696,0.0376020682 C14.6241022,0.0376020682 18.3321091,1.69209307 21.1044508,4.70025853 C21.520302,5.15148335 21.520302,5.90352471 21.1044508,6.35474953 C20.8965251,6.58036194 20.619291,6.69316814 20.3420568,6.69316814 Z" id="Shape" fill="#F45F5F"></path>
                                                <path d="M10.7081696,1.27847032 C6.79223702,1.27847032 3.08423008,2.93296132 0.311888435,5.94112678 C0.242579894,6.01633092 0.207925623,6.05393298 0.173271353,6.12913712 C0.207925623,6.20434126 0.277234164,6.27954539 0.311888435,6.31714746 C0.727739681,6.76837228 1.42082509,6.76837228 1.83667634,6.31714746 C4.22782101,3.79780889 7.34670535,2.3689303 10.7081696,2.3689303 C14.0696338,2.3689303 17.1885182,3.79780889 19.5796629,6.35474953 C19.7875885,6.58036194 20.0648226,6.69316814 20.3420568,6.69316814 C20.619291,6.69316814 20.8965251,6.58036194 21.1044508,6.35474953 C21.1737593,6.27954539 21.2084136,6.24194333 21.2430678,6.16673919 C21.2084136,6.09153505 21.139105,6.01633092 21.1044508,5.97872885 C18.3321091,2.93296132 14.6241022,1.27847032 10.7081696,1.27847032 Z" id="Shape" fill="#F45F5F"></path>
                                                <path d="M14.6934107,13.762357 C14.4161765,13.762357 14.1389424,13.6495508 13.9310168,13.4239384 C13.06466,12.4838867 11.9210691,11.9950598 10.7081696,11.9950598 C9.49527013,11.9950598 8.3516792,12.5214887 7.48532244,13.4239384 C7.06947119,13.8751632 6.37638578,13.8751632 5.96053453,13.4239384 C5.54468329,12.9727135 5.54468329,12.2206722 5.96053453,11.7694474 C7.24274254,10.3781708 8.90614753,9.62612947 10.7081696,9.62612947 L10.7081696,9.62612947 C12.5101917,9.62612947 14.1735966,10.3781708 15.4558047,11.7694474 C15.8716559,12.2206722 15.8716559,12.9727135 15.4558047,13.4239384 C15.247879,13.6495508 14.9706449,13.762357 14.6934107,13.762357 Z" id="Shape" fill="#F45F5F"></path>
                                                <path d="M10.7081696,10.9422019 C8.90614753,10.9422019 7.24274254,11.6942432 5.96053453,13.0855197 C5.92588026,13.1231218 5.85657172,13.1983259 5.82191745,13.2735301 C5.85657172,13.3487342 5.89122599,13.3863363 5.96053453,13.4615404 C6.37638578,13.9127652 7.06947119,13.9127652 7.48532244,13.4615404 C8.3516792,12.5214887 9.49527013,12.0326618 10.7081696,12.0326618 C11.9210691,12.0326618 13.06466,12.5590908 13.9310168,13.4615404 C14.1389424,13.6871528 14.4161765,13.799959 14.6934107,13.799959 C14.9706449,13.799959 15.247879,13.6871528 15.4558047,13.4615404 C15.4904589,13.4239384 15.5597675,13.3487342 15.5944217,13.2735301 C15.5597675,13.1983259 15.5251132,13.1607239 15.4558047,13.0855197 C14.1735966,11.6942432 12.5101917,10.9422019 10.7081696,10.9422019 Z" id="Shape" fill="#F45F5F"></path>
                                            </g>
                                        </g>
                                        <g id="milk" transform="translate(8.000000, 7.376087)"></g>
                                        <g id="milk-(1)" transform="translate(8.000000, 5.000000)">
                                            <g id="Layer_1">
                                                <g id="Group">
                                                    <path d="M0.0407396992,21.9104869 C0.0407396992,22.7168007 0.671194319,23.3711699 1.44820301,23.3711699 L11.3012237,23.3711699 C12.0789321,23.3711699 12.708687,22.7168007 12.708687,21.9104869 L12.708687,5.11243082 L0.0407396992,5.11243082 L0.0407396992,21.9104869 Z M12.7136628,5.10445071 L11.9746727,2.19106481 L12.0049942,2.19106481 L12.0049942,1.46068301 C12.0049164,0.65436922 11.3745396,0 10.5974531,0 L2.15267327,0 C1.37496485,0 0.744432481,0.65436922 0.744432481,1.46068301 L0.744432481,2.19106481 L0.77327681,2.19106481 L0.0321874723,5.10445071 L12.7136628,5.10445071 Z" id="Shape" fill="#E4E5E6"></path>
                                                    <polygon id="Shape" fill="#CCD0D2" points="0.773354557 2.19106481 0.0336646751 5.09929185 0.0336646751 5.10445071 12.7136628 5.10445071 11.9747504 2.19106481"></polygon>
                                                    <path d="M0.0336646751,10.2139797 L0.0336646751,17.5203772 L12.7051106,17.5203772 L12.7051106,10.2139797 C12.7052661,10.2139797 0.0336646751,10.2139797 0.0336646751,10.2139797 Z M11.3048,14.6069913 L1.44260519,14.6069913 L1.44260519,12.4159265 L11.3047223,12.4159265 L11.3047223,14.6069913 L11.3048,14.6069913 Z" id="Shape" fill="#2494BC"></path>
                                                    <path d="M12.0049164,2.19106481 L12.0049164,1.46068301 C12.0049164,0.65436922 11.3745396,0 10.5974531,0 L2.15267327,0 C1.37496485,0 0.744432481,0.65436922 0.744432481,1.46068301 L0.744432481,2.19106481 L12.0049164,2.19106481 Z" id="Shape" fill="#2494BC"></path>
                                                </g>
                                            </g>
                                        </g>
                                        <g id="milk-(1)" transform="translate(24.000000, 5.000000)">
                                            <g id="Layer_1">
                                                <g id="Group">
                                                    <path d="M0.0407396992,21.9104869 C0.0407396992,22.7168007 0.671194319,23.3711699 1.44820301,23.3711699 L11.3012237,23.3711699 C12.0789321,23.3711699 12.708687,22.7168007 12.708687,21.9104869 L12.708687,5.11243082 L0.0407396992,5.11243082 L0.0407396992,21.9104869 Z M12.7136628,5.10445071 L11.9746727,2.19106481 L12.0049942,2.19106481 L12.0049942,1.46068301 C12.0049164,0.65436922 11.3745396,0 10.5974531,0 L2.15267327,0 C1.37496485,0 0.744432481,0.65436922 0.744432481,1.46068301 L0.744432481,2.19106481 L0.77327681,2.19106481 L0.0321874723,5.10445071 L12.7136628,5.10445071 Z" id="Shape" fill="#E4E5E6"></path>
                                                    <polygon id="Shape" fill="#CCD0D2" points="0.773354557 2.19106481 0.0336646751 5.09929185 0.0336646751 5.10445071 12.7136628 5.10445071 11.9747504 2.19106481"></polygon>
                                                    <path d="M0.0336646751,10.2139797 L0.0336646751,17.5203772 L12.7051106,17.5203772 L12.7051106,10.2139797 C12.7052661,10.2139797 0.0336646751,10.2139797 0.0336646751,10.2139797 Z M11.3048,14.6069913 L1.44260519,14.6069913 L1.44260519,12.4159265 L11.3047223,12.4159265 L11.3047223,14.6069913 L11.3048,14.6069913 Z" id="Shape" fill="#2494BC"></path>
                                                    <path d="M12.0049164,2.19106481 L12.0049164,1.46068301 C12.0049164,0.65436922 11.3745396,0 10.5974531,0 L2.15267327,0 C1.37496485,0 0.744432481,0.65436922 0.744432481,1.46068301 L0.744432481,2.19106481 L12.0049164,2.19106481 Z" id="Shape" fill="#2494BC"></path>
                                                </g>
                                            </g>
                                        </g>
                                        <g id="milk-(1)" transform="translate(40.000000, 5.000000)">
                                            <g id="Layer_1">
                                                <g id="Group">
                                                    <path d="M0.0407396992,21.9104869 C0.0407396992,22.7168007 0.671194319,23.3711699 1.44820301,23.3711699 L11.3012237,23.3711699 C12.0789321,23.3711699 12.708687,22.7168007 12.708687,21.9104869 L12.708687,5.11243082 L0.0407396992,5.11243082 L0.0407396992,21.9104869 Z M12.7136628,5.10445071 L11.9746727,2.19106481 L12.0049942,2.19106481 L12.0049942,1.46068301 C12.0049164,0.65436922 11.3745396,0 10.5974531,0 L2.15267327,0 C1.37496485,0 0.744432481,0.65436922 0.744432481,1.46068301 L0.744432481,2.19106481 L0.77327681,2.19106481 L0.0321874723,5.10445071 L12.7136628,5.10445071 Z" id="Shape" fill="#E4E5E6"></path>
                                                    <polygon id="Shape" fill="#CCD0D2" points="0.773354557 2.19106481 0.0336646751 5.09929185 0.0336646751 5.10445071 12.7136628 5.10445071 11.9747504 2.19106481"></polygon>
                                                    <path d="M0.0336646751,10.2139797 L0.0336646751,17.5203772 L12.7051106,17.5203772 L12.7051106,10.2139797 C12.7052661,10.2139797 0.0336646751,10.2139797 0.0336646751,10.2139797 Z M11.3048,14.6069913 L1.44260519,14.6069913 L1.44260519,12.4159265 L11.3047223,12.4159265 L11.3047223,14.6069913 L11.3048,14.6069913 Z" id="Shape" fill="#2494BC"></path>
                                                    <path d="M12.0049164,2.19106481 L12.0049164,1.46068301 C12.0049164,0.65436922 11.3745396,0 10.5974531,0 L2.15267327,0 C1.37496485,0 0.744432481,0.65436922 0.744432481,1.46068301 L0.744432481,2.19106481 L12.0049164,2.19106481 Z" id="Shape" fill="#2494BC"></path>
                                                </g>
                                            </g>
                                        </g>
                                        <g id="milk-(1)" transform="translate(8.000000, 35.000000)">
                                            <g id="Layer_1">
                                                <g id="Group">
                                                    <path d="M0.0407396992,21.9104869 C0.0407396992,22.7168007 0.671194319,23.3711699 1.44820301,23.3711699 L11.3012237,23.3711699 C12.0789321,23.3711699 12.708687,22.7168007 12.708687,21.9104869 L12.708687,5.11243082 L0.0407396992,5.11243082 L0.0407396992,21.9104869 Z M12.7136628,5.10445071 L11.9746727,2.19106481 L12.0049942,2.19106481 L12.0049942,1.46068301 C12.0049164,0.65436922 11.3745396,0 10.5974531,0 L2.15267327,0 C1.37496485,0 0.744432481,0.65436922 0.744432481,1.46068301 L0.744432481,2.19106481 L0.77327681,2.19106481 L0.0321874723,5.10445071 L12.7136628,5.10445071 Z" id="Shape" fill="#E4E5E6"></path>
                                                    <polygon id="Shape" fill="#CCD0D2" points="0.773354557 2.19106481 0.0336646751 5.09929185 0.0336646751 5.10445071 12.7136628 5.10445071 11.9747504 2.19106481"></polygon>
                                                    <path d="M0.0336646751,10.2139797 L0.0336646751,17.5203772 L12.7051106,17.5203772 L12.7051106,10.2139797 C12.7052661,10.2139797 0.0336646751,10.2139797 0.0336646751,10.2139797 Z M11.3048,14.6069913 L1.44260519,14.6069913 L1.44260519,12.4159265 L11.3047223,12.4159265 L11.3047223,14.6069913 L11.3048,14.6069913 Z" id="Shape" fill="#F6A623"></path>
                                                    <path d="M12.0049164,2.19106481 L12.0049164,1.46068301 C12.0049164,0.65436922 11.3745396,0 10.5974531,0 L2.15267327,0 C1.37496485,0 0.744432481,0.65436922 0.744432481,1.46068301 L0.744432481,2.19106481 L12.0049164,2.19106481 Z" id="Shape" fill="#F6A623"></path>
                                                </g>
                                            </g>
                                        </g>
                                        <g id="milk-(1)" transform="translate(24.000000, 35.000000)">
                                            <g id="Layer_1">
                                                <g id="Group">
                                                    <path d="M0.0407396992,21.9104869 C0.0407396992,22.7168007 0.671194319,23.3711699 1.44820301,23.3711699 L11.3012237,23.3711699 C12.0789321,23.3711699 12.708687,22.7168007 12.708687,21.9104869 L12.708687,5.11243082 L0.0407396992,5.11243082 L0.0407396992,21.9104869 Z M12.7136628,5.10445071 L11.9746727,2.19106481 L12.0049942,2.19106481 L12.0049942,1.46068301 C12.0049164,0.65436922 11.3745396,0 10.5974531,0 L2.15267327,0 C1.37496485,0 0.744432481,0.65436922 0.744432481,1.46068301 L0.744432481,2.19106481 L0.77327681,2.19106481 L0.0321874723,5.10445071 L12.7136628,5.10445071 Z" id="Shape" fill="#E4E5E6"></path>
                                                    <polygon id="Shape" fill="#CCD0D2" points="0.773354557 2.19106481 0.0336646751 5.09929185 0.0336646751 5.10445071 12.7136628 5.10445071 11.9747504 2.19106481"></polygon>
                                                    <path d="M0.0336646751,10.2139797 L0.0336646751,17.5203772 L12.7051106,17.5203772 L12.7051106,10.2139797 C12.7052661,10.2139797 0.0336646751,10.2139797 0.0336646751,10.2139797 Z M11.3048,14.6069913 L1.44260519,14.6069913 L1.44260519,12.4159265 L11.3047223,12.4159265 L11.3047223,14.6069913 L11.3048,14.6069913 Z" id="Shape" fill="#F6A623"></path>
                                                    <path d="M12.0049164,2.19106481 L12.0049164,1.46068301 C12.0049164,0.65436922 11.3745396,0 10.5974531,0 L2.15267327,0 C1.37496485,0 0.744432481,0.65436922 0.744432481,1.46068301 L0.744432481,2.19106481 L12.0049164,2.19106481 Z" id="Shape" fill="#F6A623"></path>
                                                </g>
                                            </g>
                                        </g>
                                    </g>
                                </g>
                                <ellipse id="Oval-2" fill="#F94C4C" cx="60.0208333" cy="30.2430556" rx="1.39583333" ry="1.39583333"></ellipse>
                                <ellipse id="Oval-2" fill="#F94C4C" cx="59.0902778" cy="60.9513889" rx="1.39583333" ry="1.39583333"></ellipse>
                            </g>
                        </g>
                    </g>
                </g>
            </g>
        </g>
    </g>
</svg>