<?xml version="1.0" encoding="UTF-8" standalone="no"?>
<svg width="119px" height="69px" viewBox="0 0 119 69" version="1.1" xmlns="http://www.w3.org/2000/svg" xmlns:xlink="http://www.w3.org/1999/xlink">
    <!-- Generator: Sketch 42 (36781) - http://www.bohemiancoding.com/sketch -->
    <title>track_and_trace_product</title>
    <desc>Created with Sketch.</desc>
    <defs>
        <filter x="-50%" y="-50%" width="200%" height="200%" filterUnits="objectBoundingBox" id="filter-1">
            <feGaussianBlur stdDeviation="13.5730699 0" in="SourceGraphic"></feGaussianBlur>
        </filter>
    </defs>
    <g id="Page-1" stroke="none" stroke-width="1" fill="none" fill-rule="evenodd">
        <g id="Large-Device-Desktops" transform="translate(-208.000000, -1188.000000)">
            <g id="Group-23" transform="translate(79.000000, 636.000000)">
                <g id="iot_solutions_retail">
                    <g id="Group-10" transform="translate(23.000000, 374.000000)">
                        <g id="Group-4">
                            <g id="Group-15">
                                <g id="track_and_trace_product" transform="translate(127.000000, 178.000000)">
                                    <g id="Group-2">
                                        <ellipse id="Oval-4" stroke-opacity="0.26842731" stroke="#000000" opacity="0.587278451" filter="url(#filter-1)" cx="38.5" cy="67" rx="27.5" ry="1"></ellipse>
                                        <g id="shirt" transform="translate(0.154605, 0.792969)">
                                            <g id="Layer_1">
                                                <polyline id="Shape" fill="#324A5E" points="15.1741069 6.23898605 15.0318496 6.32741959 0 20.6945531 11.230227 31.547559 16.7967648 26.1044748 16.7967648 66.1217558 56.1199076 66.1217558 56.1199076 26.1044748 61.6864454 31.547559 72.9166724 20.6934477 57.8836662 6.32520875 57.7437221 6.23898605 57.7656968 6.21135057 57.751818 6.19808554 57.7437221 6.23898605 44.9313169 2.0074413 27.9841989 2.0074413 15.1741069 6.23898605"></polyline>
                                                <polyline id="Shape" fill="#365773" points="15.1741069 6.23898605 15.0318496 6.32741959 3.54139598 24.0782414 11.230227 31.547559 16.7967648 26.1044748 16.7967648 66.1217558 56.1199076 66.1217558 56.1199076 26.1044748 61.6864454 31.547559 72.9166724 20.6934477 57.8836662 6.32520875 57.7437221 6.23898605 57.7656968 6.21135057 57.751818 6.19808554 57.7437221 6.23898605 44.9313169 2.0074413 27.9841989 2.0074413 15.1741069 6.23898605"></polyline>
                                                <polyline id="Shape" fill="#324A5E" points="28.362395 66.1217558 56.1199076 66.1217558 56.1199076 26.1044748 61.6864454 31.547559 72.9802833 20.6934477 57.7552877 6.19808554 57.7737927 6.21135057 57.7737927 6.21135057 57.7552877 6.19808554 57.7552877 6.19808554 44.9313169 2.0074413 28.362395 2.0074413"></polyline>
                                                <polyline id="Shape" fill="#324A5E" points="55.8654637 26.1044748 61.56038 31.547559 72.9166724 20.6934477 57.8836662 6.32520875 57.7656968 6.21135057 57.7656968 6.21135057 57.751818 6.19808554 57.7437221 6.20471806"></polyline>
                                                <path d="M42.6181909,0.90202208 L30.297325,0.90202208 L26.9814588,2.3070099 C27.1375948,2.57894303 37.1464912,12.8018599 36.4583362,12.8018599 C35.7701812,12.8018599 45.777921,2.58778638 45.9352136,2.31585326 L42.6181909,0.90202208 Z" id="Shape" fill="#535859"></path>
                                                <path d="M36.4583362,3.05427329 C33.629383,3.05427329 31.0745353,3.76726869 29.2379132,4.91358841 C31.9118869,8.02092183 36.0570088,12.8604472 36.4583362,13.7458879 C36.8596636,12.8604472 41.0047854,8.01981641 43.6787591,4.91358841 C41.8432936,3.76726869 39.2884459,3.05427329 36.4583362,3.05427329 Z" id="Shape" fill="#3C4142"></path>
                                                <polygon id="Shape" fill="#324A5E" points="30.7611067 8.490725 36.3507758 13.9249659 34.6864816 6.78948482"></polygon>
                                                <polygon id="Shape" fill="#B6CDD3" points="30.0428811 10.1234292 25.6780122 2.63310857 29.518958 0.0386896726 34.6864816 6.78948482"></polygon>
                                                <polygon id="Shape" fill="#9EB3BA" points="30.0428811 10.1234292 29.508549 2.63310857 29.518958 0.0386896726 34.6864816 6.78948482"></polygon>
                                                <polygon id="Shape" fill="#324A5E" points="42.1567222 8.490725 36.5670531 13.9249659 38.2313473 6.78948482"></polygon>
                                                <polygon id="Shape" fill="#9EB3BA" points="42.8749478 10.1234292 47.2398167 2.63310857 43.3977143 0.0386896726 38.2313473 6.78948482"></polygon>
                                                <g id="Group" transform="translate(35.708883, 0.000000)" fill="#B6CDD3">
                                                    <polygon id="Shape" points="7.16606449 10.1234292 7.70039661 2.63310857 7.68883098 0.0386896726 2.52246395 6.78948482"></polygon>
                                                    <ellipse id="Oval" cx="0.750018304" cy="15.4780799" rx="0.723417354" ry="0.69088701"></ellipse>
                                                </g>
                                                <path d="M35.9471353,15.0171816 C36.2794292,14.7106808 36.8151683,14.7081685 37.1447496,15.0171816 C37.4770435,15.3236825 37.4770435,15.8198621 37.1447496,16.1263629" id="Shape" fill="#9EB3BA"></path>
                                                <ellipse id="Oval" fill="#B6CDD3" cx="36.4589017" cy="19.4520619" rx="0.723417354" ry="0.69088701"></ellipse>
                                                <path d="M35.9471353,18.9922691 C36.2794292,18.6857683 36.8151683,18.683256 37.1447496,18.9922691 C37.4770435,19.29877 37.4770435,19.7949496 37.1447496,20.1014504" id="Shape" fill="#9EB3BA"></path>
                                                <path d="M49.1007266,21.5700452 C48.062133,21.5700452 47.2213117,20.7664054 47.2213117,19.7737389 C47.2213117,19.560393 47.2664176,19.3569959 47.3392811,19.1668638 C46.6997018,19.4542728 46.2567381,20.0688859 46.2567381,20.7863029 C46.2567381,21.7789694 47.098716,22.5826092 48.136153,22.5826092 C48.9492168,22.5826092 49.6362153,22.0862759 49.8975985,21.3953889 C49.6547203,21.5059308 49.3852411,21.5700452 49.1007266,21.5700452 Z" id="Shape" fill="#9AD8CA"></path>
                                            </g>
                                        </g>
                                        <g id="Group-12" transform="translate(7.923139, 44.000000)">
                                            <rect id="Rectangle-12" fill="#F8E81C" x="8.0982233" y="7.90836007" width="3.97692871" height="5.09859794"></rect>
                                            <path d="M14.2749732,9.66910807 L19.6394975,9.66910807" id="Line" stroke="#FF4422" stroke-width="2" stroke-linecap="square" opacity="0.615263526"></path>
                                            <path d="M1.25192101,9.66910807 L6.25960506,9.66910807" id="Line" stroke="#FF4422" stroke-width="2" stroke-linecap="square" opacity="0.615263526"></path>
                                            <path d="M10,0.934735935 L10,4.68052589" id="Line" stroke="#FF4422" stroke-width="2" stroke-linecap="square" opacity="0.615263526"></path>
                                            <path d="M10,15.8905109 L10,19.6363008" id="Line" stroke="#FF4422" stroke-width="2" stroke-linecap="square" opacity="0.615263526"></path>
                                            <path d="M14.2749732,14.021039 L19.2826572,17.7599828" id="Line" stroke="#FF310B" stroke-width="2" stroke-linecap="square" opacity="0.615263526"></path>
                                            <path d="M14.2749732,14.021039 L19.2826572,17.7599828" id="Line" stroke="#FF4422" stroke-width="2" stroke-linecap="square" opacity="0.615263526"></path>
                                            <path d="M1.25192101,0.934735935 L6.25960506,4.67367968" id="Line" stroke="#FF4422" stroke-width="2" stroke-linecap="square" opacity="0.615263526"></path>
                                            <path d="M0.956209689,19.2363681 L7.51152608,14.955775" id="Line" stroke="#FF4422" stroke-width="2" stroke-linecap="square" opacity="0.615263526"></path>
                                            <path d="M13.9792618,4.28059309 L20.5345782,0" id="Line" stroke="#FF4422" stroke-width="2" stroke-linecap="square" opacity="0.615263526"></path>
                                        </g>
                                    </g>
                                </g>
                            </g>
                        </g>
                    </g>
                </g>
            </g>
        </g>
    </g>
</svg>