<?xml version="1.0" encoding="UTF-8"?>
<svg width="55px" height="70px" viewBox="0 0 55 70" version="1.1" xmlns="http://www.w3.org/2000/svg" xmlns:xlink="http://www.w3.org/1999/xlink">
    <!-- Generator: Sketch 48.2 (47327) - http://www.bohemiancoding.com/sketch -->
    <title>smartphone (7)</title>
    <desc>Created with Sketch.</desc>
    <defs></defs>
    <g id="Desktop-HD" stroke="none" stroke-width="1" fill="none" fill-rule="evenodd" transform="translate(-859.000000, -881.000000)">
        <g id="Group-11" transform="translate(240.000000, 658.000000)" fill-rule="nonzero">
            <g id="smartphone-(7)" transform="translate(619.000000, 223.000000)">
                <g transform="translate(3.000000, 0.000000)" fill="#FFEFF0" id="Shape">
                    <path d="M51.6337391,34.2102742 C51.6337391,33.2025323 51.246,32.2554839 50.5428696,31.5431935 L49.9132174,30.9053387 C50.986,29.9434032 51.6326087,28.5520323 51.6326087,27.0553065 C51.6326087,24.2141613 49.3502609,21.9020806 46.5456522,21.9020806 C46.339913,21.9020806 46.1364348,21.9226935 45.9352174,21.9478871 C45.960087,21.7429032 45.9804348,21.5390645 45.9804348,21.3295 C45.9804348,18.4883548 43.698087,16.1762742 40.8934783,16.1762742 C40.6877391,16.1762742 40.4842609,16.1968871 40.2830435,16.2220806 C40.307913,16.0170968 40.3282609,15.8132581 40.3282609,15.6036935 C40.3282609,12.7625484 38.045913,10.4504677 35.2413043,10.4504677 C35.0355652,10.4504677 34.832087,10.4710806 34.6308696,10.4962742 C34.6557391,10.2912903 34.676087,10.0874516 34.676087,9.8778871 C34.676087,7.03674194 32.3937391,4.72466129 29.5891304,4.72466129 C28.1105217,4.72466129 26.7381739,5.38083871 25.7886087,6.46645161 L24.8910435,5.55719355 L20.6372174,1.24795161 C19.1846087,-0.223580645 16.822,-0.223580645 15.3716522,1.24795161 L1.45373913,15.3471774 C0.00339130435,16.8187097 0.00339130435,19.2109516 1.45373913,20.6824839 L5.70756522,24.9917258 L11.258,30.6144677 C9.72513043,31.5031129 8.67721739,33.157871 8.67721739,35.0714355 C8.67721739,36.8613226 9.58495652,38.4393548 10.9573043,39.3635 C11.0262609,39.4562581 11.1065217,39.547871 11.213913,39.640629 L23.3728696,51.9110323 L23.3728696,53.9677419 L21.112,53.9677419 L21.112,68.8548387 L41.4598261,68.8548387 L50.5033043,68.8548387 L50.5033043,53.9677419 L48.2424348,53.9677419 L48.2424348,50.4979032 C50.4049565,48.6415968 51.6337391,45.9722258 51.6337391,43.0875645 C51.6337391,41.0949839 51.019913,39.1596613 49.8973913,37.5312419 L50.5428696,36.8773548 C51.246,36.1650645 51.6337391,35.2180161 51.6337391,34.2102742 Z"></path>
                </g>
                <path d="M32.9815652,58.4020806 C30.7998261,58.4020806 29.0250435,60.1999839 29.0250435,62.4101452 C29.0250435,64.6203065 30.7998261,66.4182097 32.9815652,66.4182097 C35.1633043,66.4182097 36.938087,64.6203065 36.938087,62.4101452 C36.938087,60.1999839 35.1621739,58.4020806 32.9815652,58.4020806 Z M32.9815652,64.1278871 C32.0466957,64.1278871 31.285913,63.3571935 31.285913,62.4101452 C31.285913,61.4630968 32.0466957,60.6924032 32.9815652,60.6924032 C33.9164348,60.6924032 34.6772174,61.4630968 34.6772174,62.4101452 C34.6772174,63.3571935 33.9164348,64.1278871 32.9815652,64.1278871 Z" id="Shape" fill="#859DBA"></path>
                <path d="M38.0685217,43.5149839 C40.5622609,43.5149839 42.5902609,41.4605645 42.5902609,38.9343387 C42.5902609,36.4081129 40.5622609,34.3536935 38.0685217,34.3536935 C35.5747826,34.3536935 33.5467826,36.4081129 33.5467826,38.9343387 C33.5467826,41.4605645 35.5736522,43.5149839 38.0685217,43.5149839 Z M38.0685217,36.6440161 C39.3153913,36.6440161 40.3293913,37.6712258 40.3293913,38.9343387 C40.3293913,40.1974516 39.3153913,41.2246613 38.0685217,41.2246613 C36.8216522,41.2246613 35.8076522,40.1974516 35.8076522,38.9343387 C35.8076522,37.6712258 36.8216522,36.6440161 38.0685217,36.6440161 Z" id="Shape" fill="#859DBA"></path>
                <path d="M10.938087,14.8859516 C11.2274783,14.8859516 11.5168696,14.7737258 11.7373043,14.5504194 L13.9981739,12.2600968 C14.4401739,11.8123387 14.4401739,11.0885968 13.9981739,10.6408387 C13.5561739,10.1930806 12.8417391,10.1930806 12.3997391,10.6408387 L10.1388696,12.9311613 C9.69686957,13.3789194 9.69686957,14.1026613 10.1388696,14.5504194 C10.3593043,14.7737258 10.6486957,14.8859516 10.938087,14.8859516 Z" id="Shape" fill="#859DBA"></path>
                <path d="M51.6337391,35.2102742 C51.6337391,34.2025323 51.246,33.2554839 50.5428696,32.5431935 L49.9132174,31.9053387 C50.986,30.9434032 51.6326087,29.5520323 51.6326087,28.0553065 C51.6326087,25.2141613 49.3502609,22.9020806 46.5456522,22.9020806 C46.339913,22.9020806 46.1364348,22.9226935 45.9352174,22.9478871 C45.960087,22.7429032 45.9804348,22.5390645 45.9804348,22.3295 C45.9804348,19.4883548 43.698087,17.1762742 40.8934783,17.1762742 C40.6877391,17.1762742 40.4842609,17.1968871 40.2830435,17.2220806 C40.307913,17.0170968 40.3282609,16.8132581 40.3282609,16.6036935 C40.3282609,13.7625484 38.045913,11.4504677 35.2413043,11.4504677 C35.0355652,11.4504677 34.832087,11.4710806 34.6308696,11.4962742 C34.6557391,11.2912903 34.676087,11.0874516 34.676087,10.8778871 C34.676087,8.03674194 32.3937391,5.72466129 29.5891304,5.72466129 C28.1105217,5.72466129 26.7381739,6.38083871 25.7886087,7.46645161 L24.8910435,6.55719355 L20.6372174,2.24795161 C19.1846087,0.776419355 16.822,0.776419355 15.3716522,2.24795161 L1.45373913,16.3471774 C0.00339130435,17.8187097 0.00339130435,20.2109516 1.45373913,21.6824839 L5.70756522,25.9917258 L11.258,31.6144677 C9.72513043,32.5031129 8.67721739,34.157871 8.67721739,36.0714355 C8.67721739,37.8613226 9.58495652,39.4393548 10.9573043,40.3635 C11.0262609,40.4562581 11.1065217,40.547871 11.213913,40.640629 L23.3728696,52.9110323 L23.3728696,54.9677419 L21.112,54.9677419 L21.112,69.8548387 L41.4598261,69.8548387 L50.5033043,69.8548387 L50.5033043,54.9677419 L48.2424348,54.9677419 L48.2424348,51.4979032 C50.4049565,49.6415968 51.6337391,46.9722258 51.6337391,44.0875645 C51.6337391,42.0949839 51.019913,40.1596613 49.8973913,38.5312419 L50.5428696,37.8773548 C51.246,37.1650645 51.6337391,36.2180161 51.6337391,35.2102742 Z M49.3728696,28.0553065 C49.3728696,28.9347903 48.9726957,29.749 48.3136522,30.2849355 L44.3446957,26.2642742 C44.8737391,25.5966452 45.6786087,25.1912581 46.5456522,25.1912581 C48.1045217,25.1924032 49.3728696,26.476129 49.3728696,28.0553065 Z M43.7206957,22.3295 C43.7206957,23.2089839 43.3205217,24.0231935 42.6614783,24.559129 L38.6925217,20.5384677 C39.2215652,19.8708387 40.0264348,19.4654516 40.8934783,19.4654516 C42.4523478,19.4665968 43.7206957,20.7503226 43.7206957,22.3295 Z M38.0685217,16.6036935 C38.0685217,17.4831774 37.6683478,18.2973871 37.0093043,18.8333226 L33.0403478,14.8126613 C33.5693913,14.1450323 34.3742609,13.7396452 35.2413043,13.7396452 C36.8001739,13.7407903 38.0685217,15.0245161 38.0685217,16.6036935 Z M29.5902609,8.01498387 C31.1491304,8.01498387 32.4163478,9.29870968 32.4163478,10.8778871 C32.4163478,11.757371 32.0161739,12.5715806 31.3571304,13.1075161 L27.3881739,9.08685484 C27.9172174,8.42037097 28.722087,8.01498387 29.5902609,8.01498387 Z M3.05217391,20.064371 C2.48243478,19.4860645 2.48243478,18.5458871 3.05217391,17.9675806 L16.970087,3.86835484 C17.1113913,3.72520968 17.2764348,3.61756452 17.4516522,3.54541935 C17.5307826,3.51220968 17.620087,3.51335484 17.7037391,3.49503226 C17.9049565,3.45151613 18.103913,3.45151613 18.3051304,3.49503226 C18.3887826,3.51335484 18.478087,3.51220968 18.5572174,3.54541935 C18.7324348,3.61756452 18.8963478,3.72520968 19.0387826,3.86835484 L21.6941739,6.55833871 L5.70756522,22.7532097 L3.05217391,20.064371 Z M23.2926087,8.17759677 L24.6242609,9.52659677 L30.2764348,15.2524032 L30.9241739,15.9085806 L35.9286087,20.9782097 L36.5763478,21.6343871 L41.5807826,26.7040161 L42.2285217,27.3601935 L47.8806957,33.086 L48.9433043,34.1624516 C49.5141739,34.7407581 49.5141739,35.6797903 48.9433043,36.2580968 L48.4493043,36.7596774 L35.0265217,50.3584677 C34.457913,50.935629 33.5275652,50.9379194 32.9566957,50.3584677 L23.9414783,41.2246613 L25.0673913,41.2246613 C27.872,41.2246613 30.1543478,38.9125806 30.1543478,36.0714355 C30.1543478,33.2302903 27.872,30.9182097 25.0673913,30.9182097 L13.7664348,30.9182097 L7.30486957,24.3724677 L23.2926087,8.17759677 Z M13.1537391,33.2795323 L13.6228696,33.2257097 C13.6692174,33.2188387 13.7155652,33.2085323 13.7630435,33.2085323 L25.0673913,33.2085323 C26.6262609,33.2085323 27.8934783,34.4922581 27.8934783,36.0714355 C27.8934783,37.6506129 26.6262609,38.9343387 25.0673913,38.9343387 L21.6806087,38.9343387 L18.4837391,38.9343387 L13.7630435,38.9343387 C12.2041739,38.9343387 10.9369565,37.6506129 10.9369565,36.0714355 C10.938087,34.7052581 11.8887826,33.5635323 13.1537391,33.2795323 Z M23.3728696,67.563371 L23.3728696,57.2569194 L32.897913,57.2569194 C36.3717391,57.2569194 39.1989565,60.1209677 39.1989565,63.6400484 L39.1989565,67.563371 L23.3728696,67.563371 Z M48.2424348,67.563371 L41.4598261,67.563371 L41.4598261,63.6400484 C41.4598261,61.1138226 40.3813913,58.8441129 38.6744348,57.2569194 L48.2424348,57.2569194 L48.2424348,67.563371 Z M48.2706957,40.1802742 C48.9873913,41.3494839 49.3728696,42.7019194 49.3728696,44.0875645 C49.3728696,46.440871 48.3012174,48.606371 46.4314783,50.0320968 L45.9815652,50.3756452 L45.9815652,54.9665968 L32.8967826,54.9665968 L25.6326087,54.9665968 L25.6326087,51.8540484 L25.2335652,51.5116452 C25.1826957,51.4669839 25.1284348,51.4257581 25.030087,51.3513226 L14.9952174,41.2235161 L20.7434783,41.2235161 L31.3571304,51.9765806 C32.084,52.7117742 33.0369565,53.079371 33.989913,53.079371 C34.944,53.079371 35.898087,52.7117742 36.6238261,51.9765806 L48.2706957,40.1802742 Z" id="Shape" fill="#859DBA"></path>
            </g>
        </g>
    </g>
</svg>