<?xml version="1.0" encoding="UTF-8"?>
<svg width="99px" height="99px" viewBox="0 0 99 99" version="1.1" xmlns="http://www.w3.org/2000/svg" xmlns:xlink="http://www.w3.org/1999/xlink">
    <!-- Generator: Sketch 48.2 (47327) - http://www.bohemiancoding.com/sketch -->
    <title>placeholder (1)</title>
    <desc>Created with Sketch.</desc>
    <defs></defs>
    <g id="Desktop-HD" stroke="none" stroke-width="1" fill="none" fill-rule="evenodd" transform="translate(-458.000000, -1876.000000)">
        <g id="Group-3" transform="translate(300.000000, 1842.000000)" fill-rule="nonzero">
            <g id="Group-27" transform="translate(35.000000, 34.000000)">
                <g id="placeholder-(1)" transform="translate(122.000000, 0.000000)">
                    <path d="M58.0119805,98.9922027 L11.7792852,98.9922027 C5.83798437,98.9922027 1.02147266,94.1379513 1.02147266,88.1500975 C1.02147266,82.1622437 5.83798437,77.3079922 11.7792852,77.3079922 L58.0119805,77.3079922 C63.9532812,77.3079922 68.769793,82.1622437 68.769793,88.1500975 C68.7695937,94.1379513 63.9532812,98.9922027 58.0119805,98.9922027 Z" id="Shape" fill="#F9A53D"></path>
                    <path d="M34.9765156,88.1500975 C34.9765156,88.1500975 52.8528125,70.0132632 61.3291719,56.098425 C66.0554375,48.3398947 68.9606445,42.671883 68.9606445,34.4696296 C68.9606445,15.5477466 53.7407305,0.208576998 34.965957,0.208576998 L34.9870742,0.208576998 C16.2125,0.208576998 0.992386719,15.5475458 0.992386719,34.4696296 C0.992386719,42.6722846 3.89759375,48.3400955 8.62385937,56.098425 C17.1002187,70.0132632 34.9765156,88.1500975 34.9765156,88.1500975 Z" id="Shape" fill="#F05244"></path>
                    <ellipse id="Oval" fill="#FFFFFF" cx="34.9866758" cy="34.4694288" rx="15.9375" ry="16.0623782"></ellipse>
                    <rect id="Rectangle-path" fill="#516C86" x="52.7888633" y="57.2296179" width="46.2185508" height="36.943269"></rect>
                    <polygon id="Shape" fill="#374C60" points="90.5569531 42.7742807 61.2403203 42.7742807 52.7892617 57.2302203 99.0078125 57.2302203"></polygon>
                    <g id="Group" transform="translate(67.531250, 42.773879)">
                        <polygon id="Shape" fill="#ACACB3" points="14.9414063 0.000401559454 1.42939453 0.000401559454 0.00019921875 14.4563411 16.734375 14.4563411"></polygon>
                        <polygon id="Shape" fill="#C6C6C8" points="0.00019921875 31.4718207 4.18359375 27.2554464 8.3671875 31.4718207 12.5507813 27.2554464 16.734375 31.4718207 16.734375 14.4563411 0.00019921875 14.4563411"></polygon>
                    </g>
                </g>
            </g>
        </g>
    </g>
</svg>