<?xml version="1.0" encoding="UTF-8"?>
<svg width="62px" height="60px" viewBox="0 0 62 60" version="1.1" xmlns="http://www.w3.org/2000/svg" xmlns:xlink="http://www.w3.org/1999/xlink">
    <!-- Generator: Sketch 48.2 (47327) - http://www.bohemiancoding.com/sketch -->
    <title>settings (8)</title>
    <desc>Created with Sketch.</desc>
    <defs></defs>
    <g id="Desktop-HD" stroke="none" stroke-width="1" fill="none" fill-rule="evenodd" transform="translate(-339.000000, -660.000000)">
        <g id="Group-11" transform="translate(240.000000, 658.000000)" fill-rule="nonzero">
            <g id="settings-(8)" transform="translate(99.000000, 2.000000)">
                <path d="M30.8061167,18.8634377 L32.9458127,18.8634377 C33.2823941,20.5739154 33.9555569,22.1518914 34.8811558,23.549183 L33.3665395,25.0669309 C32.8256051,25.6089837 32.8256051,26.4883138 33.3665395,27.0303666 L35.0133842,28.6806163 C35.5543186,29.2226691 36.4318344,29.2226691 36.9727688,28.6806163 L38.4873851,27.1628684 C39.8817937,28.1024266 41.4685346,28.7649356 43.1634624,29.1022129 L43.1634624,31.2463329 C43.1634624,32.0172524 43.7885421,32.6315789 44.5458503,32.6315789 L46.8778785,32.6315789 C47.6472075,32.6315789 48.2602664,32.0052068 48.2602664,31.2463329 L48.2602664,29.1022129 C49.967215,28.7649356 51.5419351,28.090381 52.9363437,27.1628684 L54.45096,28.6806163 C54.9918944,29.2226691 55.8694102,29.2226691 56.4103446,28.6806163 L58.0571893,27.0303666 C58.5981237,26.4883138 58.5981237,25.6089837 58.0571893,25.0669309 L56.542573,23.549183 C57.4801926,22.1518914 58.1413347,20.5618698 58.4779161,18.8634377 L60.6176121,18.8634377 C61.386941,18.8634377 62,18.2370655 62,17.4781916 L62,15.1533873 C62,14.3824678 61.3749203,13.7681413 60.6176121,13.7681413 L58.4779161,13.7681413 C58.1413347,12.0576635 57.4681719,10.4796876 56.542573,9.08239591 L58.0571893,7.56464805 C58.5981237,7.02259525 58.5981237,6.14326514 58.0571893,5.60121233 L56.3983238,3.95096268 C55.8573895,3.40890987 54.9798737,3.40890987 54.4389393,3.95096268 L52.924323,5.46871054 C51.5299143,4.52915234 49.9431734,3.86664335 48.2482457,3.52936605 L48.2482457,1.38524606 C48.2482457,0.614326514 47.6231659,0 46.8658578,0 L44.5338295,0 C43.7645006,0 43.1514416,0.626372132 43.1514416,1.38524606 L43.1514416,3.52936605 C41.4444931,3.86664335 39.869773,4.54119796 38.4753643,5.46871054 L36.9727688,3.95096268 C36.4318344,3.40890987 35.5543186,3.40890987 35.0133842,3.95096268 L33.3665395,5.60121233 C32.8256051,6.14326514 32.8256051,7.02259525 33.3665395,7.56464805 L34.8811558,9.08239591 C33.9435362,10.4796876 33.2823941,12.0697092 32.9458127,13.7681413 L30.8061167,13.7681413 C30.0367878,13.7681413 29.4237288,14.3945134 29.4237288,15.1533873 L29.4237288,17.4902372 C29.4237288,18.2491111 30.0367878,18.8634377 30.8061167,18.8634377 Z M45.6998436,10.4074139 C48.9574708,10.4074139 51.6020389,13.0574498 51.6020389,16.3218123 C51.6020389,19.5861747 48.9574708,22.2362107 45.6998436,22.2362107 C42.4422165,22.2362107 39.7976484,19.5861747 39.7976484,16.3218123 C39.7976484,13.0574498 42.4422165,10.4074139 45.6998436,10.4074139 Z" id="XMLID_698_" fill="#FFEFF0"></path>
                <path d="M10.5443322,45.750992 L13.1218526,44.7615746 C14.3182477,46.6664115 15.8588253,48.2559953 17.6199421,49.5111943 L16.4972273,52.0398777 C16.0962578,52.9429789 16.502869,54.0022375 17.4051401,54.4050715 L20.1520544,55.6314772 C21.0543255,56.0343111 22.1113985,55.6285388 22.5123681,54.7254376 L23.6350829,52.1967542 C25.7492766,52.6837759 27.9670472,52.7481221 30.1647514,52.3706611 L31.1562145,54.9535107 C31.5126956,55.8821757 32.54975,56.3331624 33.4620185,55.9829753 L36.2712261,54.9046216 C37.1979751,54.548876 37.6468372,53.5108509 37.2959261,52.5966962 L36.3044631,50.0138466 C38.2047267,48.8182452 39.789745,47.2774965 41.0405861,45.5154075 L43.5669452,46.6433427 C44.4692163,47.0461767 45.5262893,46.6404044 45.9272589,45.7373032 L47.1479884,42.9878617 C47.548958,42.0847605 47.1423467,41.0255019 46.2400756,40.622668 L43.7137165,39.4947328 C44.1970697,37.3779625 44.2582523,35.156872 43.8783325,32.9552682 L46.4558529,31.9658508 C47.3826019,31.6101052 47.831464,30.5720801 47.4805529,29.6579255 L46.4055396,26.85742 C46.0490585,25.9287549 45.0120041,25.4777683 44.0997356,25.8279553 L41.5222152,26.8173727 C40.3258201,24.9125359 38.7852425,23.322952 37.0241257,22.0677531 L38.1468405,19.5390697 C38.54781,18.6359685 38.1411988,17.5767099 37.2389276,17.1738759 L34.4775329,15.9530287 C33.5752618,15.5501948 32.5181888,15.9559671 32.1172193,16.8590683 L30.9945045,19.3877517 C28.8803107,18.90073 26.6625401,18.8363838 24.4648359,19.2138448 L23.4733728,16.6309952 C23.1168917,15.7023302 22.0798373,15.2513435 21.1675689,15.6015305 L18.3583612,16.6798843 C17.4316123,17.0356299 16.9827501,18.073655 17.3336612,18.9878097 L18.3251243,21.5706593 C16.4248606,22.7662607 14.8398424,24.3070094 13.5890013,26.0690984 L11.0771226,24.9356047 C10.1748515,24.5327707 9.1177785,24.938543 8.71680895,25.8416442 L7.4960794,28.5910857 C7.09510984,29.4941869 7.5017211,30.5534454 8.40399222,30.9562794 L10.9303513,32.0842146 C10.4469981,34.2009849 10.3858155,36.4220754 10.7657353,38.6236792 L8.18821486,39.6130966 C7.26146594,39.9688422 6.81260379,41.0068673 7.16351488,41.9210219 L8.24409823,44.7360378 C8.59500932,45.6501924 9.61758325,46.1067376 10.5443322,45.750992 Z M24.681428,28.91046 C28.47176,27.4554879 32.7319458,29.3565761 34.1893882,33.1533433 C35.6468306,36.9501106 33.7529719,41.2135152 29.9626398,42.6684874 C26.1723078,44.1234595 21.912122,42.2223712 20.4546796,38.425604 C18.9972372,34.6288368 20.8910959,30.3654322 24.681428,28.91046 Z" id="XMLID_698_" fill="#FFEFF0"></path>
                <path d="M41.7084759,47.3321046 C41.5398473,47.7445477 41.0580514,47.9330931 40.6485248,47.7681158 L37.9263775,46.6604115 C37.4445815,46.460082 36.8905161,46.6250592 36.6014385,47.0492864 C35.3728588,48.852252 33.8070218,50.3841836 31.9641522,51.5861606 C31.5305358,51.8689787 31.3619072,52.4110468 31.5666705,52.8824104 L32.6868462,55.5456144 C32.8554748,55.9462735 32.6627564,56.417637 32.2411849,56.5826143 L29.2781396,57.7963754 C28.868613,57.9613526 28.386817,57.7728072 28.2181884,57.3603641 L27.0859679,54.69716 C26.8812046,54.2257965 26.3753188,53.9547625 25.869433,54.0608193 C23.7013511,54.4850464 21.4971345,54.4850464 19.3170077,54.0608193 C18.8111219,53.9665465 18.2931912,54.2257965 18.1004728,54.69716 L16.9682522,57.3603641 C16.7996237,57.7610231 16.3178277,57.9613526 15.9083011,57.7963754 L12.9452558,56.5943983 C12.7404925,56.5119097 12.5839088,56.3587166 12.4995945,56.1583871 C12.4152802,55.9580575 12.4152802,55.7459439 12.4995945,55.5456144 L13.6318151,52.8824104 C13.8365784,52.4110468 13.6679498,51.8689787 13.2343334,51.5861606 C11.3914638,50.3841836 9.82562681,48.852252 8.59704706,47.0492864 C8.30796947,46.6250592 7.75390409,46.460082 7.27210811,46.6604115 L4.54996081,47.7681158 C4.12838932,47.9330931 3.65863824,47.7445477 3.49000965,47.3321046 L2.26142989,44.4332187 C2.0928013,44.0325597 2.28551969,43.5611961 2.70709117,43.3962189 L5.42923847,42.2885146 C5.91103446,42.088185 6.18806715,41.5932533 6.07966305,41.0983216 C5.64604667,38.9771856 5.64604667,36.8206974 6.07966305,34.6877773 C6.17602225,34.1928456 5.91103446,33.6861297 5.42923847,33.4975843 L2.70709117,32.38988 C2.50232788,32.3073914 2.34574419,32.1541982 2.26142989,31.9538687 C2.17711559,31.7535392 2.17711559,31.5414256 2.26142989,31.3410961 L3.49000965,28.4422102 C3.57432394,28.2418807 3.73090764,28.0886876 3.93567093,28.0061989 C4.14043422,27.9237103 4.35724241,27.9237103 4.56200571,28.0061989 L7.28415301,29.1139033 C7.76594899,29.3142328 8.32001437,29.1492556 8.60909196,28.7250284 C9.83767171,26.9220628 11.4035087,25.3901312 13.2463783,24.1881542 C13.6799947,23.9053361 13.8486233,23.363268 13.64386,22.8919044 L12.5116394,20.2287003 C12.4273251,20.0283708 12.4273251,19.8162572 12.5116394,19.6159277 C12.5959537,19.4155982 12.7525374,19.2624051 12.9573007,19.1799164 L15.920346,17.9779394 C16.3298726,17.8129621 16.8116686,18.0015076 16.9802971,18.4139507 L18.1125177,21.0771547 C18.3413708,21.6192228 18.9797505,21.8784728 19.5338159,21.6545751 C20.0878812,21.4306774 20.352869,20.8061207 20.1240159,20.2640526 L18.9917954,17.6008486 C18.3534157,16.1042693 16.6069053,15.3972239 15.077203,16.0099966 L12.1141577,17.2119736 C11.3794189,17.5065758 10.8012637,18.0722121 10.4880963,18.8028256 C10.1869738,19.521655 10.1869738,20.3229731 10.4880963,21.0535866 L11.2830597,22.9272567 C9.76540231,24.0231769 8.42841846,25.3312108 7.29619791,26.8277901 L5.38105888,26.0500402 C4.64632,25.755438 3.82726683,25.755438 3.08048306,26.0500402 C2.34574419,26.3446424 1.76758901,26.9102787 1.45442162,27.6408922 L0.225841867,30.539778 C-0.0752806222,31.2586075 -0.0752806222,32.0599255 0.225841867,32.790539 C0.526964356,33.5093684 1.10511953,34.0750047 1.85190331,34.381391 L3.76704234,35.1591408 C3.47796475,36.9974587 3.47796475,38.8357765 3.76704234,40.6740944 L1.85190331,41.4518443 C0.322201063,42.076401 -0.40049291,43.7850938 0.225841867,45.2816731 L1.45442162,48.1452067 C2.0807564,49.641786 3.83931173,50.3488313 5.36901398,49.7360587 L7.28415301,48.9583088 C8.40432866,50.443104 9.74131251,51.7511379 11.2710148,52.8588422 L10.4760514,54.7325123 C10.1749289,55.4513417 10.1749289,56.2526598 10.4760514,56.9832733 C10.7771739,57.7021027 11.3553291,58.2677389 12.1021128,58.5741253 L15.0651581,59.7761023 C16.5948604,60.3888749 18.3534157,59.6818296 18.9797505,58.1852503 L19.7747138,56.3115802 C21.6537182,56.5943983 23.5327225,56.5943983 25.4117268,56.3115802 L26.2066902,58.1852503 C26.6884862,59.3165229 27.8086618,60 28.9770171,60 C29.3624539,60 29.7478907,59.9292955 30.1212826,59.7761023 L33.0843279,58.5741253 C34.6140301,57.9495686 35.3367241,56.2408757 34.7103893,54.7442964 L33.9154259,52.8706263 C35.4330833,51.774706 36.7700671,50.4666722 37.9022877,48.9700929 L39.8174267,49.7478428 C41.3471289,50.3723995 43.1056843,49.65357 43.7320191,48.1569908 L44.9605988,45.2581049 C45.2617213,44.5392755 45.2617213,43.7379575 44.9605988,43.007344 C44.6594763,42.2885146 44.0813211,41.7228783 43.3345374,41.416492 L40.6123901,40.3087876 C40.0583247,40.08489 39.419945,40.3441399 39.1910919,40.886208 C38.9622388,41.4282761 39.2272266,42.0528328 39.781292,42.2767305 L42.5034393,43.3844348 C42.7082026,43.4669234 42.8647863,43.6201166 42.9491006,43.8204461 C43.0334149,44.0207756 43.0334149,44.2328892 42.9491006,44.4332187 L41.7084759,47.3321046 Z" id="Shape" fill="#859DBA"></path>
                <path d="M22.0263955,30.5658142 C22.6178404,30.5658142 23.0909963,30.0799842 23.0909963,29.4875086 C23.0909963,28.8950331 22.6060115,28.4210526 22.0145666,28.4210526 C22.0145666,28.4210526 22.0145666,28.4210526 22.0027377,28.4210526 C19.4713534,28.4447517 17.1055737,29.4401106 15.3312389,31.2412363 C13.5569042,33.042362 12.5869345,35.4359633 12.6105923,37.9599092 C12.6342501,40.4957046 13.6278775,42.8656068 15.4258701,44.6430335 C17.2120338,46.4086106 19.5659846,47.3684211 22.0618822,47.3684211 C22.08554,47.3684211 22.1091978,47.3684211 22.1328556,47.3684211 C24.6642398,47.344722 27.0300195,46.3493631 28.8043543,44.5482374 C30.5786891,42.7471117 31.5486587,40.3535104 31.5250009,37.8295645 C31.5250009,37.237089 31.0400161,36.7631085 30.4485712,36.7631085 C30.4485712,36.7631085 30.4485712,36.7631085 30.4367423,36.7631085 C29.8452974,36.7631085 29.3721414,37.2489385 29.3721414,37.841414 C29.3839703,39.7965834 28.6387497,41.6451071 27.2665975,43.0433495 C25.8944453,44.4415918 24.060966,45.21181 22.1091978,45.2236595 C22.08554,45.2236595 22.0737111,45.2236595 22.0500533,45.2236595 C20.1219428,45.2236595 18.2884635,44.4771403 16.9163113,43.1144465 C15.5205013,41.7399032 14.7516229,39.903229 14.739794,37.9480596 C14.7279651,35.9928903 15.4731857,34.1443665 16.8453379,32.7461242 C18.241148,31.3597314 20.0746272,30.5776637 22.0263955,30.5658142 Z" id="Shape" fill="#859DBA"></path>
                <path d="M56.374747,23.1011138 C57.7311368,23.1011138 58.8474576,21.996069 58.8474576,20.6267744 L58.8474576,18.3085827 C58.8474576,16.9512994 57.7431403,15.8342433 56.374747,15.8342433 L55.1143848,15.8342433 C54.7902916,14.6331077 54.3221571,13.4800175 53.6979777,12.4110068 L54.5982364,11.5101551 C55.5585124,10.5492466 55.5585124,8.9757589 54.5982364,8.0148504 L52.9537638,6.36929461 C52.4856293,5.90085171 51.8614499,5.64861323 51.2132636,5.64861323 C50.5530739,5.64861323 49.9288945,5.90085171 49.4727634,6.36929461 L48.5725047,7.27014632 C47.4921942,6.6455558 46.3518665,6.16510155 45.1515216,5.85280629 L45.1515216,4.57960253 C45.1515216,3.22231928 44.0472042,2.10526316 42.6788109,2.10526316 L40.3501417,2.10526316 C38.9937519,2.10526316 37.8774311,3.21030793 37.8774311,4.57960253 L37.8774311,5.85280629 C36.6770861,6.17711291 35.5247549,6.6455558 34.4564479,7.27014632 L33.5561892,6.36929461 C33.0880546,5.90085171 32.4638752,5.64861323 31.815689,5.64861323 C31.1554992,5.64861323 30.5313199,5.90085171 30.0751888,6.36929461 L28.4307162,8.0148504 C27.4704402,8.9757589 27.4704402,10.5492466 28.4307162,11.5101551 L29.3309749,12.4110068 C28.7067955,13.4920288 28.2266575,14.6331077 27.9145678,15.8342433 L26.6422022,15.8342433 C25.2858123,15.8342433 24.1694915,16.9392881 24.1694915,18.3085827 L24.1694915,20.6387858 C24.1694915,21.996069 25.2738089,23.1131251 26.6422022,23.1131251 L27.9145678,23.1131251 C28.238661,24.3142608 28.7067955,25.4673509 29.3309749,26.5363617 L28.4307162,27.4372134 C27.4704402,28.3981219 27.4704402,29.9716095 28.4307162,30.932518 L30.0751888,32.5780738 C30.5433233,33.0465167 31.1675027,33.2987552 31.815689,33.2987552 C32.4758787,33.2987552 33.1000581,33.0465167 33.5561892,32.5780738 L34.4564479,31.6772221 C35.5367584,32.3018126 36.6770861,32.7822669 37.8774311,33.0945621 L37.8774311,34.3677659 C37.8774311,35.7250491 38.9817484,36.8421053 40.3501417,36.8421053 L42.6788109,36.8421053 C44.0352007,36.8421053 45.1515216,35.7370605 45.1515216,34.3677659 L45.1515216,33.0825508 C46.3518665,32.7582442 47.5041977,32.2898013 48.5725047,31.6652107 L49.4727634,32.5660625 C49.940898,33.0345054 50.5650774,33.2867438 51.2132636,33.2867438 C51.8734534,33.2867438 52.4976328,33.0345054 52.9537638,32.5660625 L54.5982364,30.9205067 C55.5585124,29.9595982 55.5585124,28.3861105 54.5982364,27.425202 L53.6979777,26.5243503 C54.3221571,25.4433282 54.8022951,24.3022494 55.1143848,23.1011138 L56.374747,23.1011138 Z M53.1818294,21.8038873 C52.8817431,23.3413409 52.2815707,24.7827036 51.4053188,26.0919415 C51.117236,26.5243503 51.1772533,27.1008954 51.5373568,27.4612361 L53.0497914,28.974667 C53.1698259,29.0947805 53.1698259,29.2749509 53.0497914,29.3950644 L51.4053188,31.0406202 C51.3332981,31.1126884 51.249274,31.1246997 51.2012602,31.1246997 C51.1412429,31.1246997 51.0692222,31.1126884 50.9972015,31.0406202 L49.4847669,29.5271893 C49.1126599,29.1548373 48.5364944,29.1067919 48.1163736,29.3950644 C46.8079976,30.2718934 45.3675836,30.8604499 43.8311421,31.1727451 C43.3269972,31.268836 42.9548903,31.7252675 42.9548903,32.2417558 L42.9548903,34.3797772 C42.9548903,34.5359249 42.8228523,34.6680498 42.6668075,34.6680498 L40.3381382,34.6680498 C40.1820934,34.6680498 40.0500554,34.5359249 40.0500554,34.3797772 L40.0500554,32.2417558 C40.0500554,31.7252675 39.6779485,31.2808473 39.1738036,31.1727451 C37.6373621,30.8724612 36.1969481,30.2718934 34.8885721,29.3950644 C34.7085203,29.2749509 34.4924582,29.2148941 34.2883996,29.2148941 C34.0123203,29.2148941 33.7242375,29.3229963 33.5201788,29.5392007 L32.0077442,31.0526316 C31.9357235,31.1246997 31.8516993,31.1367111 31.8036855,31.1367111 C31.7436683,31.1367111 31.6716476,31.1246997 31.5996269,31.0526316 L29.9551543,29.4070758 C29.8351198,29.2869622 29.8351198,29.1067919 29.9551543,28.9866783 L31.4675889,27.4732474 C31.8396959,27.1008954 31.8877097,26.5243503 31.5996269,26.1039528 C30.723375,24.794715 30.135206,23.3533523 29.8231163,21.8158987 C29.7270887,21.3114217 29.2709576,20.9390697 28.7548093,20.9390697 L26.6181953,20.9390697 C26.4621504,20.9390697 26.3301125,20.8069447 26.3301125,20.6507971 L26.3301125,18.3085827 C26.3301125,18.152435 26.4621504,18.0203101 26.6181953,18.0203101 L28.7548093,18.0203101 C29.2709576,18.0203101 29.7150853,17.6479581 29.8231163,17.1434811 C30.1232026,15.6060275 30.723375,14.1646648 31.5996269,12.8554269 C31.8877097,12.4230181 31.8276924,11.846473 31.4675889,11.4861323 L29.9551543,9.97270146 C29.8831336,9.90063333 29.8711301,9.81655383 29.8711301,9.76850841 C29.8711301,9.70845163 29.8831336,9.63638349 29.9551543,9.56431535 L31.5876234,7.9067482 C31.6596441,7.83468006 31.7436683,7.8226687 31.7916821,7.8226687 C31.8516993,7.8226687 31.92372,7.83468006 31.9957407,7.9067482 L33.5081754,9.42017908 C33.8802823,9.79253112 34.4564479,9.84057655 34.8765686,9.552304 C36.1849446,8.67547499 37.6253586,8.08691854 39.1618002,7.77462328 C39.6659451,7.67853243 40.038052,7.2221009 40.038052,6.70561258 L40.038052,4.57960253 C40.038052,4.4234549 40.1700899,4.29132998 40.3261348,4.29132998 L42.654804,4.29132998 C42.8108489,4.29132998 42.9428868,4.4234549 42.9428868,4.57960253 L42.9428868,6.71762394 C42.9428868,7.23411225 43.3149938,7.67853243 43.8191386,7.78663464 C45.3555802,8.08691854 46.7959942,8.68748635 48.1043702,9.56431535 C48.5364944,9.8525879 49.1126599,9.79253112 49.4727634,9.43219043 L50.9851981,7.91875955 C51.0572188,7.84669142 51.1412429,7.83468006 51.1892567,7.83468006 C51.249274,7.83468006 51.3212947,7.84669142 51.3933154,7.91875955 L53.037788,9.56431535 C53.1578225,9.68442891 53.1578225,9.86459926 53.037788,9.98471282 L51.5253533,11.4981437 C51.1532464,11.8704957 51.1052326,12.4470408 51.3933154,12.8674383 C52.2695672,14.1766761 52.8577362,15.6180389 53.1698259,17.1554925 C53.2658535,17.6599694 53.7219846,18.0323215 54.238133,18.0323215 L56.374747,18.0323215 C56.5307918,18.0323215 56.6628298,18.1644464 56.6628298,18.320594 L56.6628298,20.6507971 C56.6628298,20.8069447 56.5307918,20.9390697 56.374747,20.9390697 L54.238133,20.9390697 C53.7219846,20.9270583 53.277857,21.287399 53.1818294,21.8038873 Z" id="Shape" fill="#859DBA"></path>
                <path d="M41.5084746,12.6315789 C37.734648,12.6315789 34.6779661,15.7052269 34.6779661,19.4736842 C34.6779661,23.2539179 37.7464045,26.3157895 41.5084746,26.3157895 C45.2823011,26.3157895 48.3389831,23.2421415 48.3389831,19.4736842 C48.3389831,15.7052269 45.2705446,12.6315789 41.5084746,12.6315789 Z M41.5084746,24.1842558 C38.9102949,24.1842558 36.805887,22.076275 36.805887,19.4736842 C36.805887,16.8710934 38.9102949,14.7631126 41.5084746,14.7631126 C44.1066542,14.7631126 46.2110622,16.8710934 46.2110622,19.4736842 C46.2110622,22.076275 44.0948978,24.1842558 41.5084746,24.1842558 Z" id="Shape" fill="#859DBA"></path>
            </g>
        </g>
    </g>
</svg>