<?xml version="1.0" encoding="UTF-8"?>
<svg width="68px" height="102px" viewBox="0 0 68 102" version="1.1" xmlns="http://www.w3.org/2000/svg" xmlns:xlink="http://www.w3.org/1999/xlink">
    <!-- Generator: Sketch 48.2 (47327) - http://www.bohemiancoding.com/sketch -->
    <title>smartphone (6)</title>
    <desc>Created with Sketch.</desc>
    <defs></defs>
    <g id="Desktop-HD" stroke="none" stroke-width="1" fill="none" fill-rule="evenodd" transform="translate(-907.000000, -1367.000000)">
        <g id="Group-3" transform="translate(740.000000, 1335.000000)">
            <g id="Group-27" transform="translate(35.000000, 32.000000)">
                <g id="smartphone-(6)" transform="translate(132.000000, 0.000000)">
                    <path d="M50.5268988,102 L6.01657948,102 C2.69465014,102 0,99.3181034 0,96.0118966 L0,5.98810345 C0,2.68189655 2.69465014,0 6.01657948,0 L50.5251318,0 C53.8488281,0 56.5434783,2.68189655 56.5434783,5.98810345 L56.5434783,96.0101379 C56.5434783,99.3181034 53.8488281,102 50.5268988,102 Z" id="Shape" fill="#374C60" fill-rule="nonzero"></path>
                    <rect id="Rectangle-path" fill="#E7ECED" fill-rule="nonzero" x="0" y="11.0869565" width="56.5434783" height="69.8478261"></rect>
                    <ellipse id="Oval" fill="#516C86" fill-rule="nonzero" cx="28.2717391" cy="92.0217391" rx="4.98913043" ry="5.54347826"></ellipse>
                    <path d="M27.1630435,6.65217391 L20.5108696,6.65217391 C19.5912065,6.65217391 18.8478261,5.90879348 18.8478261,4.98913043 C18.8478261,4.06946739 19.5912065,3.32608696 20.5108696,3.32608696 L27.1630435,3.32608696 C28.0827065,3.32608696 28.826087,4.06946739 28.826087,4.98913043 C28.826087,5.90879348 28.0827065,6.65217391 27.1630435,6.65217391 Z" id="Shape" fill="#516C86" fill-rule="nonzero"></path>
                    <path d="M34.7391304,6.65217391 L32.8913043,6.65217391 C31.8694565,6.65217391 31.0434783,5.90879348 31.0434783,4.98913043 C31.0434783,4.06946739 31.8694565,3.32608696 32.8913043,3.32608696 L34.7391304,3.32608696 C35.7609783,3.32608696 36.5869565,4.06946739 36.5869565,4.98913043 C36.5869565,5.90879348 35.7609783,6.65217391 34.7391304,6.65217391 Z" id="Shape" fill="#516C86" fill-rule="nonzero"></path>
                    <polygon id="Shape" fill="#F05244" fill-rule="nonzero" points="67.5869565 21.0652174 24.3913043 21.0652174 24.3913043 54.7695652 31.4130435 54.7695652 31.4130435 65.4130435 45.4565217 54.7695652 67.5869565 54.7695652"></polygon>
                    <path d="M48.09375,40.8955078 L44.5195312,40.8955078 L43.7724609,26.5839844 L48.8408203,26.5839844 L48.09375,40.8955078 Z M43.7138672,45.9052734 C43.7138672,45.0849568 43.9335916,44.4648458 44.3730469,44.0449219 C44.8125022,43.6249979 45.4521442,43.4150391 46.2919922,43.4150391 C47.1025431,43.4150391 47.7299782,43.6298807 48.1743164,44.0595703 C48.6186546,44.48926 48.8408203,45.1044882 48.8408203,45.9052734 C48.8408203,46.6767617 48.6162132,47.2846657 48.1669922,47.7290039 C47.7177712,48.1733421 47.0927774,48.3955078 46.2919922,48.3955078 C45.4716756,48.3955078 44.8369163,48.1782248 44.3876953,47.7436523 C43.9384743,47.3090799 43.7138672,46.696293 43.7138672,45.9052734 Z" id="!" fill="#FFDA44"></path>
                </g>
            </g>
        </g>
    </g>
</svg>