<?xml version="1.0" encoding="UTF-8"?>
<svg width="91px" height="91px" viewBox="0 0 91 91" version="1.1" xmlns="http://www.w3.org/2000/svg" xmlns:xlink="http://www.w3.org/1999/xlink">
    <!-- Generator: Sketch 48.2 (47327) - http://www.bohemiancoding.com/sketch -->
    <title>Group 14</title>
    <desc>Created with Sketch.</desc>
    <defs>
        <linearGradient x1="27.9834692%" y1="0%" x2="78.7392437%" y2="100%" id="linearGradient-1">
            <stop stop-color="#D40E20" offset="0%"></stop>
            <stop stop-color="#FF0138" offset="100%"></stop>
        </linearGradient>
        <linearGradient x1="50%" y1="0%" x2="50%" y2="100%" id="linearGradient-2">
            <stop stop-color="#E20B27" offset="0%"></stop>
            <stop stop-color="#F70434" offset="100%"></stop>
        </linearGradient>
    </defs>
    <g id="Desktop-HD" stroke="none" stroke-width="1" fill="none" fill-rule="evenodd" transform="translate(-690.000000, -3894.000000)">
        <g id="Group-21" transform="translate(326.000000, 3879.000000)">
            <g id="Group-22">
                <g id="Group-14" transform="translate(366.000000, 17.000000)">
                    <circle id="Combined-Shape" stroke="url(#linearGradient-1)" stroke-width="1.5" cx="43.3999993" cy="43.3999993" r="44.1499993"></circle>
                    <g id="factory" transform="translate(11.000000, 9.000000)">
                        <polygon id="Path-10" fill="#FFFFFF" points="2.02853438 58.2690417 2.02853438 40.3100577 16.3022066 33.0487053 18.0637321 9.58984354 26.1870346 9.58984354 28.494187 36.4556877 36.2013956 32.3919671 38.3411328 0.920410136 45.8937574 0.920410136 48.0341055 36.4556877 62.2283472 29.5947259 62.2283472 58.9428698 2.02853438 58.9428698"></polygon>
                        <rect id="Rectangle-path" fill="#E40A28" fill-rule="nonzero" x="6.98011348" y="46.020624" width="19.9426828" height="1.95799996"></rect>
                        <rect id="Rectangle-path" fill="#E40A28" fill-rule="nonzero" x="30.9326222" y="45.999749" width="1.95243746" height="5.99999987"></rect>
                        <rect id="Rectangle-path" fill="#E40A28" fill-rule="nonzero" x="36.9163245" y="45.999749" width="1.95243746" height="5.99999987"></rect>
                        <rect id="Rectangle-path" fill="#E40A28" fill-rule="nonzero" x="42.8987803" y="45.999749" width="1.95243746" height="5.99999987"></rect>
                        <rect id="Rectangle-path" fill="#E40A28" fill-rule="nonzero" x="48.8812361" y="45.999749" width="1.95243746" height="5.99999987"></rect>
                        <rect id="Rectangle-path" fill="#E40A28" fill-rule="nonzero" x="54.8649384" y="45.999749" width="1.95243746" height="5.99999987"></rect>
                        <path d="M62.800081,58.0209987 L62.800081,28.4158744 L48.7558434,35.4579992 L46.7926865,0.0209999995 L36.9747829,0.0209999995 L34.9584026,32.3763743 L28.7864866,35.4711242 L26.832678,9.0209998 L17.0536637,9.0209998 L15.0291815,32.3693743 L1.01797476,39.3948741 L1.01797476,58.0208737 L0,58.0208737 L0,59.9788737 L63.8181804,59.9788737 L63.8181804,58.0208737 L62.800081,58.0209987 Z M38.8091817,1.97899996 L44.9458232,1.97899996 L45.0588761,4.02099991 L38.6819193,4.02099991 L38.8091817,1.97899996 Z M38.5598919,5.97912487 L45.1673172,5.97912487 L45.2804947,8.02112482 L38.4326295,8.02112482 L38.5598919,5.97912487 Z M38.3106021,9.97899978 L45.3890604,9.97899978 L46.8533885,36.4119992 L42.8570243,38.4158742 L42.8570243,28.4158744 L36.977899,31.3637493 L38.3106021,9.97899978 Z M18.8438135,10.9789998 L25.0195936,10.9789998 L25.1704139,13.0209997 L18.6668178,13.0209997 L18.8438135,10.9789998 Z M18.4969268,14.9789997 L25.3148773,14.9789997 L25.4656976,17.0209996 L18.3198064,17.0209996 L18.4969268,14.9789997 Z M18.1500401,18.9789996 L25.6104103,18.9789996 L26.8984905,36.4177492 L22.9137182,38.4158742 L22.9137182,28.4158744 L17.0782187,31.3419993 L18.1500401,18.9789996 Z M7.00092918,58.0209987 L2.97053687,58.0209987 L2.97053687,55.9789988 L7.00105382,55.9789988 L7.00105382,58.0209987 L7.00092918,58.0209987 Z M24.9497924,58.0209987 L8.95349128,58.0209987 L8.95349128,50.9789989 L24.9497924,50.9789989 L24.9497924,58.0209987 Z M60.8475189,58.0209987 L26.9023545,58.0209987 L26.9023545,55.9789988 L60.8475189,55.9789988 L60.8475189,58.0209987 Z M60.8476436,54.0208738 L26.9023545,54.0208738 L26.9023545,49.0208739 L7.00092918,49.0208739 L7.00092918,54.0208738 L2.97053687,54.0208738 L2.97053687,40.6051241 L20.9611561,31.5841243 L20.9611561,41.5841241 L40.9043375,31.5841243 L40.9043375,41.5841241 L60.8476436,31.5841243 L60.8476436,54.0208738 Z" id="Shape" fill="url(#linearGradient-2)" fill-rule="nonzero"></path>
                    </g>
                </g>
            </g>
        </g>
    </g>
</svg>