<?xml version="1.0" encoding="UTF-8" standalone="no"?>
<svg width="124px" height="66px" viewBox="0 0 124 66" version="1.1" xmlns="http://www.w3.org/2000/svg" xmlns:xlink="http://www.w3.org/1999/xlink">
    <!-- Generator: Sketch 42 (36781) - http://www.bohemiancoding.com/sketch -->
    <title>condition_monitoring</title>
    <desc>Created with Sketch.</desc>
    <defs>
        <filter x="-50%" y="-50%" width="200%" height="200%" filterUnits="objectBoundingBox" id="filter-1">
            <feGaussianBlur stdDeviation="10 0" in="SourceGraphic"></feGaussianBlur>
        </filter>
    </defs>
    <g id="Page-1" stroke="none" stroke-width="1" fill="none" fill-rule="evenodd">
        <g id="Large-Device-Desktops" transform="translate(-439.000000, -1008.000000)">
            <g id="iot_solutions_manufacturing" transform="translate(80.000000, 633.000000)">
                <g id="Group-15" transform="translate(33.000000, 365.000000)">
                    <g id="Group-14">
                        <g id="Group-10" transform="translate(336.000000, 10.000000)">
                            <g id="condition_monitoring" transform="translate(14.000000, 0.000000)">
                                <g id="Layer_1" transform="translate(6.000000, 0.000000)">
                                    <g id="Group">
                                        <path d="M52.9138889,63.9040795 L21.9399123,63.9040795 C21.9399123,61.048431 24.2513158,58.733159 27.102193,58.733159 L47.751462,58.733159 C50.6024854,58.7330126 52.9138889,61.048431 52.9138889,63.9040795" id="Shape" fill="#E8EDEE"></path>
                                        <polygon id="Shape" fill="#B0B6BB" points="46.4609649 58.7330126 28.3928363 58.7330126 30.9739766 48.3911715 43.8798246 48.3911715"></polygon>
                                        <path d="M74.8538012,44.0491841 L0,44.0491841 L0,4.62058577 C0,2.12167364 2.02236842,0.0959205021 4.51710526,0.0959205021 L70.3368421,0.0959205021 C72.8315789,0.0959205021 74.8539474,2.12167364 74.8539474,4.62058577 L74.8539474,44.0491841 L74.8538012,44.0491841 Z" id="Shape" fill="#38454F"></path>
                                        <path d="M70.3366959,54.3911715 L4.51710526,54.3911715 C2.02236842,54.3911715 0,52.3654184 0,49.8665063 L0,44.0491841 L74.8538012,44.0491841 L74.8538012,49.8665063 C74.8538012,52.3654184 72.8314327,54.3911715 70.3366959,54.3911715" id="Shape" fill="#E8EDEE"></path>
                                    </g>
                                    <g id="danger" transform="translate(21.000000, 7.000000)" fill-rule="nonzero">
                                        <g id="Layer_1">
                                            <path d="M33.7007734,25.8117294 L18.7839375,1.0333578 C18.4069492,0.407130734 17.7300703,0.0242110092 16.9999336,0.0242110092 C16.2698633,0.0242110092 15.592918,0.40706422 15.2159297,1.0333578 L0.299226562,25.8117294 C-0.08871875,26.4561812 -0.100207031,27.26 0.269277344,27.9152271 C0.638761719,28.5705206 1.33184375,28.9757225 2.08316406,28.9757225 L31.9167695,28.9757225 C32.6680898,28.9757225 33.3611719,28.5704541 33.7306562,27.9152271 C34.100207,27.2599335 34.0887187,26.4561812 33.7007734,25.8117294 Z" id="Shape" fill="#EA6148"></path>
                                            <path d="M16.9999336,0.0242775229 C16.2698633,0.0242775229 15.592918,0.407130734 15.2159297,1.03342431 L0.299226562,25.8117294 C-0.08871875,26.4561812 -0.100207031,27.26 0.269277344,27.9152271 C0.638761719,28.5705206 1.33184375,28.9757225 2.08316406,28.9757225 L16.9999336,28.9757225 L16.9999336,0.0242775229 L16.9999336,0.0242775229 Z" id="Shape" fill="#FF8C29"></path>
                                            <path d="M29.5724297,26.2590344 L4.45639062,26.2590344 C4.21792578,26.2590344 3.99745703,26.1320596 3.87746094,25.9256674 C3.75746484,25.7192087 3.75613672,25.464461 3.87380859,25.256805 L16.4176172,3.12800917 C16.5366172,2.91815826 16.7588789,2.78838991 16.9998008,2.78832339 L17.0000664,2.78832339 C17.2408555,2.78832339 17.4631836,2.91775917 17.58225,3.12747706 L30.1545469,25.2562064 C30.2725508,25.4639289 30.2713555,25.7188096 30.1514258,25.9254014 C30.0314961,26.1319931 29.8109609,26.2590344 29.5724297,26.2590344 Z M5.60707813,24.9171193 L28.4204805,24.9171193 L17.0008633,4.81712615 L5.60707813,24.9171193 Z" id="Shape" fill="#F20013"></path>
                                            <path d="M17.0220469,24.9171193 L5.60707813,24.9171193 L17.0007969,4.81719266 L17.0001328,2.78845642 L16.9998008,2.78845642 C16.7588789,2.78852294 16.5365508,2.91822477 16.4176172,3.1281422 L3.873875,25.2567385 C3.75613672,25.464461 3.75753125,25.7192087 3.87752734,25.9256009 C3.99752344,26.1320596 4.21799219,26.2589679 4.45645703,26.2589679 L17.0221133,26.2589679 L17.0221133,24.9170528 L17.0220469,24.9170528 L17.0220469,24.9171193 Z" id="Shape" fill="#FF4B00"></path>
                                            <path d="M18.5515156,22.540383 C18.5515156,23.3614289 17.851793,24.082305 17.0321406,24.082305 C16.1525234,24.082305 15.4927109,23.3614289 15.4927109,22.540383 C15.4927109,21.699383 16.152457,20.998461 17.0321406,20.998461 C17.8517266,20.998461 18.5515156,21.6993165 18.5515156,22.540383 Z M18.1716719,18.7356628 C18.1716719,19.3564358 17.4919375,19.6167041 17.0120859,19.6167041 C16.3723281,19.6167041 15.8325781,19.3563693 15.8325781,18.7356628 C15.8325781,16.3527408 15.5527422,12.9284794 15.5527422,10.5455573 C15.5527422,9.76461927 16.1925,9.32403211 17.0121523,9.32403211 C17.7918281,9.32403211 18.4516406,9.76455275 18.4516406,10.5455573 C18.4515078,12.9284794 18.1716719,16.3527408 18.1716719,18.7356628 Z" id="Shape" fill="#FFFFFF"></path>
                                        </g>
                                    </g>
                                </g>
                                <ellipse id="Oval-6" fill="#000000" opacity="0.1" filter="url(#filter-1)" cx="38" cy="65" rx="38" ry="1"></ellipse>
                            </g>
                        </g>
                    </g>
                </g>
            </g>
        </g>
    </g>
</svg>