<?xml version="1.0" encoding="utf-8"?>
<!-- Generator: Adobe Illustrator 19.1.0, SVG Export Plug-In . SVG Version: 6.00 Build 0)  -->
<!DOCTYPE svg PUBLIC "-//W3C//DTD SVG 1.1//EN" "http://www.w3.org/Graphics/SVG/1.1/DTD/svg11.dtd">
<svg version="1.1" id="Layer_1" xmlns="http://www.w3.org/2000/svg" xmlns:xlink="http://www.w3.org/1999/xlink" x="0px" y="0px"
	 viewBox="0 0 512 504.7" style="enable-background:new 0 0 512 504.7;" xml:space="preserve">
<style type="text/css">
	.st0{fill:#E55D5D;}
	.st1{opacity:0.15;}
	.st2{fill:#DEBB43;}
	.st3{opacity:0.1;}
	.st4{fill:#7DC691;}
</style>
<g>
	<polygon class="st0" points="512,460.5 341.3,434.5 341.3,0 512,26 	"/>
	<g class="st1">
		<polygon points="490.3,373.5 363,353.5 363,333.9 490.3,353.9 		"/>
		<polygon points="490.3,413.5 363,393.5 363,373.9 490.3,393.9 		"/>
		<polygon points="490.3,333.5 363,313.5 363,293.9 490.3,313.9 		"/>
		<polygon points="490.3,105.5 363,85.5 363,65.9 490.3,85.9 		"/>
		<polygon points="490.3,65.5 363,45.5 363,25.9 490.3,45.9 		"/>
		<polygon points="490.3,290.5 363,270.5 363,108.9 490.3,128.9 		"/>
	</g>
	<polygon class="st2" points="341.3,434.7 170.7,504.7 170.7,70.2 341.3,0.2 	"/>
	<polygon class="st3" points="341.3,434.7 170.7,504.7 170.7,70.2 341.3,0.2 	"/>
	<g class="st1">
		<polygon points="319.6,287.3 192.4,337.3 192.4,317.6 319.6,267.6 		"/>
		<polygon points="319.6,327.3 192.4,377.3 192.4,357.6 319.6,307.6 		"/>
		<polygon points="319.6,247.3 192.4,297.3 192.4,277.6 319.6,227.6 		"/>
		<polygon points="319.6,207.3 192.4,257.3 192.4,237.6 319.6,187.6 		"/>
		<polygon points="319.6,167.3 192.4,217.3 192.4,197.6 319.6,147.6 		"/>
	</g>
	<polygon class="st4" points="170.7,504.5 0,437.5 0,2.9 170.7,69.9 	"/>
	<g class="st1">
		<polygon points="149,423.5 21.7,373.5 21.7,353.8 149,403.8 		"/>
		<polygon points="149,463.5 21.7,413.5 21.7,393.8 149,443.8 		"/>
		<polygon points="149,383.5 21.7,333.5 21.7,313.8 149,363.8 		"/>
		<polygon points="149,343.5 21.7,293.5 21.7,273.8 149,323.8 		"/>
		<polygon points="149,303.5 21.7,253.5 21.7,233.8 149,283.8 		"/>
		<polygon points="149,257.5 21.7,207.5 21.7,45.8 149,95.8 		"/>
	</g>
</g>
</svg>
