<?xml version="1.0" encoding="utf-8"?>
<!-- Generator: Adobe Illustrator 19.1.0, SVG Export Plug-In . SVG Version: 6.00 Build 0)  -->
<!DOCTYPE svg PUBLIC "-//W3C//DTD SVG 1.1//EN" "http://www.w3.org/Graphics/SVG/1.1/DTD/svg11.dtd">
<svg version="1.1" id="Layer_1" xmlns="http://www.w3.org/2000/svg" xmlns:xlink="http://www.w3.org/1999/xlink" x="0px" y="0px"
	 viewBox="0 0 502.3 444.6" style="enable-background:new 0 0 502.3 444.6;" xml:space="preserve">
<style type="text/css">
	.st0{fill:#4D4D4F;}
	.st1{fill:#70C1D4;}
</style>
<g>
	<path class="st0" d="M261.3,370.8c0,0,4.5,6.5,6.3,15.4s0.9,18.5,0.9,18.5h105.1c0,0-0.8-10.2,0.8-17.8s6-16.4,6-16.4 M162.4,101.7
		L156,51.1c-1.9-8.2-8-14.8-16-17.4L46,3.3C41.8,1.2,37.1,0,32.1,0C14.4,0,0,14.4,0,32.1s14.4,32.1,32.1,32.1c8.1,0,16.7-3.5,21-8
		c10.3-10.7,39.8-2.3,55.3,12.1c5.2,4.9,8.5,24.7,9.7,28.7L162.4,101.7z M171.2,320c0,0,6.7,24.9,13.2,35.5c0,0,5.2-5.1,13.4-7.8
		s16.5-2.4,16.5-2.4c-2.3-3.5-6.2-13.9-6.3-25.4L171.2,320z"/>
	<path class="st0" d="M214.3,352.1c-25.6,0-46.3,20.7-46.3,46.3s20.7,46.3,46.3,46.3s46.3-20.7,46.3-46.3S239.8,352.1,214.3,352.1z
		 M214.3,416.4c-9.9,0-18-8.1-18-18s8.1-18,18-18s18,8.1,18,18S224.2,416.4,214.3,416.4z"/>
	<path class="st0" d="M427.3,352.1c-25.6,0-46.3,20.7-46.3,46.3s20.7,46.3,46.3,46.3s46.3-20.7,46.3-46.3S452.8,352.1,427.3,352.1z
		 M427.3,416.4c-9.9,0-18-8.1-18-18s8.1-18,18-18s18,8.1,18,18S437.2,416.4,427.3,416.4z"/>
	<path class="st1" d="M118.1,97.1L171.1,320l275.3-0.1c10.9,0,20.4-7.3,23.3-17.7l32.6-164.4L118.1,97.1z M440.6,271.7H212.3
		l-10.7-44.3l246.2,7.9L440.6,271.7z M452.1,213.7l-256.7-11.9l-11.7-48.8l275,27.5L452.1,213.7z"/>
</g>
</svg>
