<?xml version="1.0" encoding="UTF-8"?>
<svg width="56px" height="56px" viewBox="0 0 56 56" version="1.1" xmlns="http://www.w3.org/2000/svg" xmlns:xlink="http://www.w3.org/1999/xlink">
    <!-- Generator: Sketch 48.2 (47327) - http://www.bohemiancoding.com/sketch -->
    <title>24-hours</title>
    <desc>Created with Sketch.</desc>
    <defs></defs>
    <g id="Desktop-HD" stroke="none" stroke-width="1" fill="none" fill-rule="evenodd" transform="translate(-239.000000, -1223.000000)">
        <g id="Group-3" transform="translate(240.000000, 1223.000000)">
            <g id="Group-11">
                <g id="24-hours">
                    <circle id="Oval-2" fill="#FFEFF0" cx="29.2460317" cy="25.7539683" r="25.7539683"></circle>
                    <path d="M18.176141,3.5266073 L13.7247542,1.74603175 L13.0641761,3.40012912 L16.6893984,4.84953156 L15.2391639,8.47392175 L16.8924292,9.13543589 L18.6720686,4.68404901 C18.8545051,4.22722982 18.6328562,3.70997985 18.176141,3.5266073 Z" id="Shape" stroke="#859DBA" stroke-width="0.6" fill="#859DBA" fill-rule="nonzero"></path>
                    <path d="M52.6549651,23.011319 C51.2118034,16.0582437 47.1494201,10.08267 41.2139949,6.18587333 C35.2775296,2.29001271 28.1793581,0.938589255 21.2262829,2.37904669 L21.5877234,4.12217804 C28.0743063,2.77605918 34.6979767,4.03844866 40.2364934,7.67438415 C45.774074,11.3103196 49.5648828,16.8852404 50.9100656,23.3727595 C52.2561844,29.8593424 50.994627,36.4821807 47.3578595,42.0205934 C43.721924,47.558174 38.1470032,51.3489828 31.6594841,52.6941656 C25.1738373,54.0393483 18.5500629,52.7787271 13.0116502,49.1419595 C7.47323754,45.506024 3.68232468,39.9311032 2.33714193,33.4435841 C-0.0950666543,21.7167899 6.19389416,9.93393338 17.2902737,5.42731631 L16.6199186,3.77758743 C4.72670573,8.60830481 -2.01272957,21.236048 0.594010572,33.8050246 C2.03540411,40.7572678 6.09768338,46.7328415 12.0341487,50.6304703 C16.4205283,53.509721 21.4408589,55 26.5688416,55 C28.3805166,54.9990639 30.2056092,54.8139231 32.0226928,54.4391691 C38.974936,52.9960074 44.9505097,48.9336241 48.8481385,42.9981989 C52.7449352,37.0617336 54.0963587,29.9643942 52.6549651,23.011319 Z" id="Shape" stroke="#859DBA" stroke-width="0.6" fill="#859DBA" fill-rule="nonzero"></path>
                    <rect id="Rectangle-path" fill="#859DBA" fill-rule="nonzero" x="25.8619784" y="7.91475508" width="1.78057555" height="3.5611511"></rect>
                    <rect id="Rectangle-path" fill="#859DBA" fill-rule="nonzero" x="25.8619784" y="45.3066336" width="1.78057555" height="3.5611511"></rect>
                    <rect id="Rectangle-path" fill="#859DBA" fill-rule="nonzero" transform="translate(17.398337, 12.199813) rotate(-29.954534) translate(-17.398337, -12.199813) " x="16.5081239" y="10.4193342" width="1.78042654" height="3.56095709"></rect>
                    <rect id="Rectangle-path" fill="#859DBA" fill-rule="nonzero" transform="translate(36.097563, 44.579442) rotate(-29.959498) translate(-36.097563, -44.579442) " x="35.2076695" y="42.7987708" width="1.77978735" height="3.56134293"></rect>
                    <rect id="Rectangle-path" fill="#859DBA" fill-rule="nonzero" transform="translate(10.555643, 19.037974) rotate(-60.045466) translate(-10.555643, -19.037974) " x="9.6654295" y="17.2574952" width="1.78042654" height="3.56095709"></rect>
                    <rect id="Rectangle-path" fill="#859DBA" fill-rule="nonzero" transform="translate(42.937513, 37.741724) rotate(-60.045466) translate(-42.937513, -37.741724) " x="42.0477162" y="35.9568254" width="1.77959447" height="3.56979785"></rect>
                    <rect id="Rectangle-path" fill="#859DBA" fill-rule="nonzero" x="6.27575133" y="27.5009821" width="3.5611511" height="1.78057555"></rect>
                    <rect id="Rectangle-path" fill="#859DBA" fill-rule="nonzero" x="43.6676299" y="27.5009821" width="3.5611511" height="1.78057555"></rect>
                    <rect id="Rectangle-path" fill="#859DBA" fill-rule="nonzero" transform="translate(10.560354, 37.742192) rotate(-29.972287) translate(-10.560354, -37.742192) " x="8.77965851" y="36.8518182" width="3.56139017" height="1.78074709"></rect>
                    <rect id="Rectangle-path" fill="#859DBA" fill-rule="nonzero" transform="translate(42.941929, 19.040418) rotate(-29.946709) translate(-42.941929, -19.040418) " x="41.1568605" y="18.1505358" width="3.57013697" height="1.77976383"></rect>
                    <rect id="Rectangle-path" fill="#859DBA" fill-rule="nonzero" transform="translate(17.397484, 44.579642) rotate(-60.053291) translate(-17.397484, -44.579642) " x="15.6168886" y="43.6897597" width="3.56119186" height="1.77976383"></rect>
                    <rect id="Rectangle-path" fill="#859DBA" fill-rule="nonzero" transform="translate(36.098324, 12.200092) rotate(-60.027713) translate(-36.098324, -12.200092) " x="34.3176293" y="11.3097184" width="3.56139017" height="1.78074709"></rect>
                    <path d="M20.1863743,31.3060406 L23.4198887,27.1555594 C24.4250574,25.8584301 24.9743429,24.2407368 24.9681022,22.6044254 C24.9681022,20.3956338 23.1706768,18.5982084 20.9618852,18.5982084 C18.7530937,18.5982084 16.9555642,20.3956338 16.9555642,22.6044254 L16.9555642,23.939831 L18.7361398,23.939831 L18.7361398,22.6044254 C18.7361398,21.3776079 19.7350677,20.3786799 20.9618852,20.3786799 C22.1887027,20.3786799 23.1876307,21.3776079 23.1876307,22.6079618 C23.1921032,23.8525653 22.7744964,25.0803189 22.0133391,26.063125 L18.7798247,30.2145423 C17.6127099,31.7209431 16.9645092,33.6011618 16.9556682,35.5090476 C16.9547321,35.7467143 17.0474065,35.9737717 17.2147613,36.1411265 C17.382116,36.3094173 17.6091735,36.4037559 17.846008,36.4037559 L24.9683102,36.4037559 L24.9683102,34.6231803 L18.7995869,34.6231803 C18.9631972,33.4204936 19.4421709,32.2666922 20.1863743,31.3060406 Z" id="Shape" fill="#859DBA" fill-rule="nonzero"></path>
                    <path d="M27.9077837,31.0621332 L31.1706293,18.8278661 L29.4505886,18.3684466 L25.8886054,31.7227113 C25.8173574,31.9906453 25.8743558,32.2755332 26.0426466,32.4945818 C26.2109375,32.7136303 26.4717987,32.8427088 26.7486778,32.8427088 L35.6514515,32.8427088 L35.6523876,32.8427088 L35.6523876,31.0621332 L27.9077837,31.0621332 Z" id="Shape" fill="#859DBA" fill-rule="nonzero"></path>
                    <rect id="Rectangle-path" fill="#859DBA" fill-rule="nonzero" x="32.0939408" y="28.3912179" width="1.78057555" height="8.01253798"></rect>
                </g>
            </g>
        </g>
    </g>
</svg>