<?xml version="1.0" encoding="UTF-8"?>
<svg width="54px" height="54px" viewBox="0 0 54 54" version="1.1" xmlns="http://www.w3.org/2000/svg" xmlns:xlink="http://www.w3.org/1999/xlink">
    <!-- Generator: Sketch 48.2 (47327) - http://www.bohemiancoding.com/sketch -->
    <title>steering-wheel</title>
    <desc>Created with Sketch.</desc>
    <defs></defs>
    <g id="Desktop-HD" stroke="none" stroke-width="1" fill="none" fill-rule="evenodd" transform="translate(-691.000000, -814.000000)">
        <g id="Group-11" transform="translate(240.000000, 814.000000)" fill-rule="nonzero">
            <g id="steering-wheel" transform="translate(451.000000, 0.000000)">
                <g id="Group" transform="translate(7.382812, 21.410156)" fill="#C6E2F7">
                    <polygon id="Shape" points="14.0309297 7.45189453 0.0654960937 3.72779297 0.0654960937 0.0035859375 14.9620078 1.86574219"></polygon>
                    <polygon id="Shape" points="25.2034453 7.45189453 39.1688789 3.72779297 39.1688789 0.0035859375 24.2723672 1.86574219"></polygon>
                    <polygon id="Shape" points="15.8930859 11.1761016 17.7551367 26.0726133 21.4792383 26.0726133 23.3412891 10.2450234"></polygon>
                </g>
                <path d="M27,0.931078125 C12.6024609,0.931078125 0.931078125,12.6024609 0.931078125,27 C0.931078125,41.3975391 12.6024609,53.0689219 27,53.0689219 C41.3975391,53.0689219 53.0689219,41.3975391 53.0689219,27 C53.0689219,12.6024609 41.3975391,0.931078125 27,0.931078125 Z M27,47.4827695 C15.6879492,47.4827695 6.51723047,38.3120508 6.51723047,27 C6.51723047,15.6879492 15.6879492,6.51723047 27,6.51723047 C38.3120508,6.51723047 47.4827695,15.6879492 47.4827695,27 C47.4827695,38.3120508 38.3120508,47.4827695 27,47.4827695 Z" id="Shape" fill="#7383BF"></path>
                <rect id="Rectangle-path" fill="#FFEB9B" x="25.1379492" y="0.931078125" width="3.72410156" height="5.58625781"></rect>
                <circle id="Oval" fill="#F5C872" cx="27" cy="27" r="5.58625781"></circle>
                <g id="Group" fill="#4D007E">
                    <path d="M46.5516914,33.2937422 C46.070332,33.1130742 45.5331797,33.3560742 45.3525117,33.8374336 C45.3515625,33.839332 45.3515625,33.841125 45.3506133,33.8430234 C45.100125,34.5096914 44.8143047,35.162332 44.4941016,35.7982031 C44.2622813,36.2581523 44.4484336,36.8186133 44.9083828,37.0504336 C45.368332,37.2822539 45.928793,37.0961016 46.1606133,36.6361523 C46.5097148,35.9397422 46.8207422,35.2246641 47.0916914,34.4948203 C47.2742578,34.0144102 47.0330508,33.4763086 46.5516914,33.2937422 Z" id="Shape"></path>
                    <path d="M27,13.0344609 C26.4860508,13.0344609 26.0689219,13.4515898 26.0689219,13.9655391 L26.0689219,15.8275898 C26.0689219,16.3415391 26.4860508,16.758668 27,16.758668 C27.5139492,16.758668 27.9310781,16.3415391 27.9310781,15.8275898 L27.9310781,13.9655391 C27.9310781,13.4515898 27.5139492,13.0344609 27,13.0344609 Z" id="Shape"></path>
                    <path d="M18.4437422,17.1216914 C18.0536133,16.7874609 17.4652031,16.8330234 17.1309727,17.2231523 C16.8320742,17.5714102 16.8320742,18.0862031 17.1309727,18.4344609 L18.4437422,19.7472305 C18.8338711,20.0814609 19.4222813,20.0358984 19.7565117,19.6457695 C20.0554102,19.2975117 20.0554102,18.7827188 19.7565117,18.4344609 L18.4437422,17.1216914 Z" id="Shape"></path>
                    <path d="M35.5562578,17.1216914 L34.2434883,18.4344609 C33.8533594,18.7686914 33.8077969,19.3571016 34.1420273,19.7472305 C34.4762578,20.1373594 35.064668,20.1829219 35.4547969,19.8486914 C35.4910781,19.818 35.5255664,19.7835117 35.5562578,19.7472305 L36.8690273,18.4344609 C37.2032578,18.044332 37.1576953,17.4559219 36.7675664,17.1216914 C36.4193086,16.8228984 35.9044102,16.8228984 35.5562578,17.1216914 Z" id="Shape"></path>
                    <path d="M32.4558984,14.1424102 C31.9829766,13.9422305 31.4373867,14.1628711 31.2362578,14.6358984 L30.5101055,16.3490273 C30.2913633,16.8145664 30.4905938,17.3684883 30.9560273,17.5882852 C31.4214609,17.808082 31.9754883,17.6077969 32.1952852,17.1423633 C32.2055156,17.1209531 32.2147969,17.0985937 32.2232344,17.0762344 L32.9493867,15.3631055 C33.1494609,14.8891289 32.9288203,14.3435391 32.4558984,14.1424102 Z" id="Shape"></path>
                    <path d="M22.7637422,14.6358984 C22.5812812,14.1554883 22.0440234,13.9134375 21.5636133,14.0949492 C21.0832031,14.2774102 20.8411523,14.814668 21.0226641,15.2950781 C21.0309961,15.3174375 21.0403828,15.3397969 21.0506133,15.361207 L21.7768711,17.0743359 C21.959332,17.5547461 22.4965898,17.7967969 22.977,17.6152852 C23.4574102,17.4328242 23.6994609,16.8955664 23.5179492,16.4151562 C23.5096172,16.3927969 23.5002305,16.3704375 23.49,16.3490273 L22.7637422,14.6358984 Z" id="Shape"></path>
                    <path d="M27,0 C12.0885117,0 0,12.0885117 0,27 C0,41.9114883 12.0885117,54 27,54 C41.9114883,54 54,41.9114883 54,27 C54,12.0885117 41.9114883,0 27,0 Z M27.9310781,1.73169141 C27.9283359,1.77546094 27.9283359,1.81828125 27.9310781,1.86205078 L27.9310781,5.58615234 L27,5.58615234 L26.0689219,5.58615234 L26.0689219,1.86205078 C26.0716641,1.81828125 26.0716641,1.77546094 26.0689219,1.73169141 L27,1.73169141 L27.9310781,1.73169141 Z M8.05348828,22.2703594 C8.11866797,22.3029492 8.18753906,22.3280508 8.25830859,22.3448203 L21.1903594,24.0672305 C20.5265391,25.3669219 20.322668,26.8538203 20.6131289,28.2848203 L7.72758984,24.2068711 L7.67169141,24.2068711 C7.76576953,23.5551797 7.89328125,22.9090781 8.05348828,22.2703594 Z M31.8879492,27 C31.8879492,29.6990508 29.6990508,31.8879492 27,31.8879492 C24.3009492,31.8879492 22.1120508,29.6990508 22.1120508,27 C22.1120508,24.3009492 24.3009492,22.1120508 27,22.1120508 C29.6972578,22.1176406 31.8823594,24.3027422 31.8879492,27 Z M7.44830859,26.1248203 L21.4696406,30.51 C21.7228711,30.8972812 22.0161797,31.2557695 22.3448203,31.5807187 C22.3382813,31.6458984 22.3382813,31.7110781 22.3448203,31.7762578 L24.2068711,46.3283086 C14.5958203,44.9410781 7.45948828,36.7107187 7.44830859,27 C7.44830859,26.7020508 7.44830859,26.4227695 7.44830859,26.1248203 Z M24.3744609,32.958668 C26.0438203,33.6978984 27.946793,33.6978984 29.6161523,32.958668 L27.9310781,46.44 C27.9291797,46.4706914 27.9291797,46.502332 27.9310781,46.5331289 L27,46.5331289 C26.6834883,46.5331289 26.3668711,46.5331289 26.0689219,46.4866172 C26.0689219,46.4866172 26.0689219,46.4866172 26.0689219,46.4214375 L24.3744609,32.958668 Z M32.8096406,24.0579492 L45.7416914,22.3448203 C45.8124609,22.3280508 45.881332,22.3029492 45.9465117,22.2703594 C46.1094609,22.9090781 46.2398203,23.5551797 46.3375898,24.2068711 L46.2724102,24.2068711 L33.3868711,28.2755391 C33.677332,26.8445391 33.4734609,25.3576406 32.8096406,24.0579492 Z M31.5620508,22.3448203 C29.0286914,19.8673594 24.9805898,19.8673594 22.4472305,22.3448203 L8.58410156,20.4827695 C12.2114883,10.3121016 23.3959219,5.00712891 33.5665898,8.63346094 C39.0950508,10.6054102 43.4448984,14.9551523 45.4158984,20.4827695 L31.5620508,22.3448203 Z M27,52.2961523 C13.0344609,52.3752539 1.64974219,41.1181523 1.57064062,27.1526133 C1.49712891,14.1582305 11.2841016,3.22417969 24.2068711,1.86205078 L24.2068711,5.58615234 C24.200332,5.64764063 24.200332,5.71092188 24.2068711,5.77241016 C12.4814883,7.317 4.22876953,18.0741797 5.77335937,29.799668 C7.31794922,41.5251563 18.0751289,49.7777695 29.8006172,48.2331797 C35.2285664,47.5181016 40.1769492,44.7511289 43.6283086,40.5 C43.9718203,40.1173594 43.9411289,39.5289492 43.5584883,39.185332 C43.1758477,38.8418203 42.5874375,38.8725117 42.2438203,39.2551523 C42.2233594,39.2784609 42.2037422,39.3016641 42.1851797,39.3268711 C39.087668,43.1441016 34.6605117,45.6485625 29.7931289,46.3375898 L31.6551797,31.7668711 C31.6617187,31.7016914 31.6617187,31.6365117 31.6551797,31.571332 C31.9745391,31.2454336 32.2584609,30.8861016 32.5024102,30.5006133 L46.5516914,26.1247148 C46.5516914,26.4133828 46.5516914,26.7019453 46.5516914,26.9998945 C46.5526406,27.9784336 46.4809219,28.9550742 46.3375898,29.9233828 C46.2602812,30.4317422 46.6085391,30.9065625 47.1168984,30.9847148 C47.1178477,30.9847148 47.1187969,30.9847148 47.1196406,30.9847148 C47.628,31.0620234 48.1028203,30.7137656 48.1809727,30.2054063 C48.1809727,30.204457 48.1809727,30.2035078 48.1809727,30.2026641 C49.9471523,18.5089219 41.9002031,7.597125 30.2055117,5.83094531 C30.0686133,5.80953516 29.9308711,5.79002344 29.7930234,5.77230469 C29.7995625,5.71081641 29.7995625,5.64753516 29.7930234,5.58604687 L29.7930234,1.86194531 C43.6767187,3.375 53.7039492,15.857332 52.191,29.7400781 C50.7897422,42.5892305 39.9255117,52.3138711 27,52.2868711 L27,52.2961523 Z" id="Shape"></path>
                </g>
                <circle id="Oval" fill="#FFEB9B" cx="27" cy="27" r="2.79312891"></circle>
                <circle id="Oval" fill="#FFFFFF" cx="25.1379492" cy="25.1379492" r="1"></circle>
            </g>
        </g>
    </g>
</svg>