<?xml version="1.0" encoding="UTF-8"?>
<svg width="58px" height="51px" viewBox="0 0 58 51" version="1.1" xmlns="http://www.w3.org/2000/svg" xmlns:xlink="http://www.w3.org/1999/xlink">
    <!-- Generator: Sketch 48.2 (47327) - http://www.bohemiancoding.com/sketch -->
    <title>car</title>
    <desc>Created with Sketch.</desc>
    <defs></defs>
    <g id="Desktop-HD" stroke="none" stroke-width="1" fill="none" fill-rule="evenodd" transform="translate(-341.000000, -817.000000)">
        <g id="Group-11" transform="translate(240.000000, 814.000000)" fill-rule="nonzero">
            <g id="car" transform="translate(101.000000, 3.000000)">
                <path d="M54.0268304,24.0355852 C54.0268304,24.0355852 54.027848,24.0355852 54.0268304,24.0355852 L47.7624912,8.31453466 C46.8854815,6.11273696 44.7553099,4.66779661 42.3857895,4.66779661 L15.5011501,4.66779661 C13.1316296,4.66779661 11.0014581,6.11273696 10.1244483,8.31453466 L3.85909162,24.0355852 C3.86010916,24.0345671 3.86101365,24.0345671 3.86203119,24.0336622 C2.0868694,25.3416194 0.964744639,27.4429703 0.964744639,29.7643314 L0.964744639,35.3734011 C0.964744639,38.878292 3.36411306,41.9265348 6.76892788,42.7488861 C10.3762339,43.5607177 14.0222066,44.1590999 17.6863821,44.5674477 L18.6743041,39.6244034 C19.0360975,37.8203206 20.6203002,36.5210733 22.459115,36.5210733 L35.426807,36.5210733 C37.2666394,36.5210733 38.8498246,37.8203206 39.2107135,39.6253083 L40.197731,44.5625838 C43.862924,44.155254 47.5098012,43.5616226 51.1171072,42.749791 C54.5228265,41.9264216 56.9221949,38.8781789 56.9221949,35.373288 L56.9221949,29.7642183 C56.9221949,27.4439884 55.8010877,25.3435424 54.0268304,24.0355852 Z" id="Shape" fill="#B02721"></path>
                <g id="Group" transform="translate(2.826511, 40.367121)" fill="#28384C">
                    <path d="M48.291501,2.38187795 C45.7415361,2.95526159 43.1714464,3.42242956 40.588694,3.7959377 L40.588694,7.737116 C40.588694,8.80368422 41.453154,9.66766218 42.5182963,9.66766218 L50.2365926,9.66766218 C51.3017349,9.66766218 52.1661949,8.80379734 52.1661949,7.737116 L52.1661949,0.0556529396 C51.1656101,1.17719541 49.833193,2.00927473 48.291501,2.38187795 Z" id="Shape"></path>
                    <path d="M3.94241715,2.38187795 C2.3997076,2.00927473 1.06740351,1.17719541 0.0678362573,0.0556529396 L0.0678362573,7.737116 C0.0678362573,8.80368422 0.932296296,9.66766218 1.9974386,9.66766218 L9.71573489,9.66766218 C10.7808772,9.66766218 11.6453372,8.80379734 11.6453372,7.737116 L11.6453372,3.7959377 C9.06348928,3.4234476 6.49328655,2.95616651 3.94241715,2.38187795 Z" id="Shape"></path>
                </g>
                <path d="M51.2540234,22.7991171 L46.9269747,21.9033536 C35.0379922,19.5143494 22.797731,19.5143494 10.9608694,21.9033536 L6.63382066,22.7991171 C3.33234308,23.4825624 0.964744639,26.3917859 0.964744639,29.7644445 L0.964744639,35.3735142 C0.964744639,38.8784052 3.36411306,41.9266479 6.76892788,42.7489992 C10.3762339,43.5608308 14.0222066,44.1592131 17.6863821,44.5675608 L18.6743041,39.6245165 C19.0360975,37.8204337 20.6203002,36.5211864 22.459115,36.5211864 L35.426807,36.5211864 C37.2666394,36.5211864 38.8498246,37.8204337 39.2107135,39.6254214 L40.197731,44.5626969 C43.862924,44.1553671 47.5098012,43.5617358 51.1171072,42.7499042 C54.5228265,41.9265348 56.9221949,38.878292 56.9221949,35.3734011 L56.9221949,29.7643314 C56.9221949,26.3917859 54.5545965,23.4825624 51.2540234,22.7991171 Z" id="Shape" fill="#DD352E"></path>
                <path d="M40.2024795,44.5801167 L39.2116179,39.6254214 C38.8508421,37.8204337 37.2676569,36.5211864 35.4278246,36.5211864 L22.459115,36.5211864 C20.6192827,36.5211864 19.0360975,37.8204337 18.6752086,39.6254214 L17.684347,44.5801167 C25.1634074,45.4160419 32.7235322,45.4160419 40.2024795,44.5801167 Z" id="Shape" fill="#E7ECED"></path>
                <g id="Group" transform="translate(5.766082, 25.888308)" fill="#F2ECBF">
                    <path d="M9.43692788,6.2796198 L8.22706823,6.68310361 C7.91061209,6.78830124 7.57007407,6.80187513 7.24592982,6.72077115 L1.35208967,5.09812599 C0.443309942,4.87031091 -0.126966862,3.96979658 0.056417154,3.04982634 L0.380561404,1.42718118 C0.558066277,0.541032541 1.37809357,-0.0660595869 2.27635867,0.0246592293 L9.05591423,0.89531101 C9.95316179,0.985124901 10.6362729,1.7408511 10.6362729,2.64238347 L10.6362729,4.61342509 C10.6371774,5.36937752 10.1528265,6.0401538 9.43692788,6.2796198 Z" id="Shape"></path>
                    <path d="M36.91977,6.2796198 L38.1296296,6.68310361 C38.4460858,6.78830124 38.7866238,6.80187513 39.110768,6.72077115 L45.0046082,5.09812599 C45.9133879,4.87031091 46.4836647,3.96979658 46.3002807,3.04982634 L45.9761365,1.42718118 C45.7986316,0.541032541 44.9786043,-0.0660595869 44.0803392,0.0246592293 L37.3007836,0.89531101 C36.4025185,0.984106859 35.7195205,1.73994617 35.7195205,2.64238347 L35.7195205,4.61342509 C35.7195205,5.36937752 36.2029669,6.0401538 36.91977,6.2796198 Z" id="Shape"></path>
                </g>
                <g id="Group" transform="translate(0.904483, 34.258872)" fill="#DC691D">
                    <path d="M7.7785575,1.29709809 L0.0602612086,0.0104066472 L0.0602612086,1.11464241 C0.0602612086,1.9940041 0.211762183,2.84440817 0.491473684,3.63780191 L9.70804678,5.15807733 L7.7785575,1.29709809 Z" id="Shape"></path>
                    <path d="M48.2994152,1.29709809 L56.0177115,0.0104066472 L56.0177115,1.11464241 C56.0177115,1.9940041 55.8662105,2.84440817 55.586499,3.63780191 L46.3699259,5.15807733 L48.2994152,1.29709809 Z" id="Shape"></path>
                </g>
                <path d="M35.829076,32.6602072 L22.0578635,32.6602072 C21.0342144,32.6602072 20.174616,31.8898891 20.0617817,30.8725262 L19.5437388,26.2045793 C19.4115712,25.0143756 20.3426238,23.9729191 21.5398207,23.9729191 L36.347345,23.9729191 C37.544655,23.9729191 38.4757076,25.0143756 38.3434269,26.2045793 L37.825384,30.8725262 C37.7123236,31.8898891 36.8518207,32.6602072 35.829076,32.6602072 Z" id="Shape" fill="#E7ECED"></path>
                <g id="Group" transform="translate(22.159844, 23.965340)" fill="#AFB6BB">
                    <rect id="Rectangle-path" x="0.0301871345" y="0.00757875397" width="1.92960234" height="8.68728814"></rect>
                    <rect id="Rectangle-path" x="3.88927875" y="0.00757875397" width="1.92960234" height="8.68728814"></rect>
                    <rect id="Rectangle-path" x="7.74837037" y="0.00757875397" width="1.92960234" height="8.68728814"></rect>
                    <rect id="Rectangle-path" x="11.607575" y="0.00757875397" width="1.92960234" height="8.68728814"></rect>
                </g>
                <g id="Group" transform="translate(16.393762, 1.681541)" fill="#E7ECED">
                    <path d="M0.971302144,3.95147183 C0.826584795,3.95147183 0.678927875,3.91866827 0.540089669,3.85012013 C0.063539961,3.61167217 -0.129454191,3.0316147 0.108877193,2.55471878 L1.07362183,0.624172603 C1.31195322,0.147389797 1.8917271,-0.0447938294 2.36838986,0.192749206 C2.84493957,0.431197166 3.03793372,1.01125463 2.79960234,1.48815056 L1.8348577,3.41869674 C1.66594542,3.75657342 1.32540741,3.95147183 0.971302144,3.95147183 Z" id="Shape"></path>
                    <path d="M24.1281131,3.95147183 C23.7740078,3.95147183 23.4334698,3.75646031 23.2646706,3.41767869 L22.2999259,1.48713251 C22.0615945,1.01034971 22.2545887,0.430179125 22.7311384,0.191731164 C23.2067836,-0.0467167969 23.7865575,0.145353714 24.0259064,0.623154562 L24.9906511,2.55370074 C25.2289825,3.03048355 25.0359883,3.61065413 24.5594386,3.84910209 C24.4203743,3.91866827 24.2728304,3.95147183 24.1281131,3.95147183 Z" id="Shape"></path>
                </g>
                <path d="M6.63291618,22.7991171 L10.9599649,21.9033536 C22.7968265,19.5143494 35.0370877,19.5143494 46.9260702,21.9033536 L51.2531189,22.7991171 C52.2835517,23.0124534 53.2222924,23.4429719 54.0268304,24.0355852 L47.7615867,8.31351662 C46.8855945,6.11273696 44.7553099,4.66779661 42.3857895,4.66779661 L15.5011501,4.66779661 C13.1316296,4.66779661 11.0014581,6.11273696 10.1244483,8.31453466 L3.85909162,24.0355852 C4.66374269,23.4429719 5.60350097,23.0124534 6.63291618,22.7991171 Z" id="Shape" fill="#B02721"></path>
                <path d="M47.500078,18.0809469 C41.3785341,16.8647265 35.1354503,16.2508475 28.923232,16.2508475 C22.7033255,16.2508475 16.4679298,16.8666495 10.3878791,18.0809469 L13.7095945,9.74409127 C14.0028733,9.00567178 14.7071267,8.52888897 15.5011501,8.52888897 L42.3857895,8.52888897 C43.1798129,8.52888897 43.8840663,9.00567178 44.1783626,9.74409127 L47.500078,18.0809469 Z" id="Shape" fill="#C6E2F7"></path>
                <g id="Group" transform="translate(0.904483, 17.178396)" fill="#7383BF">
                    <path d="M54.0881092,0.0376675384 L50.4055049,0.0376675384 L51.9443704,3.89864678 L54.0881092,3.89864678 C55.1532515,3.89864678 56.0177115,3.03478195 56.0177115,1.9681006 C56.0177115,0.901645491 55.1532515,0.0376675384 54.0881092,0.0376675384 Z" id="Shape"></path>
                    <path d="M5.67246784,0.0376675384 L1.98986355,0.0376675384 C0.924721248,0.0376675384 0.0602612086,0.901532376 0.0602612086,1.96821372 C0.0602612086,3.03478195 0.924721248,3.8987599 1.98986355,3.8987599 L4.13360234,3.8987599 L5.67246784,0.0376675384 Z" id="Shape"></path>
                </g>
                <g id="Group" fill="#4D007E">
                    <path d="M53.0629903,51 L45.344694,51 C43.7489591,51 42.450347,49.7007527 42.450347,48.1042373 L42.450347,44.163059 C42.450347,43.6833352 42.8025302,43.2760054 43.2771579,43.2084753 C45.8733645,42.8320262 48.4387057,42.3619172 50.8989006,41.8097993 C52.2042963,41.4922835 53.3706277,40.7905135 54.2718324,39.7798244 C54.5380897,39.4796153 54.9626316,39.3792816 55.3359571,39.5201107 C55.7103002,39.6638808 55.9572242,40.0220052 55.9572242,40.4226611 L55.9572242,48.1042373 C55.9573372,49.7007527 54.6587251,51 53.0629903,51 Z M44.3799493,44.9951383 L44.3799493,48.1042373 C44.3799493,48.6370124 44.8121793,49.0694538 45.344694,49.0694538 L53.0629903,49.0694538 C53.5955049,49.0694538 54.0277349,48.6370124 54.0277349,48.1042373 L54.0277349,42.5231071 C53.2124561,43.0607462 52.308538,43.4555201 51.3446979,43.6871811 C51.3398363,43.6891041 51.3350877,43.6901221 51.3292086,43.691027 C49.0804366,44.1959757 46.7456257,44.634186 44.3799493,44.9951383 Z M51.1180117,42.7489992 L51.1276218,42.7489992 L51.1180117,42.7489992 Z" id="Shape"></path>
                    <path d="M12.5421326,51 L4.82394932,51 C3.22821442,51 1.92960234,49.7007527 1.92960234,48.1042373 L1.92960234,40.4227742 C1.92960234,40.0222314 2.17663938,39.663089 2.5508694,39.5202238 C2.9222729,39.3792816 3.34681481,39.4797284 3.61499415,39.7808425 C4.51518129,40.7905135 5.68151267,41.4922835 6.98883041,41.8097993 C9.45004288,42.3629352 12.013462,42.8339492 14.6096686,43.2074573 C15.0842963,43.2760054 15.4364795,43.6833352 15.4364795,44.163059 L15.4364795,48.1042373 C15.4364795,49.7007527 14.1378674,51 12.5421326,51 Z M3.85909162,42.5241252 L3.85909162,48.1042373 C3.85909162,48.6370124 4.29222612,49.0694538 4.82383626,49.0694538 L12.5421326,49.0694538 C13.0737427,49.0694538 13.5068772,48.6370124 13.5068772,48.1042373 L13.5068772,44.9951383 C11.1412008,44.6350909 8.80740741,44.1968806 6.55750487,43.6901221 C6.55264327,43.6891041 6.54789474,43.6881992 6.54303314,43.6862762 C5.57930604,43.4555201 4.67437037,43.0607462 3.85909162,42.5241252 Z" id="Shape"></path>
                    <path d="M28.9434698,46.1717681 C25.1461092,46.1717681 21.347731,45.9603548 17.5773918,45.5395643 C17.3081949,45.5095887 17.065115,45.3677415 16.9049084,45.1496544 C16.7457193,44.9305492 16.6848928,44.6554518 16.7380312,44.3909872 L17.7288928,39.4362919 C18.1785341,37.1872119 20.1678324,35.5559699 22.4592281,35.5559699 L35.4278246,35.5559699 C37.7192203,35.5559699 39.7085185,37.1872119 40.1571423,39.4362919 L41.1480039,44.3909872 C41.2010292,44.6554518 41.1403158,44.9315673 40.9811267,45.1496544 C40.8219376,45.3678546 40.5778402,45.5097018 40.3096608,45.5395643 C36.538191,45.9603548 32.741848,46.1717681 28.9434698,46.1717681 Z M18.8373372,43.7326536 C25.5483782,44.4112349 32.3365263,44.4112349 39.0485848,43.7326536 L38.2641715,39.8146641 C37.9959922,38.4662114 36.8025263,37.4865161 35.4277115,37.4865161 L22.459115,37.4865161 C21.0843002,37.4865161 19.8908343,38.4662114 19.6216374,39.8146641 L18.8373372,43.7326536 Z" id="Shape"></path>
                    <path d="M28.9386082,46.1611353 C21.4065224,46.1611353 13.8783938,45.3368609 6.55761793,43.6901221 C2.69072515,42.7566911 0,39.3377681 0,35.3735142 L0,29.7644445 C0,25.9535755 2.70813645,22.6263894 6.438,21.8541483 L10.7650487,20.9583848 C22.8036101,18.5288852 35.0303041,18.5288852 47.1170292,20.9573668 L51.4498441,21.8540352 C55.1797076,22.6262763 57.8868265,25.9534624 57.8868265,29.7643314 L57.8868265,35.3734011 C57.8868265,39.337655 55.1961014,42.756578 51.3436803,43.6871811 C44.0123899,45.3368609 36.474538,46.1611353 28.9386082,46.1611353 Z M28.925154,21.0665235 C22.9802105,21.0665235 17.0419376,21.6611729 11.150924,22.8493405 L6.82873684,23.745104 C3.99035478,24.3319484 1.92960234,26.8638178 1.92960234,29.7644445 L1.92960234,35.3735142 C1.92960234,38.4430227 4.01251462,41.0907226 6.9957271,41.8117223 C21.3487485,45.0415158 36.5373996,45.0415158 50.9059103,41.8078764 C53.874538,41.0897046 55.9575634,38.4420047 55.9575634,35.3735142 L55.9575634,29.7644445 C55.9575634,26.8638178 53.8968109,24.3319484 51.0584288,23.745104 L46.7313801,22.8484356 C40.8189981,21.6601548 34.869193,21.0665235 28.925154,21.0665235 Z" id="Shape"></path>
                    <path d="M54.0268304,25.0009148 C53.8261481,25.0009148 53.6245614,24.9391536 53.4547446,24.8126902 C52.736924,24.284666 51.9303509,23.9246186 51.0582027,23.745104 L46.7301365,22.8484356 C34.904807,20.4728921 22.9318207,20.4728921 11.150924,22.8494536 L6.82873684,23.7452171 C5.95466667,23.9266547 5.14809357,24.2857972 4.43219493,24.8128034 C4.08487329,25.070481 3.61024561,25.0647121 3.26959454,24.7993426 C2.92803899,24.536801 2.80355945,24.0783429 2.96376608,23.678705 L9.22912281,7.95641026 C10.2576335,5.3723945 12.7197505,3.70258008 15.5011501,3.70258008 L42.3857895,3.70258008 C45.1673021,3.70258008 47.6294191,5.37250761 48.6578168,7.95641026 L54.9230604,23.6793837 C55.0832671,24.0790216 54.95777,24.5374797 54.617232,24.8000213 C54.4436842,24.9342897 54.2352008,25.0009148 54.0268304,25.0009148 Z M6.63291618,22.7991171 L6.64252632,22.7991171 L6.63291618,22.7991171 Z M15.5011501,5.63301314 C13.5146784,5.63301314 11.7559103,6.82604476 11.0206784,8.67164102 L5.69123587,22.0453139 C5.93533333,21.9699788 6.1842924,21.9062947 6.43698246,21.8541483 L10.7640312,20.9583848 C22.801575,18.5288852 35.0292865,18.5288852 47.1160117,20.9573668 L51.4488265,21.8540352 C51.7016296,21.9061815 51.9504756,21.9708837 52.1945731,22.0453139 L46.8651306,8.67062298 C46.1300117,6.82502671 44.3721481,5.63301314 42.3856764,5.63301314 L15.5011501,5.63301314 Z" id="Shape"></path>
                    <path d="M10.3877661,19.0462765 C10.105115,19.0462765 9.83105653,18.9217361 9.64586355,18.698785 C9.42008187,18.4266285 9.3602729,18.0530073 9.49153606,17.7238405 L12.8132515,9.3869849 C13.2531696,8.27980813 14.3087018,7.56367244 15.5011501,7.56367244 L42.3857895,7.56367244 C43.5782378,7.56367244 44.63377,8.2789032 45.0745926,9.3869849 L48.396308,17.7238405 C48.5275712,18.0519892 48.4676491,18.4265154 48.2419805,18.6977669 C48.0172164,18.9699234 47.6582495,19.0963868 47.3128499,19.0278387 C35.2029474,16.6214146 22.6095984,16.6243556 10.5768031,19.0278387 C10.5132632,19.0403945 10.4505146,19.0462765 10.3877661,19.0462765 Z M28.923232,15.2856309 C34.6125458,15.2856309 40.3337427,15.7972534 45.9545419,16.8059063 L43.2821326,10.1011976 C43.1354932,9.73244035 42.7833099,9.4941055 42.3859025,9.4941055 L15.5012632,9.4941055 C15.1037427,9.4941055 14.752577,9.73255346 14.6059376,10.1002927 L11.9344327,16.8039834 C17.5262885,15.7962353 23.2329006,15.2856309 28.923232,15.2856309 Z" id="Shape"></path>
                    <path d="M13.4365536,33.6264418 C13.2156335,33.6264418 12.9947135,33.6004252 12.7785419,33.5463558 L6.86254191,31.9170368 C5.47517739,31.5705634 4.59240156,30.1766382 4.87697466,28.7500226 L5.20111891,27.1264725 C5.4780039,25.7461213 6.74665497,24.8117853 8.13888109,24.9527275 L14.9444405,25.8263203 C16.3134893,25.9634166 17.3669864,27.1274906 17.3669864,28.5309174 L17.3669864,30.5019591 C17.3680039,31.6737249 16.6221442,32.7114486 15.5088382,33.0840518 L14.2989786,33.4875357 C14.017345,33.5800643 13.7268928,33.6264418 13.4365536,33.6264418 Z M15.2030097,32.1679275 L15.2126199,32.1679275 L15.2030097,32.1679275 Z M7.84854191,26.8667588 C7.49443665,26.8667588 7.16735283,27.1283955 7.09216764,27.5048446 L6.76892788,29.1274898 C6.68695906,29.5425114 6.94258869,29.9479182 7.35164133,30.0502879 L13.2676413,31.6796069 C13.3911033,31.7104875 13.5455439,31.7037006 13.6902612,31.6564182 L14.8962768,31.2539524 C15.2195166,31.1458138 15.4374971,30.8436817 15.4365926,30.5039951 L15.4365926,28.5318224 C15.4365926,28.1234746 15.1307641,27.7866159 14.7255556,27.7461205 L7.91897856,26.8725277 C7.89580117,26.8676637 7.87262378,26.8667588 7.84854191,26.8667588 Z" id="Shape"></path>
                    <path d="M44.4456374,33.6254237 C44.1551852,33.6254237 43.8686901,33.5790463 43.5928226,33.4874225 L42.3801365,33.0830338 C41.2677349,32.7123535 40.5209708,31.6747429 40.5209708,30.5019591 L40.5209708,28.5309174 C40.5209708,27.1254545 41.5744678,25.9613805 42.9715556,25.8233793 L49.7240897,24.9556685 C51.1538519,24.8166493 52.4119883,25.7471393 52.6878558,27.1264725 L53.012,28.7491177 C53.2975906,30.1767513 52.4157193,31.5705634 51.0042729,31.9229189 L45.1325926,33.5407 C44.9028538,33.5974841 44.6742456,33.6254237 44.4456374,33.6254237 Z M42.9916803,31.2528213 L44.20154,31.6563051 C44.3433177,31.7026825 44.4967407,31.7084514 44.6433801,31.6737249 L50.5150604,30.0559437 C50.9472904,29.9478051 51.2039376,29.5423983 51.1209513,29.1273767 L50.796807,27.5047315 C50.7157427,27.1041887 50.3492008,26.8338421 49.9439922,26.8734326 L43.1895361,27.7411434 C42.755384,27.7835618 42.45046,28.1224565 42.45046,28.5306912 L42.45046,30.5017328 C42.45046,30.8425505 42.6684405,31.1446826 42.9916803,31.2528213 Z" id="Shape"></path>
                    <path d="M10.6126433,40.3821657 C10.5605224,40.3821657 10.5084016,40.3783197 10.4553762,40.3687049 L1.23880312,38.8484295 C0.891481481,38.7915323 0.603064327,38.5492384 0.485255361,38.2171306 C0.163033138,37.3011194 0,36.3435947 0,35.3735142 L0,34.2692785 C0,33.9854711 0.124479532,33.7161425 0.341555556,33.5327819 C0.558631579,33.3494213 0.840378168,33.2711453 1.12404678,33.3166178 L8.84234308,34.6033092 C9.14624951,34.6544375 9.40866277,34.8475261 9.54659649,35.1235285 L11.4761988,38.9845077 C11.6383275,39.3088105 11.6045224,39.6969106 11.3893684,39.9893148 C11.2059844,40.2393005 10.9155322,40.3821657 10.6126433,40.3821657 Z M2.14283431,37.0414057 L8.90407407,38.1562743 L8.03961404,36.4265086 L1.92960234,35.4091457 C1.93242885,35.9622816 2.00388304,36.5086306 2.14283431,37.0414057 Z" id="Shape"></path>
                    <path d="M47.2742963,40.3821657 C46.9714074,40.3821657 46.6819727,40.2393005 46.4976842,39.9902197 C46.2816257,39.6977024 46.2487251,39.3097154 46.4108538,38.9854126 L48.3404561,35.1244334 C48.4794074,34.8483179 48.7408031,34.6553425 49.0447096,34.6042141 L56.7630058,33.3175227 C57.0437349,33.2740863 57.3293255,33.3494213 57.5454971,33.5336869 C57.7625731,33.7161425 57.8870526,33.9854711 57.8870526,34.2691654 L57.8870526,35.3734011 C57.8870526,36.3454046 57.7230019,37.3020243 57.4007797,38.2180355 C57.2830838,38.5500302 56.9945536,38.7923241 56.6482495,38.8483164 L47.4316764,40.3685918 C47.378538,40.3783197 47.3264172,40.3821657 47.2742963,40.3821657 Z M49.8474386,36.4266217 L48.9829786,38.1563874 L55.7451228,37.0415188 C55.8840741,36.5087437 55.9554152,35.9623947 55.9583548,35.4092588 L49.8474386,36.4266217 Z" id="Shape"></path>
                    <path d="M17.3650643,5.63301314 C17.220347,5.63301314 17.0726901,5.60020958 16.9347563,5.53166145 C16.4582066,5.29321349 16.2652125,4.71315602 16.5035439,4.2362601 L17.4682885,2.30571392 C17.7066199,1.82893111 18.2854893,1.63584256 18.7630565,1.87429052 C19.2396062,2.11273848 19.4326004,2.69279595 19.194269,3.16969187 L18.2295244,5.10023805 C18.0597076,5.43811474 17.7191696,5.63301314 17.3650643,5.63301314 Z" id="Shape"></path>
                    <path d="M40.5218752,5.63301314 C40.16777,5.63301314 39.827232,5.43800162 39.6574152,5.09922001 L38.6926706,3.16867383 C38.4543392,2.69189102 38.6473333,2.11172044 39.123883,1.87327248 C39.6014503,1.63482452 40.1793021,1.82791307 40.4186511,2.30469588 L41.3833957,4.23524206 C41.6217271,4.71202486 41.4287329,5.29219544 40.9521832,5.53064341 C40.8141365,5.60020958 40.6665926,5.63301314 40.5218752,5.63301314 Z" id="Shape"></path>
                    <path d="M28.9434698,48.1042373 C28.4109552,48.1042373 27.9787251,47.6728139 27.9787251,47.1390208 L27.9787251,45.2084746 C27.9787251,44.6746814 28.4109552,44.243258 28.9434698,44.243258 C29.4759844,44.243258 29.9082144,44.6746814 29.9082144,45.2084746 L29.9082144,47.1390208 C29.9082144,47.6728139 29.4759844,48.1042373 28.9434698,48.1042373 Z" id="Shape"></path>
                    <path d="M33.7674191,48.1042373 C33.2338869,48.1042373 32.8026745,47.6728139 32.8026745,47.1390208 L32.8026745,45.0936621 C32.8026745,44.559869 33.2338869,44.1284456 33.7674191,44.1284456 C34.3009513,44.1284456 34.7321637,44.559869 34.7321637,45.0936621 L34.7321637,47.1390208 C34.7321637,47.6728139 34.3009513,48.1042373 33.7674191,48.1042373 Z" id="Shape"></path>
                    <path d="M38.5912554,48.1042373 C38.0577232,48.1042373 37.6265107,47.6728139 37.6265107,47.1390208 L37.6265107,45.2084746 C37.6265107,44.6746814 38.0577232,44.243258 38.5912554,44.243258 C39.1247875,44.243258 39.556,44.6746814 39.556,45.2084746 L39.556,47.1390208 C39.5561131,47.6728139 39.1247875,48.1042373 38.5912554,48.1042373 Z" id="Shape"></path>
                    <path d="M24.1195205,48.1042373 C23.5870058,48.1042373 23.1547758,47.6728139 23.1547758,47.1390208 L23.1547758,45.0917391 C23.1547758,44.557946 23.5870058,44.1265226 24.1195205,44.1265226 C24.6520351,44.1265226 25.0842651,44.557946 25.0842651,45.0917391 L25.0842651,47.1390208 C25.0843782,47.6728139 24.6521481,48.1042373 24.1195205,48.1042373 Z" id="Shape"></path>
                    <path d="M19.2956842,48.1042373 C18.7631696,48.1042373 18.3309396,47.6728139 18.3309396,47.1390208 L18.3309396,44.7480936 C18.3309396,44.2143004 18.7631696,43.782877 19.2956842,43.782877 C19.8281988,43.782877 20.2604288,44.2143004 20.2604288,44.7480936 L20.2604288,47.1390208 C20.2604288,47.6728139 19.8281988,48.1042373 19.2956842,48.1042373 Z" id="Shape"></path>
                    <path d="M28.9434698,5.63301314 C28.4109552,5.63301314 27.9787251,5.2005717 27.9787251,4.66779661 L27.9787251,1.7720339 C27.9787251,1.23925881 28.4109552,0.806817366 28.9434698,0.806817366 C29.4759844,0.806817366 29.9082144,1.23925881 29.9082144,1.7720339 L29.9082144,4.66779661 C29.9082144,5.2005717 29.4759844,5.63301314 28.9434698,5.63301314 Z" id="Shape"></path>
                    <path d="M54.9925926,22.0423729 L52.8488538,22.0423729 C52.4542729,22.0423729 52.0992632,21.801097 51.9526238,21.4352808 L50.4128538,17.5743015 C50.2941404,17.2770334 50.330885,16.9401747 50.5103119,16.6746921 C50.6907563,16.4102275 50.9898012,16.2509606 51.3101014,16.2509606 L54.9925926,16.2509606 C56.5883275,16.2509606 57.8869396,17.5502079 57.8869396,19.1467233 C57.8869396,20.7431256 56.5883275,22.0423729 54.9925926,22.0423729 Z M53.5030214,20.1118267 L54.9925926,20.1118267 C55.5251072,20.1118267 55.9573372,19.6784803 55.9573372,19.1466102 C55.9573372,18.61474 55.5251072,18.1813936 54.9925926,18.1813936 L52.7330799,18.1813936 L53.5030214,20.1118267 Z" id="Shape"></path>
                    <path d="M5.03808577,22.0423729 L2.89434698,22.0423729 C1.29861209,22.0423729 0,20.7431256 0,19.1466102 C0,17.5500947 1.29861209,16.2508475 2.89434698,16.2508475 L6.57695127,16.2508475 C6.89725146,16.2508475 7.1962963,16.4101144 7.37583626,16.674579 C7.55526316,16.9390436 7.59189474,17.2769203 7.47329435,17.5732835 L5.93442885,21.4342627 C5.78869396,21.801097 5.43266667,22.0423729 5.03808577,22.0423729 Z M2.89434698,18.1813936 C2.36273684,18.1813936 1.92960234,18.61474 1.92960234,19.1466102 C1.92960234,19.6784803 2.36273684,20.1118267 2.89434698,20.1118267 L4.38391813,20.1118267 L5.15284211,18.1812805 L2.89434698,18.1812805 L2.89434698,18.1813936 Z" id="Shape"></path>
                    <path d="M35.829076,33.6254237 L22.0578635,33.6254237 C20.541271,33.6254237 19.2705848,32.4873664 19.1026901,30.9796468 L18.5846472,26.3106819 C18.4910331,25.4709107 18.7612476,24.6281985 19.3246277,23.9979176 C19.8880078,23.3676368 20.6955984,23.0075894 21.5398207,23.0075894 L36.347345,23.0075894 C37.1915673,23.0075894 37.9990448,23.3685417 38.562538,23.9979176 C39.1259181,24.6272936 39.3961326,25.4698926 39.3035361,26.3106819 L38.7844756,30.9796468 C38.6163548,32.4873664 37.3457817,33.6254237 35.829076,33.6254237 Z M21.5397076,24.9381356 C21.2387407,24.9381356 20.9627602,25.061658 20.762078,25.2856271 C20.5613957,25.5095963 20.4687992,25.7981545 20.5026043,26.0974587 L21.0206472,30.7664236 C21.0795517,31.2953528 21.5252359,31.6949907 22.0577505,31.6949907 L35.829076,31.6949907 C36.3615906,31.6949907 36.8082924,31.2953528 36.8661793,30.7664236 L37.3842222,26.0974587 C37.4170097,25.7982676 37.3244133,25.5106143 37.123731,25.2856271 C36.9230487,25.0606399 36.6471813,24.9381356 36.3471189,24.9381356 L21.5397076,24.9381356 Z" id="Shape"></path>
                    <path d="M23.1547758,33.6254237 C22.6222612,33.6254237 22.1900312,33.1940003 22.1900312,32.6602072 L22.1900312,23.9729191 C22.1900312,23.4391259 22.6222612,23.0077025 23.1547758,23.0077025 C23.6872904,23.0077025 24.1195205,23.4391259 24.1195205,23.9729191 L24.1195205,32.6602072 C24.1195205,33.1940003 23.6872904,33.6254237 23.1547758,33.6254237 Z" id="Shape"></path>
                    <path d="M27.0138674,33.6254237 C26.4813528,33.6254237 26.0491228,33.1940003 26.0491228,32.6602072 L26.0491228,23.9729191 C26.0491228,23.4391259 26.4813528,23.0077025 27.0138674,23.0077025 C27.5463821,23.0077025 27.9786121,23.4391259 27.9786121,23.9729191 L27.9786121,32.6602072 C27.9787251,33.1940003 27.5464951,33.6254237 27.0138674,33.6254237 Z" id="Shape"></path>
                    <path d="M30.8730721,33.6254237 C30.33954,33.6254237 29.9083275,33.1940003 29.9083275,32.6602072 L29.9083275,23.9729191 C29.9083275,23.4391259 30.33954,23.0077025 30.8730721,23.0077025 C31.4066043,23.0077025 31.8378168,23.4391259 31.8378168,23.9729191 L31.8378168,32.6602072 C31.8378168,33.1940003 31.4066043,33.6254237 30.8730721,33.6254237 Z" id="Shape"></path>
                    <path d="M34.7321637,33.6254237 C34.1986316,33.6254237 33.7674191,33.1940003 33.7674191,32.6602072 L33.7674191,23.9729191 C33.7674191,23.4391259 34.1986316,23.0077025 34.7321637,23.0077025 C35.2656959,23.0077025 35.6969084,23.4391259 35.6969084,23.9729191 L35.6969084,32.6602072 C35.6969084,33.1940003 35.2656959,33.6254237 34.7321637,33.6254237 Z" id="Shape"></path>
                </g>
            </g>
        </g>
    </g>
</svg>