<?xml version="1.0" encoding="UTF-8"?>
<svg width="56px" height="52px" viewBox="0 0 56 52" version="1.1" xmlns="http://www.w3.org/2000/svg" xmlns:xlink="http://www.w3.org/1999/xlink">
    <!-- Generator: Sketch 48.2 (47327) - http://www.bohemiancoding.com/sketch -->
    <title>bars</title>
    <desc>Created with Sketch.</desc>
    <defs></defs>
    <g id="Desktop-HD" stroke="none" stroke-width="1" fill="none" fill-rule="evenodd" transform="translate(-914.000000, -1229.000000)">
        <g id="Group-3" transform="translate(240.000000, 1223.000000)" fill-rule="nonzero">
            <g id="Group-11" transform="translate(675.000000, 7.000000)">
                <g id="bars">
                    <g transform="translate(2.000000, 8.910318)" fill="#FFEFF0" id="Shape">
                        <polygon points="51.2889764 37.8978291 51.2889764 37.8978291 51.2889764 0.901294384 42.7442913 0.901294384 42.7442913 37.8978291 41.0332677 37.8978291 41.0332677 5.95047471 32.4885827 5.95047471 32.4885827 37.9080917 30.7775591 37.9080917 30.7775591 17.7216329 22.2224409 17.7216329 22.2224409 37.8978291 20.5114173 37.8978291 20.5114173 12.6724526 11.9667323 12.6724526 11.9667323 37.8978291 10.2557087 37.8978291 10.2557087 26.1266709 1.71102362 26.1266709 1.71102362 37.8978291 0 37.8978291 0 39.5808892 53 39.5808892 53 37.8978291"></polygon>
                    </g>
                    <polygon id="Shape" fill="#FFEFF0" points="42.9288015 0.0205251233 42.9288015 1.70358523 45.9961243 1.70358523 28.3955338 19.0165267 19.8508487 10.6012262 8.99002194 21.2845528 10.1898251 22.47501 19.8508487 12.9821405 28.3955338 21.3871785 47.2063605 2.89404238 47.2063605 5.90097294 48.9173841 5.90097294 48.9173841 0.0205251233"></polygon>
                    <polygon id="Shape" stroke="#859DBA" stroke-width="0.550000012" fill="#859DBA" points="39.3222441 0.0205251233 39.3222441 1.70358523 42.3895669 1.70358523 24.7889764 19.0165267 16.2442913 10.6012262 5.38346457 21.2845528 6.58326772 22.47501 16.2442913 12.9821405 24.7889764 21.3871785 43.5998031 2.89404238 43.5998031 5.90097294 45.3108268 5.90097294 45.3108268 0.0205251233"></polygon>
                    <path d="M51.2889764,48.788218 L51.2889764,11.7916833 L42.7442913,11.7916833 L42.7442913,48.788218 L41.0332677,48.788218 L41.0332677,16.8408637 L32.4885827,16.8408637 L32.4885827,48.7984806 L30.7775591,48.7984806 L30.7775591,28.6120219 L22.2224409,28.6120219 L22.2224409,48.788218 L20.5114173,48.788218 L20.5114173,23.5628415 L11.9667323,23.5628415 L11.9667323,48.788218 L10.2557087,48.788218 L10.2557087,37.0170598 L1.71102362,37.0170598 L1.71102362,48.788218 L0,48.788218 L0,50.4712782 L53,50.4712782 L53,48.788218 L51.2889764,48.788218 Z M8.55511811,48.788218 L3.42204724,48.788218 L3.42204724,38.70012 L8.55511811,38.70012 L8.55511811,48.788218 Z M18.8108268,48.788218 L13.6777559,48.788218 L13.6777559,25.2459016 L18.8108268,25.2459016 L18.8108268,48.788218 Z M29.0665354,48.7984806 L23.9334646,48.7984806 L23.9334646,30.295082 L29.0665354,30.295082 L29.0665354,48.7984806 Z M39.3222441,48.7984806 L34.1891732,48.7984806 L34.1891732,18.5239238 L39.3222441,18.5239238 L39.3222441,48.7984806 Z M49.5883858,48.788218 L44.455315,48.788218 L44.455315,13.4747434 L49.5883858,13.4747434 L49.5883858,48.788218 Z" id="Shape" stroke="#859DBA" stroke-width="0.4" fill="#859DBA"></path>
                </g>
            </g>
        </g>
    </g>
</svg>