<?xml version="1.0" encoding="UTF-8"?>
<svg width="55px" height="51px" viewBox="0 0 55 51" version="1.1" xmlns="http://www.w3.org/2000/svg" xmlns:xlink="http://www.w3.org/1999/xlink">
    <!-- Generator: Sketch 48.2 (47327) - http://www.bohemiancoding.com/sketch -->
    <title>information</title>
    <desc>Created with Sketch.</desc>
    <defs></defs>
    <g id="Desktop-HD" stroke="none" stroke-width="1" fill="none" fill-rule="evenodd" transform="translate(-581.000000, -1230.000000)">
        <g id="Group-3" transform="translate(240.000000, 1223.000000)" fill-rule="nonzero">
            <g id="Group-11" transform="translate(341.000000, 7.000000)">
                <g id="information">
                    <path d="M49.63214,38.9141694 C53.0985841,34.7142501 55,29.5261631 55,24.227797 C55,17.7336364 52.2562313,11.6349703 47.2745563,7.05507408 C42.3256697,2.50559254 35.7537606,0 28.7693332,0 C21.7849059,0 15.2127918,2.50559254 10.2639052,7.05517753 C5.28202534,11.6348669 2.53846154,17.7337398 2.53846154,24.2279005 C2.53846154,30.7220612 5.28202534,36.8209341 10.2638028,41.4006234 C15.2126894,45.9502084 21.7845985,48.4556975 28.7690258,48.4556975 C33.1365343,48.4556975 37.4409253,47.4491155 41.2561552,45.5397133 L50.3979525,48.996231 C50.5416064,49.050543 50.6909982,49.0769231 50.8392629,49.0769231 C51.1506497,49.0769231 51.4569132,48.9603334 51.6937064,48.739775 C52.0430046,48.4142135 52.1809206,47.9177503 52.0502796,47.4562537 L49.63214,38.9141694 Z" id="Shape" fill="#FFEFF0"></path>
                    <path d="M31.9075201,11.1723873 C30.8759221,9.98735743 29.267191,9.30769231 27.493758,9.30769231 C24.3265493,9.30769231 21.4955072,11.5166305 21.1825423,14.2348659 C21.0421868,15.4781376 21.4198671,16.6843173 22.2459779,17.6310659 C23.2610329,18.7944145 24.8554058,19.4615385 26.6208274,19.4615385 C29.870127,19.4615385 32.6595514,17.2971319 32.9712678,14.5372345 C33.1117274,13.3167068 32.734047,12.1217929 31.9075201,11.1723873 Z M30.4312373,14.2347596 C30.2713214,15.6520128 28.5261884,16.849265 26.6206193,16.849265 C25.5991136,16.849265 24.6772822,16.491843 24.1548764,15.8929512 C23.8108023,15.4986498 23.6655566,15.0415364 23.7224688,14.5370219 C23.8830089,13.1428316 25.6452052,11.9197532 27.493654,11.9197532 C28.5222347,11.9197532 29.457904,12.2892913 29.9967488,12.9080575 C30.2333453,13.1798173 30.5009469,13.6301286 30.4312373,14.2347596 Z" id="Shape" fill="#859DBA"></path>
                    <path d="M31.1997101,37.7699497 C30.8762879,37.5602275 30.1193199,37.0695526 30.7303689,33.6627103 C30.7460557,33.5884273 30.8074344,33.3137837 30.9027134,32.8870126 C31.1196968,31.9145158 31.5235535,30.1045545 31.9624686,28.0861937 C31.9635214,28.0817164 31.9645742,28.0770355 31.9654164,28.0725582 C32.4134909,25.8911819 32.0588004,23.9829228 30.9402986,22.5539417 C29.9305517,21.2638596 28.3318647,20.473 26.4391289,20.3272832 C23.6401371,20.1108449 20.7120712,21.72533 19.8150799,23.3145793 C19.4003793,24.0187414 19.5989387,24.5906188 19.7552804,24.8703502 C19.9489969,25.2163259 20.2315702,25.4102757 20.4380256,25.5518205 C20.7560785,25.7699886 21.5006234,26.2807097 20.7935584,29.680429 C20.7274421,29.9914001 19.740857,34.8396379 19.6104142,35.5279259 C19.6094667,35.532505 19.6087298,35.5371859 19.6077822,35.5417649 C19.219086,37.7336223 19.6034657,39.6492079 20.7818722,41.0324999 C22.679451,43.2599724 25.5677208,43.1530252 25.6807923,43.1530252 C28.3727136,43.1529235 31.0635822,41.536912 31.8828764,39.9905027 C32.2784159,39.2760631 32.0646961,38.7094771 31.9004583,38.4338159 C31.697793,38.0929282 31.4098503,37.9062031 31.1997101,37.7699497 Z M29.4282576,27.5792376 C28.9914481,29.588135 28.589276,31.3907697 28.3730295,32.359705 C28.2259524,33.0184833 28.1962632,33.1522945 28.1857352,33.2071418 C28.1849982,33.2115173 28.1840507,33.2159947 28.1833137,33.2205738 C27.5263624,36.8700061 28.1912098,38.4671924 29.1322084,39.3607253 C28.875113,39.582455 28.5229492,39.8218905 28.0869819,40.0392446 C27.2295762,40.4668298 26.2798393,40.6879489 25.480022,40.6471441 C24.3148809,40.5870054 23.3893585,40.1806876 22.803998,39.4719463 C22.1223057,38.6468962 21.8985843,37.4364903 22.156943,35.9715888 C22.297598,35.2308957 23.2855518,30.3814367 23.3270324,30.1885044 C23.3277693,30.1842306 23.3287169,30.1801603 23.3296644,30.1758865 C24.085369,26.5443635 23.463792,24.930896 22.547429,24.0138571 C22.8104201,23.7987416 23.1691114,23.5682608 23.6107638,23.3621 C24.4794346,22.9565962 25.4354883,22.7592884 26.2334105,22.8205464 C27.3965513,22.910093 28.3104928,23.3397134 28.8765869,24.0630059 C29.5357492,24.9050496 29.726623,26.1209504 29.4282576,27.5792376 Z" id="Shape" fill="#859DBA"></path>
                    <path d="M47.0936784,40.6064771 C50.5601225,36.4065578 52.4615385,31.2184708 52.4615385,25.9201047 C52.4615385,19.4259441 49.7177697,13.327278 44.7360948,8.74738177 C39.7872082,4.19790023 33.215299,1.69230769 26.2308717,1.69230769 C19.2464443,1.69230769 12.6743303,4.19790023 7.72544368,8.74748522 C2.7435638,13.3271746 0,19.4260475 0,25.9202082 C0,32.4143688 2.7435638,38.5132418 7.72534122,43.0929311 C12.6742278,47.6425161 19.246137,50.1480052 26.2305643,50.1480052 C30.5980728,50.1480052 34.9024637,49.1414232 38.7176937,47.232021 L47.8594909,50.6885387 C48.0031448,50.7428507 48.1525367,50.7692308 48.3008014,50.7692308 C48.6121881,50.7692308 48.9184516,50.6526411 49.1552449,50.4320827 C49.5045431,50.1065212 49.642459,49.610058 49.511818,49.1485614 L47.0936784,40.6064771 Z M39.0821565,44.6548401 C38.7472032,44.5281122 38.3747482,44.5513887 38.0574186,44.7185662 C34.4773425,46.6071747 30.3877151,47.6054805 26.2306668,47.6054805 C13.155704,47.6054805 2.51834894,37.8776365 2.51834894,25.9203116 C2.51834894,13.9629868 13.1556016,4.23483237 26.2305643,4.23483237 C39.3055271,4.23483237 49.9429846,13.9627799 49.9429846,25.9200013 C49.9429846,30.8954956 48.1483357,35.5761535 44.7530013,39.4562011 C44.4685625,39.7811419 44.3678408,40.2303279 44.4859813,40.6472369 L46.4040988,47.4230957 L39.0821565,44.6548401 Z" id="Shape" fill="#859DBA"></path>
                </g>
            </g>
        </g>
    </g>
</svg>