<?xml version="1.0" encoding="UTF-8"?>
<svg width="55px" height="57px" viewBox="0 0 55 57" version="1.1" xmlns="http://www.w3.org/2000/svg" xmlns:xlink="http://www.w3.org/1999/xlink">
    <!-- Generator: Sketch 48.2 (47327) - http://www.bohemiancoding.com/sketch -->
    <title>discount</title>
    <desc>Created with Sketch.</desc>
    <defs></defs>
    <g id="Desktop-HD" stroke="none" stroke-width="1" fill="none" fill-rule="evenodd" transform="translate(-239.000000, -1828.000000)">
        <g id="Group-6" transform="translate(239.000000, 1819.000000)">
            <g id="Group-11" transform="translate(0.000000, 9.000000)">
                <g id="discount">
                    <path d="M51.0913919,26.5542501 L54.0076677,19.2090971 C54.2327047,18.6420862 54.0234805,17.9944975 53.5100375,17.6689825 L46.8571099,13.4502218 L44.9235859,5.78441927 C44.7743086,5.19272474 44.225818,4.79327753 43.6208025,4.83255769 L35.7728308,5.35162545 L29.7276328,0.29291016 C29.2610381,-0.0977553822 28.5839212,-0.0975180399 28.1173265,0.29291016 L22.0720104,5.35174412 L14.2245108,4.83267636 C13.6187873,4.79304018 13.0711227,5.19296208 12.9218454,5.78453794 L10.9876133,13.4503405 L4.33515777,17.6689825 C3.82171479,17.9944975 3.61249062,18.6423235 3.83752756,19.2090971 L6.7536854,26.5542501 L3.83752756,33.8995218 C3.61249062,34.4665328 3.82171479,35.1141214 4.33515777,35.4396365 L10.9877313,39.6582784 L12.9219634,47.324081 C13.0711227,47.9157755 13.6211474,48.3167655 14.2246288,48.2759426 L22.0721285,47.7567562 L28.1174445,52.8155901 C28.3507418,53.0108042 28.6366697,53.1083519 28.9224796,53.1083519 C29.2084075,53.1083519 29.4943355,53.0108042 29.7277508,52.8155901 L35.7728308,47.7567562 L43.6208025,48.2759426 C44.2251099,48.3160535 44.7743086,47.9155382 44.9235859,47.324081 L46.8571099,39.6582784 L53.5100375,35.4396365 C54.0234805,35.1141214 54.2327047,34.4664141 54.0076677,33.8995218 L51.0913919,26.5542501 Z" id="Shape" fill="#FFEFF0" fill-rule="nonzero"></path>
                    <path d="M49.0590876,29.3042374 L52.0760368,21.7055208 C52.3088423,21.118936 52.0923954,20.4489918 51.5612278,20.1122396 L44.6786332,15.7478423 L42.6783616,7.81740699 C42.5239311,7.20528646 41.9565058,6.79204985 41.3306046,6.83268601 L33.2117114,7.36967262 L26.9578259,2.1363244 C26.4751238,1.73217262 25.774632,1.73241815 25.2919299,2.1363244 L19.0379223,7.36979539 L10.9195175,6.83280878 C10.2928838,6.79180432 9.72631308,7.20553199 9.57188259,7.81752976 L7.5708785,15.747965 L0.688772196,20.1122396 C0.157604556,20.4489918 -0.0588422897,21.1191815 0.173963201,21.7055208 L3.1907903,29.3042374 L0.173963201,36.9030766 C-0.0588422897,37.4896615 0.157604556,38.1596057 0.688772196,38.4963579 L7.57100058,42.8606324 L9.57200467,50.7910677 C9.72631308,51.4031882 10.2953254,51.8180208 10.9196396,51.7757887 L19.0380444,51.2386793 L25.292052,56.4721503 C25.533403,56.6741034 25.8292015,56.7750186 26.1248779,56.7750186 C26.4206764,56.7750186 26.7164749,56.6741034 26.957948,56.4721503 L33.2117114,51.2386793 L41.3306046,51.7757887 C41.9557734,51.8172842 42.5239311,51.4029427 42.6783616,50.7910677 L44.6786332,42.8606324 L51.5612278,38.4963579 C52.0923954,38.1596057 52.3088423,37.4895387 52.0760368,36.9030766 L49.0590876,29.3042374 Z M43.2988966,41.2362277 C43.0089419,41.4200314 42.8002196,41.7089738 42.7159786,42.0430477 L40.8042581,49.6222392 L33.0449297,49.109026 C32.7020736,49.0863342 32.3653601,49.1968937 32.1018561,49.4172565 L26.1250033,54.418658 L20.1478997,49.4171304 C19.9069603,49.2155515 19.604219,49.1061265 19.2927026,49.1061265 C19.263494,49.1061265 19.23416,49.1070089 19.2049515,49.1088999 L11.4461245,49.6221131 L9.53365193,42.0429216 C9.44941087,41.7087216 9.24081397,41.4199053 8.95085926,41.2361016 L2.37341282,37.0650943 L5.25666328,29.8027058 C5.38365166,29.4824991 5.38365166,29.1256073 5.25666328,28.8055267 L2.37341282,21.5432642 L8.95085926,17.3721308 C9.24081397,17.1883272 9.44941087,16.8995108 9.53365193,16.5653108 L11.4457484,8.98611937 L19.2045754,9.49920647 C19.5476822,9.5229068 19.884145,9.41133873 20.147649,9.19097601 L26.1247526,4.18944839 L32.1016054,9.19097601 C32.3651094,9.41133873 32.7016976,9.5229068 33.044679,9.49920647 L40.8040074,8.98611937 L42.7157278,16.5653108 C42.8000942,16.8993847 43.0086912,17.1883272 43.2986459,17.3721308 L49.876343,21.5432642 L46.9929672,28.8055267 C46.8659788,29.1257334 46.8659788,29.4826252 46.9929672,29.8027058 L49.876343,37.0650943 L43.2988966,41.2362277 Z" id="Shape" fill="#859DBA" fill-rule="nonzero"></path>
                    <path d="M16.568929,22.8208822 C17.7935445,22.8208822 18.8449256,23.0692928 19.7231038,23.5661214 C20.6012821,24.0629501 21.2659483,24.7692418 21.7171224,25.6850179 C22.1682965,26.600794 22.3938802,27.6763447 22.3938802,28.9117025 C22.3938802,29.824793 22.2703463,30.6546187 22.0232747,31.4012044 C21.7762032,32.1477902 21.4056014,32.7950005 20.9114583,33.3428548 C20.4173152,33.8907091 19.8103877,34.3096502 19.0906576,34.5996908 C18.3709274,34.8897313 17.5464727,35.0347493 16.6172689,35.0347493 C15.6934361,35.0347493 14.866296,34.885703 14.1358236,34.5876058 C13.4053512,34.2895086 12.7957381,33.8692247 12.3069661,33.3267415 C11.8181942,32.7842584 11.4489352,32.131677 11.1991781,31.3689779 C10.949421,30.6062787 10.8245443,29.7818241 10.8245443,28.8955892 C10.8245443,27.9878698 10.954792,27.1553586 11.2152913,26.3980306 C11.4757907,25.6407026 11.8531063,24.9961778 12.3472493,24.4644368 C12.8413924,23.9326959 13.4429489,23.5258396 14.1519368,23.2438558 C14.8609248,22.961872 15.6665808,22.8208822 16.568929,22.8208822 Z M19.9688314,28.8955892 C19.9688314,28.0308388 19.8291843,27.2815787 19.5498861,26.6477865 C19.2705878,26.0139942 18.8717881,25.5346289 18.3534749,25.2096761 C17.8351618,24.8847233 17.2403191,24.7222493 16.568929,24.7222493 C16.0908993,24.7222493 15.6491313,24.8122143 15.2436117,24.9921468 C14.838092,25.1720794 14.4889744,25.4339176 14.1962484,25.7776693 C13.9035223,26.121421 13.6725676,26.5605035 13.5033773,27.09493 C13.334187,27.6293565 13.2495931,28.2295702 13.2495931,28.8955892 C13.2495931,29.5669793 13.334187,30.1739068 13.5033773,30.71639 C13.6725676,31.2588732 13.9115789,31.7086978 14.2204183,32.0658773 C14.5292577,32.4230568 14.8837464,32.690266 15.2838949,32.867513 C15.6840433,33.04476 16.1231259,33.1333822 16.6011556,33.1333822 C17.2134633,33.1333822 17.7760798,32.9803075 18.2890218,32.6741536 C18.8019638,32.3679998 19.2101629,31.8953482 19.5136312,31.2561849 C19.8170995,30.6170215 19.9688314,29.8301642 19.9688314,28.8955892 Z M31.4978841,24.8672689 L26.7847493,24.8672689 L26.7847493,27.8885091 L30.7244466,27.8885091 C31.0896828,27.8885091 31.3622631,27.9704175 31.5421956,28.1342367 C31.7221282,28.2980558 31.8120931,28.5169257 31.8120931,28.7908529 C31.8120931,29.06478 31.7207854,29.2823071 31.5381673,29.4434408 C31.3555492,29.6045744 31.0843117,29.68514 30.7244466,29.68514 L26.7847493,29.68514 L26.7847493,33.5764974 C26.7847493,34.0706405 26.6733003,34.437214 26.4503988,34.6762288 C26.2274973,34.9152437 25.9414894,35.0347493 25.5923665,35.0347493 C25.2378726,35.0347493 24.9491792,34.9139009 24.7262777,34.6722005 C24.5033762,34.4305001 24.3919271,34.0652694 24.3919271,33.5764974 L24.3919271,24.4886068 C24.3919271,24.1448551 24.442952,23.8642182 24.5450033,23.6466878 C24.6470545,23.4291574 24.806843,23.2707118 25.0243734,23.171346 C25.2419038,23.0719803 25.5198551,23.0222982 25.8582357,23.0222982 L31.4978841,23.0222982 C31.8792337,23.0222982 32.162556,23.1068921 32.3478597,23.2760824 C32.5331634,23.4452727 32.6258138,23.6668281 32.6258138,23.9407552 C32.6258138,24.2200535 32.5331634,24.4442944 32.3478597,24.6134847 C32.162556,24.782675 31.8792337,24.8672689 31.4978841,24.8672689 Z M41.4639486,24.8672689 L36.7508138,24.8672689 L36.7508138,27.8885091 L40.6905111,27.8885091 C41.0557473,27.8885091 41.3283276,27.9704175 41.5082601,28.1342367 C41.6881926,28.2980558 41.7781576,28.5169257 41.7781576,28.7908529 C41.7781576,29.06478 41.6868499,29.2823071 41.5042318,29.4434408 C41.3216137,29.6045744 41.0503761,29.68514 40.6905111,29.68514 L36.7508138,29.68514 L36.7508138,33.5764974 C36.7508138,34.0706405 36.6393647,34.437214 36.4164632,34.6762288 C36.1935617,34.9152437 35.9075538,35.0347493 35.558431,35.0347493 C35.203937,35.0347493 34.9152436,34.9139009 34.6923421,34.6722005 C34.4694406,34.4305001 34.3579915,34.0652694 34.3579915,33.5764974 L34.3579915,24.4886068 C34.3579915,24.1448551 34.4090164,23.8642182 34.5110677,23.6466878 C34.613119,23.4291574 34.7729074,23.2707118 34.9904378,23.171346 C35.2079682,23.0719803 35.4859195,23.0222982 35.8243001,23.0222982 L41.4639486,23.0222982 C41.8452981,23.0222982 42.1286205,23.1068921 42.3139242,23.2760824 C42.4992278,23.4452727 42.5918783,23.6668281 42.5918783,23.9407552 C42.5918783,24.2200535 42.4992278,24.4442944 42.3139242,24.6134847 C42.1286205,24.782675 41.8452981,24.8672689 41.4639486,24.8672689 Z" id="OFF" fill="#859DBA"></path>
                </g>
            </g>
        </g>
    </g>
</svg>