<?xml version="1.0" encoding="UTF-8"?>
<svg width="56px" height="56px" viewBox="0 0 56 56" version="1.1" xmlns="http://www.w3.org/2000/svg" xmlns:xlink="http://www.w3.org/1999/xlink">
    <!-- Generator: Sketch 47.1 (45422) - http://www.bohemiancoding.com/sketch -->
    <title>Group 15</title>
    <desc>Created with Sketch.</desc>
    <defs></defs>
    <g id="Page-1" stroke="none" stroke-width="1" fill="none" fill-rule="evenodd">
        <g id="Desktop-HD" transform="translate(-692.000000, -814.000000)">
            <g id="Group-4" transform="translate(240.000000, 807.000000)">
                <g id="Group-30" transform="translate(350.000000, 7.000000)">
                    <g id="Group-15" transform="translate(103.000000, 0.000000)">
                        <circle id="Oval-2" fill="#FFEFF0" cx="29.1176471" cy="25.8823529" r="25.8823529"></circle>
                        <circle id="Oval-2" stroke="#859DBA" stroke-width="2.030625" cx="25.8823529" cy="29.1176471" r="25.8823529"></circle>
                        <path d="M37.6621418,29.4463119 C37.3303167,29.1176471 36.7911011,29.1176471 36.459276,29.4463119 L25.8823529,39.9430439 L15.2846908,29.4463119 C14.9528658,29.1176471 14.4136501,29.1176471 14.081825,29.4463119 C13.75,29.7749767 13.75,30.309057 14.081825,30.6377218 L25.260181,41.7096172 C25.4260935,41.8739496 25.6334842,41.9561158 25.8616139,41.9561158 C26.0690045,41.9561158 26.2971342,41.8739496 26.4630468,41.7096172 L37.6414027,30.6377218 C37.9939668,30.309057 37.9939668,29.7749767 37.6621418,29.4463119 Z" id="Shape" stroke="#859DBA" stroke-width="0.81225" fill="#859DBA" fill-rule="nonzero"></path>
                        <path d="M37.6621418,18.1227824 C37.3303167,17.7941176 36.7911011,17.7941176 36.459276,18.1227824 L25.8823529,28.6195145 L15.2846908,18.1227824 C14.9528658,17.7941176 14.4136501,17.7941176 14.081825,18.1227824 C13.75,18.4514472 13.75,18.9855275 14.081825,19.3141923 L25.260181,30.3860878 C25.4260935,30.5504202 25.6334842,30.6325864 25.8616139,30.6325864 C26.0690045,30.6325864 26.2971342,30.5504202 26.4630468,30.3860878 L37.6414027,19.3141923 C37.9939668,18.9855275 37.9939668,18.4514472 37.6621418,18.1227824 Z" id="Shape" stroke="#859DBA" stroke-width="0.81225" fill="#859DBA" fill-rule="nonzero"></path>
                    </g>
                </g>
            </g>
        </g>
    </g>
</svg>