<?xml version="1.0" encoding="UTF-8"?>
<svg width="65px" height="59px" viewBox="0 0 65 59" version="1.1" xmlns="http://www.w3.org/2000/svg" xmlns:xlink="http://www.w3.org/1999/xlink">
    <!-- Generator: Sketch 47.1 (45422) - http://www.bohemiancoding.com/sketch -->
    <title>Group 34</title>
    <desc>Created with Sketch.</desc>
    <defs></defs>
    <g id="Page-1" stroke="none" stroke-width="1" fill="none" fill-rule="evenodd">
        <g id="Desktop-HD" transform="translate(-338.000000, -1218.000000)">
            <g id="Group-4" transform="translate(240.000000, 807.000000)">
                <g id="Group-35" transform="translate(0.000000, 411.000000)">
                    <g id="Group-34" transform="translate(98.000000, 0.000000)">
                        <rect id="Rectangle-7" fill="#FFEFF0" x="5.57142857" y="0" width="59.4285714" height="52.546875" rx="7.392"></rect>
                        <g id="profits" transform="translate(0.000000, 3.687500)" fill-rule="nonzero" fill="#859DBA">
                            <path d="M51.9596273,13.1696429 L44.0324534,13.1696429 C43.2996894,13.1696429 42.7001553,13.7622768 42.7001553,14.4866071 C42.7001553,15.2109375 43.2996894,15.8035714 44.0324534,15.8035714 L48.628882,15.8035714 L41.8341615,22.5200893 L39.5692547,20.3470982 C38.5034161,19.2935268 36.9046584,19.2935268 35.8388199,20.3470982 L24.6475155,31.4095982 L20.8504658,27.65625 C19.8512422,26.6685268 18.1192547,26.6685268 17.1200311,27.65625 L10.5917702,34.109375 C10.0588509,34.6361607 10.0588509,35.4263393 10.5917702,35.953125 C10.8582298,36.2165179 11.1913043,36.3482143 11.5243789,36.3482143 C11.8574534,36.3482143 12.190528,36.2165179 12.4569876,35.953125 L18.9852484,29.5 L23.7149068,34.1752232 C24.2478261,34.7020089 25.047205,34.7020089 25.5801242,34.1752232 L37.7040373,22.1908482 L40.9015528,25.2857143 C41.434472,25.8125 42.2338509,25.8125 42.7667702,25.2857143 L50.6273292,17.515625 L50.6273292,22.3225446 C50.6273292,23.046875 51.2268634,23.6395089 51.9596273,23.6395089 C52.6923913,23.6395089 53.2919255,23.046875 53.2919255,22.3225446 L53.2919255,14.4866071 C53.2919255,13.7622768 52.6923913,13.1696429 51.9596273,13.1696429 Z" id="Shape"></path>
                            <path d="M53.7846933,0 L6.66149068,0 C2.99767081,0 0,2.96316964 0,6.58482143 L0,48.7276786 C0,52.3493304 2.99767081,55.3125 6.66149068,55.3125 L54.6242236,55.3125 C58.2880435,55.3125 61.2857143,52.3493304 61.2857143,48.7276786 L61.2857143,6.58482143 C61.2857143,2.96316964 57.4485131,0 53.7846933,0 Z M58.621118,48.7276786 C58.621118,50.9006696 56.8225155,52.6785714 54.6242236,52.6785714 L6.66149068,52.6785714 C4.46319876,52.6785714 2.66459627,50.9006696 2.66459627,48.7276786 L2.66459627,6.58482143 C2.66459627,4.41183036 4.46319876,2.63392857 6.66149068,2.63392857 L54.6242236,2.63392857 C56.8225155,2.63392857 58.621118,4.41183036 58.621118,6.58482143 L58.621118,48.7276786 Z" id="Shape"></path>
                            <path d="M7.39425466,37.2700893 L6.06195652,38.5870536 C5.52903727,39.1138393 5.52903727,39.9040179 6.06195652,40.4308036 C6.32841615,40.6941964 6.66149068,40.8258929 6.99456522,40.8258929 C7.32763975,40.8258929 7.66071429,40.6941964 7.92717391,40.4308036 L9.25947205,39.1138393 C9.7923913,38.5870536 9.7923913,37.796875 9.25947205,37.2700893 C8.7265528,36.7433036 7.92717391,36.7433036 7.39425466,37.2700893 Z" id="Shape"></path>
                        </g>
                    </g>
                </g>
            </g>
        </g>
    </g>
</svg>