<?xml version="1.0" encoding="UTF-8"?>
<svg width="67px" height="64px" viewBox="0 0 67 64" version="1.1" xmlns="http://www.w3.org/2000/svg" xmlns:xlink="http://www.w3.org/1999/xlink">
    <!-- Generator: Sketch 47.1 (45422) - http://www.bohemiancoding.com/sketch -->
    <title>analytics (8)</title>
    <desc>Created with Sketch.</desc>
    <defs></defs>
    <g id="Page-1" stroke="none" stroke-width="1" fill="none" fill-rule="evenodd">
        <g id="Desktop-HD" transform="translate(-337.000000, -810.000000)">
            <g id="Group-4" transform="translate(240.000000, 807.000000)">
                <g id="Group-29" transform="translate(0.000000, 3.000000)">
                    <g id="analytics-(8)" transform="translate(97.000000, 0.000000)">
                        <path d="M9.03783784,0.592243267 L64.3,0.592243267 L64.3,0.592243267 C65.7911688,0.592243267 67,1.80107444 67,3.29224327 L67,44.7654827 L67,44.7654827 C67,46.2566515 65.7911688,47.4654827 64.3,47.4654827 L9.03783784,47.4654827 L9.03783784,47.4654827 C7.54666901,47.4654827 6.33783784,46.2566515 6.33783784,44.7654827 L6.33783784,3.29224327 L6.33783784,3.29224327 C6.33783784,1.80107444 7.54666901,0.592243267 9.03783784,0.592243267 Z" id="Rectangle-9" fill="#FFEFF0"></path>
                        <path d="M40.7131049,57.5225147 L23.5706789,57.5225147 C20.5708108,57.5225147 18.213655,59.8944466 18.213655,62.9134068 C18.213655,63.5603088 18.6421717,63.9915347 19.2850096,63.9915347 L44.9985231,63.9915347 C45.6413609,63.9915347 46.0698776,63.5603088 46.0698776,62.9134068 C46.0700032,59.8945729 43.712973,57.5225147 40.7131049,57.5225147 Z M20.5708108,61.8352789 C20.9993275,60.5414749 22.1779054,59.6788968 23.5706789,59.6788968 L40.8202027,59.6788968 C42.2129762,59.6788968 43.3915541,60.5414749 43.8200708,61.8352789 L20.5708108,61.8352789 Z" id="Shape" fill="#859DBA" fill-rule="nonzero"></path>
                        <path d="M40.7131049,58.3850928 L38.5702703,49.7596907 C38.4631725,49.2205636 38.0345302,48.8971126 37.4989157,48.8971126 L26.7849936,48.8971126 C26.2492536,48.8971126 25.8207369,49.3283385 25.7136391,49.7596907 L23.5708044,58.3850928 C23.5708044,58.7085438 23.5708044,59.0319948 23.7851256,59.2476709 C23.9994467,59.5711219 24.3208656,59.6788968 24.6422845,59.6788968 L39.6418759,59.6788968 C39.9632948,59.6788968 40.2847138,59.5711219 40.4990349,59.3554458 C40.7131049,59.0319948 40.8202027,58.7085438 40.7131049,58.3850928 Z M26.0349324,57.5225147 L27.642027,51.0534947 L36.6417568,51.0534947 L38.2488514,57.5225147 L26.0349324,57.5225147 Z" id="Shape" fill="#859DBA" fill-rule="nonzero"></path>
                        <path d="M59.4625,3.61409912 L4.82128378,3.61409912 C2.14283464,3.61409912 0,5.77048123 0,8.46586411 L0,41.3500911 C0,41.9969931 0.428516707,42.428219 1.07135454,42.428219 L63.2123037,42.428219 C63.8551415,42.428219 64.2836582,41.9969931 64.2836582,41.3500911 L64.2836582,8.46586411 C64.2837838,5.77035488 62.1409491,3.61409912 59.4625,3.61409912 Z M62.1409491,40.2718369 L2.14283464,40.2718369 L2.14283464,8.46586411 C2.14283464,6.95638399 3.32141253,5.77048123 4.82128378,5.77048123 L59.4625,5.77048123 C60.9624968,5.77048123 62.1409491,6.95651034 62.1409491,8.46586411 L62.1409491,40.2718369 Z" id="Shape" fill="#859DBA" fill-rule="nonzero"></path>
                        <path d="M63.2124292,40.2718369 L1.07135454,40.2718369 C0.428516707,40.2718369 0,40.7030628 0,41.3499648 L0,46.2017297 C0,48.8971126 2.14283464,51.0534947 4.82128378,51.0534947 L59.4625,51.0534947 C62.1409491,51.0534947 64.2837838,48.8971126 64.2837838,46.2017297 L64.2837838,41.3499648 C64.2837838,40.7030628 63.8552671,40.2718369 63.2124292,40.2718369 Z M62.1409491,46.2017297 C62.1409491,47.7112099 60.9623713,48.8971126 59.4625,48.8971126 L4.82128378,48.8971126 C3.32128698,48.8971126 2.14283464,47.7110835 2.14283464,46.2017297 L2.14283464,42.4280926 L62.1410747,42.4280926 L62.1410747,46.2017297 L62.1409491,46.2017297 Z" id="Shape" fill="#859DBA" fill-rule="nonzero"></path>
                        <path d="M36.4274356,32.724689 C35.7845978,32.724689 35.3560811,33.1559149 35.3560811,33.8028169 L35.3560811,37.0373269 C35.3560811,37.6842289 35.7845978,38.1154548 36.4274356,38.1154548 C37.0702735,38.1154548 37.4987902,37.6842289 37.4987902,37.0373269 L37.4987902,33.8028169 C37.4989157,33.1559149 37.0702735,32.724689 36.4274356,32.724689 Z" id="Shape" fill="#859DBA" fill-rule="nonzero"></path>
                        <path d="M40.7131049,28.4119248 C40.0702671,28.4119248 39.6417504,28.8431507 39.6417504,29.4900527 L39.6417504,37.0373269 C39.6417504,37.6842289 40.0702671,38.1154548 40.7131049,38.1154548 C41.3559428,38.1154548 41.7844595,37.6842289 41.7844595,37.0373269 L41.7844595,29.490179 C41.7844595,28.843277 41.3559428,28.4119248 40.7131049,28.4119248 Z" id="Shape" fill="#859DBA" fill-rule="nonzero"></path>
                        <path d="M44.9986486,30.5683069 C44.3558108,30.5683069 43.9272941,30.9995328 43.9272941,31.6464348 L43.9272941,37.0373269 C43.9272941,37.6842289 44.3558108,38.1154548 44.9986486,38.1154548 C45.6414865,38.1154548 46.0700032,37.6842289 46.0700032,37.0373269 L46.0700032,31.6464348 C46.0700032,30.9995328 45.6414865,30.5683069 44.9986486,30.5683069 Z" id="Shape" fill="#859DBA" fill-rule="nonzero"></path>
                        <path d="M49.2841924,23.0211591 C48.6413545,23.0211591 48.2128378,23.4523849 48.2128378,24.0992869 L48.2128378,37.0373269 C48.2128378,37.6842289 48.6413545,38.1154548 49.2841924,38.1154548 C49.9270302,38.1154548 50.3555469,37.6842289 50.3555469,37.0373269 L50.3555469,24.0992869 C50.3556725,23.4523849 49.9270302,23.0211591 49.2841924,23.0211591 Z" id="Shape" fill="#859DBA" fill-rule="nonzero"></path>
                        <path d="M53.5698617,27.3337969 C52.9270238,27.3337969 52.4985071,27.7650228 52.4985071,28.4119248 L52.4985071,37.0373269 C52.4985071,37.6842289 52.9270238,38.1154548 53.5698617,38.1154548 C54.2126995,38.1154548 54.6412162,37.6842289 54.6412162,37.0373269 L54.6412162,28.4119248 C54.6412162,27.7650228 54.2126995,27.3337969 53.5698617,27.3337969 Z" id="Shape" fill="#859DBA" fill-rule="nonzero"></path>
                        <path d="M18.7493951,10.0831191 C11.9995978,10.0831191 6.42837838,15.689561 6.42837838,22.4820319 C6.42837838,29.2745029 11.9995978,34.8809448 18.7493951,34.8809448 C25.4991924,34.8809448 31.0704118,29.2745029 31.0704118,22.4820319 C31.0705373,15.689561 25.4991924,10.0831191 18.7493951,10.0831191 Z M18.7493951,32.724689 C13.1781757,32.724689 8.57108747,28.0886002 8.57108747,22.4820319 C8.57108747,16.8755901 13.1780501,12.2393749 18.7493951,12.2393749 C24.3206145,12.2393749 28.9277027,16.8754637 28.9277027,22.4820319 C28.9277027,28.0884738 24.32074,32.724689 18.7493951,32.724689 Z" id="Shape" fill="#859DBA" fill-rule="nonzero"></path>
                        <path d="M27.5349292,13.748855 C25.0706757,11.2690219 21.6422909,9.97521787 18.2137806,10.0831191 C17.8923617,10.0831191 17.6780405,10.190894 17.463845,10.4065701 C17.2496494,10.6222462 17.142426,10.837796 17.142426,11.161247 L17.142426,23.0211591 C17.142426,23.5602862 17.5709428,24.0992869 18.2137806,24.0992869 L29.9991828,24.0992869 C30.2135039,24.0992869 30.5349229,23.9915121 30.8563418,23.8836108 C31.0706629,23.6679347 31.1777607,23.4523849 31.1777607,23.1289339 C31.2847329,19.570973 29.9990572,16.2286881 27.5349292,13.748855 Z M19.2851351,21.9429048 L19.2851351,12.2393749 C21.8564865,12.3471497 24.1064189,13.425404 25.9278346,15.2582087 C27.7492504,17.0911398 28.8206049,19.3552968 28.9277027,21.9429048 L19.2851351,21.9429048 Z" id="Shape" fill="#859DBA" fill-rule="nonzero"></path>
                        <path d="M26.8920914,30.2448559 L18.9637162,22.2663558 C18.5351995,21.8351299 17.8923617,21.8351299 17.4637194,22.2663558 C17.0350771,22.6975817 17.0352027,23.3444837 17.4637194,23.7758359 L25.3920946,31.754336 C25.6064157,31.9700121 25.8206113,32.077787 26.1420302,32.077787 C26.4634491,32.077787 26.6777703,31.9700121 26.8919658,31.754336 C27.3206081,31.3229838 27.3206081,30.6760818 26.8920914,30.2448559 Z" id="Shape" fill="#859DBA" fill-rule="nonzero"></path>
                        <path d="M48.2128378,14.395757 L39.6416248,14.395757 C38.998787,14.395757 38.5702703,14.8269829 38.5702703,15.4738848 C38.5702703,16.1207868 38.998787,16.5520127 39.6416248,16.5520127 L48.2128378,16.5520127 C48.8556757,16.5520127 49.2841924,16.1207868 49.2841924,15.4738848 C49.2841924,14.8269829 48.8556757,14.395757 48.2128378,14.395757 Z" id="Shape" fill="#859DBA" fill-rule="nonzero"></path>
                        <path d="M54.4268951,14.719208 C54.3197973,14.719208 54.3197973,14.6114331 54.212574,14.6114331 C54.1053506,14.6114331 54.1054762,14.5036582 53.9982528,14.5036582 C53.891155,14.3958833 53.891155,14.3958833 53.7839317,14.3958833 C53.4625128,14.3958833 53.0339961,14.5036582 52.8196749,14.7193343 C52.6053538,14.9350104 52.498256,15.1505602 52.498256,15.4740112 C52.498256,15.6896873 52.6053538,15.7974622 52.6053538,15.9052371 C52.6053538,16.013012 52.7124516,16.1209132 52.8196749,16.2286881 C53.0339961,16.4443642 53.2481916,16.5521391 53.5696106,16.5521391 C53.6767084,16.5521391 53.6767084,16.5521391 53.7839317,16.5521391 C53.8910295,16.4443642 53.8910295,16.4443642 53.9982528,16.4443642 C54.1053506,16.4443642 54.212574,16.3365893 54.212574,16.3365893 C54.3196717,16.3365893 54.4268951,16.2288144 54.4268951,16.2288144 C54.5339929,16.1210395 54.5339929,16.0131383 54.6412162,15.9053634 C54.7484396,15.7975885 54.748314,15.5819124 54.748314,15.4741375 C54.748314,15.1504338 54.6412162,14.9348841 54.4268951,14.719208 Z" id="Shape" fill="#859DBA" fill-rule="nonzero"></path>
                        <path d="M53.5698617,9.00486487 L50.3556725,9.00486487 C49.7128346,9.00486487 49.2843179,9.43609075 49.2843179,10.0829928 C49.2843179,10.7298947 49.7128346,11.1611206 50.3556725,11.1611206 L53.5698617,11.1611206 C54.2126995,11.1611206 54.6412162,10.7298947 54.6412162,10.0829928 C54.6412162,9.43609075 54.2126995,9.00486487 53.5698617,9.00486487 Z" id="Shape" fill="#859DBA" fill-rule="nonzero"></path>
                        <path d="M41.7844595,9.00486487 L39.6416248,9.00486487 C38.998787,9.00486487 38.5702703,9.43609075 38.5702703,10.0829928 C38.5702703,10.7298947 38.998787,11.1611206 39.6416248,11.1611206 L41.7844595,11.1611206 C42.4272973,11.1611206 42.855814,10.7298947 42.855814,10.0829928 C42.855814,9.43609075 42.4272973,9.00486487 41.7844595,9.00486487 Z" id="Shape" fill="#859DBA" fill-rule="nonzero"></path>
                        <path d="M46.9271622,9.32831587 C46.8200644,9.32831587 46.8200644,9.22054099 46.712841,9.22054099 C46.6056177,9.22054099 46.6057432,9.1127661 46.4985199,9.1127661 C46.3914221,9.00499122 46.3914221,9.00499122 46.2841988,9.00499122 C46.0698776,9.00499122 45.9627799,9.00499122 45.8556821,9.00499122 C45.7485843,9.1127661 45.7485843,9.1127661 45.6413609,9.1127661 C45.5342631,9.1127661 45.5342631,9.22054099 45.4270398,9.22054099 L45.319942,9.32831587 C45.2128442,9.43609075 45.1056209,9.54399199 45.1056209,9.65176687 C44.9985231,9.75954175 44.9985231,9.97521787 44.9985231,10.0829928 C44.9985231,10.4064438 45.1056209,10.6221199 45.319942,10.8376696 L45.4270398,10.9454445 C45.5341376,10.9454445 45.5341376,11.0532194 45.6413609,11.0532194 C45.7484587,11.1609943 45.7484587,11.1609943 45.8556821,11.1609943 C45.9629054,11.1609943 45.9627799,11.1609943 46.0700032,11.1609943 C46.1772265,11.1609943 46.177101,11.1609943 46.177101,11.1609943 C46.2841988,11.0532194 46.2841988,11.0532194 46.3914221,11.0532194 C46.4986455,11.0532194 46.6057432,10.9454445 46.6057432,10.9454445 C46.712841,10.9454445 46.8200644,10.8376696 46.8200644,10.8376696 C47.0343855,10.6219935 47.1414833,10.4064438 47.1414833,10.0829928 C47.1414833,9.97521787 47.1414833,9.75954175 47.1414833,9.65176687 C47.1414833,9.54399199 47.03426,9.4362171 46.9271622,9.32831587 Z" id="Shape" fill="#859DBA" fill-rule="nonzero"></path>
                    </g>
                </g>
            </g>
        </g>
    </g>
</svg>