<?xml version="1.0" encoding="utf-8"?>
<!-- Generator: Adobe Illustrator 19.1.0, SVG Export Plug-In . SVG Version: 6.00 Build 0)  -->
<svg version="1.1" id="Layer_1" xmlns="http://www.w3.org/2000/svg" xmlns:xlink="http://www.w3.org/1999/xlink" x="0px" y="0px"
	 viewBox="0 0 196 168" enable-background="new 0 0 196 168" xml:space="preserve">
<path fill="#24D356" d="M163.846,121.409l-3.91-75.516c-0.109-2.101-1.844-3.749-3.948-3.749H144.45v-3.711
	c0-12.646-10.289-22.934-22.935-22.934c-12.646,0-22.933,10.288-22.933,22.934v3.711H87.043c-2.104,0-3.84,1.648-3.949,3.749
	l-3.92,75.725c-0.056,1.082,0.335,2.141,1.081,2.927c0.746,0.786,1.783,1.231,2.867,1.231h76.786c0.002,0,0.003,0,0.005,0
	c2.183,0,3.953-1.77,3.953-3.953C163.867,121.683,163.86,121.545,163.846,121.409z M104.213,58.147
	c-2.339,0-4.235-1.896-4.235-4.235c0-2.339,1.896-4.235,4.235-4.235s4.235,1.896,4.235,4.235
	C108.448,56.251,106.552,58.147,104.213,58.147z M132.688,42.145h-22.345v-3.711c0-6.161,5.012-11.173,11.172-11.173
	c6.161,0,11.173,5.012,11.173,11.173V42.145z M138.822,58.147c-2.339,0-4.235-1.896-4.235-4.235c0-2.339,1.896-4.235,4.235-4.235
	c2.339,0,4.235,1.896,4.235,4.235C143.057,56.251,141.161,58.147,138.822,58.147z"/>
<g>
	<path fill="#098240" d="M53.488,96.513l-3.043,51.229c0,0,9.461-8.403,14.911-7.31c0,0,64.247,11.695,69.687,9.86
		c0,0,45.056-21.279,51.006-30.536c0,0,4.065-9.676-6.492-10.966c0,0-30.508,16.671-42.033,14.44c0,0-24.171,1.716-30.77-3.474
		c0,0-15.938-7.214-0.419-4.863c0,0,32.39,6.173,35.277-4.36c0,0,1.689-5.234-8.16-8.384c0,0-30.211-8.693-46.082-11.921
		C87.371,90.228,57.476,92.027,53.488,96.513z"/>
	<polygon fill="#098240" points="12,93.5 50.195,96 46.625,150.488 12,153 	"/>
</g>
<path fill="#FFFFFF" d="M158.138,111.623L158.138,111.623c-1.103,0.065-2.049-0.776-2.114-1.879l-2.707-45.92
	c-0.065-1.103,0.776-2.049,1.879-2.114l0,0c1.103-0.065,2.049,0.776,2.114,1.879l2.707,45.92
	C160.082,110.612,159.241,111.558,158.138,111.623z"/>
</svg>
