<?xml version="1.0" encoding="utf-8"?>
<!-- Generator: Adobe Illustrator 19.1.0, SVG Export Plug-In . SVG Version: 6.00 Build 0)  -->
<svg version="1.1" id="Layer_1" xmlns="http://www.w3.org/2000/svg" xmlns:xlink="http://www.w3.org/1999/xlink" x="0px" y="0px"
	 viewBox="0 0 119 121" enable-background="new 0 0 119 121" xml:space="preserve">
<g>
	<g>
		<g>
			<path fill="#148193" d="M22.87,8.834l31.038,53.901l-11.803,6.796l-0.9-1.563l8.149-4.695c0.324-0.184,0.434-0.592,0.246-0.913
				c-0.184-0.319-0.592-0.432-0.912-0.246l-8.151,4.692l-1.461-2.533l5.25-3.023c0.321-0.185,0.431-0.592,0.246-0.912
				c-0.186-0.324-0.591-0.433-0.911-0.245l-5.249,3.02l-1.207-2.096l5.249-3.02c0.316-0.185,0.427-0.596,0.246-0.915
				c-0.188-0.321-0.596-0.43-0.918-0.247l-5.247,3.021l-1.154-2.007l5.246-3.02c0.322-0.183,0.432-0.592,0.246-0.912
				c-0.183-0.323-0.592-0.433-0.912-0.246l-5.249,3.02l-1.304-2.271l8.148-4.692c0.32-0.187,0.43-0.594,0.246-0.915
				c-0.187-0.319-0.592-0.428-0.915-0.246l-8.149,4.695l-0.905-1.57l5.512-3.172c0.32-0.185,0.43-0.593,0.244-0.915
				c-0.181-0.32-0.589-0.429-0.912-0.246l-5.511,3.174l-1.208-2.096l5.511-3.176c0.323-0.182,0.433-0.591,0.245-0.911
				c-0.183-0.324-0.591-0.433-0.912-0.246l-5.511,3.171l-1.156-2.007l5.512-3.171c0.32-0.187,0.43-0.596,0.246-0.915
				c-0.188-0.321-0.596-0.43-0.915-0.246l-5.512,3.172l-1.321-2.295l8.151-4.694c0.32-0.184,0.428-0.593,0.243-0.913
				c-0.185-0.32-0.593-0.43-0.912-0.248l-8.152,4.695l-1.458-2.533l5.247-3.024c0.32-0.184,0.43-0.593,0.243-0.913
				c-0.18-0.322-0.59-0.429-0.911-0.245l-5.248,3.02l-1.208-2.095l5.248-3.02c0.318-0.184,0.429-0.596,0.246-0.913
				c-0.184-0.322-0.593-0.432-0.913-0.248l-5.247,3.024l-1.156-2.01l5.245-3.021c0.322-0.183,0.429-0.592,0.246-0.916
				c-0.183-0.319-0.592-0.429-0.912-0.246l-5.247,3.024l-1.309-2.27l8.152-4.694c0.318-0.185,0.429-0.596,0.246-0.916
				c-0.186-0.32-0.594-0.43-0.916-0.246l-8.149,4.695l-0.901-1.569l5.509-3.172c0.32-0.184,0.43-0.592,0.246-0.912
				c-0.185-0.323-0.594-0.433-0.916-0.246L16.1,24.376l-1.202-2.095l5.509-3.172c0.322-0.186,0.432-0.594,0.246-0.916
				c-0.184-0.32-0.592-0.43-0.914-0.246l-5.508,3.172l-1.159-2.008l5.512-3.175c0.32-0.181,0.431-0.59,0.246-0.912
				c-0.185-0.32-0.594-0.43-0.914-0.246l-5.513,3.174l-1.335-2.322L22.87,8.834z"/>
		</g>
	</g>
</g>
<g>
	<g>
		<g>
			<polygon fill="#22A3C6" points="50.107,56.017 44.097,24.331 45.031,24.154 51.042,55.839 56.729,54.76 50.717,23.063 
				42.52,24.617 48.533,56.315 			"/>
			<path fill="#22A3C6" d="M49.438,61.087c-0.956-1.5-0.791-4.169-0.791-4.169l8.197-1.555c0,0,0.86,2.887,0.791,4.169
				S50.394,62.587,49.438,61.087z"/>
			<polygon fill="#22A3C6" points="42.41,24.04 45.252,16.705 50.607,22.485 			"/>
		</g>
	</g>
</g>
<g>
	<g id="_x31__2_">
		<g>
			<path fill="#05B8C1" d="M98.205,39.567l3.456-6.366c3.308-0.908,7.505-3.441,7.529-10.52c0.474-3.885,4.478-4.892,4.478-4.892
				c-10.95-6.741-19.063,1.357-20.597,4.275c-1.347,2.565-0.901,5.076-0.114,6.955l-3.215,5.923L98.205,39.567z M95.901,23.587
				c1.107-1.899,7.017-7.16,11.989-5.256c0,0-1.076,1.529-1.477,4.073c-0.506,7.584-7.148,8.469-7.148,8.469l-2.83-1.523
				C96.407,29.335,93.942,26.945,95.901,23.587z M76.276,69.918c2.345,1.261,5.275,0.386,6.543-1.954l13.825-25.517l-8.463-4.623
				L74.328,63.395C73.059,65.736,73.931,68.657,76.276,69.918z"/>
		</g>
	</g>
</g>
<g>
	<path fill="#00CFE5" d="M84.939,112.164H38.542c-3.74,0-6.772-3.032-6.772-6.772v-53.17h59.942v53.17
		C91.712,109.132,88.68,112.164,84.939,112.164z"/>
	<text transform="matrix(-0.9555 0 0 1 113.9014 92.8955)" fill="#00CFE5" font-family="'NeoSans'" font-size="59.3372px">c</text>
</g>
</svg>
