<?xml version="1.0" encoding="utf-8"?>
<!-- Generator: Adobe Illustrator 19.1.0, SVG Export Plug-In . SVG Version: 6.00 Build 0)  -->
<svg version="1.1" id="Layer_1" xmlns="http://www.w3.org/2000/svg" xmlns:xlink="http://www.w3.org/1999/xlink" x="0px" y="0px"
	 viewBox="0 0 198 140" enable-background="new 0 0 198 140" xml:space="preserve">
<g>
	<g>
		<path fill="#FFFFFF" d="M166.846,12.5l19,49.125l2.694-4.958C188.541,56.667,193.096,20.5,166.846,12.5z"/>
		<g>
			<g>
				
					<rect x="161.707" y="7.178" transform="matrix(-0.9352 0.3541 -0.3541 -0.9352 342.3101 15.4407)" fill="#D83535" width="16.07" height="63.727"/>
				<polygon fill="#871A1A" points="150.944,24.75 102.471,43.5 104.721,49.25 36.471,75.5 39.221,82.75 21.471,89.75 
					26.221,102.75 43.971,96.25 46.721,104 115.721,77.25 117.721,82.25 166.221,64.375 				"/>
				<polygon fill="#560D0D" points="17.721,91.25 22.971,104 14.971,109 8.221,92.5 				"/>
				<path fill="#FFFFFF" d="M44.622,80.439l63.2-24.124l-1.605-4.204l-63.2,24.124c-1.161,0.443-1.743,1.744-1.3,2.904h0
					C42.161,80.3,43.461,80.882,44.622,80.439z"/>
				
					<rect x="108.451" y="32.602" transform="matrix(-0.9334 0.3588 -0.3588 -0.9334 278.7993 55.5774)" fill="#AA2222" width="51.585" height="42.11"/>
				<path fill="#FFFFFF" d="M116.069,46.357l37.685-14.353L152.15,27.8l-37.685,14.353c-1.161,0.443-1.743,1.744-1.3,2.904v0
					C113.608,46.219,114.908,46.8,116.069,46.357z"/>
				<path fill="#FFFFFF" d="M27.237,95.09l14.111-5.386L39.743,85.5l-14.111,5.386c-1.161,0.443-1.743,1.744-1.3,2.904l0,0
					C24.775,94.952,26.076,95.534,27.237,95.09z"/>
			</g>
			<path fill="#D83939" d="M186.219,59.862c0.713-1.63,1.251-3.466,1.596-5.485c1.135-6.651,0.041-14.426-3.083-21.893
				c-3.124-7.466-7.891-13.705-13.424-17.566c-0.914-0.638-1.829-1.196-2.742-1.676l-1.015-2.679
				c1.631,0.677,3.272,1.578,4.902,2.716c5.84,4.075,10.856,10.622,14.124,18.435c3.269,7.812,4.408,15.98,3.21,23
				c-0.5,2.925-1.386,5.506-2.604,7.693L186.219,59.862z"/>
			<path fill="#D83939" d="M185.471,36.485c0,0,3.667,13.848,0.833,20.182l-6.5-17.625C179.805,39.041,186.471,47.97,185.471,36.485
				z"/>
		</g>
	</g>
	<path fill="#871A1A" d="M79.471,101.545c0-7.265,5.91-13.175,13.175-13.175c7.265,0,13.175,5.91,13.175,13.175
		s-5.91,13.175-13.175,13.175C85.382,114.72,79.471,108.809,79.471,101.545z M86.002,101.545c0,3.664,2.981,6.645,6.645,6.645
		s6.645-2.981,6.645-6.645c0-3.664-2.981-6.645-6.645-6.645S86.002,97.881,86.002,101.545z"/>
	<rect x="70.471" y="113" fill="#871A1A" width="45" height="17.333"/>
</g>
</svg>
