<?xml version="1.0" encoding="utf-8"?>
<!-- Generator: Adobe Illustrator 19.1.0, SVG Export Plug-In . SVG Version: 6.00 Build 0)  -->
<!DOCTYPE svg PUBLIC "-//W3C//DTD SVG 1.1//EN" "http://www.w3.org/Graphics/SVG/1.1/DTD/svg11.dtd">
<svg version="1.1" id="Layer_1" xmlns="http://www.w3.org/2000/svg" xmlns:xlink="http://www.w3.org/1999/xlink" x="0px" y="0px"
	 viewBox="0 0 61.2 61.2" style="enable-background:new 0 0 61.2 61.2;" xml:space="preserve">
<style type="text/css">
	.st0{fill:#D63C33;}
</style>
<g>
	<g>
		<polygon class="st0" points="13,51.6 9.4,49.8 19.6,29.8 29,38.3 38,20.6 41.5,22.4 30.2,44.8 20.8,36.3 		"/>
		<g>
			<polygon class="st0" points="43.8,29.9 38.6,23.7 30.6,23.2 45.1,10.9 			"/>
		</g>
	</g>
</g>
<path class="st0" d="M30.6,61.2C13.7,61.2,0,47.5,0,30.6S13.7,0,30.6,0c16.9,0,30.6,13.7,30.6,30.6S47.5,61.2,30.6,61.2z M30.6,4
	C15.9,4,4,15.9,4,30.6s11.9,26.6,26.6,26.6s26.6-11.9,26.6-26.6S45.3,4,30.6,4z"/>
</svg>
