<?xml version="1.0" encoding="utf-8"?>
<!-- Generator: Adobe Illustrator 19.1.0, SVG Export Plug-In . SVG Version: 6.00 Build 0)  -->
<!DOCTYPE svg PUBLIC "-//W3C//DTD SVG 1.1//EN" "http://www.w3.org/Graphics/SVG/1.1/DTD/svg11.dtd">
<svg version="1.1" id="Layer_1" xmlns="http://www.w3.org/2000/svg" xmlns:xlink="http://www.w3.org/1999/xlink" x="0px" y="0px"
	 viewBox="0 0 65.4 51.8" style="enable-background:new 0 0 65.4 51.8;" xml:space="preserve">
<style type="text/css">
	.st0{fill:#059C58;}
</style>
<g>
	<g>
		<path class="st0" d="M12.8,40.3c-0.7,0-1.3-0.3-1.7-1c-2.4-4-3.7-8.7-3.7-13.4C7.4,11.6,19,0,33.3,0c3.8,0,7.5,0.8,10.9,2.4
			c1,0.5,1.4,1.7,1,2.7c-0.5,1-1.7,1.4-2.7,1c-2.9-1.3-6-2-9.2-2c-12.1,0-21.9,9.8-21.9,21.9c0,4,1.1,7.9,3.1,11.3
			c0.6,0.9,0.3,2.2-0.7,2.7C13.5,40.2,13.1,40.3,12.8,40.3z"/>
		<path class="st0" d="M33.3,51.8c-5.1,0-10-1.5-14.2-4.2c-0.9-0.6-1.2-1.8-0.6-2.8c0.6-0.9,1.8-1.2,2.8-0.6c3.6,2.3,7.7,3.6,12,3.6
			c12.1,0,21.9-9.8,21.9-21.9c0-4.4-1.3-8.6-3.7-12.2c-0.6-0.9-0.4-2.2,0.5-2.8c0.9-0.6,2.2-0.4,2.8,0.5c2.9,4.3,4.4,9.3,4.4,14.5
			C59.2,40.2,47.5,51.8,33.3,51.8z"/>
		<path class="st0" d="M48.6,26c-0.2,0-0.4,0-0.6-0.1c-1-0.3-1.6-1.5-1.3-2.5l4.6-13.7l12.8,4.9c1,0.4,1.5,1.6,1.1,2.6
			c-0.4,1-1.6,1.5-2.6,1.1l-8.9-3.4l-3.2,9.7C50.2,25.5,49.4,26,48.6,26z"/>
		<path class="st0" d="M14.1,40.8L1.3,35.9c-1-0.4-1.5-1.6-1.1-2.6c0.4-1,1.6-1.5,2.6-1.1l8.9,3.4l3.2-9.7c0.3-1,1.5-1.6,2.5-1.3
			c1,0.3,1.6,1.5,1.3,2.5L14.1,40.8z"/>
	</g>
</g>
</svg>
