<?xml version="1.0" encoding="utf-8"?>
<!-- Generator: Adobe Illustrator 19.1.0, SVG Export Plug-In . SVG Version: 6.00 Build 0)  -->
<!DOCTYPE svg PUBLIC "-//W3C//DTD SVG 1.1//EN" "http://www.w3.org/Graphics/SVG/1.1/DTD/svg11.dtd">
<svg version="1.1" id="Layer_1" xmlns="http://www.w3.org/2000/svg" xmlns:xlink="http://www.w3.org/1999/xlink" x="0px" y="0px"
	 viewBox="0 0 43.7 55.1" style="enable-background:new 0 0 43.7 55.1;" xml:space="preserve">
<style type="text/css">
	.st0{fill:#3468DC;}
</style>
<g>
	<g>
		<path class="st0" d="M25.9,33.5c0-2.2-1.8-4.1-4.1-4.1c-2.3,0-4.1,1.8-4.1,4.1c0,1.5,0.8,2.9,1.9,3.6l-0.9,9.3h6.2L24,37.1
			C25.1,36.3,25.9,34.9,25.9,33.5z"/>
	</g>
</g>
<g>
	<g>
		<path class="st0" d="M39.7,25.9v25.2H4V25.9H39.7 M43.7,21.9H0v33.2h43.7V21.9L43.7,21.9z"/>
	</g>
</g>
<path class="st0" d="M5.4,25.1c-0.2-1.1-0.3-2.2-0.3-3.4v-5C5.1,7.5,12.6,0,21.8,0s16.8,7.5,16.8,16.8v5c0,0.8-0.1,1.7-0.2,2.5
	l-4-0.6c0.1-0.6,0.1-1.3,0.1-1.9v-5c0-7-5.7-12.8-12.8-12.8S9.1,9.7,9.1,16.8v5c0,0.9,0.1,1.7,0.3,2.6L5.4,25.1z"/>
</svg>
