<svg xmlns="http://www.w3.org/2000/svg" xmlns:xlink="http://www.w3.org/1999/xlink" width="56" height="64" viewBox="0 0 56 64"><defs><path id="62tba" d="M431.33 663.11l-.44-.68c.64.08 1.26-.39 1.34-1.06a1.22 1.22 0 0 0-1.04-1.37c-.18-.02-42.19 13.13-42.19 15.99 0 .67 25.76 0 26.42 0 .67 0 1.19-.45 1.19-1.13.42-.87 4.68-3.22 8.62-3.88 2.96-.49 7.01-1.16 7.01-4.87 0-1.61-.55-2.45-.9-3z"/><path id="62tbb" d="M436 652.65c0-1.75-3.55-8.18-5.32-11.28.17-.88.46-2.9.46-5.93 0-5.25-6.86-18.44-23.07-18.44-15.91 0-23.07 12.22-23.07 20.9 0 6.13 3.58 12.42 6.46 17.47 1.67 2.94 3.25 5.72 3.25 7.1 0 3.14-5.02 9.34-6.96 11.47-.46.5-.42 1.27.07 1.73.23.22.53.33.82.33.33 0 41.17-15.59 41.65-15.1a1.2 1.2 0 0 0 1.71 0l1.22-1.24c.32-.33.44-.81.29-1.26l-.81-2.46c1.4-.49 3.3-1.5 3.3-3.3z"/><path id="62tbc" d="M426.1 668.13l-.45-.69c.64.08 1.26-.39 1.34-1.06a1.22 1.22 0 0 0-1.04-1.37 2.36 2.36 0 0 0-1.8.56c-.34.3-.75.89-.75 1.88 0 .98.4 1.6.7 2.04.29.44.5.76.5 1.63 0 .95-.36 1.69-5 2.46-3.16.53-10.6 3.24-10.6 6.1 0 .68.52 1.32 1.18 1.32.67 0 1.19-.45 1.19-1.13.42-.87 4.68-3.22 8.62-3.87 2.96-.5 7.01-1.17 7.01-4.88 0-1.61-.55-2.44-.9-3z"/><path id="62tbd" d="M431 657.65c0-1.75-3.55-8.18-5.32-11.28.17-.88.46-2.9.46-5.93 0-5.25-6.86-18.44-23.07-18.44-15.91 0-23.07 12.22-23.07 20.9 0 6.13 3.58 12.42 6.46 17.47 1.67 2.94 3.25 5.72 3.25 7.1 0 3.14-5.02 9.34-6.96 11.47-.46.5-.42 1.27.07 1.73a1.2 1.2 0 0 0 1.71-.07c.78-.85 7.61-8.47 7.61-13.12 0-2.05-1.58-4.83-3.58-8.34-2.73-4.8-6.13-10.76-6.13-16.24 0-6.02 5.04-18.44 20.64-18.44 15.48 0 20.64 12.6 20.64 15.98 0 3.76-.49 5.83-.49 5.85-.07.31-.03.64.13.92 2.44 4.24 5.14 9.45 5.23 10.42-.12.34-1.37 1-2.69 1.27a1.25 1.25 0 0 0-.9 1.6l.98 2.96-.68.7a1.24 1.24 0 0 0 0 1.73 1.2 1.2 0 0 0 1.71 0l1.22-1.23c.32-.33.44-.81.29-1.26l-.81-2.46c1.4-.49 3.3-1.5 3.3-3.3z"/><path id="62tbe" d="M401.63 652.03l-7.13-6.98v-3.88l2.13-2.08a1.2 1.2 0 0 0 0-1.73 1.27 1.27 0 0 0-1.77 0l-2.5 2.44c-.23.23-.36.54-.36.87v4.89c0 .32.13.63.37.86l7.13 6.98v26.38c0 .67.56 1.22 1.25 1.22s1.25-.55 1.25-1.22v-26.9c0-.32-.13-.63-.37-.85z"/><path id="62tbf" d="M417.78 644.5h-16.6l-2.1-2.13a1.2 1.2 0 0 0-1.72 0 1.27 1.27 0 0 0 0 1.76l2.44 2.5c.23.24.54.37.87.37h17.1c.68 0 1.23-.56 1.23-1.25 0-.7-.55-1.25-1.22-1.25z"/><path id="62tbg" d="M418.65 637.37a1.17 1.17 0 0 0-1.7 0l-2.05 2.13h-6.7c-.66 0-1.2.56-1.2 1.25s.54 1.25 1.2 1.25h7.2c.32 0 .62-.13.85-.37l2.4-2.5c.47-.48.47-1.28 0-1.76z"/><path id="62tbh" d="M413.65 632.34a1.23 1.23 0 0 0-1.7 0l-2.05 2h-4.3c-.32 0-.62.12-.85.34l-2.4 2.33c-.47.45-.47 1.2 0 1.65a1.22 1.22 0 0 0 1.7 0l2.05-2h4.3c.32 0 .62-.12.85-.34l2.4-2.33c.47-.45.47-1.2 0-1.65z"/><path id="62tbi" d="M401.63 631.84l-2.5-2.48a1.27 1.27 0 0 0-.88-.36h-5c-.33 0-.65.13-.89.36l-5 4.95c-.23.24-.36.55-.36.88v12.38c0 .33.13.65.37.88l7.13 7.06v24.25c0 .69.56 1.24 1.25 1.24s1.25-.55 1.25-1.24V655c0-.33-.13-.64-.37-.87l-7.13-7.07V635.7l4.27-4.22h3.96l2.14 2.1c.48.5 1.28.5 1.76 0 .5-.47.5-1.26 0-1.74z"/><path id="62tbj" d="M395.5 635a2.5 2.5 0 1 0 0 5 2.5 2.5 0 0 0 0-5z"/><path id="62tbk" d="M415.65 649.37a1.17 1.17 0 0 0-1.7 0l-2.05 2.13h-3.8l-2.05-2.13a1.17 1.17 0 0 0-1.7 0 1.29 1.29 0 0 0 0 1.77l2.4 2.5c.23.23.53.36.85.36h4.8c.32 0 .62-.13.85-.37l2.4-2.5c.47-.48.47-1.28 0-1.76z"/><path id="62tbl" d="M408.63 670.93l-2.13-2.08v-8.7l2.13-2.08a1.2 1.2 0 0 0 0-1.71 1.28 1.28 0 0 0-1.77 0l-2.5 2.42a1.2 1.2 0 0 0-.36.86v9.72c0 .32.13.63.36.86l2.5 2.43a1.27 1.27 0 0 0 1.77 0 1.2 1.2 0 0 0 0-1.72z"/><path id="62tbm" d="M420.65 651.36a1.2 1.2 0 0 0-1.7 0l-9.6 9.7c-.22.24-.35.55-.35.87v4.86c0 .67.54 1.21 1.2 1.21.66 0 1.2-.54 1.2-1.21v-4.36l9.25-9.36c.47-.47.47-1.24 0-1.71z"/><path id="62tbn" d="M407.5 670a2.5 2.5 0 1 0 0 5 2.5 2.5 0 0 0 0-5z"/><path id="62tbo" d="M418.63 661.37a1.25 1.25 0 0 0-1.76 0l-2.5 2.5c-.24.23-.37.55-.37.88v5a1.25 1.25 0 0 0 2.5 0v-4.48l2.13-2.14c.5-.48.5-1.28 0-1.76z"/><path id="62tbp" d="M412.5 631a2.5 2.5 0 1 0 0 5 2.5 2.5 0 0 0 0-5z"/></defs><g><g transform="translate(-380 -617)"><use fill="#ffeff0" xlink:href="#62tba"/></g><g transform="translate(-380 -617)"><use fill="#ffeff0" xlink:href="#62tbb"/></g><g transform="translate(-380 -617)"><use fill="#859dba" xlink:href="#62tbc"/></g><g transform="translate(-380 -617)"><use fill="#859dba" xlink:href="#62tbd"/></g><g transform="translate(-380 -617)"><use fill="#859dba" xlink:href="#62tbe"/></g><g transform="translate(-380 -617)"><use fill="#859dba" xlink:href="#62tbf"/></g><g transform="translate(-380 -617)"><use fill="#859dba" xlink:href="#62tbg"/></g><g transform="translate(-380 -617)"><use fill="#859dba" xlink:href="#62tbh"/></g><g transform="translate(-380 -617)"><use fill="#859dba" xlink:href="#62tbi"/></g><g transform="translate(-380 -617)"><use fill="#859dba" xlink:href="#62tbj"/></g><g transform="translate(-380 -617)"><use fill="#859dba" xlink:href="#62tbk"/></g><g transform="translate(-380 -617)"><use fill="#859dba" xlink:href="#62tbl"/></g><g transform="translate(-380 -617)"><use fill="#859dba" xlink:href="#62tbm"/></g><g transform="translate(-380 -617)"><use fill="#859dba" xlink:href="#62tbn"/></g><g transform="translate(-380 -617)"><use fill="#859dba" xlink:href="#62tbo"/></g><g transform="translate(-380 -617)"><use fill="#859dba" xlink:href="#62tbp"/></g></g></svg>