<svg xmlns="http://www.w3.org/2000/svg" xmlns:xlink="http://www.w3.org/1999/xlink" width="86" height="71" viewBox="0 0 86 71"><defs><path id="mmi9a" d="M329.76 2045.37l-2.99-2.32 19.62-25.65 19.12 18.64 18.13-14.6 2.35 2.96-20.72 16.71-18.47-18.01z"/><path id="mmi9b" d="M390.1 2081.68h-11.82a.5.5 0 0 1-.5-.5v-43.16c0-.3.22-.51.5-.51h11.81c.3 0 .5.22.5.5v43.16a.5.5 0 0 1-.5.51z"/><path id="mmi9c" d="M371.3 2081.68h-11.8a.5.5 0 0 1-.51-.5v-30.48c0-.3.22-.51.5-.51h11.81c.3 0 .5.22.5.5v30.48c-.02.27-.23.51-.5.51z"/><path id="mmi9d" d="M352.5 2081.68h-11.8a.5.5 0 0 1-.51-.5v-45.91c0-.3.22-.51.5-.51h11.81c.3 0 .5.22.5.5v45.92a.5.5 0 0 1-.5.5z"/><path id="mmi9e" d="M333.72 2081.68h-11.8a.5.5 0 0 1-.51-.5v-22.63c0-.3.22-.51.5-.51h11.81c.3 0 .5.22.5.5v22.64c0 .26-.23.5-.5.5z"/><path id="mmi9f" d="M313.07 2083.78v-4.13h85.86v4.13z"/><path id="mmi9g" d="M377.78 2022.93c0-3.92 3.15-7.1 7.04-7.1 3.9 0 7.05 3.18 7.05 7.1 0 3.92-3.15 7.1-7.04 7.1a7.07 7.07 0 0 1-7.05-7.1z"/><path id="mmi9h" d="M380.72 2022.93a4.11 4.11 0 0 1 4.1-4.13c2.26 0 4.09 1.85 4.09 4.13a4.11 4.11 0 0 1-4.1 4.13 4.11 4.11 0 0 1-4.09-4.13z"/><path id="mmi9i" d="M358.35 2037.87c0-3.92 3.15-7.1 7.04-7.1 3.9 0 7.05 3.18 7.05 7.1 0 3.92-3.15 7.1-7.04 7.1a7.07 7.07 0 0 1-7.05-7.1z"/><path id="mmi9j" d="M361.29 2037.87a4.11 4.11 0 0 1 4.1-4.13c2.26 0 4.09 1.85 4.09 4.13a4.11 4.11 0 0 1-4.1 4.13 4.11 4.11 0 0 1-4.09-4.13z"/><path id="mmi9k" d="M339.57 2020.24c0-3.92 3.15-7.1 7.04-7.1 3.9 0 7.05 3.18 7.05 7.1 0 3.92-3.15 7.1-7.04 7.1a7.07 7.07 0 0 1-7.05-7.1z"/><path id="mmi9l" d="M342.51 2020.25a4.11 4.11 0 0 1 4.1-4.13c2.26 0 4.09 1.85 4.09 4.13a4.11 4.11 0 0 1-4.1 4.13 4.11 4.11 0 0 1-4.09-4.13z"/><path id="mmi9m" d="M320.76 2044.2c0-3.92 3.15-7.1 7.04-7.1 3.9 0 7.05 3.18 7.05 7.1 0 3.92-3.15 7.1-7.04 7.1a7.07 7.07 0 0 1-7.05-7.1z"/><path id="mmi9n" d="M323.71 2044.2a4.11 4.11 0 0 1 4.1-4.13c2.26 0 4.09 1.85 4.09 4.13a4.11 4.11 0 0 1-4.1 4.13 4.11 4.11 0 0 1-4.09-4.13z"/></defs><g><g transform="translate(-313 -2013)"><use fill="#374c60" xlink:href="#mmi9a"/></g><g transform="translate(-313 -2013)"><use fill="#f05244" xlink:href="#mmi9b"/></g><g transform="translate(-313 -2013)"><use fill="#f9a53d" xlink:href="#mmi9c"/></g><g transform="translate(-313 -2013)"><use fill="#ffda44" xlink:href="#mmi9d"/></g><g transform="translate(-313 -2013)"><use fill="#e7a555" xlink:href="#mmi9e"/></g><g transform="translate(-313 -2013)"><use fill="#acacb3" xlink:href="#mmi9f"/></g><g transform="translate(-313 -2013)"><use fill="#e6e9ee" xlink:href="#mmi9g"/></g><g transform="translate(-313 -2013)"><use fill="#ff7058" xlink:href="#mmi9h"/></g><g transform="translate(-313 -2013)"><use fill="#e6e9ee" xlink:href="#mmi9i"/></g><g transform="translate(-313 -2013)"><use fill="#ff7058" xlink:href="#mmi9j"/></g><g transform="translate(-313 -2013)"><use fill="#e6e9ee" xlink:href="#mmi9k"/></g><g transform="translate(-313 -2013)"><use fill="#ff7058" xlink:href="#mmi9l"/></g><g transform="translate(-313 -2013)"><use fill="#e6e9ee" xlink:href="#mmi9m"/></g><g transform="translate(-313 -2013)"><use fill="#ff7058" xlink:href="#mmi9n"/></g></g></svg>