<svg xmlns="http://www.w3.org/2000/svg" xmlns:xlink="http://www.w3.org/1999/xlink" width="88" height="88" viewBox="0 0 88 88"><defs><path id="n2qra" d="M392.97 1587.98c.02-4.68.01-7.7-.03-9.02l4.78-.14c.04 1.4.05 4.45.03 9.18-.02 5.85-2.57 9.46-7.44 9.75-40.52.09-62.9.09-67.35 0-5.73-.1-8.95-3.32-8.76-8.79v-10.07h4.78v10.16c-.1 2.82.95 3.87 4.07 3.93 4.4.08 26.78.08 67.04 0 1.97-.15 2.87-1.46 2.88-5z"/><path id="n2qrb" d="M398.63 1544.25h-9.96s-7.08 0-9.7 4.74a385.67 385.67 0 0 1-7.1 12.03l-7.51-4.26 2.88 21.7 19.95-8.46-8.21-4.53 5.44-9.19s1.96-3.1 5.4-3.26c3.44-.16 8.8.16 8.8.16z"/><path id="n2qrc" d="M313 1544.25h9.95s7.09 0 9.7 4.74c2.62 4.73 7.1 12.03 7.1 12.03l7.52-4.26-2.88 21.7-19.96-8.46 8.22-4.53-5.44-9.19s-1.96-3.1-5.4-3.26c-3.45-.16-8.81.16-8.81.16z"/><path id="n2qrd" d="M351.64 1512.26h8.66v23.05h11.37l-15.39 18.12-15.46-18.12h10.82z"/></defs><g><g transform="translate(-312 -1512)"><use fill="#acacb3" xlink:href="#n2qra"/><use fill="#fff" fill-opacity="0" stroke="#acacb3" stroke-miterlimit="50" stroke-width="3" xlink:href="#n2qra"/></g><g transform="translate(-312 -1512)"><use fill="#f05244" xlink:href="#n2qrb"/></g><g transform="translate(-312 -1512)"><use fill="#f9a53d" xlink:href="#n2qrc"/></g><g transform="translate(-312 -1512)"><use fill="#374c60" xlink:href="#n2qrd"/></g></g></svg>