<svg xmlns="http://www.w3.org/2000/svg" xmlns:xlink="http://www.w3.org/1999/xlink" width="55" height="62" viewBox="0 0 55 62"><defs><path id="m6cga" d="M1094.4 657.88c.5.24 1.1.17 1.52-.18l22.56-18.63a1.42 1.42 0 0 0-.01-2.19l-22.55-18.55a1.42 1.42 0 0 0-1.52-.19c-.5.23-.82.73-.82 1.3v9.74c-25.86.93-25.75 20.48-25.7 29.96v1.13a1.41 1.41 0 0 0 1.42 1.42c.5 0 .98-.27 1.25-.72 7.63-13.41 13.92-14.06 23.03-14.1v9.72c0 .55.32 1.05.82 1.3z"/><path id="m6cgb" d="M1118.72 673.62V647.3c0-.8-.1-5.45 0-7.31-6.12 5.23-22.79 19.57-24.24 20.07-2.72.94-1.65-10.88-1.62-12.45-4.1.25-7.6-.07-10.8 1.96-8.8 5.59-14.19 17.18-14.19 17.76v6.27c0 .79.64 1.43 1.44 1.43h47.97c.8 0 1.44-.64 1.44-1.42z"/><path id="m6cgc" d="M1089.72 661.43v-9.72c-9.11.04-15.4.69-23.03 14.1a1.46 1.46 0 0 1-1.61.67 1.41 1.41 0 0 1-1.07-1.37v-1.13c-.04-9.48-.15-29.03 25.71-29.96v-9.75c0-.56.32-1.06.82-1.29.5-.24 1.09-.16 1.52.19l22.55 18.55a1.42 1.42 0 0 1 .01 2.19l-22.56 18.63a1.44 1.44 0 0 1-2.34-1.1zm1.43-12.58a1.43 1.43 0 0 1 1.44 1.43v8.11l18.86-15.57-18.88-15.53v8.12c0 .78-.63 1.41-1.4 1.42-10.76.1-17.73 3.4-21.33 10.03-2.26 4.16-2.81 9.09-2.94 13.22 7.34-10.63 14.24-11.22 24.25-11.23z"/><path id="m6cgd" d="M1114.86 678.46v-26.3a1.43 1.43 0 0 0-2.87 0v24.87h-45.1v-4.84a1.43 1.43 0 0 0-2.88 0v6.26c0 .79.64 1.43 1.44 1.43h47.97c.8 0 1.44-.64 1.44-1.42z"/></defs><g><g transform="translate(-1064 -618)"><use fill="#ffeff0" xlink:href="#m6cga"/></g><g transform="translate(-1064 -618)"><use fill="#ffeff0" xlink:href="#m6cgb"/></g><g transform="translate(-1064 -618)"><use fill="#859dba" xlink:href="#m6cgc"/></g><g transform="translate(-1064 -618)"><use fill="#859dba" xlink:href="#m6cgd"/></g></g></svg>