<svg xmlns="http://www.w3.org/2000/svg" xmlns:xlink="http://www.w3.org/1999/xlink" width="49" height="65" viewBox="0 0 49 65"><defs><path id="eidva" d="M745.3 621.03a21.74 21.74 0 0 0-20.3 21.3 21.87 21.87 0 0 0 7.32 16.6c2.74 2.35 4.3 5.69 4.3 9.03a2.9 2.9 0 0 0 .39 4.61c-.2.4-.4.88-.4 1.47a2.88 2.88 0 0 0 2.94 2.95h1.07a5.88 5.88 0 0 0 5.76 4.9 5.88 5.88 0 0 0 5.76-4.9h1.07a2.88 2.88 0 0 0 2.93-2.95c0-.49-.2-.98-.39-1.47a3.03 3.03 0 0 0 1.37-2.45c0-.89-.4-1.67-.98-2.16.1-3.44 1.66-6.68 4.3-9.03a21.68 21.68 0 0 0 7.42-16.3 21.43 21.43 0 0 0-22.55-21.6z"/><path id="eidvb" d="M753.67 648.59l-3.31 3.4a12.49 12.49 0 0 1-17.97 0L729 648.5l3.3-3.4a12.47 12.47 0 0 1 17.98 0zm-1.18 0l-2.8-2.88a11.65 11.65 0 0 0-16.8 0l-2.71 2.8 2.8 2.88a11.65 11.65 0 0 0 16.79 0z"/><path id="eidvc" d="M740.9 645.1a2.96 2.96 0 0 0-2.91 3c0 .24.19.43.42.43.23 0 .41-.2.41-.43 0-1.18.94-2.14 2.09-2.14.23 0 .41-.2.41-.43a.42.42 0 0 0-.41-.43z"/><path id="eidvd" d="M746.74 648.53a5.5 5.5 0 0 1-5.41 5.57 5.5 5.5 0 0 1-5.42-5.57 5.5 5.5 0 0 1 5.42-5.57 5.5 5.5 0 0 1 5.41 5.57zm-.83 0c0-2.6-2.06-4.71-4.58-4.71a4.66 4.66 0 0 0-4.59 4.71c0 2.6 2.06 4.72 4.59 4.72a4.66 4.66 0 0 0 4.58-4.72z"/><path id="eidve" d="M762.94 645.63c0 6.28-2.74 12.17-7.42 16.3a12.61 12.61 0 0 0-4.3 9.03c.59.49.98 1.27.98 2.16 0 .98-.59 1.96-1.37 2.45.2.5.4.98.4 1.47a2.88 2.88 0 0 1-2.94 2.95h-1.07a5.88 5.88 0 0 1-5.76 4.9 5.88 5.88 0 0 1-5.76-4.9h-1.07a2.88 2.88 0 0 1-2.93-2.95c0-.59.2-1.08.39-1.47a2.9 2.9 0 0 1-.4-4.61c0-3.34-1.55-6.68-4.29-9.03a21.87 21.87 0 0 1-7.32-16.6 21.74 21.74 0 0 1 20.3-21.3 21.43 21.43 0 0 1 22.56 21.6zm-17.67 34.36h-7.52a3.99 3.99 0 0 0 3.8 2.94 3.79 3.79 0 0 0 3.72-2.94zm4.1-2.95c0-.59-.4-.98-.98-.98h-13.67c-.58 0-.97.4-.97.98 0 .6.39.99.97.99h13.67c.59 0 .98-.4.98-.99zm.97-3.92c0-.6-.39-.98-.97-.98h-15.62c-.59 0-.98.39-.98.98s.4.98.98.98h15.62c.58 0 .97-.4.97-.98zm10.74-27.49c0-11.2-9.37-20.22-20.6-19.63a19.72 19.72 0 0 0-18.45 19.34c0 5.79 2.45 11.29 6.74 15.11a14.33 14.33 0 0 1 4.98 9.72h15.62c.29-3.63 2.05-7.16 4.98-9.72a19.6 19.6 0 0 0 6.73-14.82z"/><path id="eidvf" d="M724.96 645.63h1.95c0-8.15 6.54-14.73 14.64-14.73v-1.96c-9.17 0-16.59 7.46-16.59 16.69z"/></defs><g><g transform="translate(-719 -621)"><use fill="#ffeff0" xlink:href="#eidva"/></g><g transform="translate(-719 -621)"><use xlink:href="#eidvb"/><use fill="#fff" fill-opacity="0" stroke="#859dba" stroke-miterlimit="50" xlink:href="#eidvb"/></g><g transform="translate(-719 -621)"><use xlink:href="#eidvc"/><use fill="#fff" fill-opacity="0" stroke="#859dba" stroke-miterlimit="50" xlink:href="#eidvc"/></g><g transform="translate(-719 -621)"><use xlink:href="#eidvd"/><use fill="#fff" fill-opacity="0" stroke="#859dba" stroke-miterlimit="50" xlink:href="#eidvd"/></g><g transform="translate(-719 -621)"><use fill="#859dba" xlink:href="#eidve"/><use fill="#fff" fill-opacity="0" stroke="#859dba" stroke-miterlimit="50" stroke-width=".7" xlink:href="#eidve"/></g><g transform="translate(-719 -621)"><use fill="#859dba" xlink:href="#eidvf"/><use fill="#fff" fill-opacity="0" stroke="#859dba" stroke-miterlimit="50" stroke-width=".7" xlink:href="#eidvf"/></g></g></svg>