<?xml version="1.0" encoding="UTF-8" standalone="no"?>
<svg width="476px" height="102px" viewBox="0 0 476 102" version="1.1" xmlns="http://www.w3.org/2000/svg" xmlns:xlink="http://www.w3.org/1999/xlink">
    <!-- Generator: Sketch 41 (35326) - http://www.bohemiancoding.com/sketch -->
    <title>Artboard</title>
    <desc>Created with Sketch.</desc>
    <defs></defs>
    <g id="Page-1" stroke="none" stroke-width="1" fill="none" fill-rule="evenodd">
        <g id="Artboard">
            <g id="Group-6" transform="translate(226.769952, 56.584872) rotate(27.000000) translate(-226.769952, -56.584872) translate(194.769952, 29.584872)" stroke="#3F3F3F" stroke-width="2">
                <path d="M30,35 L34.5,44.5" id="Line" stroke-linecap="square"></path>
                <path d="M36.1683346,26.2658206 L48,27" id="Line-Copy" stroke-linecap="square"></path>
                <path d="M32.2907926,18.6842176 L38,13" id="Line-Copy-2" stroke-linecap="square"></path>
                <path d="M17.6185189,18.5328993 L9,9" id="Line-Copy-3" stroke-linecap="square"></path>
                <path d="M15,31 L10,35" id="Line-Copy-4" stroke-linecap="square"></path>
                <circle id="Oval-2" cx="25" cy="26" r="10"></circle>
                <circle id="Oval-2-Copy" cx="56" cy="28" r="8"></circle>
                <circle id="Oval-2-Copy-2" cx="42" cy="9" r="5"></circle>
                <circle id="Oval-2-Copy-3" cx="5.10899348" cy="5.4539905" r="5"></circle>
                <circle id="Oval-2-Copy-4" cx="6" cy="38" r="5"></circle>
                <circle id="Oval-2-Copy-5" cx="37" cy="49" r="5"></circle>
            </g>
            <g id="data-management-interface-symbol-with-gears-and-binary-code-numbers" transform="translate(98.000000, 26.084872)">
                <g id="Capa_1">
                    <g id="_x31_86_50_">
                        <g id="Group">
                            <path d="M37.5975293,9 L12.1959478,9 C10.0691442,9 10.0691442,11.3666237 12.1959478,11.3666237 L37.5975293,11.3666237 C39.7243328,11.3666237 39.7243328,9 37.5975293,9 Z" id="Shape" fill="#3F3F3F"></path>
                            <path d="M37.5975293,18 L12.1959478,18 C10.0691442,18 10.0691442,20.3666237 12.1959478,20.3666237 L37.5975293,20.3666237 C39.7243328,20.3666237 39.7243328,18 37.5975293,18 Z" id="Shape" fill="#3F3F3F"></path>
                            <path d="M18.5975293,27 C10.1298956,27 20.6635814,27 12.1959478,27 C10.0691442,27 10.0691442,29.3666237 12.1959478,29.3666237 C20.6635814,29.3666237 10.1298956,29.3666237 18.5975293,29.3666237 C20.7243328,29.3666237 20.7243328,27 18.5975293,27 Z" id="Shape" fill="#3F3F3F"></path>
                            <path d="M1.9934082,2.04821777 L44.1694336,2.04821777 C44.1778719,2.22938089 44.1694336,24.8642423 44.1694336,24.8642423 L46.3052859,24.8642423 L46.3052859,0 L0.0552241142,0 L0.0552241142,48.8940344 L1.9934082,48.8940344 L1.9934082,2.04821777 Z" id="Shape" fill="#3F3F3F"></path>
                            <path d="M38.3351225,49.1705 C38.3298451,48.7500997 38.2968612,48.3310172 38.2242965,47.9277491 C38.8166878,47.4519983 40.0054285,46.5018144 40.0054285,46.5018144 L40.070077,44.5105137 L37.3310918,41.1025034 L35.3335852,41.0379278 C35.3335852,41.0379278 34.3625384,41.8181065 33.877015,42.206878 C33.3717012,41.9433041 32.8360423,41.7205842 32.2766349,41.5479433 C32.2489284,40.9852131 32.192196,39.8584347 32.192196,39.8584347 L30.8266615,38.4061426 L26.460909,38.6183196 L25.0043388,39.9809966 C25.0043388,39.9809966 25.0769034,41.4635997 25.1098873,42.2042423 C24.6771382,42.4322337 24.2641795,42.6944897 23.8789272,42.9857388 C23.275981,42.6852646 22.0661306,42.085634 22.0661306,42.085634 L20.1200789,42.529756 L18.1687498,46.4438282 L18.0961852,46.7113557 L18.6133732,48.3863677 C18.6133732,48.3863677 20.0158497,49.079567 20.7177477,49.4288024 C20.73358,49.8992818 20.7916317,50.3579003 20.8932222,50.8033402 C20.3351341,51.2435086 19.2189581,52.1330704 19.2189581,52.1330704 L19.1543096,54.1217354 L21.8721851,57.5455601 C21.8721851,57.5455601 23.5081879,57.7933196 23.5979041,57.7471942 C23.6876204,57.7010687 23.867053,57.6101357 23.867053,57.6101357 C23.867053,57.6101357 24.9291354,56.7693351 25.459517,56.3489347 C25.8869886,56.5597938 26.33557,56.7377062 26.8052612,56.8787182 C26.8382451,57.466488 26.908171,58.6420275 26.908171,58.6420275 L28.2737056,60.0943196 L32.6341807,59.8386529 L34.0907508,58.4786117 C34.0907508,58.4786117 34.0036733,56.9643797 33.9588151,56.2066048 C34.3189996,56.0141959 34.6699486,55.800701 34.9997879,55.5648024 C35.5539178,55.9100842 36.6674552,56.6006478 36.6674552,56.6006478 L38.6135068,56.1552079 L40.9250204,52.4480412 L40.4790777,50.502866 C40.4817164,50.5015481 39.0515334,49.6133041 38.3351225,49.1705 Z M29.1458006,53.6328058 C26.7181836,53.5550515 24.8117126,51.5255326 24.8908741,49.1019708 C24.9687161,46.6718196 27.0018454,44.7714519 29.428143,44.8478883 C31.8583987,44.9269605 33.7622309,46.9551615 33.6857082,49.3839948 C33.6065468,51.8101924 31.5760563,53.7105601 29.1458006,53.6328058 Z" id="Shape" stroke="#3F3F3F" stroke-width="2"></path>
                            <path d="M47.443891,37.875567 C47.443891,37.875567 45.9055207,36.9201117 45.1350161,36.4443608 C45.1297387,35.9910137 45.0967548,35.5429381 45.016274,35.1093591 C45.6548428,34.5967079 46.9332998,33.5740412 46.9332998,33.5740412 L47.0032257,31.4325034 L44.0557821,27.7661907 L41.9091881,27.6963436 C41.9091881,27.6963436 40.862938,28.5331907 40.3417919,28.9549089 C39.7982168,28.6689313 39.2229772,28.429079 38.6173923,28.2445773 C38.5896858,27.6383574 38.5303147,26.4272354 38.5303147,26.4272354 L37.064509,24.8629244 L32.3649592,25.0922337 L30.8002017,26.5577045 C30.8002017,26.5577045 30.8780438,28.1510086 30.9136664,28.9470017 C30.446614,29.1934433 30.0046294,29.4728316 29.5916706,29.7904381 C28.9425469,29.4662423 27.6390222,28.823122 27.6390222,28.823122 L25.5491606,29.3015086 L23.4474248,33.5081478 L23.3682634,33.798079 L23.9263514,35.5982887 C23.9263514,35.5982887 24.9105918,36.0859003 25.6876931,36.4707182 L26.5584687,35.654957 L26.9146951,35.3241718 L27.3988992,35.3004502 L30.9031115,35.130445 C31.5166126,33.1457337 33.3795447,31.7250704 35.5564839,31.7962354 C38.1714496,31.8792612 40.2204111,34.0616529 40.1359722,36.6723522 C40.1148625,37.3747766 39.9301525,38.0310756 39.6359359,38.6214811 L42.0965368,41.6842096 L42.4026277,42.0650739 L42.3867954,42.5526856 L42.3458953,43.8152045 C42.8564865,44.1314931 43.345968,44.435921 43.345968,44.435921 L45.4384683,43.9575344 L47.9228176,39.9709794 L47.443891,37.875567 Z" id="Shape" stroke="#3F3F3F" stroke-width="2"></path>
                        </g>
                    </g>
                </g>
            </g>
            <g id="quality" transform="translate(11.000000, 28.584872)" fill="#3F3F3F">
                <g id="Group">
                    <path d="M39.3706531,31.9509787 C39.1806148,31.4951149 38.6546224,31.278383 38.195773,31.4673532 C37.7369235,31.6563234 37.518949,32.1790298 37.7091071,32.6348936 L44.4534872,48.8154383 L38.3016429,47.0440511 C37.8978265,46.9276426 37.4665536,47.1051745 37.2638061,47.4713191 L34.1741556,53.0466553 L26.9374745,35.6847489 C35.289926,34.0841021 41.6186199,26.7660936 41.6186199,18.0056681 C41.6187398,8.07734468 33.4907372,0 23.5,0 C13.5092628,0 5.38114031,8.07734468 5.38114031,18.0056681 C5.38114031,22.0270638 6.7148852,25.7445106 8.96560969,28.7449191 L0.168936224,49.8492936 C0.0366887755,50.1667064 0.0991556122,50.5313021 0.329719388,50.787234 C0.560163265,51.043166 0.918058673,51.1451574 1.25005612,51.0496 L8.50783929,48.9596085 L12.1527372,55.5374638 C12.3114821,55.8237787 12.6139847,56 12.940227,56 C13.3352908,55.9796255 13.6388724,55.7657532 13.7712398,55.4483404 L20.7416276,38.7254298 C20.9316658,38.2694468 20.7138112,37.7467404 20.2549617,37.5578894 C19.7961122,37.3690383 19.2701199,37.5855319 19.0800816,38.0415149 L12.8256046,53.0466553 L9.73619388,47.4713191 C9.53332653,47.1051745 9.10181378,46.9276426 8.69823724,47.0440511 L2.54651276,48.8154383 L10.2675816,30.2914723 C13.5765255,33.8087489 18.2839592,36.011217 23.5,36.011217 C24.0384617,36.011217 24.5710485,35.9863149 25.0976403,35.9404426 L33.2288801,55.4483404 C33.3611276,55.7657532 33.6648291,55.9796255 34.0098954,55.9985702 C34.3861352,56 34.6886378,55.8237787 34.8472628,55.5374638 L38.4922806,48.9596085 L45.7500638,51.0496 C46.082301,51.1452766 46.4398367,51.043166 46.6704005,50.787234 C46.9009643,50.5313021 46.9633112,50.1667064 46.8310638,49.8492936 L39.3706531,31.9509787 Z M7.17960969,18.0056681 C7.17960969,9.06282553 14.5009388,1.78723404 23.5,1.78723404 C32.4990612,1.78723404 39.8202704,9.06282553 39.8202704,18.0056681 C39.8202704,26.9485106 32.4990612,34.223983 23.5,34.223983 C14.5009388,34.223983 7.17960969,26.9485106 7.17960969,18.0056681 L7.17960969,18.0056681 Z" id="Shape"></path>
                    <path d="M33.8902372,14.6506723 C33.7867653,14.3339745 33.5143571,14.1006809 33.1837985,14.0455149 L27.1329082,13.0364426 L24.2974413,7.62958298 C24.1425332,7.33421277 23.8352347,7.14893617 23.5,7.14893617 C23.1648852,7.14893617 22.8574668,7.33421277 22.7025587,7.62958298 L19.8669719,13.0364426 L13.8162015,14.0455149 C13.4856429,14.1005617 13.2133546,14.3338553 13.1097628,14.6506723 C13.0061709,14.9674894 13.0884209,15.315166 13.323301,15.5528681 L17.6216429,19.9035915 L16.7176122,25.9341957 C16.6682143,26.2636426 16.8072959,26.5929702 17.0785051,26.7888511 C17.3494745,26.9844936 17.7078495,27.0141617 18.0078342,26.8658213 L23.5,24.1477957 L28.9920459,26.8658213 C29.1190179,26.9286128 29.2561811,26.9595915 29.3928648,26.9595915 C29.5795459,26.9595915 29.7650281,26.9019234 29.9214949,26.7889702 C30.1927041,26.5930894 30.3317857,26.2637617 30.2823878,25.9343149 L29.378477,19.9037106 L33.6768189,15.5528681 C33.9115791,15.315166 33.9938291,14.9674894 33.8902372,14.6506723 L33.8902372,14.6506723 Z M27.7813163,18.9691064 C27.5837245,19.1691574 27.4920026,19.449634 27.5336071,19.7267745 L28.249398,24.5015489 L23.9009388,22.3496 C23.7745663,22.287166 23.6374031,22.2558298 23.5,22.2558298 C23.3627168,22.2558298 23.2253138,22.2870468 23.0991811,22.3496 L18.7507219,24.5015489 L19.4665128,19.7267745 C19.5081173,19.449634 19.4163954,19.1690383 19.2188036,18.9691064 L15.8155,15.5242723 L20.6062628,14.7252596 C20.884426,14.6789106 21.1245816,14.5055489 21.2549107,14.2570043 L23.5,9.97610213 L25.7450893,14.2571234 C25.8755383,14.5056681 26.115574,14.6790298 26.3937372,14.7253787 L31.1846199,15.5243915 L27.7813163,18.9691064 L27.7813163,18.9691064 Z" id="Shape"></path>
                    <path d="M37.1218469,18.9070298 C36.629426,18.841617 36.1774107,19.1861957 36.1123061,19.6755404 C35.278176,25.9316936 29.8560306,30.649634 23.5,30.649634 C16.4842908,30.649634 10.7765485,24.9776681 10.7765485,18.0056681 C10.7765485,11.0336681 16.4842908,5.36170213 23.5,5.36170213 C29.8561505,5.36170213 35.278176,10.0795234 36.1123061,16.3357957 C36.1774107,16.8251404 36.6302653,17.1699574 37.1218469,17.1043064 C37.6140281,17.0394894 37.9604133,16.5902979 37.8950689,16.1010723 C36.9430791,8.9597617 30.7545459,3.57446809 23.5,3.57446809 C15.4926148,3.57446809 8.97807908,10.0481872 8.97807908,18.0056681 C8.97807908,25.9631489 15.4926148,32.4367489 23.5,32.4367489 C30.7545459,32.4367489 36.9430791,27.0514553 37.8951888,19.9101447 C37.9604133,19.4210383 37.614148,18.9718468 37.1218469,18.9070298 L37.1218469,18.9070298 Z" id="Shape"></path>
                </g>
            </g>
            <g id="database-with-internet-conection" transform="translate(304.000000, 26.584872)" fill="#3F3F3F">
                <g id="Capa_1">
                    <path d="M29.5143459,0.60137457 C25.5150753,0.60137457 21.8865753,1.40162543 19.171363,2.76389691 C16.4561507,4.12616838 14.5158185,6.14757732 14.5158185,8.63328179 L14.5158185,31.0918041 C14.5158185,33.5777113 16.4561507,35.5989175 19.171363,36.961189 C21.6560308,38.2076907 24.9062842,38.9813814 28.504476,39.1042474 C28.504274,39.1109381 28.5040719,49.2615739 28.5040719,49.2615739 C26.5328253,49.7680412 24.9675068,51.3393471 24.5644075,53.3212199 C24.5306644,53.3179759 1.22667466,53.3165567 1.22667466,53.3165567 C0.66880137,53.3086495 0.209934932,53.7561168 0.202054795,54.3159072 C0.194174658,54.8756976 0.640109589,55.3361409 1.19798288,55.3440481 C1.20747945,55.3442509 24.462774,55.3440481 24.462774,55.3440481 C25.0347911,57.6480893 27.081,59.3986254 29.5141438,59.3986254 C31.9476918,59.3986254 33.9943048,57.6474811 34.4640822,55.3393849 C34.4978253,55.3426289 57.8018151,55.3440481 57.8018151,55.3440481 C58.3596884,55.3519553 58.8185548,54.904488 58.8264349,54.3446976 C58.8343151,53.7849072 58.3883801,53.3244639 57.8305068,53.3165567 C57.8210103,53.316354 34.5657158,53.3165567 34.5657158,53.3165567 C34.0607808,51.3385361 32.4948562,49.7676357 30.5199726,49.3629485 C30.5232055,49.3292921 30.5246199,39.1241168 30.5246199,39.1241168 C34.1222055,38.9813814 37.372661,38.2076907 39.8573288,36.961189 C42.5725411,35.5989175 44.5128733,33.5777113 44.5128733,31.0918041 L44.5128733,8.63328179 C44.5128733,6.14737457 42.5725411,4.12616838 39.8573288,2.76389691 C37.1421164,1.40162543 33.5136164,0.60137457 29.5143459,0.60137457 Z M29.5143459,2.62886598 C33.2406404,2.62886598 36.6060651,3.39971821 38.9537397,4.57748797 C41.3012123,5.75525773 42.4925274,7.24303093 42.4925274,8.63328179 C42.4925274,10.0235326 41.3014144,11.5113058 38.9537397,12.6890756 C36.6062671,13.8668454 33.2406404,14.6376976 29.5143459,14.6376976 C25.7880514,14.6376976 22.4222226,13.8668454 20.0745479,12.6890756 C17.7268733,11.5113058 16.5363664,10.0235326 16.5363664,8.63328179 C16.5363664,7.24303093 17.7274795,5.75525773 20.0751541,4.57748797 C22.4228288,3.39971821 25.7880514,2.62886598 29.5143459,2.62886598 Z M21.1436199,5.50587629 C18.8993973,6.63174227 17.9273116,7.9216323 17.9273116,9.03898282 C17.9232705,9.31897938 18.146339,9.54909966 18.4253767,9.55295189 C18.7044144,9.55700687 18.9337466,9.33317182 18.9375856,9.05317526 C18.9375856,8.61219588 19.5374863,7.44496907 21.5954144,6.41257045 C23.6446541,5.38442955 26.8163082,4.63304124 30.322363,4.63304124 C30.6014007,4.63709622 30.8307329,4.41326117 30.8345719,4.1332646 C30.838411,3.85326804 30.6155445,3.62314777 30.3365068,3.61929553 C26.6744658,3.61929553 23.386226,4.38061856 21.1436199,5.50587629 Z M16.5363664,12.7300309 C17.2696233,13.4043746 18.1669486,13.9990378 19.171363,14.5028694 C21.8865753,15.8651409 25.5150753,16.6653918 29.5143459,16.6653918 C33.5136164,16.6653918 37.1421164,15.8651409 39.8573288,14.5028694 C40.8617432,13.9988351 41.7590685,13.4043746 42.4923253,12.7300309 L42.4923253,16.1193883 C42.4923253,17.5096392 41.3012123,18.9978179 38.9535377,20.1755876 C36.605863,21.3533574 33.2404384,22.1242096 29.5141438,22.1242096 C25.7878493,22.1242096 22.4224247,21.3533574 20.07475,20.1755876 C17.7270753,18.9978179 16.5363664,17.5094364 16.5363664,16.1191856 L16.5363664,12.7300309 Z M19.171363,21.9889759 C21.8865753,23.3512474 25.5150753,24.1514983 29.5143459,24.1514983 C33.5136164,24.1514983 37.1421164,23.3512474 39.8573288,21.9889759 C40.8617432,21.4849416 41.7590685,20.8902784 42.4923253,20.215732 L42.4923253,23.6054948 C42.4923253,24.9957457 41.3012123,26.4839244 38.9535377,27.6616942 C36.605863,28.8394639 33.2404384,29.6099107 29.5141438,29.6099107 C25.7878493,29.6099107 22.4224247,28.8394639 20.07475,27.6616942 C17.7270753,26.4839244 16.5359623,24.9957457 16.5359623,23.6054948 L16.5359623,20.215732 C17.2696233,20.8902784 18.1669486,21.4851443 19.171363,21.9889759 Z M19.171363,29.4748797 C21.8865753,30.8371512 25.5150753,31.6374021 29.5143459,31.6374021 C33.5136164,31.6374021 37.1421164,30.8371512 39.8573288,29.4748797 C40.8617432,28.9708454 41.7590685,28.3763849 42.4923253,27.7020412 L42.4923253,31.0918041 C42.4923253,32.482055 41.3012123,33.9698282 38.9535377,35.1475979 C36.605863,36.3253677 33.2404384,37.0962199 29.5141438,37.0962199 C25.7878493,37.0962199 22.4224247,36.3253677 20.07475,35.1475979 C17.7270753,33.9698282 16.5359623,32.482055 16.5359623,31.0918041 L16.5359623,27.7020412 C17.2696233,28.3763849 18.1669486,28.9710481 19.171363,29.4748797 Z M29.5143459,51.2886598 C31.200089,51.2886598 32.5451678,52.6383608 32.5451678,54.3298969 C32.5451678,56.021433 31.200089,57.371134 29.5143459,57.371134 C27.8286027,57.371134 26.483524,56.021433 26.483524,54.3298969 C26.483524,52.6383608 27.8286027,51.2886598 29.5143459,51.2886598 Z M29.5143459,51.7959381 C28.1254212,51.7959381 26.988661,52.9366048 26.988661,54.3303024 C26.9846199,54.610299 27.2076884,54.8404192 27.486726,54.8442715 C27.7657637,54.8483265 27.9950959,54.6244914 27.9989349,54.3444948 L27.9989349,54.3300997 C27.9989349,53.4842302 28.6713733,52.8094811 29.5143459,52.8094811 C29.7933836,52.8135361 30.0227158,52.589701 30.0265548,52.3097045 C30.0305959,52.0297079 29.8075274,51.7995876 29.5284897,51.7957354 C29.5238425,51.7959381 29.5191952,51.7959381 29.5143459,51.7959381 Z" id="path12103"></path>
                </g>
            </g>
            <g id="send-(2)" transform="translate(403.460095, 30.584872)" fill="#3F3F3F">
                <g id="Layer_1" transform="translate(0.000000, 0.000000)">
                    <g id="Group">
                        <path d="M56.5318912,0.288526271 C56.177487,-0.00130423729 55.7049482,-0.059270339 55.2914767,0.114627966 L1.36297927,23.3010686 C0.476968912,23.6488653 -0.0546373057,24.5183568 0.00443005181,25.5037805 C0.0634974093,26.4892042 0.654170984,27.3007297 1.5992487,27.6485263 L17.3702332,32.7495432 L17.3702332,46.6614076 C17.3702332,47.9366619 18.1971762,49.0380178 19.4375907,49.3858144 C20.6780052,49.7915771 22.0365544,49.3278483 22.8044301,48.2844585 L29.4199741,38.89395 L43.4189378,50.7190347 C43.8324093,51.0668314 44.3640155,51.2407297 44.9546891,51.2407297 C45.2500259,51.2407297 45.4862953,51.1827636 45.7225648,51.1247975 C46.5495078,50.8349669 47.1401813,50.1973398 47.2583161,49.3858144 L56.9453627,1.44784831 C57.0044301,1.04208559 56.827228,0.57835678 56.5318912,0.288526271 Z M28.2386269,36.4593737 L20.8552073,46.9512381 C20.6189378,47.2990347 20.323601,47.2410686 20.146399,47.1831025 C20.0282642,47.1831025 19.7329275,47.0092042 19.7329275,46.6614076 L19.7329275,31.9380178 C19.7329275,31.4163229 19.4375907,31.0105602 18.9059845,30.8366619 L2.30805699,25.3878483 L50.2707513,4.8098822 L26.6438083,23.8807297 C26.1122021,24.2864924 26.0531347,25.0400517 26.4666062,25.5037805 C26.7028756,25.793611 27.0572798,25.9095432 27.3526166,25.9095432 C27.588886,25.9095432 27.8842228,25.8515771 28.1204922,25.6197127 L48.6168653,9.09937373 L28.2386269,36.4593737 Z M44.9546891,48.9220856 L30.7785233,36.9810686 L53.4603886,6.60683136 L44.9546891,48.9220856 Z" id="Shape"></path>
                        <path d="M23.454171,26.4312381 L21.5640155,27.9383568 C21.0324093,28.3441195 20.973342,29.0976788 21.3868135,29.5614076 C21.6230829,29.8512381 21.977487,29.9671703 22.3318912,29.9671703 C22.5681606,29.9671703 22.8634974,29.9092042 23.0997668,29.7353059 L24.9899223,28.2281873 C25.5215285,27.8224246 25.5805959,27.0688653 25.1671244,26.6051364 C24.7536528,26.1414076 23.9857772,26.0834415 23.454171,26.4312381 Z" id="Shape"></path>
                    </g>
                </g>
            </g>
        </g>
    </g>
</svg>