<?xml version="1.0" encoding="UTF-8" standalone="no"?>
<svg width="222px" height="240px" viewBox="0 0 222 240" version="1.1" xmlns="http://www.w3.org/2000/svg" xmlns:xlink="http://www.w3.org/1999/xlink">
    <!-- Generator: Sketch 41 (35326) - http://www.bohemiancoding.com/sketch -->
    <title>Capa_1</title>
    <desc>Created with Sketch.</desc>
    <defs>
        <linearGradient x1="-35.4443941%" y1="100%" x2="50%" y2="2.3519489%" id="linearGradient-1">
            <stop stop-color="#ECF7FF" offset="0%"></stop>
            <stop stop-color="#3AACF1" offset="100%"></stop>
        </linearGradient>
    </defs>
    <g id="Page-1" stroke="none" stroke-width="1" fill="none" fill-rule="evenodd" opacity="0.378148321">
        <g id="BI-&amp;-DW" transform="translate(-1087.000000, -1237.000000)" fill="url(#linearGradient-1)">
            <g id="z" transform="translate(181.000000, 1105.000000)">
                <g id="Group-2" transform="translate(684.000000, 0.000000)">
                    <g id="Group-24">
                        <g id="thumbs-up-hand-symbol" transform="translate(347.000000, 252.000000) scale(-1, 1) translate(-347.000000, -252.000000) translate(222.000000, 132.000000)">
                            <g id="Capa_1" opacity="0.550606343">
                                <g id="Group" opacity="0.291452892">
                                    <path d="M241.193025,132.892901 C246.916787,126.353975 249.779762,118.621245 249.779762,109.693075 C249.779762,101.596587 246.809617,94.5908284 240.889559,88.6708915 C234.957471,82.7515001 227.933451,79.7934405 219.815858,79.7934405 L176.574882,79.7934405 C176.99044,78.3405882 177.407091,77.0949746 177.822649,76.057145 C178.234379,75.0193155 178.812879,73.8762305 179.538465,72.6306169 C180.264598,71.3844579 180.786779,70.4497023 181.0979,69.8279862 C182.970644,66.3005656 184.404319,63.3921342 185.394002,61.1103271 C186.382046,58.8241571 187.365715,55.7112138 188.357586,51.7665889 C189.347816,47.8241455 189.839924,43.8778846 189.839924,39.9332597 C189.839924,37.4431232 189.809851,35.4170923 189.76064,33.861166 C189.711976,32.304149 189.446784,29.9678055 188.982563,26.8532261 C188.511233,23.7402828 187.885709,21.1448909 187.107085,19.0697771 C186.32518,16.994118 185.075226,14.6566837 183.36105,12.0634733 C181.643046,9.46535453 179.562524,7.36624474 177.11456,5.75632733 C174.667143,4.14750065 171.546086,2.7982677 167.747559,1.70917384 C163.945205,0.618989248 159.654571,0.0741696368 154.864174,0.0741696368 C152.158674,0.0741696368 149.818974,1.06073488 147.839607,3.03332 C145.758537,5.1089791 143.986402,7.70382566 142.530856,10.8167689 C141.073123,13.9313483 140.05774,16.6303596 139.484708,18.9148935 C138.912223,21.1983366 138.261,24.3652711 137.535414,28.4124246 C136.595488,32.7742536 135.896148,35.9122837 135.424818,37.8325138 C134.957315,39.7527439 134.044182,42.2696032 132.692525,45.3830919 C131.338135,48.498762 129.726755,50.9883531 127.852917,52.8578643 C124.419098,56.2827563 119.163932,62.5113697 112.085233,71.541523 C106.984261,78.1840684 101.729095,84.4639461 96.3175485,90.3811561 C90.9049082,96.2994568 86.9505477,99.3611358 84.4533734,99.5689199 C81.8534033,99.7761586 79.6154058,100.840166 77.7415682,102.761486 C75.8677306,104.681717 74.9310852,106.940073 74.9310852,109.534374 L74.9310852,209.341618 C74.9310852,212.04063 75.9191286,214.34916 77.8968556,216.26939 C79.8734891,218.191801 82.215376,219.203453 84.9214227,219.307618 C88.5635681,219.411783 96.7855978,221.693044 109.587512,226.160674 C117.600122,228.855323 123.869577,230.908622 128.39697,232.308028 C132.923269,233.707435 139.250137,235.213733 147.361715,236.824741 C155.480949,238.433022 162.973019,239.239617 169.840112,239.239617 L172.49476,239.239617 L184.360029,239.239617 L189.978808,239.239617 C203.823991,239.032379 214.070771,234.982498 220.733912,227.09543 C226.768249,219.932061 229.316821,210.537604 228.383456,198.911513 C232.441706,195.071053 235.25383,190.1944 236.812718,184.276099 C238.579386,177.947684 238.579386,171.874499 236.812718,166.062545 C241.599288,159.730312 243.837285,152.619843 243.522883,144.730594 C243.536006,141.405503 242.757382,137.461969 241.193025,132.892901 Z" id="Shape"></path>
                                    <path d="M54.9520506,99.7276211 L9.99307142,99.7276211 C7.2853843,99.7276211 4.94349741,100.714186 2.96631716,102.686771 C0.989136911,104.658266 0,106.994064 0,109.693075 L0,209.348708 C0,212.043902 0.989136911,214.380791 2.96686395,216.355012 C4.94568456,218.324325 7.28757145,219.311436 9.9936182,219.311436 L54.9520506,219.311436 C57.6575506,219.311436 59.9983439,218.324325 61.9766177,216.355012 C63.953798,214.380791 64.9423881,212.044447 64.9423881,209.348708 L64.9423881,109.693075 C64.9423881,106.994064 63.9532512,104.658811 61.9766177,102.686771 C59.9988907,100.713641 57.6580974,99.7276211 54.9520506,99.7276211 Z M36.9983135,196.499364 C35.0211332,198.419594 32.6797931,199.379436 29.9737464,199.379436 C27.1632634,199.379436 24.7951307,198.419594 22.8709888,196.499364 C20.9457533,194.579134 19.9834089,192.218249 19.9834089,189.415073 C19.9834089,186.716607 20.9452065,184.380263 22.8709888,182.408769 C24.7956775,180.436184 27.1632634,179.448528 29.9737464,179.448528 C32.6797931,179.448528 35.0211332,180.436184 36.9983135,182.408769 C38.9760405,184.379718 39.9651774,186.716062 39.9651774,189.415073 C39.9651774,192.218249 38.9782277,194.578589 36.9983135,196.499364 Z" id="Shape"></path>
                                </g>
                            </g>
                        </g>
                    </g>
                </g>
            </g>
        </g>
    </g>
</svg>