<?xml version="1.0" encoding="UTF-8" standalone="no"?>
<svg width="153px" height="163px" viewBox="0 0 153 163" version="1.1" xmlns="http://www.w3.org/2000/svg" xmlns:xlink="http://www.w3.org/1999/xlink">
    <!-- Generator: Sketch 44.1 (41455) - http://www.bohemiancoding.com/sketch -->
    <title>Group 9</title>
    <desc>Created with Sketch.</desc>
    <defs>
        <path d="M4.05,0 L148.95,0 L148.95,8.8817842e-16 C151.186753,-1.54157941e-14 153,1.81324676 153,4.05 L153,92.0008564 L0,92.0008564 L0,4.05 L0,4.05 C-2.73923269e-16,1.81324676 1.81324676,-2.25365036e-15 4.05,-2.66453526e-15 Z" id="path-1"></path>
    </defs>
    <g id="Page-1" stroke="none" stroke-width="1" fill="none" fill-rule="evenodd">
        <g id="Desktop-HD" transform="translate(-946.000000, -960.000000)">
            <g id="Group-6" transform="translate(341.000000, 667.000000)">
                <g id="Group-9" transform="translate(0.000000, 83.000000)">
                    <g id="Group-25">
                        <g id="Group-21" transform="translate(0.000000, 210.000000)">
                            <g id="Group-9" transform="translate(605.000000, 0.000000)">
                                <g id="Group-8" transform="translate(0.000000, 24.694817)">
                                    <g id="Group-7">
                                        <g id="Rectangle">
                                            <use fill="#EEF2F3" fill-rule="evenodd" xlink:href="#path-1"></use>
                                            <path stroke="#31475B" stroke-width="4.05" d="M2.025,89.9758564 L150.975,89.9758564 L150.975,4.05 C150.975,2.93162338 150.068377,2.025 148.95,2.025 L4.05,2.025 C2.93162338,2.025 2.025,2.93162338 2.025,4.05 L2.025,89.9758564 Z"></path>
                                        </g>
                                        <path d="M0,92.0008564 L153,92.0008564 L153,103.420027 L153,103.420027 C153,105.65678 151.186753,107.470027 148.95,107.470027 L4.05,107.470027 L4.05,107.470027 C1.81324676,107.470027 -4.16696883e-15,105.65678 -4.4408921e-15,103.420027 L0,92.0008564 Z" id="Rectangle" fill="#EEF2F3"></path>
                                        <ellipse id="Oval-7" fill="#31475B" cx="76.5" cy="99.9389834" rx="3.48659517" ry="3.4602092"></ellipse>
                                        <g id="Group-28" transform="translate(13.539823, 9.116658)">
                                            <g id="Group-26" transform="translate(78.530973, 0.000000)">
                                                <polygon id="Rectangle-15" fill="#F05244" points="0 14.8770492 6.80577749 14.8770492 13.539823 14.8770492 13.539823 78.442623 0 78.442623"></polygon>
                                                <polygon id="Rectangle-15" fill="#FFFFFF" opacity="0.200000003" points="6.7699115 14.8770492 6.80577749 14.8770492 13.539823 14.8770492 13.539823 78.442623 6.7699115 78.442623"></polygon>
                                                <path d="M6.80139754,0 L13.539823,14.8770492 C11.2962155,16.0036581 9.03957833,16.5669626 6.7699115,16.5669626 C4.50024468,16.5669626 2.24360751,16.0036581 0,14.8770492 L6.80139754,0 Z" id="Rectangle-15" fill="#F5CA4B"></path>
                                                <polygon id="Rectangle-15" fill="#3A5366" points="6.80139754 0 9.85796052 6.74640468 3.7162616 6.74640468"></polygon>
                                            </g>
                                            <text id="&lt;/&gt;" font-family="OpenSans-Bold, Open Sans" font-size="44.55" font-weight="bold" fill="#31475B">
                                                <tspan x="0" y="48">&lt;</tspan>
                                                <tspan x="25.4291748" y="48" font-family="OpenSans, Open Sans" font-size="51.3" font-weight="normal">/</tspan>
                                                <tspan x="44.2658936" y="48">&gt;</tspan>
                                            </text>
                                        </g>
                                    </g>
                                    <g id="Group" transform="translate(42.659517, 107.470027)">
                                        <rect id="Rectangle-2" fill="#DADFE0" x="12.7158177" y="5.29208466" width="42.2493298" height="6.51333496"></rect>
                                        <polygon id="Rectangle-3" fill="#EEF1F2" points="12.6687503 11.8054196 54.9705802 11.8073576 68.0845433 23.6108392 0 23.6108392"></polygon>
                                        <path d="M0,23.6108392 L68.0911528,23.6108392 L68.0911528,27.8312576 L68.0911528,27.8312576 C68.0911528,29.3224265 66.8823216,30.5312576 65.3911528,30.5312576 L2.7,30.5312576 L2.7,30.5312576 C1.20883118,30.5312576 -9.31529342e-16,29.3224265 -1.77635684e-15,27.8312576 L0,23.6108392 Z" id="Rectangle-4" fill="#EEF1F2"></path>
                                        <polygon id="Rectangle-11" fill="#DBDFE0" points="8.20375335 0 59.4772118 0 55.268378 6.51333496 12.4125872 6.51333496"></polygon>
                                    </g>
                                </g>
                                <g id="Group-5" transform="translate(116.903485, 0.000000)">
                                    <g id="Group-4" fill="#F9A53D">
                                        <rect id="Rectangle-14" x="0" y="0" width="23.3806971" height="112.355028"></rect>
                                    </g>
                                    <g id="Group-3" transform="translate(11.895442, 3.663751)" fill="#FFC668">
                                        <path d="M0.814166871,0 L11.4852547,0 L11.4852547,1.62833374 L0.814166871,1.62833374 L0.814166871,1.62833374 C0.364514924,1.62833374 5.50664817e-17,1.26381882 0,0.814166871 L0,0.814166871 L0,0.814166871 C-5.50664817e-17,0.364514924 0.364514924,8.25997225e-17 0.814166871,0 Z" id="Rectangle-5"></path>
                                        <path d="M4.09566821,15.2706753 L11.4852547,15.2706753 L11.4852547,16.8990091 L4.09566821,16.8990091 L4.09566821,16.8990091 C3.64601626,16.8990091 3.28150134,16.5344941 3.28150134,16.0848422 L3.28150134,16.0848422 L3.28150134,16.0848422 C3.28150134,15.6351902 3.64601626,15.2706753 4.09566821,15.2706753 Z" id="Rectangle-5"></path>
                                        <path d="M4.09566821,30.1477245 L11.4852547,30.1477245 L11.4852547,31.7760582 L4.09566821,31.7760582 L4.09566821,31.7760582 C3.64601626,31.7760582 3.28150134,31.4115433 3.28150134,30.9618914 L3.28150134,30.9618914 L3.28150134,30.9618914 C3.28150134,30.5122394 3.64601626,30.1477245 4.09566821,30.1477245 Z" id="Rectangle-5"></path>
                                        <path d="M4.09566821,51.7870688 L11.4852547,51.7870688 L11.4852547,53.4154025 L4.09566821,53.4154025 L4.09566821,53.4154025 C3.64601626,53.4154025 3.28150134,53.0508876 3.28150134,52.6012356 L3.28150134,52.6012356 L3.28150134,52.6012356 C3.28150134,52.1515837 3.64601626,51.7870688 4.09566821,51.7870688 Z" id="Rectangle-5"></path>
                                        <path d="M4.09566821,59.9018229 L11.4852547,59.9018229 L11.4852547,61.5301566 L4.09566821,61.5301566 L4.09566821,61.5301566 C3.64601626,61.5301566 3.28150134,61.1656417 3.28150134,60.7159897 L3.28150134,60.7159897 L3.28150134,60.7159897 C3.28150134,60.2663378 3.64601626,59.9018229 4.09566821,59.9018229 Z" id="Rectangle-5"></path>
                                        <path d="M4.09566821,74.778872 L11.4852547,74.778872 L11.4852547,76.4072058 L4.09566821,76.4072058 L4.09566821,76.4072058 C3.64601626,76.4072058 3.28150134,76.0426909 3.28150134,75.5930389 L3.28150134,75.5930389 L3.28150134,75.5930389 C3.28150134,75.143387 3.64601626,74.778872 4.09566821,74.778872 Z" id="Rectangle-5"></path>
                                        <path d="M4.09566821,96.4182163 L11.4852547,96.4182163 L11.4852547,98.04655 L4.09566821,98.04655 L4.09566821,98.04655 C3.64601626,98.04655 3.28150134,97.6820351 3.28150134,97.2323832 L3.28150134,97.2323832 L3.28150134,97.2323832 C3.28150134,96.7827312 3.64601626,96.4182163 4.09566821,96.4182163 Z" id="Rectangle-5"></path>
                                        <path d="M4.09566821,104.53297 L11.4852547,104.53297 L11.4852547,106.161304 L4.09566821,106.161304 L4.09566821,106.161304 C3.64601626,106.161304 3.28150134,105.796789 3.28150134,105.347137 L3.28150134,105.347137 L3.28150134,105.347137 C3.28150134,104.897485 3.64601626,104.53297 4.09566821,104.53297 Z" id="Rectangle-5"></path>
                                        <path d="M3.89212649,7.15592121 L11.4852547,7.15592121 L11.4852547,8.37717152 L3.89212649,8.37717152 L3.89212649,8.37717152 C3.55488753,8.37717152 3.28150134,8.10378533 3.28150134,7.76654637 L3.28150134,7.76654637 L3.28150134,7.76654637 C3.28150134,7.42930741 3.55488753,7.15592121 3.89212649,7.15592121 Z" id="Rectangle-5"></path>
                                        <path d="M3.89212649,36.9100196 L11.4852547,36.9100196 L11.4852547,38.1312699 L3.89212649,38.1312699 L3.89212649,38.1312699 C3.55488753,38.1312699 3.28150134,37.8578837 3.28150134,37.5206447 L3.28150134,37.5206447 L3.28150134,37.5206447 C3.28150134,37.1834058 3.55488753,36.9100196 3.89212649,36.9100196 Z" id="Rectangle-5"></path>
                                        <path d="M3.89212649,82.8936261 L11.4852547,82.8936261 L11.4852547,84.1148764 L3.89212649,84.1148764 L3.89212649,84.1148764 C3.55488753,84.1148764 3.28150134,83.8414902 3.28150134,83.5042513 L3.28150134,83.5042513 L3.28150134,83.5042513 C3.28150134,83.1670123 3.55488753,82.8936261 3.89212649,82.8936261 Z" id="Rectangle-5"></path>
                                        <path d="M0.814166871,22.0329704 L11.4852547,22.0329704 L11.4852547,23.6613041 L0.814166871,23.6613041 L0.814166871,23.6613041 C0.364514924,23.6613041 5.50664817e-17,23.2967892 0,22.8471373 L0,22.8471373 L0,22.8471373 C-5.50664817e-17,22.3974853 0.364514924,22.0329704 0.814166871,22.0329704 Z" id="Rectangle-5"></path>
                                        <path d="M0.814166871,45.0247737 L11.4852547,45.0247737 L11.4852547,46.6531074 L0.814166871,46.6531074 L0.814166871,46.6531074 C0.364514924,46.6531074 5.50664817e-17,46.2885925 0,45.8389405 L0,45.8389405 L0,45.8389405 C-5.50664817e-17,45.3892886 0.364514924,45.0247737 0.814166871,45.0247737 Z" id="Rectangle-5"></path>
                                        <path d="M0.814166871,66.6641179 L11.4852547,66.6641179 L11.4852547,68.2924517 L0.814166871,68.2924517 L0.814166871,68.2924517 C0.364514924,68.2924517 5.50664817e-17,67.9279368 0,67.4782848 L0,67.4782848 L0,67.4782848 C-5.50664817e-17,67.0286329 0.364514924,66.6641179 0.814166871,66.6641179 Z" id="Rectangle-5"></path>
                                        <path d="M0.814166871,89.6559212 L11.4852547,89.6559212 L11.4852547,91.284255 L0.814166871,91.284255 L0.814166871,91.284255 C0.364514924,91.284255 5.50664817e-17,90.91974 0,90.4700881 L0,90.4700881 L0,90.4700881 C-5.50664817e-17,90.0204361 0.364514924,89.6559212 0.814166871,89.6559212 Z" id="Rectangle-5"></path>
                                    </g>
                                </g>
                            </g>
                        </g>
                    </g>
                </g>
            </g>
        </g>
    </g>
</svg>