<?xml version="1.0" encoding="UTF-8" standalone="no"?>
<svg width="60px" height="60px" viewBox="0 0 60 60" version="1.1" xmlns="http://www.w3.org/2000/svg" xmlns:xlink="http://www.w3.org/1999/xlink">
    <!-- Generator: Sketch 44.1 (41455) - http://www.bohemiancoding.com/sketch -->
    <title>internet (3)</title>
    <desc>Created with Sketch.</desc>
    <defs></defs>
    <g id="Page-1" stroke="none" stroke-width="1" fill="none" fill-rule="evenodd">
        <g id="Desktop-HD" transform="translate(-630.000000, -2267.000000)">
            <g id="Group-38" transform="translate(240.000000, 1801.000000)">
                <g id="Group-30" transform="translate(93.000000, 63.000000)">
                    <g id="Group-37" transform="translate(0.000000, 83.000000)">
                        <g id="Group-5" transform="translate(0.000000, 320.000000)">
                            <g id="Group-2">
                                <g id="internet-(3)" transform="translate(297.000000, 0.000000)">
                                    <circle id="Oval-4" fill="#FFEFF0" cx="34" cy="31" r="26"></circle>
                                    <g id="Group" fill-rule="nonzero">
                                        <rect id="Rectangle-path" fill="#89A0B9" x="35.746841" y="28.9843461" width="3.86317907" height="1.93158954"></rect>
                                        <path d="M54.1732394,39.5907042 C55.365996,36.6063984 56.0285312,33.3545674 56.0285312,29.9501408 C56.0285312,26.52833 55.3592354,23.2610463 54.1558551,20.2651509 C59.3325151,12.0240241 61.6185513,4.76221328 58.3802414,1.52390342 C55.3621328,-1.49420523 48.6952515,0.00567404427 39.5926358,5.72897384 C36.60833,4.5362173 33.356499,3.87368209 29.9520724,3.87368209 C26.5457143,3.87368209 23.2938833,4.5371831 20.3076459,5.72993964 C11.2040644,0.0076056338 4.54008048,-1.49613682 1.52390342,1.52293763 C-1.47199195,4.518833 0.118672032,11.3952918 5.72800805,20.3153722 C4.5371831,23.2987123 3.87561368,26.5476459 3.87561368,29.9501408 C3.87561368,33.3555332 4.53911469,36.6073642 5.73090543,39.5926358 C0.00857142857,48.6942857 -1.49420523,55.3592354 1.52390342,58.3783099 C2.54185111,59.3962575 3.97026157,59.9032998 5.7734004,59.9032998 C8.55682093,59.9032998 12.2326358,58.6979879 16.6762575,56.3047485 C17.8612877,55.6663581 19.0781891,54.9507042 20.316338,54.1742052 C23.2996781,55.3650302 26.5486117,56.0265996 29.9511066,56.0265996 C33.3536016,56.0265996 36.6025352,55.3650302 39.5858753,54.1742052 C40.8240241,54.95167 42.0409256,55.6673239 43.2259557,56.3047485 C47.6705433,58.6979879 51.3453924,59.9032998 54.1288129,59.9032998 C55.9319517,59.9032998 57.361328,59.3962575 58.3783099,58.3783099 C61.3973843,55.3602012 59.8965392,48.6933199 54.1732394,39.5907042 Z M27.2362575,5.96173038 C24.9589135,8.17629779 21.3671227,12.2664386 18.9555332,17.8921932 C14.6664386,16.6241046 12.4422133,14.8808451 11.6888934,14.184507 C15.5607646,9.70418511 21.0464789,6.65903421 27.2362575,5.96173038 Z M16.8018109,34.5985111 C17.1156942,36.5822535 17.6140443,38.4452716 18.2369819,40.1808048 C13.8822133,41.4846278 11.4860765,43.2800402 10.4758551,44.1985111 C7.72237425,40.4444668 6.02837022,35.8704628 5.83134809,30.9159356 L13.5712274,30.9159356 C14.6094567,32.1482897 15.6863179,33.3758149 16.8018109,34.5985111 Z M16.1054728,30.9159356 L16.4541247,30.9159356 C16.4589537,31.0559759 16.4579879,31.1998793 16.4647485,31.3389537 C16.3420926,31.1979477 16.227163,31.0569416 16.1054728,30.9159356 Z M16.4541247,28.9843461 L14.4645875,28.9843461 C13.5055533,27.8253924 12.5725956,26.6654728 11.6898592,25.5045875 L10.1532797,26.674165 C10.7395171,27.4448692 11.3585915,28.2146076 11.9786318,28.9843461 L5.83134809,28.9843461 C5.92309859,26.6703018 6.34321932,24.4402817 7.04342052,22.3367807 C7.51472837,23.0369819 8.00631791,23.746841 8.5239839,24.4692555 L10.0934004,23.3431388 C9.30917505,22.2488934 8.58386318,21.1758954 7.90490946,20.1241449 C8.60704225,18.5547284 9.46949698,17.0731992 10.4758551,15.7008048 C11.4860765,16.6192757 13.8822133,18.4146881 18.2369819,19.7185111 C17.2412475,22.4932394 16.5642254,25.5924748 16.4541247,28.9843461 Z M2.88953722,2.88857143 C5.00655936,0.77444668 10.7897384,2.23762575 18.1877264,6.68897384 C13.2428571,9.20004024 9.20390342,13.238994 6.69187123,18.1828974 C2.30716298,10.8679678 0.770583501,5.00849095 2.88953722,2.88857143 Z M15.7616499,54.6039839 C9.54289738,57.9523944 4.73323944,58.8515493 2.89050302,57.0117103 C0.775412475,54.8975855 2.23762575,49.1086117 6.68993964,41.7115895 C9.20197183,46.6603219 13.2447887,50.7031388 18.1944869,53.2142052 C17.370664,53.7096579 16.5584306,54.175171 15.7616499,54.6039839 Z M20.1338028,52.0002012 C16.8732797,50.5428169 13.9952113,48.3842656 11.6879276,45.7157746 C12.4412475,45.0184708 14.6654728,43.2752113 18.9545674,42.0080885 C20.2535614,45.0377867 21.8934809,47.6212877 23.4889738,49.7074044 C22.3560966,50.5225352 21.2367404,51.2864789 20.1338028,52.0002012 Z M20.1415292,39.6776258 C19.8633803,38.9262374 19.6113078,38.1507042 19.3891751,37.3500604 C19.9078068,37.8860765 20.4138833,38.4240241 20.9460362,38.9561771 C21.097666,39.1078068 21.2512274,39.2565392 21.4038229,39.4072032 C20.9682495,39.4921932 20.5490946,39.5820121 20.1415292,39.6776258 Z M23.1171429,41.0751308 C24.8835815,42.76334 26.6654728,44.3733199 28.4454326,45.8915493 C27.3183501,46.8138833 26.194165,47.7014487 25.0806036,48.5387928 C23.615493,46.617827 22.1040241,44.2535614 20.8851911,41.5058753 C21.5892555,41.3474849 22.3222938,41.1987525 23.1171429,41.0751308 Z M22.3406439,52.8587928 C23.121006,52.3334004 23.9081288,51.7877264 24.7020121,51.2150101 C25.6291751,52.3102213 26.5003219,53.2228974 27.2362575,53.9385513 C25.5451509,53.7482897 23.9081288,53.3812877 22.3406439,52.8587928 Z M28.9862777,52.9177062 C28.2493763,52.2136419 27.3077264,51.2459155 26.2907445,50.043501 C27.1850704,49.3703421 28.0842254,48.6701408 28.9862777,47.9438632 L28.9862777,52.9177062 Z M28.9862777,43.8102616 C27.860161,42.8348089 26.7350101,41.8216901 25.6127565,40.7757344 C26.664507,40.6781891 27.7944869,40.6212072 28.9862777,40.5980282 L28.9862777,43.8102616 Z M28.9862777,38.6538833 C27.083662,38.6876861 25.3452314,38.8180684 23.7680885,39.0237827 C23.281328,38.5515091 22.7955332,38.0744064 22.31167,37.5905433 C21.0397183,36.3185915 19.8228169,35.0321529 18.6329577,33.7418511 C18.5035412,32.8243461 18.4214487,31.8817304 18.3866801,30.9159356 L28.9862777,30.9159356 L28.9862777,38.6538833 Z M28.9862777,28.9843461 L18.3866801,28.9843461 C18.5006439,25.789497 19.168008,22.8544467 20.1415292,20.2226559 C22.5676056,20.7876459 25.4920322,21.1826559 28.9862777,21.2454326 L28.9862777,28.9843461 Z M28.9862777,19.3032193 C25.8001207,19.2414085 23.1132797,18.8966197 20.8851911,18.3953722 C23.3238229,12.9 26.9397586,8.93830986 28.9862777,6.98354125 L28.9862777,19.3032193 Z M57.0146076,2.88857143 C59.1161771,4.99014085 57.7698592,10.7066801 53.2344869,18.2273239 C50.7243863,13.262173 46.6738431,9.20583501 41.7135211,6.68800805 C49.1086117,2.23665996 54.9024145,0.777344064 57.0146076,2.88857143 Z M41.667163,19.7194769 C46.0219316,18.4156539 48.4180684,16.6202414 49.4282897,15.7017706 C50.44334,17.0857545 51.3125553,18.5817706 52.0185513,20.1676056 C49.7730785,23.6261167 46.9065996,27.408169 43.4393964,31.3582696 C43.4606439,30.8946881 43.4731992,30.4253119 43.4731992,29.9501408 C43.4731992,26.1777465 42.7565795,22.7549698 41.667163,19.7194769 Z M43.1013682,34.6052716 C46.7781489,30.5556942 50.123662,26.3371026 52.84334,22.2875252 C53.6517103,24.6971831 54.0969416,27.271992 54.0969416,29.9501408 C54.0969416,35.2755332 52.3604427,40.2020523 49.4282897,44.1985111 C48.4180684,43.2800402 46.0219316,41.4846278 41.667163,40.1808048 C42.2891348,38.4472032 42.7874849,36.5861167 43.1013682,34.6052716 Z M48.2162173,14.184507 C47.4628974,14.8818109 45.238672,16.6250704 40.9495775,17.8921932 C38.5379879,12.2664386 34.9452314,8.17726358 32.6688531,5.96173038 C38.857666,6.65903421 44.3433803,9.70418511 48.2162173,14.184507 Z M30.9178672,6.98257545 C32.9634205,8.93637827 36.5793561,12.8990342 39.0189537,18.3944064 C36.7908652,18.8956539 34.1040241,19.2414085 30.9178672,19.3022535 L30.9178672,6.98257545 Z M30.9178672,30.9159356 L33.8152515,30.9159356 L33.8152515,28.9843461 L30.9178672,28.9843461 L30.9178672,21.2463984 C34.4121127,21.1836217 37.3365392,20.7886117 39.7626157,20.2236217 C40.8327163,23.1181087 41.5416097,26.377666 41.5416097,29.9501408 C41.5416097,31.2655533 41.4421328,32.5365392 41.2682897,33.7640644 C40.0996781,35.0282897 38.8789135,36.3041046 37.5924748,37.5905433 C37.1086117,38.0744064 36.6228169,38.5515091 36.1360563,39.0237827 C34.5589135,38.8190342 32.8204829,38.6886519 30.9178672,38.6538833 L30.9178672,30.9159356 Z M38.5012877,39.4072032 C38.6538833,39.2565392 38.8064789,39.1078068 38.9590744,38.9561771 C39.4806036,38.4346479 39.996338,37.9063581 40.5091751,37.375171 C40.288008,38.1661569 40.0378672,38.9339638 39.7635815,39.6776258 C39.3550503,39.5820121 38.9358954,39.4921932 38.5012877,39.4072032 Z M39.0189537,41.5058753 C37.7991549,44.2535614 36.2886519,46.617827 34.8235412,48.5387928 C33.7090141,47.7004829 32.5857948,46.8138833 31.4587123,45.8915493 C33.238672,44.3742857 35.0205634,42.76334 36.787002,41.0751308 C37.5818511,41.1987525 38.3148893,41.3474849 39.0189537,41.5058753 Z M30.9178672,40.5970624 C32.1086922,40.6202414 33.238672,40.6772233 34.2913883,40.7747686 C33.1691348,41.8207243 32.0439839,42.8348089 30.9178672,43.8102616 L30.9178672,40.5970624 Z M30.9178672,52.9177062 L30.9178672,47.9438632 C31.8199195,48.6701408 32.7190744,49.3703421 33.6134004,50.043501 C32.5964185,51.2449497 31.6547686,52.2136419 30.9178672,52.9177062 Z M32.6678873,53.9385513 C33.4038229,53.2228974 34.2749698,52.3111871 35.2021328,51.2150101 C35.9960161,51.7877264 36.7831388,52.3334004 37.563501,52.8587928 C35.9960161,53.3812877 34.358994,53.7482897 32.6678873,53.9385513 Z M36.415171,49.7074044 C38.010664,47.6212877 39.6505835,45.0377867 40.9495775,42.0080885 C45.238672,43.2761771 47.4628974,45.0194366 48.2162173,45.7157746 C45.9098994,48.3842656 43.0308652,50.5428169 39.7703421,52.0002012 C38.6674044,51.2864789 37.5480483,50.5225352 36.415171,49.7074044 Z M57.0146076,57.0126761 C55.172837,58.8525151 50.3612475,57.9533602 44.1434608,54.6049497 C43.3466801,54.175171 42.5334809,53.7096579 41.7106237,53.2142052 C46.6603219,50.702173 50.7031388,46.6603219 53.215171,41.7106237 C57.6665191,49.1066801 59.1277666,54.8985513 57.0146076,57.0126761 Z" id="Shape" fill="#859DBA"></path>
                                    </g>
                                </g>
                            </g>
                        </g>
                    </g>
                </g>
            </g>
        </g>
    </g>
</svg>