<?xml version="1.0" encoding="UTF-8" standalone="no"?>
<svg width="56px" height="55px" viewBox="0 0 56 55" version="1.1" xmlns="http://www.w3.org/2000/svg" xmlns:xlink="http://www.w3.org/1999/xlink">
    <!-- Generator: Sketch 44.1 (41455) - http://www.bohemiancoding.com/sketch -->
    <title>Group 29</title>
    <desc>Created with Sketch.</desc>
    <defs></defs>
    <g id="Page-1" stroke="none" stroke-width="1" fill="none" fill-rule="evenodd">
        <g id="Desktop-HD" transform="translate(-637.000000, -1950.000000)">
            <g id="Group-38" transform="translate(240.000000, 1801.000000)">
                <g id="Group-30" transform="translate(93.000000, 63.000000)">
                    <g id="Group-37" transform="translate(0.000000, 83.000000)">
                        <g id="Group-5" transform="translate(15.000000, 3.000000)">
                            <g id="Group-29" transform="translate(290.000000, 0.000000)">
                                <rect id="Rectangle-9" fill="#FFEFF0" x="6" y="0" width="49" height="49" rx="3"></rect>
                                <g id="font-window" transform="translate(0.000000, 4.000000)">
                                    <rect id="Rectangle-10" x="3" y="10" width="44" height="36"></rect>
                                    <path d="M45.9892324,0.0237179487 L3.91034115,0.0237179487 C1.75458422,0.0237179487 0,1.78108974 0,3.9417735 L0,46.0644231 C0,48.2247863 1.75458422,49.982906 3.91034115,49.982906 L45.9892324,49.982906 C48.1457356,49.982906 49.9,48.2247863 49.9,46.0644231 L49.9,3.9417735 C49.9,1.78044872 48.145629,0.0237179487 45.9892324,0.0237179487 Z M43.3389126,4.48354701 C44.2652452,4.48354701 45.0151386,5.23568376 45.0151386,6.16303419 C45.0151386,7.09070513 44.2653518,7.84220085 43.3389126,7.84220085 C42.4126866,7.84220085 41.6626866,7.0900641 41.6626866,6.16303419 C41.6626866,5.23568376 42.41258,4.48354701 43.3389126,4.48354701 Z M37.3335821,4.48354701 C38.2598081,4.48354701 39.0098081,5.23568376 39.0098081,6.16303419 C39.0098081,7.09070513 38.2599147,7.84220085 37.3335821,7.84220085 C36.4077825,7.84220085 35.6586354,7.0900641 35.6586354,6.16303419 C35.658742,5.23568376 36.4078891,4.48354701 37.3335821,4.48354701 Z M45.4315565,45.5043803 L4.46833689,45.5043803 L4.46833689,12.0113248 L45.4309168,12.0113248 L45.4309168,45.5043803 L45.4315565,45.5043803 Z M12.6141791,37.1023504 L12.3079957,37.1023504 C11.303838,37.1023504 10.8012793,36.9425214 10.8012793,36.6230769 C10.8012793,36.3369658 11.1153518,35.6986111 11.7439232,34.7083333 L13.2770789,32.266453 L20.8291045,32.266453 L21.2976546,34.7575855 C21.4365672,35.5110043 21.5056503,36.0963675 21.5056503,36.5137821 C21.5056503,36.9066239 20.9139659,37.1029915 19.7292111,37.1029915 L19.3502132,37.1029915 L19.1904051,37.8638889 L25.9883795,37.8638889 L26.1471215,37.1029915 L25.8415778,37.0910256 C25.2044776,37.0581197 24.7776119,36.8977564 24.5614072,36.6117521 C24.3453092,36.325 24.1310235,35.6253205 23.9180171,34.5127137 L21.017484,19.3894231 L20.1227079,19.3894231 L10.6541578,34.7330128 C9.86993603,35.9605769 9.38603412,36.6495726 9.20298507,36.8018162 C9.01897655,36.953312 8.5434968,37.0492521 7.77537313,37.0897436 L7.54317697,37.1023504 L7.39605544,37.8638889 L12.4557569,37.8638889 L12.6141791,37.1023504 Z M19.025693,22.6544872 L20.6047974,31.1979701 L13.7649254,31.1979701 L19.025693,22.6544872 Z M30.7259062,38.1696581 C31.8022388,38.1696581 32.9641791,37.6316239 34.210661,36.5529915 C35.4589552,35.474359 36.5906183,34.0383547 37.6045842,32.2424145 L36.4867804,37.8626068 L41.1712154,37.8626068 L41.3180171,37.1017094 L41.0981876,37.0897436 C40.2324094,37.0316239 39.7219616,36.9747863 39.566951,36.9166667 C39.4113006,36.8599359 39.3337953,36.7001068 39.3337953,36.4380342 C39.3337953,35.9385684 39.4029851,35.3532051 39.5416844,34.6813034 L41.5355011,24.5316239 L39.1269723,24.5316239 C38.6298507,24.4303419 38.2012793,24.3532051 37.8427505,24.3021368 C37.4835821,24.2509615 37.191258,24.2251068 36.9624733,24.2251068 C34.7940299,24.2251068 32.7757996,25.3693376 30.9086354,27.659188 C29.0414712,29.9490385 28.108209,32.4244658 28.108209,35.0855769 C28.108209,36.109188 28.326226,36.879594 28.7630064,37.3955128 C29.1990405,37.911859 29.8537313,38.1696581 30.7259062,38.1696581 Z M31.3143923,30.6086538 C31.7460554,29.1367521 32.2621535,27.9571581 32.8644989,27.0742521 C33.619403,25.9691239 34.6075693,25.4172009 35.8275053,25.4172009 C36.3555437,25.4172009 36.8672708,25.4766026 37.3637527,25.5977564 C37.8603412,25.717735 38.3436034,25.903312 38.815565,26.1534188 L37.9687633,30.4134615 C35.441258,34.3735043 33.3989339,36.353312 31.8424307,36.353312 C31.4504264,36.353312 31.1574627,36.2061966 30.9614072,35.911859 C30.7660981,35.6169872 30.6690832,35.175 30.6690832,34.5864316 C30.6691898,33.4074786 30.8834755,32.0819444 31.3143923,30.6086538 Z" id="Shape" stroke="#859DBA" stroke-width="2" fill-rule="nonzero"></path>
                                </g>
                            </g>
                        </g>
                    </g>
                </g>
            </g>
        </g>
    </g>
</svg>