<?xml version="1.0" encoding="UTF-8" standalone="no"?>
<svg width="61px" height="55px" viewBox="0 0 61 55" version="1.1" xmlns="http://www.w3.org/2000/svg" xmlns:xlink="http://www.w3.org/1999/xlink">
    <!-- Generator: Sketch 44.1 (41455) - http://www.bohemiancoding.com/sketch -->
    <title>Group 2</title>
    <desc>Created with Sketch.</desc>
    <defs></defs>
    <g id="Page-1" stroke="none" stroke-width="1" fill="none" fill-rule="evenodd">
        <g id="Desktop-HD" transform="translate(-775.000000, -2424.000000)">
            <g id="Group-38" transform="translate(240.000000, 1801.000000)">
                <g id="Group-30" transform="translate(93.000000, 63.000000)">
                    <g id="Group-37" transform="translate(0.000000, 83.000000)">
                        <g id="Group-5" transform="translate(441.000000, 477.000000)">
                            <g id="Group-2" transform="translate(1.000000, 0.000000)">
                                <g id="update-arrow" transform="translate(30.500000, 27.500000) scale(-1, -1) translate(-30.500000, -27.500000) " fill="#FFEFF0">
                                    <circle id="Oval-5" cx="32" cy="28" r="23"></circle>
                                    <path d="M44.1803696,52.3311849 C47.5136817,50.9014218 50.4002011,48.9796069 52.80812,46.5734394 C55.2161377,44.1673706 57.1387389,41.312681 58.5702929,37.98193 C60.0056006,34.6396304 60.7274034,31.1318987 60.7274034,27.4703824 C60.7274034,23.809557 60.0056006,20.3307464 58.5702929,16.9892364 C57.1394303,13.6577945 55.2243366,10.7962941 52.8082188,8.39713476 C50.4071159,6.01307751 47.5136817,4.09945527 44.1803696,2.66969213 C40.8362902,1.23548719 37.3252687,0.514239051 33.6616283,0.514239051 C28.9634403,0.514239051 24.6165224,1.62972081 20.5721749,3.88032692 C16.5504485,6.11770637 13.3034722,9.19458429 10.8507061,13.0626932 C8.39793999,16.9301113 7.00925751,21.2114055 6.74323661,25.8466611 L0.272596642,25.8466611 L8.42757469,33.8183926 L16.4943401,25.8466611 L9.99406542,25.8466611 C10.2008169,22.8056136 10.9748755,19.9447054 12.298658,17.2255397 C13.6343931,14.4823883 15.3420438,12.146796 17.4398849,10.1690145 C19.5377259,8.19064084 21.9886152,6.65052386 24.7974917,5.50414698 C27.6322492,4.34701109 30.5886078,3.76187916 33.6616283,3.76187916 C37.9461158,3.76187916 41.9312927,4.83136371 45.5691508,6.95098634 C49.2290374,9.0831447 52.1285961,11.9698153 54.2560719,15.6017196 C56.3835477,19.2329331 57.4476313,23.1891869 57.4476313,27.4704811 C57.4476313,31.7517753 56.3898698,35.741392 54.2560719,39.3991574 C52.1349182,43.0341217 49.2289386,45.9177324 45.5691508,48.0498907 M33.6616283,51.238307 C29.9682545,51.238307 26.4225604,50.3823245 23.0835189,48.6992806 L21.6948364,51.7107161 C25.5659197,53.5708394 29.5547516,54.4859471 33.6616283,54.4859471" id="Shape" fill-rule="nonzero"></path>
                                </g>
                                <g id="Group-39" transform="translate(3.000000, 4.000000)">
                                    <path d="M0,23.5 C0,36.4786916 10.5213084,47 23.5,47 C36.4786916,47 47,36.4786916 47,23.5" id="Oval-9" stroke="#879FBB" stroke-width="3"></path>
                                    <path d="M39.7266413,6.50153045 C35.5083343,2.4735941 29.7930366,0 23.5,0 C10.5213084,0 0,10.5213084 0,23.5" id="Oval-9" stroke="#879FBB" stroke-width="3" stroke-dasharray="5"></path>
                                    <polygon id="Shape" fill="#879FBB" fill-rule="nonzero" transform="translate(47.147360, 20.020952) scale(1, -1) translate(-47.147360, -20.020952) " points="40 16.5085774 47.1862271 23.5333263 54.2947206 16.5085774"></polygon>
                                </g>
                            </g>
                        </g>
                    </g>
                </g>
            </g>
        </g>
    </g>
</svg>