<?xml version="1.0" encoding="UTF-8" standalone="no"?>
<svg width="104px" height="45px" viewBox="0 0 104 45" version="1.1" xmlns="http://www.w3.org/2000/svg" xmlns:xlink="http://www.w3.org/1999/xlink">
    <!-- Generator: Sketch 44.1 (41455) - http://www.bohemiancoding.com/sketch -->
    <title>magnifying-glass</title>
    <desc>Created with Sketch.</desc>
    <defs></defs>
    <g id="Page-1" stroke="none" stroke-width="1" fill="none" fill-rule="evenodd">
        <g id="Desktop-HD" transform="translate(-775.000000, -2101.000000)">
            <g id="Group-38" transform="translate(240.000000, 1801.000000)">
                <g id="Group-30" transform="translate(93.000000, 63.000000)">
                    <g id="Group-37" transform="translate(0.000000, 83.000000)">
                        <g id="Group-5" transform="translate(441.000000, 154.000000)">
                            <g id="magnifying-glass" transform="translate(1.000000, 0.000000)">
                                <path d="M65.0310981,8 L7,8 L7,8 C5.34314575,8 4,9.34314575 4,11 L4,11 L4,26 C4,27.6568542 5.34314575,29 7,29 L7,29 L65.7510955,29 C69.0431033,33.2580603 74.2013445,36 80,36 C89.9411255,36 98,27.9411255 98,18 C98,8.0588745 89.9411255,0 80,0 C73.7591678,0 68.2601435,3.17605703 65.0310981,8 Z" id="Combined-Shape" fill="#FFEFF0"></path>
                                <rect id="Rectangle-7" stroke="#859DBA" stroke-width="2" x="1" y="11" width="89" height="21" rx="5"></rect>
                                <path d="M37.5,15.5 L37.5,28.5384048" id="Line" stroke="#859DBA" stroke-linecap="square"></path>
                                <ellipse id="Oval-2" fill="#FFEFF0" cx="79.5717076" cy="20.673118" rx="15.5717076" ry="15.673118"></ellipse>
                                <path d="M103.013035,42.5617654 L93.2022329,32.6870703 C95.8339627,29.641772 97.427323,25.6684686 97.427323,21.3257651 C97.427323,11.7664116 89.7022112,4 80.2136615,4 C70.7161603,4 63,11.7754214 63,21.3257651 C63,30.8761089 70.7251117,38.6515303 80.2136615,38.6515303 C84.5282662,38.6515303 88.4758609,37.0477933 91.5014551,34.3989244 L101.312257,44.2736194 C101.544995,44.5078731 101.858297,44.6340098 102.162646,44.6340098 C102.466996,44.6340098 102.780297,44.5168829 103.013035,44.2736194 C103.478511,43.805112 103.478511,43.0302728 103.013035,42.5617654 Z M65.4079433,21.3257651 C65.4079433,13.1088656 72.0499281,6.43263473 80.20471,6.43263473 C88.3684434,6.43263473 95.0014768,13.1178754 95.0014768,21.3257651 C95.0014768,29.5336549 88.3684434,36.2279053 80.20471,36.2279053 C72.0499281,36.2279053 65.4079433,29.5426647 65.4079433,21.3257651 Z" id="Shape" fill="#859DBA" fill-rule="nonzero"></path>
                            </g>
                        </g>
                    </g>
                </g>
            </g>
        </g>
    </g>
</svg>