<?xml version="1.0" encoding="UTF-8" standalone="no"?>
<svg width="77px" height="83px" viewBox="0 0 77 83" version="1.1" xmlns="http://www.w3.org/2000/svg" xmlns:xlink="http://www.w3.org/1999/xlink">
    <!-- Generator: Sketch 47.1 (45422) - http://www.bohemiancoding.com/sketch -->
    <title>wallet</title>
    <desc>Created with Sketch.</desc>
    <defs></defs>
    <g id="Page-1" stroke="none" stroke-width="1" fill="none" fill-rule="evenodd">
        <g id="chatbots" transform="translate(-1040.000000, -676.000000)">
            <g id="wallet" transform="translate(1040.000000, 676.000000)">
                <rect id="Rectangle-4" fill="#FFEFF0" x="7" y="20" width="70" height="57" rx="8"></rect>
                <path d="M69.1999723,14.27325 L43.9875156,0.57325 C41.5958201,-0.72675 38.3072388,0.27325 37.011737,2.67325 L22.2629481,30.17325 L4.32523183,30.17325 C2.03319031,30.17325 0.239418685,31.97325 0.239418685,34.27325 L0.239418685,41.47325 L0.239418685,78.77325 C0.239418685,81.07325 2.03319031,82.87325 4.32523183,82.87325 L61.6262699,82.87325 C63.9183114,82.87325 65.712083,81.07325 65.712083,78.77325 L65.712083,68.37325 L67.4062007,68.37325 C68.3030865,68.37325 69.0006644,67.67325 69.0006644,66.77325 L69.0006644,54.87325 C69.0006644,53.97325 68.3030865,53.27325 67.4062007,53.27325 L65.712083,53.27325 L65.712083,41.57325 C65.712083,39.67325 64.3169273,37.97325 62.5231557,37.57325 L71.2927059,21.27325 C72.5882076,18.77325 71.6913218,15.67325 69.1999723,14.27325 Z M51.2622561,8.17325 L35.5169273,37.47325 L31.0324983,37.47325 L47.8740208,6.37325 L51.2622561,8.17325 Z M39.9017024,4.17325 C40.3999723,3.27325 41.5958201,2.87325 42.4927059,3.37325 L44.9840554,4.77325 L27.444955,37.47325 L21.9639862,37.47325 L39.9017024,4.17325 Z M3.32869204,34.17325 C3.32869204,33.87325 3.72730796,33.37325 4.22557785,33.37325 L20.4691765,33.37325 L18.2767889,37.37325 L4.22557785,37.37325 C3.92661592,37.37325 3.62765398,37.37325 3.32869204,37.47325 L3.32869204,34.17325 Z M62.4235017,78.77325 C62.4235017,79.27325 62.0248858,79.67325 61.5266159,79.67325 L4.22557785,79.67325 C3.72730796,79.67325 3.32869204,79.27325 3.32869204,78.77325 L3.32869204,41.57325 C3.32869204,41.07325 3.72730796,40.67325 4.22557785,40.67325 L19.2733287,40.67325 L25.6511834,40.67325 L37.310699,40.67325 L59.7328443,40.67325 L61.4269619,40.67325 C61.9252318,40.67325 62.3238478,41.07325 62.3238478,41.57325 L62.3238478,53.27325 L56.244955,53.27325 L56.244955,53.27325 C53.5542976,53.27325 51.461564,55.47325 51.461564,58.07325 L51.461564,63.57325 C51.461564,66.27325 53.6539516,68.37325 56.244955,68.37325 L62.4235017,68.37325 L62.4235017,78.77325 Z M65.6124291,56.47325 L65.712083,56.47325 L65.712083,65.17325 L65.6124291,65.17325 L56.244955,65.17325 C55.3480692,65.17325 54.6504913,64.47325 54.6504913,63.57325 L54.6504913,58.07325 C54.6504913,57.17325 55.3480692,56.47325 56.244955,56.47325 L65.6124291,56.47325 L65.6124291,56.47325 Z M68.4027405,19.67325 L58.8359585,37.47325 L39.1044706,37.47325 L54.0525675,9.77325 L67.6055087,17.17325 C68.6020484,17.57325 68.9010104,18.77325 68.4027405,19.67325 Z" id="Shape" fill="#859DBA" fill-rule="nonzero"></path>
                <path d="M62.3238478,18.17325 L61.5266159,17.77325 C59.5335363,16.67325 56.8428789,17.47325 55.7466851,19.47325 L54.7501453,21.37325 C54.2518754,22.37325 54.0525675,23.57325 54.4511834,24.67325 C54.7501453,25.77325 55.5473772,26.67325 56.543917,27.17325 L57.3411488,27.57325 C57.9390727,27.87325 58.6366505,28.07325 59.3342284,28.07325 C60.928692,28.07325 62.3238478,27.17325 63.1210796,25.87325 L64.1176194,23.97325 C65.1141592,21.87325 64.3169273,19.27325 62.3238478,18.17325 Z M61.227654,22.47325 L60.2311142,24.37325 C59.9321522,24.87325 59.2345744,25.07325 58.7363045,24.77325 L57.9390727,24.27325 C57.7397647,24.17325 57.5404567,23.87325 57.4408028,23.67325 C57.3411488,23.37325 57.3411488,23.07325 57.5404567,22.87325 L58.5369965,20.97325 C58.7363045,20.67325 59.1349204,20.37325 59.5335363,20.37325 C59.7328443,20.37325 59.8324983,20.37325 60.0318062,20.47325 L60.8290381,20.87325 C61.227654,21.27325 61.4269619,21.87325 61.227654,22.47325 Z" id="Shape" fill="#859DBA" fill-rule="nonzero"></path>
            </g>
        </g>
    </g>
</svg>