<?xml version="1.0" encoding="UTF-8" standalone="no"?>
<svg width="100px" height="87px" viewBox="0 0 100 87" version="1.1" xmlns="http://www.w3.org/2000/svg" xmlns:xlink="http://www.w3.org/1999/xlink">
    <!-- Generator: Sketch 47.1 (45422) - http://www.bohemiancoding.com/sketch -->
    <title>aeroplane</title>
    <desc>Created with Sketch.</desc>
    <defs></defs>
    <g id="Page-1" stroke="none" stroke-width="1" fill="none" fill-rule="evenodd">
        <g id="chatbots" transform="translate(-843.000000, -1032.000000)" fill-rule="nonzero">
            <g id="aeroplane" transform="translate(843.000000, 1033.000000)">
                <path d="M97.3433055,0.792393027 C96.3192892,0.158478605 95.1672708,-0.0950871632 93.7592483,0.0316957211 C91.3272094,0.412044374 89.2791767,1.29952456 87.3591461,2.69413629 C85.6951195,3.96196513 83.7750889,5.48335975 81.5990541,7.25832013 C80.5750378,8.14580032 79.5510214,9.03328051 78.5270051,9.9207607 C77.8869948,10.5546751 77.2469846,11.0618067 76.6069744,11.6957211 C75.9669642,12.2028526 75.454956,12.4564184 74.6869437,12.3296355 C74.3029376,12.2028526 73.7909294,12.0760697 73.2789213,11.9492868 L49.3425391,3.07448494 C48.5745268,2.82091918 47.8065145,2.56735341 46.9105002,2.31378764 C45.1184716,1.8066561 43.8384512,2.31378764 43.0704389,2.94770206 C41.6624164,3.96196513 40.510398,5.22979398 39.7423858,6.62440571 C38.8463715,8.01901743 39.1023756,9.54041204 40.382396,10.681458 C40.8944042,11.1885895 41.4064124,11.5689382 41.7904185,11.822504 C46.142488,14.8652932 50.6225595,17.7812995 54.974629,20.8240887 C56.6386556,21.9651347 58.1746801,22.9793978 59.3266985,24.3740095 C59.5827026,24.7543582 59.8387067,25.0079239 60.0947107,25.3882726 L51.7745779,33.2488114 C50.8785636,34.1362916 49.9825493,34.8969889 49.086535,35.7844691 C48.9585329,35.7844691 48.8305309,35.6576862 48.7025288,35.6576862 L47.2945064,35.0237718 C46.142488,34.5166403 45.1184716,33.8827258 43.9664532,33.3755943 C42.5584307,32.7416799 41.0224062,32.8684628 39.8703878,33.8827258 C39.2303776,34.3898574 38.5903674,35.0237718 37.9503572,35.6576862 C36.7983388,36.7987322 36.6703367,38.1933439 37.6943531,39.4611727 C37.9503572,39.8415214 38.2063613,40.0950872 38.4623653,40.3486529 L40.8944042,43.3914422 C43.7104491,47.0681458 46.6544961,50.7448494 49.5985432,54.2947702 C49.9825493,54.8019017 50.3665554,55.1822504 50.8785636,55.4358162 C51.3905718,55.6893819 52.4145881,56.3232964 53.6946086,55.9429477 C55.2306331,55.4358162 56.3826515,54.4215531 56.8946597,52.9001585 C57.4066678,51.6323296 57.5346699,50.2377179 57.0226617,48.7163233 L56.7666576,47.5752773 C56.5106535,46.5610143 56.2546494,45.5467512 55.9986453,44.5324881 C59.4547005,41.8700475 62.9107557,39.3343899 66.2388089,36.6719493 L67.9028354,35.4041204 L68.2868416,36.0380349 C69.1828559,37.4326466 69.9508681,38.8272583 70.4628763,40.3486529 L76.3509703,55.3090333 C76.7349764,56.1965135 76.9909805,57.0839937 77.3749867,57.844691 C78.0149969,59.2393027 79.0390132,60 80.3190337,60 C80.8310418,60 81.34305,59.8732171 81.8550582,59.6196513 C82.2390643,59.4928685 82.6230705,59.3660856 82.8790746,59.1125198 C84.9271073,58.0982567 86.2071277,56.703645 86.7191359,54.8019017 C87.103142,53.2805071 86.97514,51.8858954 86.8471379,50.8716323 L83.7750889,28.6846276 C83.5190848,26.9096672 83.2630807,25.0079239 83.0070766,23.2329635 C82.8790746,22.3454834 83.1350786,21.8383518 83.7750889,21.3312203 L86.4631318,19.0491284 C88.6391665,17.274168 90.6871992,15.4992076 92.863234,13.7242472 C94.6552626,12.2028526 95.807281,10.8082409 96.8312973,9.28684628 C97.5993096,8.14580032 98.3673219,6.75118859 98.751328,5.22979398 C99.3913382,3.58161648 98.751328,1.8066561 97.3433055,0.792393027 Z" id="Shape" stroke="#FFEFF0" fill="#FFEFF0"></path>
                <path d="M90.3433055,10.792393 C89.3192892,10.1584786 88.1672708,9.90491284 86.7592483,10.0316957 C84.3272094,10.4120444 82.2791767,11.2995246 80.3591461,12.6941363 C78.6951195,13.9619651 76.7750889,15.4833597 74.5990541,17.2583201 C73.5750378,18.1458003 72.5510214,19.0332805 71.5270051,19.9207607 C70.8869948,20.5546751 70.2469846,21.0618067 69.6069744,21.6957211 C68.9669642,22.2028526 68.454956,22.4564184 67.6869437,22.3296355 C67.3029376,22.2028526 66.7909294,22.0760697 66.2789213,21.9492868 L42.3425391,13.0744849 C41.5745268,12.8209192 40.8065145,12.5673534 39.9105002,12.3137876 C38.1184716,11.8066561 36.8384512,12.3137876 36.0704389,12.9477021 C34.6624164,13.9619651 33.510398,15.229794 32.7423858,16.6244057 C31.8463715,18.0190174 32.1023756,19.540412 33.382396,20.681458 C33.8944042,21.1885895 34.4064124,21.5689382 34.7904185,21.822504 C39.142488,24.8652932 43.6225595,27.7812995 47.974629,30.8240887 C49.6386556,31.9651347 51.1746801,32.9793978 52.3266985,34.3740095 C52.5827026,34.7543582 52.8387067,35.0079239 53.0947107,35.3882726 L44.7745779,43.2488114 C43.8785636,44.1362916 42.9825493,44.8969889 42.086535,45.7844691 C41.9585329,45.7844691 41.8305309,45.6576862 41.7025288,45.6576862 L40.2945064,45.0237718 C39.142488,44.5166403 38.1184716,43.8827258 36.9664532,43.3755943 C35.5584307,42.7416799 34.0224062,42.8684628 32.8703878,43.8827258 C32.2303776,44.3898574 31.5903674,45.0237718 30.9503572,45.6576862 C29.7983388,46.7987322 29.6703367,48.1933439 30.6943531,49.4611727 C30.9503572,49.8415214 31.2063613,50.0950872 31.4623653,50.3486529 L33.8944042,53.3914422 C36.7104491,57.0681458 39.6544961,60.7448494 42.5985432,64.2947702 C42.9825493,64.8019017 43.3665554,65.1822504 43.8785636,65.4358162 C44.3905718,65.6893819 45.4145881,66.3232964 46.6946086,65.9429477 C48.2306331,65.4358162 49.3826515,64.4215531 49.8946597,62.9001585 C50.4066678,61.6323296 50.5346699,60.2377179 50.0226617,58.7163233 L49.7666576,57.5752773 C49.5106535,56.5610143 49.2546494,55.5467512 48.9986453,54.5324881 C52.4547005,51.8700475 55.9107557,49.3343899 59.2388089,46.6719493 L60.9028354,45.4041204 L61.2868416,46.0380349 C62.1828559,47.4326466 62.9508681,48.8272583 63.4628763,50.3486529 L69.3509703,65.3090333 C69.7349764,66.1965135 69.9909805,67.0839937 70.3749867,67.844691 C71.0149969,69.2393027 72.0390132,70 73.3190337,70 C73.8310418,70 74.34305,69.8732171 74.8550582,69.6196513 C75.2390643,69.4928685 75.6230705,69.3660856 75.8790746,69.1125198 C77.9271073,68.0982567 79.2071277,66.703645 79.7191359,64.8019017 C80.103142,63.2805071 79.97514,61.8858954 79.8471379,60.8716323 L76.7750889,38.6846276 C76.5190848,36.9096672 76.2630807,35.0079239 76.0070766,33.2329635 C75.8790746,32.3454834 76.1350786,31.8383518 76.7750889,31.3312203 L79.4631318,29.0491284 C81.6391665,27.274168 83.6871992,25.4992076 85.863234,23.7242472 C87.6552626,22.2028526 88.807281,20.8082409 89.8312973,19.2868463 C90.5993096,18.1458003 91.3673219,16.7511886 91.751328,15.229794 C92.3913382,13.5816165 91.751328,11.8066561 90.3433055,10.792393 Z M89.3192892,14.7226624 C88.935283,15.9904913 88.2952728,17.1315372 87.6552626,18.1458003 C86.8872503,19.4136292 85.7352319,20.681458 84.1992074,21.9492868 C82.1511747,23.7242472 79.97514,25.4992076 77.7991052,27.274168 L75.2390643,29.429477 C73.8310418,30.4437401 73.1910316,31.9651347 73.4470357,33.7400951 C73.7030398,35.5150555 73.9590439,37.2900158 74.215048,39.1917591 L77.287097,61.3787639 C77.4150991,62.6465927 77.4150991,63.5340729 77.159095,64.2947702 C76.7750889,65.4358162 76.0070766,66.3232964 74.7270562,66.9572108 C74.4710521,67.0839937 74.215048,67.2107765 73.8310418,67.3375594 C73.0630296,67.5911252 72.8070255,67.4643423 72.5510214,66.8304279 C72.1670153,66.0697306 71.9110112,65.1822504 71.5270051,64.2947702 L65.8949151,49.3343899 C65.2549049,47.6862124 64.3588906,46.1648177 63.4628763,44.6434231 L62.694864,43.3755943 L61.5428456,41.7274168 L57.5747823,44.6434231 C53.9907251,47.3058637 50.4066678,50.0950872 46.9506126,52.7575277 C46.0545983,53.3914422 46.1826004,54.1521395 46.3106024,54.659271 C46.5666065,55.800317 46.9506126,56.9413629 47.2066167,58.0824089 L47.4626208,59.2234548 C47.7186249,60.2377179 47.7186249,61.1251981 47.3346188,61.8858954 C46.9506126,62.6465927 46.4386045,63.1537242 45.5425902,63.40729 C45.5425902,63.40729 45.2865861,63.40729 44.9025799,63.1537242 C44.6465759,63.0269414 44.3905718,62.7733756 44.2625697,62.5198098 C41.3185227,58.8431062 38.5024778,55.2931854 35.6864328,51.6164818 L33.254394,48.5736926 C32.9983899,48.3201268 32.8703878,48.066561 32.6143837,47.6862124 C32.4863817,47.5594295 32.4863817,47.4326466 32.4863817,47.4326466 C32.4863817,47.4326466 32.6143837,47.3058637 32.7423858,47.1790808 C33.254394,46.6719493 33.8944042,46.0380349 34.4064124,45.6576862 C34.7904185,45.2773376 35.3024267,45.2773376 35.8144348,45.5309033 C36.9664532,46.0380349 37.9904696,46.5451664 39.142488,47.1790808 L40.5505105,47.8129952 C40.8065145,47.9397781 41.0625186,48.066561 41.3185227,48.1933439 C41.9585329,48.5736926 42.7265452,48.4469097 43.3665554,47.9397781 C44.3905718,46.9255151 45.4145881,46.0380349 46.4386045,45.0237718 L55.2707455,36.7828843 L56.2947618,35.7686212 L55.6547516,34.881141 C55.5267496,34.6275753 55.3987475,34.5007924 55.2707455,34.2472266 C54.8867394,33.7400951 54.6307353,33.2329635 54.2467291,32.8526149 C52.8387067,31.2044374 51.1746801,29.9366086 49.3826515,28.7955626 C45.030582,25.8795563 40.5505105,22.836767 36.198441,19.7939778 C35.8144348,19.540412 35.4304287,19.2868463 35.0464226,18.9064976 C34.6624164,18.526149 34.6624164,18.3993661 34.9184205,18.1458003 C35.5584307,17.0047544 36.5824471,15.9904913 37.7344655,15.1030111 C37.9904696,14.8494453 38.3744757,14.7226624 39.27049,14.9762282 C40.1665043,15.229794 40.9345166,15.4833597 41.5745268,15.7369255 L65.510909,24.6117274 C66.1509192,24.8652932 66.7909294,24.9920761 67.3029376,25.118859 C68.7109601,25.3724247 70.1189826,24.9920761 71.271001,23.977813 C71.9110112,23.3438986 72.5510214,22.836767 73.1910316,22.2028526 C74.215048,21.3153724 75.2390643,20.4278922 76.2630807,19.540412 C78.4391154,17.7654517 80.231144,16.2440571 81.8951706,14.9762282 C83.4311951,13.8351823 85.2232237,13.0744849 87.1432544,12.8209192 C87.7832646,12.6941363 88.2952728,12.8209192 88.807281,13.0744849 C89.3192892,13.2012678 89.5752932,13.9619651 89.3192892,14.7226624 Z" id="Shape" stroke="#859DBA" fill="#859DBA"></path>
                <path d="M33.7400564,58.4843101 C33.3591633,57.9669308 32.4704129,57.837586 31.9625555,58.2256205 L0.475396824,82.6717931 C-0.0324605737,83.0598276 -0.159424923,83.9652414 0.221468125,84.4826207 C0.475396824,84.8706552 0.856289872,85 1.23718292,85 C1.49111162,85 1.74504032,84.8706552 1.99896902,84.7413103 L33.4861277,60.2951377 C34.1209494,59.9071032 34.1209494,59.1310343 33.7400564,58.4843101 Z" id="Shape" fill="#859DBA"></path>
                <path d="M36.7863941,65.4689232 C36.2965658,64.9679815 35.5618233,64.842746 34.949538,65.2184523 L16.4585201,79.7457623 C15.9686918,80.1214685 15.8462347,80.9981166 16.2136059,81.4990583 C16.4585201,81.8747646 16.8258913,82 17.1932625,82 C17.4381767,82 17.6830908,81.8747646 17.9280049,81.7495291 L36.5414799,67.2222192 C37.0313082,66.8465129 37.1537653,65.9698649 36.7863941,65.4689232 Z" id="Shape" fill="#859DBA"></path>
                <path d="M14.8039576,82.3865683 C14.4667931,81.9736047 13.6800758,81.8703638 13.2305231,82.1800865 L10.4208188,84.1416637 C9.97126607,84.4513864 9.8588779,85.1740728 10.1960424,85.5870364 C10.4208188,85.8967591 10.7579833,86 11.0951478,86 C11.3199242,86 11.5447005,85.8967591 11.7694769,85.7935182 L14.5791812,83.831941 C15.0287339,83.5222183 15.1411221,82.799532 14.8039576,82.3865683 Z" id="Shape" fill="#859DBA"></path>
                <path d="M9.80395758,67.3865683 C9.46679306,66.9736047 8.68007583,66.8703638 8.23052314,67.1800865 L5.42081877,69.1416637 C4.97126607,69.4513864 4.8588779,70.1740728 5.19604242,70.5870364 C5.42081877,70.8967591 5.75798329,71 6.09514782,71 C6.31992417,71 6.54470052,70.8967591 6.76947686,70.7935182 L9.57918123,68.831941 C10.0287339,68.5222183 10.1411221,67.799532 9.80395758,67.3865683 Z" id="Shape" fill="#859DBA"></path>
                <path d="M30.7732811,53.4776617 C30.3833575,52.9673848 29.4735358,52.8398155 28.9536376,53.2225232 L13.486668,64.7037539 C12.9667698,65.0864616 12.8367953,65.9794462 13.2267189,66.4897231 C13.486668,66.7448615 13.8765916,67 14.2665152,67 C14.5264642,67 14.7864133,66.8724308 15.0463624,66.7448615 L30.513332,55.2636309 C31.0332302,54.8809232 31.1632047,53.9879386 30.7732811,53.4776617 Z" id="Shape" fill="#859DBA"></path>
            </g>
        </g>
    </g>
</svg>